<svg xmlns="http://www.w3.org/2000/svg" xmlns:xlink="http://www.w3.org/1999/xlink" width="600" height="400" viewBox="0 0 2400 1600">
<defs>
  <clipPath id="clip590">
    <rect x="0" y="0" width="2400" height="1600"></rect>
  </clipPath>
</defs>
<path clip-path="url(#clip590)" d="M0 1600 L2400 1600 L2400 0 L0 0  Z" fill="#ffffff" fill-rule="evenodd" fill-opacity="1"></path>
<defs>
  <clipPath id="clip591">
    <rect x="480" y="0" width="1681" height="1600"></rect>
  </clipPath>
</defs>
<path clip-path="url(#clip590)" d="M251.56 1423.18 L2352.76 1423.18 L2352.76 123.472 L251.56 123.472  Z" fill="#ffffff" fill-rule="evenodd" fill-opacity="1"></path>
<defs>
  <clipPath id="clip592">
    <rect x="251" y="123" width="2102" height="1301"></rect>
  </clipPath>
</defs>
<polyline clip-path="url(#clip592)" style="stroke:#000000; stroke-linecap:round; stroke-linejoin:round; stroke-width:2; stroke-opacity:0.1; fill:none" points="311.028,1423.18 311.028,123.472 "></polyline>
<polyline clip-path="url(#clip592)" style="stroke:#000000; stroke-linecap:round; stroke-linejoin:round; stroke-width:2; stroke-opacity:0.1; fill:none" points="472.845,1423.18 472.845,123.472 "></polyline>
<polyline clip-path="url(#clip592)" style="stroke:#000000; stroke-linecap:round; stroke-linejoin:round; stroke-width:2; stroke-opacity:0.1; fill:none" points="634.662,1423.18 634.662,123.472 "></polyline>
<polyline clip-path="url(#clip592)" style="stroke:#000000; stroke-linecap:round; stroke-linejoin:round; stroke-width:2; stroke-opacity:0.1; fill:none" points="796.479,1423.18 796.479,123.472 "></polyline>
<polyline clip-path="url(#clip592)" style="stroke:#000000; stroke-linecap:round; stroke-linejoin:round; stroke-width:2; stroke-opacity:0.1; fill:none" points="958.297,1423.18 958.297,123.472 "></polyline>
<polyline clip-path="url(#clip592)" style="stroke:#000000; stroke-linecap:round; stroke-linejoin:round; stroke-width:2; stroke-opacity:0.1; fill:none" points="1120.11,1423.18 1120.11,123.472 "></polyline>
<polyline clip-path="url(#clip592)" style="stroke:#000000; stroke-linecap:round; stroke-linejoin:round; stroke-width:2; stroke-opacity:0.1; fill:none" points="1281.93,1423.18 1281.93,123.472 "></polyline>
<polyline clip-path="url(#clip592)" style="stroke:#000000; stroke-linecap:round; stroke-linejoin:round; stroke-width:2; stroke-opacity:0.1; fill:none" points="1443.75,1423.18 1443.75,123.472 "></polyline>
<polyline clip-path="url(#clip592)" style="stroke:#000000; stroke-linecap:round; stroke-linejoin:round; stroke-width:2; stroke-opacity:0.1; fill:none" points="1605.57,1423.18 1605.57,123.472 "></polyline>
<polyline clip-path="url(#clip592)" style="stroke:#000000; stroke-linecap:round; stroke-linejoin:round; stroke-width:2; stroke-opacity:0.1; fill:none" points="1767.38,1423.18 1767.38,123.472 "></polyline>
<polyline clip-path="url(#clip592)" style="stroke:#000000; stroke-linecap:round; stroke-linejoin:round; stroke-width:2; stroke-opacity:0.1; fill:none" points="1929.2,1423.18 1929.2,123.472 "></polyline>
<polyline clip-path="url(#clip592)" style="stroke:#000000; stroke-linecap:round; stroke-linejoin:round; stroke-width:2; stroke-opacity:0.1; fill:none" points="2091.02,1423.18 2091.02,123.472 "></polyline>
<polyline clip-path="url(#clip592)" style="stroke:#000000; stroke-linecap:round; stroke-linejoin:round; stroke-width:2; stroke-opacity:0.1; fill:none" points="2252.83,1423.18 2252.83,123.472 "></polyline>
<polyline clip-path="url(#clip590)" style="stroke:#000000; stroke-linecap:round; stroke-linejoin:round; stroke-width:4; stroke-opacity:1; fill:none" points="251.56,1423.18 2352.76,1423.18 "></polyline>
<polyline clip-path="url(#clip590)" style="stroke:#000000; stroke-linecap:round; stroke-linejoin:round; stroke-width:4; stroke-opacity:1; fill:none" points="311.028,1423.18 311.028,1404.28 "></polyline>
<polyline clip-path="url(#clip590)" style="stroke:#000000; stroke-linecap:round; stroke-linejoin:round; stroke-width:4; stroke-opacity:1; fill:none" points="472.845,1423.18 472.845,1404.28 "></polyline>
<polyline clip-path="url(#clip590)" style="stroke:#000000; stroke-linecap:round; stroke-linejoin:round; stroke-width:4; stroke-opacity:1; fill:none" points="634.662,1423.18 634.662,1404.28 "></polyline>
<polyline clip-path="url(#clip590)" style="stroke:#000000; stroke-linecap:round; stroke-linejoin:round; stroke-width:4; stroke-opacity:1; fill:none" points="796.479,1423.18 796.479,1404.28 "></polyline>
<polyline clip-path="url(#clip590)" style="stroke:#000000; stroke-linecap:round; stroke-linejoin:round; stroke-width:4; stroke-opacity:1; fill:none" points="958.297,1423.18 958.297,1404.28 "></polyline>
<polyline clip-path="url(#clip590)" style="stroke:#000000; stroke-linecap:round; stroke-linejoin:round; stroke-width:4; stroke-opacity:1; fill:none" points="1120.11,1423.18 1120.11,1404.28 "></polyline>
<polyline clip-path="url(#clip590)" style="stroke:#000000; stroke-linecap:round; stroke-linejoin:round; stroke-width:4; stroke-opacity:1; fill:none" points="1281.93,1423.18 1281.93,1404.28 "></polyline>
<polyline clip-path="url(#clip590)" style="stroke:#000000; stroke-linecap:round; stroke-linejoin:round; stroke-width:4; stroke-opacity:1; fill:none" points="1443.75,1423.18 1443.75,1404.28 "></polyline>
<polyline clip-path="url(#clip590)" style="stroke:#000000; stroke-linecap:round; stroke-linejoin:round; stroke-width:4; stroke-opacity:1; fill:none" points="1605.57,1423.18 1605.57,1404.28 "></polyline>
<polyline clip-path="url(#clip590)" style="stroke:#000000; stroke-linecap:round; stroke-linejoin:round; stroke-width:4; stroke-opacity:1; fill:none" points="1767.38,1423.18 1767.38,1404.28 "></polyline>
<polyline clip-path="url(#clip590)" style="stroke:#000000; stroke-linecap:round; stroke-linejoin:round; stroke-width:4; stroke-opacity:1; fill:none" points="1929.2,1423.18 1929.2,1404.28 "></polyline>
<polyline clip-path="url(#clip590)" style="stroke:#000000; stroke-linecap:round; stroke-linejoin:round; stroke-width:4; stroke-opacity:1; fill:none" points="2091.02,1423.18 2091.02,1404.28 "></polyline>
<polyline clip-path="url(#clip590)" style="stroke:#000000; stroke-linecap:round; stroke-linejoin:round; stroke-width:4; stroke-opacity:1; fill:none" points="2252.83,1423.18 2252.83,1404.28 "></polyline>
<path clip-path="url(#clip590)" d="M301.41 1481.64 L309.049 1481.64 L309.049 1455.28 L300.739 1456.95 L300.739 1452.69 L309.003 1451.02 L313.679 1451.02 L313.679 1481.64 L321.317 1481.64 L321.317 1485.58 L301.41 1485.58 L301.41 1481.64 Z" fill="#000000" fill-rule="nonzero" fill-opacity="1"></path><path clip-path="url(#clip590)" d="M463.123 1451.02 L481.479 1451.02 L481.479 1454.96 L467.405 1454.96 L467.405 1463.43 Q468.424 1463.08 469.442 1462.92 Q470.461 1462.73 471.479 1462.73 Q477.266 1462.73 480.646 1465.9 Q484.026 1469.08 484.026 1474.49 Q484.026 1480.07 480.553 1483.17 Q477.081 1486.25 470.762 1486.25 Q468.586 1486.25 466.317 1485.88 Q464.072 1485.51 461.665 1484.77 L461.665 1480.07 Q463.748 1481.2 465.97 1481.76 Q468.192 1482.32 470.669 1482.32 Q474.674 1482.32 477.012 1480.21 Q479.35 1478.1 479.35 1474.49 Q479.35 1470.88 477.012 1468.77 Q474.674 1466.67 470.669 1466.67 Q468.794 1466.67 466.919 1467.08 Q465.067 1467.5 463.123 1468.38 L463.123 1451.02 Z" fill="#000000" fill-rule="nonzero" fill-opacity="1"></path><path clip-path="url(#clip590)" d="M624.963 1484.86 L624.963 1480.6 Q626.723 1481.44 628.528 1481.88 Q630.334 1482.32 632.07 1482.32 Q636.699 1482.32 639.13 1479.21 Q641.584 1476.09 641.931 1469.75 Q640.588 1471.74 638.528 1472.8 Q636.468 1473.87 633.968 1473.87 Q628.783 1473.87 625.75 1470.74 Q622.741 1467.59 622.741 1462.15 Q622.741 1456.83 625.889 1453.61 Q629.037 1450.39 634.269 1450.39 Q640.264 1450.39 643.412 1455 Q646.584 1459.58 646.584 1468.33 Q646.584 1476.51 642.695 1481.39 Q638.829 1486.25 632.278 1486.25 Q630.519 1486.25 628.713 1485.9 Q626.908 1485.56 624.963 1484.86 M634.269 1470.21 Q637.417 1470.21 639.246 1468.06 Q641.097 1465.9 641.097 1462.15 Q641.097 1458.43 639.246 1456.27 Q637.417 1454.1 634.269 1454.1 Q631.121 1454.1 629.269 1456.27 Q627.44 1458.43 627.44 1462.15 Q627.44 1465.9 629.269 1468.06 Q631.121 1470.21 634.269 1470.21 Z" fill="#000000" fill-rule="nonzero" fill-opacity="1"></path><path clip-path="url(#clip590)" d="M771.491 1481.64 L779.13 1481.64 L779.13 1455.28 L770.82 1456.95 L770.82 1452.69 L779.084 1451.02 L783.76 1451.02 L783.76 1481.64 L791.399 1481.64 L791.399 1485.58 L771.491 1485.58 L771.491 1481.64 Z" fill="#000000" fill-rule="nonzero" fill-opacity="1"></path><path clip-path="url(#clip590)" d="M815.009 1466.95 Q818.366 1467.66 820.241 1469.93 Q822.139 1472.2 822.139 1475.53 Q822.139 1480.65 818.621 1483.45 Q815.102 1486.25 808.621 1486.25 Q806.445 1486.25 804.13 1485.81 Q801.838 1485.39 799.385 1484.54 L799.385 1480.02 Q801.329 1481.16 803.644 1481.74 Q805.959 1482.32 808.482 1482.32 Q812.88 1482.32 815.172 1480.58 Q817.486 1478.84 817.486 1475.53 Q817.486 1472.48 815.334 1470.77 Q813.204 1469.03 809.385 1469.03 L805.357 1469.03 L805.357 1465.19 L809.57 1465.19 Q813.019 1465.19 814.847 1463.82 Q816.676 1462.43 816.676 1459.84 Q816.676 1457.18 814.778 1455.77 Q812.903 1454.33 809.385 1454.33 Q807.463 1454.33 805.264 1454.75 Q803.065 1455.16 800.426 1456.04 L800.426 1451.88 Q803.088 1451.14 805.403 1450.77 Q807.741 1450.39 809.801 1450.39 Q815.125 1450.39 818.227 1452.83 Q821.329 1455.23 821.329 1459.35 Q821.329 1462.22 819.685 1464.21 Q818.042 1466.18 815.009 1466.95 Z" fill="#000000" fill-rule="nonzero" fill-opacity="1"></path><path clip-path="url(#clip590)" d="M933.436 1481.64 L941.075 1481.64 L941.075 1455.28 L932.764 1456.95 L932.764 1452.69 L941.028 1451.02 L945.704 1451.02 L945.704 1481.64 L953.343 1481.64 L953.343 1485.58 L933.436 1485.58 L933.436 1481.64 Z" fill="#000000" fill-rule="nonzero" fill-opacity="1"></path><path clip-path="url(#clip590)" d="M961.607 1451.02 L983.829 1451.02 L983.829 1453.01 L971.283 1485.58 L966.398 1485.58 L978.204 1454.96 L961.607 1454.96 L961.607 1451.02 Z" fill="#000000" fill-rule="nonzero" fill-opacity="1"></path><path clip-path="url(#clip590)" d="M1099.5 1481.64 L1115.82 1481.64 L1115.82 1485.58 L1093.88 1485.58 L1093.88 1481.64 Q1096.54 1478.89 1101.12 1474.26 Q1105.73 1469.61 1106.91 1468.27 Q1109.15 1465.74 1110.03 1464.01 Q1110.94 1462.25 1110.94 1460.56 Q1110.94 1457.8 1108.99 1456.07 Q1107.07 1454.33 1103.97 1454.33 Q1101.77 1454.33 1099.32 1455.09 Q1096.88 1455.86 1094.11 1457.41 L1094.11 1452.69 Q1096.93 1451.55 1099.38 1450.97 Q1101.84 1450.39 1103.88 1450.39 Q1109.25 1450.39 1112.44 1453.08 Q1115.63 1455.77 1115.63 1460.26 Q1115.63 1462.39 1114.82 1464.31 Q1114.04 1466.2 1111.93 1468.8 Q1111.35 1469.47 1108.25 1472.69 Q1105.15 1475.88 1099.5 1481.64 Z" fill="#000000" fill-rule="nonzero" fill-opacity="1"></path><path clip-path="url(#clip590)" d="M1126.44 1481.64 L1134.08 1481.64 L1134.08 1455.28 L1125.77 1456.95 L1125.77 1452.69 L1134.04 1451.02 L1138.71 1451.02 L1138.71 1481.64 L1146.35 1481.64 L1146.35 1485.58 L1126.44 1485.58 L1126.44 1481.64 Z" fill="#000000" fill-rule="nonzero" fill-opacity="1"></path><path clip-path="url(#clip590)" d="M1261.2 1481.64 L1277.52 1481.64 L1277.52 1485.58 L1255.58 1485.58 L1255.58 1481.64 Q1258.24 1478.89 1262.82 1474.26 Q1267.43 1469.61 1268.61 1468.27 Q1270.85 1465.74 1271.73 1464.01 Q1272.64 1462.25 1272.64 1460.56 Q1272.64 1457.8 1270.69 1456.07 Q1268.77 1454.33 1265.67 1454.33 Q1263.47 1454.33 1261.02 1455.09 Q1258.59 1455.86 1255.81 1457.41 L1255.81 1452.69 Q1258.63 1451.55 1261.09 1450.97 Q1263.54 1450.39 1265.58 1450.39 Q1270.95 1450.39 1274.14 1453.08 Q1277.34 1455.77 1277.34 1460.26 Q1277.34 1462.39 1276.53 1464.31 Q1275.74 1466.2 1273.63 1468.8 Q1273.05 1469.47 1269.95 1472.69 Q1266.85 1475.88 1261.2 1481.64 Z" fill="#000000" fill-rule="nonzero" fill-opacity="1"></path><path clip-path="url(#clip590)" d="M1287.38 1451.02 L1305.74 1451.02 L1305.74 1454.96 L1291.66 1454.96 L1291.66 1463.43 Q1292.68 1463.08 1293.7 1462.92 Q1294.72 1462.73 1295.74 1462.73 Q1301.53 1462.73 1304.91 1465.9 Q1308.28 1469.08 1308.28 1474.49 Q1308.28 1480.07 1304.81 1483.17 Q1301.34 1486.25 1295.02 1486.25 Q1292.85 1486.25 1290.58 1485.88 Q1288.33 1485.51 1285.92 1484.77 L1285.92 1480.07 Q1288.01 1481.2 1290.23 1481.76 Q1292.45 1482.32 1294.93 1482.32 Q1298.93 1482.32 1301.27 1480.21 Q1303.61 1478.1 1303.61 1474.49 Q1303.61 1470.88 1301.27 1468.77 Q1298.93 1466.67 1294.93 1466.67 Q1293.05 1466.67 1291.18 1467.08 Q1289.33 1467.5 1287.38 1468.38 L1287.38 1451.02 Z" fill="#000000" fill-rule="nonzero" fill-opacity="1"></path><path clip-path="url(#clip590)" d="M1422.61 1481.64 L1438.93 1481.64 L1438.93 1485.58 L1416.99 1485.58 L1416.99 1481.64 Q1419.65 1478.89 1424.23 1474.26 Q1428.84 1469.61 1430.02 1468.27 Q1432.27 1465.74 1433.15 1464.01 Q1434.05 1462.25 1434.05 1460.56 Q1434.05 1457.8 1432.1 1456.07 Q1430.18 1454.33 1427.08 1454.33 Q1424.88 1454.33 1422.43 1455.09 Q1420 1455.86 1417.22 1457.41 L1417.22 1452.69 Q1420.04 1451.55 1422.5 1450.97 Q1424.95 1450.39 1426.99 1450.39 Q1432.36 1450.39 1435.55 1453.08 Q1438.75 1455.77 1438.75 1460.26 Q1438.75 1462.39 1437.94 1464.31 Q1437.15 1466.2 1435.04 1468.8 Q1434.47 1469.47 1431.36 1472.69 Q1428.26 1475.88 1422.61 1481.64 Z" fill="#000000" fill-rule="nonzero" fill-opacity="1"></path><path clip-path="url(#clip590)" d="M1448.89 1484.86 L1448.89 1480.6 Q1450.65 1481.44 1452.45 1481.88 Q1454.26 1482.32 1455.99 1482.32 Q1460.62 1482.32 1463.05 1479.21 Q1465.51 1476.09 1465.85 1469.75 Q1464.51 1471.74 1462.45 1472.8 Q1460.39 1473.87 1457.89 1473.87 Q1452.71 1473.87 1449.67 1470.74 Q1446.66 1467.59 1446.66 1462.15 Q1446.66 1456.83 1449.81 1453.61 Q1452.96 1450.39 1458.19 1450.39 Q1464.19 1450.39 1467.34 1455 Q1470.51 1459.58 1470.51 1468.33 Q1470.51 1476.51 1466.62 1481.39 Q1462.75 1486.25 1456.2 1486.25 Q1454.44 1486.25 1452.64 1485.9 Q1450.83 1485.56 1448.89 1484.86 M1458.19 1470.21 Q1461.34 1470.21 1463.17 1468.06 Q1465.02 1465.9 1465.02 1462.15 Q1465.02 1458.43 1463.17 1456.27 Q1461.34 1454.1 1458.19 1454.1 Q1455.04 1454.1 1453.19 1456.27 Q1451.36 1458.43 1451.36 1462.15 Q1451.36 1465.9 1453.19 1468.06 Q1455.04 1470.21 1458.19 1470.21 Z" fill="#000000" fill-rule="nonzero" fill-opacity="1"></path><path clip-path="url(#clip590)" d="M1594.73 1466.95 Q1598.09 1467.66 1599.96 1469.93 Q1601.86 1472.2 1601.86 1475.53 Q1601.86 1480.65 1598.34 1483.45 Q1594.82 1486.25 1588.34 1486.25 Q1586.17 1486.25 1583.85 1485.81 Q1581.56 1485.39 1579.11 1484.54 L1579.11 1480.02 Q1581.05 1481.16 1583.37 1481.74 Q1585.68 1482.32 1588.2 1482.32 Q1592.6 1482.32 1594.89 1480.58 Q1597.21 1478.84 1597.21 1475.53 Q1597.21 1472.48 1595.06 1470.77 Q1592.93 1469.03 1589.11 1469.03 L1585.08 1469.03 L1585.08 1465.19 L1589.29 1465.19 Q1592.74 1465.19 1594.57 1463.82 Q1596.4 1462.43 1596.4 1459.84 Q1596.4 1457.18 1594.5 1455.77 Q1592.63 1454.33 1589.11 1454.33 Q1587.19 1454.33 1584.99 1454.75 Q1582.79 1455.16 1580.15 1456.04 L1580.15 1451.88 Q1582.81 1451.14 1585.13 1450.77 Q1587.46 1450.39 1589.52 1450.39 Q1594.85 1450.39 1597.95 1452.83 Q1601.05 1455.23 1601.05 1459.35 Q1601.05 1462.22 1599.41 1464.21 Q1597.76 1466.18 1594.73 1466.95 Z" fill="#000000" fill-rule="nonzero" fill-opacity="1"></path><path clip-path="url(#clip590)" d="M1624.89 1466.95 Q1628.25 1467.66 1630.13 1469.93 Q1632.02 1472.2 1632.02 1475.53 Q1632.02 1480.65 1628.5 1483.45 Q1624.99 1486.25 1618.5 1486.25 Q1616.33 1486.25 1614.01 1485.81 Q1611.72 1485.39 1609.27 1484.54 L1609.27 1480.02 Q1611.21 1481.16 1613.53 1481.74 Q1615.84 1482.32 1618.37 1482.32 Q1622.76 1482.32 1625.06 1480.58 Q1627.37 1478.84 1627.37 1475.53 Q1627.37 1472.48 1625.22 1470.77 Q1623.09 1469.03 1619.27 1469.03 L1615.24 1469.03 L1615.24 1465.19 L1619.45 1465.19 Q1622.9 1465.19 1624.73 1463.82 Q1626.56 1462.43 1626.56 1459.84 Q1626.56 1457.18 1624.66 1455.77 Q1622.79 1454.33 1619.27 1454.33 Q1617.35 1454.33 1615.15 1454.75 Q1612.95 1455.16 1610.31 1456.04 L1610.31 1451.88 Q1612.97 1451.14 1615.29 1450.77 Q1617.63 1450.39 1619.69 1450.39 Q1625.01 1450.39 1628.11 1452.83 Q1631.21 1455.23 1631.21 1459.35 Q1631.21 1462.22 1629.57 1464.21 Q1627.93 1466.18 1624.89 1466.95 Z" fill="#000000" fill-rule="nonzero" fill-opacity="1"></path><path clip-path="url(#clip590)" d="M1756.68 1466.95 Q1760.03 1467.66 1761.91 1469.93 Q1763.81 1472.2 1763.81 1475.53 Q1763.81 1480.65 1760.29 1483.45 Q1756.77 1486.25 1750.29 1486.25 Q1748.11 1486.25 1745.8 1485.81 Q1743.51 1485.39 1741.05 1484.54 L1741.05 1480.02 Q1743 1481.16 1745.31 1481.74 Q1747.63 1482.32 1750.15 1482.32 Q1754.55 1482.32 1756.84 1480.58 Q1759.15 1478.84 1759.15 1475.53 Q1759.15 1472.48 1757 1470.77 Q1754.87 1469.03 1751.05 1469.03 L1747.02 1469.03 L1747.02 1465.19 L1751.24 1465.19 Q1754.69 1465.19 1756.51 1463.82 Q1758.34 1462.43 1758.34 1459.84 Q1758.34 1457.18 1756.44 1455.77 Q1754.57 1454.33 1751.05 1454.33 Q1749.13 1454.33 1746.93 1454.75 Q1744.73 1455.16 1742.09 1456.04 L1742.09 1451.88 Q1744.76 1451.14 1747.07 1450.77 Q1749.41 1450.39 1751.47 1450.39 Q1756.79 1450.39 1759.89 1452.83 Q1763 1455.23 1763 1459.35 Q1763 1462.22 1761.35 1464.21 Q1759.71 1466.18 1756.68 1466.95 Z" fill="#000000" fill-rule="nonzero" fill-opacity="1"></path><path clip-path="url(#clip590)" d="M1771.49 1451.02 L1793.71 1451.02 L1793.71 1453.01 L1781.17 1485.58 L1776.28 1485.58 L1788.09 1454.96 L1771.49 1454.96 L1771.49 1451.02 Z" fill="#000000" fill-rule="nonzero" fill-opacity="1"></path><path clip-path="url(#clip590)" d="M1917.98 1455.09 L1906.18 1473.54 L1917.98 1473.54 L1917.98 1455.09 M1916.76 1451.02 L1922.64 1451.02 L1922.64 1473.54 L1927.57 1473.54 L1927.57 1477.43 L1922.64 1477.43 L1922.64 1485.58 L1917.98 1485.58 L1917.98 1477.43 L1902.38 1477.43 L1902.38 1472.92 L1916.76 1451.02 Z" fill="#000000" fill-rule="nonzero" fill-opacity="1"></path><path clip-path="url(#clip590)" d="M1936.11 1481.64 L1943.75 1481.64 L1943.75 1455.28 L1935.44 1456.95 L1935.44 1452.69 L1943.7 1451.02 L1948.38 1451.02 L1948.38 1481.64 L1956.02 1481.64 L1956.02 1485.58 L1936.11 1485.58 L1936.11 1481.64 Z" fill="#000000" fill-rule="nonzero" fill-opacity="1"></path><path clip-path="url(#clip590)" d="M2079.69 1455.09 L2067.88 1473.54 L2079.69 1473.54 L2079.69 1455.09 M2078.46 1451.02 L2084.34 1451.02 L2084.34 1473.54 L2089.27 1473.54 L2089.27 1477.43 L2084.34 1477.43 L2084.34 1485.58 L2079.69 1485.58 L2079.69 1477.43 L2064.08 1477.43 L2064.08 1472.92 L2078.46 1451.02 Z" fill="#000000" fill-rule="nonzero" fill-opacity="1"></path><path clip-path="url(#clip590)" d="M2097.05 1451.02 L2115.4 1451.02 L2115.4 1454.96 L2101.33 1454.96 L2101.33 1463.43 Q2102.35 1463.08 2103.37 1462.92 Q2104.38 1462.73 2105.4 1462.73 Q2111.19 1462.73 2114.57 1465.9 Q2117.95 1469.08 2117.95 1474.49 Q2117.95 1480.07 2114.48 1483.17 Q2111 1486.25 2104.69 1486.25 Q2102.51 1486.25 2100.24 1485.88 Q2098 1485.51 2095.59 1484.77 L2095.59 1480.07 Q2097.67 1481.2 2099.89 1481.76 Q2102.12 1482.32 2104.59 1482.32 Q2108.6 1482.32 2110.94 1480.21 Q2113.27 1478.1 2113.27 1474.49 Q2113.27 1470.88 2110.94 1468.77 Q2108.6 1466.67 2104.59 1466.67 Q2102.72 1466.67 2100.84 1467.08 Q2098.99 1467.5 2097.05 1468.38 L2097.05 1451.02 Z" fill="#000000" fill-rule="nonzero" fill-opacity="1"></path><path clip-path="url(#clip590)" d="M2241.1 1455.09 L2229.29 1473.54 L2241.1 1473.54 L2241.1 1455.09 M2239.87 1451.02 L2245.75 1451.02 L2245.75 1473.54 L2250.68 1473.54 L2250.68 1477.43 L2245.75 1477.43 L2245.75 1485.58 L2241.1 1485.58 L2241.1 1477.43 L2225.5 1477.43 L2225.5 1472.92 L2239.87 1451.02 Z" fill="#000000" fill-rule="nonzero" fill-opacity="1"></path><path clip-path="url(#clip590)" d="M2258.55 1484.86 L2258.55 1480.6 Q2260.31 1481.44 2262.12 1481.88 Q2263.92 1482.32 2265.66 1482.32 Q2270.29 1482.32 2272.72 1479.21 Q2275.17 1476.09 2275.52 1469.75 Q2274.18 1471.74 2272.12 1472.8 Q2270.06 1473.87 2267.56 1473.87 Q2262.37 1473.87 2259.34 1470.74 Q2256.33 1467.59 2256.33 1462.15 Q2256.33 1456.83 2259.48 1453.61 Q2262.63 1450.39 2267.86 1450.39 Q2273.85 1450.39 2277 1455 Q2280.17 1459.58 2280.17 1468.33 Q2280.17 1476.51 2276.28 1481.39 Q2272.42 1486.25 2265.87 1486.25 Q2264.11 1486.25 2262.3 1485.9 Q2260.5 1485.56 2258.55 1484.86 M2267.86 1470.21 Q2271.01 1470.21 2272.83 1468.06 Q2274.69 1465.9 2274.69 1462.15 Q2274.69 1458.43 2272.83 1456.27 Q2271.01 1454.1 2267.86 1454.1 Q2264.71 1454.1 2262.86 1456.27 Q2261.03 1458.43 2261.03 1462.15 Q2261.03 1465.9 2262.86 1468.06 Q2264.71 1470.21 2267.86 1470.21 Z" fill="#000000" fill-rule="nonzero" fill-opacity="1"></path><path clip-path="url(#clip590)" d="M1029.55 1520.52 L1035.98 1520.52 L1035.98 1568.04 L1029.55 1568.04 L1029.55 1520.52 Z" fill="#000000" fill-rule="nonzero" fill-opacity="1"></path><path clip-path="url(#clip590)" d="M1054.31 1522.27 L1054.31 1532.4 L1066.37 1532.4 L1066.37 1536.95 L1054.31 1536.95 L1054.31 1556.3 Q1054.31 1560.66 1055.49 1561.9 Q1056.7 1563.14 1060.36 1563.14 L1066.37 1563.14 L1066.37 1568.04 L1060.36 1568.04 Q1053.58 1568.04 1051 1565.53 Q1048.42 1562.98 1048.42 1556.3 L1048.42 1536.95 L1044.12 1536.95 L1044.12 1532.4 L1048.42 1532.4 L1048.42 1522.27 L1054.31 1522.27 Z" fill="#000000" fill-rule="nonzero" fill-opacity="1"></path><path clip-path="url(#clip590)" d="M1104.57 1548.76 L1104.57 1551.62 L1077.64 1551.62 Q1078.02 1557.67 1081.27 1560.85 Q1084.55 1564 1090.37 1564 Q1093.74 1564 1096.9 1563.17 Q1100.08 1562.35 1103.2 1560.69 L1103.2 1566.23 Q1100.05 1567.57 1096.74 1568.27 Q1093.43 1568.97 1090.02 1568.97 Q1081.49 1568.97 1076.49 1564 Q1071.53 1559.04 1071.53 1550.57 Q1071.53 1541.82 1076.24 1536.69 Q1080.98 1531.54 1089 1531.54 Q1096.2 1531.54 1100.37 1536.18 Q1104.57 1540.8 1104.57 1548.76 M1098.71 1547.04 Q1098.65 1542.23 1096 1539.37 Q1093.39 1536.5 1089.07 1536.5 Q1084.16 1536.5 1081.2 1539.27 Q1078.28 1542.04 1077.83 1547.07 L1098.71 1547.04 Z" fill="#000000" fill-rule="nonzero" fill-opacity="1"></path><path clip-path="url(#clip590)" d="M1134.84 1537.87 Q1133.85 1537.3 1132.67 1537.04 Q1131.53 1536.76 1130.12 1536.76 Q1125.16 1536.76 1122.49 1540 Q1119.84 1543.22 1119.84 1549.27 L1119.84 1568.04 L1113.96 1568.04 L1113.96 1532.4 L1119.84 1532.4 L1119.84 1537.93 Q1121.69 1534.69 1124.65 1533.13 Q1127.61 1531.54 1131.84 1531.54 Q1132.45 1531.54 1133.18 1531.63 Q1133.91 1531.7 1134.8 1531.85 L1134.84 1537.87 Z" fill="#000000" fill-rule="nonzero" fill-opacity="1"></path><path clip-path="url(#clip590)" d="M1157.18 1550.12 Q1150.08 1550.12 1147.34 1551.75 Q1144.61 1553.37 1144.61 1557.29 Q1144.61 1560.4 1146.64 1562.25 Q1148.71 1564.07 1152.25 1564.07 Q1157.12 1564.07 1160.04 1560.63 Q1163 1557.16 1163 1551.43 L1163 1550.12 L1157.18 1550.12 M1168.86 1547.71 L1168.86 1568.04 L1163 1568.04 L1163 1562.63 Q1161 1565.88 1158.01 1567.44 Q1155.01 1568.97 1150.69 1568.97 Q1145.21 1568.97 1141.97 1565.91 Q1138.75 1562.82 1138.75 1557.67 Q1138.75 1551.65 1142.76 1548.6 Q1146.8 1545.54 1154.79 1545.54 L1163 1545.54 L1163 1544.97 Q1163 1540.93 1160.33 1538.73 Q1157.69 1536.5 1152.88 1536.5 Q1149.83 1536.5 1146.93 1537.23 Q1144.03 1537.97 1141.36 1539.43 L1141.36 1534.02 Q1144.58 1532.78 1147.6 1532.17 Q1150.62 1531.54 1153.49 1531.54 Q1161.22 1531.54 1165.04 1535.55 Q1168.86 1539.56 1168.86 1547.71 Z" fill="#000000" fill-rule="nonzero" fill-opacity="1"></path><path clip-path="url(#clip590)" d="M1186.72 1522.27 L1186.72 1532.4 L1198.78 1532.4 L1198.78 1536.95 L1186.72 1536.95 L1186.72 1556.3 Q1186.72 1560.66 1187.89 1561.9 Q1189.1 1563.14 1192.76 1563.14 L1198.78 1563.14 L1198.78 1568.04 L1192.76 1568.04 Q1185.98 1568.04 1183.41 1565.53 Q1180.83 1562.98 1180.83 1556.3 L1180.83 1536.95 L1176.53 1536.95 L1176.53 1532.4 L1180.83 1532.4 L1180.83 1522.27 L1186.72 1522.27 Z" fill="#000000" fill-rule="nonzero" fill-opacity="1"></path><path clip-path="url(#clip590)" d="M1206.48 1532.4 L1212.34 1532.4 L1212.34 1568.04 L1206.48 1568.04 L1206.48 1532.4 M1206.48 1518.52 L1212.34 1518.52 L1212.34 1525.93 L1206.48 1525.93 L1206.48 1518.52 Z" fill="#000000" fill-rule="nonzero" fill-opacity="1"></path><path clip-path="url(#clip590)" d="M1238.41 1536.5 Q1233.69 1536.5 1230.96 1540.19 Q1228.22 1543.85 1228.22 1550.25 Q1228.22 1556.65 1230.93 1560.34 Q1233.66 1564 1238.41 1564 Q1243.08 1564 1245.82 1560.31 Q1248.56 1556.62 1248.56 1550.25 Q1248.56 1543.92 1245.82 1540.23 Q1243.08 1536.5 1238.41 1536.5 M1238.41 1531.54 Q1246.04 1531.54 1250.4 1536.5 Q1254.77 1541.47 1254.77 1550.25 Q1254.77 1559 1250.4 1564 Q1246.04 1568.97 1238.41 1568.97 Q1230.73 1568.97 1226.37 1564 Q1222.05 1559 1222.05 1550.25 Q1222.05 1541.47 1226.37 1536.5 Q1230.73 1531.54 1238.41 1531.54 Z" fill="#000000" fill-rule="nonzero" fill-opacity="1"></path><path clip-path="url(#clip590)" d="M1294.11 1546.53 L1294.11 1568.04 L1288.25 1568.04 L1288.25 1546.72 Q1288.25 1541.66 1286.28 1539.14 Q1284.3 1536.63 1280.36 1536.63 Q1275.61 1536.63 1272.88 1539.65 Q1270.14 1542.68 1270.14 1547.9 L1270.14 1568.04 L1264.25 1568.04 L1264.25 1532.4 L1270.14 1532.4 L1270.14 1537.93 Q1272.24 1534.72 1275.07 1533.13 Q1277.94 1531.54 1281.66 1531.54 Q1287.8 1531.54 1290.95 1535.36 Q1294.11 1539.14 1294.11 1546.53 Z" fill="#000000" fill-rule="nonzero" fill-opacity="1"></path><path clip-path="url(#clip590)" d="M1356.14 1546.53 L1356.14 1568.04 L1350.28 1568.04 L1350.28 1546.72 Q1350.28 1541.66 1348.31 1539.14 Q1346.34 1536.63 1342.39 1536.63 Q1337.65 1536.63 1334.91 1539.65 Q1332.17 1542.68 1332.17 1547.9 L1332.17 1568.04 L1326.28 1568.04 L1326.28 1532.4 L1332.17 1532.4 L1332.17 1537.93 Q1334.27 1534.72 1337.11 1533.13 Q1339.97 1531.54 1343.69 1531.54 Q1349.84 1531.54 1352.99 1535.36 Q1356.14 1539.14 1356.14 1546.53 Z" fill="#000000" fill-rule="nonzero" fill-opacity="1"></path><path clip-path="url(#clip590)" d="M1367.22 1553.98 L1367.22 1532.4 L1373.07 1532.4 L1373.07 1553.75 Q1373.07 1558.81 1375.05 1561.36 Q1377.02 1563.87 1380.97 1563.87 Q1385.71 1563.87 1388.45 1560.85 Q1391.21 1557.83 1391.21 1552.61 L1391.21 1532.4 L1397.07 1532.4 L1397.07 1568.04 L1391.21 1568.04 L1391.21 1562.57 Q1389.08 1565.82 1386.25 1567.41 Q1383.45 1568.97 1379.72 1568.97 Q1373.58 1568.97 1370.4 1565.15 Q1367.22 1561.33 1367.22 1553.98 M1381.95 1531.54 L1381.95 1531.54 Z" fill="#000000" fill-rule="nonzero" fill-opacity="1"></path><path clip-path="url(#clip590)" d="M1436.89 1539.24 Q1439.08 1535.29 1442.14 1533.41 Q1445.2 1531.54 1449.33 1531.54 Q1454.9 1531.54 1457.93 1535.45 Q1460.95 1539.33 1460.95 1546.53 L1460.95 1568.04 L1455.06 1568.04 L1455.06 1546.72 Q1455.06 1541.59 1453.25 1539.11 Q1451.43 1536.63 1447.71 1536.63 Q1443.16 1536.63 1440.52 1539.65 Q1437.87 1542.68 1437.87 1547.9 L1437.87 1568.04 L1431.99 1568.04 L1431.99 1546.72 Q1431.99 1541.56 1430.17 1539.11 Q1428.36 1536.63 1424.57 1536.63 Q1420.08 1536.63 1417.44 1539.68 Q1414.8 1542.71 1414.8 1547.9 L1414.8 1568.04 L1408.91 1568.04 L1408.91 1532.4 L1414.8 1532.4 L1414.8 1537.93 Q1416.8 1534.66 1419.61 1533.1 Q1422.41 1531.54 1426.26 1531.54 Q1430.14 1531.54 1432.85 1533.51 Q1435.58 1535.48 1436.89 1539.24 Z" fill="#000000" fill-rule="nonzero" fill-opacity="1"></path><path clip-path="url(#clip590)" d="M1498.22 1550.25 Q1498.22 1543.79 1495.55 1540.13 Q1492.91 1536.44 1488.26 1536.44 Q1483.61 1536.44 1480.94 1540.13 Q1478.3 1543.79 1478.3 1550.25 Q1478.3 1556.71 1480.94 1560.4 Q1483.61 1564.07 1488.26 1564.07 Q1492.91 1564.07 1495.55 1560.4 Q1498.22 1556.71 1498.22 1550.25 M1478.3 1537.81 Q1480.14 1534.62 1482.94 1533.1 Q1485.78 1531.54 1489.69 1531.54 Q1496.18 1531.54 1500.23 1536.69 Q1504.3 1541.85 1504.3 1550.25 Q1504.3 1558.65 1500.23 1563.81 Q1496.18 1568.97 1489.69 1568.97 Q1485.78 1568.97 1482.94 1567.44 Q1480.14 1565.88 1478.3 1562.7 L1478.3 1568.04 L1472.41 1568.04 L1472.41 1518.52 L1478.3 1518.52 L1478.3 1537.81 Z" fill="#000000" fill-rule="nonzero" fill-opacity="1"></path><path clip-path="url(#clip590)" d="M1544.5 1548.76 L1544.5 1551.62 L1517.57 1551.62 Q1517.96 1557.67 1521.2 1560.85 Q1524.48 1564 1530.31 1564 Q1533.68 1564 1536.83 1563.17 Q1540.01 1562.35 1543.13 1560.69 L1543.13 1566.23 Q1539.98 1567.57 1536.67 1568.27 Q1533.36 1568.97 1529.95 1568.97 Q1521.42 1568.97 1516.43 1564 Q1511.46 1559.04 1511.46 1550.57 Q1511.46 1541.82 1516.17 1536.69 Q1520.92 1531.54 1528.94 1531.54 Q1536.13 1531.54 1540.3 1536.18 Q1544.5 1540.8 1544.5 1548.76 M1538.64 1547.04 Q1538.58 1542.23 1535.94 1539.37 Q1533.33 1536.5 1529 1536.5 Q1524.1 1536.5 1521.14 1539.27 Q1518.21 1542.04 1517.76 1547.07 L1538.64 1547.04 Z" fill="#000000" fill-rule="nonzero" fill-opacity="1"></path><path clip-path="url(#clip590)" d="M1574.77 1537.87 Q1573.78 1537.3 1572.61 1537.04 Q1571.46 1536.76 1570.06 1536.76 Q1565.09 1536.76 1562.42 1540 Q1559.78 1543.22 1559.78 1549.27 L1559.78 1568.04 L1553.89 1568.04 L1553.89 1532.4 L1559.78 1532.4 L1559.78 1537.93 Q1561.62 1534.69 1564.58 1533.13 Q1567.54 1531.54 1571.78 1531.54 Q1572.38 1531.54 1573.11 1531.63 Q1573.85 1531.7 1574.74 1531.85 L1574.77 1537.87 Z" fill="#000000" fill-rule="nonzero" fill-opacity="1"></path><polyline clip-path="url(#clip592)" style="stroke:#000000; stroke-linecap:round; stroke-linejoin:round; stroke-width:2; stroke-opacity:0.1; fill:none" points="251.56,1181.35 2352.76,1181.35 "></polyline>
<polyline clip-path="url(#clip592)" style="stroke:#000000; stroke-linecap:round; stroke-linejoin:round; stroke-width:2; stroke-opacity:0.1; fill:none" points="251.56,500.109 2352.76,500.109 "></polyline>
<polyline clip-path="url(#clip590)" style="stroke:#000000; stroke-linecap:round; stroke-linejoin:round; stroke-width:4; stroke-opacity:1; fill:none" points="251.56,1423.18 251.56,123.472 "></polyline>
<polyline clip-path="url(#clip590)" style="stroke:#000000; stroke-linecap:round; stroke-linejoin:round; stroke-width:4; stroke-opacity:1; fill:none" points="251.56,1181.35 270.458,1181.35 "></polyline>
<polyline clip-path="url(#clip590)" style="stroke:#000000; stroke-linecap:round; stroke-linejoin:round; stroke-width:4; stroke-opacity:1; fill:none" points="251.56,500.109 270.458,500.109 "></polyline>
<path clip-path="url(#clip590)" d="M114.931 1201.14 L122.57 1201.14 L122.57 1174.78 L114.26 1176.44 L114.26 1172.19 L122.524 1170.52 L127.2 1170.52 L127.2 1201.14 L134.839 1201.14 L134.839 1205.08 L114.931 1205.08 L114.931 1201.14 Z" fill="#000000" fill-rule="nonzero" fill-opacity="1"></path><path clip-path="url(#clip590)" d="M154.283 1173.6 Q150.672 1173.6 148.843 1177.16 Q147.038 1180.7 147.038 1187.83 Q147.038 1194.94 148.843 1198.5 Q150.672 1202.05 154.283 1202.05 Q157.917 1202.05 159.723 1198.5 Q161.552 1194.94 161.552 1187.83 Q161.552 1180.7 159.723 1177.16 Q157.917 1173.6 154.283 1173.6 M154.283 1169.89 Q160.093 1169.89 163.149 1174.5 Q166.227 1179.08 166.227 1187.83 Q166.227 1196.56 163.149 1201.17 Q160.093 1205.75 154.283 1205.75 Q148.473 1205.75 145.394 1201.17 Q142.339 1196.56 142.339 1187.83 Q142.339 1179.08 145.394 1174.5 Q148.473 1169.89 154.283 1169.89 Z" fill="#000000" fill-rule="nonzero" fill-opacity="1"></path><path clip-path="url(#clip590)" d="M166.227 1164 L190.339 1164 L190.339 1167.19 L166.227 1167.19 L166.227 1164 Z" fill="#000000" fill-rule="nonzero" fill-opacity="1"></path><path clip-path="url(#clip590)" d="M198.577 1149.59 L213.491 1149.59 L213.491 1152.79 L202.056 1152.79 L202.056 1159.67 Q202.884 1159.39 203.711 1159.26 Q204.539 1159.11 205.366 1159.11 Q210.068 1159.11 212.814 1161.68 Q215.56 1164.26 215.56 1168.66 Q215.56 1173.19 212.739 1175.71 Q209.918 1178.21 204.783 1178.21 Q203.015 1178.21 201.172 1177.91 Q199.348 1177.61 197.392 1177.01 L197.392 1173.19 Q199.085 1174.11 200.89 1174.57 Q202.696 1175.02 204.708 1175.02 Q207.962 1175.02 209.861 1173.31 Q211.761 1171.59 211.761 1168.66 Q211.761 1165.73 209.861 1164.01 Q207.962 1162.3 204.708 1162.3 Q203.185 1162.3 201.661 1162.64 Q200.157 1162.98 198.577 1163.69 L198.577 1149.59 Z" fill="#000000" fill-rule="nonzero" fill-opacity="1"></path><path clip-path="url(#clip590)" d="M144.855 519.901 L152.493 519.901 L152.493 493.536 L144.183 495.203 L144.183 490.943 L152.447 489.277 L157.123 489.277 L157.123 519.901 L164.762 519.901 L164.762 523.837 L144.855 523.837 L144.855 519.901 Z" fill="#000000" fill-rule="nonzero" fill-opacity="1"></path><path clip-path="url(#clip590)" d="M184.206 492.355 Q180.595 492.355 178.766 495.92 Q176.961 499.462 176.961 506.591 Q176.961 513.698 178.766 517.263 Q180.595 520.804 184.206 520.804 Q187.84 520.804 189.646 517.263 Q191.475 513.698 191.475 506.591 Q191.475 499.462 189.646 495.92 Q187.84 492.355 184.206 492.355 M184.206 488.652 Q190.016 488.652 193.072 493.258 Q196.151 497.841 196.151 506.591 Q196.151 515.318 193.072 519.925 Q190.016 524.508 184.206 524.508 Q178.396 524.508 175.317 519.925 Q172.262 515.318 172.262 506.591 Q172.262 497.841 175.317 493.258 Q178.396 488.652 184.206 488.652 Z" fill="#000000" fill-rule="nonzero" fill-opacity="1"></path><path clip-path="url(#clip590)" d="M205.855 470.848 Q202.921 470.848 201.436 473.744 Q199.969 476.622 199.969 482.414 Q199.969 488.188 201.436 491.085 Q202.921 493.962 205.855 493.962 Q208.808 493.962 210.275 491.085 Q211.761 488.188 211.761 482.414 Q211.761 476.622 210.275 473.744 Q208.808 470.848 205.855 470.848 M205.855 467.838 Q210.576 467.838 213.059 471.581 Q215.56 475.305 215.56 482.414 Q215.56 489.505 213.059 493.248 Q210.576 496.972 205.855 496.972 Q201.135 496.972 198.633 493.248 Q196.151 489.505 196.151 482.414 Q196.151 475.305 198.633 471.581 Q201.135 467.838 205.855 467.838 Z" fill="#000000" fill-rule="nonzero" fill-opacity="1"></path><path clip-path="url(#clip590)" d="M41.3104 883.389 L58.7206 883.389 L58.7206 873.077 Q58.7206 867.889 56.5881 865.406 Q54.4238 862.891 49.9996 862.891 Q45.5436 862.891 43.4429 865.406 Q41.3104 867.889 41.3104 873.077 L41.3104 883.389 M21.7677 883.389 L36.0905 883.389 L36.0905 873.872 Q36.0905 869.162 34.34 866.87 Q32.5576 864.547 28.9291 864.547 Q25.3325 864.547 23.5501 866.87 Q21.7677 869.162 21.7677 873.872 L21.7677 883.389 M16.4842 889.818 L16.4842 873.395 Q16.4842 866.043 19.5397 862.064 Q22.5952 858.085 28.2289 858.085 Q32.5894 858.085 35.1675 860.122 Q37.7456 862.159 38.3822 866.106 Q39.4007 861.364 42.6472 858.754 Q45.8619 856.112 50.6998 856.112 Q57.0655 856.112 60.5348 860.441 Q64.0042 864.769 64.0042 872.758 L64.0042 889.818 L16.4842 889.818 Z" fill="#000000" fill-rule="nonzero" fill-opacity="1"></path><path clip-path="url(#clip590)" d="M32.4621 831.54 Q32.4621 836.251 36.1542 838.988 Q39.8145 841.726 46.212 841.726 Q52.6095 841.726 56.3017 839.02 Q59.9619 836.283 59.9619 831.54 Q59.9619 826.862 56.2698 824.124 Q52.5777 821.387 46.212 821.387 Q39.8781 821.387 36.186 824.124 Q32.4621 826.862 32.4621 831.54 M27.4968 831.54 Q27.4968 823.902 32.4621 819.541 Q37.4273 815.181 46.212 815.181 Q54.9649 815.181 59.9619 819.541 Q64.9272 823.902 64.9272 831.54 Q64.9272 839.211 59.9619 843.572 Q54.9649 847.9 46.212 847.9 Q37.4273 847.9 32.4621 843.572 Q27.4968 839.211 27.4968 831.54 Z" fill="#000000" fill-rule="nonzero" fill-opacity="1"></path><path clip-path="url(#clip590)" d="M49.9359 806.078 L28.3562 806.078 L28.3562 800.221 L49.7131 800.221 Q54.7739 800.221 57.3202 798.248 Q59.8346 796.274 59.8346 792.328 Q59.8346 787.585 56.8109 784.848 Q53.7872 782.079 48.5673 782.079 L28.3562 782.079 L28.3562 776.222 L64.0042 776.222 L64.0042 782.079 L58.5296 782.079 Q61.7762 784.211 63.3676 787.044 Q64.9272 789.845 64.9272 793.569 Q64.9272 799.712 61.1078 802.895 Q57.2883 806.078 49.9359 806.078 M27.4968 791.341 L27.4968 791.341 Z" fill="#000000" fill-rule="nonzero" fill-opacity="1"></path><path clip-path="url(#clip590)" d="M42.4881 734.527 L64.0042 734.527 L64.0042 740.383 L42.679 740.383 Q37.6183 740.383 35.1038 742.357 Q32.5894 744.33 32.5894 748.277 Q32.5894 753.019 35.6131 755.757 Q38.6368 758.494 43.8567 758.494 L64.0042 758.494 L64.0042 764.382 L28.3562 764.382 L28.3562 758.494 L33.8944 758.494 Q30.6797 756.393 29.0883 753.56 Q27.4968 750.696 27.4968 746.972 Q27.4968 740.829 31.3163 737.678 Q35.1038 734.527 42.4881 734.527 Z" fill="#000000" fill-rule="nonzero" fill-opacity="1"></path><path clip-path="url(#clip590)" d="M33.7671 699.388 L14.479 699.388 L14.479 693.532 L64.0042 693.532 L64.0042 699.388 L58.657 699.388 Q61.8398 701.234 63.3994 704.067 Q64.9272 706.868 64.9272 710.815 Q64.9272 717.276 59.771 721.35 Q54.6147 725.392 46.212 725.392 Q37.8093 725.392 32.6531 721.35 Q27.4968 717.276 27.4968 710.815 Q27.4968 706.868 29.0564 704.067 Q30.5842 701.234 33.7671 699.388 M46.212 719.345 Q52.6732 719.345 56.3653 716.703 Q60.0256 714.029 60.0256 709.382 Q60.0256 704.735 56.3653 702.062 Q52.6732 699.388 46.212 699.388 Q39.7508 699.388 36.0905 702.062 Q32.3984 704.735 32.3984 709.382 Q32.3984 714.029 36.0905 716.703 Q39.7508 719.345 46.212 719.345 Z" fill="#000000" fill-rule="nonzero" fill-opacity="1"></path><path clip-path="url(#clip590)" d="M29.4065 658.743 L34.9447 658.743 Q33.6716 661.226 33.035 663.899 Q32.3984 666.573 32.3984 669.438 Q32.3984 673.798 33.7352 675.994 Q35.072 678.159 37.7456 678.159 Q39.7826 678.159 40.9603 676.599 Q42.1061 675.039 43.1565 670.329 L43.6021 668.324 Q44.9389 662.085 47.3897 659.475 Q49.8086 656.834 54.1691 656.834 Q59.1344 656.834 62.0308 660.78 Q64.9272 664.695 64.9272 671.57 Q64.9272 674.435 64.3543 677.554 Q63.8132 680.641 62.6992 684.079 L56.6518 684.079 Q58.3387 680.832 59.198 677.681 Q60.0256 674.53 60.0256 671.443 Q60.0256 667.305 58.6251 665.077 Q57.1929 662.849 54.6147 662.849 Q52.2276 662.849 50.9545 664.472 Q49.6813 666.064 48.5037 671.507 L48.0262 673.544 Q46.8804 678.986 44.5251 681.405 Q42.138 683.824 38.0002 683.824 Q32.9713 683.824 30.2341 680.259 Q27.4968 676.695 27.4968 670.138 Q27.4968 666.891 27.9743 664.027 Q28.4517 661.162 29.4065 658.743 Z" fill="#000000" fill-rule="nonzero" fill-opacity="1"></path><path clip-path="url(#clip590)" d="M979.281 43.6931 L979.281 65.8515 L992.406 65.8515 Q999.009 65.8515 1002.17 63.1374 Q1005.37 60.3828 1005.37 54.752 Q1005.37 49.0808 1002.17 46.4072 Q999.009 43.6931 992.406 43.6931 L979.281 43.6931 M979.281 18.8205 L979.281 37.0496 L991.393 37.0496 Q997.388 37.0496 1000.3 34.8216 Q1003.26 32.5531 1003.26 27.935 Q1003.26 23.3575 1000.3 21.089 Q997.388 18.8205 991.393 18.8205 L979.281 18.8205 M971.098 12.096 L992.001 12.096 Q1001.36 12.096 1006.42 15.9849 Q1011.49 19.8737 1011.49 27.0438 Q1011.49 32.5936 1008.89 35.8748 Q1006.3 39.156 1001.28 39.9662 Q1007.31 41.2625 1010.63 45.3944 Q1014 49.4858 1014 55.6432 Q1014 63.745 1008.49 68.1605 Q1002.98 72.576 992.811 72.576 L971.098 72.576 L971.098 12.096 Z" fill="#000000" fill-rule="nonzero" fill-opacity="1"></path><path clip-path="url(#clip590)" d="M1045.27 32.4315 Q1039.27 32.4315 1035.79 37.1306 Q1032.31 41.7891 1032.31 49.9314 Q1032.31 58.0738 1035.75 62.7728 Q1039.23 67.4314 1045.27 67.4314 Q1051.22 67.4314 1054.71 62.7323 Q1058.19 58.0333 1058.19 49.9314 Q1058.19 41.8701 1054.71 37.1711 Q1051.22 32.4315 1045.27 32.4315 M1045.27 26.1121 Q1054.99 26.1121 1060.54 32.4315 Q1066.09 38.7509 1066.09 49.9314 Q1066.09 61.0714 1060.54 67.4314 Q1054.99 73.7508 1045.27 73.7508 Q1035.51 73.7508 1029.96 67.4314 Q1024.45 61.0714 1024.45 49.9314 Q1024.45 38.7509 1029.96 32.4315 Q1035.51 26.1121 1045.27 26.1121 Z" fill="#000000" fill-rule="nonzero" fill-opacity="1"></path><path clip-path="url(#clip590)" d="M1077.68 54.671 L1077.68 27.2059 L1085.13 27.2059 L1085.13 54.3874 Q1085.13 60.8284 1087.64 64.0691 Q1090.15 67.2693 1095.18 67.2693 Q1101.21 67.2693 1104.7 63.421 Q1108.22 59.5726 1108.22 52.9291 L1108.22 27.2059 L1115.67 27.2059 L1115.67 72.576 L1108.22 72.576 L1108.22 65.6084 Q1105.51 69.7404 1101.9 71.7658 Q1098.34 73.7508 1093.6 73.7508 Q1085.78 73.7508 1081.73 68.8897 Q1077.68 64.0286 1077.68 54.671 M1096.43 26.1121 L1096.43 26.1121 Z" fill="#000000" fill-rule="nonzero" fill-opacity="1"></path><path clip-path="url(#clip590)" d="M1168.74 45.1919 L1168.74 72.576 L1161.29 72.576 L1161.29 45.4349 Q1161.29 38.994 1158.78 35.7938 Q1156.26 32.5936 1151.24 32.5936 Q1145.21 32.5936 1141.72 36.4419 Q1138.24 40.2903 1138.24 46.9338 L1138.24 72.576 L1130.74 72.576 L1130.74 27.2059 L1138.24 27.2059 L1138.24 34.2544 Q1140.91 30.163 1144.52 28.1376 Q1148.16 26.1121 1152.9 26.1121 Q1160.72 26.1121 1164.73 30.9732 Q1168.74 35.7938 1168.74 45.1919 Z" fill="#000000" fill-rule="nonzero" fill-opacity="1"></path><path clip-path="url(#clip590)" d="M1213.46 34.0924 L1213.46 9.54393 L1220.92 9.54393 L1220.92 72.576 L1213.46 72.576 L1213.46 65.7705 Q1211.11 69.8214 1207.51 71.8063 Q1203.94 73.7508 1198.92 73.7508 Q1190.7 73.7508 1185.51 67.1883 Q1180.37 60.6258 1180.37 49.9314 Q1180.37 39.2371 1185.51 32.6746 Q1190.7 26.1121 1198.92 26.1121 Q1203.94 26.1121 1207.51 28.0971 Q1211.11 30.0415 1213.46 34.0924 M1188.06 49.9314 Q1188.06 58.1548 1191.43 62.8538 Q1194.83 67.5124 1200.74 67.5124 Q1206.66 67.5124 1210.06 62.8538 Q1213.46 58.1548 1213.46 49.9314 Q1213.46 41.7081 1210.06 37.0496 Q1206.66 32.3505 1200.74 32.3505 Q1194.83 32.3505 1191.43 37.0496 Q1188.06 41.7081 1188.06 49.9314 Z" fill="#000000" fill-rule="nonzero" fill-opacity="1"></path><path clip-path="url(#clip590)" d="M1301.45 48.0275 L1301.45 51.6733 L1267.18 51.6733 Q1267.66 59.3701 1271.8 63.421 Q1275.97 67.4314 1283.38 67.4314 Q1287.68 67.4314 1291.69 66.3781 Q1295.74 65.3249 1299.71 63.2184 L1299.71 70.267 Q1295.7 71.9684 1291.48 72.8596 Q1287.27 73.7508 1282.94 73.7508 Q1272.08 73.7508 1265.72 67.4314 Q1259.4 61.1119 1259.4 50.3365 Q1259.4 39.1965 1265.4 32.6746 Q1271.43 26.1121 1281.64 26.1121 Q1290.8 26.1121 1296.1 32.0264 Q1301.45 37.9003 1301.45 48.0275 M1294 45.84 Q1293.91 39.7232 1290.55 36.0774 Q1287.23 32.4315 1281.72 32.4315 Q1275.48 32.4315 1271.72 35.9558 Q1267.99 39.4801 1267.42 45.8805 L1294 45.84 Z" fill="#000000" fill-rule="nonzero" fill-opacity="1"></path><path clip-path="url(#clip590)" d="M1308.34 27.2059 L1316.23 27.2059 L1330.41 65.2844 L1344.59 27.2059 L1352.49 27.2059 L1335.48 72.576 L1325.35 72.576 L1308.34 27.2059 Z" fill="#000000" fill-rule="nonzero" fill-opacity="1"></path><path clip-path="url(#clip590)" d="M1380.36 32.4315 Q1374.37 32.4315 1370.88 37.1306 Q1367.4 41.7891 1367.4 49.9314 Q1367.4 58.0738 1370.84 62.7728 Q1374.32 67.4314 1380.36 67.4314 Q1386.32 67.4314 1389.8 62.7323 Q1393.28 58.0333 1393.28 49.9314 Q1393.28 41.8701 1389.8 37.1711 Q1386.32 32.4315 1380.36 32.4315 M1380.36 26.1121 Q1390.08 26.1121 1395.63 32.4315 Q1401.18 38.7509 1401.18 49.9314 Q1401.18 61.0714 1395.63 67.4314 Q1390.08 73.7508 1380.36 73.7508 Q1370.6 73.7508 1365.05 67.4314 Q1359.54 61.0714 1359.54 49.9314 Q1359.54 38.7509 1365.05 32.4315 Q1370.6 26.1121 1380.36 26.1121 Z" fill="#000000" fill-rule="nonzero" fill-opacity="1"></path><path clip-path="url(#clip590)" d="M1413.54 9.54393 L1420.99 9.54393 L1420.99 72.576 L1413.54 72.576 L1413.54 9.54393 Z" fill="#000000" fill-rule="nonzero" fill-opacity="1"></path><path clip-path="url(#clip590)" d="M1435.82 54.671 L1435.82 27.2059 L1443.27 27.2059 L1443.27 54.3874 Q1443.27 60.8284 1445.78 64.0691 Q1448.29 67.2693 1453.32 67.2693 Q1459.35 67.2693 1462.84 63.421 Q1466.36 59.5726 1466.36 52.9291 L1466.36 27.2059 L1473.82 27.2059 L1473.82 72.576 L1466.36 72.576 L1466.36 65.6084 Q1463.65 69.7404 1460.04 71.7658 Q1456.48 73.7508 1451.74 73.7508 Q1443.92 73.7508 1439.87 68.8897 Q1435.82 64.0286 1435.82 54.671 M1454.57 26.1121 L1454.57 26.1121 Z" fill="#000000" fill-rule="nonzero" fill-opacity="1"></path><path clip-path="url(#clip590)" d="M1496.54 14.324 L1496.54 27.2059 L1511.89 27.2059 L1511.89 32.9987 L1496.54 32.9987 L1496.54 57.6282 Q1496.54 63.1779 1498.04 64.7578 Q1499.58 66.3376 1504.24 66.3376 L1511.89 66.3376 L1511.89 72.576 L1504.24 72.576 Q1495.61 72.576 1492.33 69.3758 Q1489.05 66.1351 1489.05 57.6282 L1489.05 32.9987 L1483.58 32.9987 L1483.58 27.2059 L1489.05 27.2059 L1489.05 14.324 L1496.54 14.324 Z" fill="#000000" fill-rule="nonzero" fill-opacity="1"></path><path clip-path="url(#clip590)" d="M1521.7 27.2059 L1529.15 27.2059 L1529.15 72.576 L1521.7 72.576 L1521.7 27.2059 M1521.7 9.54393 L1529.15 9.54393 L1529.15 18.9825 L1521.7 18.9825 L1521.7 9.54393 Z" fill="#000000" fill-rule="nonzero" fill-opacity="1"></path><path clip-path="url(#clip590)" d="M1562.33 32.4315 Q1556.33 32.4315 1552.85 37.1306 Q1549.36 41.7891 1549.36 49.9314 Q1549.36 58.0738 1552.81 62.7728 Q1556.29 67.4314 1562.33 67.4314 Q1568.28 67.4314 1571.77 62.7323 Q1575.25 58.0333 1575.25 49.9314 Q1575.25 41.8701 1571.77 37.1711 Q1568.28 32.4315 1562.33 32.4315 M1562.33 26.1121 Q1572.05 26.1121 1577.6 32.4315 Q1583.15 38.7509 1583.15 49.9314 Q1583.15 61.0714 1577.6 67.4314 Q1572.05 73.7508 1562.33 73.7508 Q1552.56 73.7508 1547.01 67.4314 Q1541.51 61.0714 1541.51 49.9314 Q1541.51 38.7509 1547.01 32.4315 Q1552.56 26.1121 1562.33 26.1121 Z" fill="#000000" fill-rule="nonzero" fill-opacity="1"></path><path clip-path="url(#clip590)" d="M1633.22 45.1919 L1633.22 72.576 L1625.76 72.576 L1625.76 45.4349 Q1625.76 38.994 1623.25 35.7938 Q1620.74 32.5936 1615.72 32.5936 Q1609.68 32.5936 1606.2 36.4419 Q1602.71 40.2903 1602.71 46.9338 L1602.71 72.576 L1595.22 72.576 L1595.22 27.2059 L1602.71 27.2059 L1602.71 34.2544 Q1605.39 30.163 1608.99 28.1376 Q1612.64 26.1121 1617.38 26.1121 Q1625.2 26.1121 1629.21 30.9732 Q1633.22 35.7938 1633.22 45.1919 Z" fill="#000000" fill-rule="nonzero" fill-opacity="1"></path><circle clip-path="url(#clip592)" cx="311.028" cy="321.251" r="14.4" fill="#009af9" fill-rule="evenodd" fill-opacity="1" stroke="#000000" stroke-opacity="1" stroke-width="3.2"></circle>
<circle clip-path="url(#clip592)" cx="351.482" cy="334.003" r="14.4" fill="#009af9" fill-rule="evenodd" fill-opacity="1" stroke="#000000" stroke-opacity="1" stroke-width="3.2"></circle>
<circle clip-path="url(#clip592)" cx="391.937" cy="341.418" r="14.4" fill="#009af9" fill-rule="evenodd" fill-opacity="1" stroke="#000000" stroke-opacity="1" stroke-width="3.2"></circle>
<circle clip-path="url(#clip592)" cx="432.391" cy="347.631" r="14.4" fill="#009af9" fill-rule="evenodd" fill-opacity="1" stroke="#000000" stroke-opacity="1" stroke-width="3.2"></circle>
<circle clip-path="url(#clip592)" cx="472.845" cy="347.818" r="14.4" fill="#009af9" fill-rule="evenodd" fill-opacity="1" stroke="#000000" stroke-opacity="1" stroke-width="3.2"></circle>
<circle clip-path="url(#clip592)" cx="513.299" cy="368.249" r="14.4" fill="#009af9" fill-rule="evenodd" fill-opacity="1" stroke="#000000" stroke-opacity="1" stroke-width="3.2"></circle>
<circle clip-path="url(#clip592)" cx="553.754" cy="397.59" r="14.4" fill="#009af9" fill-rule="evenodd" fill-opacity="1" stroke="#000000" stroke-opacity="1" stroke-width="3.2"></circle>
<circle clip-path="url(#clip592)" cx="594.208" cy="409.512" r="14.4" fill="#009af9" fill-rule="evenodd" fill-opacity="1" stroke="#000000" stroke-opacity="1" stroke-width="3.2"></circle>
<circle clip-path="url(#clip592)" cx="634.662" cy="426.01" r="14.4" fill="#009af9" fill-rule="evenodd" fill-opacity="1" stroke="#000000" stroke-opacity="1" stroke-width="3.2"></circle>
<circle clip-path="url(#clip592)" cx="675.117" cy="429.849" r="14.4" fill="#009af9" fill-rule="evenodd" fill-opacity="1" stroke="#000000" stroke-opacity="1" stroke-width="3.2"></circle>
<circle clip-path="url(#clip592)" cx="715.571" cy="433.403" r="14.4" fill="#009af9" fill-rule="evenodd" fill-opacity="1" stroke="#000000" stroke-opacity="1" stroke-width="3.2"></circle>
<circle clip-path="url(#clip592)" cx="756.025" cy="448.506" r="14.4" fill="#009af9" fill-rule="evenodd" fill-opacity="1" stroke="#000000" stroke-opacity="1" stroke-width="3.2"></circle>
<circle clip-path="url(#clip592)" cx="796.479" cy="465.407" r="14.4" fill="#009af9" fill-rule="evenodd" fill-opacity="1" stroke="#000000" stroke-opacity="1" stroke-width="3.2"></circle>
<circle clip-path="url(#clip592)" cx="836.934" cy="481.528" r="14.4" fill="#009af9" fill-rule="evenodd" fill-opacity="1" stroke="#000000" stroke-opacity="1" stroke-width="3.2"></circle>
<circle clip-path="url(#clip592)" cx="877.388" cy="489.099" r="14.4" fill="#009af9" fill-rule="evenodd" fill-opacity="1" stroke="#000000" stroke-opacity="1" stroke-width="3.2"></circle>
<circle clip-path="url(#clip592)" cx="917.842" cy="497.786" r="14.4" fill="#009af9" fill-rule="evenodd" fill-opacity="1" stroke="#000000" stroke-opacity="1" stroke-width="3.2"></circle>
<circle clip-path="url(#clip592)" cx="958.297" cy="516.846" r="14.4" fill="#009af9" fill-rule="evenodd" fill-opacity="1" stroke="#000000" stroke-opacity="1" stroke-width="3.2"></circle>
<circle clip-path="url(#clip592)" cx="998.751" cy="525.257" r="14.4" fill="#009af9" fill-rule="evenodd" fill-opacity="1" stroke="#000000" stroke-opacity="1" stroke-width="3.2"></circle>
<circle clip-path="url(#clip592)" cx="1039.21" cy="534.041" r="14.4" fill="#009af9" fill-rule="evenodd" fill-opacity="1" stroke="#000000" stroke-opacity="1" stroke-width="3.2"></circle>
<circle clip-path="url(#clip592)" cx="1079.66" cy="539.734" r="14.4" fill="#009af9" fill-rule="evenodd" fill-opacity="1" stroke="#000000" stroke-opacity="1" stroke-width="3.2"></circle>
<circle clip-path="url(#clip592)" cx="1120.11" cy="552.085" r="14.4" fill="#009af9" fill-rule="evenodd" fill-opacity="1" stroke="#000000" stroke-opacity="1" stroke-width="3.2"></circle>
<circle clip-path="url(#clip592)" cx="1160.57" cy="563.214" r="14.4" fill="#009af9" fill-rule="evenodd" fill-opacity="1" stroke="#000000" stroke-opacity="1" stroke-width="3.2"></circle>
<circle clip-path="url(#clip592)" cx="1201.02" cy="557.134" r="14.4" fill="#009af9" fill-rule="evenodd" fill-opacity="1" stroke="#000000" stroke-opacity="1" stroke-width="3.2"></circle>
<circle clip-path="url(#clip592)" cx="1241.48" cy="564.042" r="14.4" fill="#009af9" fill-rule="evenodd" fill-opacity="1" stroke="#000000" stroke-opacity="1" stroke-width="3.2"></circle>
<circle clip-path="url(#clip592)" cx="1281.93" cy="574.563" r="14.4" fill="#009af9" fill-rule="evenodd" fill-opacity="1" stroke="#000000" stroke-opacity="1" stroke-width="3.2"></circle>
<circle clip-path="url(#clip592)" cx="1322.39" cy="595.085" r="14.4" fill="#009af9" fill-rule="evenodd" fill-opacity="1" stroke="#000000" stroke-opacity="1" stroke-width="3.2"></circle>
<circle clip-path="url(#clip592)" cx="1362.84" cy="620.011" r="14.4" fill="#009af9" fill-rule="evenodd" fill-opacity="1" stroke="#000000" stroke-opacity="1" stroke-width="3.2"></circle>
<circle clip-path="url(#clip592)" cx="1403.29" cy="649.053" r="14.4" fill="#009af9" fill-rule="evenodd" fill-opacity="1" stroke="#000000" stroke-opacity="1" stroke-width="3.2"></circle>
<circle clip-path="url(#clip592)" cx="1443.75" cy="676.232" r="14.4" fill="#009af9" fill-rule="evenodd" fill-opacity="1" stroke="#000000" stroke-opacity="1" stroke-width="3.2"></circle>
<circle clip-path="url(#clip592)" cx="1484.2" cy="708.943" r="14.4" fill="#009af9" fill-rule="evenodd" fill-opacity="1" stroke="#000000" stroke-opacity="1" stroke-width="3.2"></circle>
<circle clip-path="url(#clip592)" cx="1524.66" cy="736.205" r="14.4" fill="#009af9" fill-rule="evenodd" fill-opacity="1" stroke="#000000" stroke-opacity="1" stroke-width="3.2"></circle>
<circle clip-path="url(#clip592)" cx="1565.11" cy="764.267" r="14.4" fill="#009af9" fill-rule="evenodd" fill-opacity="1" stroke="#000000" stroke-opacity="1" stroke-width="3.2"></circle>
<circle clip-path="url(#clip592)" cx="1605.57" cy="795.822" r="14.4" fill="#009af9" fill-rule="evenodd" fill-opacity="1" stroke="#000000" stroke-opacity="1" stroke-width="3.2"></circle>
<circle clip-path="url(#clip592)" cx="1646.02" cy="821.305" r="14.4" fill="#009af9" fill-rule="evenodd" fill-opacity="1" stroke="#000000" stroke-opacity="1" stroke-width="3.2"></circle>
<circle clip-path="url(#clip592)" cx="1686.47" cy="850.638" r="14.4" fill="#009af9" fill-rule="evenodd" fill-opacity="1" stroke="#000000" stroke-opacity="1" stroke-width="3.2"></circle>
<circle clip-path="url(#clip592)" cx="1726.93" cy="879.743" r="14.4" fill="#009af9" fill-rule="evenodd" fill-opacity="1" stroke="#000000" stroke-opacity="1" stroke-width="3.2"></circle>
<circle clip-path="url(#clip592)" cx="1767.38" cy="899.718" r="14.4" fill="#009af9" fill-rule="evenodd" fill-opacity="1" stroke="#000000" stroke-opacity="1" stroke-width="3.2"></circle>
<circle clip-path="url(#clip592)" cx="1807.84" cy="908.542" r="14.4" fill="#009af9" fill-rule="evenodd" fill-opacity="1" stroke="#000000" stroke-opacity="1" stroke-width="3.2"></circle>
<circle clip-path="url(#clip592)" cx="1848.29" cy="928.167" r="14.4" fill="#009af9" fill-rule="evenodd" fill-opacity="1" stroke="#000000" stroke-opacity="1" stroke-width="3.2"></circle>
<circle clip-path="url(#clip592)" cx="1888.75" cy="945.149" r="14.4" fill="#009af9" fill-rule="evenodd" fill-opacity="1" stroke="#000000" stroke-opacity="1" stroke-width="3.2"></circle>
<circle clip-path="url(#clip592)" cx="1929.2" cy="967.345" r="14.4" fill="#009af9" fill-rule="evenodd" fill-opacity="1" stroke="#000000" stroke-opacity="1" stroke-width="3.2"></circle>
<circle clip-path="url(#clip592)" cx="1969.65" cy="989.839" r="14.4" fill="#009af9" fill-rule="evenodd" fill-opacity="1" stroke="#000000" stroke-opacity="1" stroke-width="3.2"></circle>
<circle clip-path="url(#clip592)" cx="2010.11" cy="1019.28" r="14.4" fill="#009af9" fill-rule="evenodd" fill-opacity="1" stroke="#000000" stroke-opacity="1" stroke-width="3.2"></circle>
<circle clip-path="url(#clip592)" cx="2050.56" cy="1042.07" r="14.4" fill="#009af9" fill-rule="evenodd" fill-opacity="1" stroke="#000000" stroke-opacity="1" stroke-width="3.2"></circle>
<circle clip-path="url(#clip592)" cx="2091.02" cy="1074.26" r="14.4" fill="#009af9" fill-rule="evenodd" fill-opacity="1" stroke="#000000" stroke-opacity="1" stroke-width="3.2"></circle>
<circle clip-path="url(#clip592)" cx="2131.47" cy="1117.31" r="14.4" fill="#009af9" fill-rule="evenodd" fill-opacity="1" stroke="#000000" stroke-opacity="1" stroke-width="3.2"></circle>
<circle clip-path="url(#clip592)" cx="2171.93" cy="1152.24" r="14.4" fill="#009af9" fill-rule="evenodd" fill-opacity="1" stroke="#000000" stroke-opacity="1" stroke-width="3.2"></circle>
<circle clip-path="url(#clip592)" cx="2212.38" cy="1196.05" r="14.4" fill="#009af9" fill-rule="evenodd" fill-opacity="1" stroke="#000000" stroke-opacity="1" stroke-width="3.2"></circle>
<circle clip-path="url(#clip592)" cx="2252.83" cy="1234.75" r="14.4" fill="#009af9" fill-rule="evenodd" fill-opacity="1" stroke="#000000" stroke-opacity="1" stroke-width="3.2"></circle>
<circle clip-path="url(#clip592)" cx="2293.29" cy="1288.24" r="14.4" fill="#009af9" fill-rule="evenodd" fill-opacity="1" stroke="#000000" stroke-opacity="1" stroke-width="3.2"></circle>
<circle clip-path="url(#clip592)" cx="311.028" cy="160.256" r="14.4" fill="#e26f46" fill-rule="evenodd" fill-opacity="1" stroke="#000000" stroke-opacity="1" stroke-width="3.2"></circle>
<circle clip-path="url(#clip592)" cx="351.482" cy="417.265" r="14.4" fill="#e26f46" fill-rule="evenodd" fill-opacity="1" stroke="#000000" stroke-opacity="1" stroke-width="3.2"></circle>
<circle clip-path="url(#clip592)" cx="391.937" cy="438.3" r="14.4" fill="#e26f46" fill-rule="evenodd" fill-opacity="1" stroke="#000000" stroke-opacity="1" stroke-width="3.2"></circle>
<circle clip-path="url(#clip592)" cx="432.391" cy="456.122" r="14.4" fill="#e26f46" fill-rule="evenodd" fill-opacity="1" stroke="#000000" stroke-opacity="1" stroke-width="3.2"></circle>
<circle clip-path="url(#clip592)" cx="472.845" cy="472.054" r="14.4" fill="#e26f46" fill-rule="evenodd" fill-opacity="1" stroke="#000000" stroke-opacity="1" stroke-width="3.2"></circle>
<circle clip-path="url(#clip592)" cx="513.299" cy="490.944" r="14.4" fill="#e26f46" fill-rule="evenodd" fill-opacity="1" stroke="#000000" stroke-opacity="1" stroke-width="3.2"></circle>
<circle clip-path="url(#clip592)" cx="553.754" cy="503.632" r="14.4" fill="#e26f46" fill-rule="evenodd" fill-opacity="1" stroke="#000000" stroke-opacity="1" stroke-width="3.2"></circle>
<circle clip-path="url(#clip592)" cx="594.208" cy="518.814" r="14.4" fill="#e26f46" fill-rule="evenodd" fill-opacity="1" stroke="#000000" stroke-opacity="1" stroke-width="3.2"></circle>
<circle clip-path="url(#clip592)" cx="634.662" cy="532.123" r="14.4" fill="#e26f46" fill-rule="evenodd" fill-opacity="1" stroke="#000000" stroke-opacity="1" stroke-width="3.2"></circle>
<circle clip-path="url(#clip592)" cx="675.117" cy="539.984" r="14.4" fill="#e26f46" fill-rule="evenodd" fill-opacity="1" stroke="#000000" stroke-opacity="1" stroke-width="3.2"></circle>
<circle clip-path="url(#clip592)" cx="715.571" cy="550.912" r="14.4" fill="#e26f46" fill-rule="evenodd" fill-opacity="1" stroke="#000000" stroke-opacity="1" stroke-width="3.2"></circle>
<circle clip-path="url(#clip592)" cx="756.025" cy="565.192" r="14.4" fill="#e26f46" fill-rule="evenodd" fill-opacity="1" stroke="#000000" stroke-opacity="1" stroke-width="3.2"></circle>
<circle clip-path="url(#clip592)" cx="796.479" cy="583.808" r="14.4" fill="#e26f46" fill-rule="evenodd" fill-opacity="1" stroke="#000000" stroke-opacity="1" stroke-width="3.2"></circle>
<circle clip-path="url(#clip592)" cx="836.934" cy="599.29" r="14.4" fill="#e26f46" fill-rule="evenodd" fill-opacity="1" stroke="#000000" stroke-opacity="1" stroke-width="3.2"></circle>
<circle clip-path="url(#clip592)" cx="877.388" cy="612.344" r="14.4" fill="#e26f46" fill-rule="evenodd" fill-opacity="1" stroke="#000000" stroke-opacity="1" stroke-width="3.2"></circle>
<circle clip-path="url(#clip592)" cx="917.842" cy="621.987" r="14.4" fill="#e26f46" fill-rule="evenodd" fill-opacity="1" stroke="#000000" stroke-opacity="1" stroke-width="3.2"></circle>
<circle clip-path="url(#clip592)" cx="958.297" cy="633.399" r="14.4" fill="#e26f46" fill-rule="evenodd" fill-opacity="1" stroke="#000000" stroke-opacity="1" stroke-width="3.2"></circle>
<circle clip-path="url(#clip592)" cx="998.751" cy="645.099" r="14.4" fill="#e26f46" fill-rule="evenodd" fill-opacity="1" stroke="#000000" stroke-opacity="1" stroke-width="3.2"></circle>
<circle clip-path="url(#clip592)" cx="1039.21" cy="659.333" r="14.4" fill="#e26f46" fill-rule="evenodd" fill-opacity="1" stroke="#000000" stroke-opacity="1" stroke-width="3.2"></circle>
<circle clip-path="url(#clip592)" cx="1079.66" cy="673.582" r="14.4" fill="#e26f46" fill-rule="evenodd" fill-opacity="1" stroke="#000000" stroke-opacity="1" stroke-width="3.2"></circle>
<circle clip-path="url(#clip592)" cx="1120.11" cy="683.347" r="14.4" fill="#e26f46" fill-rule="evenodd" fill-opacity="1" stroke="#000000" stroke-opacity="1" stroke-width="3.2"></circle>
<circle clip-path="url(#clip592)" cx="1160.57" cy="693.174" r="14.4" fill="#e26f46" fill-rule="evenodd" fill-opacity="1" stroke="#000000" stroke-opacity="1" stroke-width="3.2"></circle>
<circle clip-path="url(#clip592)" cx="1201.02" cy="701.345" r="14.4" fill="#e26f46" fill-rule="evenodd" fill-opacity="1" stroke="#000000" stroke-opacity="1" stroke-width="3.2"></circle>
<circle clip-path="url(#clip592)" cx="1241.48" cy="711.729" r="14.4" fill="#e26f46" fill-rule="evenodd" fill-opacity="1" stroke="#000000" stroke-opacity="1" stroke-width="3.2"></circle>
<circle clip-path="url(#clip592)" cx="1281.93" cy="726.575" r="14.4" fill="#e26f46" fill-rule="evenodd" fill-opacity="1" stroke="#000000" stroke-opacity="1" stroke-width="3.2"></circle>
<circle clip-path="url(#clip592)" cx="1322.39" cy="740.096" r="14.4" fill="#e26f46" fill-rule="evenodd" fill-opacity="1" stroke="#000000" stroke-opacity="1" stroke-width="3.2"></circle>
<circle clip-path="url(#clip592)" cx="1362.84" cy="756.391" r="14.4" fill="#e26f46" fill-rule="evenodd" fill-opacity="1" stroke="#000000" stroke-opacity="1" stroke-width="3.2"></circle>
<circle clip-path="url(#clip592)" cx="1403.29" cy="774.358" r="14.4" fill="#e26f46" fill-rule="evenodd" fill-opacity="1" stroke="#000000" stroke-opacity="1" stroke-width="3.2"></circle>
<circle clip-path="url(#clip592)" cx="1443.75" cy="797.714" r="14.4" fill="#e26f46" fill-rule="evenodd" fill-opacity="1" stroke="#000000" stroke-opacity="1" stroke-width="3.2"></circle>
<circle clip-path="url(#clip592)" cx="1484.2" cy="819.982" r="14.4" fill="#e26f46" fill-rule="evenodd" fill-opacity="1" stroke="#000000" stroke-opacity="1" stroke-width="3.2"></circle>
<circle clip-path="url(#clip592)" cx="1524.66" cy="846.269" r="14.4" fill="#e26f46" fill-rule="evenodd" fill-opacity="1" stroke="#000000" stroke-opacity="1" stroke-width="3.2"></circle>
<circle clip-path="url(#clip592)" cx="1565.11" cy="874.364" r="14.4" fill="#e26f46" fill-rule="evenodd" fill-opacity="1" stroke="#000000" stroke-opacity="1" stroke-width="3.2"></circle>
<circle clip-path="url(#clip592)" cx="1605.57" cy="900.823" r="14.4" fill="#e26f46" fill-rule="evenodd" fill-opacity="1" stroke="#000000" stroke-opacity="1" stroke-width="3.2"></circle>
<circle clip-path="url(#clip592)" cx="1646.02" cy="931.38" r="14.4" fill="#e26f46" fill-rule="evenodd" fill-opacity="1" stroke="#000000" stroke-opacity="1" stroke-width="3.2"></circle>
<circle clip-path="url(#clip592)" cx="1686.47" cy="964.534" r="14.4" fill="#e26f46" fill-rule="evenodd" fill-opacity="1" stroke="#000000" stroke-opacity="1" stroke-width="3.2"></circle>
<circle clip-path="url(#clip592)" cx="1726.93" cy="997.11" r="14.4" fill="#e26f46" fill-rule="evenodd" fill-opacity="1" stroke="#000000" stroke-opacity="1" stroke-width="3.2"></circle>
<circle clip-path="url(#clip592)" cx="1767.38" cy="1028.24" r="14.4" fill="#e26f46" fill-rule="evenodd" fill-opacity="1" stroke="#000000" stroke-opacity="1" stroke-width="3.2"></circle>
<circle clip-path="url(#clip592)" cx="1807.84" cy="1056.43" r="14.4" fill="#e26f46" fill-rule="evenodd" fill-opacity="1" stroke="#000000" stroke-opacity="1" stroke-width="3.2"></circle>
<circle clip-path="url(#clip592)" cx="1848.29" cy="1079.95" r="14.4" fill="#e26f46" fill-rule="evenodd" fill-opacity="1" stroke="#000000" stroke-opacity="1" stroke-width="3.2"></circle>
<circle clip-path="url(#clip592)" cx="1888.75" cy="1100.35" r="14.4" fill="#e26f46" fill-rule="evenodd" fill-opacity="1" stroke="#000000" stroke-opacity="1" stroke-width="3.2"></circle>
<circle clip-path="url(#clip592)" cx="1929.2" cy="1117.52" r="14.4" fill="#e26f46" fill-rule="evenodd" fill-opacity="1" stroke="#000000" stroke-opacity="1" stroke-width="3.2"></circle>
<circle clip-path="url(#clip592)" cx="1969.65" cy="1132.69" r="14.4" fill="#e26f46" fill-rule="evenodd" fill-opacity="1" stroke="#000000" stroke-opacity="1" stroke-width="3.2"></circle>
<circle clip-path="url(#clip592)" cx="2010.11" cy="1148.53" r="14.4" fill="#e26f46" fill-rule="evenodd" fill-opacity="1" stroke="#000000" stroke-opacity="1" stroke-width="3.2"></circle>
<circle clip-path="url(#clip592)" cx="2050.56" cy="1169.99" r="14.4" fill="#e26f46" fill-rule="evenodd" fill-opacity="1" stroke="#000000" stroke-opacity="1" stroke-width="3.2"></circle>
<circle clip-path="url(#clip592)" cx="2091.02" cy="1196.01" r="14.4" fill="#e26f46" fill-rule="evenodd" fill-opacity="1" stroke="#000000" stroke-opacity="1" stroke-width="3.2"></circle>
<circle clip-path="url(#clip592)" cx="2131.47" cy="1231.36" r="14.4" fill="#e26f46" fill-rule="evenodd" fill-opacity="1" stroke="#000000" stroke-opacity="1" stroke-width="3.2"></circle>
<circle clip-path="url(#clip592)" cx="2171.93" cy="1268.28" r="14.4" fill="#e26f46" fill-rule="evenodd" fill-opacity="1" stroke="#000000" stroke-opacity="1" stroke-width="3.2"></circle>
<circle clip-path="url(#clip592)" cx="2212.38" cy="1309.73" r="14.4" fill="#e26f46" fill-rule="evenodd" fill-opacity="1" stroke="#000000" stroke-opacity="1" stroke-width="3.2"></circle>
<circle clip-path="url(#clip592)" cx="2252.83" cy="1347.33" r="14.4" fill="#e26f46" fill-rule="evenodd" fill-opacity="1" stroke="#000000" stroke-opacity="1" stroke-width="3.2"></circle>
<circle clip-path="url(#clip592)" cx="2293.29" cy="1386.4" r="14.4" fill="#e26f46" fill-rule="evenodd" fill-opacity="1" stroke="#000000" stroke-opacity="1" stroke-width="3.2"></circle>
<path clip-path="url(#clip590)" d="M1748.87 354.897 L2282.72 354.897 L2282.72 166.796 L1748.87 166.796  Z" fill="#ffffff" fill-rule="evenodd" fill-opacity="1"></path>
<polyline clip-path="url(#clip590)" style="stroke:#000000; stroke-linecap:round; stroke-linejoin:round; stroke-width:4; stroke-opacity:1; fill:none" points="1748.87,354.897 2282.72,354.897 2282.72,166.796 1748.87,166.796 1748.87,354.897 "></polyline>
<circle clip-path="url(#clip590)" cx="1842.25" cy="229.496" r="20.48" fill="#009af9" fill-rule="evenodd" fill-opacity="1" stroke="#000000" stroke-opacity="1" stroke-width="4.55111"></circle>
<path clip-path="url(#clip590)" d="M1935.64 245.571 L1935.64 200.904 Q1935.64 199.124 1936.6 199.124 Q1937.56 199.124 1937.56 200.553 L1937.56 245.219 Q1937.56 247 1936.6 247 Q1935.64 247 1935.64 245.571 Z" fill="#000000" fill-rule="nonzero" fill-opacity="1"></path><path clip-path="url(#clip590)" d="M1977.85 218.986 Q1977.85 220.298 1977.45 221.774 L1972 243.486 Q1971.5 245.407 1970.03 245.407 Q1969.42 245.407 1969.05 245.032 Q1968.69 244.681 1968.69 244.119 Q1968.69 243.931 1968.83 243.346 L1974.29 221.282 Q1974.78 219.267 1974.78 218.26 Q1974.78 214.911 1972.18 214.911 Q1969.89 214.911 1967.59 216.597 Q1966.54 217.44 1965.51 218.963 Q1964.5 220.462 1964.31 221.001 Q1964.1 222.219 1963.8 223.156 Q1963.66 223.811 1962.98 226.364 L1961.92 230.698 Q1961.18 233.93 1961.01 234.234 Q1960.78 234.89 1960.26 235.242 Q1959.75 235.593 1959.23 235.593 Q1958.65 235.593 1958.25 235.242 Q1957.85 234.89 1957.85 234.281 Q1957.85 234.188 1957.92 233.836 Q1957.99 233.485 1958.11 232.993 Q1958.22 232.501 1958.27 232.22 L1961.06 221.141 Q1961.57 219.127 1961.69 218.494 Q1961.83 217.839 1961.83 217.113 Q1961.83 215.848 1961.43 215.379 Q1961.03 214.911 1960.33 214.911 Q1959.11 214.911 1958.32 216.363 Q1957.52 217.815 1956.84 220.626 Q1956.63 221.399 1956.49 221.563 Q1956.37 221.727 1956.02 221.727 Q1955.44 221.703 1955.44 221.235 Q1955.44 221.118 1955.62 220.368 Q1955.81 219.595 1956.16 218.471 Q1956.54 217.323 1956.94 216.597 Q1957.17 216.105 1957.38 215.777 Q1957.59 215.45 1958.01 214.934 Q1958.43 214.419 1959.07 214.138 Q1959.7 213.857 1960.47 213.857 Q1962.18 213.857 1963.45 214.958 Q1964.74 216.059 1964.9 218.026 Q1965.39 217.3 1966.02 216.644 Q1966.68 215.988 1967.59 215.332 Q1968.51 214.653 1969.75 214.255 Q1970.99 213.857 1972.32 213.857 Q1974.99 213.857 1976.42 215.239 Q1977.85 216.597 1977.85 218.986 Z" fill="#000000" fill-rule="nonzero" fill-opacity="1"></path><path clip-path="url(#clip590)" d="M1997.94 246.421 Q1997.94 247.356 1997.37 247.913 Q1996.81 248.471 1996.11 248.471 Q1995.48 248.471 1995.16 248.11 Q1994.83 247.749 1994.83 247.29 Q1994.83 247.094 1994.91 246.848 Q1994.99 246.585 1995.17 246.274 Q1995.37 245.962 1995.78 245.733 Q1996.19 245.503 1996.75 245.47 Q1996.63 245.356 1996.6 245.339 Q1996.35 245.143 1995.89 245.077 Q1995.83 245.044 1995.6 245.044 Q1994.47 245.044 1993.32 245.88 Q1992.19 246.7 1990.79 248.258 Q1989.04 250.078 1987.91 250.75 Q1992.88 251.406 1992.88 254.275 Q1992.88 254.75 1992.75 255.324 Q1992.48 256.406 1992.48 257.193 Q1992.48 258.767 1993.55 258.767 Q1994.58 258.767 1995.24 257.718 Q1995.91 256.669 1996.47 254.619 Q1996.55 254.242 1996.63 254.127 Q1996.71 254.013 1996.94 254.013 Q1997.35 254.013 1997.35 254.341 Q1996.98 256.259 1996.14 257.734 Q1995.07 259.522 1993.48 259.522 Q1992.16 259.522 1991.27 258.603 Q1990.4 257.669 1990.4 256.193 Q1990.4 255.833 1990.53 255.013 Q1990.63 254.685 1990.63 254.308 Q1990.63 253.537 1990.2 252.963 Q1989.78 252.373 1989.09 252.078 Q1988.4 251.783 1987.83 251.652 Q1987.27 251.504 1986.73 251.455 Q1985.09 258.39 1984.86 258.817 Q1984.71 259.112 1984.38 259.308 Q1984.06 259.522 1983.71 259.522 Q1983.38 259.522 1983.06 259.292 Q1982.74 259.079 1982.74 258.571 Q1982.74 258.308 1982.88 257.833 L1987.75 238.486 L1987.84 237.83 Q1987.84 237.633 1987.76 237.535 Q1987.7 237.42 1987.3 237.338 Q1986.93 237.256 1986.17 237.256 Q1985.86 237.256 1985.71 237.24 Q1985.58 237.223 1985.47 237.141 Q1985.35 237.043 1985.35 236.846 Q1985.35 236.568 1985.47 236.42 Q1985.6 236.256 1985.7 236.223 Q1985.79 236.19 1985.99 236.174 Q1986.27 236.158 1987.2 236.076 Q1988.14 235.977 1988.94 235.912 Q1989.75 235.846 1990.09 235.846 Q1990.29 235.846 1990.38 235.945 Q1990.5 236.027 1990.52 236.125 L1990.53 236.207 L1987.04 250.373 Q1988.48 249.799 1990.76 247.258 Q1993.4 244.306 1995.66 244.306 Q1996.73 244.306 1997.34 244.962 Q1997.94 245.602 1997.94 246.421 Z" fill="#000000" fill-rule="nonzero" fill-opacity="1"></path><path clip-path="url(#clip590)" d="M2005.19 245.571 L2005.19 200.904 Q2005.19 199.124 2006.15 199.124 Q2007.11 199.124 2007.11 200.553 L2007.11 245.219 Q2007.11 247 2006.15 247 Q2005.19 247 2005.19 245.571 Z" fill="#000000" fill-rule="nonzero" fill-opacity="1"></path><circle clip-path="url(#clip590)" cx="1842.25" cy="292.197" r="20.48" fill="#e26f46" fill-rule="evenodd" fill-opacity="1" stroke="#000000" stroke-opacity="1" stroke-width="4.55111"></circle>
<path clip-path="url(#clip590)" d="M1935.64 319.32 L1935.64 274.654 Q1935.64 272.873 1936.6 272.873 Q1937.56 272.873 1937.56 274.302 L1937.56 318.969 Q1937.56 320.749 1936.6 320.749 Q1935.64 320.749 1935.64 319.32 Z" fill="#000000" fill-rule="nonzero" fill-opacity="1"></path><path clip-path="url(#clip590)" d="M1948.52 319.32 L1948.52 274.654 Q1948.52 272.873 1949.49 272.873 Q1950.45 272.873 1950.45 274.302 L1950.45 318.969 Q1950.45 320.749 1949.49 320.749 Q1948.52 320.749 1948.52 319.32 Z" fill="#000000" fill-rule="nonzero" fill-opacity="1"></path><path clip-path="url(#clip590)" d="M1997.34 282.266 Q1997.34 281.493 1997.13 280.86 Q1996.94 280.205 1996.64 279.76 Q1996.36 279.291 1995.82 278.94 Q1995.28 278.565 1994.83 278.331 Q1994.39 278.097 1993.64 277.956 Q1992.89 277.792 1992.4 277.722 Q1991.91 277.628 1991.06 277.581 Q1990.22 277.534 1989.8 277.534 Q1989.4 277.534 1988.6 277.534 Q1986.1 277.534 1985.68 277.581 Q1985.04 277.675 1984.81 278.05 Q1984.58 278.401 1984.34 279.361 L1981.23 291.869 L1986.59 291.869 Q1989.52 291.869 1991.53 291.049 Q1993.55 290.229 1994.69 289.082 Q1995.96 287.817 1996.64 285.779 Q1997.34 283.741 1997.34 282.266 M2002.56 304.353 Q2002.56 304.611 2002.35 305.196 Q2002.17 305.782 2001.7 306.602 Q2001.23 307.398 2000.6 308.124 Q1999.96 308.85 1998.96 309.342 Q1997.95 309.857 1996.8 309.857 Q1996.52 309.857 1996.24 309.834 Q1995.96 309.834 1995.26 309.717 Q1994.58 309.623 1994.01 309.436 Q1993.45 309.272 1992.75 308.874 Q1992.05 308.499 1991.56 307.984 Q1991.09 307.445 1990.76 306.602 Q1990.43 305.735 1990.43 304.681 Q1990.43 303.744 1991.2 300.606 Q1991.88 297.935 1991.88 297.28 Q1991.88 296.554 1991.65 295.874 Q1991.44 295.195 1990.9 294.492 Q1990.38 293.79 1989.28 293.368 Q1988.18 292.923 1986.64 292.923 L1980.95 292.923 L1977.76 305.641 Q1977.76 305.665 1977.69 305.993 Q1977.62 306.297 1977.62 306.461 Q1977.62 306.766 1977.81 306.953 Q1978.02 307.14 1978.53 307.234 Q1979.05 307.304 1979.45 307.328 Q1979.87 307.328 1980.73 307.328 Q1981.81 307.328 1982 307.515 Q1982.09 307.632 1982.09 307.843 Q1982.09 308.171 1982 308.405 Q1981.93 308.616 1981.74 308.686 Q1981.58 308.757 1981.46 308.78 Q1981.34 308.803 1981.13 308.803 L1975.04 308.663 L1969 308.803 Q1968.32 308.803 1968.32 308.265 Q1968.32 307.796 1968.48 307.609 Q1968.65 307.398 1968.86 307.375 Q1969.07 307.328 1969.61 307.328 Q1970.78 307.328 1971.48 307.258 Q1972.19 307.187 1972.63 307.094 Q1973.1 306.977 1973.33 306.649 Q1973.59 306.321 1973.71 306.04 Q1973.82 305.735 1973.99 305.056 L1980.41 279.291 Q1980.59 278.518 1980.59 278.401 Q1980.59 277.956 1980.31 277.839 Q1980.05 277.698 1979.31 277.628 L1977.48 277.534 Q1976.92 277.534 1976.68 277.511 Q1976.47 277.488 1976.31 277.371 Q1976.14 277.253 1976.14 276.996 Q1976.14 276.34 1976.42 276.199 Q1976.71 276.035 1977.53 276.035 L1991.2 276.035 Q1995.87 276.035 1998.82 278.073 Q2001.79 280.111 2001.79 283.226 Q2001.79 284.631 2001.16 285.943 Q2000.53 287.255 1999.47 288.285 Q1998.44 289.316 1997.06 290.183 Q1995.68 291.026 1994.2 291.611 Q1992.75 292.174 1991.25 292.501 Q1991.91 292.736 1992.52 293.087 Q1993.15 293.438 1993.94 294.094 Q1994.76 294.75 1995.26 295.804 Q1995.75 296.858 1995.75 298.146 Q1995.75 299.06 1995.56 300.418 Q1995.09 304.283 1995.09 305.876 Q1995.09 307.398 1995.49 308.101 Q1995.89 308.803 1997.01 308.803 Q1998.11 308.803 1999.33 307.82 Q2000.57 306.813 2001.37 304.447 Q2001.56 303.768 2002 303.768 Q2002.03 303.768 2002.05 303.768 Q2002.1 303.768 2002.19 303.814 Q2002.28 303.838 2002.35 303.908 Q2002.45 303.955 2002.49 304.072 Q2002.56 304.189 2002.56 304.353 Z" fill="#000000" fill-rule="nonzero" fill-opacity="1"></path><path clip-path="url(#clip590)" d="M2034.86 313.86 Q2034.86 313.991 2034.71 314.499 Q2034.56 315.008 2034.2 315.795 Q2033.86 316.582 2033.37 317.303 Q2032.89 318.008 2032.1 318.533 Q2031.33 319.041 2030.45 319.041 Q2029.27 319.041 2028.48 318.254 Q2027.69 317.467 2027.69 316.286 Q2027.69 315.647 2028.14 314.434 Q2030.22 308.892 2030.22 306.908 Q2030.22 304.563 2028.4 304.563 Q2027.37 304.563 2026.43 304.99 Q2025.5 305.416 2024.89 306.006 Q2024.28 306.597 2023.81 307.269 Q2023.33 307.941 2023.12 308.384 Q2022.92 308.826 2022.87 309.023 L2020.86 317.123 Q2020.69 317.811 2020.58 318.139 Q2020.46 318.467 2020.15 318.746 Q2019.84 319.041 2019.35 319.041 Q2018.94 319.041 2018.64 318.795 Q2018.36 318.549 2018.36 318.123 Q2018.36 318.057 2018.45 317.713 Q2018.53 317.369 2018.64 316.893 Q2018.76 316.418 2018.81 316.139 Q2019.4 313.909 2019.48 313.597 L2020.41 309.695 Q2020.92 307.761 2020.92 306.908 Q2020.92 304.563 2019.1 304.563 Q2018.2 304.563 2017.35 304.908 Q2016.51 305.236 2015.94 305.695 Q2015.36 306.154 2014.84 306.793 Q2014.33 307.416 2014.07 307.843 Q2013.82 308.252 2013.63 308.662 L2013.2 310.335 Q2013.1 310.794 2012.63 312.581 L2011.89 315.614 Q2011.36 317.877 2011.25 318.09 Q2011.08 318.549 2010.72 318.795 Q2010.36 319.041 2010 319.041 Q2009.59 319.041 2009.31 318.795 Q2009.04 318.549 2009.04 318.123 Q2009.04 318.057 2009.08 317.811 Q2009.13 317.565 2009.22 317.221 Q2009.3 316.877 2009.33 316.68 L2011.28 308.925 Q2011.64 307.515 2011.72 307.072 Q2011.82 306.613 2011.82 306.105 Q2011.82 304.563 2010.77 304.563 Q2009.92 304.563 2009.36 305.58 Q2008.81 306.597 2008.33 308.564 Q2008.18 309.105 2008.08 309.22 Q2008 309.335 2007.76 309.335 Q2007.35 309.318 2007.35 308.99 Q2007.35 308.908 2007.48 308.384 Q2007.61 307.859 2007.85 307.072 Q2008.12 306.269 2008.4 305.744 Q2008.56 305.4 2008.71 305.17 Q2008.86 304.941 2009.15 304.58 Q2009.45 304.219 2009.89 304.022 Q2010.33 303.826 2010.87 303.826 Q2012.07 303.826 2012.95 304.596 Q2013.86 305.367 2013.97 306.744 Q2016.15 303.826 2019.2 303.826 Q2020.92 303.826 2021.96 304.695 Q2022.92 305.531 2023.04 307.072 Q2025.3 303.826 2028.51 303.826 Q2030.37 303.826 2031.37 304.793 Q2032.37 305.744 2032.37 307.416 Q2032.37 308.285 2031.92 309.941 Q2031.48 311.581 2031.19 312.401 Q2030.89 313.22 2030.32 314.794 Q2029.71 316.303 2029.71 317.188 Q2029.71 317.762 2029.91 318.024 Q2030.1 318.287 2030.53 318.287 Q2031.19 318.287 2031.76 317.91 Q2032.33 317.516 2032.74 316.877 Q2033.17 316.221 2033.45 315.565 Q2033.73 314.893 2033.94 314.139 Q2034.07 313.729 2034.14 313.63 Q2034.22 313.532 2034.45 313.532 Q2034.86 313.532 2034.86 313.86 Z" fill="#000000" fill-rule="nonzero" fill-opacity="1"></path><path clip-path="url(#clip590)" d="M2029.51 274.125 Q2029.71 274.322 2029.71 274.6 Q2029.71 274.879 2029.51 275.076 Q2029.32 275.272 2029.04 275.272 L2008.02 275.272 Q2007.74 275.272 2007.54 275.076 Q2007.35 274.879 2007.35 274.6 Q2007.35 274.322 2007.54 274.125 Q2007.74 273.928 2008.02 273.928 L2029.04 273.928 Q2029.32 273.928 2029.51 274.125 Z" fill="#000000" fill-rule="nonzero" fill-opacity="1"></path><path clip-path="url(#clip590)" d="M2033.21 263.828 L2033.21 262.779 Q2037.24 262.779 2039.33 260.631 Q2039.9 260.631 2040 260.762 Q2040.1 260.893 2040.1 261.5 L2040.1 280.339 Q2040.1 281.339 2040.59 281.65 Q2041.08 281.962 2043.23 281.962 L2044.29 281.962 L2044.29 282.995 Q2043.11 282.896 2038.85 282.896 Q2034.59 282.896 2033.42 282.995 L2033.42 281.962 L2034.49 281.962 Q2036.6 281.962 2037.11 281.667 Q2037.62 281.355 2037.62 280.339 L2037.62 262.943 Q2035.87 263.828 2033.21 263.828 Z" fill="#000000" fill-rule="nonzero" fill-opacity="1"></path><path clip-path="url(#clip590)" d="M2054.95 319.32 L2054.95 274.654 Q2054.95 272.873 2055.91 272.873 Q2056.88 272.873 2056.88 274.302 L2056.88 318.969 Q2056.88 320.749 2055.91 320.749 Q2054.95 320.749 2054.95 319.32 Z" fill="#000000" fill-rule="nonzero" fill-opacity="1"></path><path clip-path="url(#clip590)" d="M2067.84 319.32 L2067.84 274.654 Q2067.84 272.873 2068.8 272.873 Q2069.76 272.873 2069.76 274.302 L2069.76 318.969 Q2069.76 320.749 2068.8 320.749 Q2067.84 320.749 2067.84 319.32 Z" fill="#000000" fill-rule="nonzero" fill-opacity="1"></path><path clip-path="url(#clip590)" d="M2080.72 319.32 L2080.72 274.654 Q2080.72 272.873 2081.68 272.873 Q2082.64 272.873 2082.64 274.302 L2082.64 318.969 Q2082.64 320.749 2081.68 320.749 Q2080.72 320.749 2080.72 319.32 Z" fill="#000000" fill-rule="nonzero" fill-opacity="1"></path><path clip-path="url(#clip590)" d="M2093.61 319.32 L2093.61 274.654 Q2093.61 272.873 2094.57 272.873 Q2095.53 272.873 2095.53 274.302 L2095.53 318.969 Q2095.53 320.749 2094.57 320.749 Q2093.61 320.749 2093.61 319.32 Z" fill="#000000" fill-rule="nonzero" fill-opacity="1"></path><path clip-path="url(#clip590)" d="M2135.51 276.486 Q2135.51 276.519 2135.48 276.552 Q2135.27 278.29 2134.86 279.257 Q2134.45 280.208 2133.53 280.651 Q2132.85 280.978 2132.02 280.978 Q2130.76 280.978 2128.94 280.142 Q2128.87 280.109 2128.51 279.946 Q2128.15 279.782 2128.02 279.732 Q2127.89 279.683 2127.61 279.585 Q2127.33 279.47 2127.12 279.437 Q2126.9 279.404 2126.69 279.404 Q2126.23 279.404 2125.84 279.601 Q2125.03 279.995 2124.54 280.585 Q2124.03 281.159 2123.9 282.192 Q2123.87 282.323 2123.76 282.421 Q2123.64 282.52 2123.49 282.52 Q2123.35 282.52 2123.21 282.405 Q2123.08 282.29 2123.08 282.126 Q2123.08 282.093 2123.12 282.061 Q2123.33 280.323 2123.74 279.372 Q2124.15 278.404 2125.07 277.962 Q2125.79 277.617 2126.58 277.617 Q2127.81 277.617 2129.67 278.47 Q2129.74 278.503 2130.1 278.667 Q2130.46 278.831 2130.59 278.88 Q2130.72 278.929 2131 279.044 Q2131.28 279.142 2131.49 279.175 Q2131.71 279.208 2131.92 279.208 Q2132.33 279.208 2132.76 278.995 Q2133.56 278.601 2134.07 278.027 Q2134.58 277.453 2134.71 276.42 Q2134.74 276.289 2134.86 276.191 Q2134.97 276.076 2135.12 276.076 Q2135.27 276.076 2135.4 276.207 Q2135.51 276.322 2135.51 276.486 Z" fill="#000000" fill-rule="nonzero" fill-opacity="1"></path><path clip-path="url(#clip590)" d="M2135.93 290.721 Q2135.93 291.963 2135.12 292.759 Q2134.32 293.555 2133.29 293.555 Q2132.4 293.555 2131.93 293.04 Q2131.46 292.525 2131.46 291.869 Q2131.46 290.932 2132.19 290.159 Q2132.91 289.386 2133.97 289.222 Q2133.19 288.66 2131.95 288.66 Q2129.92 288.66 2128.11 290.229 Q2127.32 290.956 2126.45 292.291 Q2125.58 293.602 2125.42 294.164 L2123.9 300.418 Q2123.76 301.121 2122.89 304.494 Q2122.05 307.843 2121.98 307.984 Q2121.74 308.639 2121.23 308.991 Q2120.71 309.342 2120.2 309.342 Q2119.61 309.342 2119.21 308.991 Q2118.81 308.639 2118.81 308.031 Q2118.81 307.937 2118.88 307.585 Q2118.95 307.234 2119.07 306.742 Q2119.19 306.25 2119.23 305.969 L2122.02 294.891 Q2122.54 292.876 2122.65 292.244 Q2122.79 291.588 2122.79 290.862 Q2122.79 289.597 2122.4 289.129 Q2122 288.66 2121.3 288.66 Q2120.08 288.66 2119.28 290.112 Q2118.49 291.565 2117.81 294.375 Q2117.6 295.148 2117.45 295.312 Q2117.34 295.476 2116.99 295.476 Q2116.4 295.453 2116.4 294.984 Q2116.4 294.867 2116.59 294.118 Q2116.78 293.345 2117.13 292.22 Q2117.5 291.073 2117.9 290.347 Q2118.13 289.855 2118.34 289.527 Q2118.56 289.199 2118.98 288.684 Q2119.4 288.168 2120.03 287.887 Q2120.66 287.606 2121.44 287.606 Q2123.12 287.606 2124.32 288.637 Q2125.54 289.667 2125.82 291.283 Q2126.4 290.44 2127.13 289.714 Q2127.85 288.965 2129.19 288.285 Q2130.52 287.606 2131.95 287.606 Q2133.73 287.606 2134.83 288.52 Q2135.93 289.41 2135.93 290.721 Z" fill="#000000" fill-rule="nonzero" fill-opacity="1"></path><path clip-path="url(#clip590)" d="M2158.33 310.452 Q2158.33 311.386 2157.76 311.944 Q2157.2 312.501 2156.5 312.501 Q2155.87 312.501 2155.54 312.141 Q2155.22 311.78 2155.22 311.321 Q2155.22 311.124 2155.3 310.878 Q2155.38 310.616 2155.56 310.304 Q2155.76 309.993 2156.17 309.763 Q2156.58 309.534 2157.13 309.501 Q2157.02 309.386 2156.99 309.37 Q2156.74 309.173 2156.28 309.107 Q2156.22 309.075 2155.99 309.075 Q2154.86 309.075 2153.71 309.911 Q2152.58 310.731 2151.18 312.288 Q2149.43 314.108 2148.3 314.78 Q2153.27 315.436 2153.27 318.305 Q2153.27 318.781 2153.13 319.355 Q2152.87 320.437 2152.87 321.224 Q2152.87 322.798 2153.94 322.798 Q2154.97 322.798 2155.63 321.749 Q2156.3 320.699 2156.86 318.65 Q2156.94 318.273 2157.02 318.158 Q2157.1 318.043 2157.33 318.043 Q2157.74 318.043 2157.74 318.371 Q2157.36 320.289 2156.53 321.765 Q2155.46 323.552 2153.87 323.552 Q2152.54 323.552 2151.66 322.634 Q2150.79 321.699 2150.79 320.224 Q2150.79 319.863 2150.92 319.043 Q2151.02 318.715 2151.02 318.338 Q2151.02 317.568 2150.59 316.994 Q2150.17 316.404 2149.48 316.108 Q2148.79 315.813 2148.22 315.682 Q2147.66 315.535 2147.12 315.485 Q2145.48 322.421 2145.25 322.847 Q2145.1 323.142 2144.77 323.339 Q2144.44 323.552 2144.1 323.552 Q2143.77 323.552 2143.44 323.323 Q2143.13 323.109 2143.13 322.601 Q2143.13 322.339 2143.26 321.863 L2148.13 302.516 L2148.23 301.861 Q2148.23 301.664 2148.15 301.565 Q2148.08 301.451 2147.69 301.369 Q2147.31 301.287 2146.56 301.287 Q2146.25 301.287 2146.1 301.27 Q2145.97 301.254 2145.85 301.172 Q2145.74 301.074 2145.74 300.877 Q2145.74 300.598 2145.85 300.451 Q2145.99 300.287 2146.08 300.254 Q2146.18 300.221 2146.38 300.205 Q2146.66 300.188 2147.59 300.106 Q2148.53 300.008 2149.33 299.942 Q2150.13 299.877 2150.48 299.877 Q2150.67 299.877 2150.77 299.975 Q2150.89 300.057 2150.9 300.155 L2150.92 300.237 L2147.43 314.403 Q2148.87 313.829 2151.15 311.288 Q2153.79 308.337 2156.05 308.337 Q2157.12 308.337 2157.72 308.993 Q2158.33 309.632 2158.33 310.452 Z" fill="#000000" fill-rule="nonzero" fill-opacity="1"></path><path clip-path="url(#clip590)" d="M2191.94 314.305 Q2192.13 314.502 2192.13 314.78 Q2192.13 315.059 2191.94 315.256 Q2191.74 315.453 2191.46 315.453 L2170.44 315.453 Q2170.16 315.453 2169.97 315.256 Q2169.77 315.059 2169.77 314.78 Q2169.77 314.502 2169.97 314.305 Q2170.16 314.108 2170.44 314.108 L2191.46 314.108 Q2191.74 314.108 2191.94 314.305 Z" fill="#000000" fill-rule="nonzero" fill-opacity="1"></path><path clip-path="url(#clip590)" d="M2204.95 304.008 L2204.95 302.959 Q2208.98 302.959 2211.06 300.811 Q2211.63 300.811 2211.73 300.942 Q2211.83 301.074 2211.83 301.68 L2211.83 320.519 Q2211.83 321.519 2212.32 321.831 Q2212.82 322.142 2214.96 322.142 L2216.03 322.142 L2216.03 323.175 Q2214.85 323.077 2210.59 323.077 Q2206.32 323.077 2205.16 323.175 L2205.16 322.142 L2206.22 322.142 Q2208.34 322.142 2208.85 321.847 Q2209.36 321.535 2209.36 320.519 L2209.36 303.123 Q2207.6 304.008 2204.95 304.008 Z" fill="#000000" fill-rule="nonzero" fill-opacity="1"></path><path clip-path="url(#clip590)" d="M2226.69 319.32 L2226.69 274.654 Q2226.69 272.873 2227.65 272.873 Q2228.61 272.873 2228.61 274.302 L2228.61 318.969 Q2228.61 320.749 2227.65 320.749 Q2226.69 320.749 2226.69 319.32 Z" fill="#000000" fill-rule="nonzero" fill-opacity="1"></path><path clip-path="url(#clip590)" d="M2239.57 319.32 L2239.57 274.654 Q2239.57 272.873 2240.53 272.873 Q2241.49 272.873 2241.49 274.302 L2241.49 318.969 Q2241.49 320.749 2240.53 320.749 Q2239.57 320.749 2239.57 319.32 Z" fill="#000000" fill-rule="nonzero" fill-opacity="1"></path></svg>