<svg xmlns="http://www.w3.org/2000/svg" xmlns:xlink="http://www.w3.org/1999/xlink" width="600" height="400" viewBox="0 0 2400 1600">
<defs>
  <clipPath id="clip690">
    <rect x="0" y="0" width="2400" height="1600"></rect>
  </clipPath>
</defs>
<path clip-path="url(#clip690)" d="M0 1600 L2400 1600 L2400 0 L0 0  Z" fill="#ffffff" fill-rule="evenodd" fill-opacity="1"></path>
<defs>
  <clipPath id="clip691">
    <rect x="480" y="0" width="1681" height="1600"></rect>
  </clipPath>
</defs>
<path clip-path="url(#clip690)" d="M232.389 1410.9 L2352.76 1410.9 L2352.76 123.472 L232.389 123.472  Z" fill="#ffffff" fill-rule="evenodd" fill-opacity="1"></path>
<defs>
  <clipPath id="clip692">
    <rect x="232" y="123" width="2121" height="1288"></rect>
  </clipPath>
</defs>
<polyline clip-path="url(#clip692)" style="stroke:#000000; stroke-linecap:round; stroke-linejoin:round; stroke-width:2; stroke-opacity:0.1; fill:none" points="2292.75,1410.9 2292.75,123.472 "></polyline>
<polyline clip-path="url(#clip692)" style="stroke:#000000; stroke-linecap:round; stroke-linejoin:round; stroke-width:2; stroke-opacity:0.1; fill:none" points="1959.35,1410.9 1959.35,123.472 "></polyline>
<polyline clip-path="url(#clip692)" style="stroke:#000000; stroke-linecap:round; stroke-linejoin:round; stroke-width:2; stroke-opacity:0.1; fill:none" points="1625.96,1410.9 1625.96,123.472 "></polyline>
<polyline clip-path="url(#clip692)" style="stroke:#000000; stroke-linecap:round; stroke-linejoin:round; stroke-width:2; stroke-opacity:0.1; fill:none" points="1292.57,1410.9 1292.57,123.472 "></polyline>
<polyline clip-path="url(#clip692)" style="stroke:#000000; stroke-linecap:round; stroke-linejoin:round; stroke-width:2; stroke-opacity:0.1; fill:none" points="959.182,1410.9 959.182,123.472 "></polyline>
<polyline clip-path="url(#clip692)" style="stroke:#000000; stroke-linecap:round; stroke-linejoin:round; stroke-width:2; stroke-opacity:0.1; fill:none" points="625.791,1410.9 625.791,123.472 "></polyline>
<polyline clip-path="url(#clip692)" style="stroke:#000000; stroke-linecap:round; stroke-linejoin:round; stroke-width:2; stroke-opacity:0.1; fill:none" points="292.4,1410.9 292.4,123.472 "></polyline>
<polyline clip-path="url(#clip690)" style="stroke:#000000; stroke-linecap:round; stroke-linejoin:round; stroke-width:4; stroke-opacity:1; fill:none" points="232.389,1410.9 2352.76,1410.9 "></polyline>
<polyline clip-path="url(#clip690)" style="stroke:#000000; stroke-linecap:round; stroke-linejoin:round; stroke-width:4; stroke-opacity:1; fill:none" points="2292.75,1410.9 2292.75,1392 "></polyline>
<polyline clip-path="url(#clip690)" style="stroke:#000000; stroke-linecap:round; stroke-linejoin:round; stroke-width:4; stroke-opacity:1; fill:none" points="1959.35,1410.9 1959.35,1392 "></polyline>
<polyline clip-path="url(#clip690)" style="stroke:#000000; stroke-linecap:round; stroke-linejoin:round; stroke-width:4; stroke-opacity:1; fill:none" points="1625.96,1410.9 1625.96,1392 "></polyline>
<polyline clip-path="url(#clip690)" style="stroke:#000000; stroke-linecap:round; stroke-linejoin:round; stroke-width:4; stroke-opacity:1; fill:none" points="1292.57,1410.9 1292.57,1392 "></polyline>
<polyline clip-path="url(#clip690)" style="stroke:#000000; stroke-linecap:round; stroke-linejoin:round; stroke-width:4; stroke-opacity:1; fill:none" points="959.182,1410.9 959.182,1392 "></polyline>
<polyline clip-path="url(#clip690)" style="stroke:#000000; stroke-linecap:round; stroke-linejoin:round; stroke-width:4; stroke-opacity:1; fill:none" points="625.791,1410.9 625.791,1392 "></polyline>
<polyline clip-path="url(#clip690)" style="stroke:#000000; stroke-linecap:round; stroke-linejoin:round; stroke-width:4; stroke-opacity:1; fill:none" points="292.4,1410.9 292.4,1392 "></polyline>
<path clip-path="url(#clip690)" d="M2243.01 1485.02 L2250.65 1485.02 L2250.65 1458.66 L2242.34 1460.32 L2242.34 1456.06 L2250.6 1454.4 L2255.28 1454.4 L2255.28 1485.02 L2262.92 1485.02 L2262.92 1488.96 L2243.01 1488.96 L2243.01 1485.02 Z" fill="#000000" fill-rule="nonzero" fill-opacity="1"></path><path clip-path="url(#clip690)" d="M2282.36 1457.48 Q2278.75 1457.48 2276.92 1461.04 Q2275.12 1464.58 2275.12 1471.71 Q2275.12 1478.82 2276.92 1482.38 Q2278.75 1485.92 2282.36 1485.92 Q2286 1485.92 2287.8 1482.38 Q2289.63 1478.82 2289.63 1471.71 Q2289.63 1464.58 2287.8 1461.04 Q2286 1457.48 2282.36 1457.48 M2282.36 1453.77 Q2288.17 1453.77 2291.23 1458.38 Q2294.31 1462.96 2294.31 1471.71 Q2294.31 1480.44 2291.23 1485.04 Q2288.17 1489.63 2282.36 1489.63 Q2276.55 1489.63 2273.47 1485.04 Q2270.42 1480.44 2270.42 1471.71 Q2270.42 1462.96 2273.47 1458.38 Q2276.55 1453.77 2282.36 1453.77 Z" fill="#000000" fill-rule="nonzero" fill-opacity="1"></path><path clip-path="url(#clip690)" d="M2294.31 1447.87 L2318.42 1447.87 L2318.42 1451.07 L2294.31 1451.07 L2294.31 1447.87 Z" fill="#000000" fill-rule="nonzero" fill-opacity="1"></path><path clip-path="url(#clip690)" d="M2329.89 1458.35 L2343.15 1458.35 L2343.15 1461.55 L2325.32 1461.55 L2325.32 1458.35 Q2327.48 1456.11 2331.21 1452.35 Q2334.95 1448.57 2335.91 1447.48 Q2337.73 1445.43 2338.45 1444.02 Q2339.18 1442.59 2339.18 1441.22 Q2339.18 1438.98 2337.6 1437.57 Q2336.04 1436.16 2333.52 1436.16 Q2331.73 1436.16 2329.74 1436.78 Q2327.77 1437.4 2325.51 1438.66 L2325.51 1434.82 Q2327.8 1433.9 2329.8 1433.43 Q2331.79 1432.96 2333.45 1432.96 Q2337.81 1432.96 2340.41 1435.14 Q2343 1437.32 2343 1440.97 Q2343 1442.7 2342.34 1444.26 Q2341.7 1445.8 2339.99 1447.91 Q2339.52 1448.46 2337 1451.07 Q2334.48 1453.67 2329.89 1458.35 Z" fill="#000000" fill-rule="nonzero" fill-opacity="1"></path><path clip-path="url(#clip690)" d="M1909.23 1485.02 L1916.87 1485.02 L1916.87 1458.66 L1908.56 1460.32 L1908.56 1456.06 L1916.83 1454.4 L1921.5 1454.4 L1921.5 1485.02 L1929.14 1485.02 L1929.14 1488.96 L1909.23 1488.96 L1909.23 1485.02 Z" fill="#000000" fill-rule="nonzero" fill-opacity="1"></path><path clip-path="url(#clip690)" d="M1948.59 1457.48 Q1944.98 1457.48 1943.15 1461.04 Q1941.34 1464.58 1941.34 1471.71 Q1941.34 1478.82 1943.15 1482.38 Q1944.98 1485.92 1948.59 1485.92 Q1952.22 1485.92 1954.03 1482.38 Q1955.85 1478.82 1955.85 1471.71 Q1955.85 1464.58 1954.03 1461.04 Q1952.22 1457.48 1948.59 1457.48 M1948.59 1453.77 Q1954.4 1453.77 1957.45 1458.38 Q1960.53 1462.96 1960.53 1471.71 Q1960.53 1480.44 1957.45 1485.04 Q1954.4 1489.63 1948.59 1489.63 Q1942.78 1489.63 1939.7 1485.04 Q1936.64 1480.44 1936.64 1471.71 Q1936.64 1462.96 1939.7 1458.38 Q1942.78 1453.77 1948.59 1453.77 Z" fill="#000000" fill-rule="nonzero" fill-opacity="1"></path><path clip-path="url(#clip690)" d="M1960.53 1447.87 L1984.64 1447.87 L1984.64 1451.07 L1960.53 1451.07 L1960.53 1447.87 Z" fill="#000000" fill-rule="nonzero" fill-opacity="1"></path><path clip-path="url(#clip690)" d="M2004.35 1446.41 Q2007.08 1446.99 2008.6 1448.83 Q2010.15 1450.68 2010.15 1453.38 Q2010.15 1457.54 2007.29 1459.82 Q2004.43 1462.09 1999.16 1462.09 Q1997.39 1462.09 1995.51 1461.73 Q1993.65 1461.4 1991.66 1460.7 L1991.66 1457.03 Q1993.24 1457.95 1995.12 1458.42 Q1997 1458.89 1999.05 1458.89 Q2002.62 1458.89 2004.48 1457.48 Q2006.37 1456.07 2006.37 1453.38 Q2006.37 1450.9 2004.62 1449.51 Q2002.89 1448.1 1999.78 1448.1 L1996.51 1448.1 L1996.51 1444.98 L1999.93 1444.98 Q2002.74 1444.98 2004.22 1443.87 Q2005.71 1442.74 2005.71 1440.63 Q2005.71 1438.47 2004.16 1437.32 Q2002.64 1436.16 1999.78 1436.16 Q1998.22 1436.16 1996.43 1436.49 Q1994.65 1436.83 1992.5 1437.55 L1992.5 1434.16 Q1994.67 1433.56 1996.55 1433.26 Q1998.45 1432.96 2000.12 1432.96 Q2004.45 1432.96 2006.97 1434.93 Q2009.49 1436.89 2009.49 1440.24 Q2009.49 1442.57 2008.15 1444.19 Q2006.82 1445.79 2004.35 1446.41 Z" fill="#000000" fill-rule="nonzero" fill-opacity="1"></path><path clip-path="url(#clip690)" d="M1575.38 1485.02 L1583.02 1485.02 L1583.02 1458.66 L1574.71 1460.32 L1574.71 1456.06 L1582.98 1454.4 L1587.65 1454.4 L1587.65 1485.02 L1595.29 1485.02 L1595.29 1488.96 L1575.38 1488.96 L1575.38 1485.02 Z" fill="#000000" fill-rule="nonzero" fill-opacity="1"></path><path clip-path="url(#clip690)" d="M1614.73 1457.48 Q1611.12 1457.48 1609.29 1461.04 Q1607.49 1464.58 1607.49 1471.71 Q1607.49 1478.82 1609.29 1482.38 Q1611.12 1485.92 1614.73 1485.92 Q1618.37 1485.92 1620.17 1482.38 Q1622 1478.82 1622 1471.71 Q1622 1464.58 1620.17 1461.04 Q1618.37 1457.48 1614.73 1457.48 M1614.73 1453.77 Q1620.54 1453.77 1623.6 1458.38 Q1626.68 1462.96 1626.68 1471.71 Q1626.68 1480.44 1623.6 1485.04 Q1620.54 1489.63 1614.73 1489.63 Q1608.92 1489.63 1605.85 1485.04 Q1602.79 1480.44 1602.79 1471.71 Q1602.79 1462.96 1605.85 1458.38 Q1608.92 1453.77 1614.73 1453.77 Z" fill="#000000" fill-rule="nonzero" fill-opacity="1"></path><path clip-path="url(#clip690)" d="M1626.68 1447.87 L1650.79 1447.87 L1650.79 1451.07 L1626.68 1451.07 L1626.68 1447.87 Z" fill="#000000" fill-rule="nonzero" fill-opacity="1"></path><path clip-path="url(#clip690)" d="M1669.43 1436.78 L1659.84 1451.77 L1669.43 1451.77 L1669.43 1436.78 M1668.43 1433.47 L1673.21 1433.47 L1673.21 1451.77 L1677.22 1451.77 L1677.22 1454.93 L1673.21 1454.93 L1673.21 1461.55 L1669.43 1461.55 L1669.43 1454.93 L1656.75 1454.93 L1656.75 1451.26 L1668.43 1433.47 Z" fill="#000000" fill-rule="nonzero" fill-opacity="1"></path><path clip-path="url(#clip690)" d="M1242.59 1485.02 L1250.23 1485.02 L1250.23 1458.66 L1241.92 1460.32 L1241.92 1456.06 L1250.19 1454.4 L1254.86 1454.4 L1254.86 1485.02 L1262.5 1485.02 L1262.5 1488.96 L1242.59 1488.96 L1242.59 1485.02 Z" fill="#000000" fill-rule="nonzero" fill-opacity="1"></path><path clip-path="url(#clip690)" d="M1281.95 1457.48 Q1278.33 1457.48 1276.51 1461.04 Q1274.7 1464.58 1274.7 1471.71 Q1274.7 1478.82 1276.51 1482.38 Q1278.33 1485.92 1281.95 1485.92 Q1285.58 1485.92 1287.39 1482.38 Q1289.21 1478.82 1289.21 1471.71 Q1289.21 1464.58 1287.39 1461.04 Q1285.58 1457.48 1281.95 1457.48 M1281.95 1453.77 Q1287.76 1453.77 1290.81 1458.38 Q1293.89 1462.96 1293.89 1471.71 Q1293.89 1480.44 1290.81 1485.04 Q1287.76 1489.63 1281.95 1489.63 Q1276.14 1489.63 1273.06 1485.04 Q1270 1480.44 1270 1471.71 Q1270 1462.96 1273.06 1458.38 Q1276.14 1453.77 1281.95 1453.77 Z" fill="#000000" fill-rule="nonzero" fill-opacity="1"></path><path clip-path="url(#clip690)" d="M1293.89 1447.87 L1318 1447.87 L1318 1451.07 L1293.89 1451.07 L1293.89 1447.87 Z" fill="#000000" fill-rule="nonzero" fill-opacity="1"></path><path clip-path="url(#clip690)" d="M1326.24 1433.47 L1341.15 1433.47 L1341.15 1436.66 L1329.72 1436.66 L1329.72 1443.55 Q1330.55 1443.27 1331.37 1443.13 Q1332.2 1442.98 1333.03 1442.98 Q1337.73 1442.98 1340.48 1445.56 Q1343.22 1448.14 1343.22 1452.54 Q1343.22 1457.07 1340.4 1459.59 Q1337.58 1462.09 1332.45 1462.09 Q1330.68 1462.09 1328.83 1461.79 Q1327.01 1461.49 1325.05 1460.89 L1325.05 1457.07 Q1326.75 1457.99 1328.55 1458.44 Q1330.36 1458.89 1332.37 1458.89 Q1335.62 1458.89 1337.52 1457.18 Q1339.42 1455.47 1339.42 1452.54 Q1339.42 1449.6 1337.52 1447.89 Q1335.62 1446.18 1332.37 1446.18 Q1330.85 1446.18 1329.32 1446.52 Q1327.82 1446.86 1326.24 1447.57 L1326.24 1433.47 Z" fill="#000000" fill-rule="nonzero" fill-opacity="1"></path><path clip-path="url(#clip690)" d="M908.733 1485.02 L916.372 1485.02 L916.372 1458.66 L908.061 1460.32 L908.061 1456.06 L916.325 1454.4 L921.001 1454.4 L921.001 1485.02 L928.64 1485.02 L928.64 1488.96 L908.733 1488.96 L908.733 1485.02 Z" fill="#000000" fill-rule="nonzero" fill-opacity="1"></path><path clip-path="url(#clip690)" d="M948.084 1457.48 Q944.473 1457.48 942.645 1461.04 Q940.839 1464.58 940.839 1471.71 Q940.839 1478.82 942.645 1482.38 Q944.473 1485.92 948.084 1485.92 Q951.719 1485.92 953.524 1482.38 Q955.353 1478.82 955.353 1471.71 Q955.353 1464.58 953.524 1461.04 Q951.719 1457.48 948.084 1457.48 M948.084 1453.77 Q953.895 1453.77 956.95 1458.38 Q960.029 1462.96 960.029 1471.71 Q960.029 1480.44 956.95 1485.04 Q953.895 1489.63 948.084 1489.63 Q942.274 1489.63 939.196 1485.04 Q936.14 1480.44 936.14 1471.71 Q936.14 1462.96 939.196 1458.38 Q942.274 1453.77 948.084 1453.77 Z" fill="#000000" fill-rule="nonzero" fill-opacity="1"></path><path clip-path="url(#clip690)" d="M960.029 1447.87 L984.14 1447.87 L984.14 1451.07 L960.029 1451.07 L960.029 1447.87 Z" fill="#000000" fill-rule="nonzero" fill-opacity="1"></path><path clip-path="url(#clip690)" d="M1000.94 1445.99 Q998.378 1445.99 996.873 1447.74 Q995.387 1449.49 995.387 1452.54 Q995.387 1455.57 996.873 1457.33 Q998.378 1459.08 1000.94 1459.08 Q1003.49 1459.08 1004.98 1457.33 Q1006.48 1455.57 1006.48 1452.54 Q1006.48 1449.49 1004.98 1447.74 Q1003.49 1445.99 1000.94 1445.99 M1008.48 1434.09 L1008.48 1437.55 Q1007.05 1436.87 1005.58 1436.51 Q1004.13 1436.16 1002.7 1436.16 Q998.942 1436.16 996.948 1438.69 Q994.974 1441.23 994.691 1446.37 Q995.801 1444.73 997.475 1443.87 Q999.149 1442.98 1001.16 1442.98 Q1005.39 1442.98 1007.84 1445.56 Q1010.3 1448.12 1010.3 1452.54 Q1010.3 1456.86 1007.74 1459.48 Q1005.19 1462.09 1000.94 1462.09 Q996.064 1462.09 993.488 1458.37 Q990.911 1454.62 990.911 1447.53 Q990.911 1440.88 994.071 1436.93 Q997.23 1432.96 1002.55 1432.96 Q1003.98 1432.96 1005.43 1433.24 Q1006.9 1433.52 1008.48 1434.09 Z" fill="#000000" fill-rule="nonzero" fill-opacity="1"></path><path clip-path="url(#clip690)" d="M575.774 1485.02 L583.413 1485.02 L583.413 1458.66 L575.103 1460.32 L575.103 1456.06 L583.367 1454.4 L588.043 1454.4 L588.043 1485.02 L595.682 1485.02 L595.682 1488.96 L575.774 1488.96 L575.774 1485.02 Z" fill="#000000" fill-rule="nonzero" fill-opacity="1"></path><path clip-path="url(#clip690)" d="M615.126 1457.48 Q611.515 1457.48 609.686 1461.04 Q607.881 1464.58 607.881 1471.71 Q607.881 1478.82 609.686 1482.38 Q611.515 1485.92 615.126 1485.92 Q618.76 1485.92 620.566 1482.38 Q622.394 1478.82 622.394 1471.71 Q622.394 1464.58 620.566 1461.04 Q618.76 1457.48 615.126 1457.48 M615.126 1453.77 Q620.936 1453.77 623.992 1458.38 Q627.07 1462.96 627.07 1471.71 Q627.07 1480.44 623.992 1485.04 Q620.936 1489.63 615.126 1489.63 Q609.316 1489.63 606.237 1485.04 Q603.182 1480.44 603.182 1471.71 Q603.182 1462.96 606.237 1458.38 Q609.316 1453.77 615.126 1453.77 Z" fill="#000000" fill-rule="nonzero" fill-opacity="1"></path><path clip-path="url(#clip690)" d="M627.07 1447.87 L651.182 1447.87 L651.182 1451.07 L627.07 1451.07 L627.07 1447.87 Z" fill="#000000" fill-rule="nonzero" fill-opacity="1"></path><path clip-path="url(#clip690)" d="M658.423 1433.47 L676.478 1433.47 L676.478 1435.08 L666.285 1461.55 L662.316 1461.55 L671.908 1436.66 L658.423 1436.66 L658.423 1433.47 Z" fill="#000000" fill-rule="nonzero" fill-opacity="1"></path><path clip-path="url(#clip690)" d="M242.054 1485.02 L249.693 1485.02 L249.693 1458.66 L241.383 1460.32 L241.383 1456.06 L249.647 1454.4 L254.323 1454.4 L254.323 1485.02 L261.962 1485.02 L261.962 1488.96 L242.054 1488.96 L242.054 1485.02 Z" fill="#000000" fill-rule="nonzero" fill-opacity="1"></path><path clip-path="url(#clip690)" d="M281.406 1457.48 Q277.795 1457.48 275.966 1461.04 Q274.161 1464.58 274.161 1471.71 Q274.161 1478.82 275.966 1482.38 Q277.795 1485.92 281.406 1485.92 Q285.04 1485.92 286.846 1482.38 Q288.674 1478.82 288.674 1471.71 Q288.674 1464.58 286.846 1461.04 Q285.04 1457.48 281.406 1457.48 M281.406 1453.77 Q287.216 1453.77 290.272 1458.38 Q293.35 1462.96 293.35 1471.71 Q293.35 1480.44 290.272 1485.04 Q287.216 1489.63 281.406 1489.63 Q275.596 1489.63 272.517 1485.04 Q269.461 1480.44 269.461 1471.71 Q269.461 1462.96 272.517 1458.38 Q275.596 1453.77 281.406 1453.77 Z" fill="#000000" fill-rule="nonzero" fill-opacity="1"></path><path clip-path="url(#clip690)" d="M293.35 1447.87 L317.462 1447.87 L317.462 1451.07 L293.35 1451.07 L293.35 1447.87 Z" fill="#000000" fill-rule="nonzero" fill-opacity="1"></path><path clip-path="url(#clip690)" d="M333.787 1448.21 Q331.079 1448.21 329.518 1449.66 Q327.975 1451.11 327.975 1453.65 Q327.975 1456.19 329.518 1457.63 Q331.079 1459.08 333.787 1459.08 Q336.495 1459.08 338.056 1457.63 Q339.617 1456.17 339.617 1453.65 Q339.617 1451.11 338.056 1449.66 Q336.514 1448.21 333.787 1448.21 M329.988 1446.59 Q327.543 1445.99 326.17 1444.32 Q324.816 1442.64 324.816 1440.24 Q324.816 1436.87 327.204 1434.91 Q329.612 1432.96 333.787 1432.96 Q337.981 1432.96 340.37 1434.91 Q342.758 1436.87 342.758 1440.24 Q342.758 1442.64 341.385 1444.32 Q340.031 1445.99 337.605 1446.59 Q340.351 1447.23 341.874 1449.1 Q343.417 1450.96 343.417 1453.65 Q343.417 1457.73 340.915 1459.91 Q338.432 1462.09 333.787 1462.09 Q329.141 1462.09 326.64 1459.91 Q324.157 1457.73 324.157 1453.65 Q324.157 1450.96 325.7 1449.1 Q327.242 1447.23 329.988 1446.59 M328.596 1440.59 Q328.596 1442.78 329.95 1444 Q331.323 1445.22 333.787 1445.22 Q336.232 1445.22 337.605 1444 Q338.997 1442.78 338.997 1440.59 Q338.997 1438.41 337.605 1437.19 Q336.232 1435.97 333.787 1435.97 Q331.323 1435.97 329.95 1437.19 Q328.596 1438.41 328.596 1440.59 Z" fill="#000000" fill-rule="nonzero" fill-opacity="1"></path><path clip-path="url(#clip690)" d="M736.719 1531.03 Q729.717 1531.03 725.579 1536.25 Q721.473 1541.47 721.473 1550.47 Q721.473 1559.45 725.579 1564.67 Q729.717 1569.89 736.719 1569.89 Q743.721 1569.89 747.795 1564.67 Q751.901 1559.45 751.901 1550.47 Q751.901 1541.47 747.795 1536.25 Q743.721 1531.03 736.719 1531.03 M736.719 1525.81 Q746.713 1525.81 752.697 1532.52 Q758.681 1539.21 758.681 1550.47 Q758.681 1561.71 752.697 1568.42 Q746.713 1575.11 736.719 1575.11 Q726.693 1575.11 720.678 1568.42 Q714.694 1561.74 714.694 1550.47 Q714.694 1539.21 720.678 1532.52 Q726.693 1525.81 736.719 1525.81 Z" fill="#000000" fill-rule="nonzero" fill-opacity="1"></path><path clip-path="url(#clip690)" d="M764.283 1538.54 L770.489 1538.54 L781.629 1568.46 L792.769 1538.54 L798.976 1538.54 L785.608 1574.19 L777.651 1574.19 L764.283 1538.54 Z" fill="#000000" fill-rule="nonzero" fill-opacity="1"></path><path clip-path="url(#clip690)" d="M837.552 1554.9 L837.552 1557.76 L810.625 1557.76 Q811.007 1563.81 814.253 1566.99 Q817.532 1570.14 823.356 1570.14 Q826.73 1570.14 829.881 1569.32 Q833.064 1568.49 836.183 1566.83 L836.183 1572.37 Q833.032 1573.71 829.722 1574.41 Q826.412 1575.11 823.006 1575.11 Q814.476 1575.11 809.479 1570.14 Q804.514 1565.18 804.514 1556.71 Q804.514 1547.96 809.225 1542.83 Q813.967 1537.68 821.988 1537.68 Q829.181 1537.68 833.351 1542.33 Q837.552 1546.94 837.552 1554.9 M831.695 1553.18 Q831.632 1548.37 828.99 1545.51 Q826.38 1542.64 822.051 1542.64 Q817.15 1542.64 814.19 1545.41 Q811.262 1548.18 810.816 1553.21 L831.695 1553.18 Z" fill="#000000" fill-rule="nonzero" fill-opacity="1"></path><path clip-path="url(#clip690)" d="M867.821 1544.01 Q866.834 1543.44 865.657 1543.18 Q864.511 1542.9 863.11 1542.9 Q858.145 1542.9 855.471 1546.14 Q852.83 1549.36 852.83 1555.41 L852.83 1574.19 L846.941 1574.19 L846.941 1538.54 L852.83 1538.54 L852.83 1544.08 Q854.676 1540.83 857.636 1539.27 Q860.596 1537.68 864.829 1537.68 Q865.434 1537.68 866.166 1537.77 Q866.898 1537.84 867.789 1538 L867.821 1544.01 Z" fill="#000000" fill-rule="nonzero" fill-opacity="1"></path><path clip-path="url(#clip690)" d="M890.164 1556.27 Q883.067 1556.27 880.329 1557.89 Q877.592 1559.51 877.592 1563.43 Q877.592 1566.55 879.629 1568.39 Q881.698 1570.21 885.231 1570.21 Q890.101 1570.21 893.029 1566.77 Q895.989 1563.3 895.989 1557.57 L895.989 1556.27 L890.164 1556.27 M901.846 1553.85 L901.846 1574.19 L895.989 1574.19 L895.989 1568.77 Q893.984 1572.02 890.992 1573.58 Q888 1575.11 883.671 1575.11 Q878.197 1575.11 874.95 1572.05 Q871.736 1568.97 871.736 1563.81 Q871.736 1557.79 875.746 1554.74 Q879.788 1551.68 887.777 1551.68 L895.989 1551.68 L895.989 1551.11 Q895.989 1547.07 893.316 1544.87 Q890.674 1542.64 885.868 1542.64 Q882.812 1542.64 879.916 1543.38 Q877.019 1544.11 874.346 1545.57 L874.346 1540.16 Q877.56 1538.92 880.584 1538.31 Q883.608 1537.68 886.472 1537.68 Q894.207 1537.68 898.026 1541.69 Q901.846 1545.7 901.846 1553.85 Z" fill="#000000" fill-rule="nonzero" fill-opacity="1"></path><path clip-path="url(#clip690)" d="M913.909 1524.66 L919.765 1524.66 L919.765 1574.19 L913.909 1574.19 L913.909 1524.66 Z" fill="#000000" fill-rule="nonzero" fill-opacity="1"></path><path clip-path="url(#clip690)" d="M932.019 1524.66 L937.875 1524.66 L937.875 1574.19 L932.019 1574.19 L932.019 1524.66 Z" fill="#000000" fill-rule="nonzero" fill-opacity="1"></path><path clip-path="url(#clip690)" d="M976.643 1528.42 L976.643 1538.54 L988.706 1538.54 L988.706 1543.09 L976.643 1543.09 L976.643 1562.44 Q976.643 1566.8 977.82 1568.04 Q979.03 1569.28 982.69 1569.28 L988.706 1569.28 L988.706 1574.19 L982.69 1574.19 Q975.911 1574.19 973.332 1571.67 Q970.754 1569.12 970.754 1562.44 L970.754 1543.09 L966.457 1543.09 L966.457 1538.54 L970.754 1538.54 L970.754 1528.42 L976.643 1528.42 Z" fill="#000000" fill-rule="nonzero" fill-opacity="1"></path><path clip-path="url(#clip690)" d="M1010.22 1542.64 Q1005.51 1542.64 1002.77 1546.34 Q1000.04 1550 1000.04 1556.39 Q1000.04 1562.79 1002.74 1566.48 Q1005.48 1570.14 1010.22 1570.14 Q1014.9 1570.14 1017.64 1566.45 Q1020.38 1562.76 1020.38 1556.39 Q1020.38 1550.06 1017.64 1546.37 Q1014.9 1542.64 1010.22 1542.64 M1010.22 1537.68 Q1017.86 1537.68 1022.22 1542.64 Q1026.58 1547.61 1026.58 1556.39 Q1026.58 1565.15 1022.22 1570.14 Q1017.86 1575.11 1010.22 1575.11 Q1002.55 1575.11 998.191 1570.14 Q993.862 1565.15 993.862 1556.39 Q993.862 1547.61 998.191 1542.64 Q1002.55 1537.68 1010.22 1537.68 Z" fill="#000000" fill-rule="nonzero" fill-opacity="1"></path><path clip-path="url(#clip690)" d="M1036.29 1524.66 L1042.15 1524.66 L1042.15 1574.19 L1036.29 1574.19 L1036.29 1524.66 Z" fill="#000000" fill-rule="nonzero" fill-opacity="1"></path><path clip-path="url(#clip690)" d="M1084.89 1554.9 L1084.89 1557.76 L1057.96 1557.76 Q1058.35 1563.81 1061.59 1566.99 Q1064.87 1570.14 1070.7 1570.14 Q1074.07 1570.14 1077.22 1569.32 Q1080.4 1568.49 1083.52 1566.83 L1083.52 1572.37 Q1080.37 1573.71 1077.06 1574.41 Q1073.75 1575.11 1070.35 1575.11 Q1061.82 1575.11 1056.82 1570.14 Q1051.85 1565.18 1051.85 1556.71 Q1051.85 1547.96 1056.56 1542.83 Q1061.31 1537.68 1069.33 1537.68 Q1076.52 1537.68 1080.69 1542.33 Q1084.89 1546.94 1084.89 1554.9 M1079.03 1553.18 Q1078.97 1548.37 1076.33 1545.51 Q1073.72 1542.64 1069.39 1542.64 Q1064.49 1542.64 1061.53 1545.41 Q1058.6 1548.18 1058.16 1553.21 L1079.03 1553.18 Z" fill="#000000" fill-rule="nonzero" fill-opacity="1"></path><path clip-path="url(#clip690)" d="M1115.16 1544.01 Q1114.17 1543.44 1113 1543.18 Q1111.85 1542.9 1110.45 1542.9 Q1105.48 1542.9 1102.81 1546.14 Q1100.17 1549.36 1100.17 1555.41 L1100.17 1574.19 L1094.28 1574.19 L1094.28 1538.54 L1100.17 1538.54 L1100.17 1544.08 Q1102.02 1540.83 1104.98 1539.27 Q1107.94 1537.68 1112.17 1537.68 Q1112.77 1537.68 1113.51 1537.77 Q1114.24 1537.84 1115.13 1538 L1115.16 1544.01 Z" fill="#000000" fill-rule="nonzero" fill-opacity="1"></path><path clip-path="url(#clip690)" d="M1137.5 1556.27 Q1130.41 1556.27 1127.67 1557.89 Q1124.93 1559.51 1124.93 1563.43 Q1124.93 1566.55 1126.97 1568.39 Q1129.04 1570.21 1132.57 1570.21 Q1137.44 1570.21 1140.37 1566.77 Q1143.33 1563.3 1143.33 1557.57 L1143.33 1556.27 L1137.5 1556.27 M1149.19 1553.85 L1149.19 1574.19 L1143.33 1574.19 L1143.33 1568.77 Q1141.32 1572.02 1138.33 1573.58 Q1135.34 1575.11 1131.01 1575.11 Q1125.54 1575.11 1122.29 1572.05 Q1119.08 1568.97 1119.08 1563.81 Q1119.08 1557.79 1123.09 1554.74 Q1127.13 1551.68 1135.12 1551.68 L1143.33 1551.68 L1143.33 1551.11 Q1143.33 1547.07 1140.66 1544.87 Q1138.01 1542.64 1133.21 1542.64 Q1130.15 1542.64 1127.26 1543.38 Q1124.36 1544.11 1121.69 1545.57 L1121.69 1540.16 Q1124.9 1538.92 1127.92 1538.31 Q1130.95 1537.68 1133.81 1537.68 Q1141.55 1537.68 1145.37 1541.69 Q1149.19 1545.7 1149.19 1553.85 Z" fill="#000000" fill-rule="nonzero" fill-opacity="1"></path><path clip-path="url(#clip690)" d="M1190.88 1552.67 L1190.88 1574.19 L1185.02 1574.19 L1185.02 1552.86 Q1185.02 1547.8 1183.05 1545.29 Q1181.08 1542.77 1177.13 1542.77 Q1172.39 1542.77 1169.65 1545.79 Q1166.91 1548.82 1166.91 1554.04 L1166.91 1574.19 L1161.03 1574.19 L1161.03 1538.54 L1166.91 1538.54 L1166.91 1544.08 Q1169.01 1540.86 1171.85 1539.27 Q1174.71 1537.68 1178.44 1537.68 Q1184.58 1537.68 1187.73 1541.5 Q1190.88 1545.29 1190.88 1552.67 Z" fill="#000000" fill-rule="nonzero" fill-opacity="1"></path><path clip-path="url(#clip690)" d="M1228.22 1539.91 L1228.22 1545.38 Q1225.73 1544.01 1223.22 1543.34 Q1220.74 1542.64 1218.19 1542.64 Q1212.49 1542.64 1209.34 1546.27 Q1206.19 1549.87 1206.19 1556.39 Q1206.19 1562.92 1209.34 1566.55 Q1212.49 1570.14 1218.19 1570.14 Q1220.74 1570.14 1223.22 1569.47 Q1225.73 1568.77 1228.22 1567.41 L1228.22 1572.82 Q1225.76 1573.96 1223.12 1574.54 Q1220.51 1575.11 1217.55 1575.11 Q1209.5 1575.11 1204.76 1570.05 Q1200.02 1564.99 1200.02 1556.39 Q1200.02 1547.67 1204.79 1542.68 Q1209.6 1537.68 1217.93 1537.68 Q1220.64 1537.68 1223.22 1538.25 Q1225.8 1538.79 1228.22 1539.91 Z" fill="#000000" fill-rule="nonzero" fill-opacity="1"></path><path clip-path="url(#clip690)" d="M1268.89 1554.9 L1268.89 1557.76 L1241.97 1557.76 Q1242.35 1563.81 1245.59 1566.99 Q1248.87 1570.14 1254.7 1570.14 Q1258.07 1570.14 1261.22 1569.32 Q1264.4 1568.49 1267.52 1566.83 L1267.52 1572.37 Q1264.37 1573.71 1261.06 1574.41 Q1257.75 1575.11 1254.35 1575.11 Q1245.82 1575.11 1240.82 1570.14 Q1235.85 1565.18 1235.85 1556.71 Q1235.85 1547.96 1240.56 1542.83 Q1245.31 1537.68 1253.33 1537.68 Q1260.52 1537.68 1264.69 1542.33 Q1268.89 1546.94 1268.89 1554.9 M1263.04 1553.18 Q1262.97 1548.37 1260.33 1545.51 Q1257.72 1542.64 1253.39 1542.64 Q1248.49 1542.64 1245.53 1545.41 Q1242.6 1548.18 1242.16 1553.21 L1263.04 1553.18 Z" fill="#000000" fill-rule="nonzero" fill-opacity="1"></path><path clip-path="url(#clip690)" d="M1313.04 1542.64 Q1308.33 1542.64 1305.59 1546.34 Q1302.85 1550 1302.85 1556.39 Q1302.85 1562.79 1305.56 1566.48 Q1308.3 1570.14 1313.04 1570.14 Q1317.72 1570.14 1320.45 1566.45 Q1323.19 1562.76 1323.19 1556.39 Q1323.19 1550.06 1320.45 1546.37 Q1317.72 1542.64 1313.04 1542.64 M1313.04 1537.68 Q1320.68 1537.68 1325.04 1542.64 Q1329.4 1547.61 1329.4 1556.39 Q1329.4 1565.15 1325.04 1570.14 Q1320.68 1575.11 1313.04 1575.11 Q1305.37 1575.11 1301.01 1570.14 Q1296.68 1565.15 1296.68 1556.39 Q1296.68 1547.61 1301.01 1542.64 Q1305.37 1537.68 1313.04 1537.68 Z" fill="#000000" fill-rule="nonzero" fill-opacity="1"></path><path clip-path="url(#clip690)" d="M1357.15 1524.66 L1357.15 1529.53 L1351.55 1529.53 Q1348.4 1529.53 1347.16 1530.8 Q1345.95 1532.08 1345.95 1535.39 L1345.95 1538.54 L1355.59 1538.54 L1355.59 1543.09 L1345.95 1543.09 L1345.95 1574.19 L1340.06 1574.19 L1340.06 1543.09 L1334.46 1543.09 L1334.46 1538.54 L1340.06 1538.54 L1340.06 1536.05 Q1340.06 1530.1 1342.83 1527.4 Q1345.6 1524.66 1351.61 1524.66 L1357.15 1524.66 Z" fill="#000000" fill-rule="nonzero" fill-opacity="1"></path><path clip-path="url(#clip690)" d="M1388.57 1528.42 L1388.57 1538.54 L1400.63 1538.54 L1400.63 1543.09 L1388.57 1543.09 L1388.57 1562.44 Q1388.57 1566.8 1389.75 1568.04 Q1390.95 1569.28 1394.61 1569.28 L1400.63 1569.28 L1400.63 1574.19 L1394.61 1574.19 Q1387.84 1574.19 1385.26 1571.67 Q1382.68 1569.12 1382.68 1562.44 L1382.68 1543.09 L1378.38 1543.09 L1378.38 1538.54 L1382.68 1538.54 L1382.68 1528.42 L1388.57 1528.42 Z" fill="#000000" fill-rule="nonzero" fill-opacity="1"></path><path clip-path="url(#clip690)" d="M1437.97 1552.67 L1437.97 1574.19 L1432.11 1574.19 L1432.11 1552.86 Q1432.11 1547.8 1430.14 1545.29 Q1428.16 1542.77 1424.22 1542.77 Q1419.47 1542.77 1416.74 1545.79 Q1414 1548.82 1414 1554.04 L1414 1574.19 L1408.11 1574.19 L1408.11 1524.66 L1414 1524.66 L1414 1544.08 Q1416.1 1540.86 1418.93 1539.27 Q1421.8 1537.68 1425.52 1537.68 Q1431.66 1537.68 1434.81 1541.5 Q1437.97 1545.29 1437.97 1552.67 Z" fill="#000000" fill-rule="nonzero" fill-opacity="1"></path><path clip-path="url(#clip690)" d="M1480.14 1554.9 L1480.14 1557.76 L1453.21 1557.76 Q1453.59 1563.81 1456.84 1566.99 Q1460.12 1570.14 1465.94 1570.14 Q1469.32 1570.14 1472.47 1569.32 Q1475.65 1568.49 1478.77 1566.83 L1478.77 1572.37 Q1475.62 1573.71 1472.31 1574.41 Q1469 1575.11 1465.59 1575.11 Q1457.06 1575.11 1452.07 1570.14 Q1447.1 1565.18 1447.1 1556.71 Q1447.1 1547.96 1451.81 1542.83 Q1456.55 1537.68 1464.57 1537.68 Q1471.77 1537.68 1475.94 1542.33 Q1480.14 1546.94 1480.14 1554.9 M1474.28 1553.18 Q1474.22 1548.37 1471.58 1545.51 Q1468.97 1542.64 1464.64 1542.64 Q1459.74 1542.64 1456.78 1545.41 Q1453.85 1548.18 1453.4 1553.21 L1474.28 1553.18 Z" fill="#000000" fill-rule="nonzero" fill-opacity="1"></path><path clip-path="url(#clip690)" d="M1526.67 1556.27 Q1519.57 1556.27 1516.84 1557.89 Q1514.1 1559.51 1514.1 1563.43 Q1514.1 1566.55 1516.14 1568.39 Q1518.21 1570.21 1521.74 1570.21 Q1526.61 1570.21 1529.54 1566.77 Q1532.5 1563.3 1532.5 1557.57 L1532.5 1556.27 L1526.67 1556.27 M1538.35 1553.85 L1538.35 1574.19 L1532.5 1574.19 L1532.5 1568.77 Q1530.49 1572.02 1527.5 1573.58 Q1524.51 1575.11 1520.18 1575.11 Q1514.7 1575.11 1511.46 1572.05 Q1508.24 1568.97 1508.24 1563.81 Q1508.24 1557.79 1512.25 1554.74 Q1516.3 1551.68 1524.28 1551.68 L1532.5 1551.68 L1532.5 1551.11 Q1532.5 1547.07 1529.82 1544.87 Q1527.18 1542.64 1522.37 1542.64 Q1519.32 1542.64 1516.42 1543.38 Q1513.53 1544.11 1510.85 1545.57 L1510.85 1540.16 Q1514.07 1538.92 1517.09 1538.31 Q1520.11 1537.68 1522.98 1537.68 Q1530.71 1537.68 1534.53 1541.69 Q1538.35 1545.7 1538.35 1553.85 Z" fill="#000000" fill-rule="nonzero" fill-opacity="1"></path><path clip-path="url(#clip690)" d="M1550.42 1524.66 L1556.27 1524.66 L1556.27 1574.19 L1550.42 1574.19 L1550.42 1524.66 Z" fill="#000000" fill-rule="nonzero" fill-opacity="1"></path><path clip-path="url(#clip690)" d="M1591.98 1555.95 Q1591.98 1549.58 1589.34 1546.08 Q1586.73 1542.58 1581.99 1542.58 Q1577.28 1542.58 1574.64 1546.08 Q1572.03 1549.58 1572.03 1555.95 Q1572.03 1562.28 1574.64 1565.78 Q1577.28 1569.28 1581.99 1569.28 Q1586.73 1569.28 1589.34 1565.78 Q1591.98 1562.28 1591.98 1555.95 M1597.84 1569.76 Q1597.84 1578.86 1593.8 1583.29 Q1589.76 1587.74 1581.42 1587.74 Q1578.33 1587.74 1575.59 1587.27 Q1572.85 1586.82 1570.28 1585.87 L1570.28 1580.17 Q1572.85 1581.57 1575.37 1582.24 Q1577.88 1582.91 1580.49 1582.91 Q1586.25 1582.91 1589.12 1579.88 Q1591.98 1576.89 1591.98 1570.81 L1591.98 1567.92 Q1590.17 1571.07 1587.34 1572.63 Q1584.5 1574.19 1580.56 1574.19 Q1574 1574.19 1569.99 1569.19 Q1565.98 1564.19 1565.98 1555.95 Q1565.98 1547.67 1569.99 1542.68 Q1574 1537.68 1580.56 1537.68 Q1584.5 1537.68 1587.34 1539.24 Q1590.17 1540.8 1591.98 1543.95 L1591.98 1538.54 L1597.84 1538.54 L1597.84 1569.76 Z" fill="#000000" fill-rule="nonzero" fill-opacity="1"></path><path clip-path="url(#clip690)" d="M1623.72 1542.64 Q1619.01 1542.64 1616.27 1546.34 Q1613.53 1550 1613.53 1556.39 Q1613.53 1562.79 1616.24 1566.48 Q1618.97 1570.14 1623.72 1570.14 Q1628.4 1570.14 1631.13 1566.45 Q1633.87 1562.76 1633.87 1556.39 Q1633.87 1550.06 1631.13 1546.37 Q1628.4 1542.64 1623.72 1542.64 M1623.72 1537.68 Q1631.36 1537.68 1635.72 1542.64 Q1640.08 1547.61 1640.08 1556.39 Q1640.08 1565.15 1635.72 1570.14 Q1631.36 1575.11 1623.72 1575.11 Q1616.05 1575.11 1611.69 1570.14 Q1607.36 1565.15 1607.36 1556.39 Q1607.36 1547.61 1611.69 1542.64 Q1616.05 1537.68 1623.72 1537.68 Z" fill="#000000" fill-rule="nonzero" fill-opacity="1"></path><path clip-path="url(#clip690)" d="M1670.44 1544.01 Q1669.45 1543.44 1668.28 1543.18 Q1667.13 1542.9 1665.73 1542.9 Q1660.77 1542.9 1658.09 1546.14 Q1655.45 1549.36 1655.45 1555.41 L1655.45 1574.19 L1649.56 1574.19 L1649.56 1538.54 L1655.45 1538.54 L1655.45 1544.08 Q1657.3 1540.83 1660.26 1539.27 Q1663.22 1537.68 1667.45 1537.68 Q1668.05 1537.68 1668.79 1537.77 Q1669.52 1537.84 1670.41 1538 L1670.44 1544.01 Z" fill="#000000" fill-rule="nonzero" fill-opacity="1"></path><path clip-path="url(#clip690)" d="M1676.58 1538.54 L1682.44 1538.54 L1682.44 1574.19 L1676.58 1574.19 L1676.58 1538.54 M1676.58 1524.66 L1682.44 1524.66 L1682.44 1532.08 L1676.58 1532.08 L1676.58 1524.66 Z" fill="#000000" fill-rule="nonzero" fill-opacity="1"></path><path clip-path="url(#clip690)" d="M1700.49 1528.42 L1700.49 1538.54 L1712.55 1538.54 L1712.55 1543.09 L1700.49 1543.09 L1700.49 1562.44 Q1700.49 1566.8 1701.66 1568.04 Q1702.87 1569.28 1706.53 1569.28 L1712.55 1569.28 L1712.55 1574.19 L1706.53 1574.19 Q1699.76 1574.19 1697.18 1571.67 Q1694.6 1569.12 1694.6 1562.44 L1694.6 1543.09 L1690.3 1543.09 L1690.3 1538.54 L1694.6 1538.54 L1694.6 1528.42 L1700.49 1528.42 Z" fill="#000000" fill-rule="nonzero" fill-opacity="1"></path><path clip-path="url(#clip690)" d="M1749.88 1552.67 L1749.88 1574.19 L1744.03 1574.19 L1744.03 1552.86 Q1744.03 1547.8 1742.06 1545.29 Q1740.08 1542.77 1736.14 1542.77 Q1731.39 1542.77 1728.66 1545.79 Q1725.92 1548.82 1725.92 1554.04 L1725.92 1574.19 L1720.03 1574.19 L1720.03 1524.66 L1725.92 1524.66 L1725.92 1544.08 Q1728.02 1540.86 1730.85 1539.27 Q1733.72 1537.68 1737.44 1537.68 Q1743.58 1537.68 1746.73 1541.5 Q1749.88 1545.29 1749.88 1552.67 Z" fill="#000000" fill-rule="nonzero" fill-opacity="1"></path><path clip-path="url(#clip690)" d="M1789.32 1545.38 Q1791.52 1541.43 1794.57 1539.56 Q1797.63 1537.68 1801.77 1537.68 Q1807.34 1537.68 1810.36 1541.59 Q1813.38 1545.48 1813.38 1552.67 L1813.38 1574.19 L1807.49 1574.19 L1807.49 1552.86 Q1807.49 1547.74 1805.68 1545.25 Q1803.87 1542.77 1800.14 1542.77 Q1795.59 1542.77 1792.95 1545.79 Q1790.31 1548.82 1790.31 1554.04 L1790.31 1574.19 L1784.42 1574.19 L1784.42 1552.86 Q1784.42 1547.7 1782.6 1545.25 Q1780.79 1542.77 1777 1542.77 Q1772.52 1542.77 1769.87 1545.83 Q1767.23 1548.85 1767.23 1554.04 L1767.23 1574.19 L1761.34 1574.19 L1761.34 1538.54 L1767.23 1538.54 L1767.23 1544.08 Q1769.24 1540.8 1772.04 1539.24 Q1774.84 1537.68 1778.69 1537.68 Q1782.57 1537.68 1785.28 1539.65 Q1788.02 1541.62 1789.32 1545.38 Z" fill="#000000" fill-rule="nonzero" fill-opacity="1"></path><path clip-path="url(#clip690)" d="M1852.21 1554.96 Q1848.65 1554.2 1846.74 1552.13 Q1844.83 1550.09 1844.83 1547.13 Q1844.83 1542.64 1848.46 1540.13 Q1852.05 1537.65 1858.29 1537.65 Q1860.71 1537.65 1863.42 1538.03 Q1866.12 1538.41 1869.24 1539.17 L1869.24 1544.49 Q1866.15 1543.57 1863.61 1543.15 Q1861.03 1542.74 1858.77 1542.74 Q1854.98 1542.74 1852.79 1544.2 Q1850.56 1545.67 1850.56 1547.7 Q1850.56 1549.93 1852.72 1551.36 Q1854.86 1552.76 1858.55 1552.76 L1863.48 1552.76 L1863.48 1557.6 L1858.77 1557.6 Q1854.41 1557.6 1852.12 1559.23 Q1849.64 1561.01 1849.64 1563.81 Q1849.64 1566.67 1852.31 1568.46 Q1855.01 1570.24 1859.82 1570.24 Q1862.78 1570.24 1865.49 1569.67 Q1868.19 1569.06 1870.45 1567.88 L1870.45 1573.33 Q1867.59 1574.22 1864.91 1574.66 Q1862.21 1575.11 1859.66 1575.11 Q1852.09 1575.11 1847.98 1572.21 Q1843.87 1569.32 1843.87 1563.81 Q1843.87 1560.37 1846.07 1558.05 Q1848.27 1555.72 1852.21 1554.96 Z" fill="#000000" fill-rule="nonzero" fill-opacity="1"></path><polyline clip-path="url(#clip692)" style="stroke:#000000; stroke-linecap:round; stroke-linejoin:round; stroke-width:2; stroke-opacity:0.1; fill:none" points="232.389,1167.1 2352.76,1167.1 "></polyline>
<polyline clip-path="url(#clip692)" style="stroke:#000000; stroke-linecap:round; stroke-linejoin:round; stroke-width:2; stroke-opacity:0.1; fill:none" points="232.389,870.866 2352.76,870.866 "></polyline>
<polyline clip-path="url(#clip692)" style="stroke:#000000; stroke-linecap:round; stroke-linejoin:round; stroke-width:2; stroke-opacity:0.1; fill:none" points="232.389,574.634 2352.76,574.634 "></polyline>
<polyline clip-path="url(#clip692)" style="stroke:#000000; stroke-linecap:round; stroke-linejoin:round; stroke-width:2; stroke-opacity:0.1; fill:none" points="232.389,278.401 2352.76,278.401 "></polyline>
<polyline clip-path="url(#clip690)" style="stroke:#000000; stroke-linecap:round; stroke-linejoin:round; stroke-width:4; stroke-opacity:1; fill:none" points="232.389,1410.9 232.389,123.472 "></polyline>
<polyline clip-path="url(#clip690)" style="stroke:#000000; stroke-linecap:round; stroke-linejoin:round; stroke-width:4; stroke-opacity:1; fill:none" points="232.389,1167.1 251.287,1167.1 "></polyline>
<polyline clip-path="url(#clip690)" style="stroke:#000000; stroke-linecap:round; stroke-linejoin:round; stroke-width:4; stroke-opacity:1; fill:none" points="232.389,870.866 251.287,870.866 "></polyline>
<polyline clip-path="url(#clip690)" style="stroke:#000000; stroke-linecap:round; stroke-linejoin:round; stroke-width:4; stroke-opacity:1; fill:none" points="232.389,574.634 251.287,574.634 "></polyline>
<polyline clip-path="url(#clip690)" style="stroke:#000000; stroke-linecap:round; stroke-linejoin:round; stroke-width:4; stroke-opacity:1; fill:none" points="232.389,278.401 251.287,278.401 "></polyline>
<path clip-path="url(#clip690)" d="M144.422 1183.66 L144.422 1179.4 Q146.181 1180.23 147.987 1180.67 Q149.792 1181.11 151.528 1181.11 Q156.158 1181.11 158.589 1178.01 Q161.042 1174.89 161.39 1168.54 Q160.047 1170.54 157.987 1171.6 Q155.927 1172.66 153.427 1172.66 Q148.241 1172.66 145.209 1169.54 Q142.2 1166.39 142.2 1160.95 Q142.2 1155.63 145.348 1152.41 Q148.496 1149.19 153.728 1149.19 Q159.723 1149.19 162.871 1153.8 Q166.042 1158.38 166.042 1167.13 Q166.042 1175.3 162.153 1180.19 Q158.288 1185.05 151.737 1185.05 Q149.978 1185.05 148.172 1184.7 Q146.366 1184.35 144.422 1183.66 M153.728 1169.01 Q156.876 1169.01 158.704 1166.85 Q160.556 1164.7 160.556 1160.95 Q160.556 1157.23 158.704 1155.07 Q156.876 1152.9 153.728 1152.9 Q150.579 1152.9 148.728 1155.07 Q146.899 1157.23 146.899 1160.95 Q146.899 1164.7 148.728 1166.85 Q150.579 1169.01 153.728 1169.01 Z" fill="#000000" fill-rule="nonzero" fill-opacity="1"></path><path clip-path="url(#clip690)" d="M184.445 1152.9 Q180.834 1152.9 179.005 1156.46 Q177.2 1160 177.2 1167.13 Q177.2 1174.24 179.005 1177.8 Q180.834 1181.35 184.445 1181.35 Q188.079 1181.35 189.885 1177.8 Q191.713 1174.24 191.713 1167.13 Q191.713 1160 189.885 1156.46 Q188.079 1152.9 184.445 1152.9 M184.445 1149.19 Q190.255 1149.19 193.311 1153.8 Q196.389 1158.38 196.389 1167.13 Q196.389 1175.86 193.311 1180.47 Q190.255 1185.05 184.445 1185.05 Q178.635 1185.05 175.556 1180.47 Q172.501 1175.86 172.501 1167.13 Q172.501 1158.38 175.556 1153.8 Q178.635 1149.19 184.445 1149.19 Z" fill="#000000" fill-rule="nonzero" fill-opacity="1"></path><path clip-path="url(#clip690)" d="M114.931 884.21 L122.57 884.21 L122.57 857.845 L114.26 859.511 L114.26 855.252 L122.524 853.586 L127.2 853.586 L127.2 884.21 L134.839 884.21 L134.839 888.146 L114.931 888.146 L114.931 884.21 Z" fill="#000000" fill-rule="nonzero" fill-opacity="1"></path><path clip-path="url(#clip690)" d="M154.283 856.664 Q150.672 856.664 148.843 860.229 Q147.038 863.771 147.038 870.9 Q147.038 878.007 148.843 881.572 Q150.672 885.113 154.283 885.113 Q157.917 885.113 159.723 881.572 Q161.552 878.007 161.552 870.9 Q161.552 863.771 159.723 860.229 Q157.917 856.664 154.283 856.664 M154.283 852.961 Q160.093 852.961 163.149 857.567 Q166.227 862.15 166.227 870.9 Q166.227 879.627 163.149 884.234 Q160.093 888.817 154.283 888.817 Q148.473 888.817 145.394 884.234 Q142.339 879.627 142.339 870.9 Q142.339 862.15 145.394 857.567 Q148.473 852.961 154.283 852.961 Z" fill="#000000" fill-rule="nonzero" fill-opacity="1"></path><path clip-path="url(#clip690)" d="M184.445 856.664 Q180.834 856.664 179.005 860.229 Q177.2 863.771 177.2 870.9 Q177.2 878.007 179.005 881.572 Q180.834 885.113 184.445 885.113 Q188.079 885.113 189.885 881.572 Q191.713 878.007 191.713 870.9 Q191.713 863.771 189.885 860.229 Q188.079 856.664 184.445 856.664 M184.445 852.961 Q190.255 852.961 193.311 857.567 Q196.389 862.15 196.389 870.9 Q196.389 879.627 193.311 884.234 Q190.255 888.817 184.445 888.817 Q178.635 888.817 175.556 884.234 Q172.501 879.627 172.501 870.9 Q172.501 862.15 175.556 857.567 Q178.635 852.961 184.445 852.961 Z" fill="#000000" fill-rule="nonzero" fill-opacity="1"></path><path clip-path="url(#clip690)" d="M114.931 587.978 L122.57 587.978 L122.57 561.613 L114.26 563.279 L114.26 559.02 L122.524 557.354 L127.2 557.354 L127.2 587.978 L134.839 587.978 L134.839 591.914 L114.931 591.914 L114.931 587.978 Z" fill="#000000" fill-rule="nonzero" fill-opacity="1"></path><path clip-path="url(#clip690)" d="M145.093 587.978 L152.732 587.978 L152.732 561.613 L144.422 563.279 L144.422 559.02 L152.686 557.354 L157.362 557.354 L157.362 587.978 L165.001 587.978 L165.001 591.914 L145.093 591.914 L145.093 587.978 Z" fill="#000000" fill-rule="nonzero" fill-opacity="1"></path><path clip-path="url(#clip690)" d="M184.445 560.432 Q180.834 560.432 179.005 563.997 Q177.2 567.539 177.2 574.668 Q177.2 581.775 179.005 585.34 Q180.834 588.881 184.445 588.881 Q188.079 588.881 189.885 585.34 Q191.713 581.775 191.713 574.668 Q191.713 567.539 189.885 563.997 Q188.079 560.432 184.445 560.432 M184.445 556.729 Q190.255 556.729 193.311 561.335 Q196.389 565.918 196.389 574.668 Q196.389 583.395 193.311 588.002 Q190.255 592.585 184.445 592.585 Q178.635 592.585 175.556 588.002 Q172.501 583.395 172.501 574.668 Q172.501 565.918 175.556 561.335 Q178.635 556.729 184.445 556.729 Z" fill="#000000" fill-rule="nonzero" fill-opacity="1"></path><path clip-path="url(#clip690)" d="M114.931 291.746 L122.57 291.746 L122.57 265.381 L114.26 267.047 L114.26 262.788 L122.524 261.121 L127.2 261.121 L127.2 291.746 L134.839 291.746 L134.839 295.681 L114.931 295.681 L114.931 291.746 Z" fill="#000000" fill-rule="nonzero" fill-opacity="1"></path><path clip-path="url(#clip690)" d="M148.311 291.746 L164.63 291.746 L164.63 295.681 L142.686 295.681 L142.686 291.746 Q145.348 288.992 149.931 284.362 Q154.538 279.709 155.718 278.367 Q157.964 275.844 158.843 274.108 Q159.746 272.348 159.746 270.658 Q159.746 267.904 157.802 266.168 Q155.88 264.432 152.778 264.432 Q150.579 264.432 148.126 265.196 Q145.695 265.959 142.917 267.51 L142.917 262.788 Q145.741 261.654 148.195 261.075 Q150.649 260.496 152.686 260.496 Q158.056 260.496 161.251 263.182 Q164.445 265.867 164.445 270.358 Q164.445 272.487 163.635 274.408 Q162.848 276.307 160.741 278.899 Q160.163 279.57 157.061 282.788 Q153.959 285.982 148.311 291.746 Z" fill="#000000" fill-rule="nonzero" fill-opacity="1"></path><path clip-path="url(#clip690)" d="M184.445 264.2 Q180.834 264.2 179.005 267.765 Q177.2 271.307 177.2 278.436 Q177.2 285.543 179.005 289.107 Q180.834 292.649 184.445 292.649 Q188.079 292.649 189.885 289.107 Q191.713 285.543 191.713 278.436 Q191.713 271.307 189.885 267.765 Q188.079 264.2 184.445 264.2 M184.445 260.496 Q190.255 260.496 193.311 265.103 Q196.389 269.686 196.389 278.436 Q196.389 287.163 193.311 291.769 Q190.255 296.353 184.445 296.353 Q178.635 296.353 175.556 291.769 Q172.501 287.163 172.501 278.436 Q172.501 269.686 175.556 265.103 Q178.635 260.496 184.445 260.496 Z" fill="#000000" fill-rule="nonzero" fill-opacity="1"></path><path clip-path="url(#clip690)" d="M16.4842 1220.45 L16.4842 1214.03 L64.0042 1214.03 L64.0042 1220.45 L16.4842 1220.45 Z" fill="#000000" fill-rule="nonzero" fill-opacity="1"></path><path clip-path="url(#clip690)" d="M18.2347 1195.69 L28.3562 1195.69 L28.3562 1183.63 L32.9077 1183.63 L32.9077 1195.69 L52.2594 1195.69 Q56.6199 1195.69 57.8613 1194.51 Q59.1026 1193.3 59.1026 1189.64 L59.1026 1183.63 L64.0042 1183.63 L64.0042 1189.64 Q64.0042 1196.42 61.4897 1199 Q58.9434 1201.58 52.2594 1201.58 L32.9077 1201.58 L32.9077 1205.88 L28.3562 1205.88 L28.3562 1201.58 L18.2347 1201.58 L18.2347 1195.69 Z" fill="#000000" fill-rule="nonzero" fill-opacity="1"></path><path clip-path="url(#clip690)" d="M44.7161 1145.43 L47.5806 1145.43 L47.5806 1172.36 Q53.6281 1171.98 56.8109 1168.73 Q59.9619 1165.45 59.9619 1159.63 Q59.9619 1156.26 59.1344 1153.11 Q58.3069 1149.92 56.6518 1146.8 L62.1899 1146.8 Q63.5267 1149.95 64.227 1153.26 Q64.9272 1156.57 64.9272 1159.98 Q64.9272 1168.51 59.9619 1173.51 Q54.9967 1178.47 46.5303 1178.47 Q37.7774 1178.47 32.6531 1173.76 Q27.4968 1169.02 27.4968 1161 Q27.4968 1153.81 32.1438 1149.64 Q36.7589 1145.43 44.7161 1145.43 M42.9973 1151.29 Q38.1912 1151.35 35.3266 1154 Q32.4621 1156.61 32.4621 1160.94 Q32.4621 1165.84 35.2312 1168.8 Q38.0002 1171.73 43.0292 1172.17 L42.9973 1151.29 Z" fill="#000000" fill-rule="nonzero" fill-opacity="1"></path><path clip-path="url(#clip690)" d="M33.8307 1115.17 Q33.2578 1116.15 33.0032 1117.33 Q32.7167 1118.48 32.7167 1119.88 Q32.7167 1124.84 35.9632 1127.52 Q39.1779 1130.16 45.2253 1130.16 L64.0042 1130.16 L64.0042 1136.05 L28.3562 1136.05 L28.3562 1130.16 L33.8944 1130.16 Q30.6479 1128.31 29.0883 1125.35 Q27.4968 1122.39 27.4968 1118.16 Q27.4968 1117.55 27.5923 1116.82 Q27.656 1116.09 27.8151 1115.2 L33.8307 1115.17 Z" fill="#000000" fill-rule="nonzero" fill-opacity="1"></path><path clip-path="url(#clip690)" d="M46.0847 1092.82 Q46.0847 1099.92 47.7079 1102.66 Q49.3312 1105.39 53.2461 1105.39 Q56.3653 1105.39 58.2114 1103.36 Q60.0256 1101.29 60.0256 1097.76 Q60.0256 1092.89 56.5881 1089.96 Q53.1188 1087 47.3897 1087 L46.0847 1087 L46.0847 1092.82 M43.6657 1081.14 L64.0042 1081.14 L64.0042 1087 L58.5933 1087 Q61.8398 1089 63.3994 1091.99 Q64.9272 1094.99 64.9272 1099.32 Q64.9272 1104.79 61.8716 1108.04 Q58.7843 1111.25 53.6281 1111.25 Q47.6125 1111.25 44.5569 1107.24 Q41.5014 1103.2 41.5014 1095.21 L41.5014 1087 L40.9285 1087 Q36.8862 1087 34.6901 1089.67 Q32.4621 1092.31 32.4621 1097.12 Q32.4621 1100.17 33.1941 1103.07 Q33.9262 1105.97 35.3903 1108.64 L29.9795 1108.64 Q28.7381 1105.43 28.1334 1102.4 Q27.4968 1099.38 27.4968 1096.51 Q27.4968 1088.78 31.5072 1084.96 Q35.5176 1081.14 43.6657 1081.14 Z" fill="#000000" fill-rule="nonzero" fill-opacity="1"></path><path clip-path="url(#clip690)" d="M18.2347 1063.29 L28.3562 1063.29 L28.3562 1051.22 L32.9077 1051.22 L32.9077 1063.29 L52.2594 1063.29 Q56.6199 1063.29 57.8613 1062.11 Q59.1026 1060.9 59.1026 1057.24 L59.1026 1051.22 L64.0042 1051.22 L64.0042 1057.24 Q64.0042 1064.02 61.4897 1066.6 Q58.9434 1069.17 52.2594 1069.17 L32.9077 1069.17 L32.9077 1073.47 L28.3562 1073.47 L28.3562 1069.17 L18.2347 1069.17 L18.2347 1063.29 Z" fill="#000000" fill-rule="nonzero" fill-opacity="1"></path><path clip-path="url(#clip690)" d="M28.3562 1043.52 L28.3562 1037.66 L64.0042 1037.66 L64.0042 1043.52 L28.3562 1043.52 M14.479 1043.52 L14.479 1037.66 L21.895 1037.66 L21.895 1043.52 L14.479 1043.52 Z" fill="#000000" fill-rule="nonzero" fill-opacity="1"></path><path clip-path="url(#clip690)" d="M32.4621 1011.6 Q32.4621 1016.31 36.1542 1019.04 Q39.8145 1021.78 46.212 1021.78 Q52.6095 1021.78 56.3017 1019.08 Q59.9619 1016.34 59.9619 1011.6 Q59.9619 1006.92 56.2698 1004.18 Q52.5777 1001.44 46.212 1001.44 Q39.8781 1001.44 36.186 1004.18 Q32.4621 1006.92 32.4621 1011.6 M27.4968 1011.6 Q27.4968 1003.96 32.4621 999.596 Q37.4273 995.236 46.212 995.236 Q54.9649 995.236 59.9619 999.596 Q64.9272 1003.96 64.9272 1011.6 Q64.9272 1019.27 59.9619 1023.63 Q54.9649 1027.96 46.212 1027.96 Q37.4273 1027.96 32.4621 1023.63 Q27.4968 1019.27 27.4968 1011.6 Z" fill="#000000" fill-rule="nonzero" fill-opacity="1"></path><path clip-path="url(#clip690)" d="M42.4881 955.896 L64.0042 955.896 L64.0042 961.752 L42.679 961.752 Q37.6183 961.752 35.1038 963.726 Q32.5894 965.699 32.5894 969.646 Q32.5894 974.388 35.6131 977.125 Q38.6368 979.863 43.8567 979.863 L64.0042 979.863 L64.0042 985.751 L28.3562 985.751 L28.3562 979.863 L33.8944 979.863 Q30.6797 977.762 29.0883 974.929 Q27.4968 972.065 27.4968 968.341 Q27.4968 962.198 31.3163 959.047 Q35.1038 955.896 42.4881 955.896 Z" fill="#000000" fill-rule="nonzero" fill-opacity="1"></path><path clip-path="url(#clip690)" d="M29.4065 921.489 L34.9447 921.489 Q33.6716 923.972 33.035 926.645 Q32.3984 929.319 32.3984 932.184 Q32.3984 936.544 33.7352 938.74 Q35.072 940.905 37.7456 940.905 Q39.7826 940.905 40.9603 939.345 Q42.1061 937.785 43.1565 933.075 L43.6021 931.07 Q44.9389 924.831 47.3897 922.221 Q49.8086 919.579 54.1691 919.579 Q59.1344 919.579 62.0308 923.526 Q64.9272 927.441 64.9272 934.316 Q64.9272 937.181 64.3543 940.3 Q63.8132 943.387 62.6992 946.825 L56.6518 946.825 Q58.3387 943.578 59.198 940.427 Q60.0256 937.276 60.0256 934.189 Q60.0256 930.051 58.6251 927.823 Q57.1929 925.595 54.6147 925.595 Q52.2276 925.595 50.9545 927.218 Q49.6813 928.81 48.5037 934.252 L48.0262 936.289 Q46.8804 941.732 44.5251 944.151 Q42.138 946.57 38.0002 946.57 Q32.9713 946.57 30.2341 943.005 Q27.4968 939.44 27.4968 932.884 Q27.4968 929.637 27.9743 926.773 Q28.4517 923.908 29.4065 921.489 Z" fill="#000000" fill-rule="nonzero" fill-opacity="1"></path><path clip-path="url(#clip690)" d="M49.9359 890.138 L28.3562 890.138 L28.3562 884.282 L49.7131 884.282 Q54.7739 884.282 57.3202 882.308 Q59.8346 880.335 59.8346 876.388 Q59.8346 871.646 56.8109 868.908 Q53.7872 866.139 48.5673 866.139 L28.3562 866.139 L28.3562 860.283 L64.0042 860.283 L64.0042 866.139 L58.5296 866.139 Q61.7762 868.272 63.3676 871.105 Q64.9272 873.905 64.9272 877.629 Q64.9272 883.772 61.1078 886.955 Q57.2883 890.138 49.9359 890.138 M27.4968 875.401 L27.4968 875.401 Z" fill="#000000" fill-rule="nonzero" fill-opacity="1"></path><path clip-path="url(#clip690)" d="M42.4881 818.587 L64.0042 818.587 L64.0042 824.444 L42.679 824.444 Q37.6183 824.444 35.1038 826.417 Q32.5894 828.391 32.5894 832.337 Q32.5894 837.08 35.6131 839.817 Q38.6368 842.554 43.8567 842.554 L64.0042 842.554 L64.0042 848.443 L28.3562 848.443 L28.3562 842.554 L33.8944 842.554 Q30.6797 840.454 29.0883 837.621 Q27.4968 834.756 27.4968 831.032 Q27.4968 824.89 31.3163 821.738 Q35.1038 818.587 42.4881 818.587 Z" fill="#000000" fill-rule="nonzero" fill-opacity="1"></path><path clip-path="url(#clip690)" d="M18.2347 801.114 L28.3562 801.114 L28.3562 789.051 L32.9077 789.051 L32.9077 801.114 L52.2594 801.114 Q56.6199 801.114 57.8613 799.936 Q59.1026 798.726 59.1026 795.066 L59.1026 789.051 L64.0042 789.051 L64.0042 795.066 Q64.0042 801.846 61.4897 804.424 Q58.9434 807.002 52.2594 807.002 L32.9077 807.002 L32.9077 811.299 L28.3562 811.299 L28.3562 807.002 L18.2347 807.002 L18.2347 801.114 Z" fill="#000000" fill-rule="nonzero" fill-opacity="1"></path><path clip-path="url(#clip690)" d="M28.3562 781.348 L28.3562 775.492 L64.0042 775.492 L64.0042 781.348 L28.3562 781.348 M14.479 781.348 L14.479 775.492 L21.895 775.492 L21.895 781.348 L14.479 781.348 Z" fill="#000000" fill-rule="nonzero" fill-opacity="1"></path><path clip-path="url(#clip690)" d="M14.479 763.238 L14.479 757.381 L64.0042 757.381 L64.0042 763.238 L14.479 763.238 Z" fill="#000000" fill-rule="nonzero" fill-opacity="1"></path><path clip-path="url(#clip690)" d="M29.7248 698.753 L35.1993 698.753 Q33.8307 701.236 33.1623 703.75 Q32.4621 706.233 32.4621 708.779 Q32.4621 714.476 36.0905 717.627 Q39.6872 720.778 46.212 720.778 Q52.7369 720.778 56.3653 717.627 Q59.9619 714.476 59.9619 708.779 Q59.9619 706.233 59.2935 703.75 Q58.5933 701.236 57.2247 698.753 L62.6355 698.753 Q63.7814 701.204 64.3543 703.846 Q64.9272 706.456 64.9272 709.416 Q64.9272 717.468 59.8664 722.211 Q54.8057 726.953 46.212 726.953 Q37.491 726.953 32.4939 722.179 Q27.4968 717.373 27.4968 709.034 Q27.4968 706.328 28.0697 703.75 Q28.6108 701.172 29.7248 698.753 Z" fill="#000000" fill-rule="nonzero" fill-opacity="1"></path><path clip-path="url(#clip690)" d="M32.4621 674.754 Q32.4621 679.465 36.1542 682.202 Q39.8145 684.939 46.212 684.939 Q52.6095 684.939 56.3017 682.234 Q59.9619 679.497 59.9619 674.754 Q59.9619 670.076 56.2698 667.338 Q52.5777 664.601 46.212 664.601 Q39.8781 664.601 36.186 667.338 Q32.4621 670.076 32.4621 674.754 M27.4968 674.754 Q27.4968 667.115 32.4621 662.755 Q37.4273 658.394 46.212 658.394 Q54.9649 658.394 59.9619 662.755 Q64.9272 667.115 64.9272 674.754 Q64.9272 682.425 59.9619 686.786 Q54.9649 691.114 46.212 691.114 Q37.4273 691.114 32.4621 686.786 Q27.4968 682.425 27.4968 674.754 Z" fill="#000000" fill-rule="nonzero" fill-opacity="1"></path><path clip-path="url(#clip690)" d="M42.4881 619.054 L64.0042 619.054 L64.0042 624.911 L42.679 624.911 Q37.6183 624.911 35.1038 626.884 Q32.5894 628.858 32.5894 632.804 Q32.5894 637.547 35.6131 640.284 Q38.6368 643.021 43.8567 643.021 L64.0042 643.021 L64.0042 648.91 L28.3562 648.91 L28.3562 643.021 L33.8944 643.021 Q30.6797 640.921 29.0883 638.088 Q27.4968 635.223 27.4968 631.499 Q27.4968 625.356 31.3163 622.205 Q35.1038 619.054 42.4881 619.054 Z" fill="#000000" fill-rule="nonzero" fill-opacity="1"></path><path clip-path="url(#clip690)" d="M28.3562 611.575 L28.3562 605.368 L58.275 594.228 L28.3562 583.088 L28.3562 576.882 L64.0042 590.25 L64.0042 598.207 L28.3562 611.575 Z" fill="#000000" fill-rule="nonzero" fill-opacity="1"></path><path clip-path="url(#clip690)" d="M44.7161 538.305 L47.5806 538.305 L47.5806 565.232 Q53.6281 564.85 56.8109 561.604 Q59.9619 558.326 59.9619 552.501 Q59.9619 549.127 59.1344 545.976 Q58.3069 542.793 56.6518 539.674 L62.1899 539.674 Q63.5267 542.825 64.227 546.135 Q64.9272 549.445 64.9272 552.851 Q64.9272 561.381 59.9619 566.378 Q54.9967 571.343 46.5303 571.343 Q37.7774 571.343 32.6531 566.633 Q27.4968 561.89 27.4968 553.87 Q27.4968 546.676 32.1438 542.507 Q36.7589 538.305 44.7161 538.305 M42.9973 544.162 Q38.1912 544.226 35.3266 546.867 Q32.4621 549.477 32.4621 553.806 Q32.4621 558.707 35.2312 561.668 Q38.0002 564.596 43.0292 565.041 L42.9973 544.162 Z" fill="#000000" fill-rule="nonzero" fill-opacity="1"></path><path clip-path="url(#clip690)" d="M33.8307 508.036 Q33.2578 509.023 33.0032 510.201 Q32.7167 511.347 32.7167 512.747 Q32.7167 517.712 35.9632 520.386 Q39.1779 523.028 45.2253 523.028 L64.0042 523.028 L64.0042 528.916 L28.3562 528.916 L28.3562 523.028 L33.8944 523.028 Q30.6479 521.182 29.0883 518.222 Q27.4968 515.262 27.4968 511.028 Q27.4968 510.424 27.5923 509.692 Q27.656 508.959 27.8151 508.068 L33.8307 508.036 Z" fill="#000000" fill-rule="nonzero" fill-opacity="1"></path><path clip-path="url(#clip690)" d="M45.7664 479.582 Q39.4007 479.582 35.8996 482.224 Q32.3984 484.833 32.3984 489.576 Q32.3984 494.287 35.8996 496.928 Q39.4007 499.538 45.7664 499.538 Q52.1003 499.538 55.6014 496.928 Q59.1026 494.287 59.1026 489.576 Q59.1026 484.833 55.6014 482.224 Q52.1003 479.582 45.7664 479.582 M59.58 473.725 Q68.683 473.725 73.1071 477.768 Q77.5631 481.81 77.5631 490.149 Q77.5631 493.236 77.0857 495.973 Q76.6401 498.711 75.6852 501.289 L69.9879 501.289 Q71.3884 498.711 72.0568 496.196 Q72.7252 493.682 72.7252 491.072 Q72.7252 485.311 69.7015 482.446 Q66.7096 479.582 60.6303 479.582 L57.7339 479.582 Q60.885 481.396 62.4446 484.229 Q64.0042 487.061 64.0042 491.008 Q64.0042 497.565 59.0071 501.575 Q54.01 505.586 45.7664 505.586 Q37.491 505.586 32.4939 501.575 Q27.4968 497.565 27.4968 491.008 Q27.4968 487.061 29.0564 484.229 Q30.616 481.396 33.7671 479.582 L28.3562 479.582 L28.3562 473.725 L59.58 473.725 Z" fill="#000000" fill-rule="nonzero" fill-opacity="1"></path><path clip-path="url(#clip690)" d="M44.7161 431.171 L47.5806 431.171 L47.5806 458.097 Q53.6281 457.716 56.8109 454.469 Q59.9619 451.191 59.9619 445.366 Q59.9619 441.992 59.1344 438.841 Q58.3069 435.658 56.6518 432.539 L62.1899 432.539 Q63.5267 435.69 64.227 439 Q64.9272 442.311 64.9272 445.716 Q64.9272 454.246 59.9619 459.243 Q54.9967 464.209 46.5303 464.209 Q37.7774 464.209 32.6531 459.498 Q27.4968 454.756 27.4968 446.735 Q27.4968 439.541 32.1438 435.372 Q36.7589 431.171 44.7161 431.171 M42.9973 437.027 Q38.1912 437.091 35.3266 439.732 Q32.4621 442.342 32.4621 446.671 Q32.4621 451.573 35.2312 454.533 Q38.0002 457.461 43.0292 457.907 L42.9973 437.027 Z" fill="#000000" fill-rule="nonzero" fill-opacity="1"></path><path clip-path="url(#clip690)" d="M42.4881 391.926 L64.0042 391.926 L64.0042 397.782 L42.679 397.782 Q37.6183 397.782 35.1038 399.756 Q32.5894 401.729 32.5894 405.676 Q32.5894 410.418 35.6131 413.156 Q38.6368 415.893 43.8567 415.893 L64.0042 415.893 L64.0042 421.781 L28.3562 421.781 L28.3562 415.893 L33.8944 415.893 Q30.6797 413.792 29.0883 410.959 Q27.4968 408.095 27.4968 404.371 Q27.4968 398.228 31.3163 395.077 Q35.1038 391.926 42.4881 391.926 Z" fill="#000000" fill-rule="nonzero" fill-opacity="1"></path><path clip-path="url(#clip690)" d="M29.7248 354.591 L35.1993 354.591 Q33.8307 357.074 33.1623 359.588 Q32.4621 362.071 32.4621 364.617 Q32.4621 370.314 36.0905 373.465 Q39.6872 376.616 46.212 376.616 Q52.7369 376.616 56.3653 373.465 Q59.9619 370.314 59.9619 364.617 Q59.9619 362.071 59.2935 359.588 Q58.5933 357.074 57.2247 354.591 L62.6355 354.591 Q63.7814 357.042 64.3543 359.684 Q64.9272 362.294 64.9272 365.254 Q64.9272 373.306 59.8664 378.049 Q54.8057 382.791 46.212 382.791 Q37.491 382.791 32.4939 378.017 Q27.4968 373.211 27.4968 364.872 Q27.4968 362.166 28.0697 359.588 Q28.6108 357.01 29.7248 354.591 Z" fill="#000000" fill-rule="nonzero" fill-opacity="1"></path><path clip-path="url(#clip690)" d="M44.7161 313.914 L47.5806 313.914 L47.5806 340.841 Q53.6281 340.459 56.8109 337.213 Q59.9619 333.934 59.9619 328.11 Q59.9619 324.736 59.1344 321.585 Q58.3069 318.402 56.6518 315.283 L62.1899 315.283 Q63.5267 318.434 64.227 321.744 Q64.9272 325.054 64.9272 328.46 Q64.9272 336.99 59.9619 341.987 Q54.9967 346.952 46.5303 346.952 Q37.7774 346.952 32.6531 342.242 Q27.4968 337.499 27.4968 329.478 Q27.4968 322.285 32.1438 318.116 Q36.7589 313.914 44.7161 313.914 M42.9973 319.771 Q38.1912 319.834 35.3266 322.476 Q32.4621 325.086 32.4621 329.415 Q32.4621 334.316 35.2312 337.276 Q38.0002 340.205 43.0292 340.65 L42.9973 319.771 Z" fill="#000000" fill-rule="nonzero" fill-opacity="1"></path><path clip-path="url(#clip690)" d="M493.309 12.096 L501.492 12.096 L501.492 72.576 L493.309 72.576 L493.309 12.096 Z" fill="#000000" fill-rule="nonzero" fill-opacity="1"></path><path clip-path="url(#clip690)" d="M524.825 14.324 L524.825 27.2059 L540.178 27.2059 L540.178 32.9987 L524.825 32.9987 L524.825 57.6282 Q524.825 63.1779 526.324 64.7578 Q527.863 66.3376 532.522 66.3376 L540.178 66.3376 L540.178 72.576 L532.522 72.576 Q523.893 72.576 520.612 69.3758 Q517.331 66.1351 517.331 57.6282 L517.331 32.9987 L511.862 32.9987 L511.862 27.2059 L517.331 27.2059 L517.331 14.324 L524.825 14.324 Z" fill="#000000" fill-rule="nonzero" fill-opacity="1"></path><path clip-path="url(#clip690)" d="M588.789 48.0275 L588.789 51.6733 L554.518 51.6733 Q555.004 59.3701 559.136 63.421 Q563.309 67.4314 570.722 67.4314 Q575.016 67.4314 579.026 66.3781 Q583.077 65.3249 587.047 63.2184 L587.047 70.267 Q583.036 71.9684 578.824 72.8596 Q574.611 73.7508 570.276 73.7508 Q559.42 73.7508 553.06 67.4314 Q546.74 61.1119 546.74 50.3365 Q546.74 39.1965 552.736 32.6746 Q558.772 26.1121 568.98 26.1121 Q578.135 26.1121 583.442 32.0264 Q588.789 37.9003 588.789 48.0275 M581.335 45.84 Q581.254 39.7232 577.892 36.0774 Q574.57 32.4315 569.061 32.4315 Q562.822 32.4315 559.055 35.9558 Q555.328 39.4801 554.761 45.8805 L581.335 45.84 Z" fill="#000000" fill-rule="nonzero" fill-opacity="1"></path><path clip-path="url(#clip690)" d="M627.313 34.1734 Q626.057 33.4443 624.558 33.1202 Q623.1 32.7556 621.318 32.7556 Q614.998 32.7556 611.595 36.8875 Q608.233 40.9789 608.233 48.6757 L608.233 72.576 L600.739 72.576 L600.739 27.2059 L608.233 27.2059 L608.233 34.2544 Q610.583 30.1225 614.35 28.1376 Q618.117 26.1121 623.505 26.1121 Q624.275 26.1121 625.206 26.2337 Q626.138 26.3147 627.272 26.5172 L627.313 34.1734 Z" fill="#000000" fill-rule="nonzero" fill-opacity="1"></path><path clip-path="url(#clip690)" d="M655.75 49.7694 Q646.717 49.7694 643.233 51.8354 Q639.749 53.9013 639.749 58.8839 Q639.749 62.8538 642.342 65.2034 Q644.975 67.5124 649.471 67.5124 Q655.669 67.5124 659.396 63.1374 Q663.163 58.7219 663.163 51.4303 L663.163 49.7694 L655.75 49.7694 M670.617 46.6907 L670.617 72.576 L663.163 72.576 L663.163 65.6895 Q660.611 69.8214 656.803 71.8063 Q652.996 73.7508 647.486 73.7508 Q640.519 73.7508 636.387 69.8619 Q632.295 65.9325 632.295 59.3701 Q632.295 51.7138 637.4 47.825 Q642.544 43.9361 652.712 43.9361 L663.163 43.9361 L663.163 43.2069 Q663.163 38.0623 659.761 35.2672 Q656.398 32.4315 650.282 32.4315 Q646.393 32.4315 642.706 33.3632 Q639.02 34.295 635.617 36.1584 L635.617 29.2718 Q639.709 27.692 643.557 26.9223 Q647.405 26.1121 651.051 26.1121 Q660.895 26.1121 665.756 31.2163 Q670.617 36.3204 670.617 46.6907 Z" fill="#000000" fill-rule="nonzero" fill-opacity="1"></path><path clip-path="url(#clip690)" d="M693.343 14.324 L693.343 27.2059 L708.696 27.2059 L708.696 32.9987 L693.343 32.9987 L693.343 57.6282 Q693.343 63.1779 694.841 64.7578 Q696.381 66.3376 701.039 66.3376 L708.696 66.3376 L708.696 72.576 L701.039 72.576 Q692.411 72.576 689.13 69.3758 Q685.848 66.1351 685.848 57.6282 L685.848 32.9987 L680.38 32.9987 L680.38 27.2059 L685.848 27.2059 L685.848 14.324 L693.343 14.324 Z" fill="#000000" fill-rule="nonzero" fill-opacity="1"></path><path clip-path="url(#clip690)" d="M718.499 27.2059 L725.952 27.2059 L725.952 72.576 L718.499 72.576 L718.499 27.2059 M718.499 9.54393 L725.952 9.54393 L725.952 18.9825 L718.499 18.9825 L718.499 9.54393 Z" fill="#000000" fill-rule="nonzero" fill-opacity="1"></path><path clip-path="url(#clip690)" d="M759.129 32.4315 Q753.134 32.4315 749.65 37.1306 Q746.166 41.7891 746.166 49.9314 Q746.166 58.0738 749.61 62.7728 Q753.093 67.4314 759.129 67.4314 Q765.084 67.4314 768.568 62.7323 Q772.052 58.0333 772.052 49.9314 Q772.052 41.8701 768.568 37.1711 Q765.084 32.4315 759.129 32.4315 M759.129 26.1121 Q768.851 26.1121 774.401 32.4315 Q779.951 38.7509 779.951 49.9314 Q779.951 61.0714 774.401 67.4314 Q768.851 73.7508 759.129 73.7508 Q749.367 73.7508 743.817 67.4314 Q738.308 61.0714 738.308 49.9314 Q738.308 38.7509 743.817 32.4315 Q749.367 26.1121 759.129 26.1121 Z" fill="#000000" fill-rule="nonzero" fill-opacity="1"></path><path clip-path="url(#clip690)" d="M830.02 45.1919 L830.02 72.576 L822.566 72.576 L822.566 45.4349 Q822.566 38.994 820.055 35.7938 Q817.543 32.5936 812.52 32.5936 Q806.484 32.5936 803.001 36.4419 Q799.517 40.2903 799.517 46.9338 L799.517 72.576 L792.023 72.576 L792.023 27.2059 L799.517 27.2059 L799.517 34.2544 Q802.19 30.163 805.796 28.1376 Q809.442 26.1121 814.181 26.1121 Q821.999 26.1121 826.01 30.9732 Q830.02 35.7938 830.02 45.1919 Z" fill="#000000" fill-rule="nonzero" fill-opacity="1"></path><path clip-path="url(#clip690)" d="M873.81 28.5427 L873.81 35.5912 Q870.651 33.9709 867.248 33.1607 Q863.845 32.3505 860.199 32.3505 Q854.65 32.3505 851.855 34.0519 Q849.1 35.7533 849.1 39.156 Q849.1 41.7486 851.085 43.2475 Q853.07 44.7058 859.065 46.0426 L861.617 46.6097 Q869.557 48.3111 872.879 51.4303 Q876.241 54.509 876.241 60.0587 Q876.241 66.3781 871.218 70.0644 Q866.235 73.7508 857.485 73.7508 Q853.839 73.7508 849.87 73.0216 Q845.94 72.3329 841.565 70.9151 L841.565 63.2184 Q845.697 65.3654 849.708 66.4591 Q853.718 67.5124 857.647 67.5124 Q862.913 67.5124 865.749 65.73 Q868.585 63.9071 868.585 60.6258 Q868.585 57.5877 866.519 55.9673 Q864.493 54.3469 857.566 52.8481 L854.974 52.2405 Q848.047 50.7821 844.968 47.7845 Q841.889 44.7463 841.889 39.4801 Q841.889 33.0797 846.426 29.5959 Q850.963 26.1121 859.308 26.1121 Q863.44 26.1121 867.086 26.7198 Q870.732 27.3274 873.81 28.5427 Z" fill="#000000" fill-rule="nonzero" fill-opacity="1"></path><path clip-path="url(#clip690)" d="M937.45 9.54393 L937.45 15.7418 L930.321 15.7418 Q926.31 15.7418 924.73 17.3622 Q923.191 18.9825 923.191 23.1955 L923.191 27.2059 L935.465 27.2059 L935.465 32.9987 L923.191 32.9987 L923.191 72.576 L915.697 72.576 L915.697 32.9987 L908.567 32.9987 L908.567 27.2059 L915.697 27.2059 L915.697 24.0462 Q915.697 16.471 919.221 13.0277 Q922.745 9.54393 930.402 9.54393 L937.45 9.54393 Z" fill="#000000" fill-rule="nonzero" fill-opacity="1"></path><path clip-path="url(#clip690)" d="M961.269 32.4315 Q955.274 32.4315 951.79 37.1306 Q948.307 41.7891 948.307 49.9314 Q948.307 58.0738 951.75 62.7728 Q955.234 67.4314 961.269 67.4314 Q967.224 67.4314 970.708 62.7323 Q974.192 58.0333 974.192 49.9314 Q974.192 41.8701 970.708 37.1711 Q967.224 32.4315 961.269 32.4315 M961.269 26.1121 Q970.992 26.1121 976.541 32.4315 Q982.091 38.7509 982.091 49.9314 Q982.091 61.0714 976.541 67.4314 Q970.992 73.7508 961.269 73.7508 Q951.507 73.7508 945.957 67.4314 Q940.448 61.0714 940.448 49.9314 Q940.448 38.7509 945.957 32.4315 Q951.507 26.1121 961.269 26.1121 Z" fill="#000000" fill-rule="nonzero" fill-opacity="1"></path><path clip-path="url(#clip690)" d="M1020.74 34.1734 Q1019.48 33.4443 1017.98 33.1202 Q1016.52 32.7556 1014.74 32.7556 Q1008.42 32.7556 1005.02 36.8875 Q1001.66 40.9789 1001.66 48.6757 L1001.66 72.576 L994.163 72.576 L994.163 27.2059 L1001.66 27.2059 L1001.66 34.2544 Q1004.01 30.1225 1007.77 28.1376 Q1011.54 26.1121 1016.93 26.1121 Q1017.7 26.1121 1018.63 26.2337 Q1019.56 26.3147 1020.7 26.5172 L1020.74 34.1734 Z" fill="#000000" fill-rule="nonzero" fill-opacity="1"></path><path clip-path="url(#clip690)" d="M1077.89 9.54393 L1077.89 15.7418 L1070.77 15.7418 Q1066.75 15.7418 1065.18 17.3622 Q1063.64 18.9825 1063.64 23.1955 L1063.64 27.2059 L1075.91 27.2059 L1075.91 32.9987 L1063.64 32.9987 L1063.64 72.576 L1056.14 72.576 L1056.14 32.9987 L1049.01 32.9987 L1049.01 27.2059 L1056.14 27.2059 L1056.14 24.0462 Q1056.14 16.471 1059.67 13.0277 Q1063.19 9.54393 1070.85 9.54393 L1077.89 9.54393 Z" fill="#000000" fill-rule="nonzero" fill-opacity="1"></path><path clip-path="url(#clip690)" d="M1084.13 27.2059 L1091.59 27.2059 L1091.59 72.576 L1084.13 72.576 L1084.13 27.2059 M1084.13 9.54393 L1091.59 9.54393 L1091.59 18.9825 L1084.13 18.9825 L1084.13 9.54393 Z" fill="#000000" fill-rule="nonzero" fill-opacity="1"></path><path clip-path="url(#clip690)" d="M1144.9 27.2059 L1128.49 49.2833 L1145.75 72.576 L1136.96 72.576 L1123.75 54.752 L1110.55 72.576 L1101.75 72.576 L1119.38 48.8377 L1103.25 27.2059 L1112.04 27.2059 L1124.08 43.369 L1136.11 27.2059 L1144.9 27.2059 Z" fill="#000000" fill-rule="nonzero" fill-opacity="1"></path><path clip-path="url(#clip690)" d="M1192.54 48.0275 L1192.54 51.6733 L1158.26 51.6733 Q1158.75 59.3701 1162.88 63.421 Q1167.06 67.4314 1174.47 67.4314 Q1178.76 67.4314 1182.77 66.3781 Q1186.82 65.3249 1190.79 63.2184 L1190.79 70.267 Q1186.78 71.9684 1182.57 72.8596 Q1178.36 73.7508 1174.02 73.7508 Q1163.17 73.7508 1156.81 67.4314 Q1150.49 61.1119 1150.49 50.3365 Q1150.49 39.1965 1156.48 32.6746 Q1162.52 26.1121 1172.73 26.1121 Q1181.88 26.1121 1187.19 32.0264 Q1192.54 37.9003 1192.54 48.0275 M1185.08 45.84 Q1185 39.7232 1181.64 36.0774 Q1178.32 32.4315 1172.81 32.4315 Q1166.57 32.4315 1162.8 35.9558 Q1159.08 39.4801 1158.51 45.8805 L1185.08 45.84 Z" fill="#000000" fill-rule="nonzero" fill-opacity="1"></path><path clip-path="url(#clip690)" d="M1234.62 34.0924 L1234.62 9.54393 L1242.08 9.54393 L1242.08 72.576 L1234.62 72.576 L1234.62 65.7705 Q1232.27 69.8214 1228.67 71.8063 Q1225.1 73.7508 1220.08 73.7508 Q1211.86 73.7508 1206.67 67.1883 Q1201.53 60.6258 1201.53 49.9314 Q1201.53 39.2371 1206.67 32.6746 Q1211.86 26.1121 1220.08 26.1121 Q1225.1 26.1121 1228.67 28.0971 Q1232.27 30.0415 1234.62 34.0924 M1209.23 49.9314 Q1209.23 58.1548 1212.59 62.8538 Q1215.99 67.5124 1221.9 67.5124 Q1227.82 67.5124 1231.22 62.8538 Q1234.62 58.1548 1234.62 49.9314 Q1234.62 41.7081 1231.22 37.0496 Q1227.82 32.3505 1221.9 32.3505 Q1215.99 32.3505 1212.59 37.0496 Q1209.23 41.7081 1209.23 49.9314 Z" fill="#000000" fill-rule="nonzero" fill-opacity="1"></path><path clip-path="url(#clip690)" d="M1253.66 46.5287 L1275.5 46.5287 L1275.5 53.1722 L1253.66 53.1722 L1253.66 46.5287 Z" fill="#000000" fill-rule="nonzero" fill-opacity="1"></path><path clip-path="url(#clip690)" d="M1316.29 28.5427 L1316.29 35.5912 Q1313.13 33.9709 1309.73 33.1607 Q1306.33 32.3505 1302.68 32.3505 Q1297.13 32.3505 1294.33 34.0519 Q1291.58 35.7533 1291.58 39.156 Q1291.58 41.7486 1293.57 43.2475 Q1295.55 44.7058 1301.55 46.0426 L1304.1 46.6097 Q1312.04 48.3111 1315.36 51.4303 Q1318.72 54.509 1318.72 60.0587 Q1318.72 66.3781 1313.7 70.0644 Q1308.72 73.7508 1299.97 73.7508 Q1296.32 73.7508 1292.35 73.0216 Q1288.42 72.3329 1284.05 70.9151 L1284.05 63.2184 Q1288.18 65.3654 1292.19 66.4591 Q1296.2 67.5124 1300.13 67.5124 Q1305.39 67.5124 1308.23 65.73 Q1311.07 63.9071 1311.07 60.6258 Q1311.07 57.5877 1309 55.9673 Q1306.97 54.3469 1300.05 52.8481 L1297.45 52.2405 Q1290.53 50.7821 1287.45 47.7845 Q1284.37 44.7463 1284.37 39.4801 Q1284.37 33.0797 1288.91 29.5959 Q1293.44 26.1121 1301.79 26.1121 Q1305.92 26.1121 1309.57 26.7198 Q1313.21 27.3274 1316.29 28.5427 Z" fill="#000000" fill-rule="nonzero" fill-opacity="1"></path><path clip-path="url(#clip690)" d="M1330.59 27.2059 L1338.04 27.2059 L1338.04 72.576 L1330.59 72.576 L1330.59 27.2059 M1330.59 9.54393 L1338.04 9.54393 L1338.04 18.9825 L1330.59 18.9825 L1330.59 9.54393 Z" fill="#000000" fill-rule="nonzero" fill-opacity="1"></path><path clip-path="url(#clip690)" d="M1350.4 27.2059 L1385.8 27.2059 L1385.8 34.0114 L1357.77 66.6212 L1385.8 66.6212 L1385.8 72.576 L1349.39 72.576 L1349.39 65.7705 L1377.42 33.1607 L1350.4 33.1607 L1350.4 27.2059 Z" fill="#000000" fill-rule="nonzero" fill-opacity="1"></path><path clip-path="url(#clip690)" d="M1435.99 48.0275 L1435.99 51.6733 L1401.72 51.6733 Q1402.21 59.3701 1406.34 63.421 Q1410.51 67.4314 1417.93 67.4314 Q1422.22 67.4314 1426.23 66.3781 Q1430.28 65.3249 1434.25 63.2184 L1434.25 70.267 Q1430.24 71.9684 1426.03 72.8596 Q1421.82 73.7508 1417.48 73.7508 Q1406.63 73.7508 1400.27 67.4314 Q1393.95 61.1119 1393.95 50.3365 Q1393.95 39.1965 1399.94 32.6746 Q1405.98 26.1121 1416.19 26.1121 Q1425.34 26.1121 1430.65 32.0264 Q1435.99 37.9003 1435.99 48.0275 M1428.54 45.84 Q1428.46 39.7232 1425.1 36.0774 Q1421.78 32.4315 1416.27 32.4315 Q1410.03 32.4315 1406.26 35.9558 Q1402.53 39.4801 1401.97 45.8805 L1428.54 45.84 Z" fill="#000000" fill-rule="nonzero" fill-opacity="1"></path><path clip-path="url(#clip690)" d="M1474.92 12.096 L1483.11 12.096 L1483.11 72.576 L1474.92 72.576 L1474.92 12.096 Z" fill="#000000" fill-rule="nonzero" fill-opacity="1"></path><path clip-path="url(#clip690)" d="M1536.78 45.1919 L1536.78 72.576 L1529.33 72.576 L1529.33 45.4349 Q1529.33 38.994 1526.82 35.7938 Q1524.3 32.5936 1519.28 32.5936 Q1513.25 32.5936 1509.76 36.4419 Q1506.28 40.2903 1506.28 46.9338 L1506.28 72.576 L1498.78 72.576 L1498.78 27.2059 L1506.28 27.2059 L1506.28 34.2544 Q1508.95 30.163 1512.56 28.1376 Q1516.2 26.1121 1520.94 26.1121 Q1528.76 26.1121 1532.77 30.9732 Q1536.78 35.7938 1536.78 45.1919 Z" fill="#000000" fill-rule="nonzero" fill-opacity="1"></path><path clip-path="url(#clip690)" d="M1590.46 48.0275 L1590.46 51.6733 L1556.19 51.6733 Q1556.67 59.3701 1560.8 63.421 Q1564.98 67.4314 1572.39 67.4314 Q1576.68 67.4314 1580.69 66.3781 Q1584.74 65.3249 1588.71 63.2184 L1588.71 70.267 Q1584.7 71.9684 1580.49 72.8596 Q1576.28 73.7508 1571.94 73.7508 Q1561.09 73.7508 1554.73 67.4314 Q1548.41 61.1119 1548.41 50.3365 Q1548.41 39.1965 1554.4 32.6746 Q1560.44 26.1121 1570.65 26.1121 Q1579.8 26.1121 1585.11 32.0264 Q1590.46 37.9003 1590.46 48.0275 M1583 45.84 Q1582.92 39.7232 1579.56 36.0774 Q1576.24 32.4315 1570.73 32.4315 Q1564.49 32.4315 1560.72 35.9558 Q1557 39.4801 1556.43 45.8805 L1583 45.84 Z" fill="#000000" fill-rule="nonzero" fill-opacity="1"></path><path clip-path="url(#clip690)" d="M1638.95 27.2059 L1622.54 49.2833 L1639.8 72.576 L1631.01 72.576 L1617.8 54.752 L1604.59 72.576 L1595.8 72.576 L1613.42 48.8377 L1597.3 27.2059 L1606.09 27.2059 L1618.12 43.369 L1630.15 27.2059 L1638.95 27.2059 Z" fill="#000000" fill-rule="nonzero" fill-opacity="1"></path><path clip-path="url(#clip690)" d="M1670.95 49.7694 Q1661.91 49.7694 1658.43 51.8354 Q1654.95 53.9013 1654.95 58.8839 Q1654.95 62.8538 1657.54 65.2034 Q1660.17 67.5124 1664.67 67.5124 Q1670.87 67.5124 1674.59 63.1374 Q1678.36 58.7219 1678.36 51.4303 L1678.36 49.7694 L1670.95 49.7694 M1685.81 46.6907 L1685.81 72.576 L1678.36 72.576 L1678.36 65.6895 Q1675.81 69.8214 1672 71.8063 Q1668.19 73.7508 1662.68 73.7508 Q1655.72 73.7508 1651.58 69.8619 Q1647.49 65.9325 1647.49 59.3701 Q1647.49 51.7138 1652.6 47.825 Q1657.74 43.9361 1667.91 43.9361 L1678.36 43.9361 L1678.36 43.2069 Q1678.36 38.0623 1674.96 35.2672 Q1671.6 32.4315 1665.48 32.4315 Q1661.59 32.4315 1657.9 33.3632 Q1654.22 34.295 1650.81 36.1584 L1650.81 29.2718 Q1654.91 27.692 1658.75 26.9223 Q1662.6 26.1121 1666.25 26.1121 Q1676.09 26.1121 1680.95 31.2163 Q1685.81 36.3204 1685.81 46.6907 Z" fill="#000000" fill-rule="nonzero" fill-opacity="1"></path><path clip-path="url(#clip690)" d="M1733.82 28.9478 L1733.82 35.9153 Q1730.66 34.1734 1727.46 33.3227 Q1724.3 32.4315 1721.06 32.4315 Q1713.81 32.4315 1709.8 37.0496 Q1705.79 41.6271 1705.79 49.9314 Q1705.79 58.2358 1709.8 62.8538 Q1713.81 67.4314 1721.06 67.4314 Q1724.3 67.4314 1727.46 66.5807 Q1730.66 65.6895 1733.82 63.9476 L1733.82 70.8341 Q1730.7 72.2924 1727.34 73.0216 Q1724.01 73.7508 1720.25 73.7508 Q1710 73.7508 1703.96 67.3098 Q1697.93 60.8689 1697.93 49.9314 Q1697.93 38.832 1704 32.472 Q1710.12 26.1121 1720.73 26.1121 Q1724.18 26.1121 1727.46 26.8413 Q1730.74 27.5299 1733.82 28.9478 Z" fill="#000000" fill-rule="nonzero" fill-opacity="1"></path><path clip-path="url(#clip690)" d="M1754.15 14.324 L1754.15 27.2059 L1769.51 27.2059 L1769.51 32.9987 L1754.15 32.9987 L1754.15 57.6282 Q1754.15 63.1779 1755.65 64.7578 Q1757.19 66.3376 1761.85 66.3376 L1769.51 66.3376 L1769.51 72.576 L1761.85 72.576 Q1753.22 72.576 1749.94 69.3758 Q1746.66 66.1351 1746.66 57.6282 L1746.66 32.9987 L1741.19 32.9987 L1741.19 27.2059 L1746.66 27.2059 L1746.66 14.324 L1754.15 14.324 Z" fill="#000000" fill-rule="nonzero" fill-opacity="1"></path><path clip-path="url(#clip690)" d="M1847.24 63.9476 L1847.24 47.7034 L1833.87 47.7034 L1833.87 40.9789 L1855.34 40.9789 L1855.34 66.9452 Q1850.6 70.3075 1844.89 72.0494 Q1839.18 73.7508 1832.7 73.7508 Q1818.52 73.7508 1810.5 65.4869 Q1802.52 57.1826 1802.52 42.3968 Q1802.52 27.5705 1810.5 19.3066 Q1818.52 11.0023 1832.7 11.0023 Q1838.61 11.0023 1843.92 12.4606 Q1849.27 13.9189 1853.76 16.7545 L1853.76 25.464 Q1849.23 21.6156 1844.12 19.6712 Q1839.02 17.7268 1833.39 17.7268 Q1822.29 17.7268 1816.7 23.9246 Q1811.15 30.1225 1811.15 42.3968 Q1811.15 54.6305 1816.7 60.8284 Q1822.29 67.0263 1833.39 67.0263 Q1837.72 67.0263 1841.13 66.2971 Q1844.53 65.5274 1847.24 63.9476 Z" fill="#000000" fill-rule="nonzero" fill-opacity="1"></path><path clip-path="url(#clip690)" d="M1870.29 12.096 L1882.49 12.096 L1897.92 53.2532 L1913.43 12.096 L1925.63 12.096 L1925.63 72.576 L1917.65 72.576 L1917.65 19.4686 L1902.05 60.9499 L1893.83 60.9499 L1878.23 19.4686 L1878.23 72.576 L1870.29 72.576 L1870.29 12.096 Z" fill="#000000" fill-rule="nonzero" fill-opacity="1"></path><path clip-path="url(#clip690)" d="M1970.55 44.2197 Q1973.19 45.1109 1975.66 48.0275 Q1978.17 50.9442 1980.68 56.0483 L1988.98 72.576 L1980.19 72.576 L1972.46 57.061 Q1969.46 50.9847 1966.62 48.9997 Q1963.83 47.0148 1958.97 47.0148 L1950.05 47.0148 L1950.05 72.576 L1941.87 72.576 L1941.87 12.096 L1960.34 12.096 Q1970.71 12.096 1975.82 16.4305 Q1980.92 20.7649 1980.92 29.5149 Q1980.92 35.2267 1978.25 38.994 Q1975.62 42.7613 1970.55 44.2197 M1950.05 18.8205 L1950.05 40.2903 L1960.34 40.2903 Q1966.26 40.2903 1969.26 37.5762 Q1972.29 34.8216 1972.29 29.5149 Q1972.29 24.2082 1969.26 21.5346 Q1966.26 18.8205 1960.34 18.8205 L1950.05 18.8205 Z" fill="#000000" fill-rule="nonzero" fill-opacity="1"></path><path clip-path="url(#clip690)" d="M1999.52 12.096 L2037.76 12.096 L2037.76 18.9825 L2007.7 18.9825 L2007.7 36.8875 L2036.5 36.8875 L2036.5 43.7741 L2007.7 43.7741 L2007.7 65.6895 L2038.49 65.6895 L2038.49 72.576 L1999.52 72.576 L1999.52 12.096 Z" fill="#000000" fill-rule="nonzero" fill-opacity="1"></path><path clip-path="url(#clip690)" d="M2088.19 14.0809 L2088.19 22.0612 Q2083.53 19.8332 2079.4 18.7395 Q2075.27 17.6457 2071.42 17.6457 Q2064.74 17.6457 2061.09 20.2383 Q2057.48 22.8309 2057.48 27.611 Q2057.48 31.6214 2059.87 33.6873 Q2062.31 35.7128 2069.03 36.9686 L2073.97 37.9813 Q2083.13 39.7232 2087.46 44.1387 Q2091.84 48.5136 2091.84 55.8863 Q2091.84 64.6767 2085.92 69.2137 Q2080.05 73.7508 2068.67 73.7508 Q2064.37 73.7508 2059.51 72.7785 Q2054.69 71.8063 2049.5 69.9024 L2049.5 61.4765 Q2054.49 64.2716 2059.27 65.6895 Q2064.05 67.1073 2068.67 67.1073 Q2075.67 67.1073 2079.48 64.3527 Q2083.29 61.598 2083.29 56.4939 Q2083.29 52.0379 2080.53 49.5264 Q2077.82 47.0148 2071.58 45.759 L2066.6 44.7868 Q2057.44 42.9639 2053.35 39.075 Q2049.26 35.1862 2049.26 28.2591 Q2049.26 20.2383 2054.89 15.6203 Q2060.56 11.0023 2070.49 11.0023 Q2074.74 11.0023 2079.16 11.7719 Q2083.57 12.5416 2088.19 14.0809 Z" fill="#000000" fill-rule="nonzero" fill-opacity="1"></path><circle clip-path="url(#clip692)" cx="2292.75" cy="1374.46" r="14.4" fill="#009af9" fill-rule="evenodd" fill-opacity="1" stroke="#000000" stroke-opacity="1" stroke-width="3.2"></circle>
<circle clip-path="url(#clip692)" cx="1959.35" cy="1196.72" r="14.4" fill="#009af9" fill-rule="evenodd" fill-opacity="1" stroke="#000000" stroke-opacity="1" stroke-width="3.2"></circle>
<circle clip-path="url(#clip692)" cx="1625.96" cy="930.112" r="14.4" fill="#009af9" fill-rule="evenodd" fill-opacity="1" stroke="#000000" stroke-opacity="1" stroke-width="3.2"></circle>
<circle clip-path="url(#clip692)" cx="1292.57" cy="693.126" r="14.4" fill="#009af9" fill-rule="evenodd" fill-opacity="1" stroke="#000000" stroke-opacity="1" stroke-width="3.2"></circle>
<circle clip-path="url(#clip692)" cx="959.182" cy="485.764" r="14.4" fill="#009af9" fill-rule="evenodd" fill-opacity="1" stroke="#000000" stroke-opacity="1" stroke-width="3.2"></circle>
<circle clip-path="url(#clip692)" cx="625.791" cy="337.648" r="14.4" fill="#009af9" fill-rule="evenodd" fill-opacity="1" stroke="#000000" stroke-opacity="1" stroke-width="3.2"></circle>
<circle clip-path="url(#clip692)" cx="292.4" cy="159.909" r="14.4" fill="#009af9" fill-rule="evenodd" fill-opacity="1" stroke="#000000" stroke-opacity="1" stroke-width="3.2"></circle>
</svg>