<svg xmlns="http://www.w3.org/2000/svg" xmlns:xlink="http://www.w3.org/1999/xlink" width="600" height="400" viewBox="0 0 2400 1600">
<defs>
  <clipPath id="clip600">
    <rect x="0" y="0" width="2400" height="1600"></rect>
  </clipPath>
</defs>
<path clip-path="url(#clip600)" d="M0 1600 L2400 1600 L2400 0 L0 0  Z" fill="#ffffff" fill-rule="evenodd" fill-opacity="1"></path>
<defs>
  <clipPath id="clip601">
    <rect x="480" y="0" width="1681" height="1600"></rect>
  </clipPath>
</defs>
<path clip-path="url(#clip600)" d="M301.874 1410.9 L2352.76 1410.9 L2352.76 123.472 L301.874 123.472  Z" fill="#ffffff" fill-rule="evenodd" fill-opacity="1"></path>
<defs>
  <clipPath id="clip602">
    <rect x="301" y="123" width="2052" height="1288"></rect>
  </clipPath>
</defs>
<polyline clip-path="url(#clip602)" style="stroke:#000000; stroke-linecap:round; stroke-linejoin:round; stroke-width:2; stroke-opacity:0.1; fill:none" points="2294.71,1410.9 2294.71,123.472 "></polyline>
<polyline clip-path="url(#clip602)" style="stroke:#000000; stroke-linecap:round; stroke-linejoin:round; stroke-width:2; stroke-opacity:0.1; fill:none" points="1972.25,1410.9 1972.25,123.472 "></polyline>
<polyline clip-path="url(#clip602)" style="stroke:#000000; stroke-linecap:round; stroke-linejoin:round; stroke-width:2; stroke-opacity:0.1; fill:none" points="1649.78,1410.9 1649.78,123.472 "></polyline>
<polyline clip-path="url(#clip602)" style="stroke:#000000; stroke-linecap:round; stroke-linejoin:round; stroke-width:2; stroke-opacity:0.1; fill:none" points="1327.31,1410.9 1327.31,123.472 "></polyline>
<polyline clip-path="url(#clip602)" style="stroke:#000000; stroke-linecap:round; stroke-linejoin:round; stroke-width:2; stroke-opacity:0.1; fill:none" points="1004.85,1410.9 1004.85,123.472 "></polyline>
<polyline clip-path="url(#clip602)" style="stroke:#000000; stroke-linecap:round; stroke-linejoin:round; stroke-width:2; stroke-opacity:0.1; fill:none" points="682.384,1410.9 682.384,123.472 "></polyline>
<polyline clip-path="url(#clip602)" style="stroke:#000000; stroke-linecap:round; stroke-linejoin:round; stroke-width:2; stroke-opacity:0.1; fill:none" points="359.918,1410.9 359.918,123.472 "></polyline>
<polyline clip-path="url(#clip600)" style="stroke:#000000; stroke-linecap:round; stroke-linejoin:round; stroke-width:4; stroke-opacity:1; fill:none" points="301.874,1410.9 2352.76,1410.9 "></polyline>
<polyline clip-path="url(#clip600)" style="stroke:#000000; stroke-linecap:round; stroke-linejoin:round; stroke-width:4; stroke-opacity:1; fill:none" points="2294.71,1410.9 2294.71,1392 "></polyline>
<polyline clip-path="url(#clip600)" style="stroke:#000000; stroke-linecap:round; stroke-linejoin:round; stroke-width:4; stroke-opacity:1; fill:none" points="1972.25,1410.9 1972.25,1392 "></polyline>
<polyline clip-path="url(#clip600)" style="stroke:#000000; stroke-linecap:round; stroke-linejoin:round; stroke-width:4; stroke-opacity:1; fill:none" points="1649.78,1410.9 1649.78,1392 "></polyline>
<polyline clip-path="url(#clip600)" style="stroke:#000000; stroke-linecap:round; stroke-linejoin:round; stroke-width:4; stroke-opacity:1; fill:none" points="1327.31,1410.9 1327.31,1392 "></polyline>
<polyline clip-path="url(#clip600)" style="stroke:#000000; stroke-linecap:round; stroke-linejoin:round; stroke-width:4; stroke-opacity:1; fill:none" points="1004.85,1410.9 1004.85,1392 "></polyline>
<polyline clip-path="url(#clip600)" style="stroke:#000000; stroke-linecap:round; stroke-linejoin:round; stroke-width:4; stroke-opacity:1; fill:none" points="682.384,1410.9 682.384,1392 "></polyline>
<polyline clip-path="url(#clip600)" style="stroke:#000000; stroke-linecap:round; stroke-linejoin:round; stroke-width:4; stroke-opacity:1; fill:none" points="359.918,1410.9 359.918,1392 "></polyline>
<path clip-path="url(#clip600)" d="M2244.98 1485.02 L2252.62 1485.02 L2252.62 1458.66 L2244.31 1460.32 L2244.31 1456.06 L2252.57 1454.4 L2257.25 1454.4 L2257.25 1485.02 L2264.89 1485.02 L2264.89 1488.96 L2244.98 1488.96 L2244.98 1485.02 Z" fill="#000000" fill-rule="nonzero" fill-opacity="1"></path><path clip-path="url(#clip600)" d="M2284.33 1457.48 Q2280.72 1457.48 2278.89 1461.04 Q2277.08 1464.58 2277.08 1471.71 Q2277.08 1478.82 2278.89 1482.38 Q2280.72 1485.92 2284.33 1485.92 Q2287.96 1485.92 2289.77 1482.38 Q2291.6 1478.82 2291.6 1471.71 Q2291.6 1464.58 2289.77 1461.04 Q2287.96 1457.48 2284.33 1457.48 M2284.33 1453.77 Q2290.14 1453.77 2293.2 1458.38 Q2296.27 1462.96 2296.27 1471.71 Q2296.27 1480.44 2293.2 1485.04 Q2290.14 1489.63 2284.33 1489.63 Q2278.52 1489.63 2275.44 1485.04 Q2272.39 1480.44 2272.39 1471.71 Q2272.39 1462.96 2275.44 1458.38 Q2278.52 1453.77 2284.33 1453.77 Z" fill="#000000" fill-rule="nonzero" fill-opacity="1"></path><path clip-path="url(#clip600)" d="M2296.27 1447.87 L2320.39 1447.87 L2320.39 1451.07 L2296.27 1451.07 L2296.27 1447.87 Z" fill="#000000" fill-rule="nonzero" fill-opacity="1"></path><path clip-path="url(#clip600)" d="M2331.86 1458.35 L2345.12 1458.35 L2345.12 1461.55 L2327.29 1461.55 L2327.29 1458.35 Q2329.45 1456.11 2333.17 1452.35 Q2336.92 1448.57 2337.88 1447.48 Q2339.7 1445.43 2340.42 1444.02 Q2341.15 1442.59 2341.15 1441.22 Q2341.15 1438.98 2339.57 1437.57 Q2338.01 1436.16 2335.49 1436.16 Q2333.7 1436.16 2331.71 1436.78 Q2329.73 1437.4 2327.48 1438.66 L2327.48 1434.82 Q2329.77 1433.9 2331.76 1433.43 Q2333.76 1432.96 2335.41 1432.96 Q2339.78 1432.96 2342.37 1435.14 Q2344.97 1437.32 2344.97 1440.97 Q2344.97 1442.7 2344.31 1444.26 Q2343.67 1445.8 2341.96 1447.91 Q2341.49 1448.46 2338.97 1451.07 Q2336.45 1453.67 2331.86 1458.35 Z" fill="#000000" fill-rule="nonzero" fill-opacity="1"></path><path clip-path="url(#clip600)" d="M1922.13 1485.02 L1929.77 1485.02 L1929.77 1458.66 L1921.46 1460.32 L1921.46 1456.06 L1929.72 1454.4 L1934.4 1454.4 L1934.4 1485.02 L1942.03 1485.02 L1942.03 1488.96 L1922.13 1488.96 L1922.13 1485.02 Z" fill="#000000" fill-rule="nonzero" fill-opacity="1"></path><path clip-path="url(#clip600)" d="M1961.48 1457.48 Q1957.87 1457.48 1956.04 1461.04 Q1954.23 1464.58 1954.23 1471.71 Q1954.23 1478.82 1956.04 1482.38 Q1957.87 1485.92 1961.48 1485.92 Q1965.11 1485.92 1966.92 1482.38 Q1968.75 1478.82 1968.75 1471.71 Q1968.75 1464.58 1966.92 1461.04 Q1965.11 1457.48 1961.48 1457.48 M1961.48 1453.77 Q1967.29 1453.77 1970.34 1458.38 Q1973.42 1462.96 1973.42 1471.71 Q1973.42 1480.44 1970.34 1485.04 Q1967.29 1489.63 1961.48 1489.63 Q1955.67 1489.63 1952.59 1485.04 Q1949.53 1480.44 1949.53 1471.71 Q1949.53 1462.96 1952.59 1458.38 Q1955.67 1453.77 1961.48 1453.77 Z" fill="#000000" fill-rule="nonzero" fill-opacity="1"></path><path clip-path="url(#clip600)" d="M1973.42 1447.87 L1997.53 1447.87 L1997.53 1451.07 L1973.42 1451.07 L1973.42 1447.87 Z" fill="#000000" fill-rule="nonzero" fill-opacity="1"></path><path clip-path="url(#clip600)" d="M2017.24 1446.41 Q2019.97 1446.99 2021.5 1448.83 Q2023.04 1450.68 2023.04 1453.38 Q2023.04 1457.54 2020.18 1459.82 Q2017.32 1462.09 2012.05 1462.09 Q2010.29 1462.09 2008.41 1461.73 Q2006.54 1461.4 2004.55 1460.7 L2004.55 1457.03 Q2006.13 1457.95 2008.01 1458.42 Q2009.89 1458.89 2011.94 1458.89 Q2015.51 1458.89 2017.38 1457.48 Q2019.26 1456.07 2019.26 1453.38 Q2019.26 1450.9 2017.51 1449.51 Q2015.78 1448.1 2012.67 1448.1 L2009.4 1448.1 L2009.4 1444.98 L2012.82 1444.98 Q2015.63 1444.98 2017.11 1443.87 Q2018.6 1442.74 2018.6 1440.63 Q2018.6 1438.47 2017.06 1437.32 Q2015.53 1436.16 2012.67 1436.16 Q2011.11 1436.16 2009.33 1436.49 Q2007.54 1436.83 2005.4 1437.55 L2005.4 1434.16 Q2007.56 1433.56 2009.44 1433.26 Q2011.34 1432.96 2013.01 1432.96 Q2017.34 1432.96 2019.86 1434.93 Q2022.38 1436.89 2022.38 1440.24 Q2022.38 1442.57 2021.04 1444.19 Q2019.71 1445.79 2017.24 1446.41 Z" fill="#000000" fill-rule="nonzero" fill-opacity="1"></path><path clip-path="url(#clip600)" d="M1599.2 1485.02 L1606.84 1485.02 L1606.84 1458.66 L1598.53 1460.32 L1598.53 1456.06 L1606.79 1454.4 L1611.47 1454.4 L1611.47 1485.02 L1619.11 1485.02 L1619.11 1488.96 L1599.2 1488.96 L1599.2 1485.02 Z" fill="#000000" fill-rule="nonzero" fill-opacity="1"></path><path clip-path="url(#clip600)" d="M1638.55 1457.48 Q1634.94 1457.48 1633.11 1461.04 Q1631.31 1464.58 1631.31 1471.71 Q1631.31 1478.82 1633.11 1482.38 Q1634.94 1485.92 1638.55 1485.92 Q1642.19 1485.92 1643.99 1482.38 Q1645.82 1478.82 1645.82 1471.71 Q1645.82 1464.58 1643.99 1461.04 Q1642.19 1457.48 1638.55 1457.48 M1638.55 1453.77 Q1644.36 1453.77 1647.42 1458.38 Q1650.5 1462.96 1650.5 1471.71 Q1650.5 1480.44 1647.42 1485.04 Q1644.36 1489.63 1638.55 1489.63 Q1632.74 1489.63 1629.66 1485.04 Q1626.61 1480.44 1626.61 1471.71 Q1626.61 1462.96 1629.66 1458.38 Q1632.74 1453.77 1638.55 1453.77 Z" fill="#000000" fill-rule="nonzero" fill-opacity="1"></path><path clip-path="url(#clip600)" d="M1650.5 1447.87 L1674.61 1447.87 L1674.61 1451.07 L1650.5 1451.07 L1650.5 1447.87 Z" fill="#000000" fill-rule="nonzero" fill-opacity="1"></path><path clip-path="url(#clip600)" d="M1693.25 1436.78 L1683.65 1451.77 L1693.25 1451.77 L1693.25 1436.78 M1692.25 1433.47 L1697.03 1433.47 L1697.03 1451.77 L1701.03 1451.77 L1701.03 1454.93 L1697.03 1454.93 L1697.03 1461.55 L1693.25 1461.55 L1693.25 1454.93 L1680.57 1454.93 L1680.57 1451.26 L1692.25 1433.47 Z" fill="#000000" fill-rule="nonzero" fill-opacity="1"></path><path clip-path="url(#clip600)" d="M1277.34 1485.02 L1284.98 1485.02 L1284.98 1458.66 L1276.66 1460.32 L1276.66 1456.06 L1284.93 1454.4 L1289.6 1454.4 L1289.6 1485.02 L1297.24 1485.02 L1297.24 1488.96 L1277.34 1488.96 L1277.34 1485.02 Z" fill="#000000" fill-rule="nonzero" fill-opacity="1"></path><path clip-path="url(#clip600)" d="M1316.69 1457.48 Q1313.08 1457.48 1311.25 1461.04 Q1309.44 1464.58 1309.44 1471.71 Q1309.44 1478.82 1311.25 1482.38 Q1313.08 1485.92 1316.69 1485.92 Q1320.32 1485.92 1322.13 1482.38 Q1323.96 1478.82 1323.96 1471.71 Q1323.96 1464.58 1322.13 1461.04 Q1320.32 1457.48 1316.69 1457.48 M1316.69 1453.77 Q1322.5 1453.77 1325.55 1458.38 Q1328.63 1462.96 1328.63 1471.71 Q1328.63 1480.44 1325.55 1485.04 Q1322.5 1489.63 1316.69 1489.63 Q1310.88 1489.63 1307.8 1485.04 Q1304.74 1480.44 1304.74 1471.71 Q1304.74 1462.96 1307.8 1458.38 Q1310.88 1453.77 1316.69 1453.77 Z" fill="#000000" fill-rule="nonzero" fill-opacity="1"></path><path clip-path="url(#clip600)" d="M1328.63 1447.87 L1352.74 1447.87 L1352.74 1451.07 L1328.63 1451.07 L1328.63 1447.87 Z" fill="#000000" fill-rule="nonzero" fill-opacity="1"></path><path clip-path="url(#clip600)" d="M1360.98 1433.47 L1375.9 1433.47 L1375.9 1436.66 L1364.46 1436.66 L1364.46 1443.55 Q1365.29 1443.27 1366.12 1443.13 Q1366.94 1442.98 1367.77 1442.98 Q1372.47 1442.98 1375.22 1445.56 Q1377.96 1448.14 1377.96 1452.54 Q1377.96 1457.07 1375.14 1459.59 Q1372.32 1462.09 1367.19 1462.09 Q1365.42 1462.09 1363.58 1461.79 Q1361.75 1461.49 1359.8 1460.89 L1359.8 1457.07 Q1361.49 1457.99 1363.29 1458.44 Q1365.1 1458.89 1367.11 1458.89 Q1370.37 1458.89 1372.27 1457.18 Q1374.17 1455.47 1374.17 1452.54 Q1374.17 1449.6 1372.27 1447.89 Q1370.37 1446.18 1367.11 1446.18 Q1365.59 1446.18 1364.07 1446.52 Q1362.56 1446.86 1360.98 1447.57 L1360.98 1433.47 Z" fill="#000000" fill-rule="nonzero" fill-opacity="1"></path><path clip-path="url(#clip600)" d="M954.4 1485.02 L962.039 1485.02 L962.039 1458.66 L953.729 1460.32 L953.729 1456.06 L961.993 1454.4 L966.669 1454.4 L966.669 1485.02 L974.308 1485.02 L974.308 1488.96 L954.4 1488.96 L954.4 1485.02 Z" fill="#000000" fill-rule="nonzero" fill-opacity="1"></path><path clip-path="url(#clip600)" d="M993.752 1457.48 Q990.141 1457.48 988.312 1461.04 Q986.507 1464.58 986.507 1471.71 Q986.507 1478.82 988.312 1482.38 Q990.141 1485.92 993.752 1485.92 Q997.386 1485.92 999.192 1482.38 Q1001.02 1478.82 1001.02 1471.71 Q1001.02 1464.58 999.192 1461.04 Q997.386 1457.48 993.752 1457.48 M993.752 1453.77 Q999.562 1453.77 1002.62 1458.38 Q1005.7 1462.96 1005.7 1471.71 Q1005.7 1480.44 1002.62 1485.04 Q999.562 1489.63 993.752 1489.63 Q987.942 1489.63 984.863 1485.04 Q981.808 1480.44 981.808 1471.71 Q981.808 1462.96 984.863 1458.38 Q987.942 1453.77 993.752 1453.77 Z" fill="#000000" fill-rule="nonzero" fill-opacity="1"></path><path clip-path="url(#clip600)" d="M1005.7 1447.87 L1029.81 1447.87 L1029.81 1451.07 L1005.7 1451.07 L1005.7 1447.87 Z" fill="#000000" fill-rule="nonzero" fill-opacity="1"></path><path clip-path="url(#clip600)" d="M1046.6 1445.99 Q1044.05 1445.99 1042.54 1447.74 Q1041.05 1449.49 1041.05 1452.54 Q1041.05 1455.57 1042.54 1457.33 Q1044.05 1459.08 1046.6 1459.08 Q1049.16 1459.08 1050.65 1457.33 Q1052.15 1455.57 1052.15 1452.54 Q1052.15 1449.49 1050.65 1447.74 Q1049.16 1445.99 1046.6 1445.99 M1054.15 1434.09 L1054.15 1437.55 Q1052.72 1436.87 1051.25 1436.51 Q1049.8 1436.16 1048.37 1436.16 Q1044.61 1436.16 1042.62 1438.69 Q1040.64 1441.23 1040.36 1446.37 Q1041.47 1444.73 1043.14 1443.87 Q1044.82 1442.98 1046.83 1442.98 Q1051.06 1442.98 1053.51 1445.56 Q1055.97 1448.12 1055.97 1452.54 Q1055.97 1456.86 1053.41 1459.48 Q1050.85 1462.09 1046.6 1462.09 Q1041.73 1462.09 1039.16 1458.37 Q1036.58 1454.62 1036.58 1447.53 Q1036.58 1440.88 1039.74 1436.93 Q1042.9 1432.96 1048.22 1432.96 Q1049.65 1432.96 1051.1 1433.24 Q1052.57 1433.52 1054.15 1434.09 Z" fill="#000000" fill-rule="nonzero" fill-opacity="1"></path><path clip-path="url(#clip600)" d="M632.367 1485.02 L640.006 1485.02 L640.006 1458.66 L631.696 1460.32 L631.696 1456.06 L639.96 1454.4 L644.636 1454.4 L644.636 1485.02 L652.274 1485.02 L652.274 1488.96 L632.367 1488.96 L632.367 1485.02 Z" fill="#000000" fill-rule="nonzero" fill-opacity="1"></path><path clip-path="url(#clip600)" d="M671.719 1457.48 Q668.108 1457.48 666.279 1461.04 Q664.473 1464.58 664.473 1471.71 Q664.473 1478.82 666.279 1482.38 Q668.108 1485.92 671.719 1485.92 Q675.353 1485.92 677.159 1482.38 Q678.987 1478.82 678.987 1471.71 Q678.987 1464.58 677.159 1461.04 Q675.353 1457.48 671.719 1457.48 M671.719 1453.77 Q677.529 1453.77 680.584 1458.38 Q683.663 1462.96 683.663 1471.71 Q683.663 1480.44 680.584 1485.04 Q677.529 1489.63 671.719 1489.63 Q665.909 1489.63 662.83 1485.04 Q659.774 1480.44 659.774 1471.71 Q659.774 1462.96 662.83 1458.38 Q665.909 1453.77 671.719 1453.77 Z" fill="#000000" fill-rule="nonzero" fill-opacity="1"></path><path clip-path="url(#clip600)" d="M683.663 1447.87 L707.775 1447.87 L707.775 1451.07 L683.663 1451.07 L683.663 1447.87 Z" fill="#000000" fill-rule="nonzero" fill-opacity="1"></path><path clip-path="url(#clip600)" d="M715.016 1433.47 L733.071 1433.47 L733.071 1435.08 L722.877 1461.55 L718.909 1461.55 L728.501 1436.66 L715.016 1436.66 L715.016 1433.47 Z" fill="#000000" fill-rule="nonzero" fill-opacity="1"></path><path clip-path="url(#clip600)" d="M309.572 1485.02 L317.211 1485.02 L317.211 1458.66 L308.901 1460.32 L308.901 1456.06 L317.165 1454.4 L321.841 1454.4 L321.841 1485.02 L329.48 1485.02 L329.48 1488.96 L309.572 1488.96 L309.572 1485.02 Z" fill="#000000" fill-rule="nonzero" fill-opacity="1"></path><path clip-path="url(#clip600)" d="M348.924 1457.48 Q345.313 1457.48 343.484 1461.04 Q341.679 1464.58 341.679 1471.71 Q341.679 1478.82 343.484 1482.38 Q345.313 1485.92 348.924 1485.92 Q352.558 1485.92 354.364 1482.38 Q356.192 1478.82 356.192 1471.71 Q356.192 1464.58 354.364 1461.04 Q352.558 1457.48 348.924 1457.48 M348.924 1453.77 Q354.734 1453.77 357.79 1458.38 Q360.868 1462.96 360.868 1471.71 Q360.868 1480.44 357.79 1485.04 Q354.734 1489.63 348.924 1489.63 Q343.114 1489.63 340.035 1485.04 Q336.98 1480.44 336.98 1471.71 Q336.98 1462.96 340.035 1458.38 Q343.114 1453.77 348.924 1453.77 Z" fill="#000000" fill-rule="nonzero" fill-opacity="1"></path><path clip-path="url(#clip600)" d="M360.868 1447.87 L384.98 1447.87 L384.98 1451.07 L360.868 1451.07 L360.868 1447.87 Z" fill="#000000" fill-rule="nonzero" fill-opacity="1"></path><path clip-path="url(#clip600)" d="M401.305 1448.21 Q398.597 1448.21 397.036 1449.66 Q395.493 1451.11 395.493 1453.65 Q395.493 1456.19 397.036 1457.63 Q398.597 1459.08 401.305 1459.08 Q404.013 1459.08 405.574 1457.63 Q407.135 1456.17 407.135 1453.65 Q407.135 1451.11 405.574 1449.66 Q404.032 1448.21 401.305 1448.21 M397.506 1446.59 Q395.061 1445.99 393.688 1444.32 Q392.334 1442.64 392.334 1440.24 Q392.334 1436.87 394.722 1434.91 Q397.13 1432.96 401.305 1432.96 Q405.499 1432.96 407.888 1434.91 Q410.276 1436.87 410.276 1440.24 Q410.276 1442.64 408.903 1444.32 Q407.549 1445.99 405.123 1446.59 Q407.869 1447.23 409.392 1449.1 Q410.935 1450.96 410.935 1453.65 Q410.935 1457.73 408.433 1459.91 Q405.951 1462.09 401.305 1462.09 Q396.659 1462.09 394.158 1459.91 Q391.675 1457.73 391.675 1453.65 Q391.675 1450.96 393.218 1449.1 Q394.76 1447.23 397.506 1446.59 M396.114 1440.59 Q396.114 1442.78 397.468 1444 Q398.841 1445.22 401.305 1445.22 Q403.75 1445.22 405.123 1444 Q406.515 1442.78 406.515 1440.59 Q406.515 1438.41 405.123 1437.19 Q403.75 1435.97 401.305 1435.97 Q398.841 1435.97 397.468 1437.19 Q396.114 1438.41 396.114 1440.59 Z" fill="#000000" fill-rule="nonzero" fill-opacity="1"></path><path clip-path="url(#clip600)" d="M771.461 1531.03 Q764.459 1531.03 760.321 1536.25 Q756.216 1541.47 756.216 1550.47 Q756.216 1559.45 760.321 1564.67 Q764.459 1569.89 771.461 1569.89 Q778.464 1569.89 782.538 1564.67 Q786.644 1559.45 786.644 1550.47 Q786.644 1541.47 782.538 1536.25 Q778.464 1531.03 771.461 1531.03 M771.461 1525.81 Q781.456 1525.81 787.439 1532.52 Q793.423 1539.21 793.423 1550.47 Q793.423 1561.71 787.439 1568.42 Q781.456 1575.11 771.461 1575.11 Q761.435 1575.11 755.42 1568.42 Q749.436 1561.74 749.436 1550.47 Q749.436 1539.21 755.42 1532.52 Q761.435 1525.81 771.461 1525.81 Z" fill="#000000" fill-rule="nonzero" fill-opacity="1"></path><path clip-path="url(#clip600)" d="M799.025 1538.54 L805.232 1538.54 L816.371 1568.46 L827.511 1538.54 L833.718 1538.54 L820.35 1574.19 L812.393 1574.19 L799.025 1538.54 Z" fill="#000000" fill-rule="nonzero" fill-opacity="1"></path><path clip-path="url(#clip600)" d="M872.294 1554.9 L872.294 1557.76 L845.367 1557.76 Q845.749 1563.81 848.996 1566.99 Q852.274 1570.14 858.099 1570.14 Q861.473 1570.14 864.624 1569.32 Q867.806 1568.49 870.926 1566.83 L870.926 1572.37 Q867.775 1573.71 864.464 1574.41 Q861.154 1575.11 857.749 1575.11 Q849.219 1575.11 844.221 1570.14 Q839.256 1565.18 839.256 1556.71 Q839.256 1547.96 843.967 1542.83 Q848.709 1537.68 856.73 1537.68 Q863.923 1537.68 868.093 1542.33 Q872.294 1546.94 872.294 1554.9 M866.438 1553.18 Q866.374 1548.37 863.732 1545.51 Q861.122 1542.64 856.794 1542.64 Q851.892 1542.64 848.932 1545.41 Q846.004 1548.18 845.558 1553.21 L866.438 1553.18 Z" fill="#000000" fill-rule="nonzero" fill-opacity="1"></path><path clip-path="url(#clip600)" d="M902.563 1544.01 Q901.576 1543.44 900.399 1543.18 Q899.253 1542.9 897.853 1542.9 Q892.887 1542.9 890.214 1546.14 Q887.572 1549.36 887.572 1555.41 L887.572 1574.19 L881.684 1574.19 L881.684 1538.54 L887.572 1538.54 L887.572 1544.08 Q889.418 1540.83 892.378 1539.27 Q895.338 1537.68 899.571 1537.68 Q900.176 1537.68 900.908 1537.77 Q901.64 1537.84 902.531 1538 L902.563 1544.01 Z" fill="#000000" fill-rule="nonzero" fill-opacity="1"></path><path clip-path="url(#clip600)" d="M924.907 1556.27 Q917.809 1556.27 915.072 1557.89 Q912.335 1559.51 912.335 1563.43 Q912.335 1566.55 914.372 1568.39 Q916.44 1570.21 919.973 1570.21 Q924.843 1570.21 927.771 1566.77 Q930.731 1563.3 930.731 1557.57 L930.731 1556.27 L924.907 1556.27 M936.588 1553.85 L936.588 1574.19 L930.731 1574.19 L930.731 1568.77 Q928.726 1572.02 925.734 1573.58 Q922.742 1575.11 918.414 1575.11 Q912.939 1575.11 909.693 1572.05 Q906.478 1568.97 906.478 1563.81 Q906.478 1557.79 910.488 1554.74 Q914.531 1551.68 922.52 1551.68 L930.731 1551.68 L930.731 1551.11 Q930.731 1547.07 928.058 1544.87 Q925.416 1542.64 920.61 1542.64 Q917.554 1542.64 914.658 1543.38 Q911.762 1544.11 909.088 1545.57 L909.088 1540.16 Q912.303 1538.92 915.326 1538.31 Q918.35 1537.68 921.215 1537.68 Q928.949 1537.68 932.768 1541.69 Q936.588 1545.7 936.588 1553.85 Z" fill="#000000" fill-rule="nonzero" fill-opacity="1"></path><path clip-path="url(#clip600)" d="M948.651 1524.66 L954.507 1524.66 L954.507 1574.19 L948.651 1574.19 L948.651 1524.66 Z" fill="#000000" fill-rule="nonzero" fill-opacity="1"></path><path clip-path="url(#clip600)" d="M966.761 1524.66 L972.618 1524.66 L972.618 1574.19 L966.761 1574.19 L966.761 1524.66 Z" fill="#000000" fill-rule="nonzero" fill-opacity="1"></path><path clip-path="url(#clip600)" d="M1011.38 1528.42 L1011.38 1538.54 L1023.45 1538.54 L1023.45 1543.09 L1011.38 1543.09 L1011.38 1562.44 Q1011.38 1566.8 1012.56 1568.04 Q1013.77 1569.28 1017.43 1569.28 L1023.45 1569.28 L1023.45 1574.19 L1017.43 1574.19 Q1010.65 1574.19 1008.07 1571.67 Q1005.5 1569.12 1005.5 1562.44 L1005.5 1543.09 L1001.2 1543.09 L1001.2 1538.54 L1005.5 1538.54 L1005.5 1528.42 L1011.38 1528.42 Z" fill="#000000" fill-rule="nonzero" fill-opacity="1"></path><path clip-path="url(#clip600)" d="M1044.96 1542.64 Q1040.25 1542.64 1037.52 1546.34 Q1034.78 1550 1034.78 1556.39 Q1034.78 1562.79 1037.48 1566.48 Q1040.22 1570.14 1044.96 1570.14 Q1049.64 1570.14 1052.38 1566.45 Q1055.12 1562.76 1055.12 1556.39 Q1055.12 1550.06 1052.38 1546.37 Q1049.64 1542.64 1044.96 1542.64 M1044.96 1537.68 Q1052.6 1537.68 1056.96 1542.64 Q1061.32 1547.61 1061.32 1556.39 Q1061.32 1565.15 1056.96 1570.14 Q1052.6 1575.11 1044.96 1575.11 Q1037.29 1575.11 1032.93 1570.14 Q1028.6 1565.15 1028.6 1556.39 Q1028.6 1547.61 1032.93 1542.64 Q1037.29 1537.68 1044.96 1537.68 Z" fill="#000000" fill-rule="nonzero" fill-opacity="1"></path><path clip-path="url(#clip600)" d="M1071.03 1524.66 L1076.89 1524.66 L1076.89 1574.19 L1071.03 1574.19 L1071.03 1524.66 Z" fill="#000000" fill-rule="nonzero" fill-opacity="1"></path><path clip-path="url(#clip600)" d="M1119.63 1554.9 L1119.63 1557.76 L1092.71 1557.76 Q1093.09 1563.81 1096.34 1566.99 Q1099.61 1570.14 1105.44 1570.14 Q1108.81 1570.14 1111.96 1569.32 Q1115.15 1568.49 1118.27 1566.83 L1118.27 1572.37 Q1115.11 1573.71 1111.8 1574.41 Q1108.49 1575.11 1105.09 1575.11 Q1096.56 1575.11 1091.56 1570.14 Q1086.6 1565.18 1086.6 1556.71 Q1086.6 1547.96 1091.31 1542.83 Q1096.05 1537.68 1104.07 1537.68 Q1111.26 1537.68 1115.43 1542.33 Q1119.63 1546.94 1119.63 1554.9 M1113.78 1553.18 Q1113.71 1548.37 1111.07 1545.51 Q1108.46 1542.64 1104.13 1542.64 Q1099.23 1542.64 1096.27 1545.41 Q1093.34 1548.18 1092.9 1553.21 L1113.78 1553.18 Z" fill="#000000" fill-rule="nonzero" fill-opacity="1"></path><path clip-path="url(#clip600)" d="M1149.9 1544.01 Q1148.92 1543.44 1147.74 1543.18 Q1146.59 1542.9 1145.19 1542.9 Q1140.23 1542.9 1137.55 1546.14 Q1134.91 1549.36 1134.91 1555.41 L1134.91 1574.19 L1129.02 1574.19 L1129.02 1538.54 L1134.91 1538.54 L1134.91 1544.08 Q1136.76 1540.83 1139.72 1539.27 Q1142.68 1537.68 1146.91 1537.68 Q1147.52 1537.68 1148.25 1537.77 Q1148.98 1537.84 1149.87 1538 L1149.9 1544.01 Z" fill="#000000" fill-rule="nonzero" fill-opacity="1"></path><path clip-path="url(#clip600)" d="M1172.25 1556.27 Q1165.15 1556.27 1162.41 1557.89 Q1159.67 1559.51 1159.67 1563.43 Q1159.67 1566.55 1161.71 1568.39 Q1163.78 1570.21 1167.31 1570.21 Q1172.18 1570.21 1175.11 1566.77 Q1178.07 1563.3 1178.07 1557.57 L1178.07 1556.27 L1172.25 1556.27 M1183.93 1553.85 L1183.93 1574.19 L1178.07 1574.19 L1178.07 1568.77 Q1176.07 1572.02 1173.07 1573.58 Q1170.08 1575.11 1165.75 1575.11 Q1160.28 1575.11 1157.03 1572.05 Q1153.82 1568.97 1153.82 1563.81 Q1153.82 1557.79 1157.83 1554.74 Q1161.87 1551.68 1169.86 1551.68 L1178.07 1551.68 L1178.07 1551.11 Q1178.07 1547.07 1175.4 1544.87 Q1172.76 1542.64 1167.95 1542.64 Q1164.89 1542.64 1162 1543.38 Q1159.1 1544.11 1156.43 1545.57 L1156.43 1540.16 Q1159.64 1538.92 1162.67 1538.31 Q1165.69 1537.68 1168.55 1537.68 Q1176.29 1537.68 1180.11 1541.69 Q1183.93 1545.7 1183.93 1553.85 Z" fill="#000000" fill-rule="nonzero" fill-opacity="1"></path><path clip-path="url(#clip600)" d="M1225.62 1552.67 L1225.62 1574.19 L1219.77 1574.19 L1219.77 1552.86 Q1219.77 1547.8 1217.79 1545.29 Q1215.82 1542.77 1211.87 1542.77 Q1207.13 1542.77 1204.39 1545.79 Q1201.66 1548.82 1201.66 1554.04 L1201.66 1574.19 L1195.77 1574.19 L1195.77 1538.54 L1201.66 1538.54 L1201.66 1544.08 Q1203.76 1540.86 1206.59 1539.27 Q1209.45 1537.68 1213.18 1537.68 Q1219.32 1537.68 1222.47 1541.5 Q1225.62 1545.29 1225.62 1552.67 Z" fill="#000000" fill-rule="nonzero" fill-opacity="1"></path><path clip-path="url(#clip600)" d="M1262.96 1539.91 L1262.96 1545.38 Q1260.48 1544.01 1257.96 1543.34 Q1255.48 1542.64 1252.93 1542.64 Q1247.23 1542.64 1244.08 1546.27 Q1240.93 1549.87 1240.93 1556.39 Q1240.93 1562.92 1244.08 1566.55 Q1247.23 1570.14 1252.93 1570.14 Q1255.48 1570.14 1257.96 1569.47 Q1260.48 1568.77 1262.96 1567.41 L1262.96 1572.82 Q1260.51 1573.96 1257.87 1574.54 Q1255.26 1575.11 1252.3 1575.11 Q1244.24 1575.11 1239.5 1570.05 Q1234.76 1564.99 1234.76 1556.39 Q1234.76 1547.67 1239.53 1542.68 Q1244.34 1537.68 1252.68 1537.68 Q1255.38 1537.68 1257.96 1538.25 Q1260.54 1538.79 1262.96 1539.91 Z" fill="#000000" fill-rule="nonzero" fill-opacity="1"></path><path clip-path="url(#clip600)" d="M1303.63 1554.9 L1303.63 1557.76 L1276.71 1557.76 Q1277.09 1563.81 1280.34 1566.99 Q1283.61 1570.14 1289.44 1570.14 Q1292.81 1570.14 1295.96 1569.32 Q1299.15 1568.49 1302.27 1566.83 L1302.27 1572.37 Q1299.11 1573.71 1295.8 1574.41 Q1292.49 1575.11 1289.09 1575.11 Q1280.56 1575.11 1275.56 1570.14 Q1270.6 1565.18 1270.6 1556.71 Q1270.6 1547.96 1275.31 1542.83 Q1280.05 1537.68 1288.07 1537.68 Q1295.26 1537.68 1299.43 1542.33 Q1303.63 1546.94 1303.63 1554.9 M1297.78 1553.18 Q1297.71 1548.37 1295.07 1545.51 Q1292.46 1542.64 1288.13 1542.64 Q1283.23 1542.64 1280.27 1545.41 Q1277.34 1548.18 1276.9 1553.21 L1297.78 1553.18 Z" fill="#000000" fill-rule="nonzero" fill-opacity="1"></path><path clip-path="url(#clip600)" d="M1347.78 1542.64 Q1343.07 1542.64 1340.33 1546.34 Q1337.6 1550 1337.6 1556.39 Q1337.6 1562.79 1340.3 1566.48 Q1343.04 1570.14 1347.78 1570.14 Q1352.46 1570.14 1355.2 1566.45 Q1357.93 1562.76 1357.93 1556.39 Q1357.93 1550.06 1355.2 1546.37 Q1352.46 1542.64 1347.78 1542.64 M1347.78 1537.68 Q1355.42 1537.68 1359.78 1542.64 Q1364.14 1547.61 1364.14 1556.39 Q1364.14 1565.15 1359.78 1570.14 Q1355.42 1575.11 1347.78 1575.11 Q1340.11 1575.11 1335.75 1570.14 Q1331.42 1565.15 1331.42 1556.39 Q1331.42 1547.61 1335.75 1542.64 Q1340.11 1537.68 1347.78 1537.68 Z" fill="#000000" fill-rule="nonzero" fill-opacity="1"></path><path clip-path="url(#clip600)" d="M1391.9 1524.66 L1391.9 1529.53 L1386.29 1529.53 Q1383.14 1529.53 1381.9 1530.8 Q1380.69 1532.08 1380.69 1535.39 L1380.69 1538.54 L1390.34 1538.54 L1390.34 1543.09 L1380.69 1543.09 L1380.69 1574.19 L1374.8 1574.19 L1374.8 1543.09 L1369.2 1543.09 L1369.2 1538.54 L1374.8 1538.54 L1374.8 1536.05 Q1374.8 1530.1 1377.57 1527.4 Q1380.34 1524.66 1386.36 1524.66 L1391.9 1524.66 Z" fill="#000000" fill-rule="nonzero" fill-opacity="1"></path><path clip-path="url(#clip600)" d="M1423.31 1528.42 L1423.31 1538.54 L1435.37 1538.54 L1435.37 1543.09 L1423.31 1543.09 L1423.31 1562.44 Q1423.31 1566.8 1424.49 1568.04 Q1425.7 1569.28 1429.36 1569.28 L1435.37 1569.28 L1435.37 1574.19 L1429.36 1574.19 Q1422.58 1574.19 1420 1571.67 Q1417.42 1569.12 1417.42 1562.44 L1417.42 1543.09 L1413.12 1543.09 L1413.12 1538.54 L1417.42 1538.54 L1417.42 1528.42 L1423.31 1528.42 Z" fill="#000000" fill-rule="nonzero" fill-opacity="1"></path><path clip-path="url(#clip600)" d="M1472.71 1552.67 L1472.71 1574.19 L1466.85 1574.19 L1466.85 1552.86 Q1466.85 1547.8 1464.88 1545.29 Q1462.9 1542.77 1458.96 1542.77 Q1454.22 1542.77 1451.48 1545.79 Q1448.74 1548.82 1448.74 1554.04 L1448.74 1574.19 L1442.85 1574.19 L1442.85 1524.66 L1448.74 1524.66 L1448.74 1544.08 Q1450.84 1540.86 1453.67 1539.27 Q1456.54 1537.68 1460.26 1537.68 Q1466.41 1537.68 1469.56 1541.5 Q1472.71 1545.29 1472.71 1552.67 Z" fill="#000000" fill-rule="nonzero" fill-opacity="1"></path><path clip-path="url(#clip600)" d="M1514.88 1554.9 L1514.88 1557.76 L1487.95 1557.76 Q1488.34 1563.81 1491.58 1566.99 Q1494.86 1570.14 1500.68 1570.14 Q1504.06 1570.14 1507.21 1569.32 Q1510.39 1568.49 1513.51 1566.83 L1513.51 1572.37 Q1510.36 1573.71 1507.05 1574.41 Q1503.74 1575.11 1500.33 1575.11 Q1491.8 1575.11 1486.81 1570.14 Q1481.84 1565.18 1481.84 1556.71 Q1481.84 1547.96 1486.55 1542.83 Q1491.3 1537.68 1499.32 1537.68 Q1506.51 1537.68 1510.68 1542.33 Q1514.88 1546.94 1514.88 1554.9 M1509.02 1553.18 Q1508.96 1548.37 1506.32 1545.51 Q1503.71 1542.64 1499.38 1542.64 Q1494.48 1542.64 1491.52 1545.41 Q1488.59 1548.18 1488.14 1553.21 L1509.02 1553.18 Z" fill="#000000" fill-rule="nonzero" fill-opacity="1"></path><path clip-path="url(#clip600)" d="M1561.41 1556.27 Q1554.32 1556.27 1551.58 1557.89 Q1548.84 1559.51 1548.84 1563.43 Q1548.84 1566.55 1550.88 1568.39 Q1552.95 1570.21 1556.48 1570.21 Q1561.35 1570.21 1564.28 1566.77 Q1567.24 1563.3 1567.24 1557.57 L1567.24 1556.27 L1561.41 1556.27 M1573.09 1553.85 L1573.09 1574.19 L1567.24 1574.19 L1567.24 1568.77 Q1565.23 1572.02 1562.24 1573.58 Q1559.25 1575.11 1554.92 1575.11 Q1549.45 1575.11 1546.2 1572.05 Q1542.99 1568.97 1542.99 1563.81 Q1542.99 1557.79 1547 1554.74 Q1551.04 1551.68 1559.03 1551.68 L1567.24 1551.68 L1567.24 1551.11 Q1567.24 1547.07 1564.56 1544.87 Q1561.92 1542.64 1557.12 1542.64 Q1554.06 1542.64 1551.17 1543.38 Q1548.27 1544.11 1545.6 1545.57 L1545.6 1540.16 Q1548.81 1538.92 1551.83 1538.31 Q1554.86 1537.68 1557.72 1537.68 Q1565.46 1537.68 1569.28 1541.69 Q1573.09 1545.7 1573.09 1553.85 Z" fill="#000000" fill-rule="nonzero" fill-opacity="1"></path><path clip-path="url(#clip600)" d="M1585.16 1524.66 L1591.01 1524.66 L1591.01 1574.19 L1585.16 1574.19 L1585.16 1524.66 Z" fill="#000000" fill-rule="nonzero" fill-opacity="1"></path><path clip-path="url(#clip600)" d="M1626.73 1555.95 Q1626.73 1549.58 1624.08 1546.08 Q1621.47 1542.58 1616.73 1542.58 Q1612.02 1542.58 1609.38 1546.08 Q1606.77 1549.58 1606.77 1555.95 Q1606.77 1562.28 1609.38 1565.78 Q1612.02 1569.28 1616.73 1569.28 Q1621.47 1569.28 1624.08 1565.78 Q1626.73 1562.28 1626.73 1555.95 M1632.58 1569.76 Q1632.58 1578.86 1628.54 1583.29 Q1624.5 1587.74 1616.16 1587.74 Q1613.07 1587.74 1610.33 1587.27 Q1607.6 1586.82 1605.02 1585.87 L1605.02 1580.17 Q1607.6 1581.57 1610.11 1582.24 Q1612.63 1582.91 1615.24 1582.91 Q1621 1582.91 1623.86 1579.88 Q1626.73 1576.89 1626.73 1570.81 L1626.73 1567.92 Q1624.91 1571.07 1622.08 1572.63 Q1619.25 1574.19 1615.3 1574.19 Q1608.74 1574.19 1604.73 1569.19 Q1600.72 1564.19 1600.72 1555.95 Q1600.72 1547.67 1604.73 1542.68 Q1608.74 1537.68 1615.3 1537.68 Q1619.25 1537.68 1622.08 1539.24 Q1624.91 1540.8 1626.73 1543.95 L1626.73 1538.54 L1632.58 1538.54 L1632.58 1569.76 Z" fill="#000000" fill-rule="nonzero" fill-opacity="1"></path><path clip-path="url(#clip600)" d="M1658.46 1542.64 Q1653.75 1542.64 1651.01 1546.34 Q1648.27 1550 1648.27 1556.39 Q1648.27 1562.79 1650.98 1566.48 Q1653.72 1570.14 1658.46 1570.14 Q1663.14 1570.14 1665.88 1566.45 Q1668.61 1562.76 1668.61 1556.39 Q1668.61 1550.06 1665.88 1546.37 Q1663.14 1542.64 1658.46 1542.64 M1658.46 1537.68 Q1666.1 1537.68 1670.46 1542.64 Q1674.82 1547.61 1674.82 1556.39 Q1674.82 1565.15 1670.46 1570.14 Q1666.1 1575.11 1658.46 1575.11 Q1650.79 1575.11 1646.43 1570.14 Q1642.1 1565.15 1642.1 1556.39 Q1642.1 1547.61 1646.43 1542.64 Q1650.79 1537.68 1658.46 1537.68 Z" fill="#000000" fill-rule="nonzero" fill-opacity="1"></path><path clip-path="url(#clip600)" d="M1705.18 1544.01 Q1704.2 1543.44 1703.02 1543.18 Q1701.87 1542.9 1700.47 1542.9 Q1695.51 1542.9 1692.83 1546.14 Q1690.19 1549.36 1690.19 1555.41 L1690.19 1574.19 L1684.3 1574.19 L1684.3 1538.54 L1690.19 1538.54 L1690.19 1544.08 Q1692.04 1540.83 1695 1539.27 Q1697.96 1537.68 1702.19 1537.68 Q1702.8 1537.68 1703.53 1537.77 Q1704.26 1537.84 1705.15 1538 L1705.18 1544.01 Z" fill="#000000" fill-rule="nonzero" fill-opacity="1"></path><path clip-path="url(#clip600)" d="M1711.33 1538.54 L1717.18 1538.54 L1717.18 1574.19 L1711.33 1574.19 L1711.33 1538.54 M1711.33 1524.66 L1717.18 1524.66 L1717.18 1532.08 L1711.33 1532.08 L1711.33 1524.66 Z" fill="#000000" fill-rule="nonzero" fill-opacity="1"></path><path clip-path="url(#clip600)" d="M1735.23 1528.42 L1735.23 1538.54 L1747.29 1538.54 L1747.29 1543.09 L1735.23 1543.09 L1735.23 1562.44 Q1735.23 1566.8 1736.41 1568.04 Q1737.62 1569.28 1741.28 1569.28 L1747.29 1569.28 L1747.29 1574.19 L1741.28 1574.19 Q1734.5 1574.19 1731.92 1571.67 Q1729.34 1569.12 1729.34 1562.44 L1729.34 1543.09 L1725.04 1543.09 L1725.04 1538.54 L1729.34 1538.54 L1729.34 1528.42 L1735.23 1528.42 Z" fill="#000000" fill-rule="nonzero" fill-opacity="1"></path><path clip-path="url(#clip600)" d="M1784.63 1552.67 L1784.63 1574.19 L1778.77 1574.19 L1778.77 1552.86 Q1778.77 1547.8 1776.8 1545.29 Q1774.82 1542.77 1770.88 1542.77 Q1766.13 1542.77 1763.4 1545.79 Q1760.66 1548.82 1760.66 1554.04 L1760.66 1574.19 L1754.77 1574.19 L1754.77 1524.66 L1760.66 1524.66 L1760.66 1544.08 Q1762.76 1540.86 1765.59 1539.27 Q1768.46 1537.68 1772.18 1537.68 Q1778.33 1537.68 1781.48 1541.5 Q1784.63 1545.29 1784.63 1552.67 Z" fill="#000000" fill-rule="nonzero" fill-opacity="1"></path><path clip-path="url(#clip600)" d="M1824.06 1545.38 Q1826.26 1541.43 1829.31 1539.56 Q1832.37 1537.68 1836.51 1537.68 Q1842.08 1537.68 1845.1 1541.59 Q1848.13 1545.48 1848.13 1552.67 L1848.13 1574.19 L1842.24 1574.19 L1842.24 1552.86 Q1842.24 1547.74 1840.42 1545.25 Q1838.61 1542.77 1834.88 1542.77 Q1830.33 1542.77 1827.69 1545.79 Q1825.05 1548.82 1825.05 1554.04 L1825.05 1574.19 L1819.16 1574.19 L1819.16 1552.86 Q1819.16 1547.7 1817.35 1545.25 Q1815.53 1542.77 1811.75 1542.77 Q1807.26 1542.77 1804.62 1545.83 Q1801.97 1548.85 1801.97 1554.04 L1801.97 1574.19 L1796.09 1574.19 L1796.09 1538.54 L1801.97 1538.54 L1801.97 1544.08 Q1803.98 1540.8 1806.78 1539.24 Q1809.58 1537.68 1813.43 1537.68 Q1817.32 1537.68 1820.02 1539.65 Q1822.76 1541.62 1824.06 1545.38 Z" fill="#000000" fill-rule="nonzero" fill-opacity="1"></path><path clip-path="url(#clip600)" d="M1886.96 1554.96 Q1883.39 1554.2 1881.48 1552.13 Q1879.57 1550.09 1879.57 1547.13 Q1879.57 1542.64 1883.2 1540.13 Q1886.8 1537.65 1893.04 1537.65 Q1895.45 1537.65 1898.16 1538.03 Q1900.87 1538.41 1903.98 1539.17 L1903.98 1544.49 Q1900.9 1543.57 1898.35 1543.15 Q1895.77 1542.74 1893.51 1542.74 Q1889.73 1542.74 1887.53 1544.2 Q1885.3 1545.67 1885.3 1547.7 Q1885.3 1549.93 1887.47 1551.36 Q1889.6 1552.76 1893.29 1552.76 L1898.22 1552.76 L1898.22 1557.6 L1893.51 1557.6 Q1889.15 1557.6 1886.86 1559.23 Q1884.38 1561.01 1884.38 1563.81 Q1884.38 1566.67 1887.05 1568.46 Q1889.76 1570.24 1894.56 1570.24 Q1897.52 1570.24 1900.23 1569.67 Q1902.93 1569.06 1905.19 1567.88 L1905.19 1573.33 Q1902.33 1574.22 1899.66 1574.66 Q1896.95 1575.11 1894.4 1575.11 Q1886.83 1575.11 1882.72 1572.21 Q1878.62 1569.32 1878.62 1563.81 Q1878.62 1560.37 1880.81 1558.05 Q1883.01 1555.72 1886.96 1554.96 Z" fill="#000000" fill-rule="nonzero" fill-opacity="1"></path><polyline clip-path="url(#clip602)" style="stroke:#000000; stroke-linecap:round; stroke-linejoin:round; stroke-width:2; stroke-opacity:0.1; fill:none" points="301.874,1237.3 2352.76,1237.3 "></polyline>
<polyline clip-path="url(#clip602)" style="stroke:#000000; stroke-linecap:round; stroke-linejoin:round; stroke-width:2; stroke-opacity:0.1; fill:none" points="301.874,1038.03 2352.76,1038.03 "></polyline>
<polyline clip-path="url(#clip602)" style="stroke:#000000; stroke-linecap:round; stroke-linejoin:round; stroke-width:2; stroke-opacity:0.1; fill:none" points="301.874,838.759 2352.76,838.759 "></polyline>
<polyline clip-path="url(#clip602)" style="stroke:#000000; stroke-linecap:round; stroke-linejoin:round; stroke-width:2; stroke-opacity:0.1; fill:none" points="301.874,639.489 2352.76,639.489 "></polyline>
<polyline clip-path="url(#clip602)" style="stroke:#000000; stroke-linecap:round; stroke-linejoin:round; stroke-width:2; stroke-opacity:0.1; fill:none" points="301.874,440.218 2352.76,440.218 "></polyline>
<polyline clip-path="url(#clip602)" style="stroke:#000000; stroke-linecap:round; stroke-linejoin:round; stroke-width:2; stroke-opacity:0.1; fill:none" points="301.874,240.948 2352.76,240.948 "></polyline>
<polyline clip-path="url(#clip600)" style="stroke:#000000; stroke-linecap:round; stroke-linejoin:round; stroke-width:4; stroke-opacity:1; fill:none" points="301.874,1410.9 301.874,123.472 "></polyline>
<polyline clip-path="url(#clip600)" style="stroke:#000000; stroke-linecap:round; stroke-linejoin:round; stroke-width:4; stroke-opacity:1; fill:none" points="301.874,1237.3 320.772,1237.3 "></polyline>
<polyline clip-path="url(#clip600)" style="stroke:#000000; stroke-linecap:round; stroke-linejoin:round; stroke-width:4; stroke-opacity:1; fill:none" points="301.874,1038.03 320.772,1038.03 "></polyline>
<polyline clip-path="url(#clip600)" style="stroke:#000000; stroke-linecap:round; stroke-linejoin:round; stroke-width:4; stroke-opacity:1; fill:none" points="301.874,838.759 320.772,838.759 "></polyline>
<polyline clip-path="url(#clip600)" style="stroke:#000000; stroke-linecap:round; stroke-linejoin:round; stroke-width:4; stroke-opacity:1; fill:none" points="301.874,639.489 320.772,639.489 "></polyline>
<polyline clip-path="url(#clip600)" style="stroke:#000000; stroke-linecap:round; stroke-linejoin:round; stroke-width:4; stroke-opacity:1; fill:none" points="301.874,440.218 320.772,440.218 "></polyline>
<polyline clip-path="url(#clip600)" style="stroke:#000000; stroke-linecap:round; stroke-linejoin:round; stroke-width:4; stroke-opacity:1; fill:none" points="301.874,240.948 320.772,240.948 "></polyline>
<path clip-path="url(#clip600)" d="M179.532 1223.1 Q175.921 1223.1 174.092 1226.66 Q172.286 1230.21 172.286 1237.33 Q172.286 1244.44 174.092 1248.01 Q175.921 1251.55 179.532 1251.55 Q183.166 1251.55 184.972 1248.01 Q186.8 1244.44 186.8 1237.33 Q186.8 1230.21 184.972 1226.66 Q183.166 1223.1 179.532 1223.1 M179.532 1219.4 Q185.342 1219.4 188.398 1224 Q191.476 1228.58 191.476 1237.33 Q191.476 1246.06 188.398 1250.67 Q185.342 1255.25 179.532 1255.25 Q173.722 1255.25 170.643 1250.67 Q167.587 1246.06 167.587 1237.33 Q167.587 1228.58 170.643 1224 Q173.722 1219.4 179.532 1219.4 Z" fill="#000000" fill-rule="nonzero" fill-opacity="1"></path><path clip-path="url(#clip600)" d="M199.694 1248.7 L204.578 1248.7 L204.578 1254.58 L199.694 1254.58 L199.694 1248.7 Z" fill="#000000" fill-rule="nonzero" fill-opacity="1"></path><path clip-path="url(#clip600)" d="M214.902 1253.86 L214.902 1249.6 Q216.661 1250.44 218.467 1250.88 Q220.272 1251.32 222.008 1251.32 Q226.638 1251.32 229.069 1248.21 Q231.522 1245.09 231.87 1238.75 Q230.527 1240.74 228.467 1241.8 Q226.407 1242.87 223.907 1242.87 Q218.721 1242.87 215.689 1239.74 Q212.68 1236.59 212.68 1231.15 Q212.68 1225.83 215.828 1222.61 Q218.976 1219.4 224.208 1219.4 Q230.203 1219.4 233.351 1224 Q236.522 1228.58 236.522 1237.33 Q236.522 1245.51 232.633 1250.39 Q228.768 1255.25 222.217 1255.25 Q220.458 1255.25 218.652 1254.9 Q216.846 1254.56 214.902 1253.86 M224.208 1239.21 Q227.356 1239.21 229.184 1237.06 Q231.036 1234.9 231.036 1231.15 Q231.036 1227.43 229.184 1225.27 Q227.356 1223.1 224.208 1223.1 Q221.059 1223.1 219.208 1225.27 Q217.379 1227.43 217.379 1231.15 Q217.379 1234.9 219.208 1237.06 Q221.059 1239.21 224.208 1239.21 Z" fill="#000000" fill-rule="nonzero" fill-opacity="1"></path><path clip-path="url(#clip600)" d="M244.971 1220.02 L263.328 1220.02 L263.328 1223.96 L249.254 1223.96 L249.254 1232.43 Q250.272 1232.08 251.291 1231.92 Q252.309 1231.73 253.328 1231.73 Q259.115 1231.73 262.494 1234.9 Q265.874 1238.08 265.874 1243.49 Q265.874 1249.07 262.402 1252.17 Q258.93 1255.25 252.61 1255.25 Q250.434 1255.25 248.166 1254.88 Q245.92 1254.51 243.513 1253.77 L243.513 1249.07 Q245.596 1250.21 247.819 1250.76 Q250.041 1251.32 252.518 1251.32 Q256.522 1251.32 258.86 1249.21 Q261.198 1247.1 261.198 1243.49 Q261.198 1239.88 258.86 1237.77 Q256.522 1235.67 252.518 1235.67 Q250.643 1235.67 248.768 1236.08 Q246.916 1236.5 244.971 1237.38 L244.971 1220.02 Z" fill="#000000" fill-rule="nonzero" fill-opacity="1"></path><path clip-path="url(#clip600)" d="M169.347 1051.37 L176.986 1051.37 L176.986 1025.01 L168.675 1026.68 L168.675 1022.42 L176.939 1020.75 L181.615 1020.75 L181.615 1051.37 L189.254 1051.37 L189.254 1055.31 L169.347 1055.31 L169.347 1051.37 Z" fill="#000000" fill-rule="nonzero" fill-opacity="1"></path><path clip-path="url(#clip600)" d="M198.698 1049.43 L203.583 1049.43 L203.583 1055.31 L198.698 1055.31 L198.698 1049.43 Z" fill="#000000" fill-rule="nonzero" fill-opacity="1"></path><path clip-path="url(#clip600)" d="M223.768 1023.83 Q220.157 1023.83 218.328 1027.39 Q216.522 1030.93 216.522 1038.06 Q216.522 1045.17 218.328 1048.74 Q220.157 1052.28 223.768 1052.28 Q227.402 1052.28 229.207 1048.74 Q231.036 1045.17 231.036 1038.06 Q231.036 1030.93 229.207 1027.39 Q227.402 1023.83 223.768 1023.83 M223.768 1020.12 Q229.578 1020.12 232.633 1024.73 Q235.712 1029.31 235.712 1038.06 Q235.712 1046.79 232.633 1051.4 Q229.578 1055.98 223.768 1055.98 Q217.958 1055.98 214.879 1051.4 Q211.823 1046.79 211.823 1038.06 Q211.823 1029.31 214.879 1024.73 Q217.958 1020.12 223.768 1020.12 Z" fill="#000000" fill-rule="nonzero" fill-opacity="1"></path><path clip-path="url(#clip600)" d="M253.93 1023.83 Q250.318 1023.83 248.49 1027.39 Q246.684 1030.93 246.684 1038.06 Q246.684 1045.17 248.49 1048.74 Q250.318 1052.28 253.93 1052.28 Q257.564 1052.28 259.369 1048.74 Q261.198 1045.17 261.198 1038.06 Q261.198 1030.93 259.369 1027.39 Q257.564 1023.83 253.93 1023.83 M253.93 1020.12 Q259.74 1020.12 262.795 1024.73 Q265.874 1029.31 265.874 1038.06 Q265.874 1046.79 262.795 1051.4 Q259.74 1055.98 253.93 1055.98 Q248.119 1055.98 245.041 1051.4 Q241.985 1046.79 241.985 1038.06 Q241.985 1029.31 245.041 1024.73 Q248.119 1020.12 253.93 1020.12 Z" fill="#000000" fill-rule="nonzero" fill-opacity="1"></path><path clip-path="url(#clip600)" d="M170.342 852.104 L177.981 852.104 L177.981 825.738 L169.671 827.405 L169.671 823.146 L177.935 821.479 L182.611 821.479 L182.611 852.104 L190.249 852.104 L190.249 856.039 L170.342 856.039 L170.342 852.104 Z" fill="#000000" fill-rule="nonzero" fill-opacity="1"></path><path clip-path="url(#clip600)" d="M199.694 850.16 L204.578 850.16 L204.578 856.039 L199.694 856.039 L199.694 850.16 Z" fill="#000000" fill-rule="nonzero" fill-opacity="1"></path><path clip-path="url(#clip600)" d="M224.763 824.558 Q221.152 824.558 219.323 828.123 Q217.518 831.664 217.518 838.794 Q217.518 845.9 219.323 849.465 Q221.152 853.007 224.763 853.007 Q228.397 853.007 230.203 849.465 Q232.032 845.9 232.032 838.794 Q232.032 831.664 230.203 828.123 Q228.397 824.558 224.763 824.558 M224.763 820.854 Q230.573 820.854 233.629 825.461 Q236.707 830.044 236.707 838.794 Q236.707 847.521 233.629 852.127 Q230.573 856.71 224.763 856.71 Q218.953 856.71 215.874 852.127 Q212.819 847.521 212.819 838.794 Q212.819 830.044 215.874 825.461 Q218.953 820.854 224.763 820.854 Z" fill="#000000" fill-rule="nonzero" fill-opacity="1"></path><path clip-path="url(#clip600)" d="M244.971 821.479 L263.328 821.479 L263.328 825.414 L249.254 825.414 L249.254 833.886 Q250.272 833.539 251.291 833.377 Q252.309 833.192 253.328 833.192 Q259.115 833.192 262.494 836.363 Q265.874 839.535 265.874 844.951 Q265.874 850.53 262.402 853.632 Q258.93 856.71 252.61 856.71 Q250.434 856.71 248.166 856.34 Q245.92 855.97 243.513 855.229 L243.513 850.53 Q245.596 851.664 247.819 852.22 Q250.041 852.775 252.518 852.775 Q256.522 852.775 258.86 850.669 Q261.198 848.562 261.198 844.951 Q261.198 841.34 258.86 839.234 Q256.522 837.127 252.518 837.127 Q250.643 837.127 248.768 837.544 Q246.916 837.961 244.971 838.84 L244.971 821.479 Z" fill="#000000" fill-rule="nonzero" fill-opacity="1"></path><path clip-path="url(#clip600)" d="M169.347 652.833 L176.986 652.833 L176.986 626.468 L168.675 628.135 L168.675 623.875 L176.939 622.209 L181.615 622.209 L181.615 652.833 L189.254 652.833 L189.254 656.769 L169.347 656.769 L169.347 652.833 Z" fill="#000000" fill-rule="nonzero" fill-opacity="1"></path><path clip-path="url(#clip600)" d="M198.698 650.889 L203.583 650.889 L203.583 656.769 L198.698 656.769 L198.698 650.889 Z" fill="#000000" fill-rule="nonzero" fill-opacity="1"></path><path clip-path="url(#clip600)" d="M214.578 652.833 L222.217 652.833 L222.217 626.468 L213.907 628.135 L213.907 623.875 L222.17 622.209 L226.846 622.209 L226.846 652.833 L234.485 652.833 L234.485 656.769 L214.578 656.769 L214.578 652.833 Z" fill="#000000" fill-rule="nonzero" fill-opacity="1"></path><path clip-path="url(#clip600)" d="M253.93 625.287 Q250.318 625.287 248.49 628.852 Q246.684 632.394 246.684 639.523 Q246.684 646.63 248.49 650.195 Q250.318 653.736 253.93 653.736 Q257.564 653.736 259.369 650.195 Q261.198 646.63 261.198 639.523 Q261.198 632.394 259.369 628.852 Q257.564 625.287 253.93 625.287 M253.93 621.584 Q259.74 621.584 262.795 626.19 Q265.874 630.773 265.874 639.523 Q265.874 648.25 262.795 652.857 Q259.74 657.44 253.93 657.44 Q248.119 657.44 245.041 652.857 Q241.985 648.25 241.985 639.523 Q241.985 630.773 245.041 626.19 Q248.119 621.584 253.93 621.584 Z" fill="#000000" fill-rule="nonzero" fill-opacity="1"></path><path clip-path="url(#clip600)" d="M170.342 453.563 L177.981 453.563 L177.981 427.197 L169.671 428.864 L169.671 424.605 L177.935 422.938 L182.611 422.938 L182.611 453.563 L190.249 453.563 L190.249 457.498 L170.342 457.498 L170.342 453.563 Z" fill="#000000" fill-rule="nonzero" fill-opacity="1"></path><path clip-path="url(#clip600)" d="M199.694 451.619 L204.578 451.619 L204.578 457.498 L199.694 457.498 L199.694 451.619 Z" fill="#000000" fill-rule="nonzero" fill-opacity="1"></path><path clip-path="url(#clip600)" d="M215.573 453.563 L223.212 453.563 L223.212 427.197 L214.902 428.864 L214.902 424.605 L223.166 422.938 L227.842 422.938 L227.842 453.563 L235.481 453.563 L235.481 457.498 L215.573 457.498 L215.573 453.563 Z" fill="#000000" fill-rule="nonzero" fill-opacity="1"></path><path clip-path="url(#clip600)" d="M244.971 422.938 L263.328 422.938 L263.328 426.873 L249.254 426.873 L249.254 435.346 Q250.272 434.998 251.291 434.836 Q252.309 434.651 253.328 434.651 Q259.115 434.651 262.494 437.822 Q265.874 440.994 265.874 446.41 Q265.874 451.989 262.402 455.091 Q258.93 458.169 252.61 458.169 Q250.434 458.169 248.166 457.799 Q245.92 457.429 243.513 456.688 L243.513 451.989 Q245.596 453.123 247.819 453.679 Q250.041 454.234 252.518 454.234 Q256.522 454.234 258.86 452.128 Q261.198 450.021 261.198 446.41 Q261.198 442.799 258.86 440.693 Q256.522 438.586 252.518 438.586 Q250.643 438.586 248.768 439.003 Q246.916 439.42 244.971 440.299 L244.971 422.938 Z" fill="#000000" fill-rule="nonzero" fill-opacity="1"></path><path clip-path="url(#clip600)" d="M169.347 254.293 L176.986 254.293 L176.986 227.927 L168.675 229.594 L168.675 225.334 L176.939 223.668 L181.615 223.668 L181.615 254.293 L189.254 254.293 L189.254 258.228 L169.347 258.228 L169.347 254.293 Z" fill="#000000" fill-rule="nonzero" fill-opacity="1"></path><path clip-path="url(#clip600)" d="M198.698 252.348 L203.583 252.348 L203.583 258.228 L198.698 258.228 L198.698 252.348 Z" fill="#000000" fill-rule="nonzero" fill-opacity="1"></path><path clip-path="url(#clip600)" d="M217.796 254.293 L234.115 254.293 L234.115 258.228 L212.171 258.228 L212.171 254.293 Q214.833 251.538 219.416 246.908 Q224.022 242.256 225.203 240.913 Q227.448 238.39 228.328 236.654 Q229.231 234.895 229.231 233.205 Q229.231 230.45 227.286 228.714 Q225.365 226.978 222.263 226.978 Q220.064 226.978 217.61 227.742 Q215.18 228.506 212.402 230.057 L212.402 225.334 Q215.226 224.2 217.68 223.621 Q220.133 223.043 222.17 223.043 Q227.541 223.043 230.735 225.728 Q233.93 228.413 233.93 232.904 Q233.93 235.033 233.12 236.955 Q232.332 238.853 230.226 241.445 Q229.647 242.117 226.545 245.334 Q223.444 248.529 217.796 254.293 Z" fill="#000000" fill-rule="nonzero" fill-opacity="1"></path><path clip-path="url(#clip600)" d="M253.93 226.746 Q250.318 226.746 248.49 230.311 Q246.684 233.853 246.684 240.982 Q246.684 248.089 248.49 251.654 Q250.318 255.195 253.93 255.195 Q257.564 255.195 259.369 251.654 Q261.198 248.089 261.198 240.982 Q261.198 233.853 259.369 230.311 Q257.564 226.746 253.93 226.746 M253.93 223.043 Q259.74 223.043 262.795 227.649 Q265.874 232.232 265.874 240.982 Q265.874 249.709 262.795 254.316 Q259.74 258.899 253.93 258.899 Q248.119 258.899 245.041 254.316 Q241.985 249.709 241.985 240.982 Q241.985 232.232 245.041 227.649 Q248.119 223.043 253.93 223.043 Z" fill="#000000" fill-rule="nonzero" fill-opacity="1"></path><path clip-path="url(#clip600)" d="M86.8038 1009.93 L73.5994 1009.93 Q72.8587 1009.93 72.6011 1009.9 Q72.3434 1009.87 72.1502 1009.67 Q71.9569 1009.48 71.9569 1009.09 Q71.9569 1008.35 72.6333 1008.29 Q79.1711 1008.1 82.7781 1004.2 Q86.353 1000.37 86.353 993.797 Q86.353 989.836 83.5188 987.388 Q80.6525 984.94 76.9166 984.94 Q73.3418 984.94 70.8297 987.002 Q69.7025 987.871 68.994 988.966 Q68.2533 990.029 68.0278 990.705 Q67.8024 991.349 67.4803 992.605 Q65.5158 1000.79 65.2903 1001.3 Q63.9699 1005.2 60.6527 1007.58 Q57.3033 1009.93 53.2131 1009.93 Q47.9314 1009.93 44.1955 1006.23 Q40.4274 1002.49 40.4274 997.082 Q40.4274 994.377 41.297 992.122 Q42.1343 989.836 42.9073 988.902 Q43.6802 987.968 45.065 986.518 L41.297 984.232 Q40.4274 983.717 40.4274 983.233 Q40.4274 982.718 40.7495 982.622 Q41.0393 982.493 42.0055 982.493 L55.2743 982.493 Q56.015 982.493 56.2727 982.525 Q56.5303 982.557 56.6914 982.783 Q56.8524 982.976 56.8524 983.362 Q56.8524 984.006 56.0795 984.167 Q42.2953 986.003 42.2953 997.018 Q42.2953 1000.79 44.8396 1003.27 Q47.3517 1005.71 50.9265 1005.71 Q53.825 1005.71 56.2083 1003.91 Q58.5593 1002.11 59.3 999.046 L61.329 990.609 Q62.3274 986.39 66.0633 983.555 Q69.7991 980.721 74.6622 980.721 Q80.2661 980.721 84.324 984.393 Q88.3819 988.032 88.3819 993.733 Q88.3819 997.823 87.0293 1000.98 Q85.6766 1004.14 83.7765 1005.84 Q85.9665 1007.16 87.1903 1008.03 L87.5124 1008.23 Q88.3819 1008.74 88.3819 1009.22 Q88.3819 1009.74 88.0599 1009.84 Q87.7378 1009.93 86.8038 1009.93 Z" fill="#000000" fill-rule="nonzero" fill-opacity="1"></path><path clip-path="url(#clip600)" d="M97.6894 976.071 Q97.6894 972.561 97.2385 971.756 Q96.8199 970.918 94.7265 970.918 L63.8411 970.918 Q61.6511 970.918 61.1036 971.756 Q60.5561 972.561 60.5561 976.071 L58.4949 976.071 L57.7864 966.571 L62.1342 966.571 Q57.7864 962.609 57.7864 957.328 Q57.7864 951.724 62.1342 947.634 Q66.4819 943.543 72.6977 943.543 Q78.9778 943.543 83.3256 947.891 Q87.6734 952.239 87.6734 958.262 Q87.6734 961.547 85.9987 963.769 Q84.2918 965.959 83.0358 966.377 L83.6477 966.377 L94.7265 966.377 Q96.8521 966.377 97.2707 965.54 Q97.6894 964.703 97.6894 961.224 L99.7184 961.224 Q99.5252 968.149 99.5252 968.664 Q99.5252 969.308 99.7184 976.071 L97.6894 976.071 M79.4287 966.377 Q80.4271 966.377 80.7813 966.249 Q81.1356 966.088 82.1984 965.443 Q86.1919 962.835 86.1919 958.584 Q86.1919 958.551 86.1919 958.519 Q86.1919 954.751 82.3594 951.885 Q78.4947 949.018 72.6977 949.018 Q67.1583 949.018 63.2936 951.627 Q59.4289 954.236 59.4289 957.843 Q59.4289 960.419 60.8137 962.674 Q62.1986 964.928 64.7106 966.377 L79.4287 966.377 Z" fill="#000000" fill-rule="nonzero" fill-opacity="1"></path><path clip-path="url(#clip600)" d="M72.4078 934.555 Q66.1921 934.555 61.7799 930.561 Q57.3677 926.568 57.3677 920.835 Q57.3677 915.038 61.1358 912.043 Q64.9039 909.015 70.3144 909.015 Q71.3128 909.015 71.5061 909.273 Q71.6993 909.531 71.6993 910.658 L71.6993 929.08 Q78.4303 929.08 81.5865 927.083 Q85.9987 924.313 85.9987 919.643 Q85.9987 918.999 85.8699 918.226 Q85.7411 917.453 85.1936 915.875 Q84.6138 914.297 83.1002 912.912 Q81.5865 911.527 79.2033 910.722 Q78.2693 910.529 78.3015 909.885 Q78.3015 909.015 79.0744 909.015 Q79.6541 909.015 80.9746 909.66 Q82.2628 910.271 83.8087 911.463 Q85.3546 912.655 86.514 914.974 Q87.6734 917.26 87.6734 920.03 Q87.6734 925.827 83.2934 930.207 Q78.8812 934.555 72.4078 934.555 M70.3144 929.015 L70.3144 913.363 Q68.9296 913.363 67.3837 913.621 Q65.8378 913.846 63.7122 914.555 Q61.5544 915.231 60.2018 916.841 Q58.8492 918.452 58.8492 920.835 Q58.8492 921.898 59.3 923.057 Q59.7509 924.184 60.8459 925.569 Q61.9409 926.954 64.4208 927.92 Q66.9006 928.886 70.3144 929.015 Z" fill="#000000" fill-rule="nonzero" fill-opacity="1"></path><path clip-path="url(#clip600)" d="M72.4078 905.559 Q66.1921 905.559 61.7799 901.565 Q57.3677 897.572 57.3677 891.839 Q57.3677 886.042 61.1358 883.047 Q64.9039 880.02 70.3144 880.02 Q71.3128 880.02 71.5061 880.277 Q71.6993 880.535 71.6993 881.662 L71.6993 900.084 Q78.4303 900.084 81.5865 898.087 Q85.9987 895.317 85.9987 890.648 Q85.9987 890.004 85.8699 889.231 Q85.7411 888.458 85.1936 886.88 Q84.6138 885.301 83.1002 883.917 Q81.5865 882.532 79.2033 881.727 Q78.2693 881.533 78.3015 880.889 Q78.3015 880.02 79.0744 880.02 Q79.6541 880.02 80.9746 880.664 Q82.2628 881.276 83.8087 882.467 Q85.3546 883.659 86.514 885.978 Q87.6734 888.264 87.6734 891.034 Q87.6734 896.831 83.2934 901.211 Q78.8812 905.559 72.4078 905.559 M70.3144 900.02 L70.3144 884.368 Q68.9296 884.368 67.3837 884.625 Q65.8378 884.851 63.7122 885.559 Q61.5544 886.235 60.2018 887.846 Q58.8492 889.456 58.8492 891.839 Q58.8492 892.902 59.3 894.061 Q59.7509 895.189 60.8459 896.574 Q61.9409 897.958 64.4208 898.925 Q66.9006 899.891 70.3144 900.02 Z" fill="#000000" fill-rule="nonzero" fill-opacity="1"></path><path clip-path="url(#clip600)" d="M72.7621 876.563 Q66.4819 876.563 62.1342 872.183 Q57.7864 867.803 57.7864 861.877 Q57.7864 856.853 61.8765 853.568 L47.6093 853.568 Q45.1617 853.568 44.5498 854.438 Q43.9378 855.275 43.9378 858.689 L41.8767 858.689 L41.1681 849.188 L81.2 849.188 Q83.6477 849.188 84.2918 848.351 Q84.9037 847.481 84.9037 844.068 L86.9327 844.068 L87.6734 853.761 L83.2934 853.761 Q87.6412 857.175 87.6734 862.586 Q87.6734 868.254 83.3256 872.409 Q78.9778 876.563 72.7621 876.563 M72.8265 871.088 Q78.9456 871.088 81.973 869.188 Q86.1919 866.547 86.1919 862.264 Q86.1919 857.369 81.5865 854.47 Q80.4593 853.729 79.1388 853.761 L65.6124 853.761 Q64.2919 853.761 63.1969 854.47 Q59.2356 857.175 59.2356 861.588 Q59.2356 866.193 63.4546 869.059 Q66.6108 871.088 72.8265 871.088 Z" fill="#000000" fill-rule="nonzero" fill-opacity="1"></path><path clip-path="url(#clip600)" d="M60.5561 822.896 L58.4949 822.896 L57.7864 813.202 L79.6863 813.202 Q81.2644 813.202 82.1984 813.073 Q83.1002 812.944 84.163 812.429 Q85.2258 811.881 85.7088 810.657 Q86.1919 809.401 86.1919 807.405 Q86.1919 803.83 83.2612 801.64 Q80.3305 799.418 75.9827 799.418 L64.2275 799.418 Q61.7799 799.418 61.168 800.287 Q60.5561 801.157 60.5561 804.571 L58.4949 804.571 L57.7864 794.877 L81.2 794.877 Q83.6477 794.877 84.2918 794.039 Q84.9037 793.17 84.9037 789.724 L86.9327 789.724 L87.6734 799.224 L81.7153 799.224 Q87.6412 801.994 87.6734 807.727 Q87.6734 810.625 86.9327 812.622 Q86.1919 814.587 85.2902 815.585 Q84.3562 816.583 82.5849 817.131 Q80.8136 817.646 79.7186 817.711 Q78.6236 817.775 76.498 817.775 L66.6108 817.775 Q62.1342 817.775 61.3612 818.419 Q60.5561 819.063 60.5561 822.896 Z" fill="#000000" fill-rule="nonzero" fill-opacity="1"></path><path clip-path="url(#clip600)" d="M97.6894 791.147 Q97.6894 787.637 97.2385 786.831 Q96.8199 785.994 94.7265 785.994 L63.8411 785.994 Q61.6511 785.994 61.1036 786.831 Q60.5561 787.637 60.5561 791.147 L58.4949 791.147 L57.7864 781.646 L62.1342 781.646 Q57.7864 777.685 57.7864 772.403 Q57.7864 766.799 62.1342 762.709 Q66.4819 758.619 72.6977 758.619 Q78.9778 758.619 83.3256 762.967 Q87.6734 767.315 87.6734 773.337 Q87.6734 776.622 85.9987 778.844 Q84.2918 781.034 83.0358 781.453 L83.6477 781.453 L94.7265 781.453 Q96.8521 781.453 97.2707 780.616 Q97.6894 779.778 97.6894 776.3 L99.7184 776.3 Q99.5252 783.224 99.5252 783.74 Q99.5252 784.384 99.7184 791.147 L97.6894 791.147 M79.4287 781.453 Q80.4271 781.453 80.7813 781.324 Q81.1356 781.163 82.1984 780.519 Q86.1919 777.91 86.1919 773.659 Q86.1919 773.627 86.1919 773.595 Q86.1919 769.827 82.3594 766.96 Q78.4947 764.094 72.6977 764.094 Q67.1583 764.094 63.2936 766.703 Q59.4289 769.311 59.4289 772.918 Q59.4289 775.495 60.8137 777.749 Q62.1986 780.004 64.7106 781.453 L79.4287 781.453 Z" fill="#000000" fill-rule="nonzero" fill-opacity="1"></path><path clip-path="url(#clip600)" d="M8.63719 681.142 Q9.53895 681.142 9.76439 681.561 Q9.95763 681.979 9.95763 683.139 L9.95763 689.322 L29.41 694.217 Q31.1169 694.604 32.5661 694.604 Q34.1764 694.604 34.885 694.121 Q35.5935 693.606 35.5935 692.543 Q35.5935 690.449 33.6933 688.195 Q31.7932 685.908 27.1556 683.976 Q26.5436 683.718 26.4148 683.59 Q26.2538 683.429 26.2538 683.01 Q26.2538 682.205 26.8979 682.205 Q27.1234 682.205 28.1539 682.656 Q29.1845 683.074 30.6982 684.008 Q32.2119 684.91 33.6289 686.102 Q35.046 687.261 36.0766 689.032 Q37.075 690.804 37.075 692.704 Q37.075 695.377 35.3681 697.084 Q33.6611 698.758 30.9881 698.758 Q30.1185 698.758 27.3488 698.082 Q24.5469 697.406 9.95763 693.734 L9.95763 699.564 Q9.95763 700.369 9.92542 700.691 Q9.89322 700.981 9.73219 701.206 Q9.53895 701.399 9.15248 701.399 Q8.54057 701.399 8.28293 701.142 Q7.99307 700.884 7.96087 700.562 Q7.89645 700.208 7.89645 699.403 L7.89645 693.219 L-2.57045 690.643 Q-3.60104 690.385 -4.18074 689.741 Q-4.79265 689.065 -4.85707 688.678 Q-4.95368 688.292 -4.95368 688.002 Q-4.95368 687.132 -4.4706 686.617 Q-4.01971 686.102 -3.18236 686.102 Q-2.73148 686.102 7.89645 688.807 L7.89645 683.01 Q7.89645 682.269 7.92866 681.979 Q7.96087 681.657 8.1219 681.4 Q8.28293 681.142 8.63719 681.142 Z" fill="#000000" fill-rule="nonzero" fill-opacity="1"></path><path clip-path="url(#clip600)" d="M48.8997 656.735 Q49.1026 656.555 49.3055 656.555 Q49.5084 656.555 50.0946 657.006 Q50.6807 657.434 51.4697 658.358 Q52.2588 659.283 53.0027 660.477 Q53.7467 661.672 54.2427 663.431 Q54.7612 665.189 54.7612 667.038 Q54.7612 670.352 52.3941 672.336 Q50.0269 674.297 46.3973 674.297 Q44.0753 674.297 42.0238 673.53 Q39.9497 672.764 38.4843 671.524 Q37.019 670.261 35.9594 668.683 Q34.8773 667.083 34.3588 665.414 Q33.8403 663.746 33.8403 662.191 Q33.8403 659.914 34.99 658.584 Q36.1398 657.254 37.7629 657.254 Q38.1462 657.254 38.6196 657.366 Q39.093 657.456 39.837 657.772 Q40.5809 658.065 41.3249 658.832 Q42.0463 659.598 42.5197 660.725 Q43.5793 663.228 43.5793 667.782 L43.5793 670.239 Q46.4875 670.96 48.3812 670.96 Q49.1252 670.96 49.8917 670.825 Q50.6356 670.69 51.5825 670.329 Q52.5293 669.946 53.138 669.089 Q53.7242 668.21 53.7242 666.947 Q53.7242 666.542 53.7016 666.113 Q53.6791 665.662 53.4311 664.535 Q53.1831 663.386 52.7548 662.371 Q52.3264 661.357 51.4021 660.072 Q50.4553 658.764 49.1702 657.727 Q48.6968 657.366 48.6968 657.118 Q48.6968 656.915 48.8997 656.735 M37.7629 658.787 Q36.523 658.787 35.6889 659.711 Q34.8547 660.613 34.8547 662.191 Q34.8547 662.687 34.9675 663.295 Q35.0802 663.904 35.5536 664.919 Q36.027 665.91 36.8161 666.79 Q37.5826 667.669 39.093 668.548 Q40.5809 669.427 42.5648 669.946 L42.5648 668.052 Q42.5648 667.398 42.5648 666.925 Q42.5423 666.452 42.4521 665.414 Q42.3619 664.355 42.2041 663.588 Q42.0238 662.822 41.6631 661.853 Q41.3024 660.883 40.8289 660.274 Q40.333 659.643 39.5439 659.215 Q38.7549 658.787 37.7629 658.787 Z" fill="#000000" fill-rule="nonzero" fill-opacity="1"></path><path clip-path="url(#clip600)" d="M36.8837 631.012 Q38.1462 631.012 38.8676 631.801 Q39.5665 632.59 39.5665 633.491 Q39.5665 634.348 39.0705 634.799 Q38.5745 635.25 37.9433 635.25 Q37.0866 635.25 36.3427 634.619 Q35.5987 633.987 35.4409 633.041 Q34.8547 633.965 34.8547 635.34 Q34.8547 636.242 35.3282 637.031 Q35.8016 637.797 36.4103 638.271 Q37.019 638.722 37.8982 639.127 Q38.7549 639.511 39.2734 639.669 Q39.7694 639.804 40.3104 639.916 L46.6228 641.495 Q49.6211 642.261 50.6807 642.261 Q51.9883 642.261 52.8675 641.63 Q53.7242 640.999 53.7242 639.736 Q53.7242 639.24 53.5889 638.677 Q53.4311 638.113 53.0253 637.392 Q52.5969 636.648 51.9657 635.994 Q51.3119 635.317 50.2073 634.664 Q49.1026 634.01 47.6823 633.582 Q47.1864 633.446 47.1864 632.995 Q47.1864 632.432 47.6372 632.432 Q48.0205 632.432 48.8321 632.747 Q49.6211 633.041 50.6582 633.694 Q51.6726 634.326 52.5969 635.16 Q53.4987 635.994 54.1299 637.234 Q54.7612 638.474 54.7612 639.826 Q54.7612 641.765 53.7242 643.05 Q52.6871 644.335 51.2443 644.809 Q51.4472 644.921 51.7177 645.079 Q51.9883 645.237 52.5969 645.71 Q53.1831 646.161 53.634 646.68 Q54.0623 647.198 54.4005 648.01 Q54.7612 648.799 54.7612 649.656 Q54.7612 650.738 54.4456 651.707 Q54.1299 652.654 53.4085 653.33 Q52.6871 654.007 51.6952 654.007 Q50.5905 654.007 49.824 653.263 Q49.035 652.496 49.035 651.459 Q49.035 650.805 49.4182 650.287 Q49.8015 649.746 50.6356 649.746 Q51.5599 649.746 52.2588 650.377 Q52.9577 651.008 53.138 651.91 Q53.7242 650.986 53.7242 649.61 Q53.7242 648.123 52.4166 646.95 Q51.109 645.778 48.9223 645.214 Q43.6695 643.817 41.3249 643.276 Q38.9578 642.735 37.9433 642.735 Q36.9964 642.735 36.3427 642.982 Q35.6889 643.23 35.3958 643.659 Q35.0802 644.065 34.9675 644.448 Q34.8547 644.809 34.8547 645.214 Q34.8547 645.891 35.1253 646.657 Q35.3958 647.401 36.027 648.303 Q36.6357 649.182 37.8982 650.016 Q39.1607 650.85 40.8966 651.414 Q41.4151 651.527 41.4151 652.023 Q41.3925 652.564 40.9416 652.564 Q40.5584 652.564 39.7694 652.271 Q38.9578 651.955 37.9433 651.324 Q36.9288 650.67 36.027 649.836 Q35.1027 648.979 34.4715 647.739 Q33.8403 646.477 33.8403 645.124 Q33.8403 644.515 33.9755 643.929 Q34.0882 643.321 34.4264 642.599 Q34.7646 641.855 35.5085 641.202 Q36.2525 640.548 37.3346 640.142 Q36.8161 639.871 36.3201 639.511 Q35.8241 639.127 35.2154 638.541 Q34.5842 637.933 34.2235 637.098 Q33.8403 636.242 33.8403 635.295 Q33.8403 634.371 34.0882 633.469 Q34.3137 632.567 35.0576 631.801 Q35.779 631.012 36.8837 631.012 Z" fill="#000000" fill-rule="nonzero" fill-opacity="1"></path><path clip-path="url(#clip600)" d="M47.6372 606.616 Q50.5454 607.224 52.2137 608.013 Q54.7612 609.276 54.7612 611.418 Q54.7612 613.041 53.7692 614.191 Q52.7773 615.34 51.2894 615.611 Q54.7612 618.564 54.7612 621.63 Q54.7612 624.335 52.7097 626.049 Q50.6356 627.762 47.3667 627.762 Q44.0753 627.762 40.9191 626.139 Q37.7629 624.493 35.8016 621.901 Q33.8403 619.308 33.8403 616.648 Q33.8403 613.83 36.7935 612.387 Q35.9819 612.274 35.3733 611.756 Q34.7646 611.237 34.7646 610.448 Q34.7646 609.84 35.1027 609.479 Q35.4183 609.118 36.0045 609.118 Q36.2976 609.118 37.5826 609.434 L44.0302 611.102 L48.2008 612.116 Q49.7338 612.5 50.2974 612.612 Q50.8611 612.703 51.605 612.703 Q53.7242 612.703 53.7242 611.327 Q53.7242 610.651 53.2958 610.11 Q52.8675 609.569 51.9657 609.141 Q51.0639 608.712 50.2298 608.442 Q49.3731 608.171 48.0205 607.811 Q47.4794 607.698 47.3442 607.608 Q47.1864 607.495 47.1864 607.179 Q47.1864 606.616 47.6372 606.616 M38.9127 612.951 Q38.7098 612.951 38.1462 613.108 Q37.5826 613.266 36.7935 613.627 Q36.0045 613.988 35.4409 614.777 Q34.8547 615.543 34.8547 616.58 Q34.8547 617.978 36.0496 619.443 Q37.2444 620.886 39.2734 621.946 Q40.8966 622.757 44.3007 623.636 Q47.7049 624.493 49.3957 624.493 Q50.4327 624.493 51.357 624.268 Q52.2588 624.02 53.0027 623.321 Q53.7242 622.622 53.7242 621.54 Q53.7242 618.902 50.4553 616.31 Q49.8917 615.814 49.6662 615.701 Q49.4182 615.566 48.7419 615.385 L39.7017 613.086 Q39.0254 612.951 38.9127 612.951 Z" fill="#000000" fill-rule="nonzero" fill-opacity="1"></path><path clip-path="url(#clip600)" d="M48.8997 585.793 Q49.1026 585.612 49.3055 585.612 Q49.5084 585.612 50.0946 586.063 Q50.6807 586.491 51.4697 587.416 Q52.2588 588.34 53.0027 589.535 Q53.7467 590.73 54.2427 592.488 Q54.7612 594.247 54.7612 596.095 Q54.7612 599.544 52.4842 601.573 Q50.2073 603.58 46.9384 603.58 Q43.7597 603.58 40.7162 601.799 Q37.6502 600.018 35.7565 597.132 Q33.8403 594.247 33.8403 591.203 Q33.8403 588.791 34.9675 587.28 Q36.0947 585.77 37.808 585.77 Q39.1381 585.77 39.9497 586.536 Q40.7613 587.303 40.7613 588.34 Q40.7613 589.061 40.3555 589.557 Q39.9272 590.053 39.1381 590.053 Q38.1236 590.053 37.3346 589.219 Q37.019 588.904 36.8837 588.543 Q36.7259 588.16 36.7259 587.934 Q36.7034 587.709 36.7034 587.19 Q35.8241 587.664 35.3507 588.791 Q34.8547 589.896 34.8547 591.158 Q34.8547 593.029 36.1623 594.81 Q37.4473 596.591 39.4763 597.673 Q41.4602 598.755 44.2782 599.454 Q47.0736 600.153 48.6968 600.153 Q50.9287 600.153 52.3264 599.116 Q53.7242 598.079 53.7242 596.005 Q53.7242 595.599 53.7016 595.171 Q53.6791 594.72 53.4311 593.593 Q53.1831 592.443 52.7548 591.429 Q52.3264 590.414 51.4021 589.129 Q50.4553 587.821 49.1702 586.784 Q48.6968 586.424 48.6968 586.176 Q48.6968 585.973 48.8997 585.793 Z" fill="#000000" fill-rule="nonzero" fill-opacity="1"></path><path clip-path="url(#clip600)" d="M34.8547 570.725 Q35.486 570.725 35.6438 571.018 Q35.779 571.311 35.779 572.123 L35.779 576.451 L49.3957 579.878 Q50.5905 580.148 51.605 580.148 Q52.7322 580.148 53.2282 579.81 Q53.7242 579.449 53.7242 578.706 Q53.7242 577.24 52.3941 575.662 Q51.0639 574.061 47.8176 572.709 Q47.3893 572.528 47.2991 572.438 Q47.1864 572.326 47.1864 572.032 Q47.1864 571.469 47.6372 571.469 Q47.7951 571.469 48.5165 571.785 Q49.2379 572.078 50.2974 572.731 Q51.357 573.363 52.349 574.197 Q53.3409 575.008 54.0623 576.248 Q54.7612 577.488 54.7612 578.818 Q54.7612 580.689 53.5663 581.884 Q52.3715 583.057 50.5003 583.057 Q49.8917 583.057 47.9529 582.583 Q45.9915 582.11 35.779 579.54 L35.779 583.62 Q35.779 584.184 35.7565 584.409 Q35.734 584.612 35.6212 584.77 Q35.486 584.905 35.2154 584.905 Q34.7871 584.905 34.6068 584.725 Q34.4039 584.544 34.3813 584.319 Q34.3362 584.071 34.3362 583.507 L34.3362 579.179 L27.0094 577.375 Q26.288 577.195 25.8822 576.744 Q25.4538 576.271 25.4088 576 Q25.3411 575.73 25.3411 575.527 Q25.3411 574.918 25.6793 574.557 Q25.9949 574.197 26.5811 574.197 Q26.8967 574.197 34.3362 576.09 L34.3362 572.032 Q34.3362 571.514 34.3588 571.311 Q34.3813 571.086 34.494 570.905 Q34.6068 570.725 34.8547 570.725 Z" fill="#000000" fill-rule="nonzero" fill-opacity="1"></path><path clip-path="url(#clip600)" d="M72.3567 723.399 L72.3567 531.477 L68.8367 531.477 L68.8367 723.399  Z" fill="#000000" fill-rule="evenodd" fill-opacity="1"></path>
<path clip-path="url(#clip600)" d="M99.6303 703.142 Q100.532 703.142 100.758 703.561 Q100.951 703.979 100.951 705.139 L100.951 711.322 L120.403 716.217 Q122.11 716.604 123.559 716.604 Q125.17 716.604 125.878 716.121 Q126.587 715.606 126.587 714.543 Q126.587 712.449 124.686 710.195 Q122.786 707.908 118.149 705.976 Q117.537 705.718 117.408 705.59 Q117.247 705.429 117.247 705.01 Q117.247 704.205 117.891 704.205 Q118.116 704.205 119.147 704.656 Q120.178 705.074 121.691 706.008 Q123.205 706.91 124.622 708.102 Q126.039 709.261 127.07 711.032 Q128.068 712.804 128.068 714.704 Q128.068 717.377 126.361 719.084 Q124.654 720.758 121.981 720.758 Q121.112 720.758 118.342 720.082 Q115.54 719.406 100.951 715.734 L100.951 721.564 Q100.951 722.369 100.919 722.691 Q100.886 722.981 100.725 723.206 Q100.532 723.399 100.146 723.399 Q99.5337 723.399 99.2761 723.142 Q98.9862 722.884 98.954 722.562 Q98.8896 722.208 98.8896 721.403 L98.8896 715.219 L88.4227 712.643 Q87.3921 712.385 86.8124 711.741 Q86.2005 711.065 86.1361 710.678 Q86.0394 710.292 86.0394 710.002 Q86.0394 709.132 86.5225 708.617 Q86.9734 708.102 87.8108 708.102 Q88.2616 708.102 98.8896 710.807 L98.8896 705.01 Q98.8896 704.269 98.9218 703.979 Q98.954 703.657 99.115 703.4 Q99.2761 703.142 99.6303 703.142 Z" fill="#000000" fill-rule="nonzero" fill-opacity="1"></path><path clip-path="url(#clip600)" d="M117.344 684.506 Q118.336 684.506 119.08 685.318 Q119.801 686.107 119.801 686.964 Q119.801 687.753 119.328 688.249 Q118.832 688.722 118.133 688.722 Q117.209 688.722 116.442 687.933 Q115.676 687.144 115.676 686.22 Q115.676 685.453 116.149 684.98 Q116.623 684.506 117.344 684.506 M139.595 684.101 Q139.775 684.101 140.497 684.303 Q141.196 684.506 142.278 685.002 Q143.337 685.476 144.329 686.129 Q145.321 686.783 146.02 687.865 Q146.719 688.925 146.719 690.142 Q146.719 691.788 145.637 692.87 Q144.555 693.93 142.932 693.93 Q142.052 693.93 139.234 692.87 Q131.028 689.804 130.69 689.691 Q129.405 689.173 128.278 689.173 Q127.759 689.173 127.444 689.286 Q127.106 689.398 126.993 689.624 Q126.858 689.849 126.835 689.985 Q126.813 690.097 126.813 690.323 Q126.813 691.653 128.165 692.893 Q129.518 694.133 132.539 694.989 Q133.102 695.17 133.238 695.282 Q133.373 695.395 133.373 695.733 Q133.35 696.297 132.899 696.297 Q132.764 696.297 132.246 696.139 Q131.705 695.981 130.893 695.688 Q130.059 695.395 129.202 694.877 Q128.323 694.358 127.557 693.727 Q126.79 693.073 126.294 692.149 Q125.798 691.224 125.798 690.187 Q125.798 688.497 126.903 687.46 Q127.985 686.4 129.585 686.4 Q130.465 686.4 132.02 687.009 Q134.049 687.753 134.703 688.023 L139.55 689.827 Q141.308 690.48 141.849 690.683 Q142.368 690.864 142.999 691.022 Q143.608 691.157 144.172 691.157 Q144.961 691.157 145.321 690.909 Q145.682 690.638 145.682 690.052 Q145.682 688.429 144.081 687.234 Q142.458 686.039 139.978 685.34 Q139.911 685.318 139.798 685.295 Q139.234 685.115 139.167 684.935 Q139.144 684.844 139.144 684.664 Q139.144 684.101 139.595 684.101 Z" fill="#000000" fill-rule="nonzero" fill-opacity="1"></path><path clip-path="url(#clip600)" d="M139.595 655.139 Q139.775 655.139 140.474 655.342 Q141.173 655.545 142.255 656.041 Q143.337 656.514 144.329 657.168 Q145.299 657.822 146.02 658.904 Q146.719 659.964 146.719 661.181 Q146.719 662.804 145.637 663.886 Q144.555 664.968 142.932 664.968 Q142.03 664.968 140.79 664.495 Q132.787 661.497 130.036 661.497 Q126.813 661.497 126.813 663.999 Q126.813 665.239 127.286 666.411 Q127.737 667.561 128.368 668.35 Q128.999 669.139 129.879 669.86 Q130.735 670.559 131.321 670.92 Q131.885 671.258 132.449 671.529 L134.748 672.115 Q135.379 672.25 137.837 672.904 L142.007 673.918 Q145.118 674.64 145.411 674.798 Q146.043 675.023 146.381 675.519 Q146.719 676.015 146.719 676.511 Q146.719 677.074 146.381 677.458 Q146.043 677.841 145.457 677.841 Q145.366 677.841 145.028 677.773 Q144.69 677.706 144.217 677.593 Q143.743 677.48 143.473 677.435 L132.809 674.752 Q130.87 674.256 130.262 674.144 Q129.631 674.008 128.932 674.008 Q126.813 674.008 126.813 675.451 Q126.813 676.624 128.21 677.39 Q129.608 678.157 132.313 678.81 Q133.057 679.013 133.215 679.149 Q133.373 679.261 133.373 679.599 Q133.35 680.163 132.899 680.163 Q132.787 680.163 132.043 679.983 Q131.299 679.802 130.239 679.464 Q129.157 679.103 128.436 678.765 Q127.895 678.472 127.647 678.314 Q127.376 678.134 126.858 677.706 Q126.317 677.255 126.069 676.669 Q125.798 676.06 125.798 675.316 Q125.798 673.648 126.88 672.43 Q127.94 671.213 129.811 671.055 Q125.798 668.057 125.798 663.864 Q125.798 661.384 127.106 659.964 Q128.413 658.543 130.735 658.543 Q131.276 658.543 131.975 658.656 Q132.651 658.746 133.508 658.972 Q134.365 659.174 135.019 659.355 Q135.672 659.535 136.732 659.896 Q137.769 660.257 138.22 660.414 Q138.671 660.572 139.73 660.955 Q140.767 661.316 140.88 661.361 Q142.977 662.195 144.172 662.195 Q144.961 662.195 145.321 661.947 Q145.682 661.677 145.682 661.091 Q145.682 659.513 144.126 658.34 Q142.548 657.146 139.978 656.379 Q139.415 656.199 139.279 656.108 Q139.144 655.996 139.144 655.68 Q139.144 655.139 139.595 655.139 Z" fill="#000000" fill-rule="nonzero" fill-opacity="1"></path><path clip-path="url(#clip600)" d="M140.858 633.888 Q141.06 633.707 141.263 633.707 Q141.466 633.707 142.052 634.158 Q142.639 634.586 143.428 635.511 Q144.217 636.435 144.961 637.63 Q145.705 638.825 146.2 640.583 Q146.719 642.342 146.719 644.19 Q146.719 647.504 144.352 649.488 Q141.985 651.449 138.355 651.449 Q136.033 651.449 133.982 650.683 Q131.908 649.916 130.442 648.677 Q128.977 647.414 127.917 645.836 Q126.835 644.235 126.317 642.567 Q125.798 640.899 125.798 639.343 Q125.798 637.066 126.948 635.736 Q128.098 634.406 129.721 634.406 Q130.104 634.406 130.577 634.519 Q131.051 634.609 131.795 634.925 Q132.539 635.218 133.283 635.984 Q134.004 636.751 134.478 637.878 Q135.537 640.38 135.537 644.934 L135.537 647.392 Q138.445 648.113 140.339 648.113 Q141.083 648.113 141.849 647.978 Q142.593 647.842 143.54 647.482 Q144.487 647.098 145.096 646.242 Q145.682 645.363 145.682 644.1 Q145.682 643.694 145.659 643.266 Q145.637 642.815 145.389 641.688 Q145.141 640.538 144.713 639.524 Q144.284 638.509 143.36 637.224 Q142.413 635.917 141.128 634.88 Q140.655 634.519 140.655 634.271 Q140.655 634.068 140.858 633.888 M129.721 635.939 Q128.481 635.939 127.647 636.863 Q126.813 637.765 126.813 639.343 Q126.813 639.839 126.925 640.448 Q127.038 641.057 127.511 642.071 Q127.985 643.063 128.774 643.942 Q129.54 644.822 131.051 645.701 Q132.539 646.58 134.523 647.098 L134.523 645.205 Q134.523 644.551 134.523 644.078 Q134.5 643.604 134.41 642.567 Q134.32 641.508 134.162 640.741 Q133.982 639.975 133.621 639.005 Q133.26 638.036 132.787 637.427 Q132.291 636.796 131.502 636.367 Q130.713 635.939 129.721 635.939 Z" fill="#000000" fill-rule="nonzero" fill-opacity="1"></path><path clip-path="url(#clip600)" d="M128.842 608.164 Q130.104 608.164 130.825 608.953 Q131.524 609.742 131.524 610.644 Q131.524 611.501 131.028 611.952 Q130.532 612.402 129.901 612.402 Q129.044 612.402 128.3 611.771 Q127.557 611.14 127.399 610.193 Q126.813 611.117 126.813 612.493 Q126.813 613.394 127.286 614.183 Q127.759 614.95 128.368 615.423 Q128.977 615.874 129.856 616.28 Q130.713 616.663 131.231 616.821 Q131.727 616.956 132.268 617.069 L138.581 618.647 Q141.579 619.414 142.639 619.414 Q143.946 619.414 144.825 618.782 Q145.682 618.151 145.682 616.889 Q145.682 616.393 145.547 615.829 Q145.389 615.266 144.983 614.544 Q144.555 613.8 143.924 613.146 Q143.27 612.47 142.165 611.816 Q141.06 611.163 139.64 610.734 Q139.144 610.599 139.144 610.148 Q139.144 609.584 139.595 609.584 Q139.978 609.584 140.79 609.9 Q141.579 610.193 142.616 610.847 Q143.63 611.478 144.555 612.312 Q145.457 613.146 146.088 614.386 Q146.719 615.626 146.719 616.979 Q146.719 618.918 145.682 620.203 Q144.645 621.488 143.202 621.961 Q143.405 622.074 143.676 622.232 Q143.946 622.39 144.555 622.863 Q145.141 623.314 145.592 623.832 Q146.02 624.351 146.358 625.162 Q146.719 625.951 146.719 626.808 Q146.719 627.89 146.403 628.86 Q146.088 629.807 145.366 630.483 Q144.645 631.159 143.653 631.159 Q142.548 631.159 141.782 630.415 Q140.993 629.649 140.993 628.612 Q140.993 627.958 141.376 627.439 Q141.759 626.898 142.593 626.898 Q143.518 626.898 144.217 627.53 Q144.915 628.161 145.096 629.063 Q145.682 628.138 145.682 626.763 Q145.682 625.275 144.374 624.103 Q143.067 622.931 140.88 622.367 Q135.627 620.969 133.283 620.428 Q130.916 619.887 129.901 619.887 Q128.954 619.887 128.3 620.135 Q127.647 620.383 127.354 620.811 Q127.038 621.217 126.925 621.6 Q126.813 621.961 126.813 622.367 Q126.813 623.043 127.083 623.81 Q127.354 624.554 127.985 625.456 Q128.594 626.335 129.856 627.169 Q131.118 628.003 132.854 628.567 Q133.373 628.679 133.373 629.175 Q133.35 629.716 132.899 629.716 Q132.516 629.716 131.727 629.423 Q130.916 629.108 129.901 628.476 Q128.887 627.823 127.985 626.989 Q127.061 626.132 126.429 624.892 Q125.798 623.629 125.798 622.277 Q125.798 621.668 125.933 621.082 Q126.046 620.473 126.384 619.752 Q126.722 619.008 127.466 618.354 Q128.21 617.7 129.292 617.295 Q128.774 617.024 128.278 616.663 Q127.782 616.28 127.173 615.694 Q126.542 615.085 126.181 614.251 Q125.798 613.394 125.798 612.448 Q125.798 611.523 126.046 610.621 Q126.271 609.72 127.015 608.953 Q127.737 608.164 128.842 608.164 Z" fill="#000000" fill-rule="nonzero" fill-opacity="1"></path><path clip-path="url(#clip600)" d="M139.595 583.768 Q142.503 584.377 144.172 585.166 Q146.719 586.429 146.719 588.57 Q146.719 590.193 145.727 591.343 Q144.735 592.493 143.247 592.763 Q146.719 595.717 146.719 598.783 Q146.719 601.488 144.667 603.201 Q142.593 604.915 139.325 604.915 Q136.033 604.915 132.877 603.292 Q129.721 601.646 127.759 599.053 Q125.798 596.461 125.798 593.8 Q125.798 590.982 128.751 589.54 Q127.94 589.427 127.331 588.908 Q126.722 588.39 126.722 587.601 Q126.722 586.992 127.061 586.631 Q127.376 586.271 127.962 586.271 Q128.255 586.271 129.54 586.586 L135.988 588.255 L140.159 589.269 Q141.692 589.652 142.255 589.765 Q142.819 589.855 143.563 589.855 Q145.682 589.855 145.682 588.48 Q145.682 587.804 145.254 587.263 Q144.825 586.722 143.924 586.293 Q143.022 585.865 142.188 585.594 Q141.331 585.324 139.978 584.963 Q139.437 584.85 139.302 584.76 Q139.144 584.648 139.144 584.332 Q139.144 583.768 139.595 583.768 M130.87 590.103 Q130.668 590.103 130.104 590.261 Q129.54 590.419 128.751 590.78 Q127.962 591.14 127.399 591.929 Q126.813 592.696 126.813 593.733 Q126.813 595.131 128.007 596.596 Q129.202 598.039 131.231 599.098 Q132.854 599.91 136.259 600.789 Q139.663 601.646 141.353 601.646 Q142.391 601.646 143.315 601.42 Q144.217 601.172 144.961 600.473 Q145.682 599.775 145.682 598.693 Q145.682 596.055 142.413 593.462 Q141.849 592.966 141.624 592.854 Q141.376 592.718 140.7 592.538 L131.66 590.238 Q130.983 590.103 130.87 590.103 Z" fill="#000000" fill-rule="nonzero" fill-opacity="1"></path><path clip-path="url(#clip600)" d="M140.858 562.945 Q141.06 562.765 141.263 562.765 Q141.466 562.765 142.052 563.216 Q142.639 563.644 143.428 564.568 Q144.217 565.493 144.961 566.687 Q145.705 567.882 146.2 569.641 Q146.719 571.399 146.719 573.248 Q146.719 576.697 144.442 578.726 Q142.165 580.732 138.896 580.732 Q135.717 580.732 132.674 578.951 Q129.608 577.17 127.714 574.285 Q125.798 571.399 125.798 568.356 Q125.798 565.943 126.925 564.433 Q128.052 562.923 129.766 562.923 Q131.096 562.923 131.908 563.689 Q132.719 564.456 132.719 565.493 Q132.719 566.214 132.313 566.71 Q131.885 567.206 131.096 567.206 Q130.081 567.206 129.292 566.372 Q128.977 566.056 128.842 565.696 Q128.684 565.312 128.684 565.087 Q128.661 564.861 128.661 564.343 Q127.782 564.816 127.309 565.943 Q126.813 567.048 126.813 568.311 Q126.813 570.182 128.12 571.963 Q129.405 573.744 131.434 574.826 Q133.418 575.908 136.236 576.607 Q139.031 577.306 140.655 577.306 Q142.886 577.306 144.284 576.269 Q145.682 575.232 145.682 573.158 Q145.682 572.752 145.659 572.323 Q145.637 571.873 145.389 570.745 Q145.141 569.596 144.713 568.581 Q144.284 567.567 143.36 566.282 Q142.413 564.974 141.128 563.937 Q140.655 563.576 140.655 563.328 Q140.655 563.125 140.858 562.945 Z" fill="#000000" fill-rule="nonzero" fill-opacity="1"></path><path clip-path="url(#clip600)" d="M126.813 547.878 Q127.444 547.878 127.602 548.171 Q127.737 548.464 127.737 549.275 L127.737 553.604 L141.353 557.03 Q142.548 557.301 143.563 557.301 Q144.69 557.301 145.186 556.963 Q145.682 556.602 145.682 555.858 Q145.682 554.393 144.352 552.815 Q143.022 551.214 139.775 549.861 Q139.347 549.681 139.257 549.591 Q139.144 549.478 139.144 549.185 Q139.144 548.621 139.595 548.621 Q139.753 548.621 140.474 548.937 Q141.196 549.23 142.255 549.884 Q143.315 550.515 144.307 551.349 Q145.299 552.161 146.02 553.401 Q146.719 554.641 146.719 555.971 Q146.719 557.842 145.524 559.037 Q144.329 560.209 142.458 560.209 Q141.849 560.209 139.911 559.736 Q137.949 559.262 127.737 556.692 L127.737 560.773 Q127.737 561.336 127.714 561.562 Q127.692 561.765 127.579 561.923 Q127.444 562.058 127.173 562.058 Q126.745 562.058 126.565 561.877 Q126.362 561.697 126.339 561.472 Q126.294 561.224 126.294 560.66 L126.294 556.332 L118.967 554.528 Q118.246 554.348 117.84 553.897 Q117.412 553.423 117.367 553.153 Q117.299 552.882 117.299 552.679 Q117.299 552.071 117.637 551.71 Q117.953 551.349 118.539 551.349 Q118.854 551.349 126.294 553.243 L126.294 549.185 Q126.294 548.667 126.317 548.464 Q126.339 548.238 126.452 548.058 Q126.565 547.878 126.813 547.878 Z" fill="#000000" fill-rule="nonzero" fill-opacity="1"></path><path clip-path="url(#clip600)" d="M565.583 14.0809 L565.583 22.0612 Q560.924 19.8332 556.792 18.7395 Q552.661 17.6457 548.812 17.6457 Q542.128 17.6457 538.482 20.2383 Q534.877 22.8309 534.877 27.611 Q534.877 31.6214 537.267 33.6873 Q539.698 35.7128 546.422 36.9686 L551.364 37.9813 Q560.519 39.7232 564.854 44.1387 Q569.229 48.5136 569.229 55.8863 Q569.229 64.6767 563.314 69.2137 Q557.441 73.7508 546.058 73.7508 Q541.764 73.7508 536.903 72.7785 Q532.082 71.8063 526.897 69.9024 L526.897 61.4765 Q531.879 64.2716 536.659 65.6895 Q541.44 67.1073 546.058 67.1073 Q553.066 67.1073 556.873 64.3527 Q560.681 61.598 560.681 56.4939 Q560.681 52.0379 557.927 49.5264 Q555.213 47.0148 548.974 45.759 L543.992 44.7868 Q534.837 42.9639 530.745 39.075 Q526.654 35.1862 526.654 28.2591 Q526.654 20.2383 532.284 15.6203 Q537.956 11.0023 547.88 11.0023 Q552.134 11.0023 556.549 11.7719 Q560.965 12.5416 565.583 14.0809 Z" fill="#000000" fill-rule="nonzero" fill-opacity="1"></path><path clip-path="url(#clip600)" d="M588.876 65.7705 L588.876 89.8329 L581.381 89.8329 L581.381 27.2059 L588.876 27.2059 L588.876 34.0924 Q591.225 30.0415 594.79 28.0971 Q598.395 26.1121 603.378 26.1121 Q611.642 26.1121 616.786 32.6746 Q621.971 39.2371 621.971 49.9314 Q621.971 60.6258 616.786 67.1883 Q611.642 73.7508 603.378 73.7508 Q598.395 73.7508 594.79 71.8063 Q591.225 69.8214 588.876 65.7705 M614.234 49.9314 Q614.234 41.7081 610.832 37.0496 Q607.469 32.3505 601.555 32.3505 Q595.641 32.3505 592.238 37.0496 Q588.876 41.7081 588.876 49.9314 Q588.876 58.1548 592.238 62.8538 Q595.641 67.5124 601.555 67.5124 Q607.469 67.5124 610.832 62.8538 Q614.234 58.1548 614.234 49.9314 Z" fill="#000000" fill-rule="nonzero" fill-opacity="1"></path><path clip-path="url(#clip600)" d="M673.134 48.0275 L673.134 51.6733 L638.864 51.6733 Q639.35 59.3701 643.482 63.421 Q647.654 67.4314 655.067 67.4314 Q659.361 67.4314 663.372 66.3781 Q667.423 65.3249 671.393 63.2184 L671.393 70.267 Q667.382 71.9684 663.169 72.8596 Q658.956 73.7508 654.622 73.7508 Q643.765 73.7508 637.405 67.4314 Q631.086 61.1119 631.086 50.3365 Q631.086 39.1965 637.081 32.6746 Q643.117 26.1121 653.325 26.1121 Q662.481 26.1121 667.787 32.0264 Q673.134 37.9003 673.134 48.0275 M665.681 45.84 Q665.6 39.7232 662.237 36.0774 Q658.916 32.4315 653.407 32.4315 Q647.168 32.4315 643.401 35.9558 Q639.674 39.4801 639.107 45.8805 L665.681 45.84 Z" fill="#000000" fill-rule="nonzero" fill-opacity="1"></path><path clip-path="url(#clip600)" d="M724.176 48.0275 L724.176 51.6733 L689.905 51.6733 Q690.391 59.3701 694.523 63.421 Q698.696 67.4314 706.109 67.4314 Q710.403 67.4314 714.413 66.3781 Q718.464 65.3249 722.434 63.2184 L722.434 70.267 Q718.424 71.9684 714.211 72.8596 Q709.998 73.7508 705.663 73.7508 Q694.807 73.7508 688.447 67.4314 Q682.127 61.1119 682.127 50.3365 Q682.127 39.1965 688.123 32.6746 Q694.159 26.1121 704.367 26.1121 Q713.522 26.1121 718.829 32.0264 Q724.176 37.9003 724.176 48.0275 M716.722 45.84 Q716.641 39.7232 713.279 36.0774 Q709.957 32.4315 704.448 32.4315 Q698.21 32.4315 694.442 35.9558 Q690.715 39.4801 690.148 45.8805 L716.722 45.84 Z" fill="#000000" fill-rule="nonzero" fill-opacity="1"></path><path clip-path="url(#clip600)" d="M766.265 34.0924 L766.265 9.54393 L773.718 9.54393 L773.718 72.576 L766.265 72.576 L766.265 65.7705 Q763.915 69.8214 760.31 71.8063 Q756.745 73.7508 751.722 73.7508 Q743.499 73.7508 738.313 67.1883 Q733.169 60.6258 733.169 49.9314 Q733.169 39.2371 738.313 32.6746 Q743.499 26.1121 751.722 26.1121 Q756.745 26.1121 760.31 28.0971 Q763.915 30.0415 766.265 34.0924 M740.866 49.9314 Q740.866 58.1548 744.228 62.8538 Q747.631 67.5124 753.545 67.5124 Q759.459 67.5124 762.862 62.8538 Q766.265 58.1548 766.265 49.9314 Q766.265 41.7081 762.862 37.0496 Q759.459 32.3505 753.545 32.3505 Q747.631 32.3505 744.228 37.0496 Q740.866 41.7081 740.866 49.9314 Z" fill="#000000" fill-rule="nonzero" fill-opacity="1"></path><path clip-path="url(#clip600)" d="M785.304 46.5287 L807.138 46.5287 L807.138 53.1722 L785.304 53.1722 L785.304 46.5287 Z" fill="#000000" fill-rule="nonzero" fill-opacity="1"></path><path clip-path="url(#clip600)" d="M818.238 54.671 L818.238 27.2059 L825.691 27.2059 L825.691 54.3874 Q825.691 60.8284 828.203 64.0691 Q830.715 67.2693 835.738 67.2693 Q841.774 67.2693 845.257 63.421 Q848.782 59.5726 848.782 52.9291 L848.782 27.2059 L856.235 27.2059 L856.235 72.576 L848.782 72.576 L848.782 65.6084 Q846.068 69.7404 842.462 71.7658 Q838.897 73.7508 834.158 73.7508 Q826.34 73.7508 822.289 68.8897 Q818.238 64.0286 818.238 54.671 M836.993 26.1121 L836.993 26.1121 Z" fill="#000000" fill-rule="nonzero" fill-opacity="1"></path><path clip-path="url(#clip600)" d="M878.799 65.7705 L878.799 89.8329 L871.305 89.8329 L871.305 27.2059 L878.799 27.2059 L878.799 34.0924 Q881.148 30.0415 884.713 28.0971 Q888.318 26.1121 893.301 26.1121 Q901.565 26.1121 906.71 32.6746 Q911.895 39.2371 911.895 49.9314 Q911.895 60.6258 906.71 67.1883 Q901.565 73.7508 893.301 73.7508 Q888.318 73.7508 884.713 71.8063 Q881.148 69.8214 878.799 65.7705 M904.157 49.9314 Q904.157 41.7081 900.755 37.0496 Q897.392 32.3505 891.478 32.3505 Q885.564 32.3505 882.161 37.0496 Q878.799 41.7081 878.799 49.9314 Q878.799 58.1548 882.161 62.8538 Q885.564 67.5124 891.478 67.5124 Q897.392 67.5124 900.755 62.8538 Q904.157 58.1548 904.157 49.9314 Z" fill="#000000" fill-rule="nonzero" fill-opacity="1"></path><path clip-path="url(#clip600)" d="M973.59 9.54393 L973.59 15.7418 L966.46 15.7418 Q962.45 15.7418 960.87 17.3622 Q959.331 18.9825 959.331 23.1955 L959.331 27.2059 L971.605 27.2059 L971.605 32.9987 L959.331 32.9987 L959.331 72.576 L951.837 72.576 L951.837 32.9987 L944.707 32.9987 L944.707 27.2059 L951.837 27.2059 L951.837 24.0462 Q951.837 16.471 955.361 13.0277 Q958.885 9.54393 966.541 9.54393 L973.59 9.54393 Z" fill="#000000" fill-rule="nonzero" fill-opacity="1"></path><path clip-path="url(#clip600)" d="M997.409 32.4315 Q991.414 32.4315 987.93 37.1306 Q984.446 41.7891 984.446 49.9314 Q984.446 58.0738 987.89 62.7728 Q991.373 67.4314 997.409 67.4314 Q1003.36 67.4314 1006.85 62.7323 Q1010.33 58.0333 1010.33 49.9314 Q1010.33 41.8701 1006.85 37.1711 Q1003.36 32.4315 997.409 32.4315 M997.409 26.1121 Q1007.13 26.1121 1012.68 32.4315 Q1018.23 38.7509 1018.23 49.9314 Q1018.23 61.0714 1012.68 67.4314 Q1007.13 73.7508 997.409 73.7508 Q987.647 73.7508 982.097 67.4314 Q976.588 61.0714 976.588 49.9314 Q976.588 38.7509 982.097 32.4315 Q987.647 26.1121 997.409 26.1121 Z" fill="#000000" fill-rule="nonzero" fill-opacity="1"></path><path clip-path="url(#clip600)" d="M1056.88 34.1734 Q1055.62 33.4443 1054.12 33.1202 Q1052.66 32.7556 1050.88 32.7556 Q1044.56 32.7556 1041.16 36.8875 Q1037.8 40.9789 1037.8 48.6757 L1037.8 72.576 L1030.3 72.576 L1030.3 27.2059 L1037.8 27.2059 L1037.8 34.2544 Q1040.15 30.1225 1043.91 28.1376 Q1047.68 26.1121 1053.07 26.1121 Q1053.84 26.1121 1054.77 26.2337 Q1055.7 26.3147 1056.84 26.5172 L1056.88 34.1734 Z" fill="#000000" fill-rule="nonzero" fill-opacity="1"></path><path clip-path="url(#clip600)" d="M1114.03 9.54393 L1114.03 15.7418 L1106.91 15.7418 Q1102.89 15.7418 1101.31 17.3622 Q1099.78 18.9825 1099.78 23.1955 L1099.78 27.2059 L1112.05 27.2059 L1112.05 32.9987 L1099.78 32.9987 L1099.78 72.576 L1092.28 72.576 L1092.28 32.9987 L1085.15 32.9987 L1085.15 27.2059 L1092.28 27.2059 L1092.28 24.0462 Q1092.28 16.471 1095.81 13.0277 Q1099.33 9.54393 1106.99 9.54393 L1114.03 9.54393 Z" fill="#000000" fill-rule="nonzero" fill-opacity="1"></path><path clip-path="url(#clip600)" d="M1120.27 27.2059 L1127.73 27.2059 L1127.73 72.576 L1120.27 72.576 L1120.27 27.2059 M1120.27 9.54393 L1127.73 9.54393 L1127.73 18.9825 L1120.27 18.9825 L1120.27 9.54393 Z" fill="#000000" fill-rule="nonzero" fill-opacity="1"></path><path clip-path="url(#clip600)" d="M1181.04 27.2059 L1164.63 49.2833 L1181.89 72.576 L1173.1 72.576 L1159.89 54.752 L1146.69 72.576 L1137.89 72.576 L1155.52 48.8377 L1139.39 27.2059 L1148.18 27.2059 L1160.22 43.369 L1172.25 27.2059 L1181.04 27.2059 Z" fill="#000000" fill-rule="nonzero" fill-opacity="1"></path><path clip-path="url(#clip600)" d="M1228.68 48.0275 L1228.68 51.6733 L1194.4 51.6733 Q1194.89 59.3701 1199.02 63.421 Q1203.2 67.4314 1210.61 67.4314 Q1214.9 67.4314 1218.91 66.3781 Q1222.96 65.3249 1226.93 63.2184 L1226.93 70.267 Q1222.92 71.9684 1218.71 72.8596 Q1214.5 73.7508 1210.16 73.7508 Q1199.31 73.7508 1192.95 67.4314 Q1186.63 61.1119 1186.63 50.3365 Q1186.63 39.1965 1192.62 32.6746 Q1198.66 26.1121 1208.87 26.1121 Q1218.02 26.1121 1223.33 32.0264 Q1228.68 37.9003 1228.68 48.0275 M1221.22 45.84 Q1221.14 39.7232 1217.78 36.0774 Q1214.46 32.4315 1208.95 32.4315 Q1202.71 32.4315 1198.94 35.9558 Q1195.21 39.4801 1194.65 45.8805 L1221.22 45.84 Z" fill="#000000" fill-rule="nonzero" fill-opacity="1"></path><path clip-path="url(#clip600)" d="M1270.76 34.0924 L1270.76 9.54393 L1278.22 9.54393 L1278.22 72.576 L1270.76 72.576 L1270.76 65.7705 Q1268.41 69.8214 1264.81 71.8063 Q1261.24 73.7508 1256.22 73.7508 Q1248 73.7508 1242.81 67.1883 Q1237.67 60.6258 1237.67 49.9314 Q1237.67 39.2371 1242.81 32.6746 Q1248 26.1121 1256.22 26.1121 Q1261.24 26.1121 1264.81 28.0971 Q1268.41 30.0415 1270.76 34.0924 M1245.37 49.9314 Q1245.37 58.1548 1248.73 62.8538 Q1252.13 67.5124 1258.04 67.5124 Q1263.96 67.5124 1267.36 62.8538 Q1270.76 58.1548 1270.76 49.9314 Q1270.76 41.7081 1267.36 37.0496 Q1263.96 32.3505 1258.04 32.3505 Q1252.13 32.3505 1248.73 37.0496 Q1245.37 41.7081 1245.37 49.9314 Z" fill="#000000" fill-rule="nonzero" fill-opacity="1"></path><path clip-path="url(#clip600)" d="M1289.8 46.5287 L1311.64 46.5287 L1311.64 53.1722 L1289.8 53.1722 L1289.8 46.5287 Z" fill="#000000" fill-rule="nonzero" fill-opacity="1"></path><path clip-path="url(#clip600)" d="M1352.43 28.5427 L1352.43 35.5912 Q1349.27 33.9709 1345.87 33.1607 Q1342.47 32.3505 1338.82 32.3505 Q1333.27 32.3505 1330.47 34.0519 Q1327.72 35.7533 1327.72 39.156 Q1327.72 41.7486 1329.7 43.2475 Q1331.69 44.7058 1337.69 46.0426 L1340.24 46.6097 Q1348.18 48.3111 1351.5 51.4303 Q1354.86 54.509 1354.86 60.0587 Q1354.86 66.3781 1349.84 70.0644 Q1344.86 73.7508 1336.11 73.7508 Q1332.46 73.7508 1328.49 73.0216 Q1324.56 72.3329 1320.19 70.9151 L1320.19 63.2184 Q1324.32 65.3654 1328.33 66.4591 Q1332.34 67.5124 1336.27 67.5124 Q1341.53 67.5124 1344.37 65.73 Q1347.2 63.9071 1347.2 60.6258 Q1347.2 57.5877 1345.14 55.9673 Q1343.11 54.3469 1336.19 52.8481 L1333.59 52.2405 Q1326.67 50.7821 1323.59 47.7845 Q1320.51 44.7463 1320.51 39.4801 Q1320.51 33.0797 1325.05 29.5959 Q1329.58 26.1121 1337.93 26.1121 Q1342.06 26.1121 1345.71 26.7198 Q1349.35 27.3274 1352.43 28.5427 Z" fill="#000000" fill-rule="nonzero" fill-opacity="1"></path><path clip-path="url(#clip600)" d="M1366.73 27.2059 L1374.18 27.2059 L1374.18 72.576 L1366.73 72.576 L1366.73 27.2059 M1366.73 9.54393 L1374.18 9.54393 L1374.18 18.9825 L1366.73 18.9825 L1366.73 9.54393 Z" fill="#000000" fill-rule="nonzero" fill-opacity="1"></path><path clip-path="url(#clip600)" d="M1386.54 27.2059 L1421.94 27.2059 L1421.94 34.0114 L1393.91 66.6212 L1421.94 66.6212 L1421.94 72.576 L1385.53 72.576 L1385.53 65.7705 L1413.56 33.1607 L1386.54 33.1607 L1386.54 27.2059 Z" fill="#000000" fill-rule="nonzero" fill-opacity="1"></path><path clip-path="url(#clip600)" d="M1472.13 48.0275 L1472.13 51.6733 L1437.86 51.6733 Q1438.35 59.3701 1442.48 63.421 Q1446.65 67.4314 1454.07 67.4314 Q1458.36 67.4314 1462.37 66.3781 Q1466.42 65.3249 1470.39 63.2184 L1470.39 70.267 Q1466.38 71.9684 1462.17 72.8596 Q1457.96 73.7508 1453.62 73.7508 Q1442.77 73.7508 1436.41 67.4314 Q1430.09 61.1119 1430.09 50.3365 Q1430.09 39.1965 1436.08 32.6746 Q1442.12 26.1121 1452.33 26.1121 Q1461.48 26.1121 1466.79 32.0264 Q1472.13 37.9003 1472.13 48.0275 M1464.68 45.84 Q1464.6 39.7232 1461.24 36.0774 Q1457.92 32.4315 1452.41 32.4315 Q1446.17 32.4315 1442.4 35.9558 Q1438.67 39.4801 1438.11 45.8805 L1464.68 45.84 Z" fill="#000000" fill-rule="nonzero" fill-opacity="1"></path><path clip-path="url(#clip600)" d="M1511.06 12.096 L1519.25 12.096 L1519.25 72.576 L1511.06 72.576 L1511.06 12.096 Z" fill="#000000" fill-rule="nonzero" fill-opacity="1"></path><path clip-path="url(#clip600)" d="M1572.92 45.1919 L1572.92 72.576 L1565.47 72.576 L1565.47 45.4349 Q1565.47 38.994 1562.96 35.7938 Q1560.44 32.5936 1555.42 32.5936 Q1549.39 32.5936 1545.9 36.4419 Q1542.42 40.2903 1542.42 46.9338 L1542.42 72.576 L1534.92 72.576 L1534.92 27.2059 L1542.42 27.2059 L1542.42 34.2544 Q1545.09 30.163 1548.7 28.1376 Q1552.34 26.1121 1557.08 26.1121 Q1564.9 26.1121 1568.91 30.9732 Q1572.92 35.7938 1572.92 45.1919 Z" fill="#000000" fill-rule="nonzero" fill-opacity="1"></path><path clip-path="url(#clip600)" d="M1626.6 48.0275 L1626.6 51.6733 L1592.33 51.6733 Q1592.81 59.3701 1596.94 63.421 Q1601.12 67.4314 1608.53 67.4314 Q1612.82 67.4314 1616.83 66.3781 Q1620.88 65.3249 1624.85 63.2184 L1624.85 70.267 Q1620.84 71.9684 1616.63 72.8596 Q1612.42 73.7508 1608.08 73.7508 Q1597.23 73.7508 1590.87 67.4314 Q1584.55 61.1119 1584.55 50.3365 Q1584.55 39.1965 1590.54 32.6746 Q1596.58 26.1121 1606.79 26.1121 Q1615.94 26.1121 1621.25 32.0264 Q1626.6 37.9003 1626.6 48.0275 M1619.14 45.84 Q1619.06 39.7232 1615.7 36.0774 Q1612.38 32.4315 1606.87 32.4315 Q1600.63 32.4315 1596.86 35.9558 Q1593.14 39.4801 1592.57 45.8805 L1619.14 45.84 Z" fill="#000000" fill-rule="nonzero" fill-opacity="1"></path><path clip-path="url(#clip600)" d="M1675.09 27.2059 L1658.68 49.2833 L1675.94 72.576 L1667.15 72.576 L1653.94 54.752 L1640.73 72.576 L1631.94 72.576 L1649.56 48.8377 L1633.44 27.2059 L1642.23 27.2059 L1654.26 43.369 L1666.29 27.2059 L1675.09 27.2059 Z" fill="#000000" fill-rule="nonzero" fill-opacity="1"></path><path clip-path="url(#clip600)" d="M1707.09 49.7694 Q1698.05 49.7694 1694.57 51.8354 Q1691.09 53.9013 1691.09 58.8839 Q1691.09 62.8538 1693.68 65.2034 Q1696.31 67.5124 1700.81 67.5124 Q1707.01 67.5124 1710.73 63.1374 Q1714.5 58.7219 1714.5 51.4303 L1714.5 49.7694 L1707.09 49.7694 M1721.95 46.6907 L1721.95 72.576 L1714.5 72.576 L1714.5 65.6895 Q1711.95 69.8214 1708.14 71.8063 Q1704.33 73.7508 1698.82 73.7508 Q1691.86 73.7508 1687.72 69.8619 Q1683.63 65.9325 1683.63 59.3701 Q1683.63 51.7138 1688.74 47.825 Q1693.88 43.9361 1704.05 43.9361 L1714.5 43.9361 L1714.5 43.2069 Q1714.5 38.0623 1711.1 35.2672 Q1707.74 32.4315 1701.62 32.4315 Q1697.73 32.4315 1694.04 33.3632 Q1690.36 34.295 1686.95 36.1584 L1686.95 29.2718 Q1691.05 27.692 1694.89 26.9223 Q1698.74 26.1121 1702.39 26.1121 Q1712.23 26.1121 1717.09 31.2163 Q1721.95 36.3204 1721.95 46.6907 Z" fill="#000000" fill-rule="nonzero" fill-opacity="1"></path><path clip-path="url(#clip600)" d="M1769.96 28.9478 L1769.96 35.9153 Q1766.8 34.1734 1763.6 33.3227 Q1760.44 32.4315 1757.2 32.4315 Q1749.95 32.4315 1745.94 37.0496 Q1741.92 41.6271 1741.92 49.9314 Q1741.92 58.2358 1745.94 62.8538 Q1749.95 67.4314 1757.2 67.4314 Q1760.44 67.4314 1763.6 66.5807 Q1766.8 65.6895 1769.96 63.9476 L1769.96 70.8341 Q1766.84 72.2924 1763.48 73.0216 Q1760.15 73.7508 1756.39 73.7508 Q1746.14 73.7508 1740.1 67.3098 Q1734.07 60.8689 1734.07 49.9314 Q1734.07 38.832 1740.14 32.472 Q1746.26 26.1121 1756.87 26.1121 Q1760.32 26.1121 1763.6 26.8413 Q1766.88 27.5299 1769.96 28.9478 Z" fill="#000000" fill-rule="nonzero" fill-opacity="1"></path><path clip-path="url(#clip600)" d="M1790.29 14.324 L1790.29 27.2059 L1805.65 27.2059 L1805.65 32.9987 L1790.29 32.9987 L1790.29 57.6282 Q1790.29 63.1779 1791.79 64.7578 Q1793.33 66.3376 1797.99 66.3376 L1805.65 66.3376 L1805.65 72.576 L1797.99 72.576 Q1789.36 72.576 1786.08 69.3758 Q1782.8 66.1351 1782.8 57.6282 L1782.8 32.9987 L1777.33 32.9987 L1777.33 27.2059 L1782.8 27.2059 L1782.8 14.324 L1790.29 14.324 Z" fill="#000000" fill-rule="nonzero" fill-opacity="1"></path><path clip-path="url(#clip600)" d="M1883.38 63.9476 L1883.38 47.7034 L1870.01 47.7034 L1870.01 40.9789 L1891.48 40.9789 L1891.48 66.9452 Q1886.74 70.3075 1881.03 72.0494 Q1875.32 73.7508 1868.84 73.7508 Q1854.66 73.7508 1846.64 65.4869 Q1838.66 57.1826 1838.66 42.3968 Q1838.66 27.5705 1846.64 19.3066 Q1854.66 11.0023 1868.84 11.0023 Q1874.75 11.0023 1880.06 12.4606 Q1885.41 13.9189 1889.9 16.7545 L1889.9 25.464 Q1885.37 21.6156 1880.26 19.6712 Q1875.16 17.7268 1869.53 17.7268 Q1858.43 17.7268 1852.84 23.9246 Q1847.29 30.1225 1847.29 42.3968 Q1847.29 54.6305 1852.84 60.8284 Q1858.43 67.0263 1869.53 67.0263 Q1873.86 67.0263 1877.27 66.2971 Q1880.67 65.5274 1883.38 63.9476 Z" fill="#000000" fill-rule="nonzero" fill-opacity="1"></path><path clip-path="url(#clip600)" d="M1906.43 12.096 L1918.63 12.096 L1934.06 53.2532 L1949.57 12.096 L1961.77 12.096 L1961.77 72.576 L1953.79 72.576 L1953.79 19.4686 L1938.19 60.9499 L1929.97 60.9499 L1914.37 19.4686 L1914.37 72.576 L1906.43 72.576 L1906.43 12.096 Z" fill="#000000" fill-rule="nonzero" fill-opacity="1"></path><path clip-path="url(#clip600)" d="M2006.69 44.2197 Q2009.33 45.1109 2011.8 48.0275 Q2014.31 50.9442 2016.82 56.0483 L2025.12 72.576 L2016.33 72.576 L2008.6 57.061 Q2005.6 50.9847 2002.76 48.9997 Q1999.97 47.0148 1995.11 47.0148 L1986.19 47.0148 L1986.19 72.576 L1978.01 72.576 L1978.01 12.096 L1996.48 12.096 Q2006.85 12.096 2011.96 16.4305 Q2017.06 20.7649 2017.06 29.5149 Q2017.06 35.2267 2014.39 38.994 Q2011.76 42.7613 2006.69 44.2197 M1986.19 18.8205 L1986.19 40.2903 L1996.48 40.2903 Q2002.4 40.2903 2005.4 37.5762 Q2008.43 34.8216 2008.43 29.5149 Q2008.43 24.2082 2005.4 21.5346 Q2002.4 18.8205 1996.48 18.8205 L1986.19 18.8205 Z" fill="#000000" fill-rule="nonzero" fill-opacity="1"></path><path clip-path="url(#clip600)" d="M2035.66 12.096 L2073.9 12.096 L2073.9 18.9825 L2043.84 18.9825 L2043.84 36.8875 L2072.64 36.8875 L2072.64 43.7741 L2043.84 43.7741 L2043.84 65.6895 L2074.63 65.6895 L2074.63 72.576 L2035.66 72.576 L2035.66 12.096 Z" fill="#000000" fill-rule="nonzero" fill-opacity="1"></path><path clip-path="url(#clip600)" d="M2124.33 14.0809 L2124.33 22.0612 Q2119.67 19.8332 2115.54 18.7395 Q2111.41 17.6457 2107.56 17.6457 Q2100.88 17.6457 2097.23 20.2383 Q2093.62 22.8309 2093.62 27.611 Q2093.62 31.6214 2096.01 33.6873 Q2098.45 35.7128 2105.17 36.9686 L2110.11 37.9813 Q2119.27 39.7232 2123.6 44.1387 Q2127.98 48.5136 2127.98 55.8863 Q2127.98 64.6767 2122.06 69.2137 Q2116.19 73.7508 2104.8 73.7508 Q2100.51 73.7508 2095.65 72.7785 Q2090.83 71.8063 2085.64 69.9024 L2085.64 61.4765 Q2090.63 64.2716 2095.41 65.6895 Q2100.19 67.1073 2104.8 67.1073 Q2111.81 67.1073 2115.62 64.3527 Q2119.43 61.598 2119.43 56.4939 Q2119.43 52.0379 2116.67 49.5264 Q2113.96 47.0148 2107.72 45.759 L2102.74 44.7868 Q2093.58 42.9639 2089.49 39.075 Q2085.4 35.1862 2085.4 28.2591 Q2085.4 20.2383 2091.03 15.6203 Q2096.7 11.0023 2106.63 11.0023 Q2110.88 11.0023 2115.3 11.7719 Q2119.71 12.5416 2124.33 14.0809 Z" fill="#000000" fill-rule="nonzero" fill-opacity="1"></path><circle clip-path="url(#clip602)" cx="2294.71" cy="1374.46" r="14.4" fill="#009af9" fill-rule="evenodd" fill-opacity="1" stroke="#000000" stroke-opacity="1" stroke-width="3.2"></circle>
<circle clip-path="url(#clip602)" cx="1972.25" cy="664.016" r="14.4" fill="#009af9" fill-rule="evenodd" fill-opacity="1" stroke="#000000" stroke-opacity="1" stroke-width="3.2"></circle>
<circle clip-path="url(#clip602)" cx="1649.78" cy="197.771" r="14.4" fill="#009af9" fill-rule="evenodd" fill-opacity="1" stroke="#000000" stroke-opacity="1" stroke-width="3.2"></circle>
<circle clip-path="url(#clip602)" cx="1327.31" cy="159.909" r="14.4" fill="#009af9" fill-rule="evenodd" fill-opacity="1" stroke="#000000" stroke-opacity="1" stroke-width="3.2"></circle>
<circle clip-path="url(#clip602)" cx="1004.85" cy="415.971" r="14.4" fill="#009af9" fill-rule="evenodd" fill-opacity="1" stroke="#000000" stroke-opacity="1" stroke-width="3.2"></circle>
<circle clip-path="url(#clip602)" cx="682.384" cy="502.641" r="14.4" fill="#009af9" fill-rule="evenodd" fill-opacity="1" stroke="#000000" stroke-opacity="1" stroke-width="3.2"></circle>
<circle clip-path="url(#clip602)" cx="359.918" cy="677.862" r="14.4" fill="#009af9" fill-rule="evenodd" fill-opacity="1" stroke="#000000" stroke-opacity="1" stroke-width="3.2"></circle>
</svg>