<svg xmlns="http://www.w3.org/2000/svg" xmlns:xlink="http://www.w3.org/1999/xlink" width="600" height="400" viewBox="0 0 2400 1600">
<defs>
  <clipPath id="clip990">
    <rect x="0" y="0" width="2400" height="1600"></rect>
  </clipPath>
</defs>
<path clip-path="url(#clip990)" d="M0 1600 L2400 1600 L2400 0 L0 0  Z" fill="#ffffff" fill-rule="evenodd" fill-opacity="1"></path>
<defs>
  <clipPath id="clip991">
    <rect x="480" y="0" width="1681" height="1600"></rect>
  </clipPath>
</defs>
<path clip-path="url(#clip990)" d="M234.125 1423.18 L2352.76 1423.18 L2352.76 123.472 L234.125 123.472  Z" fill="#ffffff" fill-rule="evenodd" fill-opacity="1"></path>
<defs>
  <clipPath id="clip992">
    <rect x="234" y="123" width="2120" height="1301"></rect>
  </clipPath>
</defs>
<polyline clip-path="url(#clip992)" style="stroke:#000000; stroke-linecap:round; stroke-linejoin:round; stroke-width:2; stroke-opacity:0.1; fill:none" points="294.087,1423.18 294.087,123.472 "></polyline>
<polyline clip-path="url(#clip992)" style="stroke:#000000; stroke-linecap:round; stroke-linejoin:round; stroke-width:2; stroke-opacity:0.1; fill:none" points="859.808,1423.18 859.808,123.472 "></polyline>
<polyline clip-path="url(#clip992)" style="stroke:#000000; stroke-linecap:round; stroke-linejoin:round; stroke-width:2; stroke-opacity:0.1; fill:none" points="1291.02,1423.18 1291.02,123.472 "></polyline>
<polyline clip-path="url(#clip992)" style="stroke:#000000; stroke-linecap:round; stroke-linejoin:round; stroke-width:2; stroke-opacity:0.1; fill:none" points="1722.22,1423.18 1722.22,123.472 "></polyline>
<polyline clip-path="url(#clip992)" style="stroke:#000000; stroke-linecap:round; stroke-linejoin:round; stroke-width:2; stroke-opacity:0.1; fill:none" points="2292.79,1423.18 2292.79,123.472 "></polyline>
<polyline clip-path="url(#clip990)" style="stroke:#000000; stroke-linecap:round; stroke-linejoin:round; stroke-width:4; stroke-opacity:1; fill:none" points="234.125,1423.18 2352.76,1423.18 "></polyline>
<polyline clip-path="url(#clip990)" style="stroke:#000000; stroke-linecap:round; stroke-linejoin:round; stroke-width:4; stroke-opacity:1; fill:none" points="294.087,1423.18 294.087,1404.28 "></polyline>
<polyline clip-path="url(#clip990)" style="stroke:#000000; stroke-linecap:round; stroke-linejoin:round; stroke-width:4; stroke-opacity:1; fill:none" points="859.808,1423.18 859.808,1404.28 "></polyline>
<polyline clip-path="url(#clip990)" style="stroke:#000000; stroke-linecap:round; stroke-linejoin:round; stroke-width:4; stroke-opacity:1; fill:none" points="1291.02,1423.18 1291.02,1404.28 "></polyline>
<polyline clip-path="url(#clip990)" style="stroke:#000000; stroke-linecap:round; stroke-linejoin:round; stroke-width:4; stroke-opacity:1; fill:none" points="1722.22,1423.18 1722.22,1404.28 "></polyline>
<polyline clip-path="url(#clip990)" style="stroke:#000000; stroke-linecap:round; stroke-linejoin:round; stroke-width:4; stroke-opacity:1; fill:none" points="2292.79,1423.18 2292.79,1404.28 "></polyline>
<path clip-path="url(#clip990)" d="M238.612 1481.64 L246.251 1481.64 L246.251 1455.28 L237.941 1456.95 L237.941 1452.69 L246.205 1451.02 L250.881 1451.02 L250.881 1481.64 L258.52 1481.64 L258.52 1485.58 L238.612 1485.58 L238.612 1481.64 Z" fill="#000000" fill-rule="nonzero" fill-opacity="1"></path><path clip-path="url(#clip990)" d="M278.543 1466.44 Q275.395 1466.44 273.543 1468.59 Q271.714 1470.74 271.714 1474.49 Q271.714 1478.22 273.543 1480.39 Q275.395 1482.55 278.543 1482.55 Q281.691 1482.55 283.52 1480.39 Q285.371 1478.22 285.371 1474.49 Q285.371 1470.74 283.52 1468.59 Q281.691 1466.44 278.543 1466.44 M287.825 1451.78 L287.825 1456.04 Q286.066 1455.21 284.26 1454.77 Q282.478 1454.33 280.719 1454.33 Q276.089 1454.33 273.635 1457.45 Q271.205 1460.58 270.858 1466.9 Q272.223 1464.89 274.284 1463.82 Q276.344 1462.73 278.821 1462.73 Q284.029 1462.73 287.038 1465.9 Q290.071 1469.05 290.071 1474.49 Q290.071 1479.82 286.922 1483.03 Q283.774 1486.25 278.543 1486.25 Q272.547 1486.25 269.376 1481.67 Q266.205 1477.06 266.205 1468.33 Q266.205 1460.14 270.094 1455.28 Q273.983 1450.39 280.534 1450.39 Q282.293 1450.39 284.075 1450.74 Q285.881 1451.09 287.825 1451.78 Z" fill="#000000" fill-rule="nonzero" fill-opacity="1"></path><path clip-path="url(#clip990)" d="M298.172 1451.02 L316.529 1451.02 L316.529 1454.96 L302.455 1454.96 L302.455 1463.43 Q303.473 1463.08 304.492 1462.92 Q305.51 1462.73 306.529 1462.73 Q312.316 1462.73 315.695 1465.9 Q319.075 1469.08 319.075 1474.49 Q319.075 1480.07 315.603 1483.17 Q312.131 1486.25 305.811 1486.25 Q303.635 1486.25 301.367 1485.88 Q299.121 1485.51 296.714 1484.77 L296.714 1480.07 Q298.797 1481.2 301.02 1481.76 Q303.242 1482.32 305.719 1482.32 Q309.723 1482.32 312.061 1480.21 Q314.399 1478.1 314.399 1474.49 Q314.399 1470.88 312.061 1468.77 Q309.723 1466.67 305.719 1466.67 Q303.844 1466.67 301.969 1467.08 Q300.117 1467.5 298.172 1468.38 L298.172 1451.02 Z" fill="#000000" fill-rule="nonzero" fill-opacity="1"></path><path clip-path="url(#clip990)" d="M338.288 1454.1 Q334.677 1454.1 332.848 1457.66 Q331.043 1461.2 331.043 1468.33 Q331.043 1475.44 332.848 1479.01 Q334.677 1482.55 338.288 1482.55 Q341.922 1482.55 343.728 1479.01 Q345.556 1475.44 345.556 1468.33 Q345.556 1461.2 343.728 1457.66 Q341.922 1454.1 338.288 1454.1 M338.288 1450.39 Q344.098 1450.39 347.154 1455 Q350.232 1459.58 350.232 1468.33 Q350.232 1477.06 347.154 1481.67 Q344.098 1486.25 338.288 1486.25 Q332.478 1486.25 329.399 1481.67 Q326.343 1477.06 326.343 1468.33 Q326.343 1459.58 329.399 1455 Q332.478 1450.39 338.288 1450.39 Z" fill="#000000" fill-rule="nonzero" fill-opacity="1"></path><path clip-path="url(#clip990)" d="M817.818 1455.09 L806.012 1473.54 L817.818 1473.54 L817.818 1455.09 M816.591 1451.02 L822.471 1451.02 L822.471 1473.54 L827.401 1473.54 L827.401 1477.43 L822.471 1477.43 L822.471 1485.58 L817.818 1485.58 L817.818 1477.43 L802.216 1477.43 L802.216 1472.92 L816.591 1451.02 Z" fill="#000000" fill-rule="nonzero" fill-opacity="1"></path><path clip-path="url(#clip990)" d="M845.133 1454.1 Q841.521 1454.1 839.693 1457.66 Q837.887 1461.2 837.887 1468.33 Q837.887 1475.44 839.693 1479.01 Q841.521 1482.55 845.133 1482.55 Q848.767 1482.55 850.572 1479.01 Q852.401 1475.44 852.401 1468.33 Q852.401 1461.2 850.572 1457.66 Q848.767 1454.1 845.133 1454.1 M845.133 1450.39 Q850.943 1450.39 853.998 1455 Q857.077 1459.58 857.077 1468.33 Q857.077 1477.06 853.998 1481.67 Q850.943 1486.25 845.133 1486.25 Q839.322 1486.25 836.244 1481.67 Q833.188 1477.06 833.188 1468.33 Q833.188 1459.58 836.244 1455 Q839.322 1450.39 845.133 1450.39 Z" fill="#000000" fill-rule="nonzero" fill-opacity="1"></path><path clip-path="url(#clip990)" d="M865.433 1484.86 L865.433 1480.6 Q867.193 1481.44 868.998 1481.88 Q870.804 1482.32 872.54 1482.32 Q877.169 1482.32 879.6 1479.21 Q882.054 1476.09 882.401 1469.75 Q881.058 1471.74 878.998 1472.8 Q876.938 1473.87 874.438 1473.87 Q869.253 1473.87 866.22 1470.74 Q863.211 1467.59 863.211 1462.15 Q863.211 1456.83 866.359 1453.61 Q869.507 1450.39 874.739 1450.39 Q880.734 1450.39 883.882 1455 Q887.054 1459.58 887.054 1468.33 Q887.054 1476.51 883.165 1481.39 Q879.299 1486.25 872.748 1486.25 Q870.989 1486.25 869.183 1485.9 Q867.378 1485.56 865.433 1484.86 M874.739 1470.21 Q877.887 1470.21 879.716 1468.06 Q881.568 1465.9 881.568 1462.15 Q881.568 1458.43 879.716 1456.27 Q877.887 1454.1 874.739 1454.1 Q871.591 1454.1 869.739 1456.27 Q867.91 1458.43 867.91 1462.15 Q867.91 1465.9 869.739 1468.06 Q871.591 1470.21 874.739 1470.21 Z" fill="#000000" fill-rule="nonzero" fill-opacity="1"></path><path clip-path="url(#clip990)" d="M905.456 1454.1 Q901.845 1454.1 900.017 1457.66 Q898.211 1461.2 898.211 1468.33 Q898.211 1475.44 900.017 1479.01 Q901.845 1482.55 905.456 1482.55 Q909.091 1482.55 910.896 1479.01 Q912.725 1475.44 912.725 1468.33 Q912.725 1461.2 910.896 1457.66 Q909.091 1454.1 905.456 1454.1 M905.456 1450.39 Q911.266 1450.39 914.322 1455 Q917.401 1459.58 917.401 1468.33 Q917.401 1477.06 914.322 1481.67 Q911.266 1486.25 905.456 1486.25 Q899.646 1486.25 896.567 1481.67 Q893.512 1477.06 893.512 1468.33 Q893.512 1459.58 896.567 1455 Q899.646 1450.39 905.456 1450.39 Z" fill="#000000" fill-rule="nonzero" fill-opacity="1"></path><path clip-path="url(#clip990)" d="M1245.73 1469.17 Q1242.39 1469.17 1240.47 1470.95 Q1238.57 1472.73 1238.57 1475.86 Q1238.57 1478.98 1240.47 1480.77 Q1242.39 1482.55 1245.73 1482.55 Q1249.06 1482.55 1250.98 1480.77 Q1252.9 1478.96 1252.9 1475.86 Q1252.9 1472.73 1250.98 1470.95 Q1249.08 1469.17 1245.73 1469.17 M1241.05 1467.18 Q1238.04 1466.44 1236.35 1464.38 Q1234.68 1462.32 1234.68 1459.35 Q1234.68 1455.21 1237.62 1452.8 Q1240.59 1450.39 1245.73 1450.39 Q1250.89 1450.39 1253.83 1452.8 Q1256.77 1455.21 1256.77 1459.35 Q1256.77 1462.32 1255.08 1464.38 Q1253.41 1466.44 1250.43 1467.18 Q1253.8 1467.96 1255.68 1470.26 Q1257.58 1472.55 1257.58 1475.86 Q1257.58 1480.88 1254.5 1483.57 Q1251.44 1486.25 1245.73 1486.25 Q1240.01 1486.25 1236.93 1483.57 Q1233.87 1480.88 1233.87 1475.86 Q1233.87 1472.55 1235.77 1470.26 Q1237.67 1467.96 1241.05 1467.18 M1239.34 1459.79 Q1239.34 1462.48 1241 1463.98 Q1242.69 1465.49 1245.73 1465.49 Q1248.74 1465.49 1250.43 1463.98 Q1252.14 1462.48 1252.14 1459.79 Q1252.14 1457.11 1250.43 1455.6 Q1248.74 1454.1 1245.73 1454.1 Q1242.69 1454.1 1241 1455.6 Q1239.34 1457.11 1239.34 1459.79 Z" fill="#000000" fill-rule="nonzero" fill-opacity="1"></path><path clip-path="url(#clip990)" d="M1266.7 1481.64 L1274.34 1481.64 L1274.34 1455.28 L1266.03 1456.95 L1266.03 1452.69 L1274.29 1451.02 L1278.97 1451.02 L1278.97 1481.64 L1286.61 1481.64 L1286.61 1485.58 L1266.7 1485.58 L1266.7 1481.64 Z" fill="#000000" fill-rule="nonzero" fill-opacity="1"></path><path clip-path="url(#clip990)" d="M1294.87 1451.02 L1317.09 1451.02 L1317.09 1453.01 L1304.55 1485.58 L1299.66 1485.58 L1311.47 1454.96 L1294.87 1454.96 L1294.87 1451.02 Z" fill="#000000" fill-rule="nonzero" fill-opacity="1"></path><path clip-path="url(#clip990)" d="M1336.21 1454.1 Q1332.6 1454.1 1330.77 1457.66 Q1328.97 1461.2 1328.97 1468.33 Q1328.97 1475.44 1330.77 1479.01 Q1332.6 1482.55 1336.21 1482.55 Q1339.85 1482.55 1341.65 1479.01 Q1343.48 1475.44 1343.48 1468.33 Q1343.48 1461.2 1341.65 1457.66 Q1339.85 1454.1 1336.21 1454.1 M1336.21 1450.39 Q1342.02 1450.39 1345.08 1455 Q1348.16 1459.58 1348.16 1468.33 Q1348.16 1477.06 1345.08 1481.67 Q1342.02 1486.25 1336.21 1486.25 Q1330.4 1486.25 1327.32 1481.67 Q1324.27 1477.06 1324.27 1468.33 Q1324.27 1459.58 1327.32 1455 Q1330.4 1450.39 1336.21 1450.39 Z" fill="#000000" fill-rule="nonzero" fill-opacity="1"></path><path clip-path="url(#clip990)" d="M1651.67 1481.64 L1659.3 1481.64 L1659.3 1455.28 L1650.99 1456.95 L1650.99 1452.69 L1659.26 1451.02 L1663.93 1451.02 L1663.93 1481.64 L1671.57 1481.64 L1671.57 1485.58 L1651.67 1485.58 L1651.67 1481.64 Z" fill="#000000" fill-rule="nonzero" fill-opacity="1"></path><path clip-path="url(#clip990)" d="M1691.6 1466.44 Q1688.45 1466.44 1686.6 1468.59 Q1684.77 1470.74 1684.77 1474.49 Q1684.77 1478.22 1686.6 1480.39 Q1688.45 1482.55 1691.6 1482.55 Q1694.74 1482.55 1696.57 1480.39 Q1698.42 1478.22 1698.42 1474.49 Q1698.42 1470.74 1696.57 1468.59 Q1694.74 1466.44 1691.6 1466.44 M1700.88 1451.78 L1700.88 1456.04 Q1699.12 1455.21 1697.31 1454.77 Q1695.53 1454.33 1693.77 1454.33 Q1689.14 1454.33 1686.69 1457.45 Q1684.26 1460.58 1683.91 1466.9 Q1685.28 1464.89 1687.34 1463.82 Q1689.4 1462.73 1691.87 1462.73 Q1697.08 1462.73 1700.09 1465.9 Q1703.12 1469.05 1703.12 1474.49 Q1703.12 1479.82 1699.98 1483.03 Q1696.83 1486.25 1691.6 1486.25 Q1685.6 1486.25 1682.43 1481.67 Q1679.26 1477.06 1679.26 1468.33 Q1679.26 1460.14 1683.15 1455.28 Q1687.04 1450.39 1693.59 1450.39 Q1695.35 1450.39 1697.13 1450.74 Q1698.93 1451.09 1700.88 1451.78 Z" fill="#000000" fill-rule="nonzero" fill-opacity="1"></path><path clip-path="url(#clip990)" d="M1725.35 1466.95 Q1728.7 1467.66 1730.58 1469.93 Q1732.48 1472.2 1732.48 1475.53 Q1732.48 1480.65 1728.96 1483.45 Q1725.44 1486.25 1718.96 1486.25 Q1716.78 1486.25 1714.47 1485.81 Q1712.17 1485.39 1709.72 1484.54 L1709.72 1480.02 Q1711.67 1481.16 1713.98 1481.74 Q1716.3 1482.32 1718.82 1482.32 Q1723.22 1482.32 1725.51 1480.58 Q1727.82 1478.84 1727.82 1475.53 Q1727.82 1472.48 1725.67 1470.77 Q1723.54 1469.03 1719.72 1469.03 L1715.69 1469.03 L1715.69 1465.19 L1719.91 1465.19 Q1723.36 1465.19 1725.18 1463.82 Q1727.01 1462.43 1727.01 1459.84 Q1727.01 1457.18 1725.11 1455.77 Q1723.24 1454.33 1719.72 1454.33 Q1717.8 1454.33 1715.6 1454.75 Q1713.4 1455.16 1710.76 1456.04 L1710.76 1451.88 Q1713.42 1451.14 1715.74 1450.77 Q1718.08 1450.39 1720.14 1450.39 Q1725.46 1450.39 1728.56 1452.83 Q1731.67 1455.23 1731.67 1459.35 Q1731.67 1462.22 1730.02 1464.21 Q1728.38 1466.18 1725.35 1466.95 Z" fill="#000000" fill-rule="nonzero" fill-opacity="1"></path><path clip-path="url(#clip990)" d="M1745.37 1481.64 L1761.69 1481.64 L1761.69 1485.58 L1739.74 1485.58 L1739.74 1481.64 Q1742.41 1478.89 1746.99 1474.26 Q1751.6 1469.61 1752.78 1468.27 Q1755.02 1465.74 1755.9 1464.01 Q1756.8 1462.25 1756.8 1460.56 Q1756.8 1457.8 1754.86 1456.07 Q1752.94 1454.33 1749.84 1454.33 Q1747.64 1454.33 1745.18 1455.09 Q1742.75 1455.86 1739.98 1457.41 L1739.98 1452.69 Q1742.8 1451.55 1745.25 1450.97 Q1747.71 1450.39 1749.74 1450.39 Q1755.11 1450.39 1758.31 1453.08 Q1761.5 1455.77 1761.5 1460.26 Q1761.5 1462.39 1760.69 1464.31 Q1759.91 1466.2 1757.8 1468.8 Q1757.22 1469.47 1754.12 1472.69 Q1751.02 1475.88 1745.37 1481.64 Z" fill="#000000" fill-rule="nonzero" fill-opacity="1"></path><path clip-path="url(#clip990)" d="M1781.5 1454.1 Q1777.89 1454.1 1776.06 1457.66 Q1774.26 1461.2 1774.26 1468.33 Q1774.26 1475.44 1776.06 1479.01 Q1777.89 1482.55 1781.5 1482.55 Q1785.14 1482.55 1786.94 1479.01 Q1788.77 1475.44 1788.77 1468.33 Q1788.77 1461.2 1786.94 1457.66 Q1785.14 1454.1 1781.5 1454.1 M1781.5 1450.39 Q1787.31 1450.39 1790.37 1455 Q1793.45 1459.58 1793.45 1468.33 Q1793.45 1477.06 1790.37 1481.67 Q1787.31 1486.25 1781.5 1486.25 Q1775.69 1486.25 1772.61 1481.67 Q1769.56 1477.06 1769.56 1468.33 Q1769.56 1459.58 1772.61 1455 Q1775.69 1450.39 1781.5 1450.39 Z" fill="#000000" fill-rule="nonzero" fill-opacity="1"></path><path clip-path="url(#clip990)" d="M2235.72 1455.09 L2223.92 1473.54 L2235.72 1473.54 L2235.72 1455.09 M2234.5 1451.02 L2240.38 1451.02 L2240.38 1473.54 L2245.31 1473.54 L2245.31 1477.43 L2240.38 1477.43 L2240.38 1485.58 L2235.72 1485.58 L2235.72 1477.43 L2220.12 1477.43 L2220.12 1472.92 L2234.5 1451.02 Z" fill="#000000" fill-rule="nonzero" fill-opacity="1"></path><path clip-path="url(#clip990)" d="M2263.04 1454.1 Q2259.43 1454.1 2257.6 1457.66 Q2255.79 1461.2 2255.79 1468.33 Q2255.79 1475.44 2257.6 1479.01 Q2259.43 1482.55 2263.04 1482.55 Q2266.67 1482.55 2268.48 1479.01 Q2270.31 1475.44 2270.31 1468.33 Q2270.31 1461.2 2268.48 1457.66 Q2266.67 1454.1 2263.04 1454.1 M2263.04 1450.39 Q2268.85 1450.39 2271.9 1455 Q2274.98 1459.58 2274.98 1468.33 Q2274.98 1477.06 2271.9 1481.67 Q2268.85 1486.25 2263.04 1486.25 Q2257.23 1486.25 2254.15 1481.67 Q2251.09 1477.06 2251.09 1468.33 Q2251.09 1459.58 2254.15 1455 Q2257.23 1450.39 2263.04 1450.39 Z" fill="#000000" fill-rule="nonzero" fill-opacity="1"></path><path clip-path="url(#clip990)" d="M2282.02 1451.02 L2304.24 1451.02 L2304.24 1453.01 L2291.7 1485.58 L2286.81 1485.58 L2298.62 1454.96 L2282.02 1454.96 L2282.02 1451.02 Z" fill="#000000" fill-rule="nonzero" fill-opacity="1"></path><path clip-path="url(#clip990)" d="M2312.18 1451.02 L2334.4 1451.02 L2334.4 1453.01 L2321.86 1485.58 L2316.97 1485.58 L2328.78 1454.96 L2312.18 1454.96 L2312.18 1451.02 Z" fill="#000000" fill-rule="nonzero" fill-opacity="1"></path><path clip-path="url(#clip990)" d="M2353.52 1454.1 Q2349.91 1454.1 2348.08 1457.66 Q2346.28 1461.2 2346.28 1468.33 Q2346.28 1475.44 2348.08 1479.01 Q2349.91 1482.55 2353.52 1482.55 Q2357.16 1482.55 2358.96 1479.01 Q2360.79 1475.44 2360.79 1468.33 Q2360.79 1461.2 2358.96 1457.66 Q2357.16 1454.1 2353.52 1454.1 M2353.52 1450.39 Q2359.33 1450.39 2362.39 1455 Q2365.47 1459.58 2365.47 1468.33 Q2365.47 1477.06 2362.39 1481.67 Q2359.33 1486.25 2353.52 1486.25 Q2347.71 1486.25 2344.63 1481.67 Q2341.58 1477.06 2341.58 1468.33 Q2341.58 1459.58 2344.63 1455 Q2347.71 1450.39 2353.52 1450.39 Z" fill="#000000" fill-rule="nonzero" fill-opacity="1"></path><path clip-path="url(#clip990)" d="M973.58 1524.18 L973.58 1530.96 Q970.333 1527.94 966.641 1526.44 Q962.981 1524.95 958.843 1524.95 Q950.695 1524.95 946.366 1529.95 Q942.038 1534.91 942.038 1544.33 Q942.038 1553.72 946.366 1558.72 Q950.695 1563.68 958.843 1563.68 Q962.981 1563.68 966.641 1562.19 Q970.333 1560.69 973.58 1557.67 L973.58 1564.38 Q970.206 1566.68 966.418 1567.82 Q962.663 1568.97 958.461 1568.97 Q947.671 1568.97 941.465 1562.38 Q935.258 1555.76 935.258 1544.33 Q935.258 1532.87 941.465 1526.28 Q947.671 1519.66 958.461 1519.66 Q962.726 1519.66 966.482 1520.81 Q970.27 1521.92 973.58 1524.18 Z" fill="#000000" fill-rule="nonzero" fill-opacity="1"></path><path clip-path="url(#clip990)" d="M997.069 1536.5 Q992.359 1536.5 989.621 1540.19 Q986.884 1543.85 986.884 1550.25 Q986.884 1556.65 989.59 1560.34 Q992.327 1564 997.069 1564 Q1001.75 1564 1004.49 1560.31 Q1007.22 1556.62 1007.22 1550.25 Q1007.22 1543.92 1004.49 1540.23 Q1001.75 1536.5 997.069 1536.5 M997.069 1531.54 Q1004.71 1531.54 1009.07 1536.5 Q1013.43 1541.47 1013.43 1550.25 Q1013.43 1559 1009.07 1564 Q1004.71 1568.97 997.069 1568.97 Q989.399 1568.97 985.038 1564 Q980.709 1559 980.709 1550.25 Q980.709 1541.47 985.038 1536.5 Q989.399 1531.54 997.069 1531.54 Z" fill="#000000" fill-rule="nonzero" fill-opacity="1"></path><path clip-path="url(#clip990)" d="M1053.63 1548.76 L1053.63 1551.62 L1026.7 1551.62 Q1027.08 1557.67 1030.33 1560.85 Q1033.61 1564 1039.43 1564 Q1042.81 1564 1045.96 1563.17 Q1049.14 1562.35 1052.26 1560.69 L1052.26 1566.23 Q1049.11 1567.57 1045.8 1568.27 Q1042.49 1568.97 1039.08 1568.97 Q1030.55 1568.97 1025.56 1564 Q1020.59 1559.04 1020.59 1550.57 Q1020.59 1541.82 1025.3 1536.69 Q1030.04 1531.54 1038.06 1531.54 Q1045.26 1531.54 1049.43 1536.18 Q1053.63 1540.8 1053.63 1548.76 M1047.77 1547.04 Q1047.71 1542.23 1045.07 1539.37 Q1042.46 1536.5 1038.13 1536.5 Q1033.23 1536.5 1030.27 1539.27 Q1027.34 1542.04 1026.89 1547.07 L1047.77 1547.04 Z" fill="#000000" fill-rule="nonzero" fill-opacity="1"></path><path clip-path="url(#clip990)" d="M1081.29 1518.52 L1081.29 1523.39 L1075.69 1523.39 Q1072.53 1523.39 1071.29 1524.66 Q1070.08 1525.93 1070.08 1529.24 L1070.08 1532.4 L1079.73 1532.4 L1079.73 1536.95 L1070.08 1536.95 L1070.08 1568.04 L1064.2 1568.04 L1064.2 1536.95 L1058.59 1536.95 L1058.59 1532.4 L1064.2 1532.4 L1064.2 1529.91 Q1064.2 1523.96 1066.96 1521.26 Q1069.73 1518.52 1075.75 1518.52 L1081.29 1518.52 Z" fill="#000000" fill-rule="nonzero" fill-opacity="1"></path><path clip-path="url(#clip990)" d="M1104.24 1518.52 L1104.24 1523.39 L1098.63 1523.39 Q1095.48 1523.39 1094.24 1524.66 Q1093.03 1525.93 1093.03 1529.24 L1093.03 1532.4 L1102.68 1532.4 L1102.68 1536.95 L1093.03 1536.95 L1093.03 1568.04 L1087.14 1568.04 L1087.14 1536.95 L1081.54 1536.95 L1081.54 1532.4 L1087.14 1532.4 L1087.14 1529.91 Q1087.14 1523.96 1089.91 1521.26 Q1092.68 1518.52 1098.7 1518.52 L1104.24 1518.52 Z" fill="#000000" fill-rule="nonzero" fill-opacity="1"></path><path clip-path="url(#clip990)" d="M1109.14 1532.4 L1114.99 1532.4 L1114.99 1568.04 L1109.14 1568.04 L1109.14 1532.4 M1109.14 1518.52 L1114.99 1518.52 L1114.99 1525.93 L1109.14 1525.93 L1109.14 1518.52 Z" fill="#000000" fill-rule="nonzero" fill-opacity="1"></path><path clip-path="url(#clip990)" d="M1152.9 1533.76 L1152.9 1539.24 Q1150.42 1537.87 1147.9 1537.2 Q1145.42 1536.5 1142.88 1536.5 Q1137.18 1536.5 1134.03 1540.13 Q1130.88 1543.73 1130.88 1550.25 Q1130.88 1556.78 1134.03 1560.4 Q1137.18 1564 1142.88 1564 Q1145.42 1564 1147.9 1563.33 Q1150.42 1562.63 1152.9 1561.26 L1152.9 1566.68 Q1150.45 1567.82 1147.81 1568.39 Q1145.2 1568.97 1142.24 1568.97 Q1134.19 1568.97 1129.44 1563.91 Q1124.7 1558.85 1124.7 1550.25 Q1124.7 1541.53 1129.48 1536.53 Q1134.28 1531.54 1142.62 1531.54 Q1145.33 1531.54 1147.9 1532.11 Q1150.48 1532.65 1152.9 1533.76 Z" fill="#000000" fill-rule="nonzero" fill-opacity="1"></path><path clip-path="url(#clip990)" d="M1163.09 1532.4 L1168.94 1532.4 L1168.94 1568.04 L1163.09 1568.04 L1163.09 1532.4 M1163.09 1518.52 L1168.94 1518.52 L1168.94 1525.93 L1163.09 1525.93 L1163.09 1518.52 Z" fill="#000000" fill-rule="nonzero" fill-opacity="1"></path><path clip-path="url(#clip990)" d="M1211.69 1548.76 L1211.69 1551.62 L1184.76 1551.62 Q1185.14 1557.67 1188.39 1560.85 Q1191.67 1564 1197.49 1564 Q1200.87 1564 1204.02 1563.17 Q1207.2 1562.35 1210.32 1560.69 L1210.32 1566.23 Q1207.17 1567.57 1203.86 1568.27 Q1200.55 1568.97 1197.14 1568.97 Q1188.61 1568.97 1183.62 1564 Q1178.65 1559.04 1178.65 1550.57 Q1178.65 1541.82 1183.36 1536.69 Q1188.1 1531.54 1196.12 1531.54 Q1203.32 1531.54 1207.49 1536.18 Q1211.69 1540.8 1211.69 1548.76 M1205.83 1547.04 Q1205.77 1542.23 1203.13 1539.37 Q1200.52 1536.5 1196.19 1536.5 Q1191.29 1536.5 1188.33 1539.27 Q1185.4 1542.04 1184.95 1547.07 L1205.83 1547.04 Z" fill="#000000" fill-rule="nonzero" fill-opacity="1"></path><path clip-path="url(#clip990)" d="M1250.93 1546.53 L1250.93 1568.04 L1245.08 1568.04 L1245.08 1546.72 Q1245.08 1541.66 1243.1 1539.14 Q1241.13 1536.63 1237.18 1536.63 Q1232.44 1536.63 1229.7 1539.65 Q1226.97 1542.68 1226.97 1547.9 L1226.97 1568.04 L1221.08 1568.04 L1221.08 1532.4 L1226.97 1532.4 L1226.97 1537.93 Q1229.07 1534.72 1231.9 1533.13 Q1234.76 1531.54 1238.49 1531.54 Q1244.63 1531.54 1247.78 1535.36 Q1250.93 1539.14 1250.93 1546.53 Z" fill="#000000" fill-rule="nonzero" fill-opacity="1"></path><path clip-path="url(#clip990)" d="M1268.41 1522.27 L1268.41 1532.4 L1280.47 1532.4 L1280.47 1536.95 L1268.41 1536.95 L1268.41 1556.3 Q1268.41 1560.66 1269.59 1561.9 Q1270.79 1563.14 1274.45 1563.14 L1280.47 1563.14 L1280.47 1568.04 L1274.45 1568.04 Q1267.68 1568.04 1265.1 1565.53 Q1262.52 1562.98 1262.52 1556.3 L1262.52 1536.95 L1258.22 1536.95 L1258.22 1532.4 L1262.52 1532.4 L1262.52 1522.27 L1268.41 1522.27 Z" fill="#000000" fill-rule="nonzero" fill-opacity="1"></path><path clip-path="url(#clip990)" d="M1309.15 1520.52 L1318.73 1520.52 L1330.86 1552.86 L1343.05 1520.52 L1352.63 1520.52 L1352.63 1568.04 L1346.36 1568.04 L1346.36 1526.32 L1334.1 1558.91 L1327.64 1558.91 L1315.39 1526.32 L1315.39 1568.04 L1309.15 1568.04 L1309.15 1520.52 Z" fill="#000000" fill-rule="nonzero" fill-opacity="1"></path><path clip-path="url(#clip990)" d="M1381.34 1550.12 Q1374.24 1550.12 1371.5 1551.75 Q1368.76 1553.37 1368.76 1557.29 Q1368.76 1560.4 1370.8 1562.25 Q1372.87 1564.07 1376.4 1564.07 Q1381.27 1564.07 1384.2 1560.63 Q1387.16 1557.16 1387.16 1551.43 L1387.16 1550.12 L1381.34 1550.12 M1393.02 1547.71 L1393.02 1568.04 L1387.16 1568.04 L1387.16 1562.63 Q1385.15 1565.88 1382.16 1567.44 Q1379.17 1568.97 1374.84 1568.97 Q1369.37 1568.97 1366.12 1565.91 Q1362.91 1562.82 1362.91 1557.67 Q1362.91 1551.65 1366.92 1548.6 Q1370.96 1545.54 1378.95 1545.54 L1387.16 1545.54 L1387.16 1544.97 Q1387.16 1540.93 1384.49 1538.73 Q1381.84 1536.5 1377.04 1536.5 Q1373.98 1536.5 1371.09 1537.23 Q1368.19 1537.97 1365.52 1539.43 L1365.52 1534.02 Q1368.73 1532.78 1371.75 1532.17 Q1374.78 1531.54 1377.64 1531.54 Q1385.38 1531.54 1389.2 1535.55 Q1393.02 1539.56 1393.02 1547.71 Z" fill="#000000" fill-rule="nonzero" fill-opacity="1"></path><path clip-path="url(#clip990)" d="M1410.87 1522.27 L1410.87 1532.4 L1422.94 1532.4 L1422.94 1536.95 L1410.87 1536.95 L1410.87 1556.3 Q1410.87 1560.66 1412.05 1561.9 Q1413.26 1563.14 1416.92 1563.14 L1422.94 1563.14 L1422.94 1568.04 L1416.92 1568.04 Q1410.14 1568.04 1407.56 1565.53 Q1404.98 1562.98 1404.98 1556.3 L1404.98 1536.95 L1400.69 1536.95 L1400.69 1532.4 L1404.98 1532.4 L1404.98 1522.27 L1410.87 1522.27 Z" fill="#000000" fill-rule="nonzero" fill-opacity="1"></path><path clip-path="url(#clip990)" d="M1451.29 1537.87 Q1450.31 1537.3 1449.13 1537.04 Q1447.98 1536.76 1446.58 1536.76 Q1441.62 1536.76 1438.94 1540 Q1436.3 1543.22 1436.3 1549.27 L1436.3 1568.04 L1430.41 1568.04 L1430.41 1532.4 L1436.3 1532.4 L1436.3 1537.93 Q1438.15 1534.69 1441.11 1533.13 Q1444.07 1531.54 1448.3 1531.54 Q1448.91 1531.54 1449.64 1531.63 Q1450.37 1531.7 1451.26 1531.85 L1451.29 1537.87 Z" fill="#000000" fill-rule="nonzero" fill-opacity="1"></path><path clip-path="url(#clip990)" d="M1457.44 1532.4 L1463.29 1532.4 L1463.29 1568.04 L1457.44 1568.04 L1457.44 1532.4 M1457.44 1518.52 L1463.29 1518.52 L1463.29 1525.93 L1457.44 1525.93 L1457.44 1518.52 Z" fill="#000000" fill-rule="nonzero" fill-opacity="1"></path><path clip-path="url(#clip990)" d="M1505.18 1532.4 L1492.29 1549.74 L1505.85 1568.04 L1498.94 1568.04 L1488.57 1554.04 L1478.19 1568.04 L1471.28 1568.04 L1485.13 1549.39 L1472.46 1532.4 L1479.37 1532.4 L1488.82 1545.1 L1498.27 1532.4 L1505.18 1532.4 Z" fill="#000000" fill-rule="nonzero" fill-opacity="1"></path><path clip-path="url(#clip990)" d="M1557.57 1533.45 L1557.57 1538.98 Q1555.09 1537.71 1552.41 1537.07 Q1549.74 1536.44 1546.88 1536.44 Q1542.51 1536.44 1540.32 1537.77 Q1538.15 1539.11 1538.15 1541.79 Q1538.15 1543.82 1539.71 1545 Q1541.27 1546.15 1545.98 1547.2 L1547.99 1547.64 Q1554.23 1548.98 1556.84 1551.43 Q1559.48 1553.85 1559.48 1558.21 Q1559.48 1563.17 1555.53 1566.07 Q1551.62 1568.97 1544.74 1568.97 Q1541.88 1568.97 1538.76 1568.39 Q1535.67 1567.85 1532.23 1566.74 L1532.23 1560.69 Q1535.48 1562.38 1538.63 1563.24 Q1541.78 1564.07 1544.87 1564.07 Q1549.01 1564.07 1551.24 1562.66 Q1553.46 1561.23 1553.46 1558.65 Q1553.46 1556.27 1551.84 1554.99 Q1550.25 1553.72 1544.81 1552.54 L1542.77 1552.07 Q1537.33 1550.92 1534.91 1548.56 Q1532.49 1546.18 1532.49 1542.04 Q1532.49 1537.01 1536.05 1534.27 Q1539.62 1531.54 1546.18 1531.54 Q1549.42 1531.54 1552.29 1532.01 Q1555.15 1532.49 1557.57 1533.45 Z" fill="#000000" fill-rule="nonzero" fill-opacity="1"></path><path clip-path="url(#clip990)" d="M1568.81 1532.4 L1574.66 1532.4 L1574.66 1568.04 L1568.81 1568.04 L1568.81 1532.4 M1568.81 1518.52 L1574.66 1518.52 L1574.66 1525.93 L1568.81 1525.93 L1568.81 1518.52 Z" fill="#000000" fill-rule="nonzero" fill-opacity="1"></path><path clip-path="url(#clip990)" d="M1584.37 1532.4 L1612.19 1532.4 L1612.19 1537.74 L1590.16 1563.37 L1612.19 1563.37 L1612.19 1568.04 L1583.57 1568.04 L1583.57 1562.7 L1605.6 1537.07 L1584.37 1537.07 L1584.37 1532.4 Z" fill="#000000" fill-rule="nonzero" fill-opacity="1"></path><path clip-path="url(#clip990)" d="M1651.62 1548.76 L1651.62 1551.62 L1624.7 1551.62 Q1625.08 1557.67 1628.32 1560.85 Q1631.6 1564 1637.43 1564 Q1640.8 1564 1643.95 1563.17 Q1647.14 1562.35 1650.25 1560.69 L1650.25 1566.23 Q1647.1 1567.57 1643.79 1568.27 Q1640.48 1568.97 1637.08 1568.97 Q1628.55 1568.97 1623.55 1564 Q1618.59 1559.04 1618.59 1550.57 Q1618.59 1541.82 1623.3 1536.69 Q1628.04 1531.54 1636.06 1531.54 Q1643.25 1531.54 1647.42 1536.18 Q1651.62 1540.8 1651.62 1548.76 M1645.77 1547.04 Q1645.7 1542.23 1643.06 1539.37 Q1640.45 1536.5 1636.12 1536.5 Q1631.22 1536.5 1628.26 1539.27 Q1625.33 1542.04 1624.89 1547.07 L1645.77 1547.04 Z" fill="#000000" fill-rule="nonzero" fill-opacity="1"></path><polyline clip-path="url(#clip992)" style="stroke:#000000; stroke-linecap:round; stroke-linejoin:round; stroke-width:2; stroke-opacity:0.1; fill:none" points="234.125,1328.01 2352.76,1328.01 "></polyline>
<polyline clip-path="url(#clip992)" style="stroke:#000000; stroke-linecap:round; stroke-linejoin:round; stroke-width:2; stroke-opacity:0.1; fill:none" points="234.125,1119.48 2352.76,1119.48 "></polyline>
<polyline clip-path="url(#clip992)" style="stroke:#000000; stroke-linecap:round; stroke-linejoin:round; stroke-width:2; stroke-opacity:0.1; fill:none" points="234.125,910.954 2352.76,910.954 "></polyline>
<polyline clip-path="url(#clip992)" style="stroke:#000000; stroke-linecap:round; stroke-linejoin:round; stroke-width:2; stroke-opacity:0.1; fill:none" points="234.125,702.427 2352.76,702.427 "></polyline>
<polyline clip-path="url(#clip992)" style="stroke:#000000; stroke-linecap:round; stroke-linejoin:round; stroke-width:2; stroke-opacity:0.1; fill:none" points="234.125,493.9 2352.76,493.9 "></polyline>
<polyline clip-path="url(#clip992)" style="stroke:#000000; stroke-linecap:round; stroke-linejoin:round; stroke-width:2; stroke-opacity:0.1; fill:none" points="234.125,285.373 2352.76,285.373 "></polyline>
<polyline clip-path="url(#clip990)" style="stroke:#000000; stroke-linecap:round; stroke-linejoin:round; stroke-width:4; stroke-opacity:1; fill:none" points="234.125,1423.18 234.125,123.472 "></polyline>
<polyline clip-path="url(#clip990)" style="stroke:#000000; stroke-linecap:round; stroke-linejoin:round; stroke-width:4; stroke-opacity:1; fill:none" points="234.125,1328.01 253.023,1328.01 "></polyline>
<polyline clip-path="url(#clip990)" style="stroke:#000000; stroke-linecap:round; stroke-linejoin:round; stroke-width:4; stroke-opacity:1; fill:none" points="234.125,1119.48 253.023,1119.48 "></polyline>
<polyline clip-path="url(#clip990)" style="stroke:#000000; stroke-linecap:round; stroke-linejoin:round; stroke-width:4; stroke-opacity:1; fill:none" points="234.125,910.954 253.023,910.954 "></polyline>
<polyline clip-path="url(#clip990)" style="stroke:#000000; stroke-linecap:round; stroke-linejoin:round; stroke-width:4; stroke-opacity:1; fill:none" points="234.125,702.427 253.023,702.427 "></polyline>
<polyline clip-path="url(#clip990)" style="stroke:#000000; stroke-linecap:round; stroke-linejoin:round; stroke-width:4; stroke-opacity:1; fill:none" points="234.125,493.9 253.023,493.9 "></polyline>
<polyline clip-path="url(#clip990)" style="stroke:#000000; stroke-linecap:round; stroke-linejoin:round; stroke-width:4; stroke-opacity:1; fill:none" points="234.125,285.373 253.023,285.373 "></polyline>
<path clip-path="url(#clip990)" d="M146.066 1310.73 L164.422 1310.73 L164.422 1314.66 L150.348 1314.66 L150.348 1323.14 Q151.366 1322.79 152.385 1322.63 Q153.403 1322.44 154.422 1322.44 Q160.209 1322.44 163.589 1325.61 Q166.968 1328.78 166.968 1334.2 Q166.968 1339.78 163.496 1342.88 Q160.024 1345.96 153.704 1345.96 Q151.528 1345.96 149.26 1345.59 Q147.015 1345.22 144.607 1344.48 L144.607 1339.78 Q146.691 1340.91 148.913 1341.47 Q151.135 1342.02 153.612 1342.02 Q157.616 1342.02 159.954 1339.92 Q162.292 1337.81 162.292 1334.2 Q162.292 1330.59 159.954 1328.48 Q157.616 1326.38 153.612 1326.38 Q151.737 1326.38 149.862 1326.79 Q148.01 1327.21 146.066 1328.09 L146.066 1310.73 Z" fill="#000000" fill-rule="nonzero" fill-opacity="1"></path><path clip-path="url(#clip990)" d="M186.181 1313.81 Q182.57 1313.81 180.741 1317.37 Q178.936 1320.91 178.936 1328.04 Q178.936 1335.15 180.741 1338.71 Q182.57 1342.26 186.181 1342.26 Q189.815 1342.26 191.621 1338.71 Q193.45 1335.15 193.45 1328.04 Q193.45 1320.91 191.621 1317.37 Q189.815 1313.81 186.181 1313.81 M186.181 1310.1 Q191.991 1310.1 195.047 1314.71 Q198.125 1319.29 198.125 1328.04 Q198.125 1336.77 195.047 1341.38 Q191.991 1345.96 186.181 1345.96 Q180.371 1345.96 177.292 1341.38 Q174.237 1336.77 174.237 1328.04 Q174.237 1319.29 177.292 1314.71 Q180.371 1310.1 186.181 1310.1 Z" fill="#000000" fill-rule="nonzero" fill-opacity="1"></path><path clip-path="url(#clip990)" d="M116.668 1132.83 L124.306 1132.83 L124.306 1106.46 L115.996 1108.13 L115.996 1103.87 L124.26 1102.2 L128.936 1102.2 L128.936 1132.83 L136.575 1132.83 L136.575 1136.76 L116.668 1136.76 L116.668 1132.83 Z" fill="#000000" fill-rule="nonzero" fill-opacity="1"></path><path clip-path="url(#clip990)" d="M156.019 1105.28 Q152.408 1105.28 150.579 1108.84 Q148.774 1112.39 148.774 1119.52 Q148.774 1126.62 150.579 1130.19 Q152.408 1133.73 156.019 1133.73 Q159.653 1133.73 161.459 1130.19 Q163.288 1126.62 163.288 1119.52 Q163.288 1112.39 161.459 1108.84 Q159.653 1105.28 156.019 1105.28 M156.019 1101.58 Q161.829 1101.58 164.885 1106.18 Q167.964 1110.77 167.964 1119.52 Q167.964 1128.24 164.885 1132.85 Q161.829 1137.43 156.019 1137.43 Q150.209 1137.43 147.13 1132.85 Q144.075 1128.24 144.075 1119.52 Q144.075 1110.77 147.13 1106.18 Q150.209 1101.58 156.019 1101.58 Z" fill="#000000" fill-rule="nonzero" fill-opacity="1"></path><path clip-path="url(#clip990)" d="M186.181 1105.28 Q182.57 1105.28 180.741 1108.84 Q178.936 1112.39 178.936 1119.52 Q178.936 1126.62 180.741 1130.19 Q182.57 1133.73 186.181 1133.73 Q189.815 1133.73 191.621 1130.19 Q193.45 1126.62 193.45 1119.52 Q193.45 1112.39 191.621 1108.84 Q189.815 1105.28 186.181 1105.28 M186.181 1101.58 Q191.991 1101.58 195.047 1106.18 Q198.125 1110.77 198.125 1119.52 Q198.125 1128.24 195.047 1132.85 Q191.991 1137.43 186.181 1137.43 Q180.371 1137.43 177.292 1132.85 Q174.237 1128.24 174.237 1119.52 Q174.237 1110.77 177.292 1106.18 Q180.371 1101.58 186.181 1101.58 Z" fill="#000000" fill-rule="nonzero" fill-opacity="1"></path><path clip-path="url(#clip990)" d="M116.668 924.299 L124.306 924.299 L124.306 897.933 L115.996 899.6 L115.996 895.341 L124.26 893.674 L128.936 893.674 L128.936 924.299 L136.575 924.299 L136.575 928.234 L116.668 928.234 L116.668 924.299 Z" fill="#000000" fill-rule="nonzero" fill-opacity="1"></path><path clip-path="url(#clip990)" d="M146.066 893.674 L164.422 893.674 L164.422 897.609 L150.348 897.609 L150.348 906.081 Q151.366 905.734 152.385 905.572 Q153.403 905.387 154.422 905.387 Q160.209 905.387 163.589 908.558 Q166.968 911.729 166.968 917.146 Q166.968 922.725 163.496 925.826 Q160.024 928.905 153.704 928.905 Q151.528 928.905 149.26 928.535 Q147.015 928.164 144.607 927.424 L144.607 922.725 Q146.691 923.859 148.913 924.414 Q151.135 924.97 153.612 924.97 Q157.616 924.97 159.954 922.864 Q162.292 920.757 162.292 917.146 Q162.292 913.535 159.954 911.428 Q157.616 909.322 153.612 909.322 Q151.737 909.322 149.862 909.739 Q148.01 910.155 146.066 911.035 L146.066 893.674 Z" fill="#000000" fill-rule="nonzero" fill-opacity="1"></path><path clip-path="url(#clip990)" d="M186.181 896.753 Q182.57 896.753 180.741 900.317 Q178.936 903.859 178.936 910.989 Q178.936 918.095 180.741 921.66 Q182.57 925.201 186.181 925.201 Q189.815 925.201 191.621 921.66 Q193.45 918.095 193.45 910.989 Q193.45 903.859 191.621 900.317 Q189.815 896.753 186.181 896.753 M186.181 893.049 Q191.991 893.049 195.047 897.655 Q198.125 902.239 198.125 910.989 Q198.125 919.715 195.047 924.322 Q191.991 928.905 186.181 928.905 Q180.371 928.905 177.292 924.322 Q174.237 919.715 174.237 910.989 Q174.237 902.239 177.292 897.655 Q180.371 893.049 186.181 893.049 Z" fill="#000000" fill-rule="nonzero" fill-opacity="1"></path><path clip-path="url(#clip990)" d="M119.885 715.772 L136.204 715.772 L136.204 719.707 L114.26 719.707 L114.26 715.772 Q116.922 713.017 121.505 708.387 Q126.112 703.735 127.292 702.392 Q129.538 699.869 130.417 698.133 Q131.32 696.374 131.32 694.684 Q131.32 691.929 129.376 690.193 Q127.455 688.457 124.353 688.457 Q122.154 688.457 119.7 689.221 Q117.269 689.985 114.492 691.536 L114.492 686.813 Q117.316 685.679 119.769 685.1 Q122.223 684.522 124.26 684.522 Q129.63 684.522 132.825 687.207 Q136.019 689.892 136.019 694.383 Q136.019 696.512 135.209 698.434 Q134.422 700.332 132.316 702.924 Q131.737 703.596 128.635 706.813 Q125.533 710.008 119.885 715.772 Z" fill="#000000" fill-rule="nonzero" fill-opacity="1"></path><path clip-path="url(#clip990)" d="M156.019 688.225 Q152.408 688.225 150.579 691.79 Q148.774 695.332 148.774 702.461 Q148.774 709.568 150.579 713.133 Q152.408 716.674 156.019 716.674 Q159.653 716.674 161.459 713.133 Q163.288 709.568 163.288 702.461 Q163.288 695.332 161.459 691.79 Q159.653 688.225 156.019 688.225 M156.019 684.522 Q161.829 684.522 164.885 689.128 Q167.964 693.712 167.964 702.461 Q167.964 711.188 164.885 715.795 Q161.829 720.378 156.019 720.378 Q150.209 720.378 147.13 715.795 Q144.075 711.188 144.075 702.461 Q144.075 693.712 147.13 689.128 Q150.209 684.522 156.019 684.522 Z" fill="#000000" fill-rule="nonzero" fill-opacity="1"></path><path clip-path="url(#clip990)" d="M186.181 688.225 Q182.57 688.225 180.741 691.79 Q178.936 695.332 178.936 702.461 Q178.936 709.568 180.741 713.133 Q182.57 716.674 186.181 716.674 Q189.815 716.674 191.621 713.133 Q193.45 709.568 193.45 702.461 Q193.45 695.332 191.621 691.79 Q189.815 688.225 186.181 688.225 M186.181 684.522 Q191.991 684.522 195.047 689.128 Q198.125 693.712 198.125 702.461 Q198.125 711.188 195.047 715.795 Q191.991 720.378 186.181 720.378 Q180.371 720.378 177.292 715.795 Q174.237 711.188 174.237 702.461 Q174.237 693.712 177.292 689.128 Q180.371 684.522 186.181 684.522 Z" fill="#000000" fill-rule="nonzero" fill-opacity="1"></path><path clip-path="url(#clip990)" d="M119.885 507.245 L136.204 507.245 L136.204 511.18 L114.26 511.18 L114.26 507.245 Q116.922 504.49 121.505 499.86 Q126.112 495.208 127.292 493.865 Q129.538 491.342 130.417 489.606 Q131.32 487.846 131.32 486.157 Q131.32 483.402 129.376 481.666 Q127.455 479.93 124.353 479.93 Q122.154 479.93 119.7 480.694 Q117.269 481.458 114.492 483.009 L114.492 478.286 Q117.316 477.152 119.769 476.573 Q122.223 475.995 124.26 475.995 Q129.63 475.995 132.825 478.68 Q136.019 481.365 136.019 485.856 Q136.019 487.985 135.209 489.907 Q134.422 491.805 132.316 494.397 Q131.737 495.069 128.635 498.286 Q125.533 501.481 119.885 507.245 Z" fill="#000000" fill-rule="nonzero" fill-opacity="1"></path><path clip-path="url(#clip990)" d="M146.066 476.62 L164.422 476.62 L164.422 480.555 L150.348 480.555 L150.348 489.027 Q151.366 488.68 152.385 488.518 Q153.403 488.333 154.422 488.333 Q160.209 488.333 163.589 491.504 Q166.968 494.675 166.968 500.092 Q166.968 505.67 163.496 508.772 Q160.024 511.851 153.704 511.851 Q151.528 511.851 149.26 511.481 Q147.015 511.11 144.607 510.369 L144.607 505.67 Q146.691 506.805 148.913 507.36 Q151.135 507.916 153.612 507.916 Q157.616 507.916 159.954 505.809 Q162.292 503.703 162.292 500.092 Q162.292 496.481 159.954 494.374 Q157.616 492.268 153.612 492.268 Q151.737 492.268 149.862 492.684 Q148.01 493.101 146.066 493.981 L146.066 476.62 Z" fill="#000000" fill-rule="nonzero" fill-opacity="1"></path><path clip-path="url(#clip990)" d="M186.181 479.698 Q182.57 479.698 180.741 483.263 Q178.936 486.805 178.936 493.934 Q178.936 501.041 180.741 504.606 Q182.57 508.147 186.181 508.147 Q189.815 508.147 191.621 504.606 Q193.45 501.041 193.45 493.934 Q193.45 486.805 191.621 483.263 Q189.815 479.698 186.181 479.698 M186.181 475.995 Q191.991 475.995 195.047 480.601 Q198.125 485.184 198.125 493.934 Q198.125 502.661 195.047 507.268 Q191.991 511.851 186.181 511.851 Q180.371 511.851 177.292 507.268 Q174.237 502.661 174.237 493.934 Q174.237 485.184 177.292 480.601 Q180.371 475.995 186.181 475.995 Z" fill="#000000" fill-rule="nonzero" fill-opacity="1"></path><path clip-path="url(#clip990)" d="M130.024 284.018 Q133.38 284.736 135.255 287.005 Q137.154 289.273 137.154 292.606 Q137.154 297.722 133.635 300.523 Q130.117 303.324 123.635 303.324 Q121.459 303.324 119.144 302.884 Q116.853 302.467 114.399 301.611 L114.399 297.097 Q116.343 298.231 118.658 298.81 Q120.973 299.389 123.496 299.389 Q127.894 299.389 130.186 297.653 Q132.501 295.916 132.501 292.606 Q132.501 289.551 130.348 287.838 Q128.218 286.102 124.399 286.102 L120.371 286.102 L120.371 282.259 L124.584 282.259 Q128.033 282.259 129.862 280.893 Q131.691 279.505 131.691 276.912 Q131.691 274.25 129.792 272.838 Q127.917 271.403 124.399 271.403 Q122.478 271.403 120.279 271.819 Q118.08 272.236 115.441 273.116 L115.441 268.949 Q118.103 268.208 120.418 267.838 Q122.755 267.468 124.816 267.468 Q130.14 267.468 133.242 269.898 Q136.343 272.306 136.343 276.426 Q136.343 279.296 134.7 281.287 Q133.056 283.255 130.024 284.018 Z" fill="#000000" fill-rule="nonzero" fill-opacity="1"></path><path clip-path="url(#clip990)" d="M156.019 271.171 Q152.408 271.171 150.579 274.736 Q148.774 278.278 148.774 285.407 Q148.774 292.514 150.579 296.079 Q152.408 299.62 156.019 299.62 Q159.653 299.62 161.459 296.079 Q163.288 292.514 163.288 285.407 Q163.288 278.278 161.459 274.736 Q159.653 271.171 156.019 271.171 M156.019 267.468 Q161.829 267.468 164.885 272.074 Q167.964 276.657 167.964 285.407 Q167.964 294.134 164.885 298.741 Q161.829 303.324 156.019 303.324 Q150.209 303.324 147.13 298.741 Q144.075 294.134 144.075 285.407 Q144.075 276.657 147.13 272.074 Q150.209 267.468 156.019 267.468 Z" fill="#000000" fill-rule="nonzero" fill-opacity="1"></path><path clip-path="url(#clip990)" d="M186.181 271.171 Q182.57 271.171 180.741 274.736 Q178.936 278.278 178.936 285.407 Q178.936 292.514 180.741 296.079 Q182.57 299.62 186.181 299.62 Q189.815 299.62 191.621 296.079 Q193.45 292.514 193.45 285.407 Q193.45 278.278 191.621 274.736 Q189.815 271.171 186.181 271.171 M186.181 267.468 Q191.991 267.468 195.047 272.074 Q198.125 276.657 198.125 285.407 Q198.125 294.134 195.047 298.741 Q191.991 303.324 186.181 303.324 Q180.371 303.324 177.292 298.741 Q174.237 294.134 174.237 285.407 Q174.237 276.657 177.292 272.074 Q180.371 267.468 186.181 267.468 Z" fill="#000000" fill-rule="nonzero" fill-opacity="1"></path><path clip-path="url(#clip990)" d="M16.4842 1226.6 L16.4842 1220.17 L64.0042 1220.17 L64.0042 1226.6 L16.4842 1226.6 Z" fill="#000000" fill-rule="nonzero" fill-opacity="1"></path><path clip-path="url(#clip990)" d="M18.2347 1201.83 L28.3562 1201.83 L28.3562 1189.77 L32.9077 1189.77 L32.9077 1201.83 L52.2594 1201.83 Q56.6199 1201.83 57.8613 1200.66 Q59.1026 1199.45 59.1026 1195.79 L59.1026 1189.77 L64.0042 1189.77 L64.0042 1195.79 Q64.0042 1202.57 61.4897 1205.14 Q58.9434 1207.72 52.2594 1207.72 L32.9077 1207.72 L32.9077 1212.02 L28.3562 1212.02 L28.3562 1207.72 L18.2347 1207.72 L18.2347 1201.83 Z" fill="#000000" fill-rule="nonzero" fill-opacity="1"></path><path clip-path="url(#clip990)" d="M44.7161 1151.58 L47.5806 1151.58 L47.5806 1178.5 Q53.6281 1178.12 56.8109 1174.87 Q59.9619 1171.6 59.9619 1165.77 Q59.9619 1162.4 59.1344 1159.25 Q58.3069 1156.06 56.6518 1152.94 L62.1899 1152.94 Q63.5267 1156.1 64.227 1159.41 Q64.9272 1162.72 64.9272 1166.12 Q64.9272 1174.65 59.9619 1179.65 Q54.9967 1184.61 46.5303 1184.61 Q37.7774 1184.61 32.6531 1179.9 Q27.4968 1175.16 27.4968 1167.14 Q27.4968 1159.95 32.1438 1155.78 Q36.7589 1151.58 44.7161 1151.58 M42.9973 1157.43 Q38.1912 1157.5 35.3266 1160.14 Q32.4621 1162.75 32.4621 1167.08 Q32.4621 1171.98 35.2312 1174.94 Q38.0002 1177.87 43.0292 1178.31 L42.9973 1157.43 Z" fill="#000000" fill-rule="nonzero" fill-opacity="1"></path><path clip-path="url(#clip990)" d="M33.8307 1121.31 Q33.2578 1122.29 33.0032 1123.47 Q32.7167 1124.62 32.7167 1126.02 Q32.7167 1130.98 35.9632 1133.66 Q39.1779 1136.3 45.2253 1136.3 L64.0042 1136.3 L64.0042 1142.19 L28.3562 1142.19 L28.3562 1136.3 L33.8944 1136.3 Q30.6479 1134.45 29.0883 1131.49 Q27.4968 1128.53 27.4968 1124.3 Q27.4968 1123.69 27.5923 1122.96 Q27.656 1122.23 27.8151 1121.34 L33.8307 1121.31 Z" fill="#000000" fill-rule="nonzero" fill-opacity="1"></path><path clip-path="url(#clip990)" d="M46.0847 1098.96 Q46.0847 1106.06 47.7079 1108.8 Q49.3312 1111.54 53.2461 1111.54 Q56.3653 1111.54 58.2114 1109.5 Q60.0256 1107.43 60.0256 1103.9 Q60.0256 1099.03 56.5881 1096.1 Q53.1188 1093.14 47.3897 1093.14 L46.0847 1093.14 L46.0847 1098.96 M43.6657 1087.28 L64.0042 1087.28 L64.0042 1093.14 L58.5933 1093.14 Q61.8398 1095.14 63.3994 1098.14 Q64.9272 1101.13 64.9272 1105.46 Q64.9272 1110.93 61.8716 1114.18 Q58.7843 1117.39 53.6281 1117.39 Q47.6125 1117.39 44.5569 1113.38 Q41.5014 1109.34 41.5014 1101.35 L41.5014 1093.14 L40.9285 1093.14 Q36.8862 1093.14 34.6901 1095.81 Q32.4621 1098.45 32.4621 1103.26 Q32.4621 1106.32 33.1941 1109.21 Q33.9262 1112.11 35.3903 1114.78 L29.9795 1114.78 Q28.7381 1111.57 28.1334 1108.54 Q27.4968 1105.52 27.4968 1102.66 Q27.4968 1094.92 31.5072 1091.1 Q35.5176 1087.28 43.6657 1087.28 Z" fill="#000000" fill-rule="nonzero" fill-opacity="1"></path><path clip-path="url(#clip990)" d="M18.2347 1069.43 L28.3562 1069.43 L28.3562 1057.36 L32.9077 1057.36 L32.9077 1069.43 L52.2594 1069.43 Q56.6199 1069.43 57.8613 1068.25 Q59.1026 1067.04 59.1026 1063.38 L59.1026 1057.36 L64.0042 1057.36 L64.0042 1063.38 Q64.0042 1070.16 61.4897 1072.74 Q58.9434 1075.32 52.2594 1075.32 L32.9077 1075.32 L32.9077 1079.61 L28.3562 1079.61 L28.3562 1075.32 L18.2347 1075.32 L18.2347 1069.43 Z" fill="#000000" fill-rule="nonzero" fill-opacity="1"></path><path clip-path="url(#clip990)" d="M28.3562 1049.66 L28.3562 1043.8 L64.0042 1043.8 L64.0042 1049.66 L28.3562 1049.66 M14.479 1049.66 L14.479 1043.8 L21.895 1043.8 L21.895 1049.66 L14.479 1049.66 Z" fill="#000000" fill-rule="nonzero" fill-opacity="1"></path><path clip-path="url(#clip990)" d="M32.4621 1017.74 Q32.4621 1022.45 36.1542 1025.19 Q39.8145 1027.92 46.212 1027.92 Q52.6095 1027.92 56.3017 1025.22 Q59.9619 1022.48 59.9619 1017.74 Q59.9619 1013.06 56.2698 1010.32 Q52.5777 1007.58 46.212 1007.58 Q39.8781 1007.58 36.186 1010.32 Q32.4621 1013.06 32.4621 1017.74 M27.4968 1017.74 Q27.4968 1010.1 32.4621 1005.74 Q37.4273 1001.38 46.212 1001.38 Q54.9649 1001.38 59.9619 1005.74 Q64.9272 1010.1 64.9272 1017.74 Q64.9272 1025.41 59.9619 1029.77 Q54.9649 1034.1 46.212 1034.1 Q37.4273 1034.1 32.4621 1029.77 Q27.4968 1025.41 27.4968 1017.74 Z" fill="#000000" fill-rule="nonzero" fill-opacity="1"></path><path clip-path="url(#clip990)" d="M42.4881 962.037 L64.0042 962.037 L64.0042 967.894 L42.679 967.894 Q37.6183 967.894 35.1038 969.867 Q32.5894 971.841 32.5894 975.787 Q32.5894 980.53 35.6131 983.267 Q38.6368 986.004 43.8567 986.004 L64.0042 986.004 L64.0042 991.893 L28.3562 991.893 L28.3562 986.004 L33.8944 986.004 Q30.6797 983.904 29.0883 981.071 Q27.4968 978.206 27.4968 974.482 Q27.4968 968.339 31.3163 965.188 Q35.1038 962.037 42.4881 962.037 Z" fill="#000000" fill-rule="nonzero" fill-opacity="1"></path><path clip-path="url(#clip990)" d="M29.4065 927.631 L34.9447 927.631 Q33.6716 930.113 33.035 932.787 Q32.3984 935.461 32.3984 938.325 Q32.3984 942.686 33.7352 944.882 Q35.072 947.046 37.7456 947.046 Q39.7826 947.046 40.9603 945.487 Q42.1061 943.927 43.1565 939.216 L43.6021 937.211 Q44.9389 930.973 47.3897 928.363 Q49.8086 925.721 54.1691 925.721 Q59.1344 925.721 62.0308 929.668 Q64.9272 933.583 64.9272 940.458 Q64.9272 943.322 64.3543 946.441 Q63.8132 949.529 62.6992 952.966 L56.6518 952.966 Q58.3387 949.72 59.198 946.569 Q60.0256 943.418 60.0256 940.33 Q60.0256 936.193 58.6251 933.965 Q57.1929 931.737 54.6147 931.737 Q52.2276 931.737 50.9545 933.36 Q49.6813 934.951 48.5037 940.394 L48.0262 942.431 Q46.8804 947.874 44.5251 950.293 Q42.138 952.712 38.0002 952.712 Q32.9713 952.712 30.2341 949.147 Q27.4968 945.582 27.4968 939.025 Q27.4968 935.779 27.9743 932.914 Q28.4517 930.05 29.4065 927.631 Z" fill="#000000" fill-rule="nonzero" fill-opacity="1"></path><path clip-path="url(#clip990)" d="M49.9359 896.28 L28.3562 896.28 L28.3562 890.423 L49.7131 890.423 Q54.7739 890.423 57.3202 888.45 Q59.8346 886.476 59.8346 882.53 Q59.8346 877.787 56.8109 875.05 Q53.7872 872.281 48.5673 872.281 L28.3562 872.281 L28.3562 866.424 L64.0042 866.424 L64.0042 872.281 L58.5296 872.281 Q61.7762 874.413 63.3676 877.246 Q64.9272 880.047 64.9272 883.771 Q64.9272 889.914 61.1078 893.097 Q57.2883 896.28 49.9359 896.28 M27.4968 881.543 L27.4968 881.543 Z" fill="#000000" fill-rule="nonzero" fill-opacity="1"></path><path clip-path="url(#clip990)" d="M42.4881 824.729 L64.0042 824.729 L64.0042 830.586 L42.679 830.586 Q37.6183 830.586 35.1038 832.559 Q32.5894 834.532 32.5894 838.479 Q32.5894 843.221 35.6131 845.959 Q38.6368 848.696 43.8567 848.696 L64.0042 848.696 L64.0042 854.584 L28.3562 854.584 L28.3562 848.696 L33.8944 848.696 Q30.6797 846.595 29.0883 843.763 Q27.4968 840.898 27.4968 837.174 Q27.4968 831.031 31.3163 827.88 Q35.1038 824.729 42.4881 824.729 Z" fill="#000000" fill-rule="nonzero" fill-opacity="1"></path><path clip-path="url(#clip990)" d="M18.2347 807.255 L28.3562 807.255 L28.3562 795.192 L32.9077 795.192 L32.9077 807.255 L52.2594 807.255 Q56.6199 807.255 57.8613 806.078 Q59.1026 804.868 59.1026 801.208 L59.1026 795.192 L64.0042 795.192 L64.0042 801.208 Q64.0042 807.987 61.4897 810.565 Q58.9434 813.143 52.2594 813.143 L32.9077 813.143 L32.9077 817.44 L28.3562 817.44 L28.3562 813.143 L18.2347 813.143 L18.2347 807.255 Z" fill="#000000" fill-rule="nonzero" fill-opacity="1"></path><path clip-path="url(#clip990)" d="M28.3562 787.49 L28.3562 781.633 L64.0042 781.633 L64.0042 787.49 L28.3562 787.49 M14.479 787.49 L14.479 781.633 L21.895 781.633 L21.895 787.49 L14.479 787.49 Z" fill="#000000" fill-rule="nonzero" fill-opacity="1"></path><path clip-path="url(#clip990)" d="M14.479 769.379 L14.479 763.523 L64.0042 763.523 L64.0042 769.379 L14.479 769.379 Z" fill="#000000" fill-rule="nonzero" fill-opacity="1"></path><path clip-path="url(#clip990)" d="M29.7248 704.895 L35.1993 704.895 Q33.8307 707.377 33.1623 709.892 Q32.4621 712.374 32.4621 714.921 Q32.4621 720.618 36.0905 723.769 Q39.6872 726.92 46.212 726.92 Q52.7369 726.92 56.3653 723.769 Q59.9619 720.618 59.9619 714.921 Q59.9619 712.374 59.2935 709.892 Q58.5933 707.377 57.2247 704.895 L62.6355 704.895 Q63.7814 707.345 64.3543 709.987 Q64.9272 712.597 64.9272 715.557 Q64.9272 723.61 59.8664 728.352 Q54.8057 733.095 46.212 733.095 Q37.491 733.095 32.4939 728.32 Q27.4968 723.514 27.4968 715.175 Q27.4968 712.47 28.0697 709.892 Q28.6108 707.314 29.7248 704.895 Z" fill="#000000" fill-rule="nonzero" fill-opacity="1"></path><path clip-path="url(#clip990)" d="M32.4621 680.896 Q32.4621 685.607 36.1542 688.344 Q39.8145 691.081 46.212 691.081 Q52.6095 691.081 56.3017 688.376 Q59.9619 685.638 59.9619 680.896 Q59.9619 676.217 56.2698 673.48 Q52.5777 670.743 46.212 670.743 Q39.8781 670.743 36.186 673.48 Q32.4621 676.217 32.4621 680.896 M27.4968 680.896 Q27.4968 673.257 32.4621 668.897 Q37.4273 664.536 46.212 664.536 Q54.9649 664.536 59.9619 668.897 Q64.9272 673.257 64.9272 680.896 Q64.9272 688.567 59.9619 692.927 Q54.9649 697.256 46.212 697.256 Q37.4273 697.256 32.4621 692.927 Q27.4968 688.567 27.4968 680.896 Z" fill="#000000" fill-rule="nonzero" fill-opacity="1"></path><path clip-path="url(#clip990)" d="M42.4881 625.196 L64.0042 625.196 L64.0042 631.052 L42.679 631.052 Q37.6183 631.052 35.1038 633.026 Q32.5894 634.999 32.5894 638.946 Q32.5894 643.688 35.6131 646.426 Q38.6368 649.163 43.8567 649.163 L64.0042 649.163 L64.0042 655.051 L28.3562 655.051 L28.3562 649.163 L33.8944 649.163 Q30.6797 647.062 29.0883 644.229 Q27.4968 641.365 27.4968 637.641 Q27.4968 631.498 31.3163 628.347 Q35.1038 625.196 42.4881 625.196 Z" fill="#000000" fill-rule="nonzero" fill-opacity="1"></path><path clip-path="url(#clip990)" d="M28.3562 617.716 L28.3562 611.51 L58.275 600.37 L28.3562 589.23 L28.3562 583.023 L64.0042 596.391 L64.0042 604.348 L28.3562 617.716 Z" fill="#000000" fill-rule="nonzero" fill-opacity="1"></path><path clip-path="url(#clip990)" d="M44.7161 544.447 L47.5806 544.447 L47.5806 571.374 Q53.6281 570.992 56.8109 567.745 Q59.9619 564.467 59.9619 558.643 Q59.9619 555.269 59.1344 552.118 Q58.3069 548.935 56.6518 545.816 L62.1899 545.816 Q63.5267 548.967 64.227 552.277 Q64.9272 555.587 64.9272 558.993 Q64.9272 567.523 59.9619 572.52 Q54.9967 577.485 46.5303 577.485 Q37.7774 577.485 32.6531 572.774 Q27.4968 568.032 27.4968 560.011 Q27.4968 552.818 32.1438 548.648 Q36.7589 544.447 44.7161 544.447 M42.9973 550.303 Q38.1912 550.367 35.3266 553.009 Q32.4621 555.619 32.4621 559.947 Q32.4621 564.849 35.2312 567.809 Q38.0002 570.737 43.0292 571.183 L42.9973 550.303 Z" fill="#000000" fill-rule="nonzero" fill-opacity="1"></path><path clip-path="url(#clip990)" d="M33.8307 514.178 Q33.2578 515.165 33.0032 516.342 Q32.7167 517.488 32.7167 518.889 Q32.7167 523.854 35.9632 526.528 Q39.1779 529.169 45.2253 529.169 L64.0042 529.169 L64.0042 535.058 L28.3562 535.058 L28.3562 529.169 L33.8944 529.169 Q30.6479 527.323 29.0883 524.363 Q27.4968 521.403 27.4968 517.17 Q27.4968 516.565 27.5923 515.833 Q27.656 515.101 27.8151 514.21 L33.8307 514.178 Z" fill="#000000" fill-rule="nonzero" fill-opacity="1"></path><path clip-path="url(#clip990)" d="M45.7664 485.723 Q39.4007 485.723 35.8996 488.365 Q32.3984 490.975 32.3984 495.718 Q32.3984 500.428 35.8996 503.07 Q39.4007 505.68 45.7664 505.68 Q52.1003 505.68 55.6014 503.07 Q59.1026 500.428 59.1026 495.718 Q59.1026 490.975 55.6014 488.365 Q52.1003 485.723 45.7664 485.723 M59.58 479.867 Q68.683 479.867 73.1071 483.909 Q77.5631 487.951 77.5631 496.29 Q77.5631 499.378 77.0857 502.115 Q76.6401 504.852 75.6852 507.43 L69.9879 507.43 Q71.3884 504.852 72.0568 502.338 Q72.7252 499.823 72.7252 497.213 Q72.7252 491.452 69.7015 488.588 Q66.7096 485.723 60.6303 485.723 L57.7339 485.723 Q60.885 487.538 62.4446 490.37 Q64.0042 493.203 64.0042 497.15 Q64.0042 503.706 59.0071 507.717 Q54.01 511.727 45.7664 511.727 Q37.491 511.727 32.4939 507.717 Q27.4968 503.706 27.4968 497.15 Q27.4968 493.203 29.0564 490.37 Q30.616 487.538 33.7671 485.723 L28.3562 485.723 L28.3562 479.867 L59.58 479.867 Z" fill="#000000" fill-rule="nonzero" fill-opacity="1"></path><path clip-path="url(#clip990)" d="M44.7161 437.312 L47.5806 437.312 L47.5806 464.239 Q53.6281 463.857 56.8109 460.611 Q59.9619 457.332 59.9619 451.508 Q59.9619 448.134 59.1344 444.983 Q58.3069 441.8 56.6518 438.681 L62.1899 438.681 Q63.5267 441.832 64.227 445.142 Q64.9272 448.452 64.9272 451.858 Q64.9272 460.388 59.9619 465.385 Q54.9967 470.35 46.5303 470.35 Q37.7774 470.35 32.6531 465.64 Q27.4968 460.897 27.4968 452.876 Q27.4968 445.683 32.1438 441.514 Q36.7589 437.312 44.7161 437.312 M42.9973 443.169 Q38.1912 443.232 35.3266 445.874 Q32.4621 448.484 32.4621 452.813 Q32.4621 457.714 35.2312 460.674 Q38.0002 463.603 43.0292 464.048 L42.9973 443.169 Z" fill="#000000" fill-rule="nonzero" fill-opacity="1"></path><path clip-path="url(#clip990)" d="M42.4881 398.068 L64.0042 398.068 L64.0042 403.924 L42.679 403.924 Q37.6183 403.924 35.1038 405.897 Q32.5894 407.871 32.5894 411.818 Q32.5894 416.56 35.6131 419.297 Q38.6368 422.034 43.8567 422.034 L64.0042 422.034 L64.0042 427.923 L28.3562 427.923 L28.3562 422.034 L33.8944 422.034 Q30.6797 419.934 29.0883 417.101 Q27.4968 414.236 27.4968 410.513 Q27.4968 404.37 31.3163 401.219 Q35.1038 398.068 42.4881 398.068 Z" fill="#000000" fill-rule="nonzero" fill-opacity="1"></path><path clip-path="url(#clip990)" d="M29.7248 360.733 L35.1993 360.733 Q33.8307 363.215 33.1623 365.73 Q32.4621 368.212 32.4621 370.759 Q32.4621 376.456 36.0905 379.607 Q39.6872 382.758 46.212 382.758 Q52.7369 382.758 56.3653 379.607 Q59.9619 376.456 59.9619 370.759 Q59.9619 368.212 59.2935 365.73 Q58.5933 363.215 57.2247 360.733 L62.6355 360.733 Q63.7814 363.184 64.3543 365.825 Q64.9272 368.435 64.9272 371.395 Q64.9272 379.448 59.8664 384.19 Q54.8057 388.933 46.212 388.933 Q37.491 388.933 32.4939 384.159 Q27.4968 379.352 27.4968 371.013 Q27.4968 368.308 28.0697 365.73 Q28.6108 363.152 29.7248 360.733 Z" fill="#000000" fill-rule="nonzero" fill-opacity="1"></path><path clip-path="url(#clip990)" d="M44.7161 320.056 L47.5806 320.056 L47.5806 346.983 Q53.6281 346.601 56.8109 343.354 Q59.9619 340.076 59.9619 334.251 Q59.9619 330.878 59.1344 327.727 Q58.3069 324.544 56.6518 321.424 L62.1899 321.424 Q63.5267 324.575 64.227 327.886 Q64.9272 331.196 64.9272 334.601 Q64.9272 343.132 59.9619 348.129 Q54.9967 353.094 46.5303 353.094 Q37.7774 353.094 32.6531 348.383 Q27.4968 343.641 27.4968 335.62 Q27.4968 328.427 32.1438 324.257 Q36.7589 320.056 44.7161 320.056 M42.9973 325.912 Q38.1912 325.976 35.3266 328.618 Q32.4621 331.228 32.4621 335.556 Q32.4621 340.458 35.2312 343.418 Q38.0002 346.346 43.0292 346.792 L42.9973 325.912 Z" fill="#000000" fill-rule="nonzero" fill-opacity="1"></path><path clip-path="url(#clip990)" d="M380.61 12.096 L388.793 12.096 L388.793 72.576 L380.61 72.576 L380.61 12.096 Z" fill="#000000" fill-rule="nonzero" fill-opacity="1"></path><path clip-path="url(#clip990)" d="M412.126 14.324 L412.126 27.2059 L427.479 27.2059 L427.479 32.9987 L412.126 32.9987 L412.126 57.6282 Q412.126 63.1779 413.625 64.7578 Q415.164 66.3376 419.823 66.3376 L427.479 66.3376 L427.479 72.576 L419.823 72.576 Q411.194 72.576 407.913 69.3758 Q404.632 66.1351 404.632 57.6282 L404.632 32.9987 L399.163 32.9987 L399.163 27.2059 L404.632 27.2059 L404.632 14.324 L412.126 14.324 Z" fill="#000000" fill-rule="nonzero" fill-opacity="1"></path><path clip-path="url(#clip990)" d="M476.09 48.0275 L476.09 51.6733 L441.819 51.6733 Q442.305 59.3701 446.437 63.421 Q450.61 67.4314 458.023 67.4314 Q462.317 67.4314 466.327 66.3781 Q470.378 65.3249 474.348 63.2184 L474.348 70.267 Q470.337 71.9684 466.125 72.8596 Q461.912 73.7508 457.577 73.7508 Q446.721 73.7508 440.361 67.4314 Q434.041 61.1119 434.041 50.3365 Q434.041 39.1965 440.037 32.6746 Q446.073 26.1121 456.281 26.1121 Q465.436 26.1121 470.743 32.0264 Q476.09 37.9003 476.09 48.0275 M468.636 45.84 Q468.555 39.7232 465.193 36.0774 Q461.871 32.4315 456.362 32.4315 Q450.123 32.4315 446.356 35.9558 Q442.629 39.4801 442.062 45.8805 L468.636 45.84 Z" fill="#000000" fill-rule="nonzero" fill-opacity="1"></path><path clip-path="url(#clip990)" d="M514.614 34.1734 Q513.358 33.4443 511.859 33.1202 Q510.401 32.7556 508.618 32.7556 Q502.299 32.7556 498.896 36.8875 Q495.534 40.9789 495.534 48.6757 L495.534 72.576 L488.04 72.576 L488.04 27.2059 L495.534 27.2059 L495.534 34.2544 Q497.884 30.1225 501.651 28.1376 Q505.418 26.1121 510.806 26.1121 Q511.576 26.1121 512.507 26.2337 Q513.439 26.3147 514.573 26.5172 L514.614 34.1734 Z" fill="#000000" fill-rule="nonzero" fill-opacity="1"></path><path clip-path="url(#clip990)" d="M543.051 49.7694 Q534.018 49.7694 530.534 51.8354 Q527.05 53.9013 527.05 58.8839 Q527.05 62.8538 529.643 65.2034 Q532.276 67.5124 536.772 67.5124 Q542.97 67.5124 546.697 63.1374 Q550.464 58.7219 550.464 51.4303 L550.464 49.7694 L543.051 49.7694 M557.918 46.6907 L557.918 72.576 L550.464 72.576 L550.464 65.6895 Q547.912 69.8214 544.104 71.8063 Q540.297 73.7508 534.787 73.7508 Q527.82 73.7508 523.688 69.8619 Q519.596 65.9325 519.596 59.3701 Q519.596 51.7138 524.701 47.825 Q529.845 43.9361 540.013 43.9361 L550.464 43.9361 L550.464 43.2069 Q550.464 38.0623 547.062 35.2672 Q543.699 32.4315 537.582 32.4315 Q533.694 32.4315 530.007 33.3632 Q526.321 34.295 522.918 36.1584 L522.918 29.2718 Q527.01 27.692 530.858 26.9223 Q534.706 26.1121 538.352 26.1121 Q548.196 26.1121 553.057 31.2163 Q557.918 36.3204 557.918 46.6907 Z" fill="#000000" fill-rule="nonzero" fill-opacity="1"></path><path clip-path="url(#clip990)" d="M580.644 14.324 L580.644 27.2059 L595.996 27.2059 L595.996 32.9987 L580.644 32.9987 L580.644 57.6282 Q580.644 63.1779 582.142 64.7578 Q583.682 66.3376 588.34 66.3376 L595.996 66.3376 L595.996 72.576 L588.34 72.576 Q579.712 72.576 576.431 69.3758 Q573.149 66.1351 573.149 57.6282 L573.149 32.9987 L567.681 32.9987 L567.681 27.2059 L573.149 27.2059 L573.149 14.324 L580.644 14.324 Z" fill="#000000" fill-rule="nonzero" fill-opacity="1"></path><path clip-path="url(#clip990)" d="M605.8 27.2059 L613.253 27.2059 L613.253 72.576 L605.8 72.576 L605.8 27.2059 M605.8 9.54393 L613.253 9.54393 L613.253 18.9825 L605.8 18.9825 L605.8 9.54393 Z" fill="#000000" fill-rule="nonzero" fill-opacity="1"></path><path clip-path="url(#clip990)" d="M646.43 32.4315 Q640.435 32.4315 636.951 37.1306 Q633.467 41.7891 633.467 49.9314 Q633.467 58.0738 636.911 62.7728 Q640.394 67.4314 646.43 67.4314 Q652.385 67.4314 655.869 62.7323 Q659.353 58.0333 659.353 49.9314 Q659.353 41.8701 655.869 37.1711 Q652.385 32.4315 646.43 32.4315 M646.43 26.1121 Q656.152 26.1121 661.702 32.4315 Q667.252 38.7509 667.252 49.9314 Q667.252 61.0714 661.702 67.4314 Q656.152 73.7508 646.43 73.7508 Q636.668 73.7508 631.118 67.4314 Q625.609 61.0714 625.609 49.9314 Q625.609 38.7509 631.118 32.4315 Q636.668 26.1121 646.43 26.1121 Z" fill="#000000" fill-rule="nonzero" fill-opacity="1"></path><path clip-path="url(#clip990)" d="M717.321 45.1919 L717.321 72.576 L709.867 72.576 L709.867 45.4349 Q709.867 38.994 707.356 35.7938 Q704.844 32.5936 699.821 32.5936 Q693.785 32.5936 690.302 36.4419 Q686.818 40.2903 686.818 46.9338 L686.818 72.576 L679.324 72.576 L679.324 27.2059 L686.818 27.2059 L686.818 34.2544 Q689.491 30.163 693.097 28.1376 Q696.742 26.1121 701.482 26.1121 Q709.3 26.1121 713.311 30.9732 Q717.321 35.7938 717.321 45.1919 Z" fill="#000000" fill-rule="nonzero" fill-opacity="1"></path><path clip-path="url(#clip990)" d="M761.111 28.5427 L761.111 35.5912 Q757.952 33.9709 754.549 33.1607 Q751.146 32.3505 747.5 32.3505 Q741.951 32.3505 739.155 34.0519 Q736.401 35.7533 736.401 39.156 Q736.401 41.7486 738.386 43.2475 Q740.371 44.7058 746.366 46.0426 L748.918 46.6097 Q756.858 48.3111 760.18 51.4303 Q763.542 54.509 763.542 60.0587 Q763.542 66.3781 758.519 70.0644 Q753.536 73.7508 744.786 73.7508 Q741.14 73.7508 737.171 73.0216 Q733.241 72.3329 728.866 70.9151 L728.866 63.2184 Q732.998 65.3654 737.008 66.4591 Q741.019 67.5124 744.948 67.5124 Q750.214 67.5124 753.05 65.73 Q755.886 63.9071 755.886 60.6258 Q755.886 57.5877 753.82 55.9673 Q751.794 54.3469 744.867 52.8481 L742.275 52.2405 Q735.348 50.7821 732.269 47.7845 Q729.19 44.7463 729.19 39.4801 Q729.19 33.0797 733.727 29.5959 Q738.264 26.1121 746.609 26.1121 Q750.741 26.1121 754.387 26.7198 Q758.033 27.3274 761.111 28.5427 Z" fill="#000000" fill-rule="nonzero" fill-opacity="1"></path><path clip-path="url(#clip990)" d="M824.751 9.54393 L824.751 15.7418 L817.621 15.7418 Q813.611 15.7418 812.031 17.3622 Q810.492 18.9825 810.492 23.1955 L810.492 27.2059 L822.766 27.2059 L822.766 32.9987 L810.492 32.9987 L810.492 72.576 L802.998 72.576 L802.998 32.9987 L795.868 32.9987 L795.868 27.2059 L802.998 27.2059 L802.998 24.0462 Q802.998 16.471 806.522 13.0277 Q810.046 9.54393 817.702 9.54393 L824.751 9.54393 Z" fill="#000000" fill-rule="nonzero" fill-opacity="1"></path><path clip-path="url(#clip990)" d="M848.57 32.4315 Q842.575 32.4315 839.091 37.1306 Q835.607 41.7891 835.607 49.9314 Q835.607 58.0738 839.051 62.7728 Q842.535 67.4314 848.57 67.4314 Q854.525 67.4314 858.009 62.7323 Q861.493 58.0333 861.493 49.9314 Q861.493 41.8701 858.009 37.1711 Q854.525 32.4315 848.57 32.4315 M848.57 26.1121 Q858.293 26.1121 863.842 32.4315 Q869.392 38.7509 869.392 49.9314 Q869.392 61.0714 863.842 67.4314 Q858.293 73.7508 848.57 73.7508 Q838.808 73.7508 833.258 67.4314 Q827.749 61.0714 827.749 49.9314 Q827.749 38.7509 833.258 32.4315 Q838.808 26.1121 848.57 26.1121 Z" fill="#000000" fill-rule="nonzero" fill-opacity="1"></path><path clip-path="url(#clip990)" d="M908.038 34.1734 Q906.782 33.4443 905.283 33.1202 Q903.825 32.7556 902.042 32.7556 Q895.723 32.7556 892.32 36.8875 Q888.958 40.9789 888.958 48.6757 L888.958 72.576 L881.464 72.576 L881.464 27.2059 L888.958 27.2059 L888.958 34.2544 Q891.307 30.1225 895.075 28.1376 Q898.842 26.1121 904.23 26.1121 Q904.999 26.1121 905.931 26.2337 Q906.863 26.3147 907.997 26.5172 L908.038 34.1734 Z" fill="#000000" fill-rule="nonzero" fill-opacity="1"></path><path clip-path="url(#clip990)" d="M965.196 9.54393 L965.196 15.7418 L958.066 15.7418 Q954.056 15.7418 952.476 17.3622 Q950.937 18.9825 950.937 23.1955 L950.937 27.2059 L963.211 27.2059 L963.211 32.9987 L950.937 32.9987 L950.937 72.576 L943.443 72.576 L943.443 32.9987 L936.313 32.9987 L936.313 27.2059 L943.443 27.2059 L943.443 24.0462 Q943.443 16.471 946.967 13.0277 Q950.491 9.54393 958.147 9.54393 L965.196 9.54393 Z" fill="#000000" fill-rule="nonzero" fill-opacity="1"></path><path clip-path="url(#clip990)" d="M971.434 27.2059 L978.888 27.2059 L978.888 72.576 L971.434 72.576 L971.434 27.2059 M971.434 9.54393 L978.888 9.54393 L978.888 18.9825 L971.434 18.9825 L971.434 9.54393 Z" fill="#000000" fill-rule="nonzero" fill-opacity="1"></path><path clip-path="url(#clip990)" d="M1032.2 27.2059 L1015.79 49.2833 L1033.05 72.576 L1024.26 72.576 L1011.05 54.752 L997.846 72.576 L989.056 72.576 L1006.68 48.8377 L990.555 27.2059 L999.345 27.2059 L1011.38 43.369 L1023.41 27.2059 L1032.2 27.2059 Z" fill="#000000" fill-rule="nonzero" fill-opacity="1"></path><path clip-path="url(#clip990)" d="M1079.84 48.0275 L1079.84 51.6733 L1045.57 51.6733 Q1046.05 59.3701 1050.18 63.421 Q1054.36 67.4314 1061.77 67.4314 Q1066.06 67.4314 1070.07 66.3781 Q1074.12 65.3249 1078.09 63.2184 L1078.09 70.267 Q1074.08 71.9684 1069.87 72.8596 Q1065.66 73.7508 1061.32 73.7508 Q1050.47 73.7508 1044.11 67.4314 Q1037.79 61.1119 1037.79 50.3365 Q1037.79 39.1965 1043.78 32.6746 Q1049.82 26.1121 1060.03 26.1121 Q1069.18 26.1121 1074.49 32.0264 Q1079.84 37.9003 1079.84 48.0275 M1072.38 45.84 Q1072.3 39.7232 1068.94 36.0774 Q1065.62 32.4315 1060.11 32.4315 Q1053.87 32.4315 1050.1 35.9558 Q1046.38 39.4801 1045.81 45.8805 L1072.38 45.84 Z" fill="#000000" fill-rule="nonzero" fill-opacity="1"></path><path clip-path="url(#clip990)" d="M1121.93 34.0924 L1121.93 9.54393 L1129.38 9.54393 L1129.38 72.576 L1121.93 72.576 L1121.93 65.7705 Q1119.58 69.8214 1115.97 71.8063 Q1112.41 73.7508 1107.38 73.7508 Q1099.16 73.7508 1093.97 67.1883 Q1088.83 60.6258 1088.83 49.9314 Q1088.83 39.2371 1093.97 32.6746 Q1099.16 26.1121 1107.38 26.1121 Q1112.41 26.1121 1115.97 28.0971 Q1119.58 30.0415 1121.93 34.0924 M1096.53 49.9314 Q1096.53 58.1548 1099.89 62.8538 Q1103.29 67.5124 1109.21 67.5124 Q1115.12 67.5124 1118.52 62.8538 Q1121.93 58.1548 1121.93 49.9314 Q1121.93 41.7081 1118.52 37.0496 Q1115.12 32.3505 1109.21 32.3505 Q1103.29 32.3505 1099.89 37.0496 Q1096.53 41.7081 1096.53 49.9314 Z" fill="#000000" fill-rule="nonzero" fill-opacity="1"></path><path clip-path="url(#clip990)" d="M1178.48 14.324 L1178.48 27.2059 L1193.83 27.2059 L1193.83 32.9987 L1178.48 32.9987 L1178.48 57.6282 Q1178.48 63.1779 1179.97 64.7578 Q1181.51 66.3376 1186.17 66.3376 L1193.83 66.3376 L1193.83 72.576 L1186.17 72.576 Q1177.54 72.576 1174.26 69.3758 Q1170.98 66.1351 1170.98 57.6282 L1170.98 32.9987 L1165.51 32.9987 L1165.51 27.2059 L1170.98 27.2059 L1170.98 14.324 L1178.48 14.324 Z" fill="#000000" fill-rule="nonzero" fill-opacity="1"></path><path clip-path="url(#clip990)" d="M1221.21 32.4315 Q1215.22 32.4315 1211.73 37.1306 Q1208.25 41.7891 1208.25 49.9314 Q1208.25 58.0738 1211.69 62.7728 Q1215.18 67.4314 1221.21 67.4314 Q1227.17 67.4314 1230.65 62.7323 Q1234.14 58.0333 1234.14 49.9314 Q1234.14 41.8701 1230.65 37.1711 Q1227.17 32.4315 1221.21 32.4315 M1221.21 26.1121 Q1230.94 26.1121 1236.48 32.4315 Q1242.03 38.7509 1242.03 49.9314 Q1242.03 61.0714 1236.48 67.4314 Q1230.94 73.7508 1221.21 73.7508 Q1211.45 73.7508 1205.9 67.4314 Q1200.39 61.0714 1200.39 49.9314 Q1200.39 38.7509 1205.9 32.4315 Q1211.45 26.1121 1221.21 26.1121 Z" fill="#000000" fill-rule="nonzero" fill-opacity="1"></path><path clip-path="url(#clip990)" d="M1254.39 9.54393 L1261.84 9.54393 L1261.84 72.576 L1254.39 72.576 L1254.39 9.54393 Z" fill="#000000" fill-rule="nonzero" fill-opacity="1"></path><path clip-path="url(#clip990)" d="M1316.25 48.0275 L1316.25 51.6733 L1281.98 51.6733 Q1282.46 59.3701 1286.59 63.421 Q1290.77 67.4314 1298.18 67.4314 Q1302.47 67.4314 1306.48 66.3781 Q1310.54 65.3249 1314.51 63.2184 L1314.51 70.267 Q1310.49 71.9684 1306.28 72.8596 Q1302.07 73.7508 1297.73 73.7508 Q1286.88 73.7508 1280.52 67.4314 Q1274.2 61.1119 1274.2 50.3365 Q1274.2 39.1965 1280.19 32.6746 Q1286.23 26.1121 1296.44 26.1121 Q1305.59 26.1121 1310.9 32.0264 Q1316.25 37.9003 1316.25 48.0275 M1308.79 45.84 Q1308.71 39.7232 1305.35 36.0774 Q1302.03 32.4315 1296.52 32.4315 Q1290.28 32.4315 1286.51 35.9558 Q1282.79 39.4801 1282.22 45.8805 L1308.79 45.84 Z" fill="#000000" fill-rule="nonzero" fill-opacity="1"></path><path clip-path="url(#clip990)" d="M1354.77 34.1734 Q1353.52 33.4443 1352.02 33.1202 Q1350.56 32.7556 1348.78 32.7556 Q1342.46 32.7556 1339.05 36.8875 Q1335.69 40.9789 1335.69 48.6757 L1335.69 72.576 L1328.2 72.576 L1328.2 27.2059 L1335.69 27.2059 L1335.69 34.2544 Q1338.04 30.1225 1341.81 28.1376 Q1345.58 26.1121 1350.96 26.1121 Q1351.73 26.1121 1352.66 26.2337 Q1353.6 26.3147 1354.73 26.5172 L1354.77 34.1734 Z" fill="#000000" fill-rule="nonzero" fill-opacity="1"></path><path clip-path="url(#clip990)" d="M1383.21 49.7694 Q1374.18 49.7694 1370.69 51.8354 Q1367.21 53.9013 1367.21 58.8839 Q1367.21 62.8538 1369.8 65.2034 Q1372.43 67.5124 1376.93 67.5124 Q1383.13 67.5124 1386.85 63.1374 Q1390.62 58.7219 1390.62 51.4303 L1390.62 49.7694 L1383.21 49.7694 M1398.08 46.6907 L1398.08 72.576 L1390.62 72.576 L1390.62 65.6895 Q1388.07 69.8214 1384.26 71.8063 Q1380.45 73.7508 1374.94 73.7508 Q1367.98 73.7508 1363.85 69.8619 Q1359.75 65.9325 1359.75 59.3701 Q1359.75 51.7138 1364.86 47.825 Q1370 43.9361 1380.17 43.9361 L1390.62 43.9361 L1390.62 43.2069 Q1390.62 38.0623 1387.22 35.2672 Q1383.86 32.4315 1377.74 32.4315 Q1373.85 32.4315 1370.16 33.3632 Q1366.48 34.295 1363.08 36.1584 L1363.08 29.2718 Q1367.17 27.692 1371.02 26.9223 Q1374.86 26.1121 1378.51 26.1121 Q1388.35 26.1121 1393.21 31.2163 Q1398.08 36.3204 1398.08 46.6907 Z" fill="#000000" fill-rule="nonzero" fill-opacity="1"></path><path clip-path="url(#clip990)" d="M1451.14 45.1919 L1451.14 72.576 L1443.69 72.576 L1443.69 45.4349 Q1443.69 38.994 1441.18 35.7938 Q1438.67 32.5936 1433.64 32.5936 Q1427.61 32.5936 1424.12 36.4419 Q1420.64 40.2903 1420.64 46.9338 L1420.64 72.576 L1413.14 72.576 L1413.14 27.2059 L1420.64 27.2059 L1420.64 34.2544 Q1423.31 30.163 1426.92 28.1376 Q1430.56 26.1121 1435.3 26.1121 Q1443.12 26.1121 1447.13 30.9732 Q1451.14 35.7938 1451.14 45.1919 Z" fill="#000000" fill-rule="nonzero" fill-opacity="1"></path><path clip-path="url(#clip990)" d="M1498.66 28.9478 L1498.66 35.9153 Q1495.5 34.1734 1492.3 33.3227 Q1489.14 32.4315 1485.9 32.4315 Q1478.65 32.4315 1474.64 37.0496 Q1470.63 41.6271 1470.63 49.9314 Q1470.63 58.2358 1474.64 62.8538 Q1478.65 67.4314 1485.9 67.4314 Q1489.14 67.4314 1492.3 66.5807 Q1495.5 65.6895 1498.66 63.9476 L1498.66 70.8341 Q1495.54 72.2924 1492.18 73.0216 Q1488.86 73.7508 1485.09 73.7508 Q1474.84 73.7508 1468.8 67.3098 Q1462.77 60.8689 1462.77 49.9314 Q1462.77 38.832 1468.84 32.472 Q1474.96 26.1121 1485.58 26.1121 Q1489.02 26.1121 1492.3 26.8413 Q1495.58 27.5299 1498.66 28.9478 Z" fill="#000000" fill-rule="nonzero" fill-opacity="1"></path><path clip-path="url(#clip990)" d="M1550.43 48.0275 L1550.43 51.6733 L1516.16 51.6733 Q1516.65 59.3701 1520.78 63.421 Q1524.95 67.4314 1532.36 67.4314 Q1536.66 67.4314 1540.67 66.3781 Q1544.72 65.3249 1548.69 63.2184 L1548.69 70.267 Q1544.68 71.9684 1540.46 72.8596 Q1536.25 73.7508 1531.92 73.7508 Q1521.06 73.7508 1514.7 67.4314 Q1508.38 61.1119 1508.38 50.3365 Q1508.38 39.1965 1514.38 32.6746 Q1520.41 26.1121 1530.62 26.1121 Q1539.78 26.1121 1545.08 32.0264 Q1550.43 37.9003 1550.43 48.0275 M1542.98 45.84 Q1542.9 39.7232 1539.53 36.0774 Q1536.21 32.4315 1530.7 32.4315 Q1524.46 32.4315 1520.7 35.9558 Q1516.97 39.4801 1516.4 45.8805 L1542.98 45.84 Z" fill="#000000" fill-rule="nonzero" fill-opacity="1"></path><path clip-path="url(#clip990)" d="M1589.36 12.096 L1597.54 12.096 L1597.54 72.576 L1589.36 72.576 L1589.36 12.096 Z" fill="#000000" fill-rule="nonzero" fill-opacity="1"></path><path clip-path="url(#clip990)" d="M1651.22 45.1919 L1651.22 72.576 L1643.76 72.576 L1643.76 45.4349 Q1643.76 38.994 1641.25 35.7938 Q1638.74 32.5936 1633.72 32.5936 Q1627.68 32.5936 1624.2 36.4419 Q1620.71 40.2903 1620.71 46.9338 L1620.71 72.576 L1613.22 72.576 L1613.22 27.2059 L1620.71 27.2059 L1620.71 34.2544 Q1623.39 30.163 1626.99 28.1376 Q1630.64 26.1121 1635.38 26.1121 Q1643.2 26.1121 1647.21 30.9732 Q1651.22 35.7938 1651.22 45.1919 Z" fill="#000000" fill-rule="nonzero" fill-opacity="1"></path><path clip-path="url(#clip990)" d="M1704.89 48.0275 L1704.89 51.6733 L1670.62 51.6733 Q1671.11 59.3701 1675.24 63.421 Q1679.41 67.4314 1686.82 67.4314 Q1691.12 67.4314 1695.13 66.3781 Q1699.18 65.3249 1703.15 63.2184 L1703.15 70.267 Q1699.14 71.9684 1694.93 72.8596 Q1690.71 73.7508 1686.38 73.7508 Q1675.52 73.7508 1669.16 67.4314 Q1662.84 61.1119 1662.84 50.3365 Q1662.84 39.1965 1668.84 32.6746 Q1674.87 26.1121 1685.08 26.1121 Q1694.24 26.1121 1699.54 32.0264 Q1704.89 37.9003 1704.89 48.0275 M1697.44 45.84 Q1697.36 39.7232 1693.99 36.0774 Q1690.67 32.4315 1685.16 32.4315 Q1678.92 32.4315 1675.16 35.9558 Q1671.43 39.4801 1670.86 45.8805 L1697.44 45.84 Z" fill="#000000" fill-rule="nonzero" fill-opacity="1"></path><path clip-path="url(#clip990)" d="M1753.38 27.2059 L1736.97 49.2833 L1754.23 72.576 L1745.44 72.576 L1732.23 54.752 L1719.03 72.576 L1710.24 72.576 L1727.86 48.8377 L1711.74 27.2059 L1720.53 27.2059 L1732.56 43.369 L1744.59 27.2059 L1753.38 27.2059 Z" fill="#000000" fill-rule="nonzero" fill-opacity="1"></path><path clip-path="url(#clip990)" d="M1785.38 49.7694 Q1776.35 49.7694 1772.87 51.8354 Q1769.38 53.9013 1769.38 58.8839 Q1769.38 62.8538 1771.97 65.2034 Q1774.61 67.5124 1779.1 67.5124 Q1785.3 67.5124 1789.03 63.1374 Q1792.8 58.7219 1792.8 51.4303 L1792.8 49.7694 L1785.38 49.7694 M1800.25 46.6907 L1800.25 72.576 L1792.8 72.576 L1792.8 65.6895 Q1790.24 69.8214 1786.44 71.8063 Q1782.63 73.7508 1777.12 73.7508 Q1770.15 73.7508 1766.02 69.8619 Q1761.93 65.9325 1761.93 59.3701 Q1761.93 51.7138 1767.03 47.825 Q1772.18 43.9361 1782.34 43.9361 L1792.8 43.9361 L1792.8 43.2069 Q1792.8 38.0623 1789.39 35.2672 Q1786.03 32.4315 1779.91 32.4315 Q1776.02 32.4315 1772.34 33.3632 Q1768.65 34.295 1765.25 36.1584 L1765.25 29.2718 Q1769.34 27.692 1773.19 26.9223 Q1777.04 26.1121 1780.68 26.1121 Q1790.53 26.1121 1795.39 31.2163 Q1800.25 36.3204 1800.25 46.6907 Z" fill="#000000" fill-rule="nonzero" fill-opacity="1"></path><path clip-path="url(#clip990)" d="M1848.25 28.9478 L1848.25 35.9153 Q1845.09 34.1734 1841.89 33.3227 Q1838.73 32.4315 1835.49 32.4315 Q1828.24 32.4315 1824.23 37.0496 Q1820.22 41.6271 1820.22 49.9314 Q1820.22 58.2358 1824.23 62.8538 Q1828.24 67.4314 1835.49 67.4314 Q1838.73 67.4314 1841.89 66.5807 Q1845.09 65.6895 1848.25 63.9476 L1848.25 70.8341 Q1845.13 72.2924 1841.77 73.0216 Q1838.45 73.7508 1834.68 73.7508 Q1824.43 73.7508 1818.4 67.3098 Q1812.36 60.8689 1812.36 49.9314 Q1812.36 38.832 1818.44 32.472 Q1824.55 26.1121 1835.17 26.1121 Q1838.61 26.1121 1841.89 26.8413 Q1845.17 27.5299 1848.25 28.9478 Z" fill="#000000" fill-rule="nonzero" fill-opacity="1"></path><path clip-path="url(#clip990)" d="M1868.59 14.324 L1868.59 27.2059 L1883.94 27.2059 L1883.94 32.9987 L1868.59 32.9987 L1868.59 57.6282 Q1868.59 63.1779 1870.09 64.7578 Q1871.63 66.3376 1876.28 66.3376 L1883.94 66.3376 L1883.94 72.576 L1876.28 72.576 Q1867.66 72.576 1864.38 69.3758 Q1861.09 66.1351 1861.09 57.6282 L1861.09 32.9987 L1855.63 32.9987 L1855.63 27.2059 L1861.09 27.2059 L1861.09 14.324 L1868.59 14.324 Z" fill="#000000" fill-rule="nonzero" fill-opacity="1"></path><path clip-path="url(#clip990)" d="M1961.68 63.9476 L1961.68 47.7034 L1948.31 47.7034 L1948.31 40.9789 L1969.78 40.9789 L1969.78 66.9452 Q1965.04 70.3075 1959.33 72.0494 Q1953.62 73.7508 1947.14 73.7508 Q1932.96 73.7508 1924.94 65.4869 Q1916.96 57.1826 1916.96 42.3968 Q1916.96 27.5705 1924.94 19.3066 Q1932.96 11.0023 1947.14 11.0023 Q1953.05 11.0023 1958.36 12.4606 Q1963.7 13.9189 1968.2 16.7545 L1968.2 25.464 Q1963.66 21.6156 1958.56 19.6712 Q1953.45 17.7268 1947.82 17.7268 Q1936.72 17.7268 1931.13 23.9246 Q1925.58 30.1225 1925.58 42.3968 Q1925.58 54.6305 1931.13 60.8284 Q1936.72 67.0263 1947.82 67.0263 Q1952.16 67.0263 1955.56 66.2971 Q1958.96 65.5274 1961.68 63.9476 Z" fill="#000000" fill-rule="nonzero" fill-opacity="1"></path><path clip-path="url(#clip990)" d="M1984.73 12.096 L1996.92 12.096 L2012.35 53.2532 L2027.87 12.096 L2040.06 12.096 L2040.06 72.576 L2032.08 72.576 L2032.08 19.4686 L2016.49 60.9499 L2008.26 60.9499 L1992.67 19.4686 L1992.67 72.576 L1984.73 72.576 L1984.73 12.096 Z" fill="#000000" fill-rule="nonzero" fill-opacity="1"></path><path clip-path="url(#clip990)" d="M2084.99 44.2197 Q2087.62 45.1109 2090.09 48.0275 Q2092.6 50.9442 2095.11 56.0483 L2103.42 72.576 L2094.63 72.576 L2086.89 57.061 Q2083.89 50.9847 2081.06 48.9997 Q2078.26 47.0148 2073.4 47.0148 L2064.49 47.0148 L2064.49 72.576 L2056.31 72.576 L2056.31 12.096 L2074.78 12.096 Q2085.15 12.096 2090.25 16.4305 Q2095.36 20.7649 2095.36 29.5149 Q2095.36 35.2267 2092.68 38.994 Q2090.05 42.7613 2084.99 44.2197 M2064.49 18.8205 L2064.49 40.2903 L2074.78 40.2903 Q2080.69 40.2903 2083.69 37.5762 Q2086.73 34.8216 2086.73 29.5149 Q2086.73 24.2082 2083.69 21.5346 Q2080.69 18.8205 2074.78 18.8205 L2064.49 18.8205 Z" fill="#000000" fill-rule="nonzero" fill-opacity="1"></path><path clip-path="url(#clip990)" d="M2113.95 12.096 L2152.19 12.096 L2152.19 18.9825 L2122.13 18.9825 L2122.13 36.8875 L2150.94 36.8875 L2150.94 43.7741 L2122.13 43.7741 L2122.13 65.6895 L2152.92 65.6895 L2152.92 72.576 L2113.95 72.576 L2113.95 12.096 Z" fill="#000000" fill-rule="nonzero" fill-opacity="1"></path><path clip-path="url(#clip990)" d="M2202.63 14.0809 L2202.63 22.0612 Q2197.97 19.8332 2193.84 18.7395 Q2189.7 17.6457 2185.85 17.6457 Q2179.17 17.6457 2175.53 20.2383 Q2171.92 22.8309 2171.92 27.611 Q2171.92 31.6214 2174.31 33.6873 Q2176.74 35.7128 2183.46 36.9686 L2188.41 37.9813 Q2197.56 39.7232 2201.9 44.1387 Q2206.27 48.5136 2206.27 55.8863 Q2206.27 64.6767 2200.36 69.2137 Q2194.48 73.7508 2183.1 73.7508 Q2178.81 73.7508 2173.95 72.7785 Q2169.12 71.8063 2163.94 69.9024 L2163.94 61.4765 Q2168.92 64.2716 2173.7 65.6895 Q2178.48 67.1073 2183.1 67.1073 Q2190.11 67.1073 2193.92 64.3527 Q2197.72 61.598 2197.72 56.4939 Q2197.72 52.0379 2194.97 49.5264 Q2192.26 47.0148 2186.02 45.759 L2181.03 44.7868 Q2171.88 42.9639 2167.79 39.075 Q2163.7 35.1862 2163.7 28.2591 Q2163.7 20.2383 2169.33 15.6203 Q2175 11.0023 2184.92 11.0023 Q2189.18 11.0023 2193.59 11.7719 Q2198.01 12.5416 2202.63 14.0809 Z" fill="#000000" fill-rule="nonzero" fill-opacity="1"></path><circle clip-path="url(#clip992)" cx="294.087" cy="1386.4" r="14.4" fill="#009af9" fill-rule="evenodd" fill-opacity="1" stroke="#000000" stroke-opacity="1" stroke-width="3.2"></circle>
<circle clip-path="url(#clip992)" cx="859.808" cy="1273.79" r="14.4" fill="#009af9" fill-rule="evenodd" fill-opacity="1" stroke="#000000" stroke-opacity="1" stroke-width="3.2"></circle>
<circle clip-path="url(#clip992)" cx="1291.02" cy="1165.36" r="14.4" fill="#009af9" fill-rule="evenodd" fill-opacity="1" stroke="#000000" stroke-opacity="1" stroke-width="3.2"></circle>
<circle clip-path="url(#clip992)" cx="1722.22" cy="915.124" r="14.4" fill="#009af9" fill-rule="evenodd" fill-opacity="1" stroke="#000000" stroke-opacity="1" stroke-width="3.2"></circle>
<circle clip-path="url(#clip992)" cx="2292.79" cy="160.256" r="14.4" fill="#009af9" fill-rule="evenodd" fill-opacity="1" stroke="#000000" stroke-opacity="1" stroke-width="3.2"></circle>
<circle clip-path="url(#clip992)" cx="294.087" cy="1386.4" r="14.4" fill="#e26f46" fill-rule="evenodd" fill-opacity="1" stroke="#000000" stroke-opacity="1" stroke-width="3.2"></circle>
<circle clip-path="url(#clip992)" cx="859.808" cy="1277.96" r="14.4" fill="#e26f46" fill-rule="evenodd" fill-opacity="1" stroke="#000000" stroke-opacity="1" stroke-width="3.2"></circle>
<circle clip-path="url(#clip992)" cx="1291.02" cy="1182.04" r="14.4" fill="#e26f46" fill-rule="evenodd" fill-opacity="1" stroke="#000000" stroke-opacity="1" stroke-width="3.2"></circle>
<circle clip-path="url(#clip992)" cx="1722.22" cy="1019.39" r="14.4" fill="#e26f46" fill-rule="evenodd" fill-opacity="1" stroke="#000000" stroke-opacity="1" stroke-width="3.2"></circle>
<circle clip-path="url(#clip992)" cx="2292.79" cy="493.9" r="14.4" fill="#e26f46" fill-rule="evenodd" fill-opacity="1" stroke="#000000" stroke-opacity="1" stroke-width="3.2"></circle>
<path clip-path="url(#clip990)" d="M1577.43 1379.86 L2282.13 1379.86 L2282.13 1224.34 L1577.43 1224.34  Z" fill="#ffffff" fill-rule="evenodd" fill-opacity="1"></path>
<polyline clip-path="url(#clip990)" style="stroke:#000000; stroke-linecap:round; stroke-linejoin:round; stroke-width:4; stroke-opacity:1; fill:none" points="1577.43,1379.86 2282.13,1379.86 2282.13,1224.34 1577.43,1224.34 1577.43,1379.86 "></polyline>
<circle clip-path="url(#clip990)" cx="1671.59" cy="1276.18" r="20.48" fill="#009af9" fill-rule="evenodd" fill-opacity="1" stroke="#000000" stroke-opacity="1" stroke-width="4.55111"></circle>
<path clip-path="url(#clip990)" d="M1765.75 1258.9 L1770.43 1258.9 L1770.43 1293.46 L1765.75 1293.46 L1765.75 1258.9 Z" fill="#000000" fill-rule="nonzero" fill-opacity="1"></path><path clip-path="url(#clip990)" d="M1801.1 1277.81 L1801.1 1293.46 L1796.84 1293.46 L1796.84 1277.95 Q1796.84 1274.27 1795.4 1272.44 Q1793.97 1270.61 1791.1 1270.61 Q1787.65 1270.61 1785.66 1272.81 Q1783.67 1275.01 1783.67 1278.8 L1783.67 1293.46 L1779.38 1293.46 L1779.38 1267.53 L1783.67 1267.53 L1783.67 1271.56 Q1785.19 1269.22 1787.25 1268.06 Q1789.34 1266.91 1792.05 1266.91 Q1796.51 1266.91 1798.81 1269.68 Q1801.1 1272.44 1801.1 1277.81 Z" fill="#000000" fill-rule="nonzero" fill-opacity="1"></path><path clip-path="url(#clip990)" d="M1831.77 1279.43 L1831.77 1281.51 L1812.18 1281.51 Q1812.46 1285.91 1814.82 1288.22 Q1817.21 1290.52 1821.44 1290.52 Q1823.9 1290.52 1826.19 1289.91 Q1828.5 1289.31 1830.77 1288.11 L1830.77 1292.14 Q1828.48 1293.11 1826.07 1293.62 Q1823.67 1294.13 1821.19 1294.13 Q1814.99 1294.13 1811.35 1290.52 Q1807.74 1286.91 1807.74 1280.75 Q1807.74 1274.38 1811.17 1270.66 Q1814.62 1266.91 1820.45 1266.91 Q1825.68 1266.91 1828.71 1270.29 Q1831.77 1273.64 1831.77 1279.43 M1827.51 1278.18 Q1827.46 1274.68 1825.54 1272.6 Q1823.64 1270.52 1820.5 1270.52 Q1816.93 1270.52 1814.78 1272.53 Q1812.65 1274.54 1812.32 1278.2 L1827.51 1278.18 Z" fill="#000000" fill-rule="nonzero" fill-opacity="1"></path><path clip-path="url(#clip990)" d="M1859.48 1267.53 L1850.1 1280.15 L1859.96 1293.46 L1854.94 1293.46 L1847.39 1283.27 L1839.85 1293.46 L1834.82 1293.46 L1844.89 1279.89 L1835.68 1267.53 L1840.7 1267.53 L1847.58 1276.77 L1854.45 1267.53 L1859.48 1267.53 Z" fill="#000000" fill-rule="nonzero" fill-opacity="1"></path><path clip-path="url(#clip990)" d="M1877.76 1280.42 Q1872.6 1280.42 1870.61 1281.6 Q1868.62 1282.79 1868.62 1285.63 Q1868.62 1287.9 1870.1 1289.24 Q1871.61 1290.56 1874.18 1290.56 Q1877.72 1290.56 1879.85 1288.06 Q1882 1285.54 1882 1281.37 L1882 1280.42 L1877.76 1280.42 M1886.26 1278.66 L1886.26 1293.46 L1882 1293.46 L1882 1289.52 Q1880.54 1291.88 1878.37 1293.02 Q1876.19 1294.13 1873.04 1294.13 Q1869.06 1294.13 1866.7 1291.91 Q1864.36 1289.66 1864.36 1285.91 Q1864.36 1281.54 1867.28 1279.31 Q1870.22 1277.09 1876.03 1277.09 L1882 1277.09 L1882 1276.67 Q1882 1273.73 1880.05 1272.14 Q1878.13 1270.52 1874.64 1270.52 Q1872.42 1270.52 1870.31 1271.05 Q1868.2 1271.58 1866.26 1272.65 L1866.26 1268.71 Q1868.6 1267.81 1870.8 1267.37 Q1872.99 1266.91 1875.08 1266.91 Q1880.7 1266.91 1883.48 1269.82 Q1886.26 1272.74 1886.26 1278.66 Z" fill="#000000" fill-rule="nonzero" fill-opacity="1"></path><path clip-path="url(#clip990)" d="M1913.69 1268.53 L1913.69 1272.51 Q1911.88 1271.51 1910.05 1271.03 Q1908.25 1270.52 1906.4 1270.52 Q1902.25 1270.52 1899.96 1273.16 Q1897.67 1275.77 1897.67 1280.52 Q1897.67 1285.26 1899.96 1287.9 Q1902.25 1290.52 1906.4 1290.52 Q1908.25 1290.52 1910.05 1290.03 Q1911.88 1289.52 1913.69 1288.53 L1913.69 1292.46 Q1911.91 1293.29 1909.99 1293.71 Q1908.09 1294.13 1905.93 1294.13 Q1900.08 1294.13 1896.63 1290.45 Q1893.18 1286.77 1893.18 1280.52 Q1893.18 1274.17 1896.65 1270.54 Q1900.15 1266.91 1906.21 1266.91 Q1908.18 1266.91 1910.05 1267.32 Q1911.93 1267.72 1913.69 1268.53 Z" fill="#000000" fill-rule="nonzero" fill-opacity="1"></path><path clip-path="url(#clip990)" d="M1925.31 1260.17 L1925.31 1267.53 L1934.08 1267.53 L1934.08 1270.84 L1925.31 1270.84 L1925.31 1284.91 Q1925.31 1288.09 1926.17 1288.99 Q1927.05 1289.89 1929.71 1289.89 L1934.08 1289.89 L1934.08 1293.46 L1929.71 1293.46 Q1924.78 1293.46 1922.9 1291.63 Q1921.03 1289.78 1921.03 1284.91 L1921.03 1270.84 L1917.9 1270.84 L1917.9 1267.53 L1921.03 1267.53 L1921.03 1260.17 L1925.31 1260.17 Z" fill="#000000" fill-rule="nonzero" fill-opacity="1"></path><path clip-path="url(#clip990)" d="M1978.5 1288.53 L1978.5 1279.24 L1970.86 1279.24 L1970.86 1275.4 L1983.13 1275.4 L1983.13 1290.24 Q1980.42 1292.16 1977.16 1293.16 Q1973.9 1294.13 1970.19 1294.13 Q1962.09 1294.13 1957.51 1289.41 Q1952.95 1284.66 1952.95 1276.21 Q1952.95 1267.74 1957.51 1263.02 Q1962.09 1258.27 1970.19 1258.27 Q1973.57 1258.27 1976.61 1259.1 Q1979.66 1259.94 1982.23 1261.56 L1982.23 1266.54 Q1979.64 1264.34 1976.72 1263.22 Q1973.8 1262.11 1970.59 1262.11 Q1964.24 1262.11 1961.05 1265.66 Q1957.88 1269.2 1957.88 1276.21 Q1957.88 1283.2 1961.05 1286.74 Q1964.24 1290.28 1970.59 1290.28 Q1973.06 1290.28 1975.01 1289.87 Q1976.95 1289.43 1978.5 1288.53 Z" fill="#000000" fill-rule="nonzero" fill-opacity="1"></path><path clip-path="url(#clip990)" d="M1991.67 1258.9 L1998.64 1258.9 L2007.46 1282.41 L2016.33 1258.9 L2023.29 1258.9 L2023.29 1293.46 L2018.73 1293.46 L2018.73 1263.11 L2009.82 1286.81 L2005.12 1286.81 L1996.21 1263.11 L1996.21 1293.46 L1991.67 1293.46 L1991.67 1258.9 Z" fill="#000000" fill-rule="nonzero" fill-opacity="1"></path><path clip-path="url(#clip990)" d="M2048.97 1277.25 Q2050.47 1277.76 2051.88 1279.43 Q2053.32 1281.1 2054.75 1284.01 L2059.5 1293.46 L2054.48 1293.46 L2050.05 1284.59 Q2048.34 1281.12 2046.72 1279.98 Q2045.12 1278.85 2042.35 1278.85 L2037.25 1278.85 L2037.25 1293.46 L2032.58 1293.46 L2032.58 1258.9 L2043.13 1258.9 Q2049.06 1258.9 2051.98 1261.37 Q2054.89 1263.85 2054.89 1268.85 Q2054.89 1272.11 2053.36 1274.27 Q2051.86 1276.42 2048.97 1277.25 M2037.25 1262.74 L2037.25 1275.01 L2043.13 1275.01 Q2046.51 1275.01 2048.23 1273.46 Q2049.96 1271.88 2049.96 1268.85 Q2049.96 1265.82 2048.23 1264.29 Q2046.51 1262.74 2043.13 1262.74 L2037.25 1262.74 Z" fill="#000000" fill-rule="nonzero" fill-opacity="1"></path><path clip-path="url(#clip990)" d="M2065.52 1258.9 L2087.37 1258.9 L2087.37 1262.83 L2070.19 1262.83 L2070.19 1273.06 L2086.65 1273.06 L2086.65 1277 L2070.19 1277 L2070.19 1289.52 L2087.79 1289.52 L2087.79 1293.46 L2065.52 1293.46 L2065.52 1258.9 Z" fill="#000000" fill-rule="nonzero" fill-opacity="1"></path><path clip-path="url(#clip990)" d="M2116.19 1260.03 L2116.19 1264.59 Q2113.53 1263.32 2111.16 1262.69 Q2108.8 1262.07 2106.6 1262.07 Q2102.79 1262.07 2100.7 1263.55 Q2098.64 1265.03 2098.64 1267.76 Q2098.64 1270.05 2100.01 1271.23 Q2101.4 1272.39 2105.24 1273.11 L2108.06 1273.69 Q2113.29 1274.68 2115.77 1277.21 Q2118.27 1279.71 2118.27 1283.92 Q2118.27 1288.94 2114.89 1291.53 Q2111.54 1294.13 2105.03 1294.13 Q2102.58 1294.13 2099.8 1293.57 Q2097.04 1293.02 2094.08 1291.93 L2094.08 1287.11 Q2096.93 1288.71 2099.66 1289.52 Q2102.39 1290.33 2105.03 1290.33 Q2109.04 1290.33 2111.21 1288.76 Q2113.39 1287.18 2113.39 1284.27 Q2113.39 1281.72 2111.81 1280.29 Q2110.26 1278.85 2106.7 1278.13 L2103.85 1277.58 Q2098.62 1276.54 2096.28 1274.31 Q2093.94 1272.09 2093.94 1268.13 Q2093.94 1263.55 2097.16 1260.91 Q2100.4 1258.27 2106.07 1258.27 Q2108.5 1258.27 2111.03 1258.71 Q2113.55 1259.15 2116.19 1260.03 Z" fill="#000000" fill-rule="nonzero" fill-opacity="1"></path><circle clip-path="url(#clip990)" cx="1671.59" cy="1328.02" r="20.48" fill="#e26f46" fill-rule="evenodd" fill-opacity="1" stroke="#000000" stroke-opacity="1" stroke-width="4.55111"></circle>
<path clip-path="url(#clip990)" d="M1793.62 1313.4 L1793.62 1318.33 Q1791.26 1316.13 1788.57 1315.04 Q1785.91 1313.95 1782.9 1313.95 Q1776.98 1313.95 1773.83 1317.59 Q1770.68 1321.2 1770.68 1328.05 Q1770.68 1334.88 1773.83 1338.51 Q1776.98 1342.12 1782.9 1342.12 Q1785.91 1342.12 1788.57 1341.04 Q1791.26 1339.95 1793.62 1337.75 L1793.62 1342.63 Q1791.17 1344.3 1788.41 1345.13 Q1785.68 1345.97 1782.62 1345.97 Q1774.78 1345.97 1770.26 1341.18 Q1765.75 1336.36 1765.75 1328.05 Q1765.75 1319.72 1770.26 1314.93 Q1774.78 1310.11 1782.62 1310.11 Q1785.73 1310.11 1788.46 1310.94 Q1791.21 1311.75 1793.62 1313.4 Z" fill="#000000" fill-rule="nonzero" fill-opacity="1"></path><path clip-path="url(#clip990)" d="M1810.7 1322.36 Q1807.28 1322.36 1805.29 1325.04 Q1803.3 1327.7 1803.3 1332.36 Q1803.3 1337.01 1805.26 1339.69 Q1807.25 1342.36 1810.7 1342.36 Q1814.11 1342.36 1816.1 1339.67 Q1818.09 1336.99 1818.09 1332.36 Q1818.09 1327.75 1816.1 1325.06 Q1814.11 1322.36 1810.7 1322.36 M1810.7 1318.75 Q1816.26 1318.75 1819.43 1322.36 Q1822.6 1325.97 1822.6 1332.36 Q1822.6 1338.72 1819.43 1342.36 Q1816.26 1345.97 1810.7 1345.97 Q1805.12 1345.97 1801.95 1342.36 Q1798.81 1338.72 1798.81 1332.36 Q1798.81 1325.97 1801.95 1322.36 Q1805.12 1318.75 1810.7 1318.75 Z" fill="#000000" fill-rule="nonzero" fill-opacity="1"></path><path clip-path="url(#clip990)" d="M1851.21 1329.65 L1851.21 1345.3 L1846.95 1345.3 L1846.95 1329.79 Q1846.95 1326.11 1845.52 1324.28 Q1844.08 1322.45 1841.21 1322.45 Q1837.76 1322.45 1835.77 1324.65 Q1833.78 1326.85 1833.78 1330.64 L1833.78 1345.3 L1829.5 1345.3 L1829.5 1319.37 L1833.78 1319.37 L1833.78 1323.4 Q1835.31 1321.06 1837.37 1319.9 Q1839.45 1318.75 1842.16 1318.75 Q1846.63 1318.75 1848.92 1321.52 Q1851.21 1324.28 1851.21 1329.65 Z" fill="#000000" fill-rule="nonzero" fill-opacity="1"></path><path clip-path="url(#clip990)" d="M1856.65 1319.37 L1861.17 1319.37 L1869.27 1341.13 L1877.37 1319.37 L1881.88 1319.37 L1872.16 1345.3 L1866.37 1345.3 L1856.65 1319.37 Z" fill="#000000" fill-rule="nonzero" fill-opacity="1"></path><path clip-path="url(#clip990)" d="M1909.94 1331.27 L1909.94 1333.35 L1890.36 1333.35 Q1890.63 1337.75 1892.99 1340.06 Q1895.38 1342.36 1899.61 1342.36 Q1902.07 1342.36 1904.36 1341.75 Q1906.68 1341.15 1908.94 1339.95 L1908.94 1343.98 Q1906.65 1344.95 1904.24 1345.46 Q1901.84 1345.97 1899.36 1345.97 Q1893.16 1345.97 1889.52 1342.36 Q1885.91 1338.75 1885.91 1332.59 Q1885.91 1326.22 1889.34 1322.5 Q1892.79 1318.75 1898.62 1318.75 Q1903.85 1318.75 1906.88 1322.13 Q1909.94 1325.48 1909.94 1331.27 M1905.68 1330.02 Q1905.63 1326.52 1903.71 1324.44 Q1901.81 1322.36 1898.67 1322.36 Q1895.1 1322.36 1892.95 1324.37 Q1890.82 1326.38 1890.49 1330.04 L1905.68 1330.02 Z" fill="#000000" fill-rule="nonzero" fill-opacity="1"></path><path clip-path="url(#clip990)" d="M1938.48 1329.65 L1938.48 1345.3 L1934.22 1345.3 L1934.22 1329.79 Q1934.22 1326.11 1932.79 1324.28 Q1931.35 1322.45 1928.48 1322.45 Q1925.03 1322.45 1923.04 1324.65 Q1921.05 1326.85 1921.05 1330.64 L1921.05 1345.3 L1916.77 1345.3 L1916.77 1319.37 L1921.05 1319.37 L1921.05 1323.4 Q1922.58 1321.06 1924.64 1319.9 Q1926.72 1318.75 1929.43 1318.75 Q1933.9 1318.75 1936.19 1321.52 Q1938.48 1324.28 1938.48 1329.65 Z" fill="#000000" fill-rule="nonzero" fill-opacity="1"></path><path clip-path="url(#clip990)" d="M1951.19 1312.01 L1951.19 1319.37 L1959.96 1319.37 L1959.96 1322.68 L1951.19 1322.68 L1951.19 1336.75 Q1951.19 1339.93 1952.05 1340.83 Q1952.92 1341.73 1955.59 1341.73 L1959.96 1341.73 L1959.96 1345.3 L1955.59 1345.3 Q1950.66 1345.3 1948.78 1343.47 Q1946.91 1341.62 1946.91 1336.75 L1946.91 1322.68 L1943.78 1322.68 L1943.78 1319.37 L1946.91 1319.37 L1946.91 1312.01 L1951.19 1312.01 Z" fill="#000000" fill-rule="nonzero" fill-opacity="1"></path><path clip-path="url(#clip990)" d="M1965.56 1319.37 L1969.82 1319.37 L1969.82 1345.3 L1965.56 1345.3 L1965.56 1319.37 M1965.56 1309.28 L1969.82 1309.28 L1969.82 1314.67 L1965.56 1314.67 L1965.56 1309.28 Z" fill="#000000" fill-rule="nonzero" fill-opacity="1"></path><path clip-path="url(#clip990)" d="M1988.78 1322.36 Q1985.36 1322.36 1983.36 1325.04 Q1981.37 1327.7 1981.37 1332.36 Q1981.37 1337.01 1983.34 1339.69 Q1985.33 1342.36 1988.78 1342.36 Q1992.18 1342.36 1994.17 1339.67 Q1996.17 1336.99 1996.17 1332.36 Q1996.17 1327.75 1994.17 1325.06 Q1992.18 1322.36 1988.78 1322.36 M1988.78 1318.75 Q1994.34 1318.75 1997.51 1322.36 Q2000.68 1325.97 2000.68 1332.36 Q2000.68 1338.72 1997.51 1342.36 Q1994.34 1345.97 1988.78 1345.97 Q1983.2 1345.97 1980.03 1342.36 Q1976.88 1338.72 1976.88 1332.36 Q1976.88 1325.97 1980.03 1322.36 Q1983.2 1318.75 1988.78 1318.75 Z" fill="#000000" fill-rule="nonzero" fill-opacity="1"></path><path clip-path="url(#clip990)" d="M2029.29 1329.65 L2029.29 1345.3 L2025.03 1345.3 L2025.03 1329.79 Q2025.03 1326.11 2023.6 1324.28 Q2022.16 1322.45 2019.29 1322.45 Q2015.84 1322.45 2013.85 1324.65 Q2011.86 1326.85 2011.86 1330.64 L2011.86 1345.3 L2007.58 1345.3 L2007.58 1319.37 L2011.86 1319.37 L2011.86 1323.4 Q2013.39 1321.06 2015.45 1319.9 Q2017.53 1318.75 2020.24 1318.75 Q2024.71 1318.75 2027 1321.52 Q2029.29 1324.28 2029.29 1329.65 Z" fill="#000000" fill-rule="nonzero" fill-opacity="1"></path><path clip-path="url(#clip990)" d="M2049.57 1332.26 Q2044.41 1332.26 2042.42 1333.44 Q2040.42 1334.63 2040.42 1337.47 Q2040.42 1339.74 2041.91 1341.08 Q2043.41 1342.4 2045.98 1342.4 Q2049.52 1342.4 2051.65 1339.9 Q2053.8 1337.38 2053.8 1333.21 L2053.8 1332.26 L2049.57 1332.26 M2058.06 1330.5 L2058.06 1345.3 L2053.8 1345.3 L2053.8 1341.36 Q2052.35 1343.72 2050.17 1344.86 Q2047.99 1345.97 2044.85 1345.97 Q2040.86 1345.97 2038.5 1343.75 Q2036.17 1341.5 2036.17 1337.75 Q2036.17 1333.38 2039.08 1331.15 Q2042.02 1328.93 2047.83 1328.93 L2053.8 1328.93 L2053.8 1328.51 Q2053.8 1325.57 2051.86 1323.98 Q2049.94 1322.36 2046.44 1322.36 Q2044.22 1322.36 2042.11 1322.89 Q2040.01 1323.42 2038.06 1324.49 L2038.06 1320.55 Q2040.4 1319.65 2042.6 1319.21 Q2044.8 1318.75 2046.88 1318.75 Q2052.51 1318.75 2055.29 1321.66 Q2058.06 1324.58 2058.06 1330.5 Z" fill="#000000" fill-rule="nonzero" fill-opacity="1"></path><path clip-path="url(#clip990)" d="M2066.84 1309.28 L2071.1 1309.28 L2071.1 1345.3 L2066.84 1345.3 L2066.84 1309.28 Z" fill="#000000" fill-rule="nonzero" fill-opacity="1"></path><path clip-path="url(#clip990)" d="M2118.83 1340.37 L2118.83 1331.08 L2111.19 1331.08 L2111.19 1327.24 L2123.46 1327.24 L2123.46 1342.08 Q2120.75 1344 2117.48 1345 Q2114.22 1345.97 2110.52 1345.97 Q2102.41 1345.97 2097.83 1341.25 Q2093.27 1336.5 2093.27 1328.05 Q2093.27 1319.58 2097.83 1314.86 Q2102.41 1310.11 2110.52 1310.11 Q2113.9 1310.11 2116.93 1310.94 Q2119.98 1311.78 2122.55 1313.4 L2122.55 1318.38 Q2119.96 1316.18 2117.04 1315.06 Q2114.13 1313.95 2110.91 1313.95 Q2104.57 1313.95 2101.37 1317.5 Q2098.2 1321.04 2098.2 1328.05 Q2098.2 1335.04 2101.37 1338.58 Q2104.57 1342.12 2110.91 1342.12 Q2113.39 1342.12 2115.33 1341.71 Q2117.28 1341.27 2118.83 1340.37 Z" fill="#000000" fill-rule="nonzero" fill-opacity="1"></path><path clip-path="url(#clip990)" d="M2132 1310.74 L2138.97 1310.74 L2147.78 1334.25 L2156.65 1310.74 L2163.62 1310.74 L2163.62 1345.3 L2159.06 1345.3 L2159.06 1314.95 L2150.15 1338.65 L2145.45 1338.65 L2136.54 1314.95 L2136.54 1345.3 L2132 1345.3 L2132 1310.74 Z" fill="#000000" fill-rule="nonzero" fill-opacity="1"></path><path clip-path="url(#clip990)" d="M2189.29 1329.09 Q2190.79 1329.6 2192.21 1331.27 Q2193.64 1332.94 2195.08 1335.85 L2199.82 1345.3 L2194.8 1345.3 L2190.38 1336.43 Q2188.66 1332.96 2187.04 1331.82 Q2185.45 1330.69 2182.67 1330.69 L2177.58 1330.69 L2177.58 1345.3 L2172.9 1345.3 L2172.9 1310.74 L2183.46 1310.74 Q2189.38 1310.74 2192.3 1313.21 Q2195.22 1315.69 2195.22 1320.69 Q2195.22 1323.95 2193.69 1326.11 Q2192.18 1328.26 2189.29 1329.09 M2177.58 1314.58 L2177.58 1326.85 L2183.46 1326.85 Q2186.84 1326.85 2188.55 1325.3 Q2190.28 1323.72 2190.28 1320.69 Q2190.28 1317.66 2188.55 1316.13 Q2186.84 1314.58 2183.46 1314.58 L2177.58 1314.58 Z" fill="#000000" fill-rule="nonzero" fill-opacity="1"></path><path clip-path="url(#clip990)" d="M2205.84 1310.74 L2227.69 1310.74 L2227.69 1314.67 L2210.52 1314.67 L2210.52 1324.9 L2226.97 1324.9 L2226.97 1328.84 L2210.52 1328.84 L2210.52 1341.36 L2228.11 1341.36 L2228.11 1345.3 L2205.84 1345.3 L2205.84 1310.74 Z" fill="#000000" fill-rule="nonzero" fill-opacity="1"></path><path clip-path="url(#clip990)" d="M2256.51 1311.87 L2256.51 1316.43 Q2253.85 1315.16 2251.49 1314.53 Q2249.13 1313.91 2246.93 1313.91 Q2243.11 1313.91 2241.03 1315.39 Q2238.97 1316.87 2238.97 1319.6 Q2238.97 1321.89 2240.33 1323.07 Q2241.72 1324.23 2245.56 1324.95 L2248.39 1325.53 Q2253.62 1326.52 2256.09 1329.05 Q2258.59 1331.55 2258.59 1335.76 Q2258.59 1340.78 2255.21 1343.37 Q2251.86 1345.97 2245.35 1345.97 Q2242.9 1345.97 2240.12 1345.41 Q2237.37 1344.86 2234.4 1343.77 L2234.4 1338.95 Q2237.25 1340.55 2239.98 1341.36 Q2242.72 1342.17 2245.35 1342.17 Q2249.36 1342.17 2251.53 1340.6 Q2253.71 1339.02 2253.71 1336.11 Q2253.71 1333.56 2252.14 1332.13 Q2250.59 1330.69 2247.02 1329.97 L2244.17 1329.42 Q2238.94 1328.38 2236.6 1326.15 Q2234.27 1323.93 2234.27 1319.97 Q2234.27 1315.39 2237.48 1312.75 Q2240.72 1310.11 2246.4 1310.11 Q2248.83 1310.11 2251.35 1310.55 Q2253.87 1310.99 2256.51 1311.87 Z" fill="#000000" fill-rule="nonzero" fill-opacity="1"></path></svg>