<svg xmlns="http://www.w3.org/2000/svg" xmlns:xlink="http://www.w3.org/1999/xlink" width="600" height="400" viewBox="0 0 2400 1600">
<defs>
  <clipPath id="clip170">
    <rect x="0" y="0" width="2400" height="1600"></rect>
  </clipPath>
</defs>
<path clip-path="url(#clip170)" d="M0 1600 L2400 1600 L2400 0 L0 0  Z" fill="#ffffff" fill-rule="evenodd" fill-opacity="1"></path>
<defs>
  <clipPath id="clip171">
    <rect x="480" y="0" width="1681" height="1600"></rect>
  </clipPath>
</defs>
<path clip-path="url(#clip170)" d="M270.624 1423.18 L2352.76 1423.18 L2352.76 123.472 L270.624 123.472  Z" fill="#ffffff" fill-rule="evenodd" fill-opacity="1"></path>
<defs>
  <clipPath id="clip172">
    <rect x="270" y="123" width="2083" height="1301"></rect>
  </clipPath>
</defs>
<polyline clip-path="url(#clip172)" style="stroke:#000000; stroke-linecap:round; stroke-linejoin:round; stroke-width:2; stroke-opacity:0.1; fill:none" points="329.552,1423.18 329.552,123.472 "></polyline>
<polyline clip-path="url(#clip172)" style="stroke:#000000; stroke-linecap:round; stroke-linejoin:round; stroke-width:2; stroke-opacity:0.1; fill:none" points="885.528,1423.18 885.528,123.472 "></polyline>
<polyline clip-path="url(#clip172)" style="stroke:#000000; stroke-linecap:round; stroke-linejoin:round; stroke-width:2; stroke-opacity:0.1; fill:none" points="1309.31,1423.18 1309.31,123.472 "></polyline>
<polyline clip-path="url(#clip172)" style="stroke:#000000; stroke-linecap:round; stroke-linejoin:round; stroke-width:2; stroke-opacity:0.1; fill:none" points="1733.08,1423.18 1733.08,123.472 "></polyline>
<polyline clip-path="url(#clip172)" style="stroke:#000000; stroke-linecap:round; stroke-linejoin:round; stroke-width:2; stroke-opacity:0.1; fill:none" points="2293.83,1423.18 2293.83,123.472 "></polyline>
<polyline clip-path="url(#clip170)" style="stroke:#000000; stroke-linecap:round; stroke-linejoin:round; stroke-width:4; stroke-opacity:1; fill:none" points="270.624,1423.18 2352.76,1423.18 "></polyline>
<polyline clip-path="url(#clip170)" style="stroke:#000000; stroke-linecap:round; stroke-linejoin:round; stroke-width:4; stroke-opacity:1; fill:none" points="329.552,1423.18 329.552,1404.28 "></polyline>
<polyline clip-path="url(#clip170)" style="stroke:#000000; stroke-linecap:round; stroke-linejoin:round; stroke-width:4; stroke-opacity:1; fill:none" points="885.528,1423.18 885.528,1404.28 "></polyline>
<polyline clip-path="url(#clip170)" style="stroke:#000000; stroke-linecap:round; stroke-linejoin:round; stroke-width:4; stroke-opacity:1; fill:none" points="1309.31,1423.18 1309.31,1404.28 "></polyline>
<polyline clip-path="url(#clip170)" style="stroke:#000000; stroke-linecap:round; stroke-linejoin:round; stroke-width:4; stroke-opacity:1; fill:none" points="1733.08,1423.18 1733.08,1404.28 "></polyline>
<polyline clip-path="url(#clip170)" style="stroke:#000000; stroke-linecap:round; stroke-linejoin:round; stroke-width:4; stroke-opacity:1; fill:none" points="2293.83,1423.18 2293.83,1404.28 "></polyline>
<path clip-path="url(#clip170)" d="M274.078 1481.64 L281.717 1481.64 L281.717 1455.28 L273.407 1456.95 L273.407 1452.69 L281.671 1451.02 L286.347 1451.02 L286.347 1481.64 L293.985 1481.64 L293.985 1485.58 L274.078 1485.58 L274.078 1481.64 Z" fill="#000000" fill-rule="nonzero" fill-opacity="1"></path><path clip-path="url(#clip170)" d="M314.008 1466.44 Q310.86 1466.44 309.009 1468.59 Q307.18 1470.74 307.18 1474.49 Q307.18 1478.22 309.009 1480.39 Q310.86 1482.55 314.008 1482.55 Q317.157 1482.55 318.985 1480.39 Q320.837 1478.22 320.837 1474.49 Q320.837 1470.74 318.985 1468.59 Q317.157 1466.44 314.008 1466.44 M323.291 1451.78 L323.291 1456.04 Q321.532 1455.21 319.726 1454.77 Q317.944 1454.33 316.184 1454.33 Q311.555 1454.33 309.101 1457.45 Q306.671 1460.58 306.323 1466.9 Q307.689 1464.89 309.749 1463.82 Q311.809 1462.73 314.286 1462.73 Q319.495 1462.73 322.504 1465.9 Q325.536 1469.05 325.536 1474.49 Q325.536 1479.82 322.388 1483.03 Q319.24 1486.25 314.008 1486.25 Q308.013 1486.25 304.842 1481.67 Q301.671 1477.06 301.671 1468.33 Q301.671 1460.14 305.559 1455.28 Q309.448 1450.39 315.999 1450.39 Q317.758 1450.39 319.541 1450.74 Q321.346 1451.09 323.291 1451.78 Z" fill="#000000" fill-rule="nonzero" fill-opacity="1"></path><path clip-path="url(#clip170)" d="M333.638 1451.02 L351.994 1451.02 L351.994 1454.96 L337.92 1454.96 L337.92 1463.43 Q338.939 1463.08 339.957 1462.92 Q340.976 1462.73 341.994 1462.73 Q347.781 1462.73 351.161 1465.9 Q354.541 1469.08 354.541 1474.49 Q354.541 1480.07 351.068 1483.17 Q347.596 1486.25 341.277 1486.25 Q339.101 1486.25 336.832 1485.88 Q334.587 1485.51 332.18 1484.77 L332.18 1480.07 Q334.263 1481.2 336.485 1481.76 Q338.707 1482.32 341.184 1482.32 Q345.189 1482.32 347.527 1480.21 Q349.865 1478.1 349.865 1474.49 Q349.865 1470.88 347.527 1468.77 Q345.189 1466.67 341.184 1466.67 Q339.309 1466.67 337.434 1467.08 Q335.582 1467.5 333.638 1468.38 L333.638 1451.02 Z" fill="#000000" fill-rule="nonzero" fill-opacity="1"></path><path clip-path="url(#clip170)" d="M373.754 1454.1 Q370.142 1454.1 368.314 1457.66 Q366.508 1461.2 366.508 1468.33 Q366.508 1475.44 368.314 1479.01 Q370.142 1482.55 373.754 1482.55 Q377.388 1482.55 379.193 1479.01 Q381.022 1475.44 381.022 1468.33 Q381.022 1461.2 379.193 1457.66 Q377.388 1454.1 373.754 1454.1 M373.754 1450.39 Q379.564 1450.39 382.619 1455 Q385.698 1459.58 385.698 1468.33 Q385.698 1477.06 382.619 1481.67 Q379.564 1486.25 373.754 1486.25 Q367.943 1486.25 364.865 1481.67 Q361.809 1477.06 361.809 1468.33 Q361.809 1459.58 364.865 1455 Q367.943 1450.39 373.754 1450.39 Z" fill="#000000" fill-rule="nonzero" fill-opacity="1"></path><path clip-path="url(#clip170)" d="M843.538 1455.09 L831.732 1473.54 L843.538 1473.54 L843.538 1455.09 M842.311 1451.02 L848.19 1451.02 L848.19 1473.54 L853.121 1473.54 L853.121 1477.43 L848.19 1477.43 L848.19 1485.58 L843.538 1485.58 L843.538 1477.43 L827.936 1477.43 L827.936 1472.92 L842.311 1451.02 Z" fill="#000000" fill-rule="nonzero" fill-opacity="1"></path><path clip-path="url(#clip170)" d="M870.852 1454.1 Q867.241 1454.1 865.413 1457.66 Q863.607 1461.2 863.607 1468.33 Q863.607 1475.44 865.413 1479.01 Q867.241 1482.55 870.852 1482.55 Q874.487 1482.55 876.292 1479.01 Q878.121 1475.44 878.121 1468.33 Q878.121 1461.2 876.292 1457.66 Q874.487 1454.1 870.852 1454.1 M870.852 1450.39 Q876.662 1450.39 879.718 1455 Q882.797 1459.58 882.797 1468.33 Q882.797 1477.06 879.718 1481.67 Q876.662 1486.25 870.852 1486.25 Q865.042 1486.25 861.963 1481.67 Q858.908 1477.06 858.908 1468.33 Q858.908 1459.58 861.963 1455 Q865.042 1450.39 870.852 1450.39 Z" fill="#000000" fill-rule="nonzero" fill-opacity="1"></path><path clip-path="url(#clip170)" d="M891.153 1484.86 L891.153 1480.6 Q892.912 1481.44 894.718 1481.88 Q896.523 1482.32 898.26 1482.32 Q902.889 1482.32 905.32 1479.21 Q907.773 1476.09 908.121 1469.75 Q906.778 1471.74 904.718 1472.8 Q902.658 1473.87 900.158 1473.87 Q894.973 1473.87 891.94 1470.74 Q888.931 1467.59 888.931 1462.15 Q888.931 1456.83 892.079 1453.61 Q895.227 1450.39 900.459 1450.39 Q906.454 1450.39 909.602 1455 Q912.773 1459.58 912.773 1468.33 Q912.773 1476.51 908.885 1481.39 Q905.019 1486.25 898.468 1486.25 Q896.709 1486.25 894.903 1485.9 Q893.098 1485.56 891.153 1484.86 M900.459 1470.21 Q903.607 1470.21 905.435 1468.06 Q907.287 1465.9 907.287 1462.15 Q907.287 1458.43 905.435 1456.27 Q903.607 1454.1 900.459 1454.1 Q897.311 1454.1 895.459 1456.27 Q893.63 1458.43 893.63 1462.15 Q893.63 1465.9 895.459 1468.06 Q897.311 1470.21 900.459 1470.21 Z" fill="#000000" fill-rule="nonzero" fill-opacity="1"></path><path clip-path="url(#clip170)" d="M931.176 1454.1 Q927.565 1454.1 925.736 1457.66 Q923.931 1461.2 923.931 1468.33 Q923.931 1475.44 925.736 1479.01 Q927.565 1482.55 931.176 1482.55 Q934.81 1482.55 936.616 1479.01 Q938.445 1475.44 938.445 1468.33 Q938.445 1461.2 936.616 1457.66 Q934.81 1454.1 931.176 1454.1 M931.176 1450.39 Q936.986 1450.39 940.042 1455 Q943.12 1459.58 943.12 1468.33 Q943.12 1477.06 940.042 1481.67 Q936.986 1486.25 931.176 1486.25 Q925.366 1486.25 922.287 1481.67 Q919.232 1477.06 919.232 1468.33 Q919.232 1459.58 922.287 1455 Q925.366 1450.39 931.176 1450.39 Z" fill="#000000" fill-rule="nonzero" fill-opacity="1"></path><path clip-path="url(#clip170)" d="M1264.02 1469.17 Q1260.68 1469.17 1258.76 1470.95 Q1256.86 1472.73 1256.86 1475.86 Q1256.86 1478.98 1258.76 1480.77 Q1260.68 1482.55 1264.02 1482.55 Q1267.35 1482.55 1269.27 1480.77 Q1271.19 1478.96 1271.19 1475.86 Q1271.19 1472.73 1269.27 1470.95 Q1267.37 1469.17 1264.02 1469.17 M1259.34 1467.18 Q1256.33 1466.44 1254.64 1464.38 Q1252.98 1462.32 1252.98 1459.35 Q1252.98 1455.21 1255.92 1452.8 Q1258.88 1450.39 1264.02 1450.39 Q1269.18 1450.39 1272.12 1452.8 Q1275.06 1455.21 1275.06 1459.35 Q1275.06 1462.32 1273.37 1464.38 Q1271.7 1466.44 1268.72 1467.18 Q1272.1 1467.96 1273.97 1470.26 Q1275.87 1472.55 1275.87 1475.86 Q1275.87 1480.88 1272.79 1483.57 Q1269.73 1486.25 1264.02 1486.25 Q1258.3 1486.25 1255.22 1483.57 Q1252.17 1480.88 1252.17 1475.86 Q1252.17 1472.55 1254.06 1470.26 Q1255.96 1467.96 1259.34 1467.18 M1257.63 1459.79 Q1257.63 1462.48 1259.3 1463.98 Q1260.98 1465.49 1264.02 1465.49 Q1267.03 1465.49 1268.72 1463.98 Q1270.43 1462.48 1270.43 1459.79 Q1270.43 1457.11 1268.72 1455.6 Q1267.03 1454.1 1264.02 1454.1 Q1260.98 1454.1 1259.3 1455.6 Q1257.63 1457.11 1257.63 1459.79 Z" fill="#000000" fill-rule="nonzero" fill-opacity="1"></path><path clip-path="url(#clip170)" d="M1284.99 1481.64 L1292.63 1481.64 L1292.63 1455.28 L1284.32 1456.95 L1284.32 1452.69 L1292.58 1451.02 L1297.26 1451.02 L1297.26 1481.64 L1304.9 1481.64 L1304.9 1485.58 L1284.99 1485.58 L1284.99 1481.64 Z" fill="#000000" fill-rule="nonzero" fill-opacity="1"></path><path clip-path="url(#clip170)" d="M1313.16 1451.02 L1335.38 1451.02 L1335.38 1453.01 L1322.84 1485.58 L1317.95 1485.58 L1329.76 1454.96 L1313.16 1454.96 L1313.16 1451.02 Z" fill="#000000" fill-rule="nonzero" fill-opacity="1"></path><path clip-path="url(#clip170)" d="M1354.5 1454.1 Q1350.89 1454.1 1349.06 1457.66 Q1347.26 1461.2 1347.26 1468.33 Q1347.26 1475.44 1349.06 1479.01 Q1350.89 1482.55 1354.5 1482.55 Q1358.14 1482.55 1359.94 1479.01 Q1361.77 1475.44 1361.77 1468.33 Q1361.77 1461.2 1359.94 1457.66 Q1358.14 1454.1 1354.5 1454.1 M1354.5 1450.39 Q1360.31 1450.39 1363.37 1455 Q1366.45 1459.58 1366.45 1468.33 Q1366.45 1477.06 1363.37 1481.67 Q1360.31 1486.25 1354.5 1486.25 Q1348.69 1486.25 1345.61 1481.67 Q1342.56 1477.06 1342.56 1468.33 Q1342.56 1459.58 1345.61 1455 Q1348.69 1450.39 1354.5 1450.39 Z" fill="#000000" fill-rule="nonzero" fill-opacity="1"></path><path clip-path="url(#clip170)" d="M1662.53 1481.64 L1670.17 1481.64 L1670.17 1455.28 L1661.86 1456.95 L1661.86 1452.69 L1670.12 1451.02 L1674.8 1451.02 L1674.8 1481.64 L1682.44 1481.64 L1682.44 1485.58 L1662.53 1485.58 L1662.53 1481.64 Z" fill="#000000" fill-rule="nonzero" fill-opacity="1"></path><path clip-path="url(#clip170)" d="M1702.46 1466.44 Q1699.31 1466.44 1697.46 1468.59 Q1695.63 1470.74 1695.63 1474.49 Q1695.63 1478.22 1697.46 1480.39 Q1699.31 1482.55 1702.46 1482.55 Q1705.61 1482.55 1707.44 1480.39 Q1709.29 1478.22 1709.29 1474.49 Q1709.29 1470.74 1707.44 1468.59 Q1705.61 1466.44 1702.46 1466.44 M1711.74 1451.78 L1711.74 1456.04 Q1709.98 1455.21 1708.18 1454.77 Q1706.39 1454.33 1704.63 1454.33 Q1700.01 1454.33 1697.55 1457.45 Q1695.12 1460.58 1694.77 1466.9 Q1696.14 1464.89 1698.2 1463.82 Q1700.26 1462.73 1702.74 1462.73 Q1707.94 1462.73 1710.95 1465.9 Q1713.99 1469.05 1713.99 1474.49 Q1713.99 1479.82 1710.84 1483.03 Q1707.69 1486.25 1702.46 1486.25 Q1696.46 1486.25 1693.29 1481.67 Q1690.12 1477.06 1690.12 1468.33 Q1690.12 1460.14 1694.01 1455.28 Q1697.9 1450.39 1704.45 1450.39 Q1706.21 1450.39 1707.99 1450.74 Q1709.8 1451.09 1711.74 1451.78 Z" fill="#000000" fill-rule="nonzero" fill-opacity="1"></path><path clip-path="url(#clip170)" d="M1736.21 1466.95 Q1739.56 1467.66 1741.44 1469.93 Q1743.34 1472.2 1743.34 1475.53 Q1743.34 1480.65 1739.82 1483.45 Q1736.3 1486.25 1729.82 1486.25 Q1727.64 1486.25 1725.33 1485.81 Q1723.04 1485.39 1720.58 1484.54 L1720.58 1480.02 Q1722.53 1481.16 1724.84 1481.74 Q1727.16 1482.32 1729.68 1482.32 Q1734.08 1482.32 1736.37 1480.58 Q1738.69 1478.84 1738.69 1475.53 Q1738.69 1472.48 1736.53 1470.77 Q1734.4 1469.03 1730.58 1469.03 L1726.56 1469.03 L1726.56 1465.19 L1730.77 1465.19 Q1734.22 1465.19 1736.05 1463.82 Q1737.88 1462.43 1737.88 1459.84 Q1737.88 1457.18 1735.98 1455.77 Q1734.1 1454.33 1730.58 1454.33 Q1728.66 1454.33 1726.46 1454.75 Q1724.26 1455.16 1721.63 1456.04 L1721.63 1451.88 Q1724.29 1451.14 1726.6 1450.77 Q1728.94 1450.39 1731 1450.39 Q1736.32 1450.39 1739.43 1452.83 Q1742.53 1455.23 1742.53 1459.35 Q1742.53 1462.22 1740.88 1464.21 Q1739.24 1466.18 1736.21 1466.95 Z" fill="#000000" fill-rule="nonzero" fill-opacity="1"></path><path clip-path="url(#clip170)" d="M1756.23 1481.64 L1772.55 1481.64 L1772.55 1485.58 L1750.61 1485.58 L1750.61 1481.64 Q1753.27 1478.89 1757.85 1474.26 Q1762.46 1469.61 1763.64 1468.27 Q1765.88 1465.74 1766.76 1464.01 Q1767.67 1462.25 1767.67 1460.56 Q1767.67 1457.8 1765.72 1456.07 Q1763.8 1454.33 1760.7 1454.33 Q1758.5 1454.33 1756.05 1455.09 Q1753.62 1455.86 1750.84 1457.41 L1750.84 1452.69 Q1753.66 1451.55 1756.12 1450.97 Q1758.57 1450.39 1760.61 1450.39 Q1765.98 1450.39 1769.17 1453.08 Q1772.37 1455.77 1772.37 1460.26 Q1772.37 1462.39 1771.56 1464.31 Q1770.77 1466.2 1768.66 1468.8 Q1768.08 1469.47 1764.98 1472.69 Q1761.88 1475.88 1756.23 1481.64 Z" fill="#000000" fill-rule="nonzero" fill-opacity="1"></path><path clip-path="url(#clip170)" d="M1792.37 1454.1 Q1788.75 1454.1 1786.93 1457.66 Q1785.12 1461.2 1785.12 1468.33 Q1785.12 1475.44 1786.93 1479.01 Q1788.75 1482.55 1792.37 1482.55 Q1796 1482.55 1797.81 1479.01 Q1799.63 1475.44 1799.63 1468.33 Q1799.63 1461.2 1797.81 1457.66 Q1796 1454.1 1792.37 1454.1 M1792.37 1450.39 Q1798.18 1450.39 1801.23 1455 Q1804.31 1459.58 1804.31 1468.33 Q1804.31 1477.06 1801.23 1481.67 Q1798.18 1486.25 1792.37 1486.25 Q1786.56 1486.25 1783.48 1481.67 Q1780.42 1477.06 1780.42 1468.33 Q1780.42 1459.58 1783.48 1455 Q1786.56 1450.39 1792.37 1450.39 Z" fill="#000000" fill-rule="nonzero" fill-opacity="1"></path><path clip-path="url(#clip170)" d="M2236.76 1455.09 L2224.95 1473.54 L2236.76 1473.54 L2236.76 1455.09 M2235.53 1451.02 L2241.41 1451.02 L2241.41 1473.54 L2246.34 1473.54 L2246.34 1477.43 L2241.41 1477.43 L2241.41 1485.58 L2236.76 1485.58 L2236.76 1477.43 L2221.15 1477.43 L2221.15 1472.92 L2235.53 1451.02 Z" fill="#000000" fill-rule="nonzero" fill-opacity="1"></path><path clip-path="url(#clip170)" d="M2264.07 1454.1 Q2260.46 1454.1 2258.63 1457.66 Q2256.83 1461.2 2256.83 1468.33 Q2256.83 1475.44 2258.63 1479.01 Q2260.46 1482.55 2264.07 1482.55 Q2267.71 1482.55 2269.51 1479.01 Q2271.34 1475.44 2271.34 1468.33 Q2271.34 1461.2 2269.51 1457.66 Q2267.71 1454.1 2264.07 1454.1 M2264.07 1450.39 Q2269.88 1450.39 2272.94 1455 Q2276.02 1459.58 2276.02 1468.33 Q2276.02 1477.06 2272.94 1481.67 Q2269.88 1486.25 2264.07 1486.25 Q2258.26 1486.25 2255.18 1481.67 Q2252.13 1477.06 2252.13 1468.33 Q2252.13 1459.58 2255.18 1455 Q2258.26 1450.39 2264.07 1450.39 Z" fill="#000000" fill-rule="nonzero" fill-opacity="1"></path><path clip-path="url(#clip170)" d="M2283.05 1451.02 L2305.27 1451.02 L2305.27 1453.01 L2292.73 1485.58 L2287.84 1485.58 L2299.65 1454.96 L2283.05 1454.96 L2283.05 1451.02 Z" fill="#000000" fill-rule="nonzero" fill-opacity="1"></path><path clip-path="url(#clip170)" d="M2313.21 1451.02 L2335.44 1451.02 L2335.44 1453.01 L2322.89 1485.58 L2318.01 1485.58 L2329.81 1454.96 L2313.21 1454.96 L2313.21 1451.02 Z" fill="#000000" fill-rule="nonzero" fill-opacity="1"></path><path clip-path="url(#clip170)" d="M2354.56 1454.1 Q2350.95 1454.1 2349.12 1457.66 Q2347.31 1461.2 2347.31 1468.33 Q2347.31 1475.44 2349.12 1479.01 Q2350.95 1482.55 2354.56 1482.55 Q2358.19 1482.55 2360 1479.01 Q2361.82 1475.44 2361.82 1468.33 Q2361.82 1461.2 2360 1457.66 Q2358.19 1454.1 2354.56 1454.1 M2354.56 1450.39 Q2360.37 1450.39 2363.42 1455 Q2366.5 1459.58 2366.5 1468.33 Q2366.5 1477.06 2363.42 1481.67 Q2360.37 1486.25 2354.56 1486.25 Q2348.75 1486.25 2345.67 1481.67 Q2342.61 1477.06 2342.61 1468.33 Q2342.61 1459.58 2345.67 1455 Q2348.75 1450.39 2354.56 1450.39 Z" fill="#000000" fill-rule="nonzero" fill-opacity="1"></path><path clip-path="url(#clip170)" d="M991.829 1524.18 L991.829 1530.96 Q988.583 1527.94 984.891 1526.44 Q981.23 1524.95 977.093 1524.95 Q968.944 1524.95 964.616 1529.95 Q960.287 1534.91 960.287 1544.33 Q960.287 1553.72 964.616 1558.72 Q968.944 1563.68 977.093 1563.68 Q981.23 1563.68 984.891 1562.19 Q988.583 1560.69 991.829 1557.67 L991.829 1564.38 Q988.455 1566.68 984.668 1567.82 Q980.912 1568.97 976.711 1568.97 Q965.921 1568.97 959.714 1562.38 Q953.508 1555.76 953.508 1544.33 Q953.508 1532.87 959.714 1526.28 Q965.921 1519.66 976.711 1519.66 Q980.976 1519.66 984.731 1520.81 Q988.519 1521.92 991.829 1524.18 Z" fill="#000000" fill-rule="nonzero" fill-opacity="1"></path><path clip-path="url(#clip170)" d="M1015.32 1536.5 Q1010.61 1536.5 1007.87 1540.19 Q1005.13 1543.85 1005.13 1550.25 Q1005.13 1556.65 1007.84 1560.34 Q1010.58 1564 1015.32 1564 Q1020 1564 1022.73 1560.31 Q1025.47 1556.62 1025.47 1550.25 Q1025.47 1543.92 1022.73 1540.23 Q1020 1536.5 1015.32 1536.5 M1015.32 1531.54 Q1022.96 1531.54 1027.32 1536.5 Q1031.68 1541.47 1031.68 1550.25 Q1031.68 1559 1027.32 1564 Q1022.96 1568.97 1015.32 1568.97 Q1007.65 1568.97 1003.29 1564 Q998.959 1559 998.959 1550.25 Q998.959 1541.47 1003.29 1536.5 Q1007.65 1531.54 1015.32 1531.54 Z" fill="#000000" fill-rule="nonzero" fill-opacity="1"></path><path clip-path="url(#clip170)" d="M1071.88 1548.76 L1071.88 1551.62 L1044.95 1551.62 Q1045.33 1557.67 1048.58 1560.85 Q1051.86 1564 1057.68 1564 Q1061.06 1564 1064.21 1563.17 Q1067.39 1562.35 1070.51 1560.69 L1070.51 1566.23 Q1067.36 1567.57 1064.05 1568.27 Q1060.74 1568.97 1057.33 1568.97 Q1048.8 1568.97 1043.81 1564 Q1038.84 1559.04 1038.84 1550.57 Q1038.84 1541.82 1043.55 1536.69 Q1048.29 1531.54 1056.31 1531.54 Q1063.51 1531.54 1067.68 1536.18 Q1071.88 1540.8 1071.88 1548.76 M1066.02 1547.04 Q1065.96 1542.23 1063.32 1539.37 Q1060.71 1536.5 1056.38 1536.5 Q1051.48 1536.5 1048.52 1539.27 Q1045.59 1542.04 1045.14 1547.07 L1066.02 1547.04 Z" fill="#000000" fill-rule="nonzero" fill-opacity="1"></path><path clip-path="url(#clip170)" d="M1099.54 1518.52 L1099.54 1523.39 L1093.94 1523.39 Q1090.78 1523.39 1089.54 1524.66 Q1088.33 1525.93 1088.33 1529.24 L1088.33 1532.4 L1097.98 1532.4 L1097.98 1536.95 L1088.33 1536.95 L1088.33 1568.04 L1082.45 1568.04 L1082.45 1536.95 L1076.84 1536.95 L1076.84 1532.4 L1082.45 1532.4 L1082.45 1529.91 Q1082.45 1523.96 1085.21 1521.26 Q1087.98 1518.52 1094 1518.52 L1099.54 1518.52 Z" fill="#000000" fill-rule="nonzero" fill-opacity="1"></path><path clip-path="url(#clip170)" d="M1122.49 1518.52 L1122.49 1523.39 L1116.88 1523.39 Q1113.73 1523.39 1112.49 1524.66 Q1111.28 1525.93 1111.28 1529.24 L1111.28 1532.4 L1120.93 1532.4 L1120.93 1536.95 L1111.28 1536.95 L1111.28 1568.04 L1105.39 1568.04 L1105.39 1536.95 L1099.79 1536.95 L1099.79 1532.4 L1105.39 1532.4 L1105.39 1529.91 Q1105.39 1523.96 1108.16 1521.26 Q1110.93 1518.52 1116.95 1518.52 L1122.49 1518.52 Z" fill="#000000" fill-rule="nonzero" fill-opacity="1"></path><path clip-path="url(#clip170)" d="M1127.39 1532.4 L1133.24 1532.4 L1133.24 1568.04 L1127.39 1568.04 L1127.39 1532.4 M1127.39 1518.52 L1133.24 1518.52 L1133.24 1525.93 L1127.39 1525.93 L1127.39 1518.52 Z" fill="#000000" fill-rule="nonzero" fill-opacity="1"></path><path clip-path="url(#clip170)" d="M1171.15 1533.76 L1171.15 1539.24 Q1168.67 1537.87 1166.15 1537.2 Q1163.67 1536.5 1161.13 1536.5 Q1155.43 1536.5 1152.28 1540.13 Q1149.13 1543.73 1149.13 1550.25 Q1149.13 1556.78 1152.28 1560.4 Q1155.43 1564 1161.13 1564 Q1163.67 1564 1166.15 1563.33 Q1168.67 1562.63 1171.15 1561.26 L1171.15 1566.68 Q1168.7 1567.82 1166.06 1568.39 Q1163.45 1568.97 1160.49 1568.97 Q1152.44 1568.97 1147.69 1563.91 Q1142.95 1558.85 1142.95 1550.25 Q1142.95 1541.53 1147.73 1536.53 Q1152.53 1531.54 1160.87 1531.54 Q1163.58 1531.54 1166.15 1532.11 Q1168.73 1532.65 1171.15 1533.76 Z" fill="#000000" fill-rule="nonzero" fill-opacity="1"></path><path clip-path="url(#clip170)" d="M1181.34 1532.4 L1187.19 1532.4 L1187.19 1568.04 L1181.34 1568.04 L1181.34 1532.4 M1181.34 1518.52 L1187.19 1518.52 L1187.19 1525.93 L1181.34 1525.93 L1181.34 1518.52 Z" fill="#000000" fill-rule="nonzero" fill-opacity="1"></path><path clip-path="url(#clip170)" d="M1229.94 1548.76 L1229.94 1551.62 L1203.01 1551.62 Q1203.39 1557.67 1206.64 1560.85 Q1209.92 1564 1215.74 1564 Q1219.12 1564 1222.27 1563.17 Q1225.45 1562.35 1228.57 1560.69 L1228.57 1566.23 Q1225.42 1567.57 1222.11 1568.27 Q1218.8 1568.97 1215.39 1568.97 Q1206.86 1568.97 1201.87 1564 Q1196.9 1559.04 1196.9 1550.57 Q1196.9 1541.82 1201.61 1536.69 Q1206.35 1531.54 1214.37 1531.54 Q1221.57 1531.54 1225.74 1536.18 Q1229.94 1540.8 1229.94 1548.76 M1224.08 1547.04 Q1224.02 1542.23 1221.38 1539.37 Q1218.77 1536.5 1214.44 1536.5 Q1209.54 1536.5 1206.58 1539.27 Q1203.65 1542.04 1203.2 1547.07 L1224.08 1547.04 Z" fill="#000000" fill-rule="nonzero" fill-opacity="1"></path><path clip-path="url(#clip170)" d="M1269.18 1546.53 L1269.18 1568.04 L1263.33 1568.04 L1263.33 1546.72 Q1263.33 1541.66 1261.35 1539.14 Q1259.38 1536.63 1255.43 1536.63 Q1250.69 1536.63 1247.95 1539.65 Q1245.22 1542.68 1245.22 1547.9 L1245.22 1568.04 L1239.33 1568.04 L1239.33 1532.4 L1245.22 1532.4 L1245.22 1537.93 Q1247.32 1534.72 1250.15 1533.13 Q1253.01 1531.54 1256.74 1531.54 Q1262.88 1531.54 1266.03 1535.36 Q1269.18 1539.14 1269.18 1546.53 Z" fill="#000000" fill-rule="nonzero" fill-opacity="1"></path><path clip-path="url(#clip170)" d="M1286.66 1522.27 L1286.66 1532.4 L1298.72 1532.4 L1298.72 1536.95 L1286.66 1536.95 L1286.66 1556.3 Q1286.66 1560.66 1287.83 1561.9 Q1289.04 1563.14 1292.7 1563.14 L1298.72 1563.14 L1298.72 1568.04 L1292.7 1568.04 Q1285.92 1568.04 1283.35 1565.53 Q1280.77 1562.98 1280.77 1556.3 L1280.77 1536.95 L1276.47 1536.95 L1276.47 1532.4 L1280.77 1532.4 L1280.77 1522.27 L1286.66 1522.27 Z" fill="#000000" fill-rule="nonzero" fill-opacity="1"></path><path clip-path="url(#clip170)" d="M1327.4 1520.52 L1336.98 1520.52 L1349.1 1552.86 L1361.29 1520.52 L1370.88 1520.52 L1370.88 1568.04 L1364.6 1568.04 L1364.6 1526.32 L1352.35 1558.91 L1345.89 1558.91 L1333.64 1526.32 L1333.64 1568.04 L1327.4 1568.04 L1327.4 1520.52 Z" fill="#000000" fill-rule="nonzero" fill-opacity="1"></path><path clip-path="url(#clip170)" d="M1399.58 1550.12 Q1392.49 1550.12 1389.75 1551.75 Q1387.01 1553.37 1387.01 1557.29 Q1387.01 1560.4 1389.05 1562.25 Q1391.12 1564.07 1394.65 1564.07 Q1399.52 1564.07 1402.45 1560.63 Q1405.41 1557.16 1405.41 1551.43 L1405.41 1550.12 L1399.58 1550.12 M1411.27 1547.71 L1411.27 1568.04 L1405.41 1568.04 L1405.41 1562.63 Q1403.4 1565.88 1400.41 1567.44 Q1397.42 1568.97 1393.09 1568.97 Q1387.62 1568.97 1384.37 1565.91 Q1381.16 1562.82 1381.16 1557.67 Q1381.16 1551.65 1385.17 1548.6 Q1389.21 1545.54 1397.2 1545.54 L1405.41 1545.54 L1405.41 1544.97 Q1405.41 1540.93 1402.74 1538.73 Q1400.09 1536.5 1395.29 1536.5 Q1392.23 1536.5 1389.34 1537.23 Q1386.44 1537.97 1383.77 1539.43 L1383.77 1534.02 Q1386.98 1532.78 1390 1532.17 Q1393.03 1531.54 1395.89 1531.54 Q1403.63 1531.54 1407.45 1535.55 Q1411.27 1539.56 1411.27 1547.71 Z" fill="#000000" fill-rule="nonzero" fill-opacity="1"></path><path clip-path="url(#clip170)" d="M1429.12 1522.27 L1429.12 1532.4 L1441.18 1532.4 L1441.18 1536.95 L1429.12 1536.95 L1429.12 1556.3 Q1429.12 1560.66 1430.3 1561.9 Q1431.51 1563.14 1435.17 1563.14 L1441.18 1563.14 L1441.18 1568.04 L1435.17 1568.04 Q1428.39 1568.04 1425.81 1565.53 Q1423.23 1562.98 1423.23 1556.3 L1423.23 1536.95 L1418.94 1536.95 L1418.94 1532.4 L1423.23 1532.4 L1423.23 1522.27 L1429.12 1522.27 Z" fill="#000000" fill-rule="nonzero" fill-opacity="1"></path><path clip-path="url(#clip170)" d="M1469.54 1537.87 Q1468.56 1537.3 1467.38 1537.04 Q1466.23 1536.76 1464.83 1536.76 Q1459.87 1536.76 1457.19 1540 Q1454.55 1543.22 1454.55 1549.27 L1454.55 1568.04 L1448.66 1568.04 L1448.66 1532.4 L1454.55 1532.4 L1454.55 1537.93 Q1456.4 1534.69 1459.36 1533.13 Q1462.32 1531.54 1466.55 1531.54 Q1467.16 1531.54 1467.89 1531.63 Q1468.62 1531.7 1469.51 1531.85 L1469.54 1537.87 Z" fill="#000000" fill-rule="nonzero" fill-opacity="1"></path><path clip-path="url(#clip170)" d="M1475.69 1532.4 L1481.54 1532.4 L1481.54 1568.04 L1475.69 1568.04 L1475.69 1532.4 M1475.69 1518.52 L1481.54 1518.52 L1481.54 1525.93 L1475.69 1525.93 L1475.69 1518.52 Z" fill="#000000" fill-rule="nonzero" fill-opacity="1"></path><path clip-path="url(#clip170)" d="M1523.43 1532.4 L1510.54 1549.74 L1524.1 1568.04 L1517.19 1568.04 L1506.81 1554.04 L1496.44 1568.04 L1489.53 1568.04 L1503.38 1549.39 L1490.71 1532.4 L1497.62 1532.4 L1507.07 1545.1 L1516.52 1532.4 L1523.43 1532.4 Z" fill="#000000" fill-rule="nonzero" fill-opacity="1"></path><path clip-path="url(#clip170)" d="M1575.82 1533.45 L1575.82 1538.98 Q1573.34 1537.71 1570.66 1537.07 Q1567.99 1536.44 1565.12 1536.44 Q1560.76 1536.44 1558.57 1537.77 Q1556.4 1539.11 1556.4 1541.79 Q1556.4 1543.82 1557.96 1545 Q1559.52 1546.15 1564.23 1547.2 L1566.24 1547.64 Q1572.48 1548.98 1575.09 1551.43 Q1577.73 1553.85 1577.73 1558.21 Q1577.73 1563.17 1573.78 1566.07 Q1569.87 1568.97 1562.99 1568.97 Q1560.13 1568.97 1557.01 1568.39 Q1553.92 1567.85 1550.48 1566.74 L1550.48 1560.69 Q1553.73 1562.38 1556.88 1563.24 Q1560.03 1564.07 1563.12 1564.07 Q1567.26 1564.07 1569.49 1562.66 Q1571.71 1561.23 1571.71 1558.65 Q1571.71 1556.27 1570.09 1554.99 Q1568.5 1553.72 1563.06 1552.54 L1561.02 1552.07 Q1555.58 1550.92 1553.16 1548.56 Q1550.74 1546.18 1550.74 1542.04 Q1550.74 1537.01 1554.3 1534.27 Q1557.87 1531.54 1564.42 1531.54 Q1567.67 1531.54 1570.54 1532.01 Q1573.4 1532.49 1575.82 1533.45 Z" fill="#000000" fill-rule="nonzero" fill-opacity="1"></path><path clip-path="url(#clip170)" d="M1587.05 1532.4 L1592.91 1532.4 L1592.91 1568.04 L1587.05 1568.04 L1587.05 1532.4 M1587.05 1518.52 L1592.91 1518.52 L1592.91 1525.93 L1587.05 1525.93 L1587.05 1518.52 Z" fill="#000000" fill-rule="nonzero" fill-opacity="1"></path><path clip-path="url(#clip170)" d="M1602.62 1532.4 L1630.44 1532.4 L1630.44 1537.74 L1608.41 1563.37 L1630.44 1563.37 L1630.44 1568.04 L1601.82 1568.04 L1601.82 1562.7 L1623.85 1537.07 L1602.62 1537.07 L1602.62 1532.4 Z" fill="#000000" fill-rule="nonzero" fill-opacity="1"></path><path clip-path="url(#clip170)" d="M1669.87 1548.76 L1669.87 1551.62 L1642.95 1551.62 Q1643.33 1557.67 1646.57 1560.85 Q1649.85 1564 1655.68 1564 Q1659.05 1564 1662.2 1563.17 Q1665.38 1562.35 1668.5 1560.69 L1668.5 1566.23 Q1665.35 1567.57 1662.04 1568.27 Q1658.73 1568.97 1655.33 1568.97 Q1646.8 1568.97 1641.8 1564 Q1636.83 1559.04 1636.83 1550.57 Q1636.83 1541.82 1641.55 1536.69 Q1646.29 1531.54 1654.31 1531.54 Q1661.5 1531.54 1665.67 1536.18 Q1669.87 1540.8 1669.87 1548.76 M1664.02 1547.04 Q1663.95 1542.23 1661.31 1539.37 Q1658.7 1536.5 1654.37 1536.5 Q1649.47 1536.5 1646.51 1539.27 Q1643.58 1542.04 1643.14 1547.07 L1664.02 1547.04 Z" fill="#000000" fill-rule="nonzero" fill-opacity="1"></path><polyline clip-path="url(#clip172)" style="stroke:#000000; stroke-linecap:round; stroke-linejoin:round; stroke-width:2; stroke-opacity:0.1; fill:none" points="270.624,1101.44 2352.76,1101.44 "></polyline>
<polyline clip-path="url(#clip172)" style="stroke:#000000; stroke-linecap:round; stroke-linejoin:round; stroke-width:2; stroke-opacity:0.1; fill:none" points="270.624,824.319 2352.76,824.319 "></polyline>
<polyline clip-path="url(#clip172)" style="stroke:#000000; stroke-linecap:round; stroke-linejoin:round; stroke-width:2; stroke-opacity:0.1; fill:none" points="270.624,547.194 2352.76,547.194 "></polyline>
<polyline clip-path="url(#clip172)" style="stroke:#000000; stroke-linecap:round; stroke-linejoin:round; stroke-width:2; stroke-opacity:0.1; fill:none" points="270.624,270.068 2352.76,270.068 "></polyline>
<polyline clip-path="url(#clip170)" style="stroke:#000000; stroke-linecap:round; stroke-linejoin:round; stroke-width:4; stroke-opacity:1; fill:none" points="270.624,1423.18 270.624,123.472 "></polyline>
<polyline clip-path="url(#clip170)" style="stroke:#000000; stroke-linecap:round; stroke-linejoin:round; stroke-width:4; stroke-opacity:1; fill:none" points="270.624,1101.44 289.522,1101.44 "></polyline>
<polyline clip-path="url(#clip170)" style="stroke:#000000; stroke-linecap:round; stroke-linejoin:round; stroke-width:4; stroke-opacity:1; fill:none" points="270.624,824.319 289.522,824.319 "></polyline>
<polyline clip-path="url(#clip170)" style="stroke:#000000; stroke-linecap:round; stroke-linejoin:round; stroke-width:4; stroke-opacity:1; fill:none" points="270.624,547.194 289.522,547.194 "></polyline>
<polyline clip-path="url(#clip170)" style="stroke:#000000; stroke-linecap:round; stroke-linejoin:round; stroke-width:4; stroke-opacity:1; fill:none" points="270.624,270.068 289.522,270.068 "></polyline>
<path clip-path="url(#clip170)" d="M168.259 1114.79 L175.898 1114.79 L175.898 1088.42 L167.587 1090.09 L167.587 1085.83 L175.851 1084.16 L180.527 1084.16 L180.527 1114.79 L188.166 1114.79 L188.166 1118.72 L168.259 1118.72 L168.259 1114.79 Z" fill="#000000" fill-rule="nonzero" fill-opacity="1"></path><path clip-path="url(#clip170)" d="M197.61 1112.85 L202.495 1112.85 L202.495 1118.72 L197.61 1118.72 L197.61 1112.85 Z" fill="#000000" fill-rule="nonzero" fill-opacity="1"></path><path clip-path="url(#clip170)" d="M222.68 1087.24 Q219.069 1087.24 217.24 1090.81 Q215.434 1094.35 215.434 1101.48 Q215.434 1108.59 217.24 1112.15 Q219.069 1115.69 222.68 1115.69 Q226.314 1115.69 228.12 1112.15 Q229.948 1108.59 229.948 1101.48 Q229.948 1094.35 228.12 1090.81 Q226.314 1087.24 222.68 1087.24 M222.68 1083.54 Q228.49 1083.54 231.545 1088.15 Q234.624 1092.73 234.624 1101.48 Q234.624 1110.21 231.545 1114.81 Q228.49 1119.4 222.68 1119.4 Q216.87 1119.4 213.791 1114.81 Q210.735 1110.21 210.735 1101.48 Q210.735 1092.73 213.791 1088.15 Q216.87 1083.54 222.68 1083.54 Z" fill="#000000" fill-rule="nonzero" fill-opacity="1"></path><path clip-path="url(#clip170)" d="M169.486 837.664 L177.124 837.664 L177.124 811.299 L168.814 812.965 L168.814 808.706 L177.078 807.039 L181.754 807.039 L181.754 837.664 L189.393 837.664 L189.393 841.599 L169.486 841.599 L169.486 837.664 Z" fill="#000000" fill-rule="nonzero" fill-opacity="1"></path><path clip-path="url(#clip170)" d="M198.837 835.72 L203.722 835.72 L203.722 841.599 L198.837 841.599 L198.837 835.72 Z" fill="#000000" fill-rule="nonzero" fill-opacity="1"></path><path clip-path="url(#clip170)" d="M214.717 837.664 L222.356 837.664 L222.356 811.299 L214.046 812.965 L214.046 808.706 L222.309 807.039 L226.985 807.039 L226.985 837.664 L234.624 837.664 L234.624 841.599 L214.717 841.599 L214.717 837.664 Z" fill="#000000" fill-rule="nonzero" fill-opacity="1"></path><path clip-path="url(#clip170)" d="M169.856 560.539 L177.495 560.539 L177.495 534.173 L169.185 535.84 L169.185 531.581 L177.449 529.914 L182.124 529.914 L182.124 560.539 L189.763 560.539 L189.763 564.474 L169.856 564.474 L169.856 560.539 Z" fill="#000000" fill-rule="nonzero" fill-opacity="1"></path><path clip-path="url(#clip170)" d="M199.208 558.594 L204.092 558.594 L204.092 564.474 L199.208 564.474 L199.208 558.594 Z" fill="#000000" fill-rule="nonzero" fill-opacity="1"></path><path clip-path="url(#clip170)" d="M218.305 560.539 L234.624 560.539 L234.624 564.474 L212.68 564.474 L212.68 560.539 Q215.342 557.784 219.925 553.154 Q224.532 548.502 225.712 547.159 Q227.957 544.636 228.837 542.9 Q229.74 541.141 229.74 539.451 Q229.74 536.696 227.795 534.96 Q225.874 533.224 222.772 533.224 Q220.573 533.224 218.12 533.988 Q215.689 534.752 212.911 536.303 L212.911 531.581 Q215.735 530.446 218.189 529.868 Q220.643 529.289 222.68 529.289 Q228.05 529.289 231.245 531.974 Q234.439 534.659 234.439 539.15 Q234.439 541.28 233.629 543.201 Q232.842 545.099 230.735 547.692 Q230.157 548.363 227.055 551.58 Q223.953 554.775 218.305 560.539 Z" fill="#000000" fill-rule="nonzero" fill-opacity="1"></path><path clip-path="url(#clip170)" d="M168.907 283.413 L176.546 283.413 L176.546 257.048 L168.236 258.714 L168.236 254.455 L176.499 252.788 L181.175 252.788 L181.175 283.413 L188.814 283.413 L188.814 287.348 L168.907 287.348 L168.907 283.413 Z" fill="#000000" fill-rule="nonzero" fill-opacity="1"></path><path clip-path="url(#clip170)" d="M198.259 281.469 L203.143 281.469 L203.143 287.348 L198.259 287.348 L198.259 281.469 Z" fill="#000000" fill-rule="nonzero" fill-opacity="1"></path><path clip-path="url(#clip170)" d="M227.495 268.714 Q230.851 269.432 232.726 271.7 Q234.624 273.969 234.624 277.302 Q234.624 282.418 231.106 285.219 Q227.587 288.02 221.106 288.02 Q218.93 288.02 216.615 287.58 Q214.323 287.163 211.87 286.307 L211.87 281.793 Q213.814 282.927 216.129 283.506 Q218.444 284.085 220.967 284.085 Q225.365 284.085 227.657 282.348 Q229.971 280.612 229.971 277.302 Q229.971 274.247 227.819 272.534 Q225.689 270.798 221.87 270.798 L217.842 270.798 L217.842 266.955 L222.055 266.955 Q225.504 266.955 227.332 265.589 Q229.161 264.2 229.161 261.608 Q229.161 258.946 227.263 257.534 Q225.388 256.099 221.87 256.099 Q219.948 256.099 217.749 256.515 Q215.55 256.932 212.911 257.812 L212.911 253.645 Q215.573 252.904 217.888 252.534 Q220.226 252.163 222.286 252.163 Q227.61 252.163 230.712 254.594 Q233.814 257.001 233.814 261.122 Q233.814 263.992 232.17 265.983 Q230.527 267.95 227.495 268.714 Z" fill="#000000" fill-rule="nonzero" fill-opacity="1"></path><path clip-path="url(#clip170)" d="M86.8038 1016.07 L73.5994 1016.07 Q72.8587 1016.07 72.6011 1016.04 Q72.3434 1016.01 72.1502 1015.82 Q71.9569 1015.62 71.9569 1015.24 Q71.9569 1014.5 72.6333 1014.43 Q79.1711 1014.24 82.7781 1010.34 Q86.353 1006.51 86.353 999.939 Q86.353 995.977 83.5188 993.53 Q80.6525 991.082 76.9166 991.082 Q73.3418 991.082 70.8297 993.143 Q69.7025 994.013 68.994 995.108 Q68.2533 996.17 68.0278 996.847 Q67.8024 997.491 67.4803 998.747 Q65.5158 1006.93 65.2903 1007.44 Q63.9699 1011.34 60.6527 1013.72 Q57.3033 1016.07 53.2131 1016.07 Q47.9314 1016.07 44.1955 1012.37 Q40.4274 1008.63 40.4274 1003.22 Q40.4274 1000.52 41.297 998.264 Q42.1343 995.977 42.9073 995.043 Q43.6802 994.109 45.065 992.66 L41.297 990.373 Q40.4274 989.858 40.4274 989.375 Q40.4274 988.86 40.7495 988.763 Q41.0393 988.634 42.0055 988.634 L55.2743 988.634 Q56.015 988.634 56.2727 988.666 Q56.5303 988.699 56.6914 988.924 Q56.8524 989.117 56.8524 989.504 Q56.8524 990.148 56.0795 990.309 Q42.2953 992.145 42.2953 1003.16 Q42.2953 1006.93 44.8396 1009.41 Q47.3517 1011.85 50.9265 1011.85 Q53.825 1011.85 56.2083 1010.05 Q58.5593 1008.25 59.3 1005.19 L61.329 996.75 Q62.3274 992.531 66.0633 989.697 Q69.7991 986.863 74.6622 986.863 Q80.2661 986.863 84.324 990.534 Q88.3819 994.174 88.3819 999.874 Q88.3819 1003.96 87.0293 1007.12 Q85.6766 1010.28 83.7765 1011.98 Q85.9665 1013.3 87.1903 1014.17 L87.5124 1014.37 Q88.3819 1014.88 88.3819 1015.37 Q88.3819 1015.88 88.0599 1015.98 Q87.7378 1016.07 86.8038 1016.07 Z" fill="#000000" fill-rule="nonzero" fill-opacity="1"></path><path clip-path="url(#clip170)" d="M97.6894 982.213 Q97.6894 978.703 97.2385 977.897 Q96.8199 977.06 94.7265 977.06 L63.8411 977.06 Q61.6511 977.06 61.1036 977.897 Q60.5561 978.703 60.5561 982.213 L58.4949 982.213 L57.7864 972.712 L62.1342 972.712 Q57.7864 968.751 57.7864 963.469 Q57.7864 957.865 62.1342 953.775 Q66.4819 949.685 72.6977 949.685 Q78.9778 949.685 83.3256 954.033 Q87.6734 958.381 87.6734 964.403 Q87.6734 967.688 85.9987 969.91 Q84.2918 972.1 83.0358 972.519 L83.6477 972.519 L94.7265 972.519 Q96.8521 972.519 97.2707 971.682 Q97.6894 970.844 97.6894 967.366 L99.7184 967.366 Q99.5252 974.29 99.5252 974.806 Q99.5252 975.45 99.7184 982.213 L97.6894 982.213 M79.4287 972.519 Q80.4271 972.519 80.7813 972.39 Q81.1356 972.229 82.1984 971.585 Q86.1919 968.976 86.1919 964.725 Q86.1919 964.693 86.1919 964.661 Q86.1919 960.893 82.3594 958.026 Q78.4947 955.16 72.6977 955.16 Q67.1583 955.16 63.2936 957.769 Q59.4289 960.377 59.4289 963.984 Q59.4289 966.561 60.8137 968.815 Q62.1986 971.07 64.7106 972.519 L79.4287 972.519 Z" fill="#000000" fill-rule="nonzero" fill-opacity="1"></path><path clip-path="url(#clip170)" d="M72.4078 940.696 Q66.1921 940.696 61.7799 936.703 Q57.3677 932.709 57.3677 926.977 Q57.3677 921.18 61.1358 918.184 Q64.9039 915.157 70.3144 915.157 Q71.3128 915.157 71.5061 915.415 Q71.6993 915.672 71.6993 916.8 L71.6993 935.221 Q78.4303 935.221 81.5865 933.225 Q85.9987 930.455 85.9987 925.785 Q85.9987 925.141 85.8699 924.368 Q85.7411 923.595 85.1936 922.017 Q84.6138 920.439 83.1002 919.054 Q81.5865 917.669 79.2033 916.864 Q78.2693 916.671 78.3015 916.027 Q78.3015 915.157 79.0744 915.157 Q79.6541 915.157 80.9746 915.801 Q82.2628 916.413 83.8087 917.605 Q85.3546 918.796 86.514 921.115 Q87.6734 923.402 87.6734 926.171 Q87.6734 931.968 83.2934 936.348 Q78.8812 940.696 72.4078 940.696 M70.3144 935.157 L70.3144 919.505 Q68.9296 919.505 67.3837 919.762 Q65.8378 919.988 63.7122 920.696 Q61.5544 921.373 60.2018 922.983 Q58.8492 924.593 58.8492 926.977 Q58.8492 928.039 59.3 929.199 Q59.7509 930.326 60.8459 931.711 Q61.9409 933.096 64.4208 934.062 Q66.9006 935.028 70.3144 935.157 Z" fill="#000000" fill-rule="nonzero" fill-opacity="1"></path><path clip-path="url(#clip170)" d="M72.4078 911.701 Q66.1921 911.701 61.7799 907.707 Q57.3677 903.714 57.3677 897.981 Q57.3677 892.184 61.1358 889.189 Q64.9039 886.161 70.3144 886.161 Q71.3128 886.161 71.5061 886.419 Q71.6993 886.677 71.6993 887.804 L71.6993 906.226 Q78.4303 906.226 81.5865 904.229 Q85.9987 901.459 85.9987 896.789 Q85.9987 896.145 85.8699 895.372 Q85.7411 894.599 85.1936 893.021 Q84.6138 891.443 83.1002 890.058 Q81.5865 888.673 79.2033 887.868 Q78.2693 887.675 78.3015 887.031 Q78.3015 886.161 79.0744 886.161 Q79.6541 886.161 80.9746 886.805 Q82.2628 887.417 83.8087 888.609 Q85.3546 889.801 86.514 892.119 Q87.6734 894.406 87.6734 897.176 Q87.6734 902.973 83.2934 907.353 Q78.8812 911.701 72.4078 911.701 M70.3144 906.161 L70.3144 890.509 Q68.9296 890.509 67.3837 890.767 Q65.8378 890.992 63.7122 891.701 Q61.5544 892.377 60.2018 893.987 Q58.8492 895.598 58.8492 897.981 Q58.8492 899.044 59.3 900.203 Q59.7509 901.33 60.8459 902.715 Q61.9409 904.1 64.4208 905.066 Q66.9006 906.032 70.3144 906.161 Z" fill="#000000" fill-rule="nonzero" fill-opacity="1"></path><path clip-path="url(#clip170)" d="M72.7621 882.705 Q66.4819 882.705 62.1342 878.325 Q57.7864 873.945 57.7864 868.019 Q57.7864 862.995 61.8765 859.71 L47.6093 859.71 Q45.1617 859.71 44.5498 860.579 Q43.9378 861.417 43.9378 864.831 L41.8767 864.831 L41.1681 855.33 L81.2 855.33 Q83.6477 855.33 84.2918 854.492 Q84.9037 853.623 84.9037 850.209 L86.9327 850.209 L87.6734 859.903 L83.2934 859.903 Q87.6412 863.317 87.6734 868.727 Q87.6734 874.396 83.3256 878.55 Q78.9778 882.705 72.7621 882.705 M72.8265 877.23 Q78.9456 877.23 81.973 875.33 Q86.1919 872.689 86.1919 868.405 Q86.1919 863.51 81.5865 860.612 Q80.4593 859.871 79.1388 859.903 L65.6124 859.903 Q64.2919 859.903 63.1969 860.612 Q59.2356 863.317 59.2356 867.729 Q59.2356 872.335 63.4546 875.201 Q66.6108 877.23 72.8265 877.23 Z" fill="#000000" fill-rule="nonzero" fill-opacity="1"></path><path clip-path="url(#clip170)" d="M60.5561 829.037 L58.4949 829.037 L57.7864 819.343 L79.6863 819.343 Q81.2644 819.343 82.1984 819.214 Q83.1002 819.086 84.163 818.57 Q85.2258 818.023 85.7088 816.799 Q86.1919 815.543 86.1919 813.546 Q86.1919 809.971 83.2612 807.781 Q80.3305 805.559 75.9827 805.559 L64.2275 805.559 Q61.7799 805.559 61.168 806.429 Q60.5561 807.298 60.5561 810.712 L58.4949 810.712 L57.7864 801.018 L81.2 801.018 Q83.6477 801.018 84.2918 800.181 Q84.9037 799.311 84.9037 795.865 L86.9327 795.865 L87.6734 805.366 L81.7153 805.366 Q87.6412 808.136 87.6734 813.868 Q87.6734 816.767 86.9327 818.764 Q86.1919 820.728 85.2902 821.727 Q84.3562 822.725 82.5849 823.272 Q80.8136 823.788 79.7186 823.852 Q78.6236 823.917 76.498 823.917 L66.6108 823.917 Q62.1342 823.917 61.3612 824.561 Q60.5561 825.205 60.5561 829.037 Z" fill="#000000" fill-rule="nonzero" fill-opacity="1"></path><path clip-path="url(#clip170)" d="M97.6894 797.289 Q97.6894 793.778 97.2385 792.973 Q96.8199 792.136 94.7265 792.136 L63.8411 792.136 Q61.6511 792.136 61.1036 792.973 Q60.5561 793.778 60.5561 797.289 L58.4949 797.289 L57.7864 787.788 L62.1342 787.788 Q57.7864 783.827 57.7864 778.545 Q57.7864 772.941 62.1342 768.851 Q66.4819 764.761 72.6977 764.761 Q78.9778 764.761 83.3256 769.108 Q87.6734 773.456 87.6734 779.479 Q87.6734 782.764 85.9987 784.986 Q84.2918 787.176 83.0358 787.595 L83.6477 787.595 L94.7265 787.595 Q96.8521 787.595 97.2707 786.757 Q97.6894 785.92 97.6894 782.442 L99.7184 782.442 Q99.5252 789.366 99.5252 789.881 Q99.5252 790.525 99.7184 797.289 L97.6894 797.289 M79.4287 787.595 Q80.4271 787.595 80.7813 787.466 Q81.1356 787.305 82.1984 786.661 Q86.1919 784.052 86.1919 779.801 Q86.1919 779.769 86.1919 779.736 Q86.1919 775.968 82.3594 773.102 Q78.4947 770.236 72.6977 770.236 Q67.1583 770.236 63.2936 772.844 Q59.4289 775.453 59.4289 779.06 Q59.4289 781.637 60.8137 783.891 Q62.1986 786.145 64.7106 787.595 L79.4287 787.595 Z" fill="#000000" fill-rule="nonzero" fill-opacity="1"></path><path clip-path="url(#clip170)" d="M8.63719 687.283 Q9.53895 687.283 9.76439 687.702 Q9.95763 688.121 9.95763 689.28 L9.95763 695.464 L29.41 700.359 Q31.1169 700.746 32.5661 700.746 Q34.1764 700.746 34.885 700.262 Q35.5935 699.747 35.5935 698.684 Q35.5935 696.591 33.6933 694.337 Q31.7932 692.05 27.1556 690.118 Q26.5436 689.86 26.4148 689.731 Q26.2538 689.57 26.2538 689.151 Q26.2538 688.346 26.8979 688.346 Q27.1234 688.346 28.1539 688.797 Q29.1845 689.216 30.6982 690.15 Q32.2119 691.052 33.6289 692.243 Q35.046 693.403 36.0766 695.174 Q37.075 696.945 37.075 698.845 Q37.075 701.518 35.3681 703.225 Q33.6611 704.9 30.9881 704.9 Q30.1185 704.9 27.3488 704.224 Q24.5469 703.547 9.95763 699.876 L9.95763 705.705 Q9.95763 706.51 9.92542 706.832 Q9.89322 707.122 9.73219 707.348 Q9.53895 707.541 9.15248 707.541 Q8.54057 707.541 8.28293 707.283 Q7.99307 707.026 7.96087 706.704 Q7.89645 706.349 7.89645 705.544 L7.89645 699.361 L-2.57045 696.784 Q-3.60104 696.527 -4.18074 695.882 Q-4.79265 695.206 -4.85707 694.82 Q-4.95368 694.433 -4.95368 694.143 Q-4.95368 693.274 -4.4706 692.758 Q-4.01971 692.243 -3.18236 692.243 Q-2.73148 692.243 7.89645 694.948 L7.89645 689.151 Q7.89645 688.411 7.92866 688.121 Q7.96087 687.799 8.1219 687.541 Q8.28293 687.283 8.63719 687.283 Z" fill="#000000" fill-rule="nonzero" fill-opacity="1"></path><path clip-path="url(#clip170)" d="M48.8997 662.877 Q49.1026 662.696 49.3055 662.696 Q49.5084 662.696 50.0946 663.147 Q50.6807 663.575 51.4697 664.5 Q52.2588 665.424 53.0027 666.619 Q53.7467 667.814 54.2427 669.572 Q54.7612 671.331 54.7612 673.179 Q54.7612 676.493 52.3941 678.477 Q50.0269 680.438 46.3973 680.438 Q44.0753 680.438 42.0238 679.672 Q39.9497 678.905 38.4843 677.666 Q37.019 676.403 35.9594 674.825 Q34.8773 673.224 34.3588 671.556 Q33.8403 669.888 33.8403 668.332 Q33.8403 666.055 34.99 664.725 Q36.1398 663.395 37.7629 663.395 Q38.1462 663.395 38.6196 663.508 Q39.093 663.598 39.837 663.914 Q40.5809 664.207 41.3249 664.973 Q42.0463 665.74 42.5197 666.867 Q43.5793 669.369 43.5793 673.923 L43.5793 676.381 Q46.4875 677.102 48.3812 677.102 Q49.1252 677.102 49.8917 676.967 Q50.6356 676.831 51.5825 676.471 Q52.5293 676.087 53.138 675.231 Q53.7242 674.352 53.7242 673.089 Q53.7242 672.683 53.7016 672.255 Q53.6791 671.804 53.4311 670.677 Q53.1831 669.527 52.7548 668.513 Q52.3264 667.498 51.4021 666.213 Q50.4553 664.906 49.1702 663.869 Q48.6968 663.508 48.6968 663.26 Q48.6968 663.057 48.8997 662.877 M37.7629 664.928 Q36.523 664.928 35.6889 665.852 Q34.8547 666.754 34.8547 668.332 Q34.8547 668.828 34.9675 669.437 Q35.0802 670.046 35.5536 671.06 Q36.027 672.052 36.8161 672.931 Q37.5826 673.811 39.093 674.69 Q40.5809 675.569 42.5648 676.087 L42.5648 674.194 Q42.5648 673.54 42.5648 673.067 Q42.5423 672.593 42.4521 671.556 Q42.3619 670.497 42.2041 669.73 Q42.0238 668.964 41.6631 667.994 Q41.3024 667.025 40.8289 666.416 Q40.333 665.785 39.5439 665.356 Q38.7549 664.928 37.7629 664.928 Z" fill="#000000" fill-rule="nonzero" fill-opacity="1"></path><path clip-path="url(#clip170)" d="M36.8837 637.153 Q38.1462 637.153 38.8676 637.942 Q39.5665 638.731 39.5665 639.633 Q39.5665 640.49 39.0705 640.941 Q38.5745 641.391 37.9433 641.391 Q37.0866 641.391 36.3427 640.76 Q35.5987 640.129 35.4409 639.182 Q34.8547 640.106 34.8547 641.482 Q34.8547 642.383 35.3282 643.172 Q35.8016 643.939 36.4103 644.412 Q37.019 644.863 37.8982 645.269 Q38.7549 645.652 39.2734 645.81 Q39.7694 645.945 40.3104 646.058 L46.6228 647.636 Q49.6211 648.403 50.6807 648.403 Q51.9883 648.403 52.8675 647.771 Q53.7242 647.14 53.7242 645.878 Q53.7242 645.382 53.5889 644.818 Q53.4311 644.255 53.0253 643.533 Q52.5969 642.789 51.9657 642.135 Q51.3119 641.459 50.2073 640.805 Q49.1026 640.152 47.6823 639.723 Q47.1864 639.588 47.1864 639.137 Q47.1864 638.573 47.6372 638.573 Q48.0205 638.573 48.8321 638.889 Q49.6211 639.182 50.6582 639.836 Q51.6726 640.467 52.5969 641.301 Q53.4987 642.135 54.1299 643.375 Q54.7612 644.615 54.7612 645.968 Q54.7612 647.907 53.7242 649.192 Q52.6871 650.477 51.2443 650.95 Q51.4472 651.063 51.7177 651.221 Q51.9883 651.379 52.5969 651.852 Q53.1831 652.303 53.634 652.821 Q54.0623 653.34 54.4005 654.151 Q54.7612 654.94 54.7612 655.797 Q54.7612 656.879 54.4456 657.849 Q54.1299 658.796 53.4085 659.472 Q52.6871 660.148 51.6952 660.148 Q50.5905 660.148 49.824 659.404 Q49.035 658.638 49.035 657.601 Q49.035 656.947 49.4182 656.428 Q49.8015 655.887 50.6356 655.887 Q51.5599 655.887 52.2588 656.519 Q52.9577 657.15 53.138 658.052 Q53.7242 657.127 53.7242 655.752 Q53.7242 654.264 52.4166 653.092 Q51.109 651.92 48.9223 651.356 Q43.6695 649.958 41.3249 649.417 Q38.9578 648.876 37.9433 648.876 Q36.9964 648.876 36.3427 649.124 Q35.6889 649.372 35.3958 649.8 Q35.0802 650.206 34.9675 650.589 Q34.8547 650.95 34.8547 651.356 Q34.8547 652.032 35.1253 652.799 Q35.3958 653.543 36.027 654.445 Q36.6357 655.324 37.8982 656.158 Q39.1607 656.992 40.8966 657.556 Q41.4151 657.668 41.4151 658.164 Q41.3925 658.705 40.9416 658.705 Q40.5584 658.705 39.7694 658.412 Q38.9578 658.097 37.9433 657.465 Q36.9288 656.812 36.027 655.977 Q35.1027 655.121 34.4715 653.881 Q33.8403 652.618 33.8403 651.266 Q33.8403 650.657 33.9755 650.071 Q34.0882 649.462 34.4264 648.741 Q34.7646 647.997 35.5085 647.343 Q36.2525 646.689 37.3346 646.284 Q36.8161 646.013 36.3201 645.652 Q35.8241 645.269 35.2154 644.683 Q34.5842 644.074 34.2235 643.24 Q33.8403 642.383 33.8403 641.437 Q33.8403 640.512 34.0882 639.61 Q34.3137 638.709 35.0576 637.942 Q35.779 637.153 36.8837 637.153 Z" fill="#000000" fill-rule="nonzero" fill-opacity="1"></path><path clip-path="url(#clip170)" d="M47.6372 612.757 Q50.5454 613.366 52.2137 614.155 Q54.7612 615.417 54.7612 617.559 Q54.7612 619.182 53.7692 620.332 Q52.7773 621.482 51.2894 621.752 Q54.7612 624.706 54.7612 627.772 Q54.7612 630.477 52.7097 632.19 Q50.6356 633.904 47.3667 633.904 Q44.0753 633.904 40.9191 632.28 Q37.7629 630.635 35.8016 628.042 Q33.8403 625.45 33.8403 622.789 Q33.8403 619.971 36.7935 618.529 Q35.9819 618.416 35.3733 617.897 Q34.7646 617.379 34.7646 616.59 Q34.7646 615.981 35.1027 615.62 Q35.4183 615.26 36.0045 615.26 Q36.2976 615.26 37.5826 615.575 L44.0302 617.244 L48.2008 618.258 Q49.7338 618.641 50.2974 618.754 Q50.8611 618.844 51.605 618.844 Q53.7242 618.844 53.7242 617.469 Q53.7242 616.793 53.2958 616.252 Q52.8675 615.711 51.9657 615.282 Q51.0639 614.854 50.2298 614.583 Q49.3731 614.313 48.0205 613.952 Q47.4794 613.839 47.3442 613.749 Q47.1864 613.637 47.1864 613.321 Q47.1864 612.757 47.6372 612.757 M38.9127 619.092 Q38.7098 619.092 38.1462 619.25 Q37.5826 619.408 36.7935 619.769 Q36.0045 620.129 35.4409 620.918 Q34.8547 621.685 34.8547 622.722 Q34.8547 624.12 36.0496 625.585 Q37.2444 627.028 39.2734 628.087 Q40.8966 628.899 44.3007 629.778 Q47.7049 630.635 49.3957 630.635 Q50.4327 630.635 51.357 630.409 Q52.2588 630.161 53.0027 629.462 Q53.7242 628.764 53.7242 627.681 Q53.7242 625.044 50.4553 622.451 Q49.8917 621.955 49.6662 621.843 Q49.4182 621.707 48.7419 621.527 L39.7017 619.227 Q39.0254 619.092 38.9127 619.092 Z" fill="#000000" fill-rule="nonzero" fill-opacity="1"></path><path clip-path="url(#clip170)" d="M48.8997 591.934 Q49.1026 591.754 49.3055 591.754 Q49.5084 591.754 50.0946 592.205 Q50.6807 592.633 51.4697 593.557 Q52.2588 594.482 53.0027 595.676 Q53.7467 596.871 54.2427 598.63 Q54.7612 600.388 54.7612 602.237 Q54.7612 605.686 52.4842 607.715 Q50.2073 609.721 46.9384 609.721 Q43.7597 609.721 40.7162 607.94 Q37.6502 606.159 35.7565 603.274 Q33.8403 600.388 33.8403 597.345 Q33.8403 594.932 34.9675 593.422 Q36.0947 591.912 37.808 591.912 Q39.1381 591.912 39.9497 592.678 Q40.7613 593.445 40.7613 594.482 Q40.7613 595.203 40.3555 595.699 Q39.9272 596.195 39.1381 596.195 Q38.1236 596.195 37.3346 595.361 Q37.019 595.045 36.8837 594.685 Q36.7259 594.301 36.7259 594.076 Q36.7034 593.85 36.7034 593.332 Q35.8241 593.805 35.3507 594.932 Q34.8547 596.037 34.8547 597.3 Q34.8547 599.171 36.1623 600.952 Q37.4473 602.733 39.4763 603.815 Q41.4602 604.897 44.2782 605.596 Q47.0736 606.295 48.6968 606.295 Q50.9287 606.295 52.3264 605.258 Q53.7242 604.221 53.7242 602.147 Q53.7242 601.741 53.7016 601.312 Q53.6791 600.862 53.4311 599.734 Q53.1831 598.585 52.7548 597.57 Q52.3264 596.556 51.4021 595.271 Q50.4553 593.963 49.1702 592.926 Q48.6968 592.565 48.6968 592.317 Q48.6968 592.114 48.8997 591.934 Z" fill="#000000" fill-rule="nonzero" fill-opacity="1"></path><path clip-path="url(#clip170)" d="M34.8547 576.867 Q35.486 576.867 35.6438 577.16 Q35.779 577.453 35.779 578.264 L35.779 582.593 L49.3957 586.019 Q50.5905 586.29 51.605 586.29 Q52.7322 586.29 53.2282 585.952 Q53.7242 585.591 53.7242 584.847 Q53.7242 583.382 52.3941 581.804 Q51.0639 580.203 47.8176 578.85 Q47.3893 578.67 47.2991 578.58 Q47.1864 578.467 47.1864 578.174 Q47.1864 577.61 47.6372 577.61 Q47.7951 577.61 48.5165 577.926 Q49.2379 578.219 50.2974 578.873 Q51.357 579.504 52.349 580.338 Q53.3409 581.15 54.0623 582.39 Q54.7612 583.63 54.7612 584.96 Q54.7612 586.831 53.5663 588.026 Q52.3715 589.198 50.5003 589.198 Q49.8917 589.198 47.9529 588.725 Q45.9915 588.251 35.779 585.681 L35.779 589.762 Q35.779 590.325 35.7565 590.551 Q35.734 590.754 35.6212 590.912 Q35.486 591.047 35.2154 591.047 Q34.7871 591.047 34.6068 590.866 Q34.4039 590.686 34.3813 590.461 Q34.3362 590.213 34.3362 589.649 L34.3362 585.321 L27.0094 583.517 Q26.288 583.337 25.8822 582.886 Q25.4538 582.412 25.4088 582.142 Q25.3411 581.871 25.3411 581.668 Q25.3411 581.06 25.6793 580.699 Q25.9949 580.338 26.5811 580.338 Q26.8967 580.338 34.3362 582.232 L34.3362 578.174 Q34.3362 577.656 34.3588 577.453 Q34.3813 577.227 34.494 577.047 Q34.6068 576.867 34.8547 576.867 Z" fill="#000000" fill-rule="nonzero" fill-opacity="1"></path><path clip-path="url(#clip170)" d="M72.3567 729.541 L72.3567 537.618 L68.8367 537.618 L68.8367 729.541  Z" fill="#000000" fill-rule="evenodd" fill-opacity="1"></path>
<path clip-path="url(#clip170)" d="M99.6303 709.283 Q100.532 709.283 100.758 709.702 Q100.951 710.121 100.951 711.28 L100.951 717.464 L120.403 722.359 Q122.11 722.746 123.559 722.746 Q125.17 722.746 125.878 722.262 Q126.587 721.747 126.587 720.684 Q126.587 718.591 124.686 716.337 Q122.786 714.05 118.149 712.118 Q117.537 711.86 117.408 711.731 Q117.247 711.57 117.247 711.151 Q117.247 710.346 117.891 710.346 Q118.116 710.346 119.147 710.797 Q120.178 711.216 121.691 712.15 Q123.205 713.052 124.622 714.243 Q126.039 715.403 127.07 717.174 Q128.068 718.945 128.068 720.845 Q128.068 723.518 126.361 725.225 Q124.654 726.9 121.981 726.9 Q121.112 726.9 118.342 726.224 Q115.54 725.547 100.951 721.876 L100.951 727.705 Q100.951 728.51 100.919 728.832 Q100.886 729.122 100.725 729.348 Q100.532 729.541 100.146 729.541 Q99.5337 729.541 99.2761 729.283 Q98.9862 729.026 98.954 728.704 Q98.8896 728.349 98.8896 727.544 L98.8896 721.361 L88.4227 718.784 Q87.3921 718.527 86.8124 717.882 Q86.2005 717.206 86.1361 716.82 Q86.0394 716.433 86.0394 716.143 Q86.0394 715.274 86.5225 714.758 Q86.9734 714.243 87.8108 714.243 Q88.2616 714.243 98.8896 716.948 L98.8896 711.151 Q98.8896 710.411 98.9218 710.121 Q98.954 709.799 99.115 709.541 Q99.2761 709.283 99.6303 709.283 Z" fill="#000000" fill-rule="nonzero" fill-opacity="1"></path><path clip-path="url(#clip170)" d="M117.344 690.648 Q118.336 690.648 119.08 691.459 Q119.801 692.249 119.801 693.105 Q119.801 693.894 119.328 694.39 Q118.832 694.864 118.133 694.864 Q117.209 694.864 116.442 694.075 Q115.676 693.286 115.676 692.361 Q115.676 691.595 116.149 691.121 Q116.623 690.648 117.344 690.648 M139.595 690.242 Q139.775 690.242 140.497 690.445 Q141.196 690.648 142.278 691.144 Q143.337 691.617 144.329 692.271 Q145.321 692.925 146.02 694.007 Q146.719 695.067 146.719 696.284 Q146.719 697.93 145.637 699.012 Q144.555 700.071 142.932 700.071 Q142.052 700.071 139.234 699.012 Q131.028 695.946 130.69 695.833 Q129.405 695.315 128.278 695.315 Q127.759 695.315 127.444 695.427 Q127.106 695.54 126.993 695.765 Q126.858 695.991 126.835 696.126 Q126.813 696.239 126.813 696.464 Q126.813 697.794 128.165 699.034 Q129.518 700.274 132.539 701.131 Q133.102 701.311 133.238 701.424 Q133.373 701.537 133.373 701.875 Q133.35 702.438 132.899 702.438 Q132.764 702.438 132.246 702.281 Q131.705 702.123 130.893 701.83 Q130.059 701.537 129.202 701.018 Q128.323 700.5 127.557 699.868 Q126.79 699.215 126.294 698.29 Q125.798 697.366 125.798 696.329 Q125.798 694.638 126.903 693.601 Q127.985 692.542 129.585 692.542 Q130.465 692.542 132.02 693.15 Q134.049 693.894 134.703 694.165 L139.55 695.968 Q141.308 696.622 141.849 696.825 Q142.368 697.005 142.999 697.163 Q143.608 697.298 144.172 697.298 Q144.961 697.298 145.321 697.05 Q145.682 696.78 145.682 696.194 Q145.682 694.571 144.081 693.376 Q142.458 692.181 139.978 691.482 Q139.911 691.459 139.798 691.437 Q139.234 691.257 139.167 691.076 Q139.144 690.986 139.144 690.806 Q139.144 690.242 139.595 690.242 Z" fill="#000000" fill-rule="nonzero" fill-opacity="1"></path><path clip-path="url(#clip170)" d="M139.595 661.281 Q139.775 661.281 140.474 661.484 Q141.173 661.686 142.255 662.182 Q143.337 662.656 144.329 663.31 Q145.299 663.963 146.02 665.046 Q146.719 666.105 146.719 667.323 Q146.719 668.946 145.637 670.028 Q144.555 671.11 142.932 671.11 Q142.03 671.11 140.79 670.636 Q132.787 667.638 130.036 667.638 Q126.813 667.638 126.813 670.141 Q126.813 671.38 127.286 672.553 Q127.737 673.702 128.368 674.492 Q128.999 675.281 129.879 676.002 Q130.735 676.701 131.321 677.062 Q131.885 677.4 132.449 677.67 L134.748 678.256 Q135.379 678.392 137.837 679.045 L142.007 680.06 Q145.118 680.781 145.411 680.939 Q146.043 681.165 146.381 681.661 Q146.719 682.157 146.719 682.652 Q146.719 683.216 146.381 683.599 Q146.043 683.983 145.457 683.983 Q145.366 683.983 145.028 683.915 Q144.69 683.847 144.217 683.735 Q143.743 683.622 143.473 683.577 L132.809 680.894 Q130.87 680.398 130.262 680.285 Q129.631 680.15 128.932 680.15 Q126.813 680.15 126.813 681.593 Q126.813 682.765 128.21 683.532 Q129.608 684.298 132.313 684.952 Q133.057 685.155 133.215 685.29 Q133.373 685.403 133.373 685.741 Q133.35 686.305 132.899 686.305 Q132.787 686.305 132.043 686.124 Q131.299 685.944 130.239 685.606 Q129.157 685.245 128.436 684.907 Q127.895 684.614 127.647 684.456 Q127.376 684.276 126.858 683.847 Q126.317 683.396 126.069 682.81 Q125.798 682.202 125.798 681.458 Q125.798 679.789 126.88 678.572 Q127.94 677.355 129.811 677.197 Q125.798 674.198 125.798 670.005 Q125.798 667.525 127.106 666.105 Q128.413 664.685 130.735 664.685 Q131.276 664.685 131.975 664.798 Q132.651 664.888 133.508 665.113 Q134.365 665.316 135.019 665.496 Q135.672 665.677 136.732 666.037 Q137.769 666.398 138.22 666.556 Q138.671 666.714 139.73 667.097 Q140.767 667.458 140.88 667.503 Q142.977 668.337 144.172 668.337 Q144.961 668.337 145.321 668.089 Q145.682 667.818 145.682 667.232 Q145.682 665.654 144.126 664.482 Q142.548 663.287 139.978 662.521 Q139.415 662.34 139.279 662.25 Q139.144 662.137 139.144 661.822 Q139.144 661.281 139.595 661.281 Z" fill="#000000" fill-rule="nonzero" fill-opacity="1"></path><path clip-path="url(#clip170)" d="M140.858 640.029 Q141.06 639.849 141.263 639.849 Q141.466 639.849 142.052 640.3 Q142.639 640.728 143.428 641.652 Q144.217 642.577 144.961 643.772 Q145.705 644.966 146.2 646.725 Q146.719 648.483 146.719 650.332 Q146.719 653.646 144.352 655.63 Q141.985 657.591 138.355 657.591 Q136.033 657.591 133.982 656.825 Q131.908 656.058 130.442 654.818 Q128.977 653.556 127.917 651.978 Q126.835 650.377 126.317 648.709 Q125.798 647.04 125.798 645.485 Q125.798 643.208 126.948 641.878 Q128.098 640.548 129.721 640.548 Q130.104 640.548 130.577 640.66 Q131.051 640.751 131.795 641.066 Q132.539 641.359 133.283 642.126 Q134.004 642.892 134.478 644.02 Q135.537 646.522 135.537 651.076 L135.537 653.533 Q138.445 654.255 140.339 654.255 Q141.083 654.255 141.849 654.119 Q142.593 653.984 143.54 653.623 Q144.487 653.24 145.096 652.383 Q145.682 651.504 145.682 650.242 Q145.682 649.836 145.659 649.408 Q145.637 648.957 145.389 647.829 Q145.141 646.68 144.713 645.665 Q144.284 644.651 143.36 643.366 Q142.413 642.058 141.128 641.021 Q140.655 640.66 140.655 640.412 Q140.655 640.21 140.858 640.029 M129.721 642.081 Q128.481 642.081 127.647 643.005 Q126.813 643.907 126.813 645.485 Q126.813 645.981 126.925 646.59 Q127.038 647.198 127.511 648.213 Q127.985 649.205 128.774 650.084 Q129.54 650.963 131.051 651.842 Q132.539 652.722 134.523 653.24 L134.523 651.346 Q134.523 650.693 134.523 650.219 Q134.5 649.746 134.41 648.709 Q134.32 647.649 134.162 646.883 Q133.982 646.116 133.621 645.147 Q133.26 644.177 132.787 643.569 Q132.291 642.937 131.502 642.509 Q130.713 642.081 129.721 642.081 Z" fill="#000000" fill-rule="nonzero" fill-opacity="1"></path><path clip-path="url(#clip170)" d="M128.842 614.306 Q130.104 614.306 130.825 615.095 Q131.524 615.884 131.524 616.786 Q131.524 617.642 131.028 618.093 Q130.532 618.544 129.901 618.544 Q129.044 618.544 128.3 617.913 Q127.557 617.282 127.399 616.335 Q126.813 617.259 126.813 618.634 Q126.813 619.536 127.286 620.325 Q127.759 621.092 128.368 621.565 Q128.977 622.016 129.856 622.422 Q130.713 622.805 131.231 622.963 Q131.727 623.098 132.268 623.211 L138.581 624.789 Q141.579 625.555 142.639 625.555 Q143.946 625.555 144.825 624.924 Q145.682 624.293 145.682 623.03 Q145.682 622.534 145.547 621.971 Q145.389 621.407 144.983 620.686 Q144.555 619.942 143.924 619.288 Q143.27 618.612 142.165 617.958 Q141.06 617.304 139.64 616.876 Q139.144 616.741 139.144 616.29 Q139.144 615.726 139.595 615.726 Q139.978 615.726 140.79 616.042 Q141.579 616.335 142.616 616.989 Q143.63 617.62 144.555 618.454 Q145.457 619.288 146.088 620.528 Q146.719 621.768 146.719 623.121 Q146.719 625.059 145.682 626.344 Q144.645 627.629 143.202 628.103 Q143.405 628.215 143.676 628.373 Q143.946 628.531 144.555 629.005 Q145.141 629.455 145.592 629.974 Q146.02 630.492 146.358 631.304 Q146.719 632.093 146.719 632.95 Q146.719 634.032 146.403 635.001 Q146.088 635.948 145.366 636.624 Q144.645 637.301 143.653 637.301 Q142.548 637.301 141.782 636.557 Q140.993 635.79 140.993 634.753 Q140.993 634.1 141.376 633.581 Q141.759 633.04 142.593 633.04 Q143.518 633.04 144.217 633.671 Q144.915 634.302 145.096 635.204 Q145.682 634.28 145.682 632.905 Q145.682 631.417 144.374 630.244 Q143.067 629.072 140.88 628.509 Q135.627 627.111 133.283 626.57 Q130.916 626.029 129.901 626.029 Q128.954 626.029 128.3 626.277 Q127.647 626.525 127.354 626.953 Q127.038 627.359 126.925 627.742 Q126.813 628.103 126.813 628.509 Q126.813 629.185 127.083 629.951 Q127.354 630.695 127.985 631.597 Q128.594 632.476 129.856 633.31 Q131.118 634.145 132.854 634.708 Q133.373 634.821 133.373 635.317 Q133.35 635.858 132.899 635.858 Q132.516 635.858 131.727 635.565 Q130.916 635.249 129.901 634.618 Q128.887 633.964 127.985 633.13 Q127.061 632.273 126.429 631.034 Q125.798 629.771 125.798 628.418 Q125.798 627.81 125.933 627.224 Q126.046 626.615 126.384 625.893 Q126.722 625.149 127.466 624.496 Q128.21 623.842 129.292 623.436 Q128.774 623.166 128.278 622.805 Q127.782 622.422 127.173 621.836 Q126.542 621.227 126.181 620.393 Q125.798 619.536 125.798 618.589 Q125.798 617.665 126.046 616.763 Q126.271 615.861 127.015 615.095 Q127.737 614.306 128.842 614.306 Z" fill="#000000" fill-rule="nonzero" fill-opacity="1"></path><path clip-path="url(#clip170)" d="M139.595 589.91 Q142.503 590.519 144.172 591.308 Q146.719 592.57 146.719 594.712 Q146.719 596.335 145.727 597.485 Q144.735 598.634 143.247 598.905 Q146.719 601.858 146.719 604.924 Q146.719 607.63 144.667 609.343 Q142.593 611.056 139.325 611.056 Q136.033 611.056 132.877 609.433 Q129.721 607.787 127.759 605.195 Q125.798 602.602 125.798 599.942 Q125.798 597.124 128.751 595.681 Q127.94 595.568 127.331 595.05 Q126.722 594.531 126.722 593.742 Q126.722 593.134 127.061 592.773 Q127.376 592.412 127.962 592.412 Q128.255 592.412 129.54 592.728 L135.988 594.396 L140.159 595.411 Q141.692 595.794 142.255 595.907 Q142.819 595.997 143.563 595.997 Q145.682 595.997 145.682 594.622 Q145.682 593.945 145.254 593.404 Q144.825 592.863 143.924 592.435 Q143.022 592.007 142.188 591.736 Q141.331 591.465 139.978 591.105 Q139.437 590.992 139.302 590.902 Q139.144 590.789 139.144 590.474 Q139.144 589.91 139.595 589.91 M130.87 596.245 Q130.668 596.245 130.104 596.403 Q129.54 596.56 128.751 596.921 Q127.962 597.282 127.399 598.071 Q126.813 598.837 126.813 599.874 Q126.813 601.272 128.007 602.738 Q129.202 604.18 131.231 605.24 Q132.854 606.051 136.259 606.931 Q139.663 607.787 141.353 607.787 Q142.391 607.787 143.315 607.562 Q144.217 607.314 144.961 606.615 Q145.682 605.916 145.682 604.834 Q145.682 602.196 142.413 599.604 Q141.849 599.108 141.624 598.995 Q141.376 598.86 140.7 598.68 L131.66 596.38 Q130.983 596.245 130.87 596.245 Z" fill="#000000" fill-rule="nonzero" fill-opacity="1"></path><path clip-path="url(#clip170)" d="M140.858 569.087 Q141.06 568.906 141.263 568.906 Q141.466 568.906 142.052 569.357 Q142.639 569.786 143.428 570.71 Q144.217 571.634 144.961 572.829 Q145.705 574.024 146.2 575.782 Q146.719 577.541 146.719 579.389 Q146.719 582.839 144.442 584.868 Q142.165 586.874 138.896 586.874 Q135.717 586.874 132.674 585.093 Q129.608 583.312 127.714 580.426 Q125.798 577.541 125.798 574.497 Q125.798 572.085 126.925 570.575 Q128.052 569.064 129.766 569.064 Q131.096 569.064 131.908 569.831 Q132.719 570.597 132.719 571.634 Q132.719 572.356 132.313 572.852 Q131.885 573.348 131.096 573.348 Q130.081 573.348 129.292 572.513 Q128.977 572.198 128.842 571.837 Q128.684 571.454 128.684 571.228 Q128.661 571.003 128.661 570.484 Q127.782 570.958 127.309 572.085 Q126.813 573.19 126.813 574.452 Q126.813 576.323 128.12 578.104 Q129.405 579.885 131.434 580.967 Q133.418 582.05 136.236 582.748 Q139.031 583.447 140.655 583.447 Q142.886 583.447 144.284 582.41 Q145.682 581.373 145.682 579.299 Q145.682 578.893 145.659 578.465 Q145.637 578.014 145.389 576.887 Q145.141 575.737 144.713 574.723 Q144.284 573.708 143.36 572.423 Q142.413 571.116 141.128 570.079 Q140.655 569.718 140.655 569.47 Q140.655 569.267 140.858 569.087 Z" fill="#000000" fill-rule="nonzero" fill-opacity="1"></path><path clip-path="url(#clip170)" d="M126.813 554.019 Q127.444 554.019 127.602 554.312 Q127.737 554.605 127.737 555.417 L127.737 559.745 L141.353 563.172 Q142.548 563.443 143.563 563.443 Q144.69 563.443 145.186 563.104 Q145.682 562.744 145.682 562 Q145.682 560.534 144.352 558.956 Q143.022 557.356 139.775 556.003 Q139.347 555.823 139.257 555.732 Q139.144 555.62 139.144 555.327 Q139.144 554.763 139.595 554.763 Q139.753 554.763 140.474 555.079 Q141.196 555.372 142.255 556.026 Q143.315 556.657 144.307 557.491 Q145.299 558.303 146.02 559.542 Q146.719 560.782 146.719 562.112 Q146.719 563.984 145.524 565.178 Q144.329 566.351 142.458 566.351 Q141.849 566.351 139.911 565.877 Q137.949 565.404 127.737 562.834 L127.737 566.914 Q127.737 567.478 127.714 567.703 Q127.692 567.906 127.579 568.064 Q127.444 568.199 127.173 568.199 Q126.745 568.199 126.565 568.019 Q126.362 567.839 126.339 567.613 Q126.294 567.365 126.294 566.802 L126.294 562.473 L118.967 560.67 Q118.246 560.489 117.84 560.038 Q117.412 559.565 117.367 559.294 Q117.299 559.024 117.299 558.821 Q117.299 558.212 117.637 557.852 Q117.953 557.491 118.539 557.491 Q118.854 557.491 126.294 559.385 L126.294 555.327 Q126.294 554.808 126.317 554.605 Q126.339 554.38 126.452 554.199 Q126.565 554.019 126.813 554.019 Z" fill="#000000" fill-rule="nonzero" fill-opacity="1"></path><path clip-path="url(#clip170)" d="M436.391 14.0809 L436.391 22.0612 Q431.732 19.8332 427.6 18.7395 Q423.469 17.6457 419.62 17.6457 Q412.936 17.6457 409.29 20.2383 Q405.685 22.8309 405.685 27.611 Q405.685 31.6214 408.075 33.6873 Q410.506 35.7128 417.23 36.9686 L422.172 37.9813 Q431.327 39.7232 435.662 44.1387 Q440.037 48.5136 440.037 55.8863 Q440.037 64.6767 434.122 69.2137 Q428.249 73.7508 416.866 73.7508 Q412.572 73.7508 407.71 72.7785 Q402.89 71.8063 397.705 69.9024 L397.705 61.4765 Q402.687 64.2716 407.467 65.6895 Q412.247 67.1073 416.866 67.1073 Q423.874 67.1073 427.681 64.3527 Q431.489 61.598 431.489 56.4939 Q431.489 52.0379 428.735 49.5264 Q426.021 47.0148 419.782 45.759 L414.8 44.7868 Q405.645 42.9639 401.553 39.075 Q397.462 35.1862 397.462 28.2591 Q397.462 20.2383 403.092 15.6203 Q408.764 11.0023 418.688 11.0023 Q422.942 11.0023 427.357 11.7719 Q431.773 12.5416 436.391 14.0809 Z" fill="#000000" fill-rule="nonzero" fill-opacity="1"></path><path clip-path="url(#clip170)" d="M459.684 65.7705 L459.684 89.8329 L452.189 89.8329 L452.189 27.2059 L459.684 27.2059 L459.684 34.0924 Q462.033 30.0415 465.598 28.0971 Q469.203 26.1121 474.186 26.1121 Q482.45 26.1121 487.594 32.6746 Q492.779 39.2371 492.779 49.9314 Q492.779 60.6258 487.594 67.1883 Q482.45 73.7508 474.186 73.7508 Q469.203 73.7508 465.598 71.8063 Q462.033 69.8214 459.684 65.7705 M485.042 49.9314 Q485.042 41.7081 481.639 37.0496 Q478.277 32.3505 472.363 32.3505 Q466.449 32.3505 463.046 37.0496 Q459.684 41.7081 459.684 49.9314 Q459.684 58.1548 463.046 62.8538 Q466.449 67.5124 472.363 67.5124 Q478.277 67.5124 481.639 62.8538 Q485.042 58.1548 485.042 49.9314 Z" fill="#000000" fill-rule="nonzero" fill-opacity="1"></path><path clip-path="url(#clip170)" d="M543.942 48.0275 L543.942 51.6733 L509.672 51.6733 Q510.158 59.3701 514.29 63.421 Q518.462 67.4314 525.875 67.4314 Q530.169 67.4314 534.18 66.3781 Q538.231 65.3249 542.201 63.2184 L542.201 70.267 Q538.19 71.9684 533.977 72.8596 Q529.764 73.7508 525.43 73.7508 Q514.573 73.7508 508.213 67.4314 Q501.894 61.1119 501.894 50.3365 Q501.894 39.1965 507.889 32.6746 Q513.925 26.1121 524.133 26.1121 Q533.289 26.1121 538.595 32.0264 Q543.942 37.9003 543.942 48.0275 M536.489 45.84 Q536.408 39.7232 533.045 36.0774 Q529.724 32.4315 524.214 32.4315 Q517.976 32.4315 514.209 35.9558 Q510.482 39.4801 509.915 45.8805 L536.489 45.84 Z" fill="#000000" fill-rule="nonzero" fill-opacity="1"></path><path clip-path="url(#clip170)" d="M594.984 48.0275 L594.984 51.6733 L560.713 51.6733 Q561.199 59.3701 565.331 63.421 Q569.504 67.4314 576.917 67.4314 Q581.211 67.4314 585.221 66.3781 Q589.272 65.3249 593.242 63.2184 L593.242 70.267 Q589.232 71.9684 585.019 72.8596 Q580.806 73.7508 576.471 73.7508 Q565.615 73.7508 559.255 67.4314 Q552.935 61.1119 552.935 50.3365 Q552.935 39.1965 558.931 32.6746 Q564.967 26.1121 575.175 26.1121 Q584.33 26.1121 589.637 32.0264 Q594.984 37.9003 594.984 48.0275 M587.53 45.84 Q587.449 39.7232 584.087 36.0774 Q580.765 32.4315 575.256 32.4315 Q569.017 32.4315 565.25 35.9558 Q561.523 39.4801 560.956 45.8805 L587.53 45.84 Z" fill="#000000" fill-rule="nonzero" fill-opacity="1"></path><path clip-path="url(#clip170)" d="M637.073 34.0924 L637.073 9.54393 L644.526 9.54393 L644.526 72.576 L637.073 72.576 L637.073 65.7705 Q634.723 69.8214 631.118 71.8063 Q627.553 73.7508 622.53 73.7508 Q614.307 73.7508 609.121 67.1883 Q603.977 60.6258 603.977 49.9314 Q603.977 39.2371 609.121 32.6746 Q614.307 26.1121 622.53 26.1121 Q627.553 26.1121 631.118 28.0971 Q634.723 30.0415 637.073 34.0924 M611.674 49.9314 Q611.674 58.1548 615.036 62.8538 Q618.439 67.5124 624.353 67.5124 Q630.267 67.5124 633.67 62.8538 Q637.073 58.1548 637.073 49.9314 Q637.073 41.7081 633.67 37.0496 Q630.267 32.3505 624.353 32.3505 Q618.439 32.3505 615.036 37.0496 Q611.674 41.7081 611.674 49.9314 Z" fill="#000000" fill-rule="nonzero" fill-opacity="1"></path><path clip-path="url(#clip170)" d="M656.112 46.5287 L677.946 46.5287 L677.946 53.1722 L656.112 53.1722 L656.112 46.5287 Z" fill="#000000" fill-rule="nonzero" fill-opacity="1"></path><path clip-path="url(#clip170)" d="M689.046 54.671 L689.046 27.2059 L696.499 27.2059 L696.499 54.3874 Q696.499 60.8284 699.011 64.0691 Q701.523 67.2693 706.546 67.2693 Q712.582 67.2693 716.065 63.421 Q719.59 59.5726 719.59 52.9291 L719.59 27.2059 L727.043 27.2059 L727.043 72.576 L719.59 72.576 L719.59 65.6084 Q716.875 69.7404 713.27 71.7658 Q709.705 73.7508 704.966 73.7508 Q697.148 73.7508 693.097 68.8897 Q689.046 64.0286 689.046 54.671 M707.801 26.1121 L707.801 26.1121 Z" fill="#000000" fill-rule="nonzero" fill-opacity="1"></path><path clip-path="url(#clip170)" d="M749.607 65.7705 L749.607 89.8329 L742.113 89.8329 L742.113 27.2059 L749.607 27.2059 L749.607 34.0924 Q751.956 30.0415 755.521 28.0971 Q759.126 26.1121 764.109 26.1121 Q772.373 26.1121 777.518 32.6746 Q782.703 39.2371 782.703 49.9314 Q782.703 60.6258 777.518 67.1883 Q772.373 73.7508 764.109 73.7508 Q759.126 73.7508 755.521 71.8063 Q751.956 69.8214 749.607 65.7705 M774.965 49.9314 Q774.965 41.7081 771.563 37.0496 Q768.2 32.3505 762.286 32.3505 Q756.372 32.3505 752.969 37.0496 Q749.607 41.7081 749.607 49.9314 Q749.607 58.1548 752.969 62.8538 Q756.372 67.5124 762.286 67.5124 Q768.2 67.5124 771.563 62.8538 Q774.965 58.1548 774.965 49.9314 Z" fill="#000000" fill-rule="nonzero" fill-opacity="1"></path><path clip-path="url(#clip170)" d="M844.398 9.54393 L844.398 15.7418 L837.268 15.7418 Q833.258 15.7418 831.678 17.3622 Q830.139 18.9825 830.139 23.1955 L830.139 27.2059 L842.413 27.2059 L842.413 32.9987 L830.139 32.9987 L830.139 72.576 L822.645 72.576 L822.645 32.9987 L815.515 32.9987 L815.515 27.2059 L822.645 27.2059 L822.645 24.0462 Q822.645 16.471 826.169 13.0277 Q829.693 9.54393 837.349 9.54393 L844.398 9.54393 Z" fill="#000000" fill-rule="nonzero" fill-opacity="1"></path><path clip-path="url(#clip170)" d="M868.217 32.4315 Q862.222 32.4315 858.738 37.1306 Q855.254 41.7891 855.254 49.9314 Q855.254 58.0738 858.698 62.7728 Q862.181 67.4314 868.217 67.4314 Q874.172 67.4314 877.656 62.7323 Q881.14 58.0333 881.14 49.9314 Q881.14 41.8701 877.656 37.1711 Q874.172 32.4315 868.217 32.4315 M868.217 26.1121 Q877.939 26.1121 883.489 32.4315 Q889.039 38.7509 889.039 49.9314 Q889.039 61.0714 883.489 67.4314 Q877.939 73.7508 868.217 73.7508 Q858.455 73.7508 852.905 67.4314 Q847.396 61.0714 847.396 49.9314 Q847.396 38.7509 852.905 32.4315 Q858.455 26.1121 868.217 26.1121 Z" fill="#000000" fill-rule="nonzero" fill-opacity="1"></path><path clip-path="url(#clip170)" d="M927.685 34.1734 Q926.429 33.4443 924.93 33.1202 Q923.472 32.7556 921.689 32.7556 Q915.37 32.7556 911.967 36.8875 Q908.605 40.9789 908.605 48.6757 L908.605 72.576 L901.111 72.576 L901.111 27.2059 L908.605 27.2059 L908.605 34.2544 Q910.954 30.1225 914.722 28.1376 Q918.489 26.1121 923.877 26.1121 Q924.646 26.1121 925.578 26.2337 Q926.51 26.3147 927.644 26.5172 L927.685 34.1734 Z" fill="#000000" fill-rule="nonzero" fill-opacity="1"></path><path clip-path="url(#clip170)" d="M984.843 9.54393 L984.843 15.7418 L977.713 15.7418 Q973.703 15.7418 972.123 17.3622 Q970.584 18.9825 970.584 23.1955 L970.584 27.2059 L982.858 27.2059 L982.858 32.9987 L970.584 32.9987 L970.584 72.576 L963.089 72.576 L963.089 32.9987 L955.96 32.9987 L955.96 27.2059 L963.089 27.2059 L963.089 24.0462 Q963.089 16.471 966.614 13.0277 Q970.138 9.54393 977.794 9.54393 L984.843 9.54393 Z" fill="#000000" fill-rule="nonzero" fill-opacity="1"></path><path clip-path="url(#clip170)" d="M991.081 27.2059 L998.535 27.2059 L998.535 72.576 L991.081 72.576 L991.081 27.2059 M991.081 9.54393 L998.535 9.54393 L998.535 18.9825 L991.081 18.9825 L991.081 9.54393 Z" fill="#000000" fill-rule="nonzero" fill-opacity="1"></path><path clip-path="url(#clip170)" d="M1051.84 27.2059 L1035.44 49.2833 L1052.7 72.576 L1043.9 72.576 L1030.7 54.752 L1017.49 72.576 L1008.7 72.576 L1026.32 48.8377 L1010.2 27.2059 L1018.99 27.2059 L1031.02 43.369 L1043.05 27.2059 L1051.84 27.2059 Z" fill="#000000" fill-rule="nonzero" fill-opacity="1"></path><path clip-path="url(#clip170)" d="M1099.48 48.0275 L1099.48 51.6733 L1065.21 51.6733 Q1065.7 59.3701 1069.83 63.421 Q1074 67.4314 1081.42 67.4314 Q1085.71 67.4314 1089.72 66.3781 Q1093.77 65.3249 1097.74 63.2184 L1097.74 70.267 Q1093.73 71.9684 1089.52 72.8596 Q1085.31 73.7508 1080.97 73.7508 Q1070.11 73.7508 1063.75 67.4314 Q1057.44 61.1119 1057.44 50.3365 Q1057.44 39.1965 1063.43 32.6746 Q1069.47 26.1121 1079.67 26.1121 Q1088.83 26.1121 1094.14 32.0264 Q1099.48 37.9003 1099.48 48.0275 M1092.03 45.84 Q1091.95 39.7232 1088.59 36.0774 Q1085.26 32.4315 1079.76 32.4315 Q1073.52 32.4315 1069.75 35.9558 Q1066.02 39.4801 1065.46 45.8805 L1092.03 45.84 Z" fill="#000000" fill-rule="nonzero" fill-opacity="1"></path><path clip-path="url(#clip170)" d="M1141.57 34.0924 L1141.57 9.54393 L1149.03 9.54393 L1149.03 72.576 L1141.57 72.576 L1141.57 65.7705 Q1139.22 69.8214 1135.62 71.8063 Q1132.05 73.7508 1127.03 73.7508 Q1118.81 73.7508 1113.62 67.1883 Q1108.48 60.6258 1108.48 49.9314 Q1108.48 39.2371 1113.62 32.6746 Q1118.81 26.1121 1127.03 26.1121 Q1132.05 26.1121 1135.62 28.0971 Q1139.22 30.0415 1141.57 34.0924 M1116.17 49.9314 Q1116.17 58.1548 1119.54 62.8538 Q1122.94 67.5124 1128.85 67.5124 Q1134.77 67.5124 1138.17 62.8538 Q1141.57 58.1548 1141.57 49.9314 Q1141.57 41.7081 1138.17 37.0496 Q1134.77 32.3505 1128.85 32.3505 Q1122.94 32.3505 1119.54 37.0496 Q1116.17 41.7081 1116.17 49.9314 Z" fill="#000000" fill-rule="nonzero" fill-opacity="1"></path><path clip-path="url(#clip170)" d="M1198.12 14.324 L1198.12 27.2059 L1213.48 27.2059 L1213.48 32.9987 L1198.12 32.9987 L1198.12 57.6282 Q1198.12 63.1779 1199.62 64.7578 Q1201.16 66.3376 1205.82 66.3376 L1213.48 66.3376 L1213.48 72.576 L1205.82 72.576 Q1197.19 72.576 1193.91 69.3758 Q1190.63 66.1351 1190.63 57.6282 L1190.63 32.9987 L1185.16 32.9987 L1185.16 27.2059 L1190.63 27.2059 L1190.63 14.324 L1198.12 14.324 Z" fill="#000000" fill-rule="nonzero" fill-opacity="1"></path><path clip-path="url(#clip170)" d="M1240.86 32.4315 Q1234.86 32.4315 1231.38 37.1306 Q1227.9 41.7891 1227.9 49.9314 Q1227.9 58.0738 1231.34 62.7728 Q1234.82 67.4314 1240.86 67.4314 Q1246.81 67.4314 1250.3 62.7323 Q1253.78 58.0333 1253.78 49.9314 Q1253.78 41.8701 1250.3 37.1711 Q1246.81 32.4315 1240.86 32.4315 M1240.86 26.1121 Q1250.58 26.1121 1256.13 32.4315 Q1261.68 38.7509 1261.68 49.9314 Q1261.68 61.0714 1256.13 67.4314 Q1250.58 73.7508 1240.86 73.7508 Q1231.1 73.7508 1225.55 67.4314 Q1220.04 61.0714 1220.04 49.9314 Q1220.04 38.7509 1225.55 32.4315 Q1231.1 26.1121 1240.86 26.1121 Z" fill="#000000" fill-rule="nonzero" fill-opacity="1"></path><path clip-path="url(#clip170)" d="M1274.04 9.54393 L1281.49 9.54393 L1281.49 72.576 L1274.04 72.576 L1274.04 9.54393 Z" fill="#000000" fill-rule="nonzero" fill-opacity="1"></path><path clip-path="url(#clip170)" d="M1335.89 48.0275 L1335.89 51.6733 L1301.62 51.6733 Q1302.11 59.3701 1306.24 63.421 Q1310.41 67.4314 1317.83 67.4314 Q1322.12 67.4314 1326.13 66.3781 Q1330.18 65.3249 1334.15 63.2184 L1334.15 70.267 Q1330.14 71.9684 1325.93 72.8596 Q1321.72 73.7508 1317.38 73.7508 Q1306.53 73.7508 1300.17 67.4314 Q1293.85 61.1119 1293.85 50.3365 Q1293.85 39.1965 1299.84 32.6746 Q1305.88 26.1121 1316.09 26.1121 Q1325.24 26.1121 1330.55 32.0264 Q1335.89 37.9003 1335.89 48.0275 M1328.44 45.84 Q1328.36 39.7232 1325 36.0774 Q1321.68 32.4315 1316.17 32.4315 Q1309.93 32.4315 1306.16 35.9558 Q1302.43 39.4801 1301.87 45.8805 L1328.44 45.84 Z" fill="#000000" fill-rule="nonzero" fill-opacity="1"></path><path clip-path="url(#clip170)" d="M1374.42 34.1734 Q1373.16 33.4443 1371.66 33.1202 Q1370.21 32.7556 1368.42 32.7556 Q1362.1 32.7556 1358.7 36.8875 Q1355.34 40.9789 1355.34 48.6757 L1355.34 72.576 L1347.84 72.576 L1347.84 27.2059 L1355.34 27.2059 L1355.34 34.2544 Q1357.69 30.1225 1361.46 28.1376 Q1365.22 26.1121 1370.61 26.1121 Q1371.38 26.1121 1372.31 26.2337 Q1373.24 26.3147 1374.38 26.5172 L1374.42 34.1734 Z" fill="#000000" fill-rule="nonzero" fill-opacity="1"></path><path clip-path="url(#clip170)" d="M1402.86 49.7694 Q1393.82 49.7694 1390.34 51.8354 Q1386.85 53.9013 1386.85 58.8839 Q1386.85 62.8538 1389.45 65.2034 Q1392.08 67.5124 1396.58 67.5124 Q1402.77 67.5124 1406.5 63.1374 Q1410.27 58.7219 1410.27 51.4303 L1410.27 49.7694 L1402.86 49.7694 M1417.72 46.6907 L1417.72 72.576 L1410.27 72.576 L1410.27 65.6895 Q1407.72 69.8214 1403.91 71.8063 Q1400.1 73.7508 1394.59 73.7508 Q1387.62 73.7508 1383.49 69.8619 Q1379.4 65.9325 1379.4 59.3701 Q1379.4 51.7138 1384.51 47.825 Q1389.65 43.9361 1399.82 43.9361 L1410.27 43.9361 L1410.27 43.2069 Q1410.27 38.0623 1406.87 35.2672 Q1403.5 32.4315 1397.39 32.4315 Q1393.5 32.4315 1389.81 33.3632 Q1386.13 34.295 1382.72 36.1584 L1382.72 29.2718 Q1386.81 27.692 1390.66 26.9223 Q1394.51 26.1121 1398.16 26.1121 Q1408 26.1121 1412.86 31.2163 Q1417.72 36.3204 1417.72 46.6907 Z" fill="#000000" fill-rule="nonzero" fill-opacity="1"></path><path clip-path="url(#clip170)" d="M1470.79 45.1919 L1470.79 72.576 L1463.34 72.576 L1463.34 45.4349 Q1463.34 38.994 1460.82 35.7938 Q1458.31 32.5936 1453.29 32.5936 Q1447.25 32.5936 1443.77 36.4419 Q1440.29 40.2903 1440.29 46.9338 L1440.29 72.576 L1432.79 72.576 L1432.79 27.2059 L1440.29 27.2059 L1440.29 34.2544 Q1442.96 30.163 1446.56 28.1376 Q1450.21 26.1121 1454.95 26.1121 Q1462.77 26.1121 1466.78 30.9732 Q1470.79 35.7938 1470.79 45.1919 Z" fill="#000000" fill-rule="nonzero" fill-opacity="1"></path><path clip-path="url(#clip170)" d="M1518.31 28.9478 L1518.31 35.9153 Q1515.15 34.1734 1511.95 33.3227 Q1508.79 32.4315 1505.55 32.4315 Q1498.29 32.4315 1494.28 37.0496 Q1490.27 41.6271 1490.27 49.9314 Q1490.27 58.2358 1494.28 62.8538 Q1498.29 67.4314 1505.55 67.4314 Q1508.79 67.4314 1511.95 66.5807 Q1515.15 65.6895 1518.31 63.9476 L1518.31 70.8341 Q1515.19 72.2924 1511.82 73.0216 Q1508.5 73.7508 1504.74 73.7508 Q1494.49 73.7508 1488.45 67.3098 Q1482.42 60.8689 1482.42 49.9314 Q1482.42 38.832 1488.49 32.472 Q1494.61 26.1121 1505.22 26.1121 Q1508.67 26.1121 1511.95 26.8413 Q1515.23 27.5299 1518.31 28.9478 Z" fill="#000000" fill-rule="nonzero" fill-opacity="1"></path><path clip-path="url(#clip170)" d="M1570.08 48.0275 L1570.08 51.6733 L1535.81 51.6733 Q1536.29 59.3701 1540.42 63.421 Q1544.6 67.4314 1552.01 67.4314 Q1556.3 67.4314 1560.31 66.3781 Q1564.37 65.3249 1568.34 63.2184 L1568.34 70.267 Q1564.32 71.9684 1560.11 72.8596 Q1555.9 73.7508 1551.56 73.7508 Q1540.71 73.7508 1534.35 67.4314 Q1528.03 61.1119 1528.03 50.3365 Q1528.03 39.1965 1534.02 32.6746 Q1540.06 26.1121 1550.27 26.1121 Q1559.42 26.1121 1564.73 32.0264 Q1570.08 37.9003 1570.08 48.0275 M1562.62 45.84 Q1562.54 39.7232 1559.18 36.0774 Q1555.86 32.4315 1550.35 32.4315 Q1544.11 32.4315 1540.34 35.9558 Q1536.62 39.4801 1536.05 45.8805 L1562.62 45.84 Z" fill="#000000" fill-rule="nonzero" fill-opacity="1"></path><path clip-path="url(#clip170)" d="M1609.01 12.096 L1617.19 12.096 L1617.19 72.576 L1609.01 72.576 L1609.01 12.096 Z" fill="#000000" fill-rule="nonzero" fill-opacity="1"></path><path clip-path="url(#clip170)" d="M1670.86 45.1919 L1670.86 72.576 L1663.41 72.576 L1663.41 45.4349 Q1663.41 38.994 1660.9 35.7938 Q1658.39 32.5936 1653.36 32.5936 Q1647.33 32.5936 1643.84 36.4419 Q1640.36 40.2903 1640.36 46.9338 L1640.36 72.576 L1632.87 72.576 L1632.87 27.2059 L1640.36 27.2059 L1640.36 34.2544 Q1643.03 30.163 1646.64 28.1376 Q1650.28 26.1121 1655.02 26.1121 Q1662.84 26.1121 1666.85 30.9732 Q1670.86 35.7938 1670.86 45.1919 Z" fill="#000000" fill-rule="nonzero" fill-opacity="1"></path><path clip-path="url(#clip170)" d="M1724.54 48.0275 L1724.54 51.6733 L1690.27 51.6733 Q1690.75 59.3701 1694.89 63.421 Q1699.06 67.4314 1706.47 67.4314 Q1710.76 67.4314 1714.78 66.3781 Q1718.83 65.3249 1722.8 63.2184 L1722.8 70.267 Q1718.79 71.9684 1714.57 72.8596 Q1710.36 73.7508 1706.03 73.7508 Q1695.17 73.7508 1688.81 67.4314 Q1682.49 61.1119 1682.49 50.3365 Q1682.49 39.1965 1688.48 32.6746 Q1694.52 26.1121 1704.73 26.1121 Q1713.88 26.1121 1719.19 32.0264 Q1724.54 37.9003 1724.54 48.0275 M1717.08 45.84 Q1717 39.7232 1713.64 36.0774 Q1710.32 32.4315 1704.81 32.4315 Q1698.57 32.4315 1694.8 35.9558 Q1691.08 39.4801 1690.51 45.8805 L1717.08 45.84 Z" fill="#000000" fill-rule="nonzero" fill-opacity="1"></path><path clip-path="url(#clip170)" d="M1773.03 27.2059 L1756.62 49.2833 L1773.88 72.576 L1765.09 72.576 L1751.88 54.752 L1738.68 72.576 L1729.89 72.576 L1747.51 48.8377 L1731.38 27.2059 L1740.17 27.2059 L1752.21 43.369 L1764.24 27.2059 L1773.03 27.2059 Z" fill="#000000" fill-rule="nonzero" fill-opacity="1"></path><path clip-path="url(#clip170)" d="M1805.03 49.7694 Q1796 49.7694 1792.51 51.8354 Q1789.03 53.9013 1789.03 58.8839 Q1789.03 62.8538 1791.62 65.2034 Q1794.25 67.5124 1798.75 67.5124 Q1804.95 67.5124 1808.68 63.1374 Q1812.44 58.7219 1812.44 51.4303 L1812.44 49.7694 L1805.03 49.7694 M1819.9 46.6907 L1819.9 72.576 L1812.44 72.576 L1812.44 65.6895 Q1809.89 69.8214 1806.08 71.8063 Q1802.27 73.7508 1796.77 73.7508 Q1789.8 73.7508 1785.67 69.8619 Q1781.57 65.9325 1781.57 59.3701 Q1781.57 51.7138 1786.68 47.825 Q1791.82 43.9361 1801.99 43.9361 L1812.44 43.9361 L1812.44 43.2069 Q1812.44 38.0623 1809.04 35.2672 Q1805.68 32.4315 1799.56 32.4315 Q1795.67 32.4315 1791.99 33.3632 Q1788.3 34.295 1784.9 36.1584 L1784.9 29.2718 Q1788.99 27.692 1792.84 26.9223 Q1796.68 26.1121 1800.33 26.1121 Q1810.17 26.1121 1815.04 31.2163 Q1819.9 36.3204 1819.9 46.6907 Z" fill="#000000" fill-rule="nonzero" fill-opacity="1"></path><path clip-path="url(#clip170)" d="M1867.9 28.9478 L1867.9 35.9153 Q1864.74 34.1734 1861.54 33.3227 Q1858.38 32.4315 1855.14 32.4315 Q1847.89 32.4315 1843.88 37.0496 Q1839.87 41.6271 1839.87 49.9314 Q1839.87 58.2358 1843.88 62.8538 Q1847.89 67.4314 1855.14 67.4314 Q1858.38 67.4314 1861.54 66.5807 Q1864.74 65.6895 1867.9 63.9476 L1867.9 70.8341 Q1864.78 72.2924 1861.42 73.0216 Q1858.1 73.7508 1854.33 73.7508 Q1844.08 73.7508 1838.04 67.3098 Q1832.01 60.8689 1832.01 49.9314 Q1832.01 38.832 1838.08 32.472 Q1844.2 26.1121 1854.81 26.1121 Q1858.26 26.1121 1861.54 26.8413 Q1864.82 27.5299 1867.9 28.9478 Z" fill="#000000" fill-rule="nonzero" fill-opacity="1"></path><path clip-path="url(#clip170)" d="M1888.23 14.324 L1888.23 27.2059 L1903.59 27.2059 L1903.59 32.9987 L1888.23 32.9987 L1888.23 57.6282 Q1888.23 63.1779 1889.73 64.7578 Q1891.27 66.3376 1895.93 66.3376 L1903.59 66.3376 L1903.59 72.576 L1895.93 72.576 Q1887.3 72.576 1884.02 69.3758 Q1880.74 66.1351 1880.74 57.6282 L1880.74 32.9987 L1875.27 32.9987 L1875.27 27.2059 L1880.74 27.2059 L1880.74 14.324 L1888.23 14.324 Z" fill="#000000" fill-rule="nonzero" fill-opacity="1"></path><path clip-path="url(#clip170)" d="M1981.32 63.9476 L1981.32 47.7034 L1967.96 47.7034 L1967.96 40.9789 L1989.43 40.9789 L1989.43 66.9452 Q1984.69 70.3075 1978.98 72.0494 Q1973.26 73.7508 1966.78 73.7508 Q1952.6 73.7508 1944.58 65.4869 Q1936.6 57.1826 1936.6 42.3968 Q1936.6 27.5705 1944.58 19.3066 Q1952.6 11.0023 1966.78 11.0023 Q1972.7 11.0023 1978 12.4606 Q1983.35 13.9189 1987.85 16.7545 L1987.85 25.464 Q1983.31 21.6156 1978.21 19.6712 Q1973.1 17.7268 1967.47 17.7268 Q1956.37 17.7268 1950.78 23.9246 Q1945.23 30.1225 1945.23 42.3968 Q1945.23 54.6305 1950.78 60.8284 Q1956.37 67.0263 1967.47 67.0263 Q1971.81 67.0263 1975.21 66.2971 Q1978.61 65.5274 1981.32 63.9476 Z" fill="#000000" fill-rule="nonzero" fill-opacity="1"></path><path clip-path="url(#clip170)" d="M2004.37 12.096 L2016.57 12.096 L2032 53.2532 L2047.52 12.096 L2059.71 12.096 L2059.71 72.576 L2051.73 72.576 L2051.73 19.4686 L2036.13 60.9499 L2027.91 60.9499 L2012.31 19.4686 L2012.31 72.576 L2004.37 72.576 L2004.37 12.096 Z" fill="#000000" fill-rule="nonzero" fill-opacity="1"></path><path clip-path="url(#clip170)" d="M2104.63 44.2197 Q2107.27 45.1109 2109.74 48.0275 Q2112.25 50.9442 2114.76 56.0483 L2123.07 72.576 L2114.28 72.576 L2106.54 57.061 Q2103.54 50.9847 2100.7 48.9997 Q2097.91 47.0148 2093.05 47.0148 L2084.14 47.0148 L2084.14 72.576 L2075.95 72.576 L2075.95 12.096 L2094.43 12.096 Q2104.8 12.096 2109.9 16.4305 Q2115 20.7649 2115 29.5149 Q2115 35.2267 2112.33 38.994 Q2109.7 42.7613 2104.63 44.2197 M2084.14 18.8205 L2084.14 40.2903 L2094.43 40.2903 Q2100.34 40.2903 2103.34 37.5762 Q2106.38 34.8216 2106.38 29.5149 Q2106.38 24.2082 2103.34 21.5346 Q2100.34 18.8205 2094.43 18.8205 L2084.14 18.8205 Z" fill="#000000" fill-rule="nonzero" fill-opacity="1"></path><path clip-path="url(#clip170)" d="M2133.6 12.096 L2171.84 12.096 L2171.84 18.9825 L2141.78 18.9825 L2141.78 36.8875 L2170.58 36.8875 L2170.58 43.7741 L2141.78 43.7741 L2141.78 65.6895 L2172.57 65.6895 L2172.57 72.576 L2133.6 72.576 L2133.6 12.096 Z" fill="#000000" fill-rule="nonzero" fill-opacity="1"></path><path clip-path="url(#clip170)" d="M2222.27 14.0809 L2222.27 22.0612 Q2217.61 19.8332 2213.48 18.7395 Q2209.35 17.6457 2205.5 17.6457 Q2198.82 17.6457 2195.17 20.2383 Q2191.57 22.8309 2191.57 27.611 Q2191.57 31.6214 2193.96 33.6873 Q2196.39 35.7128 2203.11 36.9686 L2208.05 37.9813 Q2217.21 39.7232 2221.54 44.1387 Q2225.92 48.5136 2225.92 55.8863 Q2225.92 64.6767 2220 69.2137 Q2214.13 73.7508 2202.75 73.7508 Q2198.45 73.7508 2193.59 72.7785 Q2188.77 71.8063 2183.59 69.9024 L2183.59 61.4765 Q2188.57 64.2716 2193.35 65.6895 Q2198.13 67.1073 2202.75 67.1073 Q2209.76 67.1073 2213.56 64.3527 Q2217.37 61.598 2217.37 56.4939 Q2217.37 52.0379 2214.62 49.5264 Q2211.9 47.0148 2205.66 45.759 L2200.68 44.7868 Q2191.53 42.9639 2187.43 39.075 Q2183.34 35.1862 2183.34 28.2591 Q2183.34 20.2383 2188.97 15.6203 Q2194.65 11.0023 2204.57 11.0023 Q2208.82 11.0023 2213.24 11.7719 Q2217.65 12.5416 2222.27 14.0809 Z" fill="#000000" fill-rule="nonzero" fill-opacity="1"></path><circle clip-path="url(#clip172)" cx="329.552" cy="1386.4" r="14.4" fill="#009af9" fill-rule="evenodd" fill-opacity="1" stroke="#000000" stroke-opacity="1" stroke-width="3.2"></circle>
<circle clip-path="url(#clip172)" cx="885.528" cy="933.972" r="14.4" fill="#009af9" fill-rule="evenodd" fill-opacity="1" stroke="#000000" stroke-opacity="1" stroke-width="3.2"></circle>
<circle clip-path="url(#clip172)" cx="1309.31" cy="381.587" r="14.4" fill="#009af9" fill-rule="evenodd" fill-opacity="1" stroke="#000000" stroke-opacity="1" stroke-width="3.2"></circle>
<circle clip-path="url(#clip172)" cx="1733.08" cy="347.461" r="14.4" fill="#009af9" fill-rule="evenodd" fill-opacity="1" stroke="#000000" stroke-opacity="1" stroke-width="3.2"></circle>
<circle clip-path="url(#clip172)" cx="2293.83" cy="160.256" r="14.4" fill="#009af9" fill-rule="evenodd" fill-opacity="1" stroke="#000000" stroke-opacity="1" stroke-width="3.2"></circle>
</svg>