<svg xmlns="http://www.w3.org/2000/svg" xmlns:xlink="http://www.w3.org/1999/xlink" width="600" height="400" viewBox="0 0 2400 1600">
<defs>
  <clipPath id="clip950">
    <rect x="0" y="0" width="2400" height="1600"></rect>
  </clipPath>
</defs>
<path clip-path="url(#clip950)" d="M0 1600 L2400 1600 L2400 0 L0 0  Z" fill="#ffffff" fill-rule="evenodd" fill-opacity="1"></path>
<defs>
  <clipPath id="clip951">
    <rect x="480" y="0" width="1681" height="1600"></rect>
  </clipPath>
</defs>
<path clip-path="url(#clip950)" d="M271.11 1423.18 L2352.76 1423.18 L2352.76 123.472 L271.11 123.472  Z" fill="#ffffff" fill-rule="evenodd" fill-opacity="1"></path>
<defs>
  <clipPath id="clip952">
    <rect x="271" y="123" width="2083" height="1301"></rect>
  </clipPath>
</defs>
<polyline clip-path="url(#clip952)" style="stroke:#000000; stroke-linecap:round; stroke-linejoin:round; stroke-width:2; stroke-opacity:0.1; fill:none" points="330.025,1423.18 330.025,123.472 "></polyline>
<polyline clip-path="url(#clip952)" style="stroke:#000000; stroke-linecap:round; stroke-linejoin:round; stroke-width:2; stroke-opacity:0.1; fill:none" points="885.871,1423.18 885.871,123.472 "></polyline>
<polyline clip-path="url(#clip952)" style="stroke:#000000; stroke-linecap:round; stroke-linejoin:round; stroke-width:2; stroke-opacity:0.1; fill:none" points="1309.55,1423.18 1309.55,123.472 "></polyline>
<polyline clip-path="url(#clip952)" style="stroke:#000000; stroke-linecap:round; stroke-linejoin:round; stroke-width:2; stroke-opacity:0.1; fill:none" points="1733.23,1423.18 1733.23,123.472 "></polyline>
<polyline clip-path="url(#clip952)" style="stroke:#000000; stroke-linecap:round; stroke-linejoin:round; stroke-width:2; stroke-opacity:0.1; fill:none" points="2293.84,1423.18 2293.84,123.472 "></polyline>
<polyline clip-path="url(#clip950)" style="stroke:#000000; stroke-linecap:round; stroke-linejoin:round; stroke-width:4; stroke-opacity:1; fill:none" points="271.11,1423.18 2352.76,1423.18 "></polyline>
<polyline clip-path="url(#clip950)" style="stroke:#000000; stroke-linecap:round; stroke-linejoin:round; stroke-width:4; stroke-opacity:1; fill:none" points="330.025,1423.18 330.025,1404.28 "></polyline>
<polyline clip-path="url(#clip950)" style="stroke:#000000; stroke-linecap:round; stroke-linejoin:round; stroke-width:4; stroke-opacity:1; fill:none" points="885.871,1423.18 885.871,1404.28 "></polyline>
<polyline clip-path="url(#clip950)" style="stroke:#000000; stroke-linecap:round; stroke-linejoin:round; stroke-width:4; stroke-opacity:1; fill:none" points="1309.55,1423.18 1309.55,1404.28 "></polyline>
<polyline clip-path="url(#clip950)" style="stroke:#000000; stroke-linecap:round; stroke-linejoin:round; stroke-width:4; stroke-opacity:1; fill:none" points="1733.23,1423.18 1733.23,1404.28 "></polyline>
<polyline clip-path="url(#clip950)" style="stroke:#000000; stroke-linecap:round; stroke-linejoin:round; stroke-width:4; stroke-opacity:1; fill:none" points="2293.84,1423.18 2293.84,1404.28 "></polyline>
<path clip-path="url(#clip950)" d="M274.55 1481.64 L282.189 1481.64 L282.189 1455.28 L273.879 1456.95 L273.879 1452.69 L282.143 1451.02 L286.819 1451.02 L286.819 1481.64 L294.458 1481.64 L294.458 1485.58 L274.55 1485.58 L274.55 1481.64 Z" fill="#000000" fill-rule="nonzero" fill-opacity="1"></path><path clip-path="url(#clip950)" d="M314.481 1466.44 Q311.333 1466.44 309.481 1468.59 Q307.652 1470.74 307.652 1474.49 Q307.652 1478.22 309.481 1480.39 Q311.333 1482.55 314.481 1482.55 Q317.629 1482.55 319.458 1480.39 Q321.31 1478.22 321.31 1474.49 Q321.31 1470.74 319.458 1468.59 Q317.629 1466.44 314.481 1466.44 M323.763 1451.78 L323.763 1456.04 Q322.004 1455.21 320.198 1454.77 Q318.416 1454.33 316.657 1454.33 Q312.027 1454.33 309.573 1457.45 Q307.143 1460.58 306.796 1466.9 Q308.161 1464.89 310.222 1463.82 Q312.282 1462.73 314.759 1462.73 Q319.967 1462.73 322.976 1465.9 Q326.009 1469.05 326.009 1474.49 Q326.009 1479.82 322.86 1483.03 Q319.712 1486.25 314.481 1486.25 Q308.485 1486.25 305.314 1481.67 Q302.143 1477.06 302.143 1468.33 Q302.143 1460.14 306.032 1455.28 Q309.921 1450.39 316.472 1450.39 Q318.231 1450.39 320.013 1450.74 Q321.819 1451.09 323.763 1451.78 Z" fill="#000000" fill-rule="nonzero" fill-opacity="1"></path><path clip-path="url(#clip950)" d="M334.11 1451.02 L352.467 1451.02 L352.467 1454.96 L338.393 1454.96 L338.393 1463.43 Q339.411 1463.08 340.43 1462.92 Q341.448 1462.73 342.467 1462.73 Q348.254 1462.73 351.633 1465.9 Q355.013 1469.08 355.013 1474.49 Q355.013 1480.07 351.541 1483.17 Q348.069 1486.25 341.749 1486.25 Q339.573 1486.25 337.305 1485.88 Q335.059 1485.51 332.652 1484.77 L332.652 1480.07 Q334.735 1481.2 336.958 1481.76 Q339.18 1482.32 341.657 1482.32 Q345.661 1482.32 347.999 1480.21 Q350.337 1478.1 350.337 1474.49 Q350.337 1470.88 347.999 1468.77 Q345.661 1466.67 341.657 1466.67 Q339.782 1466.67 337.907 1467.08 Q336.055 1467.5 334.11 1468.38 L334.11 1451.02 Z" fill="#000000" fill-rule="nonzero" fill-opacity="1"></path><path clip-path="url(#clip950)" d="M374.226 1454.1 Q370.615 1454.1 368.786 1457.66 Q366.981 1461.2 366.981 1468.33 Q366.981 1475.44 368.786 1479.01 Q370.615 1482.55 374.226 1482.55 Q377.86 1482.55 379.666 1479.01 Q381.494 1475.44 381.494 1468.33 Q381.494 1461.2 379.666 1457.66 Q377.86 1454.1 374.226 1454.1 M374.226 1450.39 Q380.036 1450.39 383.092 1455 Q386.17 1459.58 386.17 1468.33 Q386.17 1477.06 383.092 1481.67 Q380.036 1486.25 374.226 1486.25 Q368.416 1486.25 365.337 1481.67 Q362.282 1477.06 362.282 1468.33 Q362.282 1459.58 365.337 1455 Q368.416 1450.39 374.226 1450.39 Z" fill="#000000" fill-rule="nonzero" fill-opacity="1"></path><path clip-path="url(#clip950)" d="M843.88 1455.09 L832.075 1473.54 L843.88 1473.54 L843.88 1455.09 M842.653 1451.02 L848.533 1451.02 L848.533 1473.54 L853.463 1473.54 L853.463 1477.43 L848.533 1477.43 L848.533 1485.58 L843.88 1485.58 L843.88 1477.43 L828.278 1477.43 L828.278 1472.92 L842.653 1451.02 Z" fill="#000000" fill-rule="nonzero" fill-opacity="1"></path><path clip-path="url(#clip950)" d="M871.195 1454.1 Q867.584 1454.1 865.755 1457.66 Q863.95 1461.2 863.95 1468.33 Q863.95 1475.44 865.755 1479.01 Q867.584 1482.55 871.195 1482.55 Q874.829 1482.55 876.635 1479.01 Q878.463 1475.44 878.463 1468.33 Q878.463 1461.2 876.635 1457.66 Q874.829 1454.1 871.195 1454.1 M871.195 1450.39 Q877.005 1450.39 880.061 1455 Q883.139 1459.58 883.139 1468.33 Q883.139 1477.06 880.061 1481.67 Q877.005 1486.25 871.195 1486.25 Q865.385 1486.25 862.306 1481.67 Q859.25 1477.06 859.25 1468.33 Q859.25 1459.58 862.306 1455 Q865.385 1450.39 871.195 1450.39 Z" fill="#000000" fill-rule="nonzero" fill-opacity="1"></path><path clip-path="url(#clip950)" d="M891.496 1484.86 L891.496 1480.6 Q893.255 1481.44 895.06 1481.88 Q896.866 1482.32 898.602 1482.32 Q903.232 1482.32 905.662 1479.21 Q908.116 1476.09 908.463 1469.75 Q907.121 1471.74 905.06 1472.8 Q903 1473.87 900.5 1473.87 Q895.315 1473.87 892.283 1470.74 Q889.273 1467.59 889.273 1462.15 Q889.273 1456.83 892.422 1453.61 Q895.57 1450.39 900.801 1450.39 Q906.797 1450.39 909.945 1455 Q913.116 1459.58 913.116 1468.33 Q913.116 1476.51 909.227 1481.39 Q905.361 1486.25 898.81 1486.25 Q897.051 1486.25 895.246 1485.9 Q893.44 1485.56 891.496 1484.86 M900.801 1470.21 Q903.949 1470.21 905.778 1468.06 Q907.63 1465.9 907.63 1462.15 Q907.63 1458.43 905.778 1456.27 Q903.949 1454.1 900.801 1454.1 Q897.653 1454.1 895.801 1456.27 Q893.973 1458.43 893.973 1462.15 Q893.973 1465.9 895.801 1468.06 Q897.653 1470.21 900.801 1470.21 Z" fill="#000000" fill-rule="nonzero" fill-opacity="1"></path><path clip-path="url(#clip950)" d="M931.519 1454.1 Q927.908 1454.1 926.079 1457.66 Q924.273 1461.2 924.273 1468.33 Q924.273 1475.44 926.079 1479.01 Q927.908 1482.55 931.519 1482.55 Q935.153 1482.55 936.958 1479.01 Q938.787 1475.44 938.787 1468.33 Q938.787 1461.2 936.958 1457.66 Q935.153 1454.1 931.519 1454.1 M931.519 1450.39 Q937.329 1450.39 940.384 1455 Q943.463 1459.58 943.463 1468.33 Q943.463 1477.06 940.384 1481.67 Q937.329 1486.25 931.519 1486.25 Q925.708 1486.25 922.63 1481.67 Q919.574 1477.06 919.574 1468.33 Q919.574 1459.58 922.63 1455 Q925.708 1450.39 931.519 1450.39 Z" fill="#000000" fill-rule="nonzero" fill-opacity="1"></path><path clip-path="url(#clip950)" d="M1264.26 1469.17 Q1260.93 1469.17 1259.01 1470.95 Q1257.11 1472.73 1257.11 1475.86 Q1257.11 1478.98 1259.01 1480.77 Q1260.93 1482.55 1264.26 1482.55 Q1267.59 1482.55 1269.52 1480.77 Q1271.44 1478.96 1271.44 1475.86 Q1271.44 1472.73 1269.52 1470.95 Q1267.62 1469.17 1264.26 1469.17 M1259.58 1467.18 Q1256.58 1466.44 1254.89 1464.38 Q1253.22 1462.32 1253.22 1459.35 Q1253.22 1455.21 1256.16 1452.8 Q1259.12 1450.39 1264.26 1450.39 Q1269.42 1450.39 1272.36 1452.8 Q1275.3 1455.21 1275.3 1459.35 Q1275.3 1462.32 1273.61 1464.38 Q1271.95 1466.44 1268.96 1467.18 Q1272.34 1467.96 1274.21 1470.26 Q1276.11 1472.55 1276.11 1475.86 Q1276.11 1480.88 1273.03 1483.57 Q1269.98 1486.25 1264.26 1486.25 Q1258.54 1486.25 1255.46 1483.57 Q1252.41 1480.88 1252.41 1475.86 Q1252.41 1472.55 1254.31 1470.26 Q1256.21 1467.96 1259.58 1467.18 M1257.87 1459.79 Q1257.87 1462.48 1259.54 1463.98 Q1261.23 1465.49 1264.26 1465.49 Q1267.27 1465.49 1268.96 1463.98 Q1270.67 1462.48 1270.67 1459.79 Q1270.67 1457.11 1268.96 1455.6 Q1267.27 1454.1 1264.26 1454.1 Q1261.23 1454.1 1259.54 1455.6 Q1257.87 1457.11 1257.87 1459.79 Z" fill="#000000" fill-rule="nonzero" fill-opacity="1"></path><path clip-path="url(#clip950)" d="M1285.23 1481.64 L1292.87 1481.64 L1292.87 1455.28 L1284.56 1456.95 L1284.56 1452.69 L1292.83 1451.02 L1297.5 1451.02 L1297.5 1481.64 L1305.14 1481.64 L1305.14 1485.58 L1285.23 1485.58 L1285.23 1481.64 Z" fill="#000000" fill-rule="nonzero" fill-opacity="1"></path><path clip-path="url(#clip950)" d="M1313.4 1451.02 L1335.63 1451.02 L1335.63 1453.01 L1323.08 1485.58 L1318.2 1485.58 L1330 1454.96 L1313.4 1454.96 L1313.4 1451.02 Z" fill="#000000" fill-rule="nonzero" fill-opacity="1"></path><path clip-path="url(#clip950)" d="M1354.75 1454.1 Q1351.14 1454.1 1349.31 1457.66 Q1347.5 1461.2 1347.5 1468.33 Q1347.5 1475.44 1349.31 1479.01 Q1351.14 1482.55 1354.75 1482.55 Q1358.38 1482.55 1360.19 1479.01 Q1362.01 1475.44 1362.01 1468.33 Q1362.01 1461.2 1360.19 1457.66 Q1358.38 1454.1 1354.75 1454.1 M1354.75 1450.39 Q1360.56 1450.39 1363.61 1455 Q1366.69 1459.58 1366.69 1468.33 Q1366.69 1477.06 1363.61 1481.67 Q1360.56 1486.25 1354.75 1486.25 Q1348.94 1486.25 1345.86 1481.67 Q1342.8 1477.06 1342.8 1468.33 Q1342.8 1459.58 1345.86 1455 Q1348.94 1450.39 1354.75 1450.39 Z" fill="#000000" fill-rule="nonzero" fill-opacity="1"></path><path clip-path="url(#clip950)" d="M1662.67 1481.64 L1670.31 1481.64 L1670.31 1455.28 L1662 1456.95 L1662 1452.69 L1670.27 1451.02 L1674.94 1451.02 L1674.94 1481.64 L1682.58 1481.64 L1682.58 1485.58 L1662.67 1485.58 L1662.67 1481.64 Z" fill="#000000" fill-rule="nonzero" fill-opacity="1"></path><path clip-path="url(#clip950)" d="M1702.6 1466.44 Q1699.46 1466.44 1697.6 1468.59 Q1695.77 1470.74 1695.77 1474.49 Q1695.77 1478.22 1697.6 1480.39 Q1699.46 1482.55 1702.6 1482.55 Q1705.75 1482.55 1707.58 1480.39 Q1709.43 1478.22 1709.43 1474.49 Q1709.43 1470.74 1707.58 1468.59 Q1705.75 1466.44 1702.6 1466.44 M1711.89 1451.78 L1711.89 1456.04 Q1710.13 1455.21 1708.32 1454.77 Q1706.54 1454.33 1704.78 1454.33 Q1700.15 1454.33 1697.7 1457.45 Q1695.27 1460.58 1694.92 1466.9 Q1696.28 1464.89 1698.34 1463.82 Q1700.4 1462.73 1702.88 1462.73 Q1708.09 1462.73 1711.1 1465.9 Q1714.13 1469.05 1714.13 1474.49 Q1714.13 1479.82 1710.98 1483.03 Q1707.83 1486.25 1702.6 1486.25 Q1696.61 1486.25 1693.44 1481.67 Q1690.27 1477.06 1690.27 1468.33 Q1690.27 1460.14 1694.15 1455.28 Q1698.04 1450.39 1704.59 1450.39 Q1706.35 1450.39 1708.14 1450.74 Q1709.94 1451.09 1711.89 1451.78 Z" fill="#000000" fill-rule="nonzero" fill-opacity="1"></path><path clip-path="url(#clip950)" d="M1736.35 1466.95 Q1739.71 1467.66 1741.58 1469.93 Q1743.48 1472.2 1743.48 1475.53 Q1743.48 1480.65 1739.96 1483.45 Q1736.45 1486.25 1729.96 1486.25 Q1727.79 1486.25 1725.47 1485.81 Q1723.18 1485.39 1720.73 1484.54 L1720.73 1480.02 Q1722.67 1481.16 1724.99 1481.74 Q1727.3 1482.32 1729.83 1482.32 Q1734.22 1482.32 1736.52 1480.58 Q1738.83 1478.84 1738.83 1475.53 Q1738.83 1472.48 1736.68 1470.77 Q1734.55 1469.03 1730.73 1469.03 L1726.7 1469.03 L1726.7 1465.19 L1730.91 1465.19 Q1734.36 1465.19 1736.19 1463.82 Q1738.02 1462.43 1738.02 1459.84 Q1738.02 1457.18 1736.12 1455.77 Q1734.25 1454.33 1730.73 1454.33 Q1728.81 1454.33 1726.61 1454.75 Q1724.41 1455.16 1721.77 1456.04 L1721.77 1451.88 Q1724.43 1451.14 1726.75 1450.77 Q1729.08 1450.39 1731.14 1450.39 Q1736.47 1450.39 1739.57 1452.83 Q1742.67 1455.23 1742.67 1459.35 Q1742.67 1462.22 1741.03 1464.21 Q1739.39 1466.18 1736.35 1466.95 Z" fill="#000000" fill-rule="nonzero" fill-opacity="1"></path><path clip-path="url(#clip950)" d="M1756.38 1481.64 L1772.7 1481.64 L1772.7 1485.58 L1750.75 1485.58 L1750.75 1481.64 Q1753.41 1478.89 1758 1474.26 Q1762.6 1469.61 1763.78 1468.27 Q1766.03 1465.74 1766.91 1464.01 Q1767.81 1462.25 1767.81 1460.56 Q1767.81 1457.8 1765.87 1456.07 Q1763.95 1454.33 1760.84 1454.33 Q1758.64 1454.33 1756.19 1455.09 Q1753.76 1455.86 1750.98 1457.41 L1750.98 1452.69 Q1753.81 1451.55 1756.26 1450.97 Q1758.71 1450.39 1760.75 1450.39 Q1766.12 1450.39 1769.32 1453.08 Q1772.51 1455.77 1772.51 1460.26 Q1772.51 1462.39 1771.7 1464.31 Q1770.91 1466.2 1768.81 1468.8 Q1768.23 1469.47 1765.13 1472.69 Q1762.02 1475.88 1756.38 1481.64 Z" fill="#000000" fill-rule="nonzero" fill-opacity="1"></path><path clip-path="url(#clip950)" d="M1792.51 1454.1 Q1788.9 1454.1 1787.07 1457.66 Q1785.26 1461.2 1785.26 1468.33 Q1785.26 1475.44 1787.07 1479.01 Q1788.9 1482.55 1792.51 1482.55 Q1796.14 1482.55 1797.95 1479.01 Q1799.78 1475.44 1799.78 1468.33 Q1799.78 1461.2 1797.95 1457.66 Q1796.14 1454.1 1792.51 1454.1 M1792.51 1450.39 Q1798.32 1450.39 1801.38 1455 Q1804.45 1459.58 1804.45 1468.33 Q1804.45 1477.06 1801.38 1481.67 Q1798.32 1486.25 1792.51 1486.25 Q1786.7 1486.25 1783.62 1481.67 Q1780.57 1477.06 1780.57 1468.33 Q1780.57 1459.58 1783.62 1455 Q1786.7 1450.39 1792.51 1450.39 Z" fill="#000000" fill-rule="nonzero" fill-opacity="1"></path><path clip-path="url(#clip950)" d="M2236.77 1455.09 L2224.96 1473.54 L2236.77 1473.54 L2236.77 1455.09 M2235.54 1451.02 L2241.42 1451.02 L2241.42 1473.54 L2246.35 1473.54 L2246.35 1477.43 L2241.42 1477.43 L2241.42 1485.58 L2236.77 1485.58 L2236.77 1477.43 L2221.17 1477.43 L2221.17 1472.92 L2235.54 1451.02 Z" fill="#000000" fill-rule="nonzero" fill-opacity="1"></path><path clip-path="url(#clip950)" d="M2264.08 1454.1 Q2260.47 1454.1 2258.64 1457.66 Q2256.84 1461.2 2256.84 1468.33 Q2256.84 1475.44 2258.64 1479.01 Q2260.47 1482.55 2264.08 1482.55 Q2267.72 1482.55 2269.52 1479.01 Q2271.35 1475.44 2271.35 1468.33 Q2271.35 1461.2 2269.52 1457.66 Q2267.72 1454.1 2264.08 1454.1 M2264.08 1450.39 Q2269.89 1450.39 2272.95 1455 Q2276.03 1459.58 2276.03 1468.33 Q2276.03 1477.06 2272.95 1481.67 Q2269.89 1486.25 2264.08 1486.25 Q2258.27 1486.25 2255.2 1481.67 Q2252.14 1477.06 2252.14 1468.33 Q2252.14 1459.58 2255.2 1455 Q2258.27 1450.39 2264.08 1450.39 Z" fill="#000000" fill-rule="nonzero" fill-opacity="1"></path><path clip-path="url(#clip950)" d="M2283.07 1451.02 L2305.29 1451.02 L2305.29 1453.01 L2292.74 1485.58 L2287.86 1485.58 L2299.66 1454.96 L2283.07 1454.96 L2283.07 1451.02 Z" fill="#000000" fill-rule="nonzero" fill-opacity="1"></path><path clip-path="url(#clip950)" d="M2313.23 1451.02 L2335.45 1451.02 L2335.45 1453.01 L2322.9 1485.58 L2318.02 1485.58 L2329.83 1454.96 L2313.23 1454.96 L2313.23 1451.02 Z" fill="#000000" fill-rule="nonzero" fill-opacity="1"></path><path clip-path="url(#clip950)" d="M2354.57 1454.1 Q2350.96 1454.1 2349.13 1457.66 Q2347.32 1461.2 2347.32 1468.33 Q2347.32 1475.44 2349.13 1479.01 Q2350.96 1482.55 2354.57 1482.55 Q2358.2 1482.55 2360.01 1479.01 Q2361.84 1475.44 2361.84 1468.33 Q2361.84 1461.2 2360.01 1457.66 Q2358.2 1454.1 2354.57 1454.1 M2354.57 1450.39 Q2360.38 1450.39 2363.44 1455 Q2366.51 1459.58 2366.51 1468.33 Q2366.51 1477.06 2363.44 1481.67 Q2360.38 1486.25 2354.57 1486.25 Q2348.76 1486.25 2345.68 1481.67 Q2342.63 1477.06 2342.63 1468.33 Q2342.63 1459.58 2345.68 1455 Q2348.76 1450.39 2354.57 1450.39 Z" fill="#000000" fill-rule="nonzero" fill-opacity="1"></path><path clip-path="url(#clip950)" d="M992.072 1524.18 L992.072 1530.96 Q988.826 1527.94 985.134 1526.44 Q981.473 1524.95 977.336 1524.95 Q969.188 1524.95 964.859 1529.95 Q960.53 1534.91 960.53 1544.33 Q960.53 1553.72 964.859 1558.72 Q969.188 1563.68 977.336 1563.68 Q981.473 1563.68 985.134 1562.19 Q988.826 1560.69 992.072 1557.67 L992.072 1564.38 Q988.698 1566.68 984.911 1567.82 Q981.155 1568.97 976.954 1568.97 Q966.164 1568.97 959.957 1562.38 Q953.751 1555.76 953.751 1544.33 Q953.751 1532.87 959.957 1526.28 Q966.164 1519.66 976.954 1519.66 Q981.219 1519.66 984.974 1520.81 Q988.762 1521.92 992.072 1524.18 Z" fill="#000000" fill-rule="nonzero" fill-opacity="1"></path><path clip-path="url(#clip950)" d="M1015.56 1536.5 Q1010.85 1536.5 1008.11 1540.19 Q1005.38 1543.85 1005.38 1550.25 Q1005.38 1556.65 1008.08 1560.34 Q1010.82 1564 1015.56 1564 Q1020.24 1564 1022.98 1560.31 Q1025.71 1556.62 1025.71 1550.25 Q1025.71 1543.92 1022.98 1540.23 Q1020.24 1536.5 1015.56 1536.5 M1015.56 1531.54 Q1023.2 1531.54 1027.56 1536.5 Q1031.92 1541.47 1031.92 1550.25 Q1031.92 1559 1027.56 1564 Q1023.2 1568.97 1015.56 1568.97 Q1007.89 1568.97 1003.53 1564 Q999.202 1559 999.202 1550.25 Q999.202 1541.47 1003.53 1536.5 Q1007.89 1531.54 1015.56 1531.54 Z" fill="#000000" fill-rule="nonzero" fill-opacity="1"></path><path clip-path="url(#clip950)" d="M1072.12 1548.76 L1072.12 1551.62 L1045.19 1551.62 Q1045.58 1557.67 1048.82 1560.85 Q1052.1 1564 1057.93 1564 Q1061.3 1564 1064.45 1563.17 Q1067.63 1562.35 1070.75 1560.69 L1070.75 1566.23 Q1067.6 1567.57 1064.29 1568.27 Q1060.98 1568.97 1057.58 1568.97 Q1049.05 1568.97 1044.05 1564 Q1039.08 1559.04 1039.08 1550.57 Q1039.08 1541.82 1043.79 1536.69 Q1048.54 1531.54 1056.56 1531.54 Q1063.75 1531.54 1067.92 1536.18 Q1072.12 1540.8 1072.12 1548.76 M1066.26 1547.04 Q1066.2 1542.23 1063.56 1539.37 Q1060.95 1536.5 1056.62 1536.5 Q1051.72 1536.5 1048.76 1539.27 Q1045.83 1542.04 1045.39 1547.07 L1066.26 1547.04 Z" fill="#000000" fill-rule="nonzero" fill-opacity="1"></path><path clip-path="url(#clip950)" d="M1099.78 1518.52 L1099.78 1523.39 L1094.18 1523.39 Q1091.03 1523.39 1089.79 1524.66 Q1088.58 1525.93 1088.58 1529.24 L1088.58 1532.4 L1098.22 1532.4 L1098.22 1536.95 L1088.58 1536.95 L1088.58 1568.04 L1082.69 1568.04 L1082.69 1536.95 L1077.09 1536.95 L1077.09 1532.4 L1082.69 1532.4 L1082.69 1529.91 Q1082.69 1523.96 1085.46 1521.26 Q1088.23 1518.52 1094.24 1518.52 L1099.78 1518.52 Z" fill="#000000" fill-rule="nonzero" fill-opacity="1"></path><path clip-path="url(#clip950)" d="M1122.73 1518.52 L1122.73 1523.39 L1117.13 1523.39 Q1113.98 1523.39 1112.73 1524.66 Q1111.52 1525.93 1111.52 1529.24 L1111.52 1532.4 L1121.17 1532.4 L1121.17 1536.95 L1111.52 1536.95 L1111.52 1568.04 L1105.64 1568.04 L1105.64 1536.95 L1100.03 1536.95 L1100.03 1532.4 L1105.64 1532.4 L1105.64 1529.91 Q1105.64 1523.96 1108.41 1521.26 Q1111.17 1518.52 1117.19 1518.52 L1122.73 1518.52 Z" fill="#000000" fill-rule="nonzero" fill-opacity="1"></path><path clip-path="url(#clip950)" d="M1127.63 1532.4 L1133.49 1532.4 L1133.49 1568.04 L1127.63 1568.04 L1127.63 1532.4 M1127.63 1518.52 L1133.49 1518.52 L1133.49 1525.93 L1127.63 1525.93 L1127.63 1518.52 Z" fill="#000000" fill-rule="nonzero" fill-opacity="1"></path><path clip-path="url(#clip950)" d="M1171.39 1533.76 L1171.39 1539.24 Q1168.91 1537.87 1166.4 1537.2 Q1163.91 1536.5 1161.37 1536.5 Q1155.67 1536.5 1152.52 1540.13 Q1149.37 1543.73 1149.37 1550.25 Q1149.37 1556.78 1152.52 1560.4 Q1155.67 1564 1161.37 1564 Q1163.91 1564 1166.4 1563.33 Q1168.91 1562.63 1171.39 1561.26 L1171.39 1566.68 Q1168.94 1567.82 1166.3 1568.39 Q1163.69 1568.97 1160.73 1568.97 Q1152.68 1568.97 1147.94 1563.91 Q1143.19 1558.85 1143.19 1550.25 Q1143.19 1541.53 1147.97 1536.53 Q1152.77 1531.54 1161.11 1531.54 Q1163.82 1531.54 1166.4 1532.11 Q1168.98 1532.65 1171.39 1533.76 Z" fill="#000000" fill-rule="nonzero" fill-opacity="1"></path><path clip-path="url(#clip950)" d="M1181.58 1532.4 L1187.44 1532.4 L1187.44 1568.04 L1181.58 1568.04 L1181.58 1532.4 M1181.58 1518.52 L1187.44 1518.52 L1187.44 1525.93 L1181.58 1525.93 L1181.58 1518.52 Z" fill="#000000" fill-rule="nonzero" fill-opacity="1"></path><path clip-path="url(#clip950)" d="M1230.18 1548.76 L1230.18 1551.62 L1203.25 1551.62 Q1203.64 1557.67 1206.88 1560.85 Q1210.16 1564 1215.99 1564 Q1219.36 1564 1222.51 1563.17 Q1225.69 1562.35 1228.81 1560.69 L1228.81 1566.23 Q1225.66 1567.57 1222.35 1568.27 Q1219.04 1568.97 1215.64 1568.97 Q1207.11 1568.97 1202.11 1564 Q1197.14 1559.04 1197.14 1550.57 Q1197.14 1541.82 1201.85 1536.69 Q1206.6 1531.54 1214.62 1531.54 Q1221.81 1531.54 1225.98 1536.18 Q1230.18 1540.8 1230.18 1548.76 M1224.33 1547.04 Q1224.26 1542.23 1221.62 1539.37 Q1219.01 1536.5 1214.68 1536.5 Q1209.78 1536.5 1206.82 1539.27 Q1203.89 1542.04 1203.45 1547.07 L1224.33 1547.04 Z" fill="#000000" fill-rule="nonzero" fill-opacity="1"></path><path clip-path="url(#clip950)" d="M1269.43 1546.53 L1269.43 1568.04 L1263.57 1568.04 L1263.57 1546.72 Q1263.57 1541.66 1261.6 1539.14 Q1259.62 1536.63 1255.68 1536.63 Q1250.93 1536.63 1248.2 1539.65 Q1245.46 1542.68 1245.46 1547.9 L1245.46 1568.04 L1239.57 1568.04 L1239.57 1532.4 L1245.46 1532.4 L1245.46 1537.93 Q1247.56 1534.72 1250.39 1533.13 Q1253.26 1531.54 1256.98 1531.54 Q1263.12 1531.54 1266.28 1535.36 Q1269.43 1539.14 1269.43 1546.53 Z" fill="#000000" fill-rule="nonzero" fill-opacity="1"></path><path clip-path="url(#clip950)" d="M1286.9 1522.27 L1286.9 1532.4 L1298.96 1532.4 L1298.96 1536.95 L1286.9 1536.95 L1286.9 1556.3 Q1286.9 1560.66 1288.08 1561.9 Q1289.29 1563.14 1292.95 1563.14 L1298.96 1563.14 L1298.96 1568.04 L1292.95 1568.04 Q1286.17 1568.04 1283.59 1565.53 Q1281.01 1562.98 1281.01 1556.3 L1281.01 1536.95 L1276.71 1536.95 L1276.71 1532.4 L1281.01 1532.4 L1281.01 1522.27 L1286.9 1522.27 Z" fill="#000000" fill-rule="nonzero" fill-opacity="1"></path><path clip-path="url(#clip950)" d="M1327.64 1520.52 L1337.22 1520.52 L1349.35 1552.86 L1361.54 1520.52 L1371.12 1520.52 L1371.12 1568.04 L1364.85 1568.04 L1364.85 1526.32 L1352.59 1558.91 L1346.13 1558.91 L1333.88 1526.32 L1333.88 1568.04 L1327.64 1568.04 L1327.64 1520.52 Z" fill="#000000" fill-rule="nonzero" fill-opacity="1"></path><path clip-path="url(#clip950)" d="M1399.83 1550.12 Q1392.73 1550.12 1389.99 1551.75 Q1387.26 1553.37 1387.26 1557.29 Q1387.26 1560.4 1389.29 1562.25 Q1391.36 1564.07 1394.89 1564.07 Q1399.76 1564.07 1402.69 1560.63 Q1405.65 1557.16 1405.65 1551.43 L1405.65 1550.12 L1399.83 1550.12 M1411.51 1547.71 L1411.51 1568.04 L1405.65 1568.04 L1405.65 1562.63 Q1403.65 1565.88 1400.66 1567.44 Q1397.66 1568.97 1393.33 1568.97 Q1387.86 1568.97 1384.61 1565.91 Q1381.4 1562.82 1381.4 1557.67 Q1381.4 1551.65 1385.41 1548.6 Q1389.45 1545.54 1397.44 1545.54 L1405.65 1545.54 L1405.65 1544.97 Q1405.65 1540.93 1402.98 1538.73 Q1400.34 1536.5 1395.53 1536.5 Q1392.48 1536.5 1389.58 1537.23 Q1386.68 1537.97 1384.01 1539.43 L1384.01 1534.02 Q1387.22 1532.78 1390.25 1532.17 Q1393.27 1531.54 1396.14 1531.54 Q1403.87 1531.54 1407.69 1535.55 Q1411.51 1539.56 1411.51 1547.71 Z" fill="#000000" fill-rule="nonzero" fill-opacity="1"></path><path clip-path="url(#clip950)" d="M1429.36 1522.27 L1429.36 1532.4 L1441.43 1532.4 L1441.43 1536.95 L1429.36 1536.95 L1429.36 1556.3 Q1429.36 1560.66 1430.54 1561.9 Q1431.75 1563.14 1435.41 1563.14 L1441.43 1563.14 L1441.43 1568.04 L1435.41 1568.04 Q1428.63 1568.04 1426.05 1565.53 Q1423.48 1562.98 1423.48 1556.3 L1423.48 1536.95 L1419.18 1536.95 L1419.18 1532.4 L1423.48 1532.4 L1423.48 1522.27 L1429.36 1522.27 Z" fill="#000000" fill-rule="nonzero" fill-opacity="1"></path><path clip-path="url(#clip950)" d="M1469.79 1537.87 Q1468.8 1537.3 1467.62 1537.04 Q1466.48 1536.76 1465.08 1536.76 Q1460.11 1536.76 1457.44 1540 Q1454.8 1543.22 1454.8 1549.27 L1454.8 1568.04 L1448.91 1568.04 L1448.91 1532.4 L1454.8 1532.4 L1454.8 1537.93 Q1456.64 1534.69 1459.6 1533.13 Q1462.56 1531.54 1466.79 1531.54 Q1467.4 1531.54 1468.13 1531.63 Q1468.86 1531.7 1469.75 1531.85 L1469.79 1537.87 Z" fill="#000000" fill-rule="nonzero" fill-opacity="1"></path><path clip-path="url(#clip950)" d="M1475.93 1532.4 L1481.79 1532.4 L1481.79 1568.04 L1475.93 1568.04 L1475.93 1532.4 M1475.93 1518.52 L1481.79 1518.52 L1481.79 1525.93 L1475.93 1525.93 L1475.93 1518.52 Z" fill="#000000" fill-rule="nonzero" fill-opacity="1"></path><path clip-path="url(#clip950)" d="M1523.67 1532.4 L1510.78 1549.74 L1524.34 1568.04 L1517.43 1568.04 L1507.06 1554.04 L1496.68 1568.04 L1489.77 1568.04 L1503.62 1549.39 L1490.95 1532.4 L1497.86 1532.4 L1507.31 1545.1 L1516.77 1532.4 L1523.67 1532.4 Z" fill="#000000" fill-rule="nonzero" fill-opacity="1"></path><path clip-path="url(#clip950)" d="M1576.06 1533.45 L1576.06 1538.98 Q1573.58 1537.71 1570.91 1537.07 Q1568.23 1536.44 1565.37 1536.44 Q1561.01 1536.44 1558.81 1537.77 Q1556.65 1539.11 1556.65 1541.79 Q1556.65 1543.82 1558.21 1545 Q1559.77 1546.15 1564.48 1547.2 L1566.48 1547.64 Q1572.72 1548.98 1575.33 1551.43 Q1577.97 1553.85 1577.97 1558.21 Q1577.97 1563.17 1574.03 1566.07 Q1570.11 1568.97 1563.24 1568.97 Q1560.37 1568.97 1557.25 1568.39 Q1554.16 1567.85 1550.73 1566.74 L1550.73 1560.69 Q1553.97 1562.38 1557.12 1563.24 Q1560.28 1564.07 1563.36 1564.07 Q1567.5 1564.07 1569.73 1562.66 Q1571.96 1561.23 1571.96 1558.65 Q1571.96 1556.27 1570.33 1554.99 Q1568.74 1553.72 1563.3 1552.54 L1561.26 1552.07 Q1555.82 1550.92 1553.4 1548.56 Q1550.98 1546.18 1550.98 1542.04 Q1550.98 1537.01 1554.55 1534.27 Q1558.11 1531.54 1564.67 1531.54 Q1567.91 1531.54 1570.78 1532.01 Q1573.64 1532.49 1576.06 1533.45 Z" fill="#000000" fill-rule="nonzero" fill-opacity="1"></path><path clip-path="url(#clip950)" d="M1587.3 1532.4 L1593.15 1532.4 L1593.15 1568.04 L1587.3 1568.04 L1587.3 1532.4 M1587.3 1518.52 L1593.15 1518.52 L1593.15 1525.93 L1587.3 1525.93 L1587.3 1518.52 Z" fill="#000000" fill-rule="nonzero" fill-opacity="1"></path><path clip-path="url(#clip950)" d="M1602.86 1532.4 L1630.68 1532.4 L1630.68 1537.74 L1608.65 1563.37 L1630.68 1563.37 L1630.68 1568.04 L1602.07 1568.04 L1602.07 1562.7 L1624.09 1537.07 L1602.86 1537.07 L1602.86 1532.4 Z" fill="#000000" fill-rule="nonzero" fill-opacity="1"></path><path clip-path="url(#clip950)" d="M1670.12 1548.76 L1670.12 1551.62 L1643.19 1551.62 Q1643.57 1557.67 1646.82 1560.85 Q1650.1 1564 1655.92 1564 Q1659.29 1564 1662.44 1563.17 Q1665.63 1562.35 1668.75 1560.69 L1668.75 1566.23 Q1665.6 1567.57 1662.29 1568.27 Q1658.98 1568.97 1655.57 1568.97 Q1647.04 1568.97 1642.04 1564 Q1637.08 1559.04 1637.08 1550.57 Q1637.08 1541.82 1641.79 1536.69 Q1646.53 1531.54 1654.55 1531.54 Q1661.74 1531.54 1665.91 1536.18 Q1670.12 1540.8 1670.12 1548.76 M1664.26 1547.04 Q1664.2 1542.23 1661.55 1539.37 Q1658.94 1536.5 1654.61 1536.5 Q1649.71 1536.5 1646.75 1539.27 Q1643.83 1542.04 1643.38 1547.07 L1664.26 1547.04 Z" fill="#000000" fill-rule="nonzero" fill-opacity="1"></path><polyline clip-path="url(#clip952)" style="stroke:#000000; stroke-linecap:round; stroke-linejoin:round; stroke-width:2; stroke-opacity:0.1; fill:none" points="271.11,1202.29 2352.76,1202.29 "></polyline>
<polyline clip-path="url(#clip952)" style="stroke:#000000; stroke-linecap:round; stroke-linejoin:round; stroke-width:2; stroke-opacity:0.1; fill:none" points="271.11,962.97 2352.76,962.97 "></polyline>
<polyline clip-path="url(#clip952)" style="stroke:#000000; stroke-linecap:round; stroke-linejoin:round; stroke-width:2; stroke-opacity:0.1; fill:none" points="271.11,723.65 2352.76,723.65 "></polyline>
<polyline clip-path="url(#clip952)" style="stroke:#000000; stroke-linecap:round; stroke-linejoin:round; stroke-width:2; stroke-opacity:0.1; fill:none" points="271.11,484.33 2352.76,484.33 "></polyline>
<polyline clip-path="url(#clip952)" style="stroke:#000000; stroke-linecap:round; stroke-linejoin:round; stroke-width:2; stroke-opacity:0.1; fill:none" points="271.11,245.01 2352.76,245.01 "></polyline>
<polyline clip-path="url(#clip950)" style="stroke:#000000; stroke-linecap:round; stroke-linejoin:round; stroke-width:4; stroke-opacity:1; fill:none" points="271.11,1423.18 271.11,123.472 "></polyline>
<polyline clip-path="url(#clip950)" style="stroke:#000000; stroke-linecap:round; stroke-linejoin:round; stroke-width:4; stroke-opacity:1; fill:none" points="271.11,1202.29 290.008,1202.29 "></polyline>
<polyline clip-path="url(#clip950)" style="stroke:#000000; stroke-linecap:round; stroke-linejoin:round; stroke-width:4; stroke-opacity:1; fill:none" points="271.11,962.97 290.008,962.97 "></polyline>
<polyline clip-path="url(#clip950)" style="stroke:#000000; stroke-linecap:round; stroke-linejoin:round; stroke-width:4; stroke-opacity:1; fill:none" points="271.11,723.65 290.008,723.65 "></polyline>
<polyline clip-path="url(#clip950)" style="stroke:#000000; stroke-linecap:round; stroke-linejoin:round; stroke-width:4; stroke-opacity:1; fill:none" points="271.11,484.33 290.008,484.33 "></polyline>
<polyline clip-path="url(#clip950)" style="stroke:#000000; stroke-linecap:round; stroke-linejoin:round; stroke-width:4; stroke-opacity:1; fill:none" points="271.11,245.01 290.008,245.01 "></polyline>
<path clip-path="url(#clip950)" d="M169.972 1215.63 L177.611 1215.63 L177.611 1189.27 L169.3 1190.94 L169.3 1186.68 L177.564 1185.01 L182.24 1185.01 L182.24 1215.63 L189.879 1215.63 L189.879 1219.57 L169.972 1219.57 L169.972 1215.63 Z" fill="#000000" fill-rule="nonzero" fill-opacity="1"></path><path clip-path="url(#clip950)" d="M199.323 1213.69 L204.208 1213.69 L204.208 1219.57 L199.323 1219.57 L199.323 1213.69 Z" fill="#000000" fill-rule="nonzero" fill-opacity="1"></path><path clip-path="url(#clip950)" d="M215.203 1215.63 L222.842 1215.63 L222.842 1189.27 L214.532 1190.94 L214.532 1186.68 L222.795 1185.01 L227.471 1185.01 L227.471 1215.63 L235.11 1215.63 L235.11 1219.57 L215.203 1219.57 L215.203 1215.63 Z" fill="#000000" fill-rule="nonzero" fill-opacity="1"></path><path clip-path="url(#clip950)" d="M170.342 976.315 L177.981 976.315 L177.981 949.949 L169.671 951.616 L169.671 947.357 L177.935 945.69 L182.611 945.69 L182.611 976.315 L190.249 976.315 L190.249 980.25 L170.342 980.25 L170.342 976.315 Z" fill="#000000" fill-rule="nonzero" fill-opacity="1"></path><path clip-path="url(#clip950)" d="M199.694 974.37 L204.578 974.37 L204.578 980.25 L199.694 980.25 L199.694 974.37 Z" fill="#000000" fill-rule="nonzero" fill-opacity="1"></path><path clip-path="url(#clip950)" d="M218.791 976.315 L235.11 976.315 L235.11 980.25 L213.166 980.25 L213.166 976.315 Q215.828 973.56 220.411 968.931 Q225.018 964.278 226.198 962.935 Q228.444 960.412 229.323 958.676 Q230.226 956.917 230.226 955.227 Q230.226 952.472 228.282 950.736 Q226.36 949 223.258 949 Q221.059 949 218.606 949.764 Q216.175 950.528 213.397 952.079 L213.397 947.357 Q216.221 946.222 218.675 945.644 Q221.129 945.065 223.166 945.065 Q228.536 945.065 231.731 947.75 Q234.925 950.435 234.925 954.926 Q234.925 957.056 234.115 958.977 Q233.328 960.875 231.221 963.468 Q230.643 964.139 227.541 967.357 Q224.439 970.551 218.791 976.315 Z" fill="#000000" fill-rule="nonzero" fill-opacity="1"></path><path clip-path="url(#clip950)" d="M169.393 736.995 L177.032 736.995 L177.032 710.629 L168.722 712.296 L168.722 708.037 L176.986 706.37 L181.661 706.37 L181.661 736.995 L189.3 736.995 L189.3 740.93 L169.393 740.93 L169.393 736.995 Z" fill="#000000" fill-rule="nonzero" fill-opacity="1"></path><path clip-path="url(#clip950)" d="M198.745 735.05 L203.629 735.05 L203.629 740.93 L198.745 740.93 L198.745 735.05 Z" fill="#000000" fill-rule="nonzero" fill-opacity="1"></path><path clip-path="url(#clip950)" d="M227.981 722.296 Q231.337 723.013 233.212 725.282 Q235.11 727.55 235.11 730.884 Q235.11 735.999 231.592 738.8 Q228.073 741.601 221.592 741.601 Q219.416 741.601 217.101 741.161 Q214.809 740.745 212.356 739.888 L212.356 735.374 Q214.3 736.509 216.615 737.087 Q218.93 737.666 221.453 737.666 Q225.851 737.666 228.143 735.93 Q230.457 734.194 230.457 730.884 Q230.457 727.828 228.305 726.115 Q226.175 724.379 222.356 724.379 L218.328 724.379 L218.328 720.537 L222.541 720.537 Q225.99 720.537 227.819 719.171 Q229.647 717.782 229.647 715.189 Q229.647 712.527 227.749 711.115 Q225.874 709.68 222.356 709.68 Q220.434 709.68 218.235 710.097 Q216.036 710.513 213.397 711.393 L213.397 707.226 Q216.059 706.486 218.374 706.115 Q220.712 705.745 222.772 705.745 Q228.096 705.745 231.198 708.175 Q234.3 710.583 234.3 714.703 Q234.3 717.574 232.657 719.564 Q231.013 721.532 227.981 722.296 Z" fill="#000000" fill-rule="nonzero" fill-opacity="1"></path><path clip-path="url(#clip950)" d="M168.259 497.675 L175.898 497.675 L175.898 471.309 L167.587 472.976 L167.587 468.716 L175.851 467.05 L180.527 467.05 L180.527 497.675 L188.166 497.675 L188.166 501.61 L168.259 501.61 L168.259 497.675 Z" fill="#000000" fill-rule="nonzero" fill-opacity="1"></path><path clip-path="url(#clip950)" d="M197.61 495.73 L202.495 495.73 L202.495 501.61 L197.61 501.61 L197.61 495.73 Z" fill="#000000" fill-rule="nonzero" fill-opacity="1"></path><path clip-path="url(#clip950)" d="M225.527 471.124 L213.721 489.573 L225.527 489.573 L225.527 471.124 M224.3 467.05 L230.18 467.05 L230.18 489.573 L235.11 489.573 L235.11 493.462 L230.18 493.462 L230.18 501.61 L225.527 501.61 L225.527 493.462 L209.925 493.462 L209.925 488.948 L224.3 467.05 Z" fill="#000000" fill-rule="nonzero" fill-opacity="1"></path><path clip-path="url(#clip950)" d="M169.74 258.355 L177.379 258.355 L177.379 231.989 L169.069 233.656 L169.069 229.396 L177.333 227.73 L182.009 227.73 L182.009 258.355 L189.648 258.355 L189.648 262.29 L169.74 262.29 L169.74 258.355 Z" fill="#000000" fill-rule="nonzero" fill-opacity="1"></path><path clip-path="url(#clip950)" d="M199.092 256.41 L203.976 256.41 L203.976 262.29 L199.092 262.29 L199.092 256.41 Z" fill="#000000" fill-rule="nonzero" fill-opacity="1"></path><path clip-path="url(#clip950)" d="M214.208 227.73 L232.564 227.73 L232.564 231.665 L218.49 231.665 L218.49 240.137 Q219.508 239.79 220.527 239.628 Q221.545 239.443 222.564 239.443 Q228.351 239.443 231.731 242.614 Q235.11 245.785 235.11 251.202 Q235.11 256.781 231.638 259.882 Q228.166 262.961 221.846 262.961 Q219.671 262.961 217.402 262.591 Q215.157 262.22 212.749 261.48 L212.749 256.781 Q214.833 257.915 217.055 258.47 Q219.277 259.026 221.754 259.026 Q225.758 259.026 228.096 256.919 Q230.434 254.813 230.434 251.202 Q230.434 247.591 228.096 245.484 Q225.758 243.378 221.754 243.378 Q219.879 243.378 218.004 243.794 Q216.152 244.211 214.208 245.091 L214.208 227.73 Z" fill="#000000" fill-rule="nonzero" fill-opacity="1"></path><path clip-path="url(#clip950)" d="M86.8038 1016.07 L73.5994 1016.07 Q72.8587 1016.07 72.6011 1016.04 Q72.3434 1016.01 72.1502 1015.82 Q71.9569 1015.62 71.9569 1015.24 Q71.9569 1014.5 72.6333 1014.43 Q79.1711 1014.24 82.7781 1010.34 Q86.353 1006.51 86.353 999.939 Q86.353 995.977 83.5188 993.53 Q80.6525 991.082 76.9166 991.082 Q73.3418 991.082 70.8297 993.143 Q69.7025 994.013 68.994 995.108 Q68.2533 996.17 68.0278 996.847 Q67.8024 997.491 67.4803 998.747 Q65.5158 1006.93 65.2903 1007.44 Q63.9699 1011.34 60.6527 1013.72 Q57.3033 1016.07 53.2131 1016.07 Q47.9314 1016.07 44.1955 1012.37 Q40.4274 1008.63 40.4274 1003.22 Q40.4274 1000.52 41.297 998.264 Q42.1343 995.977 42.9073 995.043 Q43.6802 994.109 45.065 992.66 L41.297 990.373 Q40.4274 989.858 40.4274 989.375 Q40.4274 988.86 40.7495 988.763 Q41.0393 988.634 42.0055 988.634 L55.2743 988.634 Q56.015 988.634 56.2727 988.666 Q56.5303 988.699 56.6914 988.924 Q56.8524 989.117 56.8524 989.504 Q56.8524 990.148 56.0795 990.309 Q42.2953 992.145 42.2953 1003.16 Q42.2953 1006.93 44.8396 1009.41 Q47.3517 1011.85 50.9265 1011.85 Q53.825 1011.85 56.2083 1010.05 Q58.5593 1008.25 59.3 1005.19 L61.329 996.75 Q62.3274 992.531 66.0633 989.697 Q69.7991 986.863 74.6622 986.863 Q80.2661 986.863 84.324 990.534 Q88.3819 994.174 88.3819 999.874 Q88.3819 1003.96 87.0293 1007.12 Q85.6766 1010.28 83.7765 1011.98 Q85.9665 1013.3 87.1903 1014.17 L87.5124 1014.37 Q88.3819 1014.88 88.3819 1015.37 Q88.3819 1015.88 88.0599 1015.98 Q87.7378 1016.07 86.8038 1016.07 Z" fill="#000000" fill-rule="nonzero" fill-opacity="1"></path><path clip-path="url(#clip950)" d="M97.6894 982.213 Q97.6894 978.703 97.2385 977.897 Q96.8199 977.06 94.7265 977.06 L63.8411 977.06 Q61.6511 977.06 61.1036 977.897 Q60.5561 978.703 60.5561 982.213 L58.4949 982.213 L57.7864 972.712 L62.1342 972.712 Q57.7864 968.751 57.7864 963.469 Q57.7864 957.865 62.1342 953.775 Q66.4819 949.685 72.6977 949.685 Q78.9778 949.685 83.3256 954.033 Q87.6734 958.381 87.6734 964.403 Q87.6734 967.688 85.9987 969.91 Q84.2918 972.1 83.0358 972.519 L83.6477 972.519 L94.7265 972.519 Q96.8521 972.519 97.2707 971.682 Q97.6894 970.844 97.6894 967.366 L99.7184 967.366 Q99.5252 974.29 99.5252 974.806 Q99.5252 975.45 99.7184 982.213 L97.6894 982.213 M79.4287 972.519 Q80.4271 972.519 80.7813 972.39 Q81.1356 972.229 82.1984 971.585 Q86.1919 968.976 86.1919 964.725 Q86.1919 964.693 86.1919 964.661 Q86.1919 960.893 82.3594 958.026 Q78.4947 955.16 72.6977 955.16 Q67.1583 955.16 63.2936 957.769 Q59.4289 960.377 59.4289 963.984 Q59.4289 966.561 60.8137 968.815 Q62.1986 971.07 64.7106 972.519 L79.4287 972.519 Z" fill="#000000" fill-rule="nonzero" fill-opacity="1"></path><path clip-path="url(#clip950)" d="M72.4078 940.696 Q66.1921 940.696 61.7799 936.703 Q57.3677 932.709 57.3677 926.977 Q57.3677 921.18 61.1358 918.184 Q64.9039 915.157 70.3144 915.157 Q71.3128 915.157 71.5061 915.415 Q71.6993 915.672 71.6993 916.8 L71.6993 935.221 Q78.4303 935.221 81.5865 933.225 Q85.9987 930.455 85.9987 925.785 Q85.9987 925.141 85.8699 924.368 Q85.7411 923.595 85.1936 922.017 Q84.6138 920.439 83.1002 919.054 Q81.5865 917.669 79.2033 916.864 Q78.2693 916.671 78.3015 916.027 Q78.3015 915.157 79.0744 915.157 Q79.6541 915.157 80.9746 915.801 Q82.2628 916.413 83.8087 917.605 Q85.3546 918.796 86.514 921.115 Q87.6734 923.402 87.6734 926.171 Q87.6734 931.968 83.2934 936.348 Q78.8812 940.696 72.4078 940.696 M70.3144 935.157 L70.3144 919.505 Q68.9296 919.505 67.3837 919.762 Q65.8378 919.988 63.7122 920.696 Q61.5544 921.373 60.2018 922.983 Q58.8492 924.593 58.8492 926.977 Q58.8492 928.039 59.3 929.199 Q59.7509 930.326 60.8459 931.711 Q61.9409 933.096 64.4208 934.062 Q66.9006 935.028 70.3144 935.157 Z" fill="#000000" fill-rule="nonzero" fill-opacity="1"></path><path clip-path="url(#clip950)" d="M72.4078 911.701 Q66.1921 911.701 61.7799 907.707 Q57.3677 903.714 57.3677 897.981 Q57.3677 892.184 61.1358 889.189 Q64.9039 886.161 70.3144 886.161 Q71.3128 886.161 71.5061 886.419 Q71.6993 886.677 71.6993 887.804 L71.6993 906.226 Q78.4303 906.226 81.5865 904.229 Q85.9987 901.459 85.9987 896.789 Q85.9987 896.145 85.8699 895.372 Q85.7411 894.599 85.1936 893.021 Q84.6138 891.443 83.1002 890.058 Q81.5865 888.673 79.2033 887.868 Q78.2693 887.675 78.3015 887.031 Q78.3015 886.161 79.0744 886.161 Q79.6541 886.161 80.9746 886.805 Q82.2628 887.417 83.8087 888.609 Q85.3546 889.801 86.514 892.119 Q87.6734 894.406 87.6734 897.176 Q87.6734 902.973 83.2934 907.353 Q78.8812 911.701 72.4078 911.701 M70.3144 906.161 L70.3144 890.509 Q68.9296 890.509 67.3837 890.767 Q65.8378 890.992 63.7122 891.701 Q61.5544 892.377 60.2018 893.987 Q58.8492 895.598 58.8492 897.981 Q58.8492 899.044 59.3 900.203 Q59.7509 901.33 60.8459 902.715 Q61.9409 904.1 64.4208 905.066 Q66.9006 906.032 70.3144 906.161 Z" fill="#000000" fill-rule="nonzero" fill-opacity="1"></path><path clip-path="url(#clip950)" d="M72.7621 882.705 Q66.4819 882.705 62.1342 878.325 Q57.7864 873.945 57.7864 868.019 Q57.7864 862.995 61.8765 859.71 L47.6093 859.71 Q45.1617 859.71 44.5498 860.579 Q43.9378 861.417 43.9378 864.831 L41.8767 864.831 L41.1681 855.33 L81.2 855.33 Q83.6477 855.33 84.2918 854.492 Q84.9037 853.623 84.9037 850.209 L86.9327 850.209 L87.6734 859.903 L83.2934 859.903 Q87.6412 863.317 87.6734 868.727 Q87.6734 874.396 83.3256 878.55 Q78.9778 882.705 72.7621 882.705 M72.8265 877.23 Q78.9456 877.23 81.973 875.33 Q86.1919 872.689 86.1919 868.405 Q86.1919 863.51 81.5865 860.612 Q80.4593 859.871 79.1388 859.903 L65.6124 859.903 Q64.2919 859.903 63.1969 860.612 Q59.2356 863.317 59.2356 867.729 Q59.2356 872.335 63.4546 875.201 Q66.6108 877.23 72.8265 877.23 Z" fill="#000000" fill-rule="nonzero" fill-opacity="1"></path><path clip-path="url(#clip950)" d="M60.5561 829.037 L58.4949 829.037 L57.7864 819.343 L79.6863 819.343 Q81.2644 819.343 82.1984 819.214 Q83.1002 819.086 84.163 818.57 Q85.2258 818.023 85.7088 816.799 Q86.1919 815.543 86.1919 813.546 Q86.1919 809.971 83.2612 807.781 Q80.3305 805.559 75.9827 805.559 L64.2275 805.559 Q61.7799 805.559 61.168 806.429 Q60.5561 807.298 60.5561 810.712 L58.4949 810.712 L57.7864 801.018 L81.2 801.018 Q83.6477 801.018 84.2918 800.181 Q84.9037 799.311 84.9037 795.865 L86.9327 795.865 L87.6734 805.366 L81.7153 805.366 Q87.6412 808.136 87.6734 813.868 Q87.6734 816.767 86.9327 818.764 Q86.1919 820.728 85.2902 821.727 Q84.3562 822.725 82.5849 823.272 Q80.8136 823.788 79.7186 823.852 Q78.6236 823.917 76.498 823.917 L66.6108 823.917 Q62.1342 823.917 61.3612 824.561 Q60.5561 825.205 60.5561 829.037 Z" fill="#000000" fill-rule="nonzero" fill-opacity="1"></path><path clip-path="url(#clip950)" d="M97.6894 797.289 Q97.6894 793.778 97.2385 792.973 Q96.8199 792.136 94.7265 792.136 L63.8411 792.136 Q61.6511 792.136 61.1036 792.973 Q60.5561 793.778 60.5561 797.289 L58.4949 797.289 L57.7864 787.788 L62.1342 787.788 Q57.7864 783.827 57.7864 778.545 Q57.7864 772.941 62.1342 768.851 Q66.4819 764.761 72.6977 764.761 Q78.9778 764.761 83.3256 769.108 Q87.6734 773.456 87.6734 779.479 Q87.6734 782.764 85.9987 784.986 Q84.2918 787.176 83.0358 787.595 L83.6477 787.595 L94.7265 787.595 Q96.8521 787.595 97.2707 786.757 Q97.6894 785.92 97.6894 782.442 L99.7184 782.442 Q99.5252 789.366 99.5252 789.881 Q99.5252 790.525 99.7184 797.289 L97.6894 797.289 M79.4287 787.595 Q80.4271 787.595 80.7813 787.466 Q81.1356 787.305 82.1984 786.661 Q86.1919 784.052 86.1919 779.801 Q86.1919 779.769 86.1919 779.736 Q86.1919 775.968 82.3594 773.102 Q78.4947 770.236 72.6977 770.236 Q67.1583 770.236 63.2936 772.844 Q59.4289 775.453 59.4289 779.06 Q59.4289 781.637 60.8137 783.891 Q62.1986 786.145 64.7106 787.595 L79.4287 787.595 Z" fill="#000000" fill-rule="nonzero" fill-opacity="1"></path><path clip-path="url(#clip950)" d="M8.63719 687.283 Q9.53895 687.283 9.76439 687.702 Q9.95763 688.121 9.95763 689.28 L9.95763 695.464 L29.41 700.359 Q31.1169 700.746 32.5661 700.746 Q34.1764 700.746 34.885 700.262 Q35.5935 699.747 35.5935 698.684 Q35.5935 696.591 33.6933 694.337 Q31.7932 692.05 27.1556 690.118 Q26.5436 689.86 26.4148 689.731 Q26.2538 689.57 26.2538 689.151 Q26.2538 688.346 26.8979 688.346 Q27.1234 688.346 28.1539 688.797 Q29.1845 689.216 30.6982 690.15 Q32.2119 691.052 33.6289 692.243 Q35.046 693.403 36.0766 695.174 Q37.075 696.945 37.075 698.845 Q37.075 701.518 35.3681 703.225 Q33.6611 704.9 30.9881 704.9 Q30.1185 704.9 27.3488 704.224 Q24.5469 703.547 9.95763 699.876 L9.95763 705.705 Q9.95763 706.51 9.92542 706.832 Q9.89322 707.122 9.73219 707.348 Q9.53895 707.541 9.15248 707.541 Q8.54057 707.541 8.28293 707.283 Q7.99307 707.026 7.96087 706.704 Q7.89645 706.349 7.89645 705.544 L7.89645 699.361 L-2.57045 696.784 Q-3.60104 696.527 -4.18074 695.882 Q-4.79265 695.206 -4.85707 694.82 Q-4.95368 694.433 -4.95368 694.143 Q-4.95368 693.274 -4.4706 692.758 Q-4.01971 692.243 -3.18236 692.243 Q-2.73148 692.243 7.89645 694.948 L7.89645 689.151 Q7.89645 688.411 7.92866 688.121 Q7.96087 687.799 8.1219 687.541 Q8.28293 687.283 8.63719 687.283 Z" fill="#000000" fill-rule="nonzero" fill-opacity="1"></path><path clip-path="url(#clip950)" d="M48.8997 662.877 Q49.1026 662.696 49.3055 662.696 Q49.5084 662.696 50.0946 663.147 Q50.6807 663.575 51.4697 664.5 Q52.2588 665.424 53.0027 666.619 Q53.7467 667.814 54.2427 669.572 Q54.7612 671.331 54.7612 673.179 Q54.7612 676.493 52.3941 678.477 Q50.0269 680.438 46.3973 680.438 Q44.0753 680.438 42.0238 679.672 Q39.9497 678.905 38.4843 677.666 Q37.019 676.403 35.9594 674.825 Q34.8773 673.224 34.3588 671.556 Q33.8403 669.888 33.8403 668.332 Q33.8403 666.055 34.99 664.725 Q36.1398 663.395 37.7629 663.395 Q38.1462 663.395 38.6196 663.508 Q39.093 663.598 39.837 663.914 Q40.5809 664.207 41.3249 664.973 Q42.0463 665.74 42.5197 666.867 Q43.5793 669.369 43.5793 673.923 L43.5793 676.381 Q46.4875 677.102 48.3812 677.102 Q49.1252 677.102 49.8917 676.967 Q50.6356 676.831 51.5825 676.471 Q52.5293 676.087 53.138 675.231 Q53.7242 674.352 53.7242 673.089 Q53.7242 672.683 53.7016 672.255 Q53.6791 671.804 53.4311 670.677 Q53.1831 669.527 52.7548 668.513 Q52.3264 667.498 51.4021 666.213 Q50.4553 664.906 49.1702 663.869 Q48.6968 663.508 48.6968 663.26 Q48.6968 663.057 48.8997 662.877 M37.7629 664.928 Q36.523 664.928 35.6889 665.852 Q34.8547 666.754 34.8547 668.332 Q34.8547 668.828 34.9675 669.437 Q35.0802 670.046 35.5536 671.06 Q36.027 672.052 36.8161 672.931 Q37.5826 673.811 39.093 674.69 Q40.5809 675.569 42.5648 676.087 L42.5648 674.194 Q42.5648 673.54 42.5648 673.067 Q42.5423 672.593 42.4521 671.556 Q42.3619 670.497 42.2041 669.73 Q42.0238 668.964 41.6631 667.994 Q41.3024 667.025 40.8289 666.416 Q40.333 665.785 39.5439 665.356 Q38.7549 664.928 37.7629 664.928 Z" fill="#000000" fill-rule="nonzero" fill-opacity="1"></path><path clip-path="url(#clip950)" d="M36.8837 637.153 Q38.1462 637.153 38.8676 637.942 Q39.5665 638.731 39.5665 639.633 Q39.5665 640.49 39.0705 640.941 Q38.5745 641.391 37.9433 641.391 Q37.0866 641.391 36.3427 640.76 Q35.5987 640.129 35.4409 639.182 Q34.8547 640.106 34.8547 641.482 Q34.8547 642.383 35.3282 643.172 Q35.8016 643.939 36.4103 644.412 Q37.019 644.863 37.8982 645.269 Q38.7549 645.652 39.2734 645.81 Q39.7694 645.945 40.3104 646.058 L46.6228 647.636 Q49.6211 648.403 50.6807 648.403 Q51.9883 648.403 52.8675 647.771 Q53.7242 647.14 53.7242 645.878 Q53.7242 645.382 53.5889 644.818 Q53.4311 644.255 53.0253 643.533 Q52.5969 642.789 51.9657 642.135 Q51.3119 641.459 50.2073 640.805 Q49.1026 640.152 47.6823 639.723 Q47.1864 639.588 47.1864 639.137 Q47.1864 638.573 47.6372 638.573 Q48.0205 638.573 48.8321 638.889 Q49.6211 639.182 50.6582 639.836 Q51.6726 640.467 52.5969 641.301 Q53.4987 642.135 54.1299 643.375 Q54.7612 644.615 54.7612 645.968 Q54.7612 647.907 53.7242 649.192 Q52.6871 650.477 51.2443 650.95 Q51.4472 651.063 51.7177 651.221 Q51.9883 651.379 52.5969 651.852 Q53.1831 652.303 53.634 652.821 Q54.0623 653.34 54.4005 654.151 Q54.7612 654.94 54.7612 655.797 Q54.7612 656.879 54.4456 657.849 Q54.1299 658.796 53.4085 659.472 Q52.6871 660.148 51.6952 660.148 Q50.5905 660.148 49.824 659.404 Q49.035 658.638 49.035 657.601 Q49.035 656.947 49.4182 656.428 Q49.8015 655.887 50.6356 655.887 Q51.5599 655.887 52.2588 656.519 Q52.9577 657.15 53.138 658.052 Q53.7242 657.127 53.7242 655.752 Q53.7242 654.264 52.4166 653.092 Q51.109 651.92 48.9223 651.356 Q43.6695 649.958 41.3249 649.417 Q38.9578 648.876 37.9433 648.876 Q36.9964 648.876 36.3427 649.124 Q35.6889 649.372 35.3958 649.8 Q35.0802 650.206 34.9675 650.589 Q34.8547 650.95 34.8547 651.356 Q34.8547 652.032 35.1253 652.799 Q35.3958 653.543 36.027 654.445 Q36.6357 655.324 37.8982 656.158 Q39.1607 656.992 40.8966 657.556 Q41.4151 657.668 41.4151 658.164 Q41.3925 658.705 40.9416 658.705 Q40.5584 658.705 39.7694 658.412 Q38.9578 658.097 37.9433 657.465 Q36.9288 656.812 36.027 655.977 Q35.1027 655.121 34.4715 653.881 Q33.8403 652.618 33.8403 651.266 Q33.8403 650.657 33.9755 650.071 Q34.0882 649.462 34.4264 648.741 Q34.7646 647.997 35.5085 647.343 Q36.2525 646.689 37.3346 646.284 Q36.8161 646.013 36.3201 645.652 Q35.8241 645.269 35.2154 644.683 Q34.5842 644.074 34.2235 643.24 Q33.8403 642.383 33.8403 641.437 Q33.8403 640.512 34.0882 639.61 Q34.3137 638.709 35.0576 637.942 Q35.779 637.153 36.8837 637.153 Z" fill="#000000" fill-rule="nonzero" fill-opacity="1"></path><path clip-path="url(#clip950)" d="M47.6372 612.757 Q50.5454 613.366 52.2137 614.155 Q54.7612 615.417 54.7612 617.559 Q54.7612 619.182 53.7692 620.332 Q52.7773 621.482 51.2894 621.752 Q54.7612 624.706 54.7612 627.772 Q54.7612 630.477 52.7097 632.19 Q50.6356 633.904 47.3667 633.904 Q44.0753 633.904 40.9191 632.28 Q37.7629 630.635 35.8016 628.042 Q33.8403 625.45 33.8403 622.789 Q33.8403 619.971 36.7935 618.529 Q35.9819 618.416 35.3733 617.897 Q34.7646 617.379 34.7646 616.59 Q34.7646 615.981 35.1027 615.62 Q35.4183 615.26 36.0045 615.26 Q36.2976 615.26 37.5826 615.575 L44.0302 617.244 L48.2008 618.258 Q49.7338 618.641 50.2974 618.754 Q50.8611 618.844 51.605 618.844 Q53.7242 618.844 53.7242 617.469 Q53.7242 616.793 53.2958 616.252 Q52.8675 615.711 51.9657 615.282 Q51.0639 614.854 50.2298 614.583 Q49.3731 614.313 48.0205 613.952 Q47.4794 613.839 47.3442 613.749 Q47.1864 613.637 47.1864 613.321 Q47.1864 612.757 47.6372 612.757 M38.9127 619.092 Q38.7098 619.092 38.1462 619.25 Q37.5826 619.408 36.7935 619.769 Q36.0045 620.129 35.4409 620.918 Q34.8547 621.685 34.8547 622.722 Q34.8547 624.12 36.0496 625.585 Q37.2444 627.028 39.2734 628.087 Q40.8966 628.899 44.3007 629.778 Q47.7049 630.635 49.3957 630.635 Q50.4327 630.635 51.357 630.409 Q52.2588 630.161 53.0027 629.462 Q53.7242 628.764 53.7242 627.681 Q53.7242 625.044 50.4553 622.451 Q49.8917 621.955 49.6662 621.843 Q49.4182 621.707 48.7419 621.527 L39.7017 619.227 Q39.0254 619.092 38.9127 619.092 Z" fill="#000000" fill-rule="nonzero" fill-opacity="1"></path><path clip-path="url(#clip950)" d="M48.8997 591.934 Q49.1026 591.754 49.3055 591.754 Q49.5084 591.754 50.0946 592.205 Q50.6807 592.633 51.4697 593.557 Q52.2588 594.482 53.0027 595.676 Q53.7467 596.871 54.2427 598.63 Q54.7612 600.388 54.7612 602.237 Q54.7612 605.686 52.4842 607.715 Q50.2073 609.721 46.9384 609.721 Q43.7597 609.721 40.7162 607.94 Q37.6502 606.159 35.7565 603.274 Q33.8403 600.388 33.8403 597.345 Q33.8403 594.932 34.9675 593.422 Q36.0947 591.912 37.808 591.912 Q39.1381 591.912 39.9497 592.678 Q40.7613 593.445 40.7613 594.482 Q40.7613 595.203 40.3555 595.699 Q39.9272 596.195 39.1381 596.195 Q38.1236 596.195 37.3346 595.361 Q37.019 595.045 36.8837 594.685 Q36.7259 594.301 36.7259 594.076 Q36.7034 593.85 36.7034 593.332 Q35.8241 593.805 35.3507 594.932 Q34.8547 596.037 34.8547 597.3 Q34.8547 599.171 36.1623 600.952 Q37.4473 602.733 39.4763 603.815 Q41.4602 604.897 44.2782 605.596 Q47.0736 606.295 48.6968 606.295 Q50.9287 606.295 52.3264 605.258 Q53.7242 604.221 53.7242 602.147 Q53.7242 601.741 53.7016 601.312 Q53.6791 600.862 53.4311 599.734 Q53.1831 598.585 52.7548 597.57 Q52.3264 596.556 51.4021 595.271 Q50.4553 593.963 49.1702 592.926 Q48.6968 592.565 48.6968 592.317 Q48.6968 592.114 48.8997 591.934 Z" fill="#000000" fill-rule="nonzero" fill-opacity="1"></path><path clip-path="url(#clip950)" d="M34.8547 576.867 Q35.486 576.867 35.6438 577.16 Q35.779 577.453 35.779 578.264 L35.779 582.593 L49.3957 586.019 Q50.5905 586.29 51.605 586.29 Q52.7322 586.29 53.2282 585.952 Q53.7242 585.591 53.7242 584.847 Q53.7242 583.382 52.3941 581.804 Q51.0639 580.203 47.8176 578.85 Q47.3893 578.67 47.2991 578.58 Q47.1864 578.467 47.1864 578.174 Q47.1864 577.61 47.6372 577.61 Q47.7951 577.61 48.5165 577.926 Q49.2379 578.219 50.2974 578.873 Q51.357 579.504 52.349 580.338 Q53.3409 581.15 54.0623 582.39 Q54.7612 583.63 54.7612 584.96 Q54.7612 586.831 53.5663 588.026 Q52.3715 589.198 50.5003 589.198 Q49.8917 589.198 47.9529 588.725 Q45.9915 588.251 35.779 585.681 L35.779 589.762 Q35.779 590.325 35.7565 590.551 Q35.734 590.754 35.6212 590.912 Q35.486 591.047 35.2154 591.047 Q34.7871 591.047 34.6068 590.866 Q34.4039 590.686 34.3813 590.461 Q34.3362 590.213 34.3362 589.649 L34.3362 585.321 L27.0094 583.517 Q26.288 583.337 25.8822 582.886 Q25.4538 582.412 25.4088 582.142 Q25.3411 581.871 25.3411 581.668 Q25.3411 581.06 25.6793 580.699 Q25.9949 580.338 26.5811 580.338 Q26.8967 580.338 34.3362 582.232 L34.3362 578.174 Q34.3362 577.656 34.3588 577.453 Q34.3813 577.227 34.494 577.047 Q34.6068 576.867 34.8547 576.867 Z" fill="#000000" fill-rule="nonzero" fill-opacity="1"></path><path clip-path="url(#clip950)" d="M72.3567 729.541 L72.3567 537.618 L68.8367 537.618 L68.8367 729.541  Z" fill="#000000" fill-rule="evenodd" fill-opacity="1"></path>
<path clip-path="url(#clip950)" d="M99.6303 709.283 Q100.532 709.283 100.758 709.702 Q100.951 710.121 100.951 711.28 L100.951 717.464 L120.403 722.359 Q122.11 722.746 123.559 722.746 Q125.17 722.746 125.878 722.262 Q126.587 721.747 126.587 720.684 Q126.587 718.591 124.686 716.337 Q122.786 714.05 118.149 712.118 Q117.537 711.86 117.408 711.731 Q117.247 711.57 117.247 711.151 Q117.247 710.346 117.891 710.346 Q118.116 710.346 119.147 710.797 Q120.178 711.216 121.691 712.15 Q123.205 713.052 124.622 714.243 Q126.039 715.403 127.07 717.174 Q128.068 718.945 128.068 720.845 Q128.068 723.518 126.361 725.225 Q124.654 726.9 121.981 726.9 Q121.112 726.9 118.342 726.224 Q115.54 725.547 100.951 721.876 L100.951 727.705 Q100.951 728.51 100.919 728.832 Q100.886 729.122 100.725 729.348 Q100.532 729.541 100.146 729.541 Q99.5337 729.541 99.2761 729.283 Q98.9862 729.026 98.954 728.704 Q98.8896 728.349 98.8896 727.544 L98.8896 721.361 L88.4227 718.784 Q87.3921 718.527 86.8124 717.882 Q86.2005 717.206 86.1361 716.82 Q86.0394 716.433 86.0394 716.143 Q86.0394 715.274 86.5225 714.758 Q86.9734 714.243 87.8108 714.243 Q88.2616 714.243 98.8896 716.948 L98.8896 711.151 Q98.8896 710.411 98.9218 710.121 Q98.954 709.799 99.115 709.541 Q99.2761 709.283 99.6303 709.283 Z" fill="#000000" fill-rule="nonzero" fill-opacity="1"></path><path clip-path="url(#clip950)" d="M117.344 690.648 Q118.336 690.648 119.08 691.459 Q119.801 692.249 119.801 693.105 Q119.801 693.894 119.328 694.39 Q118.832 694.864 118.133 694.864 Q117.209 694.864 116.442 694.075 Q115.676 693.286 115.676 692.361 Q115.676 691.595 116.149 691.121 Q116.623 690.648 117.344 690.648 M139.595 690.242 Q139.775 690.242 140.497 690.445 Q141.196 690.648 142.278 691.144 Q143.337 691.617 144.329 692.271 Q145.321 692.925 146.02 694.007 Q146.719 695.067 146.719 696.284 Q146.719 697.93 145.637 699.012 Q144.555 700.071 142.932 700.071 Q142.052 700.071 139.234 699.012 Q131.028 695.946 130.69 695.833 Q129.405 695.315 128.278 695.315 Q127.759 695.315 127.444 695.427 Q127.106 695.54 126.993 695.765 Q126.858 695.991 126.835 696.126 Q126.813 696.239 126.813 696.464 Q126.813 697.794 128.165 699.034 Q129.518 700.274 132.539 701.131 Q133.102 701.311 133.238 701.424 Q133.373 701.537 133.373 701.875 Q133.35 702.438 132.899 702.438 Q132.764 702.438 132.246 702.281 Q131.705 702.123 130.893 701.83 Q130.059 701.537 129.202 701.018 Q128.323 700.5 127.557 699.868 Q126.79 699.215 126.294 698.29 Q125.798 697.366 125.798 696.329 Q125.798 694.638 126.903 693.601 Q127.985 692.542 129.585 692.542 Q130.465 692.542 132.02 693.15 Q134.049 693.894 134.703 694.165 L139.55 695.968 Q141.308 696.622 141.849 696.825 Q142.368 697.005 142.999 697.163 Q143.608 697.298 144.172 697.298 Q144.961 697.298 145.321 697.05 Q145.682 696.78 145.682 696.194 Q145.682 694.571 144.081 693.376 Q142.458 692.181 139.978 691.482 Q139.911 691.459 139.798 691.437 Q139.234 691.257 139.167 691.076 Q139.144 690.986 139.144 690.806 Q139.144 690.242 139.595 690.242 Z" fill="#000000" fill-rule="nonzero" fill-opacity="1"></path><path clip-path="url(#clip950)" d="M139.595 661.281 Q139.775 661.281 140.474 661.484 Q141.173 661.686 142.255 662.182 Q143.337 662.656 144.329 663.31 Q145.299 663.963 146.02 665.046 Q146.719 666.105 146.719 667.323 Q146.719 668.946 145.637 670.028 Q144.555 671.11 142.932 671.11 Q142.03 671.11 140.79 670.636 Q132.787 667.638 130.036 667.638 Q126.813 667.638 126.813 670.141 Q126.813 671.38 127.286 672.553 Q127.737 673.702 128.368 674.492 Q128.999 675.281 129.879 676.002 Q130.735 676.701 131.321 677.062 Q131.885 677.4 132.449 677.67 L134.748 678.256 Q135.379 678.392 137.837 679.045 L142.007 680.06 Q145.118 680.781 145.411 680.939 Q146.043 681.165 146.381 681.661 Q146.719 682.157 146.719 682.652 Q146.719 683.216 146.381 683.599 Q146.043 683.983 145.457 683.983 Q145.366 683.983 145.028 683.915 Q144.69 683.847 144.217 683.735 Q143.743 683.622 143.473 683.577 L132.809 680.894 Q130.87 680.398 130.262 680.285 Q129.631 680.15 128.932 680.15 Q126.813 680.15 126.813 681.593 Q126.813 682.765 128.21 683.532 Q129.608 684.298 132.313 684.952 Q133.057 685.155 133.215 685.29 Q133.373 685.403 133.373 685.741 Q133.35 686.305 132.899 686.305 Q132.787 686.305 132.043 686.124 Q131.299 685.944 130.239 685.606 Q129.157 685.245 128.436 684.907 Q127.895 684.614 127.647 684.456 Q127.376 684.276 126.858 683.847 Q126.317 683.396 126.069 682.81 Q125.798 682.202 125.798 681.458 Q125.798 679.789 126.88 678.572 Q127.94 677.355 129.811 677.197 Q125.798 674.198 125.798 670.005 Q125.798 667.525 127.106 666.105 Q128.413 664.685 130.735 664.685 Q131.276 664.685 131.975 664.798 Q132.651 664.888 133.508 665.113 Q134.365 665.316 135.019 665.496 Q135.672 665.677 136.732 666.037 Q137.769 666.398 138.22 666.556 Q138.671 666.714 139.73 667.097 Q140.767 667.458 140.88 667.503 Q142.977 668.337 144.172 668.337 Q144.961 668.337 145.321 668.089 Q145.682 667.818 145.682 667.232 Q145.682 665.654 144.126 664.482 Q142.548 663.287 139.978 662.521 Q139.415 662.34 139.279 662.25 Q139.144 662.137 139.144 661.822 Q139.144 661.281 139.595 661.281 Z" fill="#000000" fill-rule="nonzero" fill-opacity="1"></path><path clip-path="url(#clip950)" d="M140.858 640.029 Q141.06 639.849 141.263 639.849 Q141.466 639.849 142.052 640.3 Q142.639 640.728 143.428 641.652 Q144.217 642.577 144.961 643.772 Q145.705 644.966 146.2 646.725 Q146.719 648.483 146.719 650.332 Q146.719 653.646 144.352 655.63 Q141.985 657.591 138.355 657.591 Q136.033 657.591 133.982 656.825 Q131.908 656.058 130.442 654.818 Q128.977 653.556 127.917 651.978 Q126.835 650.377 126.317 648.709 Q125.798 647.04 125.798 645.485 Q125.798 643.208 126.948 641.878 Q128.098 640.548 129.721 640.548 Q130.104 640.548 130.577 640.66 Q131.051 640.751 131.795 641.066 Q132.539 641.359 133.283 642.126 Q134.004 642.892 134.478 644.02 Q135.537 646.522 135.537 651.076 L135.537 653.533 Q138.445 654.255 140.339 654.255 Q141.083 654.255 141.849 654.119 Q142.593 653.984 143.54 653.623 Q144.487 653.24 145.096 652.383 Q145.682 651.504 145.682 650.242 Q145.682 649.836 145.659 649.408 Q145.637 648.957 145.389 647.829 Q145.141 646.68 144.713 645.665 Q144.284 644.651 143.36 643.366 Q142.413 642.058 141.128 641.021 Q140.655 640.66 140.655 640.412 Q140.655 640.21 140.858 640.029 M129.721 642.081 Q128.481 642.081 127.647 643.005 Q126.813 643.907 126.813 645.485 Q126.813 645.981 126.925 646.59 Q127.038 647.198 127.511 648.213 Q127.985 649.205 128.774 650.084 Q129.54 650.963 131.051 651.842 Q132.539 652.722 134.523 653.24 L134.523 651.346 Q134.523 650.693 134.523 650.219 Q134.5 649.746 134.41 648.709 Q134.32 647.649 134.162 646.883 Q133.982 646.116 133.621 645.147 Q133.26 644.177 132.787 643.569 Q132.291 642.937 131.502 642.509 Q130.713 642.081 129.721 642.081 Z" fill="#000000" fill-rule="nonzero" fill-opacity="1"></path><path clip-path="url(#clip950)" d="M128.842 614.306 Q130.104 614.306 130.825 615.095 Q131.524 615.884 131.524 616.786 Q131.524 617.642 131.028 618.093 Q130.532 618.544 129.901 618.544 Q129.044 618.544 128.3 617.913 Q127.557 617.282 127.399 616.335 Q126.813 617.259 126.813 618.634 Q126.813 619.536 127.286 620.325 Q127.759 621.092 128.368 621.565 Q128.977 622.016 129.856 622.422 Q130.713 622.805 131.231 622.963 Q131.727 623.098 132.268 623.211 L138.581 624.789 Q141.579 625.555 142.639 625.555 Q143.946 625.555 144.825 624.924 Q145.682 624.293 145.682 623.03 Q145.682 622.534 145.547 621.971 Q145.389 621.407 144.983 620.686 Q144.555 619.942 143.924 619.288 Q143.27 618.612 142.165 617.958 Q141.06 617.304 139.64 616.876 Q139.144 616.741 139.144 616.29 Q139.144 615.726 139.595 615.726 Q139.978 615.726 140.79 616.042 Q141.579 616.335 142.616 616.989 Q143.63 617.62 144.555 618.454 Q145.457 619.288 146.088 620.528 Q146.719 621.768 146.719 623.121 Q146.719 625.059 145.682 626.344 Q144.645 627.629 143.202 628.103 Q143.405 628.215 143.676 628.373 Q143.946 628.531 144.555 629.005 Q145.141 629.455 145.592 629.974 Q146.02 630.492 146.358 631.304 Q146.719 632.093 146.719 632.95 Q146.719 634.032 146.403 635.001 Q146.088 635.948 145.366 636.624 Q144.645 637.301 143.653 637.301 Q142.548 637.301 141.782 636.557 Q140.993 635.79 140.993 634.753 Q140.993 634.1 141.376 633.581 Q141.759 633.04 142.593 633.04 Q143.518 633.04 144.217 633.671 Q144.915 634.302 145.096 635.204 Q145.682 634.28 145.682 632.905 Q145.682 631.417 144.374 630.244 Q143.067 629.072 140.88 628.509 Q135.627 627.111 133.283 626.57 Q130.916 626.029 129.901 626.029 Q128.954 626.029 128.3 626.277 Q127.647 626.525 127.354 626.953 Q127.038 627.359 126.925 627.742 Q126.813 628.103 126.813 628.509 Q126.813 629.185 127.083 629.951 Q127.354 630.695 127.985 631.597 Q128.594 632.476 129.856 633.31 Q131.118 634.145 132.854 634.708 Q133.373 634.821 133.373 635.317 Q133.35 635.858 132.899 635.858 Q132.516 635.858 131.727 635.565 Q130.916 635.249 129.901 634.618 Q128.887 633.964 127.985 633.13 Q127.061 632.273 126.429 631.034 Q125.798 629.771 125.798 628.418 Q125.798 627.81 125.933 627.224 Q126.046 626.615 126.384 625.893 Q126.722 625.149 127.466 624.496 Q128.21 623.842 129.292 623.436 Q128.774 623.166 128.278 622.805 Q127.782 622.422 127.173 621.836 Q126.542 621.227 126.181 620.393 Q125.798 619.536 125.798 618.589 Q125.798 617.665 126.046 616.763 Q126.271 615.861 127.015 615.095 Q127.737 614.306 128.842 614.306 Z" fill="#000000" fill-rule="nonzero" fill-opacity="1"></path><path clip-path="url(#clip950)" d="M139.595 589.91 Q142.503 590.519 144.172 591.308 Q146.719 592.57 146.719 594.712 Q146.719 596.335 145.727 597.485 Q144.735 598.634 143.247 598.905 Q146.719 601.858 146.719 604.924 Q146.719 607.63 144.667 609.343 Q142.593 611.056 139.325 611.056 Q136.033 611.056 132.877 609.433 Q129.721 607.787 127.759 605.195 Q125.798 602.602 125.798 599.942 Q125.798 597.124 128.751 595.681 Q127.94 595.568 127.331 595.05 Q126.722 594.531 126.722 593.742 Q126.722 593.134 127.061 592.773 Q127.376 592.412 127.962 592.412 Q128.255 592.412 129.54 592.728 L135.988 594.396 L140.159 595.411 Q141.692 595.794 142.255 595.907 Q142.819 595.997 143.563 595.997 Q145.682 595.997 145.682 594.622 Q145.682 593.945 145.254 593.404 Q144.825 592.863 143.924 592.435 Q143.022 592.007 142.188 591.736 Q141.331 591.465 139.978 591.105 Q139.437 590.992 139.302 590.902 Q139.144 590.789 139.144 590.474 Q139.144 589.91 139.595 589.91 M130.87 596.245 Q130.668 596.245 130.104 596.403 Q129.54 596.56 128.751 596.921 Q127.962 597.282 127.399 598.071 Q126.813 598.837 126.813 599.874 Q126.813 601.272 128.007 602.738 Q129.202 604.18 131.231 605.24 Q132.854 606.051 136.259 606.931 Q139.663 607.787 141.353 607.787 Q142.391 607.787 143.315 607.562 Q144.217 607.314 144.961 606.615 Q145.682 605.916 145.682 604.834 Q145.682 602.196 142.413 599.604 Q141.849 599.108 141.624 598.995 Q141.376 598.86 140.7 598.68 L131.66 596.38 Q130.983 596.245 130.87 596.245 Z" fill="#000000" fill-rule="nonzero" fill-opacity="1"></path><path clip-path="url(#clip950)" d="M140.858 569.087 Q141.06 568.906 141.263 568.906 Q141.466 568.906 142.052 569.357 Q142.639 569.786 143.428 570.71 Q144.217 571.634 144.961 572.829 Q145.705 574.024 146.2 575.782 Q146.719 577.541 146.719 579.389 Q146.719 582.839 144.442 584.868 Q142.165 586.874 138.896 586.874 Q135.717 586.874 132.674 585.093 Q129.608 583.312 127.714 580.426 Q125.798 577.541 125.798 574.497 Q125.798 572.085 126.925 570.575 Q128.052 569.064 129.766 569.064 Q131.096 569.064 131.908 569.831 Q132.719 570.597 132.719 571.634 Q132.719 572.356 132.313 572.852 Q131.885 573.348 131.096 573.348 Q130.081 573.348 129.292 572.513 Q128.977 572.198 128.842 571.837 Q128.684 571.454 128.684 571.228 Q128.661 571.003 128.661 570.484 Q127.782 570.958 127.309 572.085 Q126.813 573.19 126.813 574.452 Q126.813 576.323 128.12 578.104 Q129.405 579.885 131.434 580.967 Q133.418 582.05 136.236 582.748 Q139.031 583.447 140.655 583.447 Q142.886 583.447 144.284 582.41 Q145.682 581.373 145.682 579.299 Q145.682 578.893 145.659 578.465 Q145.637 578.014 145.389 576.887 Q145.141 575.737 144.713 574.723 Q144.284 573.708 143.36 572.423 Q142.413 571.116 141.128 570.079 Q140.655 569.718 140.655 569.47 Q140.655 569.267 140.858 569.087 Z" fill="#000000" fill-rule="nonzero" fill-opacity="1"></path><path clip-path="url(#clip950)" d="M126.813 554.019 Q127.444 554.019 127.602 554.312 Q127.737 554.605 127.737 555.417 L127.737 559.745 L141.353 563.172 Q142.548 563.443 143.563 563.443 Q144.69 563.443 145.186 563.104 Q145.682 562.744 145.682 562 Q145.682 560.534 144.352 558.956 Q143.022 557.356 139.775 556.003 Q139.347 555.823 139.257 555.732 Q139.144 555.62 139.144 555.327 Q139.144 554.763 139.595 554.763 Q139.753 554.763 140.474 555.079 Q141.196 555.372 142.255 556.026 Q143.315 556.657 144.307 557.491 Q145.299 558.303 146.02 559.542 Q146.719 560.782 146.719 562.112 Q146.719 563.984 145.524 565.178 Q144.329 566.351 142.458 566.351 Q141.849 566.351 139.911 565.877 Q137.949 565.404 127.737 562.834 L127.737 566.914 Q127.737 567.478 127.714 567.703 Q127.692 567.906 127.579 568.064 Q127.444 568.199 127.173 568.199 Q126.745 568.199 126.565 568.019 Q126.362 567.839 126.339 567.613 Q126.294 567.365 126.294 566.802 L126.294 562.473 L118.967 560.67 Q118.246 560.489 117.84 560.038 Q117.412 559.565 117.367 559.294 Q117.299 559.024 117.299 558.821 Q117.299 558.212 117.637 557.852 Q117.953 557.491 118.539 557.491 Q118.854 557.491 126.294 559.385 L126.294 555.327 Q126.294 554.808 126.317 554.605 Q126.339 554.38 126.452 554.199 Q126.565 554.019 126.813 554.019 Z" fill="#000000" fill-rule="nonzero" fill-opacity="1"></path><path clip-path="url(#clip950)" d="M436.634 14.0809 L436.634 22.0612 Q431.975 19.8332 427.843 18.7395 Q423.712 17.6457 419.863 17.6457 Q413.179 17.6457 409.533 20.2383 Q405.928 22.8309 405.928 27.611 Q405.928 31.6214 408.318 33.6873 Q410.749 35.7128 417.473 36.9686 L422.415 37.9813 Q431.57 39.7232 435.905 44.1387 Q440.28 48.5136 440.28 55.8863 Q440.28 64.6767 434.365 69.2137 Q428.492 73.7508 417.109 73.7508 Q412.815 73.7508 407.954 72.7785 Q403.133 71.8063 397.948 69.9024 L397.948 61.4765 Q402.93 64.2716 407.71 65.6895 Q412.491 67.1073 417.109 67.1073 Q424.117 67.1073 427.924 64.3527 Q431.732 61.598 431.732 56.4939 Q431.732 52.0379 428.978 49.5264 Q426.264 47.0148 420.025 45.759 L415.043 44.7868 Q405.888 42.9639 401.796 39.075 Q397.705 35.1862 397.705 28.2591 Q397.705 20.2383 403.336 15.6203 Q409.007 11.0023 418.931 11.0023 Q423.185 11.0023 427.6 11.7719 Q432.016 12.5416 436.634 14.0809 Z" fill="#000000" fill-rule="nonzero" fill-opacity="1"></path><path clip-path="url(#clip950)" d="M459.927 65.7705 L459.927 89.8329 L452.432 89.8329 L452.432 27.2059 L459.927 27.2059 L459.927 34.0924 Q462.276 30.0415 465.841 28.0971 Q469.446 26.1121 474.429 26.1121 Q482.693 26.1121 487.837 32.6746 Q493.023 39.2371 493.023 49.9314 Q493.023 60.6258 487.837 67.1883 Q482.693 73.7508 474.429 73.7508 Q469.446 73.7508 465.841 71.8063 Q462.276 69.8214 459.927 65.7705 M485.285 49.9314 Q485.285 41.7081 481.883 37.0496 Q478.52 32.3505 472.606 32.3505 Q466.692 32.3505 463.289 37.0496 Q459.927 41.7081 459.927 49.9314 Q459.927 58.1548 463.289 62.8538 Q466.692 67.5124 472.606 67.5124 Q478.52 67.5124 481.883 62.8538 Q485.285 58.1548 485.285 49.9314 Z" fill="#000000" fill-rule="nonzero" fill-opacity="1"></path><path clip-path="url(#clip950)" d="M544.185 48.0275 L544.185 51.6733 L509.915 51.6733 Q510.401 59.3701 514.533 63.421 Q518.705 67.4314 526.118 67.4314 Q530.412 67.4314 534.423 66.3781 Q538.474 65.3249 542.444 63.2184 L542.444 70.267 Q538.433 71.9684 534.22 72.8596 Q530.007 73.7508 525.673 73.7508 Q514.816 73.7508 508.456 67.4314 Q502.137 61.1119 502.137 50.3365 Q502.137 39.1965 508.132 32.6746 Q514.168 26.1121 524.377 26.1121 Q533.532 26.1121 538.838 32.0264 Q544.185 37.9003 544.185 48.0275 M536.732 45.84 Q536.651 39.7232 533.289 36.0774 Q529.967 32.4315 524.458 32.4315 Q518.219 32.4315 514.452 35.9558 Q510.725 39.4801 510.158 45.8805 L536.732 45.84 Z" fill="#000000" fill-rule="nonzero" fill-opacity="1"></path><path clip-path="url(#clip950)" d="M595.227 48.0275 L595.227 51.6733 L560.956 51.6733 Q561.442 59.3701 565.574 63.421 Q569.747 67.4314 577.16 67.4314 Q581.454 67.4314 585.464 66.3781 Q589.515 65.3249 593.485 63.2184 L593.485 70.267 Q589.475 71.9684 585.262 72.8596 Q581.049 73.7508 576.714 73.7508 Q565.858 73.7508 559.498 67.4314 Q553.178 61.1119 553.178 50.3365 Q553.178 39.1965 559.174 32.6746 Q565.21 26.1121 575.418 26.1121 Q584.573 26.1121 589.88 32.0264 Q595.227 37.9003 595.227 48.0275 M587.773 45.84 Q587.692 39.7232 584.33 36.0774 Q581.008 32.4315 575.499 32.4315 Q569.261 32.4315 565.493 35.9558 Q561.766 39.4801 561.199 45.8805 L587.773 45.84 Z" fill="#000000" fill-rule="nonzero" fill-opacity="1"></path><path clip-path="url(#clip950)" d="M637.316 34.0924 L637.316 9.54393 L644.769 9.54393 L644.769 72.576 L637.316 72.576 L637.316 65.7705 Q634.966 69.8214 631.361 71.8063 Q627.796 73.7508 622.773 73.7508 Q614.55 73.7508 609.364 67.1883 Q604.22 60.6258 604.22 49.9314 Q604.22 39.2371 609.364 32.6746 Q614.55 26.1121 622.773 26.1121 Q627.796 26.1121 631.361 28.0971 Q634.966 30.0415 637.316 34.0924 M611.917 49.9314 Q611.917 58.1548 615.279 62.8538 Q618.682 67.5124 624.596 67.5124 Q630.51 67.5124 633.913 62.8538 Q637.316 58.1548 637.316 49.9314 Q637.316 41.7081 633.913 37.0496 Q630.51 32.3505 624.596 32.3505 Q618.682 32.3505 615.279 37.0496 Q611.917 41.7081 611.917 49.9314 Z" fill="#000000" fill-rule="nonzero" fill-opacity="1"></path><path clip-path="url(#clip950)" d="M656.355 46.5287 L678.189 46.5287 L678.189 53.1722 L656.355 53.1722 L656.355 46.5287 Z" fill="#000000" fill-rule="nonzero" fill-opacity="1"></path><path clip-path="url(#clip950)" d="M689.289 54.671 L689.289 27.2059 L696.743 27.2059 L696.743 54.3874 Q696.743 60.8284 699.254 64.0691 Q701.766 67.2693 706.789 67.2693 Q712.825 67.2693 716.308 63.421 Q719.833 59.5726 719.833 52.9291 L719.833 27.2059 L727.286 27.2059 L727.286 72.576 L719.833 72.576 L719.833 65.6084 Q717.119 69.7404 713.513 71.7658 Q709.948 73.7508 705.209 73.7508 Q697.391 73.7508 693.34 68.8897 Q689.289 64.0286 689.289 54.671 M708.045 26.1121 L708.045 26.1121 Z" fill="#000000" fill-rule="nonzero" fill-opacity="1"></path><path clip-path="url(#clip950)" d="M749.85 65.7705 L749.85 89.8329 L742.356 89.8329 L742.356 27.2059 L749.85 27.2059 L749.85 34.0924 Q752.199 30.0415 755.764 28.0971 Q759.369 26.1121 764.352 26.1121 Q772.616 26.1121 777.761 32.6746 Q782.946 39.2371 782.946 49.9314 Q782.946 60.6258 777.761 67.1883 Q772.616 73.7508 764.352 73.7508 Q759.369 73.7508 755.764 71.8063 Q752.199 69.8214 749.85 65.7705 M775.209 49.9314 Q775.209 41.7081 771.806 37.0496 Q768.444 32.3505 762.529 32.3505 Q756.615 32.3505 753.212 37.0496 Q749.85 41.7081 749.85 49.9314 Q749.85 58.1548 753.212 62.8538 Q756.615 67.5124 762.529 67.5124 Q768.444 67.5124 771.806 62.8538 Q775.209 58.1548 775.209 49.9314 Z" fill="#000000" fill-rule="nonzero" fill-opacity="1"></path><path clip-path="url(#clip950)" d="M844.641 9.54393 L844.641 15.7418 L837.511 15.7418 Q833.501 15.7418 831.921 17.3622 Q830.382 18.9825 830.382 23.1955 L830.382 27.2059 L842.656 27.2059 L842.656 32.9987 L830.382 32.9987 L830.382 72.576 L822.888 72.576 L822.888 32.9987 L815.758 32.9987 L815.758 27.2059 L822.888 27.2059 L822.888 24.0462 Q822.888 16.471 826.412 13.0277 Q829.936 9.54393 837.592 9.54393 L844.641 9.54393 Z" fill="#000000" fill-rule="nonzero" fill-opacity="1"></path><path clip-path="url(#clip950)" d="M868.46 32.4315 Q862.465 32.4315 858.981 37.1306 Q855.497 41.7891 855.497 49.9314 Q855.497 58.0738 858.941 62.7728 Q862.424 67.4314 868.46 67.4314 Q874.415 67.4314 877.899 62.7323 Q881.383 58.0333 881.383 49.9314 Q881.383 41.8701 877.899 37.1711 Q874.415 32.4315 868.46 32.4315 M868.46 26.1121 Q878.183 26.1121 883.732 32.4315 Q889.282 38.7509 889.282 49.9314 Q889.282 61.0714 883.732 67.4314 Q878.183 73.7508 868.46 73.7508 Q858.698 73.7508 853.148 67.4314 Q847.639 61.0714 847.639 49.9314 Q847.639 38.7509 853.148 32.4315 Q858.698 26.1121 868.46 26.1121 Z" fill="#000000" fill-rule="nonzero" fill-opacity="1"></path><path clip-path="url(#clip950)" d="M927.928 34.1734 Q926.672 33.4443 925.173 33.1202 Q923.715 32.7556 921.932 32.7556 Q915.613 32.7556 912.21 36.8875 Q908.848 40.9789 908.848 48.6757 L908.848 72.576 L901.354 72.576 L901.354 27.2059 L908.848 27.2059 L908.848 34.2544 Q911.197 30.1225 914.965 28.1376 Q918.732 26.1121 924.12 26.1121 Q924.889 26.1121 925.821 26.2337 Q926.753 26.3147 927.887 26.5172 L927.928 34.1734 Z" fill="#000000" fill-rule="nonzero" fill-opacity="1"></path><path clip-path="url(#clip950)" d="M985.086 9.54393 L985.086 15.7418 L977.956 15.7418 Q973.946 15.7418 972.366 17.3622 Q970.827 18.9825 970.827 23.1955 L970.827 27.2059 L983.101 27.2059 L983.101 32.9987 L970.827 32.9987 L970.827 72.576 L963.333 72.576 L963.333 32.9987 L956.203 32.9987 L956.203 27.2059 L963.333 27.2059 L963.333 24.0462 Q963.333 16.471 966.857 13.0277 Q970.381 9.54393 978.037 9.54393 L985.086 9.54393 Z" fill="#000000" fill-rule="nonzero" fill-opacity="1"></path><path clip-path="url(#clip950)" d="M991.324 27.2059 L998.778 27.2059 L998.778 72.576 L991.324 72.576 L991.324 27.2059 M991.324 9.54393 L998.778 9.54393 L998.778 18.9825 L991.324 18.9825 L991.324 9.54393 Z" fill="#000000" fill-rule="nonzero" fill-opacity="1"></path><path clip-path="url(#clip950)" d="M1052.09 27.2059 L1035.68 49.2833 L1052.94 72.576 L1044.15 72.576 L1030.94 54.752 L1017.74 72.576 L1008.95 72.576 L1026.57 48.8377 L1010.44 27.2059 L1019.23 27.2059 L1031.27 43.369 L1043.3 27.2059 L1052.09 27.2059 Z" fill="#000000" fill-rule="nonzero" fill-opacity="1"></path><path clip-path="url(#clip950)" d="M1099.73 48.0275 L1099.73 51.6733 L1065.46 51.6733 Q1065.94 59.3701 1070.07 63.421 Q1074.25 67.4314 1081.66 67.4314 Q1085.95 67.4314 1089.96 66.3781 Q1094.01 65.3249 1097.98 63.2184 L1097.98 70.267 Q1093.97 71.9684 1089.76 72.8596 Q1085.55 73.7508 1081.21 73.7508 Q1070.36 73.7508 1064 67.4314 Q1057.68 61.1119 1057.68 50.3365 Q1057.68 39.1965 1063.67 32.6746 Q1069.71 26.1121 1079.92 26.1121 Q1089.07 26.1121 1094.38 32.0264 Q1099.73 37.9003 1099.73 48.0275 M1092.27 45.84 Q1092.19 39.7232 1088.83 36.0774 Q1085.51 32.4315 1080 32.4315 Q1073.76 32.4315 1069.99 35.9558 Q1066.27 39.4801 1065.7 45.8805 L1092.27 45.84 Z" fill="#000000" fill-rule="nonzero" fill-opacity="1"></path><path clip-path="url(#clip950)" d="M1141.82 34.0924 L1141.82 9.54393 L1149.27 9.54393 L1149.27 72.576 L1141.82 72.576 L1141.82 65.7705 Q1139.47 69.8214 1135.86 71.8063 Q1132.3 73.7508 1127.27 73.7508 Q1119.05 73.7508 1113.86 67.1883 Q1108.72 60.6258 1108.72 49.9314 Q1108.72 39.2371 1113.86 32.6746 Q1119.05 26.1121 1127.27 26.1121 Q1132.3 26.1121 1135.86 28.0971 Q1139.47 30.0415 1141.82 34.0924 M1116.42 49.9314 Q1116.42 58.1548 1119.78 62.8538 Q1123.18 67.5124 1129.1 67.5124 Q1135.01 67.5124 1138.41 62.8538 Q1141.82 58.1548 1141.82 49.9314 Q1141.82 41.7081 1138.41 37.0496 Q1135.01 32.3505 1129.1 32.3505 Q1123.18 32.3505 1119.78 37.0496 Q1116.42 41.7081 1116.42 49.9314 Z" fill="#000000" fill-rule="nonzero" fill-opacity="1"></path><path clip-path="url(#clip950)" d="M1198.37 14.324 L1198.37 27.2059 L1213.72 27.2059 L1213.72 32.9987 L1198.37 32.9987 L1198.37 57.6282 Q1198.37 63.1779 1199.86 64.7578 Q1201.4 66.3376 1206.06 66.3376 L1213.72 66.3376 L1213.72 72.576 L1206.06 72.576 Q1197.43 72.576 1194.15 69.3758 Q1190.87 66.1351 1190.87 57.6282 L1190.87 32.9987 L1185.4 32.9987 L1185.4 27.2059 L1190.87 27.2059 L1190.87 14.324 L1198.37 14.324 Z" fill="#000000" fill-rule="nonzero" fill-opacity="1"></path><path clip-path="url(#clip950)" d="M1241.1 32.4315 Q1235.11 32.4315 1231.62 37.1306 Q1228.14 41.7891 1228.14 49.9314 Q1228.14 58.0738 1231.58 62.7728 Q1235.07 67.4314 1241.1 67.4314 Q1247.06 67.4314 1250.54 62.7323 Q1254.03 58.0333 1254.03 49.9314 Q1254.03 41.8701 1250.54 37.1711 Q1247.06 32.4315 1241.1 32.4315 M1241.1 26.1121 Q1250.83 26.1121 1256.37 32.4315 Q1261.92 38.7509 1261.92 49.9314 Q1261.92 61.0714 1256.37 67.4314 Q1250.83 73.7508 1241.1 73.7508 Q1231.34 73.7508 1225.79 67.4314 Q1220.28 61.0714 1220.28 49.9314 Q1220.28 38.7509 1225.79 32.4315 Q1231.34 26.1121 1241.1 26.1121 Z" fill="#000000" fill-rule="nonzero" fill-opacity="1"></path><path clip-path="url(#clip950)" d="M1274.28 9.54393 L1281.73 9.54393 L1281.73 72.576 L1274.28 72.576 L1274.28 9.54393 Z" fill="#000000" fill-rule="nonzero" fill-opacity="1"></path><path clip-path="url(#clip950)" d="M1336.14 48.0275 L1336.14 51.6733 L1301.87 51.6733 Q1302.35 59.3701 1306.48 63.421 Q1310.66 67.4314 1318.07 67.4314 Q1322.36 67.4314 1326.37 66.3781 Q1330.43 65.3249 1334.4 63.2184 L1334.4 70.267 Q1330.38 71.9684 1326.17 72.8596 Q1321.96 73.7508 1317.62 73.7508 Q1306.77 73.7508 1300.41 67.4314 Q1294.09 61.1119 1294.09 50.3365 Q1294.09 39.1965 1300.08 32.6746 Q1306.12 26.1121 1316.33 26.1121 Q1325.48 26.1121 1330.79 32.0264 Q1336.14 37.9003 1336.14 48.0275 M1328.68 45.84 Q1328.6 39.7232 1325.24 36.0774 Q1321.92 32.4315 1316.41 32.4315 Q1310.17 32.4315 1306.4 35.9558 Q1302.68 39.4801 1302.11 45.8805 L1328.68 45.84 Z" fill="#000000" fill-rule="nonzero" fill-opacity="1"></path><path clip-path="url(#clip950)" d="M1374.66 34.1734 Q1373.41 33.4443 1371.91 33.1202 Q1370.45 32.7556 1368.67 32.7556 Q1362.35 32.7556 1358.94 36.8875 Q1355.58 40.9789 1355.58 48.6757 L1355.58 72.576 L1348.09 72.576 L1348.09 27.2059 L1355.58 27.2059 L1355.58 34.2544 Q1357.93 30.1225 1361.7 28.1376 Q1365.47 26.1121 1370.85 26.1121 Q1371.62 26.1121 1372.55 26.2337 Q1373.49 26.3147 1374.62 26.5172 L1374.66 34.1734 Z" fill="#000000" fill-rule="nonzero" fill-opacity="1"></path><path clip-path="url(#clip950)" d="M1403.1 49.7694 Q1394.07 49.7694 1390.58 51.8354 Q1387.1 53.9013 1387.1 58.8839 Q1387.1 62.8538 1389.69 65.2034 Q1392.32 67.5124 1396.82 67.5124 Q1403.02 67.5124 1406.74 63.1374 Q1410.51 58.7219 1410.51 51.4303 L1410.51 49.7694 L1403.1 49.7694 M1417.97 46.6907 L1417.97 72.576 L1410.51 72.576 L1410.51 65.6895 Q1407.96 69.8214 1404.15 71.8063 Q1400.34 73.7508 1394.83 73.7508 Q1387.87 73.7508 1383.74 69.8619 Q1379.64 65.9325 1379.64 59.3701 Q1379.64 51.7138 1384.75 47.825 Q1389.89 43.9361 1400.06 43.9361 L1410.51 43.9361 L1410.51 43.2069 Q1410.51 38.0623 1407.11 35.2672 Q1403.75 32.4315 1397.63 32.4315 Q1393.74 32.4315 1390.05 33.3632 Q1386.37 34.295 1382.97 36.1584 L1382.97 29.2718 Q1387.06 27.692 1390.91 26.9223 Q1394.75 26.1121 1398.4 26.1121 Q1408.24 26.1121 1413.1 31.2163 Q1417.97 36.3204 1417.97 46.6907 Z" fill="#000000" fill-rule="nonzero" fill-opacity="1"></path><path clip-path="url(#clip950)" d="M1471.03 45.1919 L1471.03 72.576 L1463.58 72.576 L1463.58 45.4349 Q1463.58 38.994 1461.07 35.7938 Q1458.56 32.5936 1453.53 32.5936 Q1447.5 32.5936 1444.01 36.4419 Q1440.53 40.2903 1440.53 46.9338 L1440.53 72.576 L1433.03 72.576 L1433.03 27.2059 L1440.53 27.2059 L1440.53 34.2544 Q1443.2 30.163 1446.81 28.1376 Q1450.45 26.1121 1455.19 26.1121 Q1463.01 26.1121 1467.02 30.9732 Q1471.03 35.7938 1471.03 45.1919 Z" fill="#000000" fill-rule="nonzero" fill-opacity="1"></path><path clip-path="url(#clip950)" d="M1518.55 28.9478 L1518.55 35.9153 Q1515.39 34.1734 1512.19 33.3227 Q1509.03 32.4315 1505.79 32.4315 Q1498.54 32.4315 1494.53 37.0496 Q1490.52 41.6271 1490.52 49.9314 Q1490.52 58.2358 1494.53 62.8538 Q1498.54 67.4314 1505.79 67.4314 Q1509.03 67.4314 1512.19 66.5807 Q1515.39 65.6895 1518.55 63.9476 L1518.55 70.8341 Q1515.43 72.2924 1512.07 73.0216 Q1508.75 73.7508 1504.98 73.7508 Q1494.73 73.7508 1488.69 67.3098 Q1482.66 60.8689 1482.66 49.9314 Q1482.66 38.832 1488.73 32.472 Q1494.85 26.1121 1505.47 26.1121 Q1508.91 26.1121 1512.19 26.8413 Q1515.47 27.5299 1518.55 28.9478 Z" fill="#000000" fill-rule="nonzero" fill-opacity="1"></path><path clip-path="url(#clip950)" d="M1570.32 48.0275 L1570.32 51.6733 L1536.05 51.6733 Q1536.54 59.3701 1540.67 63.421 Q1544.84 67.4314 1552.25 67.4314 Q1556.55 67.4314 1560.56 66.3781 Q1564.61 65.3249 1568.58 63.2184 L1568.58 70.267 Q1564.57 71.9684 1560.35 72.8596 Q1556.14 73.7508 1551.81 73.7508 Q1540.95 73.7508 1534.59 67.4314 Q1528.27 61.1119 1528.27 50.3365 Q1528.27 39.1965 1534.27 32.6746 Q1540.3 26.1121 1550.51 26.1121 Q1559.67 26.1121 1564.97 32.0264 Q1570.32 37.9003 1570.32 48.0275 M1562.87 45.84 Q1562.79 39.7232 1559.42 36.0774 Q1556.1 32.4315 1550.59 32.4315 Q1544.35 32.4315 1540.59 35.9558 Q1536.86 39.4801 1536.29 45.8805 L1562.87 45.84 Z" fill="#000000" fill-rule="nonzero" fill-opacity="1"></path><path clip-path="url(#clip950)" d="M1609.25 12.096 L1617.43 12.096 L1617.43 72.576 L1609.25 72.576 L1609.25 12.096 Z" fill="#000000" fill-rule="nonzero" fill-opacity="1"></path><path clip-path="url(#clip950)" d="M1671.11 45.1919 L1671.11 72.576 L1663.65 72.576 L1663.65 45.4349 Q1663.65 38.994 1661.14 35.7938 Q1658.63 32.5936 1653.61 32.5936 Q1647.57 32.5936 1644.09 36.4419 Q1640.6 40.2903 1640.6 46.9338 L1640.6 72.576 L1633.11 72.576 L1633.11 27.2059 L1640.6 27.2059 L1640.6 34.2544 Q1643.28 30.163 1646.88 28.1376 Q1650.53 26.1121 1655.27 26.1121 Q1663.09 26.1121 1667.1 30.9732 Q1671.11 35.7938 1671.11 45.1919 Z" fill="#000000" fill-rule="nonzero" fill-opacity="1"></path><path clip-path="url(#clip950)" d="M1724.78 48.0275 L1724.78 51.6733 L1690.51 51.6733 Q1691 59.3701 1695.13 63.421 Q1699.3 67.4314 1706.71 67.4314 Q1711.01 67.4314 1715.02 66.3781 Q1719.07 65.3249 1723.04 63.2184 L1723.04 70.267 Q1719.03 71.9684 1714.82 72.8596 Q1710.6 73.7508 1706.27 73.7508 Q1695.41 73.7508 1689.05 67.4314 Q1682.73 61.1119 1682.73 50.3365 Q1682.73 39.1965 1688.73 32.6746 Q1694.76 26.1121 1704.97 26.1121 Q1714.13 26.1121 1719.43 32.0264 Q1724.78 37.9003 1724.78 48.0275 M1717.33 45.84 Q1717.25 39.7232 1713.88 36.0774 Q1710.56 32.4315 1705.05 32.4315 Q1698.81 32.4315 1695.05 35.9558 Q1691.32 39.4801 1690.75 45.8805 L1717.33 45.84 Z" fill="#000000" fill-rule="nonzero" fill-opacity="1"></path><path clip-path="url(#clip950)" d="M1773.27 27.2059 L1756.86 49.2833 L1774.12 72.576 L1765.33 72.576 L1752.12 54.752 L1738.92 72.576 L1730.13 72.576 L1747.75 48.8377 L1731.63 27.2059 L1740.42 27.2059 L1752.45 43.369 L1764.48 27.2059 L1773.27 27.2059 Z" fill="#000000" fill-rule="nonzero" fill-opacity="1"></path><path clip-path="url(#clip950)" d="M1805.27 49.7694 Q1796.24 49.7694 1792.76 51.8354 Q1789.27 53.9013 1789.27 58.8839 Q1789.27 62.8538 1791.86 65.2034 Q1794.5 67.5124 1798.99 67.5124 Q1805.19 67.5124 1808.92 63.1374 Q1812.69 58.7219 1812.69 51.4303 L1812.69 49.7694 L1805.27 49.7694 M1820.14 46.6907 L1820.14 72.576 L1812.69 72.576 L1812.69 65.6895 Q1810.13 69.8214 1806.33 71.8063 Q1802.52 73.7508 1797.01 73.7508 Q1790.04 73.7508 1785.91 69.8619 Q1781.82 65.9325 1781.82 59.3701 Q1781.82 51.7138 1786.92 47.825 Q1792.07 43.9361 1802.23 43.9361 L1812.69 43.9361 L1812.69 43.2069 Q1812.69 38.0623 1809.28 35.2672 Q1805.92 32.4315 1799.8 32.4315 Q1795.91 32.4315 1792.23 33.3632 Q1788.54 34.295 1785.14 36.1584 L1785.14 29.2718 Q1789.23 27.692 1793.08 26.9223 Q1796.93 26.1121 1800.57 26.1121 Q1810.42 26.1121 1815.28 31.2163 Q1820.14 36.3204 1820.14 46.6907 Z" fill="#000000" fill-rule="nonzero" fill-opacity="1"></path><path clip-path="url(#clip950)" d="M1868.14 28.9478 L1868.14 35.9153 Q1864.98 34.1734 1861.78 33.3227 Q1858.62 32.4315 1855.38 32.4315 Q1848.13 32.4315 1844.12 37.0496 Q1840.11 41.6271 1840.11 49.9314 Q1840.11 58.2358 1844.12 62.8538 Q1848.13 67.4314 1855.38 67.4314 Q1858.62 67.4314 1861.78 66.5807 Q1864.98 65.6895 1868.14 63.9476 L1868.14 70.8341 Q1865.02 72.2924 1861.66 73.0216 Q1858.34 73.7508 1854.57 73.7508 Q1844.32 73.7508 1838.29 67.3098 Q1832.25 60.8689 1832.25 49.9314 Q1832.25 38.832 1838.33 32.472 Q1844.44 26.1121 1855.06 26.1121 Q1858.5 26.1121 1861.78 26.8413 Q1865.06 27.5299 1868.14 28.9478 Z" fill="#000000" fill-rule="nonzero" fill-opacity="1"></path><path clip-path="url(#clip950)" d="M1888.48 14.324 L1888.48 27.2059 L1903.83 27.2059 L1903.83 32.9987 L1888.48 32.9987 L1888.48 57.6282 Q1888.48 63.1779 1889.98 64.7578 Q1891.52 66.3376 1896.17 66.3376 L1903.83 66.3376 L1903.83 72.576 L1896.17 72.576 Q1887.55 72.576 1884.27 69.3758 Q1880.98 66.1351 1880.98 57.6282 L1880.98 32.9987 L1875.52 32.9987 L1875.52 27.2059 L1880.98 27.2059 L1880.98 14.324 L1888.48 14.324 Z" fill="#000000" fill-rule="nonzero" fill-opacity="1"></path><path clip-path="url(#clip950)" d="M1981.57 63.9476 L1981.57 47.7034 L1968.2 47.7034 L1968.2 40.9789 L1989.67 40.9789 L1989.67 66.9452 Q1984.93 70.3075 1979.22 72.0494 Q1973.51 73.7508 1967.03 73.7508 Q1952.85 73.7508 1944.83 65.4869 Q1936.85 57.1826 1936.85 42.3968 Q1936.85 27.5705 1944.83 19.3066 Q1952.85 11.0023 1967.03 11.0023 Q1972.94 11.0023 1978.25 12.4606 Q1983.59 13.9189 1988.09 16.7545 L1988.09 25.464 Q1983.55 21.6156 1978.45 19.6712 Q1973.34 17.7268 1967.71 17.7268 Q1956.61 17.7268 1951.02 23.9246 Q1945.47 30.1225 1945.47 42.3968 Q1945.47 54.6305 1951.02 60.8284 Q1956.61 67.0263 1967.71 67.0263 Q1972.05 67.0263 1975.45 66.2971 Q1978.85 65.5274 1981.57 63.9476 Z" fill="#000000" fill-rule="nonzero" fill-opacity="1"></path><path clip-path="url(#clip950)" d="M2004.62 12.096 L2016.81 12.096 L2032.24 53.2532 L2047.76 12.096 L2059.95 12.096 L2059.95 72.576 L2051.97 72.576 L2051.97 19.4686 L2036.38 60.9499 L2028.15 60.9499 L2012.56 19.4686 L2012.56 72.576 L2004.62 72.576 L2004.62 12.096 Z" fill="#000000" fill-rule="nonzero" fill-opacity="1"></path><path clip-path="url(#clip950)" d="M2104.88 44.2197 Q2107.51 45.1109 2109.98 48.0275 Q2112.49 50.9442 2115 56.0483 L2123.31 72.576 L2114.52 72.576 L2106.78 57.061 Q2103.78 50.9847 2100.95 48.9997 Q2098.15 47.0148 2093.29 47.0148 L2084.38 47.0148 L2084.38 72.576 L2076.2 72.576 L2076.2 12.096 L2094.67 12.096 Q2105.04 12.096 2110.14 16.4305 Q2115.25 20.7649 2115.25 29.5149 Q2115.25 35.2267 2112.57 38.994 Q2109.94 42.7613 2104.88 44.2197 M2084.38 18.8205 L2084.38 40.2903 L2094.67 40.2903 Q2100.58 40.2903 2103.58 37.5762 Q2106.62 34.8216 2106.62 29.5149 Q2106.62 24.2082 2103.58 21.5346 Q2100.58 18.8205 2094.67 18.8205 L2084.38 18.8205 Z" fill="#000000" fill-rule="nonzero" fill-opacity="1"></path><path clip-path="url(#clip950)" d="M2133.84 12.096 L2172.08 12.096 L2172.08 18.9825 L2142.02 18.9825 L2142.02 36.8875 L2170.83 36.8875 L2170.83 43.7741 L2142.02 43.7741 L2142.02 65.6895 L2172.81 65.6895 L2172.81 72.576 L2133.84 72.576 L2133.84 12.096 Z" fill="#000000" fill-rule="nonzero" fill-opacity="1"></path><path clip-path="url(#clip950)" d="M2222.52 14.0809 L2222.52 22.0612 Q2217.86 19.8332 2213.73 18.7395 Q2209.59 17.6457 2205.74 17.6457 Q2199.06 17.6457 2195.42 20.2383 Q2191.81 22.8309 2191.81 27.611 Q2191.81 31.6214 2194.2 33.6873 Q2196.63 35.7128 2203.35 36.9686 L2208.3 37.9813 Q2217.45 39.7232 2221.79 44.1387 Q2226.16 48.5136 2226.16 55.8863 Q2226.16 64.6767 2220.25 69.2137 Q2214.37 73.7508 2202.99 73.7508 Q2198.7 73.7508 2193.84 72.7785 Q2189.01 71.8063 2183.83 69.9024 L2183.83 61.4765 Q2188.81 64.2716 2193.59 65.6895 Q2198.37 67.1073 2202.99 67.1073 Q2210 67.1073 2213.81 64.3527 Q2217.61 61.598 2217.61 56.4939 Q2217.61 52.0379 2214.86 49.5264 Q2212.15 47.0148 2205.91 45.759 L2200.92 44.7868 Q2191.77 42.9639 2187.68 39.075 Q2183.59 35.1862 2183.59 28.2591 Q2183.59 20.2383 2189.22 15.6203 Q2194.89 11.0023 2204.81 11.0023 Q2209.07 11.0023 2213.48 11.7719 Q2217.9 12.5416 2222.52 14.0809 Z" fill="#000000" fill-rule="nonzero" fill-opacity="1"></path><circle clip-path="url(#clip952)" cx="330.025" cy="1386.4" r="14.4" fill="#009af9" fill-rule="evenodd" fill-opacity="1" stroke="#000000" stroke-opacity="1" stroke-width="3.2"></circle>
<circle clip-path="url(#clip952)" cx="885.871" cy="886.186" r="14.4" fill="#009af9" fill-rule="evenodd" fill-opacity="1" stroke="#000000" stroke-opacity="1" stroke-width="3.2"></circle>
<circle clip-path="url(#clip952)" cx="1309.55" cy="353.352" r="14.4" fill="#009af9" fill-rule="evenodd" fill-opacity="1" stroke="#000000" stroke-opacity="1" stroke-width="3.2"></circle>
<circle clip-path="url(#clip952)" cx="1733.23" cy="313.553" r="14.4" fill="#009af9" fill-rule="evenodd" fill-opacity="1" stroke="#000000" stroke-opacity="1" stroke-width="3.2"></circle>
<circle clip-path="url(#clip952)" cx="2293.84" cy="160.256" r="14.4" fill="#009af9" fill-rule="evenodd" fill-opacity="1" stroke="#000000" stroke-opacity="1" stroke-width="3.2"></circle>
</svg>