<svg xmlns="http://www.w3.org/2000/svg" xmlns:xlink="http://www.w3.org/1999/xlink" width="600" height="400" viewBox="0 0 2400 1600">
<defs>
  <clipPath id="clip370">
    <rect x="0" y="0" width="2400" height="1600"></rect>
  </clipPath>
</defs>
<path clip-path="url(#clip370)" d="M0 1600 L2400 1600 L2400 0 L0 0  Z" fill="#ffffff" fill-rule="evenodd" fill-opacity="1"></path>
<defs>
  <clipPath id="clip371">
    <rect x="480" y="0" width="1681" height="1600"></rect>
  </clipPath>
</defs>
<path clip-path="url(#clip370)" d="M300.786 1410.9 L2352.76 1410.9 L2352.76 123.472 L300.786 123.472  Z" fill="#ffffff" fill-rule="evenodd" fill-opacity="1"></path>
<defs>
  <clipPath id="clip372">
    <rect x="300" y="123" width="2053" height="1288"></rect>
  </clipPath>
</defs>
<polyline clip-path="url(#clip372)" style="stroke:#000000; stroke-linecap:round; stroke-linejoin:round; stroke-width:2; stroke-opacity:0.1; fill:none" points="2294.68,1410.9 2294.68,123.472 "></polyline>
<polyline clip-path="url(#clip372)" style="stroke:#000000; stroke-linecap:round; stroke-linejoin:round; stroke-width:2; stroke-opacity:0.1; fill:none" points="1972.04,1410.9 1972.04,123.472 "></polyline>
<polyline clip-path="url(#clip372)" style="stroke:#000000; stroke-linecap:round; stroke-linejoin:round; stroke-width:2; stroke-opacity:0.1; fill:none" points="1649.41,1410.9 1649.41,123.472 "></polyline>
<polyline clip-path="url(#clip372)" style="stroke:#000000; stroke-linecap:round; stroke-linejoin:round; stroke-width:2; stroke-opacity:0.1; fill:none" points="1326.77,1410.9 1326.77,123.472 "></polyline>
<polyline clip-path="url(#clip372)" style="stroke:#000000; stroke-linecap:round; stroke-linejoin:round; stroke-width:2; stroke-opacity:0.1; fill:none" points="1004.13,1410.9 1004.13,123.472 "></polyline>
<polyline clip-path="url(#clip372)" style="stroke:#000000; stroke-linecap:round; stroke-linejoin:round; stroke-width:2; stroke-opacity:0.1; fill:none" points="681.497,1410.9 681.497,123.472 "></polyline>
<polyline clip-path="url(#clip372)" style="stroke:#000000; stroke-linecap:round; stroke-linejoin:round; stroke-width:2; stroke-opacity:0.1; fill:none" points="358.861,1410.9 358.861,123.472 "></polyline>
<polyline clip-path="url(#clip370)" style="stroke:#000000; stroke-linecap:round; stroke-linejoin:round; stroke-width:4; stroke-opacity:1; fill:none" points="300.786,1410.9 2352.76,1410.9 "></polyline>
<polyline clip-path="url(#clip370)" style="stroke:#000000; stroke-linecap:round; stroke-linejoin:round; stroke-width:4; stroke-opacity:1; fill:none" points="2294.68,1410.9 2294.68,1392 "></polyline>
<polyline clip-path="url(#clip370)" style="stroke:#000000; stroke-linecap:round; stroke-linejoin:round; stroke-width:4; stroke-opacity:1; fill:none" points="1972.04,1410.9 1972.04,1392 "></polyline>
<polyline clip-path="url(#clip370)" style="stroke:#000000; stroke-linecap:round; stroke-linejoin:round; stroke-width:4; stroke-opacity:1; fill:none" points="1649.41,1410.9 1649.41,1392 "></polyline>
<polyline clip-path="url(#clip370)" style="stroke:#000000; stroke-linecap:round; stroke-linejoin:round; stroke-width:4; stroke-opacity:1; fill:none" points="1326.77,1410.9 1326.77,1392 "></polyline>
<polyline clip-path="url(#clip370)" style="stroke:#000000; stroke-linecap:round; stroke-linejoin:round; stroke-width:4; stroke-opacity:1; fill:none" points="1004.13,1410.9 1004.13,1392 "></polyline>
<polyline clip-path="url(#clip370)" style="stroke:#000000; stroke-linecap:round; stroke-linejoin:round; stroke-width:4; stroke-opacity:1; fill:none" points="681.497,1410.9 681.497,1392 "></polyline>
<polyline clip-path="url(#clip370)" style="stroke:#000000; stroke-linecap:round; stroke-linejoin:round; stroke-width:4; stroke-opacity:1; fill:none" points="358.861,1410.9 358.861,1392 "></polyline>
<path clip-path="url(#clip370)" d="M2244.95 1485.02 L2252.59 1485.02 L2252.59 1458.66 L2244.28 1460.32 L2244.28 1456.06 L2252.54 1454.4 L2257.22 1454.4 L2257.22 1485.02 L2264.85 1485.02 L2264.85 1488.96 L2244.95 1488.96 L2244.95 1485.02 Z" fill="#000000" fill-rule="nonzero" fill-opacity="1"></path><path clip-path="url(#clip370)" d="M2284.3 1457.48 Q2280.69 1457.48 2278.86 1461.04 Q2277.05 1464.58 2277.05 1471.71 Q2277.05 1478.82 2278.86 1482.38 Q2280.69 1485.92 2284.3 1485.92 Q2287.93 1485.92 2289.74 1482.38 Q2291.57 1478.82 2291.57 1471.71 Q2291.57 1464.58 2289.74 1461.04 Q2287.93 1457.48 2284.3 1457.48 M2284.3 1453.77 Q2290.11 1453.77 2293.16 1458.38 Q2296.24 1462.96 2296.24 1471.71 Q2296.24 1480.44 2293.16 1485.04 Q2290.11 1489.63 2284.3 1489.63 Q2278.49 1489.63 2275.41 1485.04 Q2272.35 1480.44 2272.35 1471.71 Q2272.35 1462.96 2275.41 1458.38 Q2278.49 1453.77 2284.3 1453.77 Z" fill="#000000" fill-rule="nonzero" fill-opacity="1"></path><path clip-path="url(#clip370)" d="M2296.24 1447.87 L2320.35 1447.87 L2320.35 1451.07 L2296.24 1451.07 L2296.24 1447.87 Z" fill="#000000" fill-rule="nonzero" fill-opacity="1"></path><path clip-path="url(#clip370)" d="M2331.83 1458.35 L2345.09 1458.35 L2345.09 1461.55 L2327.26 1461.55 L2327.26 1458.35 Q2329.42 1456.11 2333.14 1452.35 Q2336.89 1448.57 2337.85 1447.48 Q2339.67 1445.43 2340.38 1444.02 Q2341.12 1442.59 2341.12 1441.22 Q2341.12 1438.98 2339.54 1437.57 Q2337.98 1436.16 2335.46 1436.16 Q2333.67 1436.16 2331.68 1436.78 Q2329.7 1437.4 2327.45 1438.66 L2327.45 1434.82 Q2329.74 1433.9 2331.73 1433.43 Q2333.73 1432.96 2335.38 1432.96 Q2339.75 1432.96 2342.34 1435.14 Q2344.94 1437.32 2344.94 1440.97 Q2344.94 1442.7 2344.28 1444.26 Q2343.64 1445.8 2341.93 1447.91 Q2341.46 1448.46 2338.94 1451.07 Q2336.42 1453.67 2331.83 1458.35 Z" fill="#000000" fill-rule="nonzero" fill-opacity="1"></path><path clip-path="url(#clip370)" d="M1921.92 1485.02 L1929.56 1485.02 L1929.56 1458.66 L1921.25 1460.32 L1921.25 1456.06 L1929.52 1454.4 L1934.19 1454.4 L1934.19 1485.02 L1941.83 1485.02 L1941.83 1488.96 L1921.92 1488.96 L1921.92 1485.02 Z" fill="#000000" fill-rule="nonzero" fill-opacity="1"></path><path clip-path="url(#clip370)" d="M1961.28 1457.48 Q1957.67 1457.48 1955.84 1461.04 Q1954.03 1464.58 1954.03 1471.71 Q1954.03 1478.82 1955.84 1482.38 Q1957.67 1485.92 1961.28 1485.92 Q1964.91 1485.92 1966.72 1482.38 Q1968.54 1478.82 1968.54 1471.71 Q1968.54 1464.58 1966.72 1461.04 Q1964.91 1457.48 1961.28 1457.48 M1961.28 1453.77 Q1967.09 1453.77 1970.14 1458.38 Q1973.22 1462.96 1973.22 1471.71 Q1973.22 1480.44 1970.14 1485.04 Q1967.09 1489.63 1961.28 1489.63 Q1955.47 1489.63 1952.39 1485.04 Q1949.33 1480.44 1949.33 1471.71 Q1949.33 1462.96 1952.39 1458.38 Q1955.47 1453.77 1961.28 1453.77 Z" fill="#000000" fill-rule="nonzero" fill-opacity="1"></path><path clip-path="url(#clip370)" d="M1973.22 1447.87 L1997.33 1447.87 L1997.33 1451.07 L1973.22 1451.07 L1973.22 1447.87 Z" fill="#000000" fill-rule="nonzero" fill-opacity="1"></path><path clip-path="url(#clip370)" d="M2017.04 1446.41 Q2019.77 1446.99 2021.29 1448.83 Q2022.84 1450.68 2022.84 1453.38 Q2022.84 1457.54 2019.98 1459.82 Q2017.12 1462.09 2011.85 1462.09 Q2010.08 1462.09 2008.2 1461.73 Q2006.34 1461.4 2004.35 1460.7 L2004.35 1457.03 Q2005.93 1457.95 2007.81 1458.42 Q2009.69 1458.89 2011.74 1458.89 Q2015.31 1458.89 2017.17 1457.48 Q2019.06 1456.07 2019.06 1453.38 Q2019.06 1450.9 2017.31 1449.51 Q2015.58 1448.1 2012.47 1448.1 L2009.2 1448.1 L2009.2 1444.98 L2012.62 1444.98 Q2015.43 1444.98 2016.91 1443.87 Q2018.4 1442.74 2018.4 1440.63 Q2018.4 1438.47 2016.85 1437.32 Q2015.33 1436.16 2012.47 1436.16 Q2010.91 1436.16 2009.12 1436.49 Q2007.34 1436.83 2005.19 1437.55 L2005.19 1434.16 Q2007.36 1433.56 2009.24 1433.26 Q2011.14 1432.96 2012.81 1432.96 Q2017.14 1432.96 2019.66 1434.93 Q2022.18 1436.89 2022.18 1440.24 Q2022.18 1442.57 2020.84 1444.19 Q2019.51 1445.79 2017.04 1446.41 Z" fill="#000000" fill-rule="nonzero" fill-opacity="1"></path><path clip-path="url(#clip370)" d="M1598.83 1485.02 L1606.47 1485.02 L1606.47 1458.66 L1598.16 1460.32 L1598.16 1456.06 L1606.42 1454.4 L1611.1 1454.4 L1611.1 1485.02 L1618.73 1485.02 L1618.73 1488.96 L1598.83 1488.96 L1598.83 1485.02 Z" fill="#000000" fill-rule="nonzero" fill-opacity="1"></path><path clip-path="url(#clip370)" d="M1638.18 1457.48 Q1634.57 1457.48 1632.74 1461.04 Q1630.93 1464.58 1630.93 1471.71 Q1630.93 1478.82 1632.74 1482.38 Q1634.57 1485.92 1638.18 1485.92 Q1641.81 1485.92 1643.62 1482.38 Q1645.45 1478.82 1645.45 1471.71 Q1645.45 1464.58 1643.62 1461.04 Q1641.81 1457.48 1638.18 1457.48 M1638.18 1453.77 Q1643.99 1453.77 1647.04 1458.38 Q1650.12 1462.96 1650.12 1471.71 Q1650.12 1480.44 1647.04 1485.04 Q1643.99 1489.63 1638.18 1489.63 Q1632.37 1489.63 1629.29 1485.04 Q1626.23 1480.44 1626.23 1471.71 Q1626.23 1462.96 1629.29 1458.38 Q1632.37 1453.77 1638.18 1453.77 Z" fill="#000000" fill-rule="nonzero" fill-opacity="1"></path><path clip-path="url(#clip370)" d="M1650.12 1447.87 L1674.23 1447.87 L1674.23 1451.07 L1650.12 1451.07 L1650.12 1447.87 Z" fill="#000000" fill-rule="nonzero" fill-opacity="1"></path><path clip-path="url(#clip370)" d="M1692.87 1436.78 L1683.28 1451.77 L1692.87 1451.77 L1692.87 1436.78 M1691.88 1433.47 L1696.65 1433.47 L1696.65 1451.77 L1700.66 1451.77 L1700.66 1454.93 L1696.65 1454.93 L1696.65 1461.55 L1692.87 1461.55 L1692.87 1454.93 L1680.2 1454.93 L1680.2 1451.26 L1691.88 1433.47 Z" fill="#000000" fill-rule="nonzero" fill-opacity="1"></path><path clip-path="url(#clip370)" d="M1276.79 1485.02 L1284.43 1485.02 L1284.43 1458.66 L1276.12 1460.32 L1276.12 1456.06 L1284.38 1454.4 L1289.06 1454.4 L1289.06 1485.02 L1296.7 1485.02 L1296.7 1488.96 L1276.79 1488.96 L1276.79 1485.02 Z" fill="#000000" fill-rule="nonzero" fill-opacity="1"></path><path clip-path="url(#clip370)" d="M1316.14 1457.48 Q1312.53 1457.48 1310.7 1461.04 Q1308.9 1464.58 1308.9 1471.71 Q1308.9 1478.82 1310.7 1482.38 Q1312.53 1485.92 1316.14 1485.92 Q1319.78 1485.92 1321.58 1482.38 Q1323.41 1478.82 1323.41 1471.71 Q1323.41 1464.58 1321.58 1461.04 Q1319.78 1457.48 1316.14 1457.48 M1316.14 1453.77 Q1321.95 1453.77 1325.01 1458.38 Q1328.09 1462.96 1328.09 1471.71 Q1328.09 1480.44 1325.01 1485.04 Q1321.95 1489.63 1316.14 1489.63 Q1310.33 1489.63 1307.25 1485.04 Q1304.2 1480.44 1304.2 1471.71 Q1304.2 1462.96 1307.25 1458.38 Q1310.33 1453.77 1316.14 1453.77 Z" fill="#000000" fill-rule="nonzero" fill-opacity="1"></path><path clip-path="url(#clip370)" d="M1328.09 1447.87 L1352.2 1447.87 L1352.2 1451.07 L1328.09 1451.07 L1328.09 1447.87 Z" fill="#000000" fill-rule="nonzero" fill-opacity="1"></path><path clip-path="url(#clip370)" d="M1360.44 1433.47 L1375.35 1433.47 L1375.35 1436.66 L1363.92 1436.66 L1363.92 1443.55 Q1364.74 1443.27 1365.57 1443.13 Q1366.4 1442.98 1367.23 1442.98 Q1371.93 1442.98 1374.68 1445.56 Q1377.42 1448.14 1377.42 1452.54 Q1377.42 1457.07 1374.6 1459.59 Q1371.78 1462.09 1366.64 1462.09 Q1364.88 1462.09 1363.03 1461.79 Q1361.21 1461.49 1359.25 1460.89 L1359.25 1457.07 Q1360.95 1457.99 1362.75 1458.44 Q1364.56 1458.89 1366.57 1458.89 Q1369.82 1458.89 1371.72 1457.18 Q1373.62 1455.47 1373.62 1452.54 Q1373.62 1449.6 1371.72 1447.89 Q1369.82 1446.18 1366.57 1446.18 Q1365.05 1446.18 1363.52 1446.52 Q1362.02 1446.86 1360.44 1447.57 L1360.44 1433.47 Z" fill="#000000" fill-rule="nonzero" fill-opacity="1"></path><path clip-path="url(#clip370)" d="M953.685 1485.02 L961.324 1485.02 L961.324 1458.66 L953.014 1460.32 L953.014 1456.06 L961.278 1454.4 L965.954 1454.4 L965.954 1485.02 L973.593 1485.02 L973.593 1488.96 L953.685 1488.96 L953.685 1485.02 Z" fill="#000000" fill-rule="nonzero" fill-opacity="1"></path><path clip-path="url(#clip370)" d="M993.037 1457.48 Q989.426 1457.48 987.597 1461.04 Q985.792 1464.58 985.792 1471.71 Q985.792 1478.82 987.597 1482.38 Q989.426 1485.92 993.037 1485.92 Q996.671 1485.92 998.477 1482.38 Q1000.31 1478.82 1000.31 1471.71 Q1000.31 1464.58 998.477 1461.04 Q996.671 1457.48 993.037 1457.48 M993.037 1453.77 Q998.847 1453.77 1001.9 1458.38 Q1004.98 1462.96 1004.98 1471.71 Q1004.98 1480.44 1001.9 1485.04 Q998.847 1489.63 993.037 1489.63 Q987.227 1489.63 984.148 1485.04 Q981.092 1480.44 981.092 1471.71 Q981.092 1462.96 984.148 1458.38 Q987.227 1453.77 993.037 1453.77 Z" fill="#000000" fill-rule="nonzero" fill-opacity="1"></path><path clip-path="url(#clip370)" d="M1004.98 1447.87 L1029.09 1447.87 L1029.09 1451.07 L1004.98 1451.07 L1004.98 1447.87 Z" fill="#000000" fill-rule="nonzero" fill-opacity="1"></path><path clip-path="url(#clip370)" d="M1045.89 1445.99 Q1043.33 1445.99 1041.83 1447.74 Q1040.34 1449.49 1040.34 1452.54 Q1040.34 1455.57 1041.83 1457.33 Q1043.33 1459.08 1045.89 1459.08 Q1048.45 1459.08 1049.93 1457.33 Q1051.44 1455.57 1051.44 1452.54 Q1051.44 1449.49 1049.93 1447.74 Q1048.45 1445.99 1045.89 1445.99 M1053.43 1434.09 L1053.43 1437.55 Q1052 1436.87 1050.53 1436.51 Q1049.09 1436.16 1047.66 1436.16 Q1043.89 1436.16 1041.9 1438.69 Q1039.93 1441.23 1039.64 1446.37 Q1040.75 1444.73 1042.43 1443.87 Q1044.1 1442.98 1046.11 1442.98 Q1050.35 1442.98 1052.79 1445.56 Q1055.25 1448.12 1055.25 1452.54 Q1055.25 1456.86 1052.7 1459.48 Q1050.14 1462.09 1045.89 1462.09 Q1041.02 1462.09 1038.44 1458.37 Q1035.86 1454.62 1035.86 1447.53 Q1035.86 1440.88 1039.02 1436.93 Q1042.18 1432.96 1047.51 1432.96 Q1048.94 1432.96 1050.38 1433.24 Q1051.85 1433.52 1053.43 1434.09 Z" fill="#000000" fill-rule="nonzero" fill-opacity="1"></path><path clip-path="url(#clip370)" d="M631.481 1485.02 L639.12 1485.02 L639.12 1458.66 L630.81 1460.32 L630.81 1456.06 L639.074 1454.4 L643.749 1454.4 L643.749 1485.02 L651.388 1485.02 L651.388 1488.96 L631.481 1488.96 L631.481 1485.02 Z" fill="#000000" fill-rule="nonzero" fill-opacity="1"></path><path clip-path="url(#clip370)" d="M670.833 1457.48 Q667.222 1457.48 665.393 1461.04 Q663.587 1464.58 663.587 1471.71 Q663.587 1478.82 665.393 1482.38 Q667.222 1485.92 670.833 1485.92 Q674.467 1485.92 676.272 1482.38 Q678.101 1478.82 678.101 1471.71 Q678.101 1464.58 676.272 1461.04 Q674.467 1457.48 670.833 1457.48 M670.833 1453.77 Q676.643 1453.77 679.698 1458.38 Q682.777 1462.96 682.777 1471.71 Q682.777 1480.44 679.698 1485.04 Q676.643 1489.63 670.833 1489.63 Q665.023 1489.63 661.944 1485.04 Q658.888 1480.44 658.888 1471.71 Q658.888 1462.96 661.944 1458.38 Q665.023 1453.77 670.833 1453.77 Z" fill="#000000" fill-rule="nonzero" fill-opacity="1"></path><path clip-path="url(#clip370)" d="M682.777 1447.87 L706.889 1447.87 L706.889 1451.07 L682.777 1451.07 L682.777 1447.87 Z" fill="#000000" fill-rule="nonzero" fill-opacity="1"></path><path clip-path="url(#clip370)" d="M714.13 1433.47 L732.185 1433.47 L732.185 1435.08 L721.991 1461.55 L718.023 1461.55 L727.615 1436.66 L714.13 1436.66 L714.13 1433.47 Z" fill="#000000" fill-rule="nonzero" fill-opacity="1"></path><path clip-path="url(#clip370)" d="M308.515 1485.02 L316.154 1485.02 L316.154 1458.66 L307.844 1460.32 L307.844 1456.06 L316.108 1454.4 L320.784 1454.4 L320.784 1485.02 L328.422 1485.02 L328.422 1488.96 L308.515 1488.96 L308.515 1485.02 Z" fill="#000000" fill-rule="nonzero" fill-opacity="1"></path><path clip-path="url(#clip370)" d="M347.867 1457.48 Q344.256 1457.48 342.427 1461.04 Q340.621 1464.58 340.621 1471.71 Q340.621 1478.82 342.427 1482.38 Q344.256 1485.92 347.867 1485.92 Q351.501 1485.92 353.307 1482.38 Q355.135 1478.82 355.135 1471.71 Q355.135 1464.58 353.307 1461.04 Q351.501 1457.48 347.867 1457.48 M347.867 1453.77 Q353.677 1453.77 356.732 1458.38 Q359.811 1462.96 359.811 1471.71 Q359.811 1480.44 356.732 1485.04 Q353.677 1489.63 347.867 1489.63 Q342.057 1489.63 338.978 1485.04 Q335.922 1480.44 335.922 1471.71 Q335.922 1462.96 338.978 1458.38 Q342.057 1453.77 347.867 1453.77 Z" fill="#000000" fill-rule="nonzero" fill-opacity="1"></path><path clip-path="url(#clip370)" d="M359.811 1447.87 L383.923 1447.87 L383.923 1451.07 L359.811 1451.07 L359.811 1447.87 Z" fill="#000000" fill-rule="nonzero" fill-opacity="1"></path><path clip-path="url(#clip370)" d="M400.248 1448.21 Q397.54 1448.21 395.978 1449.66 Q394.436 1451.11 394.436 1453.65 Q394.436 1456.19 395.978 1457.63 Q397.54 1459.08 400.248 1459.08 Q402.956 1459.08 404.517 1457.63 Q406.078 1456.17 406.078 1453.65 Q406.078 1451.11 404.517 1449.66 Q402.975 1448.21 400.248 1448.21 M396.449 1446.59 Q394.004 1445.99 392.631 1444.32 Q391.277 1442.64 391.277 1440.24 Q391.277 1436.87 393.665 1434.91 Q396.073 1432.96 400.248 1432.96 Q404.442 1432.96 406.831 1434.91 Q409.219 1436.87 409.219 1440.24 Q409.219 1442.64 407.846 1444.32 Q406.492 1445.99 404.066 1446.59 Q406.812 1447.23 408.335 1449.1 Q409.877 1450.96 409.877 1453.65 Q409.877 1457.73 407.376 1459.91 Q404.893 1462.09 400.248 1462.09 Q395.602 1462.09 393.101 1459.91 Q390.618 1457.73 390.618 1453.65 Q390.618 1450.96 392.161 1449.1 Q393.703 1447.23 396.449 1446.59 M395.057 1440.59 Q395.057 1442.78 396.411 1444 Q397.784 1445.22 400.248 1445.22 Q402.693 1445.22 404.066 1444 Q405.458 1442.78 405.458 1440.59 Q405.458 1438.41 404.066 1437.19 Q402.693 1435.97 400.248 1435.97 Q397.784 1435.97 396.411 1437.19 Q395.057 1438.41 395.057 1440.59 Z" fill="#000000" fill-rule="nonzero" fill-opacity="1"></path><path clip-path="url(#clip370)" d="M770.917 1531.03 Q763.915 1531.03 759.777 1536.25 Q755.672 1541.47 755.672 1550.47 Q755.672 1559.45 759.777 1564.67 Q763.915 1569.89 770.917 1569.89 Q777.92 1569.89 781.994 1564.67 Q786.1 1559.45 786.1 1550.47 Q786.1 1541.47 781.994 1536.25 Q777.92 1531.03 770.917 1531.03 M770.917 1525.81 Q780.912 1525.81 786.895 1532.52 Q792.879 1539.21 792.879 1550.47 Q792.879 1561.71 786.895 1568.42 Q780.912 1575.11 770.917 1575.11 Q760.891 1575.11 754.876 1568.42 Q748.892 1561.74 748.892 1550.47 Q748.892 1539.21 754.876 1532.52 Q760.891 1525.81 770.917 1525.81 Z" fill="#000000" fill-rule="nonzero" fill-opacity="1"></path><path clip-path="url(#clip370)" d="M798.481 1538.54 L804.688 1538.54 L815.828 1568.46 L826.967 1538.54 L833.174 1538.54 L819.806 1574.19 L811.849 1574.19 L798.481 1538.54 Z" fill="#000000" fill-rule="nonzero" fill-opacity="1"></path><path clip-path="url(#clip370)" d="M871.75 1554.9 L871.75 1557.76 L844.823 1557.76 Q845.205 1563.81 848.452 1566.99 Q851.73 1570.14 857.555 1570.14 Q860.929 1570.14 864.08 1569.32 Q867.262 1568.49 870.382 1566.83 L870.382 1572.37 Q867.231 1573.71 863.92 1574.41 Q860.61 1575.11 857.205 1575.11 Q848.675 1575.11 843.677 1570.14 Q838.712 1565.18 838.712 1556.71 Q838.712 1547.96 843.423 1542.83 Q848.165 1537.68 856.186 1537.68 Q863.379 1537.68 867.549 1542.33 Q871.75 1546.94 871.75 1554.9 M865.894 1553.18 Q865.83 1548.37 863.188 1545.51 Q860.578 1542.64 856.25 1542.64 Q851.348 1542.64 848.388 1545.41 Q845.46 1548.18 845.014 1553.21 L865.894 1553.18 Z" fill="#000000" fill-rule="nonzero" fill-opacity="1"></path><path clip-path="url(#clip370)" d="M902.019 1544.01 Q901.032 1543.44 899.855 1543.18 Q898.709 1542.9 897.309 1542.9 Q892.343 1542.9 889.67 1546.14 Q887.028 1549.36 887.028 1555.41 L887.028 1574.19 L881.14 1574.19 L881.14 1538.54 L887.028 1538.54 L887.028 1544.08 Q888.874 1540.83 891.834 1539.27 Q894.794 1537.68 899.027 1537.68 Q899.632 1537.68 900.364 1537.77 Q901.096 1537.84 901.987 1538 L902.019 1544.01 Z" fill="#000000" fill-rule="nonzero" fill-opacity="1"></path><path clip-path="url(#clip370)" d="M924.363 1556.27 Q917.265 1556.27 914.528 1557.89 Q911.791 1559.51 911.791 1563.43 Q911.791 1566.55 913.828 1568.39 Q915.896 1570.21 919.429 1570.21 Q924.299 1570.21 927.227 1566.77 Q930.187 1563.3 930.187 1557.57 L930.187 1556.27 L924.363 1556.27 M936.044 1553.85 L936.044 1574.19 L930.187 1574.19 L930.187 1568.77 Q928.182 1572.02 925.19 1573.58 Q922.198 1575.11 917.87 1575.11 Q912.395 1575.11 909.149 1572.05 Q905.934 1568.97 905.934 1563.81 Q905.934 1557.79 909.944 1554.74 Q913.987 1551.68 921.976 1551.68 L930.187 1551.68 L930.187 1551.11 Q930.187 1547.07 927.514 1544.87 Q924.872 1542.64 920.066 1542.64 Q917.01 1542.64 914.114 1543.38 Q911.218 1544.11 908.544 1545.57 L908.544 1540.16 Q911.759 1538.92 914.782 1538.31 Q917.806 1537.68 920.671 1537.68 Q928.405 1537.68 932.224 1541.69 Q936.044 1545.7 936.044 1553.85 Z" fill="#000000" fill-rule="nonzero" fill-opacity="1"></path><path clip-path="url(#clip370)" d="M948.107 1524.66 L953.963 1524.66 L953.963 1574.19 L948.107 1574.19 L948.107 1524.66 Z" fill="#000000" fill-rule="nonzero" fill-opacity="1"></path><path clip-path="url(#clip370)" d="M966.217 1524.66 L972.074 1524.66 L972.074 1574.19 L966.217 1574.19 L966.217 1524.66 Z" fill="#000000" fill-rule="nonzero" fill-opacity="1"></path><path clip-path="url(#clip370)" d="M1010.84 1528.42 L1010.84 1538.54 L1022.9 1538.54 L1022.9 1543.09 L1010.84 1543.09 L1010.84 1562.44 Q1010.84 1566.8 1012.02 1568.04 Q1013.23 1569.28 1016.89 1569.28 L1022.9 1569.28 L1022.9 1574.19 L1016.89 1574.19 Q1010.11 1574.19 1007.53 1571.67 Q1004.95 1569.12 1004.95 1562.44 L1004.95 1543.09 L1000.66 1543.09 L1000.66 1538.54 L1004.95 1538.54 L1004.95 1528.42 L1010.84 1528.42 Z" fill="#000000" fill-rule="nonzero" fill-opacity="1"></path><path clip-path="url(#clip370)" d="M1044.42 1542.64 Q1039.71 1542.64 1036.97 1546.34 Q1034.23 1550 1034.23 1556.39 Q1034.23 1562.79 1036.94 1566.48 Q1039.68 1570.14 1044.42 1570.14 Q1049.1 1570.14 1051.84 1566.45 Q1054.57 1562.76 1054.57 1556.39 Q1054.57 1550.06 1051.84 1546.37 Q1049.1 1542.64 1044.42 1542.64 M1044.42 1537.68 Q1052.06 1537.68 1056.42 1542.64 Q1060.78 1547.61 1060.78 1556.39 Q1060.78 1565.15 1056.42 1570.14 Q1052.06 1575.11 1044.42 1575.11 Q1036.75 1575.11 1032.39 1570.14 Q1028.06 1565.15 1028.06 1556.39 Q1028.06 1547.61 1032.39 1542.64 Q1036.75 1537.68 1044.42 1537.68 Z" fill="#000000" fill-rule="nonzero" fill-opacity="1"></path><path clip-path="url(#clip370)" d="M1070.49 1524.66 L1076.34 1524.66 L1076.34 1574.19 L1070.49 1574.19 L1070.49 1524.66 Z" fill="#000000" fill-rule="nonzero" fill-opacity="1"></path><path clip-path="url(#clip370)" d="M1119.09 1554.9 L1119.09 1557.76 L1092.16 1557.76 Q1092.54 1563.81 1095.79 1566.99 Q1099.07 1570.14 1104.89 1570.14 Q1108.27 1570.14 1111.42 1569.32 Q1114.6 1568.49 1117.72 1566.83 L1117.72 1572.37 Q1114.57 1573.71 1111.26 1574.41 Q1107.95 1575.11 1104.54 1575.11 Q1096.01 1575.11 1091.02 1570.14 Q1086.05 1565.18 1086.05 1556.71 Q1086.05 1547.96 1090.76 1542.83 Q1095.5 1537.68 1103.53 1537.68 Q1110.72 1537.68 1114.89 1542.33 Q1119.09 1546.94 1119.09 1554.9 M1113.23 1553.18 Q1113.17 1548.37 1110.53 1545.51 Q1107.92 1542.64 1103.59 1542.64 Q1098.69 1542.64 1095.73 1545.41 Q1092.8 1548.18 1092.35 1553.21 L1113.23 1553.18 Z" fill="#000000" fill-rule="nonzero" fill-opacity="1"></path><path clip-path="url(#clip370)" d="M1149.36 1544.01 Q1148.37 1543.44 1147.19 1543.18 Q1146.05 1542.9 1144.65 1542.9 Q1139.68 1542.9 1137.01 1546.14 Q1134.37 1549.36 1134.37 1555.41 L1134.37 1574.19 L1128.48 1574.19 L1128.48 1538.54 L1134.37 1538.54 L1134.37 1544.08 Q1136.21 1540.83 1139.17 1539.27 Q1142.13 1537.68 1146.37 1537.68 Q1146.97 1537.68 1147.7 1537.77 Q1148.44 1537.84 1149.33 1538 L1149.36 1544.01 Z" fill="#000000" fill-rule="nonzero" fill-opacity="1"></path><path clip-path="url(#clip370)" d="M1171.7 1556.27 Q1164.6 1556.27 1161.87 1557.89 Q1159.13 1559.51 1159.13 1563.43 Q1159.13 1566.55 1161.17 1568.39 Q1163.24 1570.21 1166.77 1570.21 Q1171.64 1570.21 1174.57 1566.77 Q1177.53 1563.3 1177.53 1557.57 L1177.53 1556.27 L1171.7 1556.27 M1183.38 1553.85 L1183.38 1574.19 L1177.53 1574.19 L1177.53 1568.77 Q1175.52 1572.02 1172.53 1573.58 Q1169.54 1575.11 1165.21 1575.11 Q1159.73 1575.11 1156.49 1572.05 Q1153.27 1568.97 1153.27 1563.81 Q1153.27 1557.79 1157.28 1554.74 Q1161.33 1551.68 1169.32 1551.68 L1177.53 1551.68 L1177.53 1551.11 Q1177.53 1547.07 1174.85 1544.87 Q1172.21 1542.64 1167.41 1542.64 Q1164.35 1542.64 1161.45 1543.38 Q1158.56 1544.11 1155.88 1545.57 L1155.88 1540.16 Q1159.1 1538.92 1162.12 1538.31 Q1165.15 1537.68 1168.01 1537.68 Q1175.74 1537.68 1179.56 1541.69 Q1183.38 1545.7 1183.38 1553.85 Z" fill="#000000" fill-rule="nonzero" fill-opacity="1"></path><path clip-path="url(#clip370)" d="M1225.08 1552.67 L1225.08 1574.19 L1219.22 1574.19 L1219.22 1552.86 Q1219.22 1547.8 1217.25 1545.29 Q1215.28 1542.77 1211.33 1542.77 Q1206.59 1542.77 1203.85 1545.79 Q1201.11 1548.82 1201.11 1554.04 L1201.11 1574.19 L1195.22 1574.19 L1195.22 1538.54 L1201.11 1538.54 L1201.11 1544.08 Q1203.21 1540.86 1206.05 1539.27 Q1208.91 1537.68 1212.63 1537.68 Q1218.78 1537.68 1221.93 1541.5 Q1225.08 1545.29 1225.08 1552.67 Z" fill="#000000" fill-rule="nonzero" fill-opacity="1"></path><path clip-path="url(#clip370)" d="M1262.41 1539.91 L1262.41 1545.38 Q1259.93 1544.01 1257.42 1543.34 Q1254.93 1542.64 1252.39 1542.64 Q1246.69 1542.64 1243.54 1546.27 Q1240.39 1549.87 1240.39 1556.39 Q1240.39 1562.92 1243.54 1566.55 Q1246.69 1570.14 1252.39 1570.14 Q1254.93 1570.14 1257.42 1569.47 Q1259.93 1568.77 1262.41 1567.41 L1262.41 1572.82 Q1259.96 1573.96 1257.32 1574.54 Q1254.71 1575.11 1251.75 1575.11 Q1243.7 1575.11 1238.96 1570.05 Q1234.21 1564.99 1234.21 1556.39 Q1234.21 1547.67 1238.99 1542.68 Q1243.79 1537.68 1252.13 1537.68 Q1254.84 1537.68 1257.42 1538.25 Q1259.99 1538.79 1262.41 1539.91 Z" fill="#000000" fill-rule="nonzero" fill-opacity="1"></path><path clip-path="url(#clip370)" d="M1303.09 1554.9 L1303.09 1557.76 L1276.16 1557.76 Q1276.55 1563.81 1279.79 1566.99 Q1283.07 1570.14 1288.89 1570.14 Q1292.27 1570.14 1295.42 1569.32 Q1298.6 1568.49 1301.72 1566.83 L1301.72 1572.37 Q1298.57 1573.71 1295.26 1574.41 Q1291.95 1575.11 1288.54 1575.11 Q1280.01 1575.11 1275.02 1570.14 Q1270.05 1565.18 1270.05 1556.71 Q1270.05 1547.96 1274.76 1542.83 Q1279.51 1537.68 1287.53 1537.68 Q1294.72 1537.68 1298.89 1542.33 Q1303.09 1546.94 1303.09 1554.9 M1297.23 1553.18 Q1297.17 1548.37 1294.53 1545.51 Q1291.92 1542.64 1287.59 1542.64 Q1282.69 1542.64 1279.73 1545.41 Q1276.8 1548.18 1276.35 1553.21 L1297.23 1553.18 Z" fill="#000000" fill-rule="nonzero" fill-opacity="1"></path><path clip-path="url(#clip370)" d="M1347.24 1542.64 Q1342.53 1542.64 1339.79 1546.34 Q1337.05 1550 1337.05 1556.39 Q1337.05 1562.79 1339.76 1566.48 Q1342.49 1570.14 1347.24 1570.14 Q1351.92 1570.14 1354.65 1566.45 Q1357.39 1562.76 1357.39 1556.39 Q1357.39 1550.06 1354.65 1546.37 Q1351.92 1542.64 1347.24 1542.64 M1347.24 1537.68 Q1354.88 1537.68 1359.24 1542.64 Q1363.6 1547.61 1363.6 1556.39 Q1363.6 1565.15 1359.24 1570.14 Q1354.88 1575.11 1347.24 1575.11 Q1339.57 1575.11 1335.21 1570.14 Q1330.88 1565.15 1330.88 1556.39 Q1330.88 1547.61 1335.21 1542.64 Q1339.57 1537.68 1347.24 1537.68 Z" fill="#000000" fill-rule="nonzero" fill-opacity="1"></path><path clip-path="url(#clip370)" d="M1391.35 1524.66 L1391.35 1529.53 L1385.75 1529.53 Q1382.6 1529.53 1381.36 1530.8 Q1380.15 1532.08 1380.15 1535.39 L1380.15 1538.54 L1389.79 1538.54 L1389.79 1543.09 L1380.15 1543.09 L1380.15 1574.19 L1374.26 1574.19 L1374.26 1543.09 L1368.66 1543.09 L1368.66 1538.54 L1374.26 1538.54 L1374.26 1536.05 Q1374.26 1530.1 1377.03 1527.4 Q1379.8 1524.66 1385.81 1524.66 L1391.35 1524.66 Z" fill="#000000" fill-rule="nonzero" fill-opacity="1"></path><path clip-path="url(#clip370)" d="M1422.77 1528.42 L1422.77 1538.54 L1434.83 1538.54 L1434.83 1543.09 L1422.77 1543.09 L1422.77 1562.44 Q1422.77 1566.8 1423.94 1568.04 Q1425.15 1569.28 1428.81 1569.28 L1434.83 1569.28 L1434.83 1574.19 L1428.81 1574.19 Q1422.03 1574.19 1419.46 1571.67 Q1416.88 1569.12 1416.88 1562.44 L1416.88 1543.09 L1412.58 1543.09 L1412.58 1538.54 L1416.88 1538.54 L1416.88 1528.42 L1422.77 1528.42 Z" fill="#000000" fill-rule="nonzero" fill-opacity="1"></path><path clip-path="url(#clip370)" d="M1472.16 1552.67 L1472.16 1574.19 L1466.31 1574.19 L1466.31 1552.86 Q1466.31 1547.8 1464.33 1545.29 Q1462.36 1542.77 1458.41 1542.77 Q1453.67 1542.77 1450.93 1545.79 Q1448.2 1548.82 1448.2 1554.04 L1448.2 1574.19 L1442.31 1574.19 L1442.31 1524.66 L1448.2 1524.66 L1448.2 1544.08 Q1450.3 1540.86 1453.13 1539.27 Q1455.99 1537.68 1459.72 1537.68 Q1465.86 1537.68 1469.01 1541.5 Q1472.16 1545.29 1472.16 1552.67 Z" fill="#000000" fill-rule="nonzero" fill-opacity="1"></path><path clip-path="url(#clip370)" d="M1514.34 1554.9 L1514.34 1557.76 L1487.41 1557.76 Q1487.79 1563.81 1491.04 1566.99 Q1494.32 1570.14 1500.14 1570.14 Q1503.51 1570.14 1506.67 1569.32 Q1509.85 1568.49 1512.97 1566.83 L1512.97 1572.37 Q1509.82 1573.71 1506.51 1574.41 Q1503.2 1575.11 1499.79 1575.11 Q1491.26 1575.11 1486.26 1570.14 Q1481.3 1565.18 1481.3 1556.71 Q1481.3 1547.96 1486.01 1542.83 Q1490.75 1537.68 1498.77 1537.68 Q1505.97 1537.68 1510.14 1542.33 Q1514.34 1546.94 1514.34 1554.9 M1508.48 1553.18 Q1508.42 1548.37 1505.77 1545.51 Q1503.16 1542.64 1498.84 1542.64 Q1493.93 1542.64 1490.97 1545.41 Q1488.05 1548.18 1487.6 1553.21 L1508.48 1553.18 Z" fill="#000000" fill-rule="nonzero" fill-opacity="1"></path><path clip-path="url(#clip370)" d="M1560.87 1556.27 Q1553.77 1556.27 1551.03 1557.89 Q1548.3 1559.51 1548.3 1563.43 Q1548.3 1566.55 1550.33 1568.39 Q1552.4 1570.21 1555.94 1570.21 Q1560.81 1570.21 1563.73 1566.77 Q1566.69 1563.3 1566.69 1557.57 L1566.69 1556.27 L1560.87 1556.27 M1572.55 1553.85 L1572.55 1574.19 L1566.69 1574.19 L1566.69 1568.77 Q1564.69 1572.02 1561.7 1573.58 Q1558.71 1575.11 1554.38 1575.11 Q1548.9 1575.11 1545.66 1572.05 Q1542.44 1568.97 1542.44 1563.81 Q1542.44 1557.79 1546.45 1554.74 Q1550.49 1551.68 1558.48 1551.68 L1566.69 1551.68 L1566.69 1551.11 Q1566.69 1547.07 1564.02 1544.87 Q1561.38 1542.64 1556.57 1542.64 Q1553.52 1542.64 1550.62 1543.38 Q1547.72 1544.11 1545.05 1545.57 L1545.05 1540.16 Q1548.27 1538.92 1551.29 1538.31 Q1554.31 1537.68 1557.18 1537.68 Q1564.91 1537.68 1568.73 1541.69 Q1572.55 1545.7 1572.55 1553.85 Z" fill="#000000" fill-rule="nonzero" fill-opacity="1"></path><path clip-path="url(#clip370)" d="M1584.61 1524.66 L1590.47 1524.66 L1590.47 1574.19 L1584.61 1574.19 L1584.61 1524.66 Z" fill="#000000" fill-rule="nonzero" fill-opacity="1"></path><path clip-path="url(#clip370)" d="M1626.18 1555.95 Q1626.18 1549.58 1623.54 1546.08 Q1620.93 1542.58 1616.19 1542.58 Q1611.48 1542.58 1608.84 1546.08 Q1606.23 1549.58 1606.23 1555.95 Q1606.23 1562.28 1608.84 1565.78 Q1611.48 1569.28 1616.19 1569.28 Q1620.93 1569.28 1623.54 1565.78 Q1626.18 1562.28 1626.18 1555.95 M1632.04 1569.76 Q1632.04 1578.86 1628 1583.29 Q1623.95 1587.74 1615.61 1587.74 Q1612.53 1587.74 1609.79 1587.27 Q1607.05 1586.82 1604.47 1585.87 L1604.47 1580.17 Q1607.05 1581.57 1609.57 1582.24 Q1612.08 1582.91 1614.69 1582.91 Q1620.45 1582.91 1623.32 1579.88 Q1626.18 1576.89 1626.18 1570.81 L1626.18 1567.92 Q1624.37 1571.07 1621.53 1572.63 Q1618.7 1574.19 1614.76 1574.19 Q1608.2 1574.19 1604.19 1569.19 Q1600.18 1564.19 1600.18 1555.95 Q1600.18 1547.67 1604.19 1542.68 Q1608.2 1537.68 1614.76 1537.68 Q1618.7 1537.68 1621.53 1539.24 Q1624.37 1540.8 1626.18 1543.95 L1626.18 1538.54 L1632.04 1538.54 L1632.04 1569.76 Z" fill="#000000" fill-rule="nonzero" fill-opacity="1"></path><path clip-path="url(#clip370)" d="M1657.92 1542.64 Q1653.2 1542.64 1650.47 1546.34 Q1647.73 1550 1647.73 1556.39 Q1647.73 1562.79 1650.44 1566.48 Q1653.17 1570.14 1657.92 1570.14 Q1662.59 1570.14 1665.33 1566.45 Q1668.07 1562.76 1668.07 1556.39 Q1668.07 1550.06 1665.33 1546.37 Q1662.59 1542.64 1657.92 1542.64 M1657.92 1537.68 Q1665.55 1537.68 1669.91 1542.64 Q1674.27 1547.61 1674.27 1556.39 Q1674.27 1565.15 1669.91 1570.14 Q1665.55 1575.11 1657.92 1575.11 Q1650.24 1575.11 1645.88 1570.14 Q1641.56 1565.15 1641.56 1556.39 Q1641.56 1547.61 1645.88 1542.64 Q1650.24 1537.68 1657.92 1537.68 Z" fill="#000000" fill-rule="nonzero" fill-opacity="1"></path><path clip-path="url(#clip370)" d="M1704.64 1544.01 Q1703.65 1543.44 1702.47 1543.18 Q1701.33 1542.9 1699.93 1542.9 Q1694.96 1542.9 1692.29 1546.14 Q1689.65 1549.36 1689.65 1555.41 L1689.65 1574.19 L1683.76 1574.19 L1683.76 1538.54 L1689.65 1538.54 L1689.65 1544.08 Q1691.49 1540.83 1694.45 1539.27 Q1697.41 1537.68 1701.65 1537.68 Q1702.25 1537.68 1702.98 1537.77 Q1703.72 1537.84 1704.61 1538 L1704.64 1544.01 Z" fill="#000000" fill-rule="nonzero" fill-opacity="1"></path><path clip-path="url(#clip370)" d="M1710.78 1538.54 L1716.64 1538.54 L1716.64 1574.19 L1710.78 1574.19 L1710.78 1538.54 M1710.78 1524.66 L1716.64 1524.66 L1716.64 1532.08 L1710.78 1532.08 L1710.78 1524.66 Z" fill="#000000" fill-rule="nonzero" fill-opacity="1"></path><path clip-path="url(#clip370)" d="M1734.69 1528.42 L1734.69 1538.54 L1746.75 1538.54 L1746.75 1543.09 L1734.69 1543.09 L1734.69 1562.44 Q1734.69 1566.8 1735.86 1568.04 Q1737.07 1569.28 1740.73 1569.28 L1746.75 1569.28 L1746.75 1574.19 L1740.73 1574.19 Q1733.95 1574.19 1731.38 1571.67 Q1728.8 1569.12 1728.8 1562.44 L1728.8 1543.09 L1724.5 1543.09 L1724.5 1538.54 L1728.8 1538.54 L1728.8 1528.42 L1734.69 1528.42 Z" fill="#000000" fill-rule="nonzero" fill-opacity="1"></path><path clip-path="url(#clip370)" d="M1784.08 1552.67 L1784.08 1574.19 L1778.23 1574.19 L1778.23 1552.86 Q1778.23 1547.8 1776.25 1545.29 Q1774.28 1542.77 1770.33 1542.77 Q1765.59 1542.77 1762.85 1545.79 Q1760.12 1548.82 1760.12 1554.04 L1760.12 1574.19 L1754.23 1574.19 L1754.23 1524.66 L1760.12 1524.66 L1760.12 1544.08 Q1762.22 1540.86 1765.05 1539.27 Q1767.91 1537.68 1771.64 1537.68 Q1777.78 1537.68 1780.93 1541.5 Q1784.08 1545.29 1784.08 1552.67 Z" fill="#000000" fill-rule="nonzero" fill-opacity="1"></path><path clip-path="url(#clip370)" d="M1823.52 1545.38 Q1825.72 1541.43 1828.77 1539.56 Q1831.83 1537.68 1835.96 1537.68 Q1841.53 1537.68 1844.56 1541.59 Q1847.58 1545.48 1847.58 1552.67 L1847.58 1574.19 L1841.69 1574.19 L1841.69 1552.86 Q1841.69 1547.74 1839.88 1545.25 Q1838.06 1542.77 1834.34 1542.77 Q1829.79 1542.77 1827.15 1545.79 Q1824.51 1548.82 1824.51 1554.04 L1824.51 1574.19 L1818.62 1574.19 L1818.62 1552.86 Q1818.62 1547.7 1816.8 1545.25 Q1814.99 1542.77 1811.2 1542.77 Q1806.71 1542.77 1804.07 1545.83 Q1801.43 1548.85 1801.43 1554.04 L1801.43 1574.19 L1795.54 1574.19 L1795.54 1538.54 L1801.43 1538.54 L1801.43 1544.08 Q1803.44 1540.8 1806.24 1539.24 Q1809.04 1537.68 1812.89 1537.68 Q1816.77 1537.68 1819.48 1539.65 Q1822.21 1541.62 1823.52 1545.38 Z" fill="#000000" fill-rule="nonzero" fill-opacity="1"></path><path clip-path="url(#clip370)" d="M1886.41 1554.96 Q1882.85 1554.2 1880.94 1552.13 Q1879.03 1550.09 1879.03 1547.13 Q1879.03 1542.64 1882.66 1540.13 Q1886.25 1537.65 1892.49 1537.65 Q1894.91 1537.65 1897.62 1538.03 Q1900.32 1538.41 1903.44 1539.17 L1903.44 1544.49 Q1900.35 1543.57 1897.81 1543.15 Q1895.23 1542.74 1892.97 1542.74 Q1889.18 1542.74 1886.98 1544.2 Q1884.76 1545.67 1884.76 1547.7 Q1884.76 1549.93 1886.92 1551.36 Q1889.05 1552.76 1892.75 1552.76 L1897.68 1552.76 L1897.68 1557.6 L1892.97 1557.6 Q1888.61 1557.6 1886.32 1559.23 Q1883.83 1561.01 1883.83 1563.81 Q1883.83 1566.67 1886.51 1568.46 Q1889.21 1570.24 1894.02 1570.24 Q1896.98 1570.24 1899.68 1569.67 Q1902.39 1569.06 1904.65 1567.88 L1904.65 1573.33 Q1901.79 1574.22 1899.11 1574.66 Q1896.41 1575.11 1893.86 1575.11 Q1886.28 1575.11 1882.18 1572.21 Q1878.07 1569.32 1878.07 1563.81 Q1878.07 1560.37 1880.27 1558.05 Q1882.47 1555.72 1886.41 1554.96 Z" fill="#000000" fill-rule="nonzero" fill-opacity="1"></path><polyline clip-path="url(#clip372)" style="stroke:#000000; stroke-linecap:round; stroke-linejoin:round; stroke-width:2; stroke-opacity:0.1; fill:none" points="300.786,1353.74 2352.76,1353.74 "></polyline>
<polyline clip-path="url(#clip372)" style="stroke:#000000; stroke-linecap:round; stroke-linejoin:round; stroke-width:2; stroke-opacity:0.1; fill:none" points="300.786,981.897 2352.76,981.897 "></polyline>
<polyline clip-path="url(#clip372)" style="stroke:#000000; stroke-linecap:round; stroke-linejoin:round; stroke-width:2; stroke-opacity:0.1; fill:none" points="300.786,610.049 2352.76,610.049 "></polyline>
<polyline clip-path="url(#clip372)" style="stroke:#000000; stroke-linecap:round; stroke-linejoin:round; stroke-width:2; stroke-opacity:0.1; fill:none" points="300.786,238.202 2352.76,238.202 "></polyline>
<polyline clip-path="url(#clip370)" style="stroke:#000000; stroke-linecap:round; stroke-linejoin:round; stroke-width:4; stroke-opacity:1; fill:none" points="300.786,1410.9 300.786,123.472 "></polyline>
<polyline clip-path="url(#clip370)" style="stroke:#000000; stroke-linecap:round; stroke-linejoin:round; stroke-width:4; stroke-opacity:1; fill:none" points="300.786,1353.74 319.684,1353.74 "></polyline>
<polyline clip-path="url(#clip370)" style="stroke:#000000; stroke-linecap:round; stroke-linejoin:round; stroke-width:4; stroke-opacity:1; fill:none" points="300.786,981.897 319.684,981.897 "></polyline>
<polyline clip-path="url(#clip370)" style="stroke:#000000; stroke-linecap:round; stroke-linejoin:round; stroke-width:4; stroke-opacity:1; fill:none" points="300.786,610.049 319.684,610.049 "></polyline>
<polyline clip-path="url(#clip370)" style="stroke:#000000; stroke-linecap:round; stroke-linejoin:round; stroke-width:4; stroke-opacity:1; fill:none" points="300.786,238.202 319.684,238.202 "></polyline>
<path clip-path="url(#clip370)" d="M168.259 1367.09 L175.898 1367.09 L175.898 1340.72 L167.587 1342.39 L167.587 1338.13 L175.851 1336.46 L180.527 1336.46 L180.527 1367.09 L188.166 1367.09 L188.166 1371.02 L168.259 1371.02 L168.259 1367.09 Z" fill="#000000" fill-rule="nonzero" fill-opacity="1"></path><path clip-path="url(#clip370)" d="M197.61 1365.14 L202.495 1365.14 L202.495 1371.02 L197.61 1371.02 L197.61 1365.14 Z" fill="#000000" fill-rule="nonzero" fill-opacity="1"></path><path clip-path="url(#clip370)" d="M213.49 1367.09 L221.129 1367.09 L221.129 1340.72 L212.819 1342.39 L212.819 1338.13 L221.083 1336.46 L225.758 1336.46 L225.758 1367.09 L233.397 1367.09 L233.397 1371.02 L213.49 1371.02 L213.49 1367.09 Z" fill="#000000" fill-rule="nonzero" fill-opacity="1"></path><path clip-path="url(#clip370)" d="M252.842 1339.54 Q249.231 1339.54 247.402 1343.11 Q245.596 1346.65 245.596 1353.78 Q245.596 1360.89 247.402 1364.45 Q249.231 1367.99 252.842 1367.99 Q256.476 1367.99 258.281 1364.45 Q260.11 1360.89 260.11 1353.78 Q260.11 1346.65 258.281 1343.11 Q256.476 1339.54 252.842 1339.54 M252.842 1335.84 Q258.652 1335.84 261.707 1340.45 Q264.786 1345.03 264.786 1353.78 Q264.786 1362.51 261.707 1367.11 Q258.652 1371.7 252.842 1371.7 Q247.031 1371.7 243.953 1367.11 Q240.897 1362.51 240.897 1353.78 Q240.897 1345.03 243.953 1340.45 Q247.031 1335.84 252.842 1335.84 Z" fill="#000000" fill-rule="nonzero" fill-opacity="1"></path><path clip-path="url(#clip370)" d="M169.254 995.241 L176.893 995.241 L176.893 968.876 L168.583 970.543 L168.583 966.283 L176.847 964.617 L181.523 964.617 L181.523 995.241 L189.161 995.241 L189.161 999.177 L169.254 999.177 L169.254 995.241 Z" fill="#000000" fill-rule="nonzero" fill-opacity="1"></path><path clip-path="url(#clip370)" d="M198.606 993.297 L203.49 993.297 L203.49 999.177 L198.606 999.177 L198.606 993.297 Z" fill="#000000" fill-rule="nonzero" fill-opacity="1"></path><path clip-path="url(#clip370)" d="M214.485 995.241 L222.124 995.241 L222.124 968.876 L213.814 970.543 L213.814 966.283 L222.078 964.617 L226.754 964.617 L226.754 995.241 L234.393 995.241 L234.393 999.177 L214.485 999.177 L214.485 995.241 Z" fill="#000000" fill-rule="nonzero" fill-opacity="1"></path><path clip-path="url(#clip370)" d="M243.883 964.617 L262.24 964.617 L262.24 968.552 L248.166 968.552 L248.166 977.024 Q249.184 976.677 250.203 976.515 Q251.221 976.33 252.24 976.33 Q258.027 976.33 261.406 979.501 Q264.786 982.672 264.786 988.089 Q264.786 993.667 261.314 996.769 Q257.842 999.848 251.522 999.848 Q249.346 999.848 247.078 999.478 Q244.832 999.107 242.425 998.366 L242.425 993.667 Q244.508 994.802 246.731 995.357 Q248.953 995.913 251.43 995.913 Q255.434 995.913 257.772 993.806 Q260.11 991.7 260.11 988.089 Q260.11 984.478 257.772 982.371 Q255.434 980.265 251.43 980.265 Q249.555 980.265 247.68 980.681 Q245.828 981.098 243.883 981.978 L243.883 964.617 Z" fill="#000000" fill-rule="nonzero" fill-opacity="1"></path><path clip-path="url(#clip370)" d="M168.259 623.394 L175.898 623.394 L175.898 597.028 L167.587 598.695 L167.587 594.436 L175.851 592.769 L180.527 592.769 L180.527 623.394 L188.166 623.394 L188.166 627.329 L168.259 627.329 L168.259 623.394 Z" fill="#000000" fill-rule="nonzero" fill-opacity="1"></path><path clip-path="url(#clip370)" d="M197.61 621.45 L202.495 621.45 L202.495 627.329 L197.61 627.329 L197.61 621.45 Z" fill="#000000" fill-rule="nonzero" fill-opacity="1"></path><path clip-path="url(#clip370)" d="M216.708 623.394 L233.027 623.394 L233.027 627.329 L211.083 627.329 L211.083 623.394 Q213.745 620.639 218.328 616.01 Q222.934 611.357 224.115 610.014 Q226.36 607.491 227.24 605.755 Q228.143 603.996 228.143 602.306 Q228.143 599.552 226.198 597.815 Q224.277 596.079 221.175 596.079 Q218.976 596.079 216.522 596.843 Q214.092 597.607 211.314 599.158 L211.314 594.436 Q214.138 593.302 216.592 592.723 Q219.046 592.144 221.083 592.144 Q226.453 592.144 229.647 594.829 Q232.842 597.515 232.842 602.005 Q232.842 604.135 232.032 606.056 Q231.245 607.954 229.138 610.547 Q228.559 611.218 225.458 614.436 Q222.356 617.63 216.708 623.394 Z" fill="#000000" fill-rule="nonzero" fill-opacity="1"></path><path clip-path="url(#clip370)" d="M252.842 595.848 Q249.231 595.848 247.402 599.413 Q245.596 602.954 245.596 610.084 Q245.596 617.19 247.402 620.755 Q249.231 624.297 252.842 624.297 Q256.476 624.297 258.281 620.755 Q260.11 617.19 260.11 610.084 Q260.11 602.954 258.281 599.413 Q256.476 595.848 252.842 595.848 M252.842 592.144 Q258.652 592.144 261.707 596.751 Q264.786 601.334 264.786 610.084 Q264.786 618.811 261.707 623.417 Q258.652 628 252.842 628 Q247.031 628 243.953 623.417 Q240.897 618.811 240.897 610.084 Q240.897 601.334 243.953 596.751 Q247.031 592.144 252.842 592.144 Z" fill="#000000" fill-rule="nonzero" fill-opacity="1"></path><path clip-path="url(#clip370)" d="M169.254 251.547 L176.893 251.547 L176.893 225.181 L168.583 226.848 L168.583 222.588 L176.847 220.922 L181.523 220.922 L181.523 251.547 L189.161 251.547 L189.161 255.482 L169.254 255.482 L169.254 251.547 Z" fill="#000000" fill-rule="nonzero" fill-opacity="1"></path><path clip-path="url(#clip370)" d="M198.606 249.602 L203.49 249.602 L203.49 255.482 L198.606 255.482 L198.606 249.602 Z" fill="#000000" fill-rule="nonzero" fill-opacity="1"></path><path clip-path="url(#clip370)" d="M217.703 251.547 L234.022 251.547 L234.022 255.482 L212.078 255.482 L212.078 251.547 Q214.74 248.792 219.323 244.162 Q223.93 239.51 225.11 238.167 Q227.356 235.644 228.235 233.908 Q229.138 232.149 229.138 230.459 Q229.138 227.704 227.194 225.968 Q225.272 224.232 222.17 224.232 Q219.971 224.232 217.518 224.996 Q215.087 225.76 212.309 227.311 L212.309 222.588 Q215.133 221.454 217.587 220.875 Q220.041 220.297 222.078 220.297 Q227.448 220.297 230.643 222.982 Q233.837 225.667 233.837 230.158 Q233.837 232.287 233.027 234.209 Q232.24 236.107 230.133 238.699 Q229.555 239.371 226.453 242.588 Q223.351 245.783 217.703 251.547 Z" fill="#000000" fill-rule="nonzero" fill-opacity="1"></path><path clip-path="url(#clip370)" d="M243.883 220.922 L262.24 220.922 L262.24 224.857 L248.166 224.857 L248.166 233.329 Q249.184 232.982 250.203 232.82 Q251.221 232.635 252.24 232.635 Q258.027 232.635 261.406 235.806 Q264.786 238.977 264.786 244.394 Q264.786 249.973 261.314 253.074 Q257.842 256.153 251.522 256.153 Q249.346 256.153 247.078 255.783 Q244.832 255.412 242.425 254.672 L242.425 249.973 Q244.508 251.107 246.731 251.662 Q248.953 252.218 251.43 252.218 Q255.434 252.218 257.772 250.111 Q260.11 248.005 260.11 244.394 Q260.11 240.783 257.772 238.676 Q255.434 236.57 251.43 236.57 Q249.555 236.57 247.68 236.987 Q245.828 237.403 243.883 238.283 L243.883 220.922 Z" fill="#000000" fill-rule="nonzero" fill-opacity="1"></path><path clip-path="url(#clip370)" d="M86.8038 1009.93 L73.5994 1009.93 Q72.8587 1009.93 72.6011 1009.9 Q72.3434 1009.87 72.1502 1009.67 Q71.9569 1009.48 71.9569 1009.09 Q71.9569 1008.35 72.6333 1008.29 Q79.1711 1008.1 82.7781 1004.2 Q86.353 1000.37 86.353 993.797 Q86.353 989.836 83.5188 987.388 Q80.6525 984.94 76.9166 984.94 Q73.3418 984.94 70.8297 987.002 Q69.7025 987.871 68.994 988.966 Q68.2533 990.029 68.0278 990.705 Q67.8024 991.349 67.4803 992.605 Q65.5158 1000.79 65.2903 1001.3 Q63.9699 1005.2 60.6527 1007.58 Q57.3033 1009.93 53.2131 1009.93 Q47.9314 1009.93 44.1955 1006.23 Q40.4274 1002.49 40.4274 997.082 Q40.4274 994.377 41.297 992.122 Q42.1343 989.836 42.9073 988.902 Q43.6802 987.968 45.065 986.518 L41.297 984.232 Q40.4274 983.717 40.4274 983.233 Q40.4274 982.718 40.7495 982.622 Q41.0393 982.493 42.0055 982.493 L55.2743 982.493 Q56.015 982.493 56.2727 982.525 Q56.5303 982.557 56.6914 982.783 Q56.8524 982.976 56.8524 983.362 Q56.8524 984.006 56.0795 984.167 Q42.2953 986.003 42.2953 997.018 Q42.2953 1000.79 44.8396 1003.27 Q47.3517 1005.71 50.9265 1005.71 Q53.825 1005.71 56.2083 1003.91 Q58.5593 1002.11 59.3 999.046 L61.329 990.609 Q62.3274 986.39 66.0633 983.555 Q69.7991 980.721 74.6622 980.721 Q80.2661 980.721 84.324 984.393 Q88.3819 988.032 88.3819 993.733 Q88.3819 997.823 87.0293 1000.98 Q85.6766 1004.14 83.7765 1005.84 Q85.9665 1007.16 87.1903 1008.03 L87.5124 1008.23 Q88.3819 1008.74 88.3819 1009.22 Q88.3819 1009.74 88.0599 1009.84 Q87.7378 1009.93 86.8038 1009.93 Z" fill="#000000" fill-rule="nonzero" fill-opacity="1"></path><path clip-path="url(#clip370)" d="M97.6894 976.071 Q97.6894 972.561 97.2385 971.756 Q96.8199 970.918 94.7265 970.918 L63.8411 970.918 Q61.6511 970.918 61.1036 971.756 Q60.5561 972.561 60.5561 976.071 L58.4949 976.071 L57.7864 966.571 L62.1342 966.571 Q57.7864 962.609 57.7864 957.328 Q57.7864 951.724 62.1342 947.634 Q66.4819 943.543 72.6977 943.543 Q78.9778 943.543 83.3256 947.891 Q87.6734 952.239 87.6734 958.262 Q87.6734 961.547 85.9987 963.769 Q84.2918 965.959 83.0358 966.377 L83.6477 966.377 L94.7265 966.377 Q96.8521 966.377 97.2707 965.54 Q97.6894 964.703 97.6894 961.224 L99.7184 961.224 Q99.5252 968.149 99.5252 968.664 Q99.5252 969.308 99.7184 976.071 L97.6894 976.071 M79.4287 966.377 Q80.4271 966.377 80.7813 966.249 Q81.1356 966.088 82.1984 965.443 Q86.1919 962.835 86.1919 958.584 Q86.1919 958.551 86.1919 958.519 Q86.1919 954.751 82.3594 951.885 Q78.4947 949.018 72.6977 949.018 Q67.1583 949.018 63.2936 951.627 Q59.4289 954.236 59.4289 957.843 Q59.4289 960.419 60.8137 962.674 Q62.1986 964.928 64.7106 966.377 L79.4287 966.377 Z" fill="#000000" fill-rule="nonzero" fill-opacity="1"></path><path clip-path="url(#clip370)" d="M72.4078 934.555 Q66.1921 934.555 61.7799 930.561 Q57.3677 926.568 57.3677 920.835 Q57.3677 915.038 61.1358 912.043 Q64.9039 909.015 70.3144 909.015 Q71.3128 909.015 71.5061 909.273 Q71.6993 909.531 71.6993 910.658 L71.6993 929.08 Q78.4303 929.08 81.5865 927.083 Q85.9987 924.313 85.9987 919.643 Q85.9987 918.999 85.8699 918.226 Q85.7411 917.453 85.1936 915.875 Q84.6138 914.297 83.1002 912.912 Q81.5865 911.527 79.2033 910.722 Q78.2693 910.529 78.3015 909.885 Q78.3015 909.015 79.0744 909.015 Q79.6541 909.015 80.9746 909.66 Q82.2628 910.271 83.8087 911.463 Q85.3546 912.655 86.514 914.974 Q87.6734 917.26 87.6734 920.03 Q87.6734 925.827 83.2934 930.207 Q78.8812 934.555 72.4078 934.555 M70.3144 929.015 L70.3144 913.363 Q68.9296 913.363 67.3837 913.621 Q65.8378 913.846 63.7122 914.555 Q61.5544 915.231 60.2018 916.841 Q58.8492 918.452 58.8492 920.835 Q58.8492 921.898 59.3 923.057 Q59.7509 924.184 60.8459 925.569 Q61.9409 926.954 64.4208 927.92 Q66.9006 928.886 70.3144 929.015 Z" fill="#000000" fill-rule="nonzero" fill-opacity="1"></path><path clip-path="url(#clip370)" d="M72.4078 905.559 Q66.1921 905.559 61.7799 901.565 Q57.3677 897.572 57.3677 891.839 Q57.3677 886.042 61.1358 883.047 Q64.9039 880.02 70.3144 880.02 Q71.3128 880.02 71.5061 880.277 Q71.6993 880.535 71.6993 881.662 L71.6993 900.084 Q78.4303 900.084 81.5865 898.087 Q85.9987 895.317 85.9987 890.648 Q85.9987 890.004 85.8699 889.231 Q85.7411 888.458 85.1936 886.88 Q84.6138 885.301 83.1002 883.917 Q81.5865 882.532 79.2033 881.727 Q78.2693 881.533 78.3015 880.889 Q78.3015 880.02 79.0744 880.02 Q79.6541 880.02 80.9746 880.664 Q82.2628 881.276 83.8087 882.467 Q85.3546 883.659 86.514 885.978 Q87.6734 888.264 87.6734 891.034 Q87.6734 896.831 83.2934 901.211 Q78.8812 905.559 72.4078 905.559 M70.3144 900.02 L70.3144 884.368 Q68.9296 884.368 67.3837 884.625 Q65.8378 884.851 63.7122 885.559 Q61.5544 886.235 60.2018 887.846 Q58.8492 889.456 58.8492 891.839 Q58.8492 892.902 59.3 894.061 Q59.7509 895.189 60.8459 896.574 Q61.9409 897.958 64.4208 898.925 Q66.9006 899.891 70.3144 900.02 Z" fill="#000000" fill-rule="nonzero" fill-opacity="1"></path><path clip-path="url(#clip370)" d="M72.7621 876.563 Q66.4819 876.563 62.1342 872.183 Q57.7864 867.803 57.7864 861.877 Q57.7864 856.853 61.8765 853.568 L47.6093 853.568 Q45.1617 853.568 44.5498 854.438 Q43.9378 855.275 43.9378 858.689 L41.8767 858.689 L41.1681 849.188 L81.2 849.188 Q83.6477 849.188 84.2918 848.351 Q84.9037 847.481 84.9037 844.068 L86.9327 844.068 L87.6734 853.761 L83.2934 853.761 Q87.6412 857.175 87.6734 862.586 Q87.6734 868.254 83.3256 872.409 Q78.9778 876.563 72.7621 876.563 M72.8265 871.088 Q78.9456 871.088 81.973 869.188 Q86.1919 866.547 86.1919 862.264 Q86.1919 857.369 81.5865 854.47 Q80.4593 853.729 79.1388 853.761 L65.6124 853.761 Q64.2919 853.761 63.1969 854.47 Q59.2356 857.175 59.2356 861.588 Q59.2356 866.193 63.4546 869.059 Q66.6108 871.088 72.8265 871.088 Z" fill="#000000" fill-rule="nonzero" fill-opacity="1"></path><path clip-path="url(#clip370)" d="M60.5561 822.896 L58.4949 822.896 L57.7864 813.202 L79.6863 813.202 Q81.2644 813.202 82.1984 813.073 Q83.1002 812.944 84.163 812.429 Q85.2258 811.881 85.7088 810.657 Q86.1919 809.401 86.1919 807.405 Q86.1919 803.83 83.2612 801.64 Q80.3305 799.418 75.9827 799.418 L64.2275 799.418 Q61.7799 799.418 61.168 800.287 Q60.5561 801.157 60.5561 804.571 L58.4949 804.571 L57.7864 794.877 L81.2 794.877 Q83.6477 794.877 84.2918 794.039 Q84.9037 793.17 84.9037 789.724 L86.9327 789.724 L87.6734 799.224 L81.7153 799.224 Q87.6412 801.994 87.6734 807.727 Q87.6734 810.625 86.9327 812.622 Q86.1919 814.587 85.2902 815.585 Q84.3562 816.583 82.5849 817.131 Q80.8136 817.646 79.7186 817.711 Q78.6236 817.775 76.498 817.775 L66.6108 817.775 Q62.1342 817.775 61.3612 818.419 Q60.5561 819.063 60.5561 822.896 Z" fill="#000000" fill-rule="nonzero" fill-opacity="1"></path><path clip-path="url(#clip370)" d="M97.6894 791.147 Q97.6894 787.637 97.2385 786.831 Q96.8199 785.994 94.7265 785.994 L63.8411 785.994 Q61.6511 785.994 61.1036 786.831 Q60.5561 787.637 60.5561 791.147 L58.4949 791.147 L57.7864 781.646 L62.1342 781.646 Q57.7864 777.685 57.7864 772.403 Q57.7864 766.799 62.1342 762.709 Q66.4819 758.619 72.6977 758.619 Q78.9778 758.619 83.3256 762.967 Q87.6734 767.315 87.6734 773.337 Q87.6734 776.622 85.9987 778.844 Q84.2918 781.034 83.0358 781.453 L83.6477 781.453 L94.7265 781.453 Q96.8521 781.453 97.2707 780.616 Q97.6894 779.778 97.6894 776.3 L99.7184 776.3 Q99.5252 783.224 99.5252 783.74 Q99.5252 784.384 99.7184 791.147 L97.6894 791.147 M79.4287 781.453 Q80.4271 781.453 80.7813 781.324 Q81.1356 781.163 82.1984 780.519 Q86.1919 777.91 86.1919 773.659 Q86.1919 773.627 86.1919 773.595 Q86.1919 769.827 82.3594 766.96 Q78.4947 764.094 72.6977 764.094 Q67.1583 764.094 63.2936 766.703 Q59.4289 769.311 59.4289 772.918 Q59.4289 775.495 60.8137 777.749 Q62.1986 780.004 64.7106 781.453 L79.4287 781.453 Z" fill="#000000" fill-rule="nonzero" fill-opacity="1"></path><path clip-path="url(#clip370)" d="M8.63719 681.142 Q9.53895 681.142 9.76439 681.561 Q9.95763 681.979 9.95763 683.139 L9.95763 689.322 L29.41 694.217 Q31.1169 694.604 32.5661 694.604 Q34.1764 694.604 34.885 694.121 Q35.5935 693.606 35.5935 692.543 Q35.5935 690.449 33.6933 688.195 Q31.7932 685.908 27.1556 683.976 Q26.5436 683.718 26.4148 683.59 Q26.2538 683.429 26.2538 683.01 Q26.2538 682.205 26.8979 682.205 Q27.1234 682.205 28.1539 682.656 Q29.1845 683.074 30.6982 684.008 Q32.2119 684.91 33.6289 686.102 Q35.046 687.261 36.0766 689.032 Q37.075 690.804 37.075 692.704 Q37.075 695.377 35.3681 697.084 Q33.6611 698.758 30.9881 698.758 Q30.1185 698.758 27.3488 698.082 Q24.5469 697.406 9.95763 693.734 L9.95763 699.564 Q9.95763 700.369 9.92542 700.691 Q9.89322 700.981 9.73219 701.206 Q9.53895 701.399 9.15248 701.399 Q8.54057 701.399 8.28293 701.142 Q7.99307 700.884 7.96087 700.562 Q7.89645 700.208 7.89645 699.403 L7.89645 693.219 L-2.57045 690.643 Q-3.60104 690.385 -4.18074 689.741 Q-4.79265 689.065 -4.85707 688.678 Q-4.95368 688.292 -4.95368 688.002 Q-4.95368 687.132 -4.4706 686.617 Q-4.01971 686.102 -3.18236 686.102 Q-2.73148 686.102 7.89645 688.807 L7.89645 683.01 Q7.89645 682.269 7.92866 681.979 Q7.96087 681.657 8.1219 681.4 Q8.28293 681.142 8.63719 681.142 Z" fill="#000000" fill-rule="nonzero" fill-opacity="1"></path><path clip-path="url(#clip370)" d="M48.8997 656.735 Q49.1026 656.555 49.3055 656.555 Q49.5084 656.555 50.0946 657.006 Q50.6807 657.434 51.4697 658.358 Q52.2588 659.283 53.0027 660.477 Q53.7467 661.672 54.2427 663.431 Q54.7612 665.189 54.7612 667.038 Q54.7612 670.352 52.3941 672.336 Q50.0269 674.297 46.3973 674.297 Q44.0753 674.297 42.0238 673.53 Q39.9497 672.764 38.4843 671.524 Q37.019 670.261 35.9594 668.683 Q34.8773 667.083 34.3588 665.414 Q33.8403 663.746 33.8403 662.191 Q33.8403 659.914 34.99 658.584 Q36.1398 657.254 37.7629 657.254 Q38.1462 657.254 38.6196 657.366 Q39.093 657.456 39.837 657.772 Q40.5809 658.065 41.3249 658.832 Q42.0463 659.598 42.5197 660.725 Q43.5793 663.228 43.5793 667.782 L43.5793 670.239 Q46.4875 670.96 48.3812 670.96 Q49.1252 670.96 49.8917 670.825 Q50.6356 670.69 51.5825 670.329 Q52.5293 669.946 53.138 669.089 Q53.7242 668.21 53.7242 666.947 Q53.7242 666.542 53.7016 666.113 Q53.6791 665.662 53.4311 664.535 Q53.1831 663.386 52.7548 662.371 Q52.3264 661.357 51.4021 660.072 Q50.4553 658.764 49.1702 657.727 Q48.6968 657.366 48.6968 657.118 Q48.6968 656.915 48.8997 656.735 M37.7629 658.787 Q36.523 658.787 35.6889 659.711 Q34.8547 660.613 34.8547 662.191 Q34.8547 662.687 34.9675 663.295 Q35.0802 663.904 35.5536 664.919 Q36.027 665.91 36.8161 666.79 Q37.5826 667.669 39.093 668.548 Q40.5809 669.427 42.5648 669.946 L42.5648 668.052 Q42.5648 667.398 42.5648 666.925 Q42.5423 666.452 42.4521 665.414 Q42.3619 664.355 42.2041 663.588 Q42.0238 662.822 41.6631 661.853 Q41.3024 660.883 40.8289 660.274 Q40.333 659.643 39.5439 659.215 Q38.7549 658.787 37.7629 658.787 Z" fill="#000000" fill-rule="nonzero" fill-opacity="1"></path><path clip-path="url(#clip370)" d="M36.8837 631.012 Q38.1462 631.012 38.8676 631.801 Q39.5665 632.59 39.5665 633.491 Q39.5665 634.348 39.0705 634.799 Q38.5745 635.25 37.9433 635.25 Q37.0866 635.25 36.3427 634.619 Q35.5987 633.987 35.4409 633.041 Q34.8547 633.965 34.8547 635.34 Q34.8547 636.242 35.3282 637.031 Q35.8016 637.797 36.4103 638.271 Q37.019 638.722 37.8982 639.127 Q38.7549 639.511 39.2734 639.669 Q39.7694 639.804 40.3104 639.916 L46.6228 641.495 Q49.6211 642.261 50.6807 642.261 Q51.9883 642.261 52.8675 641.63 Q53.7242 640.999 53.7242 639.736 Q53.7242 639.24 53.5889 638.677 Q53.4311 638.113 53.0253 637.392 Q52.5969 636.648 51.9657 635.994 Q51.3119 635.317 50.2073 634.664 Q49.1026 634.01 47.6823 633.582 Q47.1864 633.446 47.1864 632.995 Q47.1864 632.432 47.6372 632.432 Q48.0205 632.432 48.8321 632.747 Q49.6211 633.041 50.6582 633.694 Q51.6726 634.326 52.5969 635.16 Q53.4987 635.994 54.1299 637.234 Q54.7612 638.474 54.7612 639.826 Q54.7612 641.765 53.7242 643.05 Q52.6871 644.335 51.2443 644.809 Q51.4472 644.921 51.7177 645.079 Q51.9883 645.237 52.5969 645.71 Q53.1831 646.161 53.634 646.68 Q54.0623 647.198 54.4005 648.01 Q54.7612 648.799 54.7612 649.656 Q54.7612 650.738 54.4456 651.707 Q54.1299 652.654 53.4085 653.33 Q52.6871 654.007 51.6952 654.007 Q50.5905 654.007 49.824 653.263 Q49.035 652.496 49.035 651.459 Q49.035 650.805 49.4182 650.287 Q49.8015 649.746 50.6356 649.746 Q51.5599 649.746 52.2588 650.377 Q52.9577 651.008 53.138 651.91 Q53.7242 650.986 53.7242 649.61 Q53.7242 648.123 52.4166 646.95 Q51.109 645.778 48.9223 645.214 Q43.6695 643.817 41.3249 643.276 Q38.9578 642.735 37.9433 642.735 Q36.9964 642.735 36.3427 642.982 Q35.6889 643.23 35.3958 643.659 Q35.0802 644.065 34.9675 644.448 Q34.8547 644.809 34.8547 645.214 Q34.8547 645.891 35.1253 646.657 Q35.3958 647.401 36.027 648.303 Q36.6357 649.182 37.8982 650.016 Q39.1607 650.85 40.8966 651.414 Q41.4151 651.527 41.4151 652.023 Q41.3925 652.564 40.9416 652.564 Q40.5584 652.564 39.7694 652.271 Q38.9578 651.955 37.9433 651.324 Q36.9288 650.67 36.027 649.836 Q35.1027 648.979 34.4715 647.739 Q33.8403 646.477 33.8403 645.124 Q33.8403 644.515 33.9755 643.929 Q34.0882 643.321 34.4264 642.599 Q34.7646 641.855 35.5085 641.202 Q36.2525 640.548 37.3346 640.142 Q36.8161 639.871 36.3201 639.511 Q35.8241 639.127 35.2154 638.541 Q34.5842 637.933 34.2235 637.098 Q33.8403 636.242 33.8403 635.295 Q33.8403 634.371 34.0882 633.469 Q34.3137 632.567 35.0576 631.801 Q35.779 631.012 36.8837 631.012 Z" fill="#000000" fill-rule="nonzero" fill-opacity="1"></path><path clip-path="url(#clip370)" d="M47.6372 606.616 Q50.5454 607.224 52.2137 608.013 Q54.7612 609.276 54.7612 611.418 Q54.7612 613.041 53.7692 614.191 Q52.7773 615.34 51.2894 615.611 Q54.7612 618.564 54.7612 621.63 Q54.7612 624.335 52.7097 626.049 Q50.6356 627.762 47.3667 627.762 Q44.0753 627.762 40.9191 626.139 Q37.7629 624.493 35.8016 621.901 Q33.8403 619.308 33.8403 616.648 Q33.8403 613.83 36.7935 612.387 Q35.9819 612.274 35.3733 611.756 Q34.7646 611.237 34.7646 610.448 Q34.7646 609.84 35.1027 609.479 Q35.4183 609.118 36.0045 609.118 Q36.2976 609.118 37.5826 609.434 L44.0302 611.102 L48.2008 612.116 Q49.7338 612.5 50.2974 612.612 Q50.8611 612.703 51.605 612.703 Q53.7242 612.703 53.7242 611.327 Q53.7242 610.651 53.2958 610.11 Q52.8675 609.569 51.9657 609.141 Q51.0639 608.712 50.2298 608.442 Q49.3731 608.171 48.0205 607.811 Q47.4794 607.698 47.3442 607.608 Q47.1864 607.495 47.1864 607.179 Q47.1864 606.616 47.6372 606.616 M38.9127 612.951 Q38.7098 612.951 38.1462 613.108 Q37.5826 613.266 36.7935 613.627 Q36.0045 613.988 35.4409 614.777 Q34.8547 615.543 34.8547 616.58 Q34.8547 617.978 36.0496 619.443 Q37.2444 620.886 39.2734 621.946 Q40.8966 622.757 44.3007 623.636 Q47.7049 624.493 49.3957 624.493 Q50.4327 624.493 51.357 624.268 Q52.2588 624.02 53.0027 623.321 Q53.7242 622.622 53.7242 621.54 Q53.7242 618.902 50.4553 616.31 Q49.8917 615.814 49.6662 615.701 Q49.4182 615.566 48.7419 615.385 L39.7017 613.086 Q39.0254 612.951 38.9127 612.951 Z" fill="#000000" fill-rule="nonzero" fill-opacity="1"></path><path clip-path="url(#clip370)" d="M48.8997 585.793 Q49.1026 585.612 49.3055 585.612 Q49.5084 585.612 50.0946 586.063 Q50.6807 586.491 51.4697 587.416 Q52.2588 588.34 53.0027 589.535 Q53.7467 590.73 54.2427 592.488 Q54.7612 594.247 54.7612 596.095 Q54.7612 599.544 52.4842 601.573 Q50.2073 603.58 46.9384 603.58 Q43.7597 603.58 40.7162 601.799 Q37.6502 600.018 35.7565 597.132 Q33.8403 594.247 33.8403 591.203 Q33.8403 588.791 34.9675 587.28 Q36.0947 585.77 37.808 585.77 Q39.1381 585.77 39.9497 586.536 Q40.7613 587.303 40.7613 588.34 Q40.7613 589.061 40.3555 589.557 Q39.9272 590.053 39.1381 590.053 Q38.1236 590.053 37.3346 589.219 Q37.019 588.904 36.8837 588.543 Q36.7259 588.16 36.7259 587.934 Q36.7034 587.709 36.7034 587.19 Q35.8241 587.664 35.3507 588.791 Q34.8547 589.896 34.8547 591.158 Q34.8547 593.029 36.1623 594.81 Q37.4473 596.591 39.4763 597.673 Q41.4602 598.755 44.2782 599.454 Q47.0736 600.153 48.6968 600.153 Q50.9287 600.153 52.3264 599.116 Q53.7242 598.079 53.7242 596.005 Q53.7242 595.599 53.7016 595.171 Q53.6791 594.72 53.4311 593.593 Q53.1831 592.443 52.7548 591.429 Q52.3264 590.414 51.4021 589.129 Q50.4553 587.821 49.1702 586.784 Q48.6968 586.424 48.6968 586.176 Q48.6968 585.973 48.8997 585.793 Z" fill="#000000" fill-rule="nonzero" fill-opacity="1"></path><path clip-path="url(#clip370)" d="M34.8547 570.725 Q35.486 570.725 35.6438 571.018 Q35.779 571.311 35.779 572.123 L35.779 576.451 L49.3957 579.878 Q50.5905 580.148 51.605 580.148 Q52.7322 580.148 53.2282 579.81 Q53.7242 579.449 53.7242 578.706 Q53.7242 577.24 52.3941 575.662 Q51.0639 574.061 47.8176 572.709 Q47.3893 572.528 47.2991 572.438 Q47.1864 572.326 47.1864 572.032 Q47.1864 571.469 47.6372 571.469 Q47.7951 571.469 48.5165 571.785 Q49.2379 572.078 50.2974 572.731 Q51.357 573.363 52.349 574.197 Q53.3409 575.008 54.0623 576.248 Q54.7612 577.488 54.7612 578.818 Q54.7612 580.689 53.5663 581.884 Q52.3715 583.057 50.5003 583.057 Q49.8917 583.057 47.9529 582.583 Q45.9915 582.11 35.779 579.54 L35.779 583.62 Q35.779 584.184 35.7565 584.409 Q35.734 584.612 35.6212 584.77 Q35.486 584.905 35.2154 584.905 Q34.7871 584.905 34.6068 584.725 Q34.4039 584.544 34.3813 584.319 Q34.3362 584.071 34.3362 583.507 L34.3362 579.179 L27.0094 577.375 Q26.288 577.195 25.8822 576.744 Q25.4538 576.271 25.4088 576 Q25.3411 575.73 25.3411 575.527 Q25.3411 574.918 25.6793 574.557 Q25.9949 574.197 26.5811 574.197 Q26.8967 574.197 34.3362 576.09 L34.3362 572.032 Q34.3362 571.514 34.3588 571.311 Q34.3813 571.086 34.494 570.905 Q34.6068 570.725 34.8547 570.725 Z" fill="#000000" fill-rule="nonzero" fill-opacity="1"></path><path clip-path="url(#clip370)" d="M72.3567 723.399 L72.3567 531.477 L68.8367 531.477 L68.8367 723.399  Z" fill="#000000" fill-rule="evenodd" fill-opacity="1"></path>
<path clip-path="url(#clip370)" d="M99.6303 703.142 Q100.532 703.142 100.758 703.561 Q100.951 703.979 100.951 705.139 L100.951 711.322 L120.403 716.217 Q122.11 716.604 123.559 716.604 Q125.17 716.604 125.878 716.121 Q126.587 715.606 126.587 714.543 Q126.587 712.449 124.686 710.195 Q122.786 707.908 118.149 705.976 Q117.537 705.718 117.408 705.59 Q117.247 705.429 117.247 705.01 Q117.247 704.205 117.891 704.205 Q118.116 704.205 119.147 704.656 Q120.178 705.074 121.691 706.008 Q123.205 706.91 124.622 708.102 Q126.039 709.261 127.07 711.032 Q128.068 712.804 128.068 714.704 Q128.068 717.377 126.361 719.084 Q124.654 720.758 121.981 720.758 Q121.112 720.758 118.342 720.082 Q115.54 719.406 100.951 715.734 L100.951 721.564 Q100.951 722.369 100.919 722.691 Q100.886 722.981 100.725 723.206 Q100.532 723.399 100.146 723.399 Q99.5337 723.399 99.2761 723.142 Q98.9862 722.884 98.954 722.562 Q98.8896 722.208 98.8896 721.403 L98.8896 715.219 L88.4227 712.643 Q87.3921 712.385 86.8124 711.741 Q86.2005 711.065 86.1361 710.678 Q86.0394 710.292 86.0394 710.002 Q86.0394 709.132 86.5225 708.617 Q86.9734 708.102 87.8108 708.102 Q88.2616 708.102 98.8896 710.807 L98.8896 705.01 Q98.8896 704.269 98.9218 703.979 Q98.954 703.657 99.115 703.4 Q99.2761 703.142 99.6303 703.142 Z" fill="#000000" fill-rule="nonzero" fill-opacity="1"></path><path clip-path="url(#clip370)" d="M117.344 684.506 Q118.336 684.506 119.08 685.318 Q119.801 686.107 119.801 686.964 Q119.801 687.753 119.328 688.249 Q118.832 688.722 118.133 688.722 Q117.209 688.722 116.442 687.933 Q115.676 687.144 115.676 686.22 Q115.676 685.453 116.149 684.98 Q116.623 684.506 117.344 684.506 M139.595 684.101 Q139.775 684.101 140.497 684.303 Q141.196 684.506 142.278 685.002 Q143.337 685.476 144.329 686.129 Q145.321 686.783 146.02 687.865 Q146.719 688.925 146.719 690.142 Q146.719 691.788 145.637 692.87 Q144.555 693.93 142.932 693.93 Q142.052 693.93 139.234 692.87 Q131.028 689.804 130.69 689.691 Q129.405 689.173 128.278 689.173 Q127.759 689.173 127.444 689.286 Q127.106 689.398 126.993 689.624 Q126.858 689.849 126.835 689.985 Q126.813 690.097 126.813 690.323 Q126.813 691.653 128.165 692.893 Q129.518 694.133 132.539 694.989 Q133.102 695.17 133.238 695.282 Q133.373 695.395 133.373 695.733 Q133.35 696.297 132.899 696.297 Q132.764 696.297 132.246 696.139 Q131.705 695.981 130.893 695.688 Q130.059 695.395 129.202 694.877 Q128.323 694.358 127.557 693.727 Q126.79 693.073 126.294 692.149 Q125.798 691.224 125.798 690.187 Q125.798 688.497 126.903 687.46 Q127.985 686.4 129.585 686.4 Q130.465 686.4 132.02 687.009 Q134.049 687.753 134.703 688.023 L139.55 689.827 Q141.308 690.48 141.849 690.683 Q142.368 690.864 142.999 691.022 Q143.608 691.157 144.172 691.157 Q144.961 691.157 145.321 690.909 Q145.682 690.638 145.682 690.052 Q145.682 688.429 144.081 687.234 Q142.458 686.039 139.978 685.34 Q139.911 685.318 139.798 685.295 Q139.234 685.115 139.167 684.935 Q139.144 684.844 139.144 684.664 Q139.144 684.101 139.595 684.101 Z" fill="#000000" fill-rule="nonzero" fill-opacity="1"></path><path clip-path="url(#clip370)" d="M139.595 655.139 Q139.775 655.139 140.474 655.342 Q141.173 655.545 142.255 656.041 Q143.337 656.514 144.329 657.168 Q145.299 657.822 146.02 658.904 Q146.719 659.964 146.719 661.181 Q146.719 662.804 145.637 663.886 Q144.555 664.968 142.932 664.968 Q142.03 664.968 140.79 664.495 Q132.787 661.497 130.036 661.497 Q126.813 661.497 126.813 663.999 Q126.813 665.239 127.286 666.411 Q127.737 667.561 128.368 668.35 Q128.999 669.139 129.879 669.86 Q130.735 670.559 131.321 670.92 Q131.885 671.258 132.449 671.529 L134.748 672.115 Q135.379 672.25 137.837 672.904 L142.007 673.918 Q145.118 674.64 145.411 674.798 Q146.043 675.023 146.381 675.519 Q146.719 676.015 146.719 676.511 Q146.719 677.074 146.381 677.458 Q146.043 677.841 145.457 677.841 Q145.366 677.841 145.028 677.773 Q144.69 677.706 144.217 677.593 Q143.743 677.48 143.473 677.435 L132.809 674.752 Q130.87 674.256 130.262 674.144 Q129.631 674.008 128.932 674.008 Q126.813 674.008 126.813 675.451 Q126.813 676.624 128.21 677.39 Q129.608 678.157 132.313 678.81 Q133.057 679.013 133.215 679.149 Q133.373 679.261 133.373 679.599 Q133.35 680.163 132.899 680.163 Q132.787 680.163 132.043 679.983 Q131.299 679.802 130.239 679.464 Q129.157 679.103 128.436 678.765 Q127.895 678.472 127.647 678.314 Q127.376 678.134 126.858 677.706 Q126.317 677.255 126.069 676.669 Q125.798 676.06 125.798 675.316 Q125.798 673.648 126.88 672.43 Q127.94 671.213 129.811 671.055 Q125.798 668.057 125.798 663.864 Q125.798 661.384 127.106 659.964 Q128.413 658.543 130.735 658.543 Q131.276 658.543 131.975 658.656 Q132.651 658.746 133.508 658.972 Q134.365 659.174 135.019 659.355 Q135.672 659.535 136.732 659.896 Q137.769 660.257 138.22 660.414 Q138.671 660.572 139.73 660.955 Q140.767 661.316 140.88 661.361 Q142.977 662.195 144.172 662.195 Q144.961 662.195 145.321 661.947 Q145.682 661.677 145.682 661.091 Q145.682 659.513 144.126 658.34 Q142.548 657.146 139.978 656.379 Q139.415 656.199 139.279 656.108 Q139.144 655.996 139.144 655.68 Q139.144 655.139 139.595 655.139 Z" fill="#000000" fill-rule="nonzero" fill-opacity="1"></path><path clip-path="url(#clip370)" d="M140.858 633.888 Q141.06 633.707 141.263 633.707 Q141.466 633.707 142.052 634.158 Q142.639 634.586 143.428 635.511 Q144.217 636.435 144.961 637.63 Q145.705 638.825 146.2 640.583 Q146.719 642.342 146.719 644.19 Q146.719 647.504 144.352 649.488 Q141.985 651.449 138.355 651.449 Q136.033 651.449 133.982 650.683 Q131.908 649.916 130.442 648.677 Q128.977 647.414 127.917 645.836 Q126.835 644.235 126.317 642.567 Q125.798 640.899 125.798 639.343 Q125.798 637.066 126.948 635.736 Q128.098 634.406 129.721 634.406 Q130.104 634.406 130.577 634.519 Q131.051 634.609 131.795 634.925 Q132.539 635.218 133.283 635.984 Q134.004 636.751 134.478 637.878 Q135.537 640.38 135.537 644.934 L135.537 647.392 Q138.445 648.113 140.339 648.113 Q141.083 648.113 141.849 647.978 Q142.593 647.842 143.54 647.482 Q144.487 647.098 145.096 646.242 Q145.682 645.363 145.682 644.1 Q145.682 643.694 145.659 643.266 Q145.637 642.815 145.389 641.688 Q145.141 640.538 144.713 639.524 Q144.284 638.509 143.36 637.224 Q142.413 635.917 141.128 634.88 Q140.655 634.519 140.655 634.271 Q140.655 634.068 140.858 633.888 M129.721 635.939 Q128.481 635.939 127.647 636.863 Q126.813 637.765 126.813 639.343 Q126.813 639.839 126.925 640.448 Q127.038 641.057 127.511 642.071 Q127.985 643.063 128.774 643.942 Q129.54 644.822 131.051 645.701 Q132.539 646.58 134.523 647.098 L134.523 645.205 Q134.523 644.551 134.523 644.078 Q134.5 643.604 134.41 642.567 Q134.32 641.508 134.162 640.741 Q133.982 639.975 133.621 639.005 Q133.26 638.036 132.787 637.427 Q132.291 636.796 131.502 636.367 Q130.713 635.939 129.721 635.939 Z" fill="#000000" fill-rule="nonzero" fill-opacity="1"></path><path clip-path="url(#clip370)" d="M128.842 608.164 Q130.104 608.164 130.825 608.953 Q131.524 609.742 131.524 610.644 Q131.524 611.501 131.028 611.952 Q130.532 612.402 129.901 612.402 Q129.044 612.402 128.3 611.771 Q127.557 611.14 127.399 610.193 Q126.813 611.117 126.813 612.493 Q126.813 613.394 127.286 614.183 Q127.759 614.95 128.368 615.423 Q128.977 615.874 129.856 616.28 Q130.713 616.663 131.231 616.821 Q131.727 616.956 132.268 617.069 L138.581 618.647 Q141.579 619.414 142.639 619.414 Q143.946 619.414 144.825 618.782 Q145.682 618.151 145.682 616.889 Q145.682 616.393 145.547 615.829 Q145.389 615.266 144.983 614.544 Q144.555 613.8 143.924 613.146 Q143.27 612.47 142.165 611.816 Q141.06 611.163 139.64 610.734 Q139.144 610.599 139.144 610.148 Q139.144 609.584 139.595 609.584 Q139.978 609.584 140.79 609.9 Q141.579 610.193 142.616 610.847 Q143.63 611.478 144.555 612.312 Q145.457 613.146 146.088 614.386 Q146.719 615.626 146.719 616.979 Q146.719 618.918 145.682 620.203 Q144.645 621.488 143.202 621.961 Q143.405 622.074 143.676 622.232 Q143.946 622.39 144.555 622.863 Q145.141 623.314 145.592 623.832 Q146.02 624.351 146.358 625.162 Q146.719 625.951 146.719 626.808 Q146.719 627.89 146.403 628.86 Q146.088 629.807 145.366 630.483 Q144.645 631.159 143.653 631.159 Q142.548 631.159 141.782 630.415 Q140.993 629.649 140.993 628.612 Q140.993 627.958 141.376 627.439 Q141.759 626.898 142.593 626.898 Q143.518 626.898 144.217 627.53 Q144.915 628.161 145.096 629.063 Q145.682 628.138 145.682 626.763 Q145.682 625.275 144.374 624.103 Q143.067 622.931 140.88 622.367 Q135.627 620.969 133.283 620.428 Q130.916 619.887 129.901 619.887 Q128.954 619.887 128.3 620.135 Q127.647 620.383 127.354 620.811 Q127.038 621.217 126.925 621.6 Q126.813 621.961 126.813 622.367 Q126.813 623.043 127.083 623.81 Q127.354 624.554 127.985 625.456 Q128.594 626.335 129.856 627.169 Q131.118 628.003 132.854 628.567 Q133.373 628.679 133.373 629.175 Q133.35 629.716 132.899 629.716 Q132.516 629.716 131.727 629.423 Q130.916 629.108 129.901 628.476 Q128.887 627.823 127.985 626.989 Q127.061 626.132 126.429 624.892 Q125.798 623.629 125.798 622.277 Q125.798 621.668 125.933 621.082 Q126.046 620.473 126.384 619.752 Q126.722 619.008 127.466 618.354 Q128.21 617.7 129.292 617.295 Q128.774 617.024 128.278 616.663 Q127.782 616.28 127.173 615.694 Q126.542 615.085 126.181 614.251 Q125.798 613.394 125.798 612.448 Q125.798 611.523 126.046 610.621 Q126.271 609.72 127.015 608.953 Q127.737 608.164 128.842 608.164 Z" fill="#000000" fill-rule="nonzero" fill-opacity="1"></path><path clip-path="url(#clip370)" d="M139.595 583.768 Q142.503 584.377 144.172 585.166 Q146.719 586.429 146.719 588.57 Q146.719 590.193 145.727 591.343 Q144.735 592.493 143.247 592.763 Q146.719 595.717 146.719 598.783 Q146.719 601.488 144.667 603.201 Q142.593 604.915 139.325 604.915 Q136.033 604.915 132.877 603.292 Q129.721 601.646 127.759 599.053 Q125.798 596.461 125.798 593.8 Q125.798 590.982 128.751 589.54 Q127.94 589.427 127.331 588.908 Q126.722 588.39 126.722 587.601 Q126.722 586.992 127.061 586.631 Q127.376 586.271 127.962 586.271 Q128.255 586.271 129.54 586.586 L135.988 588.255 L140.159 589.269 Q141.692 589.652 142.255 589.765 Q142.819 589.855 143.563 589.855 Q145.682 589.855 145.682 588.48 Q145.682 587.804 145.254 587.263 Q144.825 586.722 143.924 586.293 Q143.022 585.865 142.188 585.594 Q141.331 585.324 139.978 584.963 Q139.437 584.85 139.302 584.76 Q139.144 584.648 139.144 584.332 Q139.144 583.768 139.595 583.768 M130.87 590.103 Q130.668 590.103 130.104 590.261 Q129.54 590.419 128.751 590.78 Q127.962 591.14 127.399 591.929 Q126.813 592.696 126.813 593.733 Q126.813 595.131 128.007 596.596 Q129.202 598.039 131.231 599.098 Q132.854 599.91 136.259 600.789 Q139.663 601.646 141.353 601.646 Q142.391 601.646 143.315 601.42 Q144.217 601.172 144.961 600.473 Q145.682 599.775 145.682 598.693 Q145.682 596.055 142.413 593.462 Q141.849 592.966 141.624 592.854 Q141.376 592.718 140.7 592.538 L131.66 590.238 Q130.983 590.103 130.87 590.103 Z" fill="#000000" fill-rule="nonzero" fill-opacity="1"></path><path clip-path="url(#clip370)" d="M140.858 562.945 Q141.06 562.765 141.263 562.765 Q141.466 562.765 142.052 563.216 Q142.639 563.644 143.428 564.568 Q144.217 565.493 144.961 566.687 Q145.705 567.882 146.2 569.641 Q146.719 571.399 146.719 573.248 Q146.719 576.697 144.442 578.726 Q142.165 580.732 138.896 580.732 Q135.717 580.732 132.674 578.951 Q129.608 577.17 127.714 574.285 Q125.798 571.399 125.798 568.356 Q125.798 565.943 126.925 564.433 Q128.052 562.923 129.766 562.923 Q131.096 562.923 131.908 563.689 Q132.719 564.456 132.719 565.493 Q132.719 566.214 132.313 566.71 Q131.885 567.206 131.096 567.206 Q130.081 567.206 129.292 566.372 Q128.977 566.056 128.842 565.696 Q128.684 565.312 128.684 565.087 Q128.661 564.861 128.661 564.343 Q127.782 564.816 127.309 565.943 Q126.813 567.048 126.813 568.311 Q126.813 570.182 128.12 571.963 Q129.405 573.744 131.434 574.826 Q133.418 575.908 136.236 576.607 Q139.031 577.306 140.655 577.306 Q142.886 577.306 144.284 576.269 Q145.682 575.232 145.682 573.158 Q145.682 572.752 145.659 572.323 Q145.637 571.873 145.389 570.745 Q145.141 569.596 144.713 568.581 Q144.284 567.567 143.36 566.282 Q142.413 564.974 141.128 563.937 Q140.655 563.576 140.655 563.328 Q140.655 563.125 140.858 562.945 Z" fill="#000000" fill-rule="nonzero" fill-opacity="1"></path><path clip-path="url(#clip370)" d="M126.813 547.878 Q127.444 547.878 127.602 548.171 Q127.737 548.464 127.737 549.275 L127.737 553.604 L141.353 557.03 Q142.548 557.301 143.563 557.301 Q144.69 557.301 145.186 556.963 Q145.682 556.602 145.682 555.858 Q145.682 554.393 144.352 552.815 Q143.022 551.214 139.775 549.861 Q139.347 549.681 139.257 549.591 Q139.144 549.478 139.144 549.185 Q139.144 548.621 139.595 548.621 Q139.753 548.621 140.474 548.937 Q141.196 549.23 142.255 549.884 Q143.315 550.515 144.307 551.349 Q145.299 552.161 146.02 553.401 Q146.719 554.641 146.719 555.971 Q146.719 557.842 145.524 559.037 Q144.329 560.209 142.458 560.209 Q141.849 560.209 139.911 559.736 Q137.949 559.262 127.737 556.692 L127.737 560.773 Q127.737 561.336 127.714 561.562 Q127.692 561.765 127.579 561.923 Q127.444 562.058 127.173 562.058 Q126.745 562.058 126.565 561.877 Q126.362 561.697 126.339 561.472 Q126.294 561.224 126.294 560.66 L126.294 556.332 L118.967 554.528 Q118.246 554.348 117.84 553.897 Q117.412 553.423 117.367 553.153 Q117.299 552.882 117.299 552.679 Q117.299 552.071 117.637 551.71 Q117.953 551.349 118.539 551.349 Q118.854 551.349 126.294 553.243 L126.294 549.185 Q126.294 548.667 126.317 548.464 Q126.339 548.238 126.452 548.058 Q126.565 547.878 126.813 547.878 Z" fill="#000000" fill-rule="nonzero" fill-opacity="1"></path><path clip-path="url(#clip370)" d="M565.039 14.0809 L565.039 22.0612 Q560.38 19.8332 556.248 18.7395 Q552.117 17.6457 548.268 17.6457 Q541.584 17.6457 537.938 20.2383 Q534.333 22.8309 534.333 27.611 Q534.333 31.6214 536.723 33.6873 Q539.154 35.7128 545.878 36.9686 L550.82 37.9813 Q559.975 39.7232 564.31 44.1387 Q568.685 48.5136 568.685 55.8863 Q568.685 64.6767 562.77 69.2137 Q556.897 73.7508 545.514 73.7508 Q541.22 73.7508 536.359 72.7785 Q531.538 71.8063 526.353 69.9024 L526.353 61.4765 Q531.335 64.2716 536.115 65.6895 Q540.896 67.1073 545.514 67.1073 Q552.522 67.1073 556.329 64.3527 Q560.137 61.598 560.137 56.4939 Q560.137 52.0379 557.383 49.5264 Q554.669 47.0148 548.43 45.759 L543.448 44.7868 Q534.293 42.9639 530.201 39.075 Q526.11 35.1862 526.11 28.2591 Q526.11 20.2383 531.74 15.6203 Q537.412 11.0023 547.336 11.0023 Q551.59 11.0023 556.005 11.7719 Q560.421 12.5416 565.039 14.0809 Z" fill="#000000" fill-rule="nonzero" fill-opacity="1"></path><path clip-path="url(#clip370)" d="M588.332 65.7705 L588.332 89.8329 L580.837 89.8329 L580.837 27.2059 L588.332 27.2059 L588.332 34.0924 Q590.681 30.0415 594.246 28.0971 Q597.851 26.1121 602.834 26.1121 Q611.098 26.1121 616.242 32.6746 Q621.428 39.2371 621.428 49.9314 Q621.428 60.6258 616.242 67.1883 Q611.098 73.7508 602.834 73.7508 Q597.851 73.7508 594.246 71.8063 Q590.681 69.8214 588.332 65.7705 M613.69 49.9314 Q613.69 41.7081 610.288 37.0496 Q606.925 32.3505 601.011 32.3505 Q595.097 32.3505 591.694 37.0496 Q588.332 41.7081 588.332 49.9314 Q588.332 58.1548 591.694 62.8538 Q595.097 67.5124 601.011 67.5124 Q606.925 67.5124 610.288 62.8538 Q613.69 58.1548 613.69 49.9314 Z" fill="#000000" fill-rule="nonzero" fill-opacity="1"></path><path clip-path="url(#clip370)" d="M672.59 48.0275 L672.59 51.6733 L638.32 51.6733 Q638.806 59.3701 642.938 63.421 Q647.11 67.4314 654.523 67.4314 Q658.817 67.4314 662.828 66.3781 Q666.879 65.3249 670.849 63.2184 L670.849 70.267 Q666.838 71.9684 662.625 72.8596 Q658.412 73.7508 654.078 73.7508 Q643.221 73.7508 636.861 67.4314 Q630.542 61.1119 630.542 50.3365 Q630.542 39.1965 636.537 32.6746 Q642.573 26.1121 652.782 26.1121 Q661.937 26.1121 667.243 32.0264 Q672.59 37.9003 672.59 48.0275 M665.137 45.84 Q665.056 39.7232 661.693 36.0774 Q658.372 32.4315 652.863 32.4315 Q646.624 32.4315 642.857 35.9558 Q639.13 39.4801 638.563 45.8805 L665.137 45.84 Z" fill="#000000" fill-rule="nonzero" fill-opacity="1"></path><path clip-path="url(#clip370)" d="M723.632 48.0275 L723.632 51.6733 L689.361 51.6733 Q689.847 59.3701 693.979 63.421 Q698.152 67.4314 705.565 67.4314 Q709.859 67.4314 713.869 66.3781 Q717.92 65.3249 721.89 63.2184 L721.89 70.267 Q717.88 71.9684 713.667 72.8596 Q709.454 73.7508 705.119 73.7508 Q694.263 73.7508 687.903 67.4314 Q681.583 61.1119 681.583 50.3365 Q681.583 39.1965 687.579 32.6746 Q693.615 26.1121 703.823 26.1121 Q712.978 26.1121 718.285 32.0264 Q723.632 37.9003 723.632 48.0275 M716.178 45.84 Q716.097 39.7232 712.735 36.0774 Q709.413 32.4315 703.904 32.4315 Q697.666 32.4315 693.898 35.9558 Q690.171 39.4801 689.604 45.8805 L716.178 45.84 Z" fill="#000000" fill-rule="nonzero" fill-opacity="1"></path><path clip-path="url(#clip370)" d="M765.721 34.0924 L765.721 9.54393 L773.174 9.54393 L773.174 72.576 L765.721 72.576 L765.721 65.7705 Q763.371 69.8214 759.766 71.8063 Q756.201 73.7508 751.178 73.7508 Q742.955 73.7508 737.769 67.1883 Q732.625 60.6258 732.625 49.9314 Q732.625 39.2371 737.769 32.6746 Q742.955 26.1121 751.178 26.1121 Q756.201 26.1121 759.766 28.0971 Q763.371 30.0415 765.721 34.0924 M740.322 49.9314 Q740.322 58.1548 743.684 62.8538 Q747.087 67.5124 753.001 67.5124 Q758.915 67.5124 762.318 62.8538 Q765.721 58.1548 765.721 49.9314 Q765.721 41.7081 762.318 37.0496 Q758.915 32.3505 753.001 32.3505 Q747.087 32.3505 743.684 37.0496 Q740.322 41.7081 740.322 49.9314 Z" fill="#000000" fill-rule="nonzero" fill-opacity="1"></path><path clip-path="url(#clip370)" d="M784.76 46.5287 L806.594 46.5287 L806.594 53.1722 L784.76 53.1722 L784.76 46.5287 Z" fill="#000000" fill-rule="nonzero" fill-opacity="1"></path><path clip-path="url(#clip370)" d="M817.694 54.671 L817.694 27.2059 L825.147 27.2059 L825.147 54.3874 Q825.147 60.8284 827.659 64.0691 Q830.171 67.2693 835.194 67.2693 Q841.23 67.2693 844.713 63.421 Q848.238 59.5726 848.238 52.9291 L848.238 27.2059 L855.691 27.2059 L855.691 72.576 L848.238 72.576 L848.238 65.6084 Q845.524 69.7404 841.918 71.7658 Q838.353 73.7508 833.614 73.7508 Q825.796 73.7508 821.745 68.8897 Q817.694 64.0286 817.694 54.671 M836.45 26.1121 L836.45 26.1121 Z" fill="#000000" fill-rule="nonzero" fill-opacity="1"></path><path clip-path="url(#clip370)" d="M878.255 65.7705 L878.255 89.8329 L870.761 89.8329 L870.761 27.2059 L878.255 27.2059 L878.255 34.0924 Q880.604 30.0415 884.169 28.0971 Q887.774 26.1121 892.757 26.1121 Q901.021 26.1121 906.166 32.6746 Q911.351 39.2371 911.351 49.9314 Q911.351 60.6258 906.166 67.1883 Q901.021 73.7508 892.757 73.7508 Q887.774 73.7508 884.169 71.8063 Q880.604 69.8214 878.255 65.7705 M903.613 49.9314 Q903.613 41.7081 900.211 37.0496 Q896.848 32.3505 890.934 32.3505 Q885.02 32.3505 881.617 37.0496 Q878.255 41.7081 878.255 49.9314 Q878.255 58.1548 881.617 62.8538 Q885.02 67.5124 890.934 67.5124 Q896.848 67.5124 900.211 62.8538 Q903.613 58.1548 903.613 49.9314 Z" fill="#000000" fill-rule="nonzero" fill-opacity="1"></path><path clip-path="url(#clip370)" d="M973.046 9.54393 L973.046 15.7418 L965.916 15.7418 Q961.906 15.7418 960.326 17.3622 Q958.787 18.9825 958.787 23.1955 L958.787 27.2059 L971.061 27.2059 L971.061 32.9987 L958.787 32.9987 L958.787 72.576 L951.293 72.576 L951.293 32.9987 L944.163 32.9987 L944.163 27.2059 L951.293 27.2059 L951.293 24.0462 Q951.293 16.471 954.817 13.0277 Q958.341 9.54393 965.997 9.54393 L973.046 9.54393 Z" fill="#000000" fill-rule="nonzero" fill-opacity="1"></path><path clip-path="url(#clip370)" d="M996.865 32.4315 Q990.87 32.4315 987.386 37.1306 Q983.902 41.7891 983.902 49.9314 Q983.902 58.0738 987.346 62.7728 Q990.829 67.4314 996.865 67.4314 Q1002.82 67.4314 1006.3 62.7323 Q1009.79 58.0333 1009.79 49.9314 Q1009.79 41.8701 1006.3 37.1711 Q1002.82 32.4315 996.865 32.4315 M996.865 26.1121 Q1006.59 26.1121 1012.14 32.4315 Q1017.69 38.7509 1017.69 49.9314 Q1017.69 61.0714 1012.14 67.4314 Q1006.59 73.7508 996.865 73.7508 Q987.103 73.7508 981.553 67.4314 Q976.044 61.0714 976.044 49.9314 Q976.044 38.7509 981.553 32.4315 Q987.103 26.1121 996.865 26.1121 Z" fill="#000000" fill-rule="nonzero" fill-opacity="1"></path><path clip-path="url(#clip370)" d="M1056.33 34.1734 Q1055.08 33.4443 1053.58 33.1202 Q1052.12 32.7556 1050.34 32.7556 Q1044.02 32.7556 1040.62 36.8875 Q1037.25 40.9789 1037.25 48.6757 L1037.25 72.576 L1029.76 72.576 L1029.76 27.2059 L1037.25 27.2059 L1037.25 34.2544 Q1039.6 30.1225 1043.37 28.1376 Q1047.14 26.1121 1052.52 26.1121 Q1053.29 26.1121 1054.23 26.2337 Q1055.16 26.3147 1056.29 26.5172 L1056.33 34.1734 Z" fill="#000000" fill-rule="nonzero" fill-opacity="1"></path><path clip-path="url(#clip370)" d="M1113.49 9.54393 L1113.49 15.7418 L1106.36 15.7418 Q1102.35 15.7418 1100.77 17.3622 Q1099.23 18.9825 1099.23 23.1955 L1099.23 27.2059 L1111.51 27.2059 L1111.51 32.9987 L1099.23 32.9987 L1099.23 72.576 L1091.74 72.576 L1091.74 32.9987 L1084.61 32.9987 L1084.61 27.2059 L1091.74 27.2059 L1091.74 24.0462 Q1091.74 16.471 1095.26 13.0277 Q1098.79 9.54393 1106.44 9.54393 L1113.49 9.54393 Z" fill="#000000" fill-rule="nonzero" fill-opacity="1"></path><path clip-path="url(#clip370)" d="M1119.73 27.2059 L1127.18 27.2059 L1127.18 72.576 L1119.73 72.576 L1119.73 27.2059 M1119.73 9.54393 L1127.18 9.54393 L1127.18 18.9825 L1119.73 18.9825 L1119.73 9.54393 Z" fill="#000000" fill-rule="nonzero" fill-opacity="1"></path><path clip-path="url(#clip370)" d="M1180.49 27.2059 L1164.09 49.2833 L1181.34 72.576 L1172.55 72.576 L1159.35 54.752 L1146.14 72.576 L1137.35 72.576 L1154.97 48.8377 L1138.85 27.2059 L1147.64 27.2059 L1159.67 43.369 L1171.7 27.2059 L1180.49 27.2059 Z" fill="#000000" fill-rule="nonzero" fill-opacity="1"></path><path clip-path="url(#clip370)" d="M1228.13 48.0275 L1228.13 51.6733 L1193.86 51.6733 Q1194.35 59.3701 1198.48 63.421 Q1202.65 67.4314 1210.06 67.4314 Q1214.36 67.4314 1218.37 66.3781 Q1222.42 65.3249 1226.39 63.2184 L1226.39 70.267 Q1222.38 71.9684 1218.17 72.8596 Q1213.95 73.7508 1209.62 73.7508 Q1198.76 73.7508 1192.4 67.4314 Q1186.08 61.1119 1186.08 50.3365 Q1186.08 39.1965 1192.08 32.6746 Q1198.11 26.1121 1208.32 26.1121 Q1217.48 26.1121 1222.78 32.0264 Q1228.13 37.9003 1228.13 48.0275 M1220.68 45.84 Q1220.6 39.7232 1217.23 36.0774 Q1213.91 32.4315 1208.4 32.4315 Q1202.17 32.4315 1198.4 35.9558 Q1194.67 39.4801 1194.1 45.8805 L1220.68 45.84 Z" fill="#000000" fill-rule="nonzero" fill-opacity="1"></path><path clip-path="url(#clip370)" d="M1270.22 34.0924 L1270.22 9.54393 L1277.67 9.54393 L1277.67 72.576 L1270.22 72.576 L1270.22 65.7705 Q1267.87 69.8214 1264.27 71.8063 Q1260.7 73.7508 1255.68 73.7508 Q1247.45 73.7508 1242.27 67.1883 Q1237.12 60.6258 1237.12 49.9314 Q1237.12 39.2371 1242.27 32.6746 Q1247.45 26.1121 1255.68 26.1121 Q1260.7 26.1121 1264.27 28.0971 Q1267.87 30.0415 1270.22 34.0924 M1244.82 49.9314 Q1244.82 58.1548 1248.18 62.8538 Q1251.59 67.5124 1257.5 67.5124 Q1263.41 67.5124 1266.82 62.8538 Q1270.22 58.1548 1270.22 49.9314 Q1270.22 41.7081 1266.82 37.0496 Q1263.41 32.3505 1257.5 32.3505 Q1251.59 32.3505 1248.18 37.0496 Q1244.82 41.7081 1244.82 49.9314 Z" fill="#000000" fill-rule="nonzero" fill-opacity="1"></path><path clip-path="url(#clip370)" d="M1289.26 46.5287 L1311.09 46.5287 L1311.09 53.1722 L1289.26 53.1722 L1289.26 46.5287 Z" fill="#000000" fill-rule="nonzero" fill-opacity="1"></path><path clip-path="url(#clip370)" d="M1351.89 28.5427 L1351.89 35.5912 Q1348.73 33.9709 1345.32 33.1607 Q1341.92 32.3505 1338.28 32.3505 Q1332.73 32.3505 1329.93 34.0519 Q1327.18 35.7533 1327.18 39.156 Q1327.18 41.7486 1329.16 43.2475 Q1331.15 44.7058 1337.14 46.0426 L1339.69 46.6097 Q1347.63 48.3111 1350.95 51.4303 Q1354.32 54.509 1354.32 60.0587 Q1354.32 66.3781 1349.29 70.0644 Q1344.31 73.7508 1335.56 73.7508 Q1331.92 73.7508 1327.95 73.0216 Q1324.02 72.3329 1319.64 70.9151 L1319.64 63.2184 Q1323.77 65.3654 1327.78 66.4591 Q1331.79 67.5124 1335.72 67.5124 Q1340.99 67.5124 1343.83 65.73 Q1346.66 63.9071 1346.66 60.6258 Q1346.66 57.5877 1344.59 55.9673 Q1342.57 54.3469 1335.64 52.8481 L1333.05 52.2405 Q1326.12 50.7821 1323.04 47.7845 Q1319.97 44.7463 1319.97 39.4801 Q1319.97 33.0797 1324.5 29.5959 Q1329.04 26.1121 1337.38 26.1121 Q1341.52 26.1121 1345.16 26.7198 Q1348.81 27.3274 1351.89 28.5427 Z" fill="#000000" fill-rule="nonzero" fill-opacity="1"></path><path clip-path="url(#clip370)" d="M1366.19 27.2059 L1373.64 27.2059 L1373.64 72.576 L1366.19 72.576 L1366.19 27.2059 M1366.19 9.54393 L1373.64 9.54393 L1373.64 18.9825 L1366.19 18.9825 L1366.19 9.54393 Z" fill="#000000" fill-rule="nonzero" fill-opacity="1"></path><path clip-path="url(#clip370)" d="M1386 27.2059 L1421.4 27.2059 L1421.4 34.0114 L1393.37 66.6212 L1421.4 66.6212 L1421.4 72.576 L1384.98 72.576 L1384.98 65.7705 L1413.01 33.1607 L1386 33.1607 L1386 27.2059 Z" fill="#000000" fill-rule="nonzero" fill-opacity="1"></path><path clip-path="url(#clip370)" d="M1471.59 48.0275 L1471.59 51.6733 L1437.32 51.6733 Q1437.81 59.3701 1441.94 63.421 Q1446.11 67.4314 1453.52 67.4314 Q1457.82 67.4314 1461.83 66.3781 Q1465.88 65.3249 1469.85 63.2184 L1469.85 70.267 Q1465.84 71.9684 1461.63 72.8596 Q1457.41 73.7508 1453.08 73.7508 Q1442.22 73.7508 1435.86 67.4314 Q1429.54 61.1119 1429.54 50.3365 Q1429.54 39.1965 1435.54 32.6746 Q1441.57 26.1121 1451.78 26.1121 Q1460.94 26.1121 1466.24 32.0264 Q1471.59 37.9003 1471.59 48.0275 M1464.14 45.84 Q1464.06 39.7232 1460.69 36.0774 Q1457.37 32.4315 1451.86 32.4315 Q1445.62 32.4315 1441.86 35.9558 Q1438.13 39.4801 1437.56 45.8805 L1464.14 45.84 Z" fill="#000000" fill-rule="nonzero" fill-opacity="1"></path><path clip-path="url(#clip370)" d="M1510.52 12.096 L1518.7 12.096 L1518.7 72.576 L1510.52 72.576 L1510.52 12.096 Z" fill="#000000" fill-rule="nonzero" fill-opacity="1"></path><path clip-path="url(#clip370)" d="M1572.38 45.1919 L1572.38 72.576 L1564.92 72.576 L1564.92 45.4349 Q1564.92 38.994 1562.41 35.7938 Q1559.9 32.5936 1554.88 32.5936 Q1548.84 32.5936 1545.36 36.4419 Q1541.87 40.2903 1541.87 46.9338 L1541.87 72.576 L1534.38 72.576 L1534.38 27.2059 L1541.87 27.2059 L1541.87 34.2544 Q1544.55 30.163 1548.15 28.1376 Q1551.8 26.1121 1556.54 26.1121 Q1564.36 26.1121 1568.37 30.9732 Q1572.38 35.7938 1572.38 45.1919 Z" fill="#000000" fill-rule="nonzero" fill-opacity="1"></path><path clip-path="url(#clip370)" d="M1626.05 48.0275 L1626.05 51.6733 L1591.78 51.6733 Q1592.27 59.3701 1596.4 63.421 Q1600.57 67.4314 1607.98 67.4314 Q1612.28 67.4314 1616.29 66.3781 Q1620.34 65.3249 1624.31 63.2184 L1624.31 70.267 Q1620.3 71.9684 1616.09 72.8596 Q1611.87 73.7508 1607.54 73.7508 Q1596.68 73.7508 1590.32 67.4314 Q1584 61.1119 1584 50.3365 Q1584 39.1965 1590 32.6746 Q1596.03 26.1121 1606.24 26.1121 Q1615.4 26.1121 1620.7 32.0264 Q1626.05 37.9003 1626.05 48.0275 M1618.6 45.84 Q1618.52 39.7232 1615.15 36.0774 Q1611.83 32.4315 1606.32 32.4315 Q1600.09 32.4315 1596.32 35.9558 Q1592.59 39.4801 1592.02 45.8805 L1618.6 45.84 Z" fill="#000000" fill-rule="nonzero" fill-opacity="1"></path><path clip-path="url(#clip370)" d="M1674.54 27.2059 L1658.13 49.2833 L1675.39 72.576 L1666.6 72.576 L1653.4 54.752 L1640.19 72.576 L1631.4 72.576 L1649.02 48.8377 L1632.9 27.2059 L1641.69 27.2059 L1653.72 43.369 L1665.75 27.2059 L1674.54 27.2059 Z" fill="#000000" fill-rule="nonzero" fill-opacity="1"></path><path clip-path="url(#clip370)" d="M1706.54 49.7694 Q1697.51 49.7694 1694.03 51.8354 Q1690.54 53.9013 1690.54 58.8839 Q1690.54 62.8538 1693.13 65.2034 Q1695.77 67.5124 1700.26 67.5124 Q1706.46 67.5124 1710.19 63.1374 Q1713.96 58.7219 1713.96 51.4303 L1713.96 49.7694 L1706.54 49.7694 M1721.41 46.6907 L1721.41 72.576 L1713.96 72.576 L1713.96 65.6895 Q1711.4 69.8214 1707.6 71.8063 Q1703.79 73.7508 1698.28 73.7508 Q1691.31 73.7508 1687.18 69.8619 Q1683.09 65.9325 1683.09 59.3701 Q1683.09 51.7138 1688.19 47.825 Q1693.34 43.9361 1703.51 43.9361 L1713.96 43.9361 L1713.96 43.2069 Q1713.96 38.0623 1710.55 35.2672 Q1707.19 32.4315 1701.07 32.4315 Q1697.19 32.4315 1693.5 33.3632 Q1689.81 34.295 1686.41 36.1584 L1686.41 29.2718 Q1690.5 27.692 1694.35 26.9223 Q1698.2 26.1121 1701.84 26.1121 Q1711.69 26.1121 1716.55 31.2163 Q1721.41 36.3204 1721.41 46.6907 Z" fill="#000000" fill-rule="nonzero" fill-opacity="1"></path><path clip-path="url(#clip370)" d="M1769.41 28.9478 L1769.41 35.9153 Q1766.25 34.1734 1763.05 33.3227 Q1759.89 32.4315 1756.65 32.4315 Q1749.4 32.4315 1745.39 37.0496 Q1741.38 41.6271 1741.38 49.9314 Q1741.38 58.2358 1745.39 62.8538 Q1749.4 67.4314 1756.65 67.4314 Q1759.89 67.4314 1763.05 66.5807 Q1766.25 65.6895 1769.41 63.9476 L1769.41 70.8341 Q1766.29 72.2924 1762.93 73.0216 Q1759.61 73.7508 1755.84 73.7508 Q1745.59 73.7508 1739.56 67.3098 Q1733.52 60.8689 1733.52 49.9314 Q1733.52 38.832 1739.6 32.472 Q1745.72 26.1121 1756.33 26.1121 Q1759.77 26.1121 1763.05 26.8413 Q1766.33 27.5299 1769.41 28.9478 Z" fill="#000000" fill-rule="nonzero" fill-opacity="1"></path><path clip-path="url(#clip370)" d="M1789.75 14.324 L1789.75 27.2059 L1805.1 27.2059 L1805.1 32.9987 L1789.75 32.9987 L1789.75 57.6282 Q1789.75 63.1779 1791.25 64.7578 Q1792.79 66.3376 1797.45 66.3376 L1805.1 66.3376 L1805.1 72.576 L1797.45 72.576 Q1788.82 72.576 1785.54 69.3758 Q1782.25 66.1351 1782.25 57.6282 L1782.25 32.9987 L1776.79 32.9987 L1776.79 27.2059 L1782.25 27.2059 L1782.25 14.324 L1789.75 14.324 Z" fill="#000000" fill-rule="nonzero" fill-opacity="1"></path><path clip-path="url(#clip370)" d="M1882.84 63.9476 L1882.84 47.7034 L1869.47 47.7034 L1869.47 40.9789 L1890.94 40.9789 L1890.94 66.9452 Q1886.2 70.3075 1880.49 72.0494 Q1874.78 73.7508 1868.3 73.7508 Q1854.12 73.7508 1846.1 65.4869 Q1838.12 57.1826 1838.12 42.3968 Q1838.12 27.5705 1846.1 19.3066 Q1854.12 11.0023 1868.3 11.0023 Q1874.21 11.0023 1879.52 12.4606 Q1884.86 13.9189 1889.36 16.7545 L1889.36 25.464 Q1884.82 21.6156 1879.72 19.6712 Q1874.62 17.7268 1868.98 17.7268 Q1857.89 17.7268 1852.29 23.9246 Q1846.75 30.1225 1846.75 42.3968 Q1846.75 54.6305 1852.29 60.8284 Q1857.89 67.0263 1868.98 67.0263 Q1873.32 67.0263 1876.72 66.2971 Q1880.12 65.5274 1882.84 63.9476 Z" fill="#000000" fill-rule="nonzero" fill-opacity="1"></path><path clip-path="url(#clip370)" d="M1905.89 12.096 L1918.08 12.096 L1933.52 53.2532 L1949.03 12.096 L1961.22 12.096 L1961.22 72.576 L1953.24 72.576 L1953.24 19.4686 L1937.65 60.9499 L1929.42 60.9499 L1913.83 19.4686 L1913.83 72.576 L1905.89 72.576 L1905.89 12.096 Z" fill="#000000" fill-rule="nonzero" fill-opacity="1"></path><path clip-path="url(#clip370)" d="M2006.15 44.2197 Q2008.78 45.1109 2011.25 48.0275 Q2013.76 50.9442 2016.28 56.0483 L2024.58 72.576 L2015.79 72.576 L2008.05 57.061 Q2005.05 50.9847 2002.22 48.9997 Q1999.42 47.0148 1994.56 47.0148 L1985.65 47.0148 L1985.65 72.576 L1977.47 72.576 L1977.47 12.096 L1995.94 12.096 Q2006.31 12.096 2011.41 16.4305 Q2016.52 20.7649 2016.52 29.5149 Q2016.52 35.2267 2013.84 38.994 Q2011.21 42.7613 2006.15 44.2197 M1985.65 18.8205 L1985.65 40.2903 L1995.94 40.2903 Q2001.85 40.2903 2004.85 37.5762 Q2007.89 34.8216 2007.89 29.5149 Q2007.89 24.2082 2004.85 21.5346 Q2001.85 18.8205 1995.94 18.8205 L1985.65 18.8205 Z" fill="#000000" fill-rule="nonzero" fill-opacity="1"></path><path clip-path="url(#clip370)" d="M2035.11 12.096 L2073.35 12.096 L2073.35 18.9825 L2043.29 18.9825 L2043.29 36.8875 L2072.1 36.8875 L2072.1 43.7741 L2043.29 43.7741 L2043.29 65.6895 L2074.08 65.6895 L2074.08 72.576 L2035.11 72.576 L2035.11 12.096 Z" fill="#000000" fill-rule="nonzero" fill-opacity="1"></path><path clip-path="url(#clip370)" d="M2123.79 14.0809 L2123.79 22.0612 Q2119.13 19.8332 2115 18.7395 Q2110.86 17.6457 2107.02 17.6457 Q2100.33 17.6457 2096.69 20.2383 Q2093.08 22.8309 2093.08 27.611 Q2093.08 31.6214 2095.47 33.6873 Q2097.9 35.7128 2104.63 36.9686 L2109.57 37.9813 Q2118.72 39.7232 2123.06 44.1387 Q2127.43 48.5136 2127.43 55.8863 Q2127.43 64.6767 2121.52 69.2137 Q2115.64 73.7508 2104.26 73.7508 Q2099.97 73.7508 2095.11 72.7785 Q2090.29 71.8063 2085.1 69.9024 L2085.1 61.4765 Q2090.08 64.2716 2094.86 65.6895 Q2099.64 67.1073 2104.26 67.1073 Q2111.27 67.1073 2115.08 64.3527 Q2118.88 61.598 2118.88 56.4939 Q2118.88 52.0379 2116.13 49.5264 Q2113.42 47.0148 2107.18 45.759 L2102.2 44.7868 Q2093.04 42.9639 2088.95 39.075 Q2084.86 35.1862 2084.86 28.2591 Q2084.86 20.2383 2090.49 15.6203 Q2096.16 11.0023 2106.08 11.0023 Q2110.34 11.0023 2114.75 11.7719 Q2119.17 12.5416 2123.79 14.0809 Z" fill="#000000" fill-rule="nonzero" fill-opacity="1"></path><circle clip-path="url(#clip372)" cx="2294.68" cy="477.128" r="14.4" fill="#009af9" fill-rule="evenodd" fill-opacity="1" stroke="#000000" stroke-opacity="1" stroke-width="3.2"></circle>
<circle clip-path="url(#clip372)" cx="1972.04" cy="159.909" r="14.4" fill="#009af9" fill-rule="evenodd" fill-opacity="1" stroke="#000000" stroke-opacity="1" stroke-width="3.2"></circle>
<circle clip-path="url(#clip372)" cx="1649.41" cy="385.862" r="14.4" fill="#009af9" fill-rule="evenodd" fill-opacity="1" stroke="#000000" stroke-opacity="1" stroke-width="3.2"></circle>
<circle clip-path="url(#clip372)" cx="1326.77" cy="394.284" r="14.4" fill="#009af9" fill-rule="evenodd" fill-opacity="1" stroke="#000000" stroke-opacity="1" stroke-width="3.2"></circle>
<circle clip-path="url(#clip372)" cx="1004.13" cy="848.432" r="14.4" fill="#009af9" fill-rule="evenodd" fill-opacity="1" stroke="#000000" stroke-opacity="1" stroke-width="3.2"></circle>
<circle clip-path="url(#clip372)" cx="681.497" cy="1122.99" r="14.4" fill="#009af9" fill-rule="evenodd" fill-opacity="1" stroke="#000000" stroke-opacity="1" stroke-width="3.2"></circle>
<circle clip-path="url(#clip372)" cx="358.861" cy="1374.46" r="14.4" fill="#009af9" fill-rule="evenodd" fill-opacity="1" stroke="#000000" stroke-opacity="1" stroke-width="3.2"></circle>
</svg>