<svg xmlns="http://www.w3.org/2000/svg" xmlns:xlink="http://www.w3.org/1999/xlink" width="600" height="400" viewBox="0 0 2400 1600">
<defs>
  <clipPath id="clip220">
    <rect x="0" y="0" width="2400" height="1600"></rect>
  </clipPath>
</defs>
<path clip-path="url(#clip220)" d="M0 1600 L2400 1600 L2400 0 L0 0  Z" fill="#ffffff" fill-rule="evenodd" fill-opacity="1"></path>
<defs>
  <clipPath id="clip221">
    <rect x="480" y="0" width="1681" height="1600"></rect>
  </clipPath>
</defs>
<path clip-path="url(#clip220)" d="M262.551 1423.18 L2352.76 1423.18 L2352.76 123.472 L262.551 123.472  Z" fill="#ffffff" fill-rule="evenodd" fill-opacity="1"></path>
<defs>
  <clipPath id="clip222">
    <rect x="262" y="123" width="2091" height="1301"></rect>
  </clipPath>
</defs>
<polyline clip-path="url(#clip222)" style="stroke:#000000; stroke-linecap:round; stroke-linejoin:round; stroke-width:2; stroke-opacity:0.1; fill:none" points="321.708,1423.18 321.708,123.472 "></polyline>
<polyline clip-path="url(#clip222)" style="stroke:#000000; stroke-linecap:round; stroke-linejoin:round; stroke-width:2; stroke-opacity:0.1; fill:none" points="711.413,1423.18 711.413,123.472 "></polyline>
<polyline clip-path="url(#clip222)" style="stroke:#000000; stroke-linecap:round; stroke-linejoin:round; stroke-width:2; stroke-opacity:0.1; fill:none" points="1008.45,1423.18 1008.45,123.472 "></polyline>
<polyline clip-path="url(#clip222)" style="stroke:#000000; stroke-linecap:round; stroke-linejoin:round; stroke-width:2; stroke-opacity:0.1; fill:none" points="1305.5,1423.18 1305.5,123.472 "></polyline>
<polyline clip-path="url(#clip222)" style="stroke:#000000; stroke-linecap:round; stroke-linejoin:round; stroke-width:2; stroke-opacity:0.1; fill:none" points="1698.54,1423.18 1698.54,123.472 "></polyline>
<polyline clip-path="url(#clip222)" style="stroke:#000000; stroke-linecap:round; stroke-linejoin:round; stroke-width:2; stroke-opacity:0.1; fill:none" points="1996.06,1423.18 1996.06,123.472 "></polyline>
<polyline clip-path="url(#clip222)" style="stroke:#000000; stroke-linecap:round; stroke-linejoin:round; stroke-width:2; stroke-opacity:0.1; fill:none" points="2293.6,1423.18 2293.6,123.472 "></polyline>
<polyline clip-path="url(#clip220)" style="stroke:#000000; stroke-linecap:round; stroke-linejoin:round; stroke-width:4; stroke-opacity:1; fill:none" points="262.551,1423.18 2352.76,1423.18 "></polyline>
<polyline clip-path="url(#clip220)" style="stroke:#000000; stroke-linecap:round; stroke-linejoin:round; stroke-width:4; stroke-opacity:1; fill:none" points="321.708,1423.18 321.708,1404.28 "></polyline>
<polyline clip-path="url(#clip220)" style="stroke:#000000; stroke-linecap:round; stroke-linejoin:round; stroke-width:4; stroke-opacity:1; fill:none" points="711.413,1423.18 711.413,1404.28 "></polyline>
<polyline clip-path="url(#clip220)" style="stroke:#000000; stroke-linecap:round; stroke-linejoin:round; stroke-width:4; stroke-opacity:1; fill:none" points="1008.45,1423.18 1008.45,1404.28 "></polyline>
<polyline clip-path="url(#clip220)" style="stroke:#000000; stroke-linecap:round; stroke-linejoin:round; stroke-width:4; stroke-opacity:1; fill:none" points="1305.5,1423.18 1305.5,1404.28 "></polyline>
<polyline clip-path="url(#clip220)" style="stroke:#000000; stroke-linecap:round; stroke-linejoin:round; stroke-width:4; stroke-opacity:1; fill:none" points="1698.54,1423.18 1698.54,1404.28 "></polyline>
<polyline clip-path="url(#clip220)" style="stroke:#000000; stroke-linecap:round; stroke-linejoin:round; stroke-width:4; stroke-opacity:1; fill:none" points="1996.06,1423.18 1996.06,1404.28 "></polyline>
<polyline clip-path="url(#clip220)" style="stroke:#000000; stroke-linecap:round; stroke-linejoin:round; stroke-width:4; stroke-opacity:1; fill:none" points="2293.6,1423.18 2293.6,1404.28 "></polyline>
<path clip-path="url(#clip220)" d="M266.234 1481.64 L273.873 1481.64 L273.873 1455.28 L265.562 1456.95 L265.562 1452.69 L273.826 1451.02 L278.502 1451.02 L278.502 1481.64 L286.141 1481.64 L286.141 1485.58 L266.234 1485.58 L266.234 1481.64 Z" fill="#000000" fill-rule="nonzero" fill-opacity="1"></path><path clip-path="url(#clip220)" d="M306.164 1466.44 Q303.016 1466.44 301.164 1468.59 Q299.335 1470.74 299.335 1474.49 Q299.335 1478.22 301.164 1480.39 Q303.016 1482.55 306.164 1482.55 Q309.312 1482.55 311.141 1480.39 Q312.993 1478.22 312.993 1474.49 Q312.993 1470.74 311.141 1468.59 Q309.312 1466.44 306.164 1466.44 M315.446 1451.78 L315.446 1456.04 Q313.687 1455.21 311.882 1454.77 Q310.099 1454.33 308.34 1454.33 Q303.71 1454.33 301.257 1457.45 Q298.826 1460.58 298.479 1466.9 Q299.845 1464.89 301.905 1463.82 Q303.965 1462.73 306.442 1462.73 Q311.65 1462.73 314.659 1465.9 Q317.692 1469.05 317.692 1474.49 Q317.692 1479.82 314.544 1483.03 Q311.396 1486.25 306.164 1486.25 Q300.169 1486.25 296.997 1481.67 Q293.826 1477.06 293.826 1468.33 Q293.826 1460.14 297.715 1455.28 Q301.604 1450.39 308.155 1450.39 Q309.914 1450.39 311.696 1450.74 Q313.502 1451.09 315.446 1451.78 Z" fill="#000000" fill-rule="nonzero" fill-opacity="1"></path><path clip-path="url(#clip220)" d="M325.794 1451.02 L344.15 1451.02 L344.15 1454.96 L330.076 1454.96 L330.076 1463.43 Q331.094 1463.08 332.113 1462.92 Q333.132 1462.73 334.15 1462.73 Q339.937 1462.73 343.317 1465.9 Q346.696 1469.08 346.696 1474.49 Q346.696 1480.07 343.224 1483.17 Q339.752 1486.25 333.432 1486.25 Q331.257 1486.25 328.988 1485.88 Q326.743 1485.51 324.335 1484.77 L324.335 1480.07 Q326.419 1481.2 328.641 1481.76 Q330.863 1482.32 333.34 1482.32 Q337.344 1482.32 339.682 1480.21 Q342.02 1478.1 342.02 1474.49 Q342.02 1470.88 339.682 1468.77 Q337.344 1466.67 333.34 1466.67 Q331.465 1466.67 329.59 1467.08 Q327.738 1467.5 325.794 1468.38 L325.794 1451.02 Z" fill="#000000" fill-rule="nonzero" fill-opacity="1"></path><path clip-path="url(#clip220)" d="M365.909 1454.1 Q362.298 1454.1 360.469 1457.66 Q358.664 1461.2 358.664 1468.33 Q358.664 1475.44 360.469 1479.01 Q362.298 1482.55 365.909 1482.55 Q369.543 1482.55 371.349 1479.01 Q373.178 1475.44 373.178 1468.33 Q373.178 1461.2 371.349 1457.66 Q369.543 1454.1 365.909 1454.1 M365.909 1450.39 Q371.719 1450.39 374.775 1455 Q377.853 1459.58 377.853 1468.33 Q377.853 1477.06 374.775 1481.67 Q371.719 1486.25 365.909 1486.25 Q360.099 1486.25 357.02 1481.67 Q353.965 1477.06 353.965 1468.33 Q353.965 1459.58 357.02 1455 Q360.099 1450.39 365.909 1450.39 Z" fill="#000000" fill-rule="nonzero" fill-opacity="1"></path><path clip-path="url(#clip220)" d="M669.422 1455.09 L657.617 1473.54 L669.422 1473.54 L669.422 1455.09 M668.195 1451.02 L674.075 1451.02 L674.075 1473.54 L679.005 1473.54 L679.005 1477.43 L674.075 1477.43 L674.075 1485.58 L669.422 1485.58 L669.422 1477.43 L653.82 1477.43 L653.82 1472.92 L668.195 1451.02 Z" fill="#000000" fill-rule="nonzero" fill-opacity="1"></path><path clip-path="url(#clip220)" d="M696.737 1454.1 Q693.126 1454.1 691.297 1457.66 Q689.491 1461.2 689.491 1468.33 Q689.491 1475.44 691.297 1479.01 Q693.126 1482.55 696.737 1482.55 Q700.371 1482.55 702.177 1479.01 Q704.005 1475.44 704.005 1468.33 Q704.005 1461.2 702.177 1457.66 Q700.371 1454.1 696.737 1454.1 M696.737 1450.39 Q702.547 1450.39 705.602 1455 Q708.681 1459.58 708.681 1468.33 Q708.681 1477.06 705.602 1481.67 Q702.547 1486.25 696.737 1486.25 Q690.927 1486.25 687.848 1481.67 Q684.792 1477.06 684.792 1468.33 Q684.792 1459.58 687.848 1455 Q690.927 1450.39 696.737 1450.39 Z" fill="#000000" fill-rule="nonzero" fill-opacity="1"></path><path clip-path="url(#clip220)" d="M717.038 1484.86 L717.038 1480.6 Q718.797 1481.44 720.602 1481.88 Q722.408 1482.32 724.144 1482.32 Q728.774 1482.32 731.204 1479.21 Q733.658 1476.09 734.005 1469.75 Q732.662 1471.74 730.602 1472.8 Q728.542 1473.87 726.042 1473.87 Q720.857 1473.87 717.825 1470.74 Q714.815 1467.59 714.815 1462.15 Q714.815 1456.83 717.963 1453.61 Q721.112 1450.39 726.343 1450.39 Q732.338 1450.39 735.487 1455 Q738.658 1459.58 738.658 1468.33 Q738.658 1476.51 734.769 1481.39 Q730.903 1486.25 724.352 1486.25 Q722.593 1486.25 720.788 1485.9 Q718.982 1485.56 717.038 1484.86 M726.343 1470.21 Q729.491 1470.21 731.32 1468.06 Q733.172 1465.9 733.172 1462.15 Q733.172 1458.43 731.32 1456.27 Q729.491 1454.1 726.343 1454.1 Q723.195 1454.1 721.343 1456.27 Q719.514 1458.43 719.514 1462.15 Q719.514 1465.9 721.343 1468.06 Q723.195 1470.21 726.343 1470.21 Z" fill="#000000" fill-rule="nonzero" fill-opacity="1"></path><path clip-path="url(#clip220)" d="M757.06 1454.1 Q753.449 1454.1 751.621 1457.66 Q749.815 1461.2 749.815 1468.33 Q749.815 1475.44 751.621 1479.01 Q753.449 1482.55 757.06 1482.55 Q760.695 1482.55 762.5 1479.01 Q764.329 1475.44 764.329 1468.33 Q764.329 1461.2 762.5 1457.66 Q760.695 1454.1 757.06 1454.1 M757.06 1450.39 Q762.871 1450.39 765.926 1455 Q769.005 1459.58 769.005 1468.33 Q769.005 1477.06 765.926 1481.67 Q762.871 1486.25 757.06 1486.25 Q751.25 1486.25 748.172 1481.67 Q745.116 1477.06 745.116 1468.33 Q745.116 1459.58 748.172 1455 Q751.25 1450.39 757.06 1450.39 Z" fill="#000000" fill-rule="nonzero" fill-opacity="1"></path><path clip-path="url(#clip220)" d="M963.166 1469.17 Q959.832 1469.17 957.911 1470.95 Q956.013 1472.73 956.013 1475.86 Q956.013 1478.98 957.911 1480.77 Q959.832 1482.55 963.166 1482.55 Q966.499 1482.55 968.42 1480.77 Q970.342 1478.96 970.342 1475.86 Q970.342 1472.73 968.42 1470.95 Q966.522 1469.17 963.166 1469.17 M958.49 1467.18 Q955.481 1466.44 953.791 1464.38 Q952.124 1462.32 952.124 1459.35 Q952.124 1455.21 955.064 1452.8 Q958.027 1450.39 963.166 1450.39 Q968.328 1450.39 971.268 1452.8 Q974.207 1455.21 974.207 1459.35 Q974.207 1462.32 972.518 1464.38 Q970.851 1466.44 967.865 1467.18 Q971.244 1467.96 973.119 1470.26 Q975.018 1472.55 975.018 1475.86 Q975.018 1480.88 971.939 1483.57 Q968.883 1486.25 963.166 1486.25 Q957.448 1486.25 954.369 1483.57 Q951.314 1480.88 951.314 1475.86 Q951.314 1472.55 953.212 1470.26 Q955.11 1467.96 958.49 1467.18 M956.777 1459.79 Q956.777 1462.48 958.444 1463.98 Q960.133 1465.49 963.166 1465.49 Q966.175 1465.49 967.865 1463.98 Q969.578 1462.48 969.578 1459.79 Q969.578 1457.11 967.865 1455.6 Q966.175 1454.1 963.166 1454.1 Q960.133 1454.1 958.444 1455.6 Q956.777 1457.11 956.777 1459.79 Z" fill="#000000" fill-rule="nonzero" fill-opacity="1"></path><path clip-path="url(#clip220)" d="M984.138 1481.64 L991.777 1481.64 L991.777 1455.28 L983.467 1456.95 L983.467 1452.69 L991.73 1451.02 L996.406 1451.02 L996.406 1481.64 L1004.05 1481.64 L1004.05 1485.58 L984.138 1485.58 L984.138 1481.64 Z" fill="#000000" fill-rule="nonzero" fill-opacity="1"></path><path clip-path="url(#clip220)" d="M1012.31 1451.02 L1034.53 1451.02 L1034.53 1453.01 L1021.98 1485.58 L1017.1 1485.58 L1028.91 1454.96 L1012.31 1454.96 L1012.31 1451.02 Z" fill="#000000" fill-rule="nonzero" fill-opacity="1"></path><path clip-path="url(#clip220)" d="M1053.65 1454.1 Q1050.04 1454.1 1048.21 1457.66 Q1046.41 1461.2 1046.41 1468.33 Q1046.41 1475.44 1048.21 1479.01 Q1050.04 1482.55 1053.65 1482.55 Q1057.29 1482.55 1059.09 1479.01 Q1060.92 1475.44 1060.92 1468.33 Q1060.92 1461.2 1059.09 1457.66 Q1057.29 1454.1 1053.65 1454.1 M1053.65 1450.39 Q1059.46 1450.39 1062.52 1455 Q1065.6 1459.58 1065.6 1468.33 Q1065.6 1477.06 1062.52 1481.67 Q1059.46 1486.25 1053.65 1486.25 Q1047.84 1486.25 1044.76 1481.67 Q1041.71 1477.06 1041.71 1468.33 Q1041.71 1459.58 1044.76 1455 Q1047.84 1450.39 1053.65 1450.39 Z" fill="#000000" fill-rule="nonzero" fill-opacity="1"></path><path clip-path="url(#clip220)" d="M1234.94 1481.64 L1242.58 1481.64 L1242.58 1455.28 L1234.27 1456.95 L1234.27 1452.69 L1242.53 1451.02 L1247.21 1451.02 L1247.21 1481.64 L1254.85 1481.64 L1254.85 1485.58 L1234.94 1485.58 L1234.94 1481.64 Z" fill="#000000" fill-rule="nonzero" fill-opacity="1"></path><path clip-path="url(#clip220)" d="M1274.87 1466.44 Q1271.72 1466.44 1269.87 1468.59 Q1268.04 1470.74 1268.04 1474.49 Q1268.04 1478.22 1269.87 1480.39 Q1271.72 1482.55 1274.87 1482.55 Q1278.02 1482.55 1279.85 1480.39 Q1281.7 1478.22 1281.7 1474.49 Q1281.7 1470.74 1279.85 1468.59 Q1278.02 1466.44 1274.87 1466.44 M1284.15 1451.78 L1284.15 1456.04 Q1282.39 1455.21 1280.59 1454.77 Q1278.81 1454.33 1277.05 1454.33 Q1272.42 1454.33 1269.96 1457.45 Q1267.53 1460.58 1267.19 1466.9 Q1268.55 1464.89 1270.61 1463.82 Q1272.67 1462.73 1275.15 1462.73 Q1280.36 1462.73 1283.37 1465.9 Q1286.4 1469.05 1286.4 1474.49 Q1286.4 1479.82 1283.25 1483.03 Q1280.1 1486.25 1274.87 1486.25 Q1268.88 1486.25 1265.7 1481.67 Q1262.53 1477.06 1262.53 1468.33 Q1262.53 1460.14 1266.42 1455.28 Q1270.31 1450.39 1276.86 1450.39 Q1278.62 1450.39 1280.4 1450.74 Q1282.21 1451.09 1284.15 1451.78 Z" fill="#000000" fill-rule="nonzero" fill-opacity="1"></path><path clip-path="url(#clip220)" d="M1308.62 1466.95 Q1311.98 1467.66 1313.85 1469.93 Q1315.75 1472.2 1315.75 1475.53 Q1315.75 1480.65 1312.23 1483.45 Q1308.71 1486.25 1302.23 1486.25 Q1300.06 1486.25 1297.74 1485.81 Q1295.45 1485.39 1293 1484.54 L1293 1480.02 Q1294.94 1481.16 1297.26 1481.74 Q1299.57 1482.32 1302.09 1482.32 Q1306.49 1482.32 1308.78 1480.58 Q1311.1 1478.84 1311.1 1475.53 Q1311.1 1472.48 1308.95 1470.77 Q1306.82 1469.03 1303 1469.03 L1298.97 1469.03 L1298.97 1465.19 L1303.18 1465.19 Q1306.63 1465.19 1308.46 1463.82 Q1310.29 1462.43 1310.29 1459.84 Q1310.29 1457.18 1308.39 1455.77 Q1306.51 1454.33 1303 1454.33 Q1301.08 1454.33 1298.88 1454.75 Q1296.68 1455.16 1294.04 1456.04 L1294.04 1451.88 Q1296.7 1451.14 1299.01 1450.77 Q1301.35 1450.39 1303.41 1450.39 Q1308.74 1450.39 1311.84 1452.83 Q1314.94 1455.23 1314.94 1459.35 Q1314.94 1462.22 1313.3 1464.21 Q1311.65 1466.18 1308.62 1466.95 Z" fill="#000000" fill-rule="nonzero" fill-opacity="1"></path><path clip-path="url(#clip220)" d="M1328.64 1481.64 L1344.96 1481.64 L1344.96 1485.58 L1323.02 1485.58 L1323.02 1481.64 Q1325.68 1478.89 1330.26 1474.26 Q1334.87 1469.61 1336.05 1468.27 Q1338.3 1465.74 1339.18 1464.01 Q1340.08 1462.25 1340.08 1460.56 Q1340.08 1457.8 1338.14 1456.07 Q1336.21 1454.33 1333.11 1454.33 Q1330.91 1454.33 1328.46 1455.09 Q1326.03 1455.86 1323.25 1457.41 L1323.25 1452.69 Q1326.08 1451.55 1328.53 1450.97 Q1330.98 1450.39 1333.02 1450.39 Q1338.39 1450.39 1341.58 1453.08 Q1344.78 1455.77 1344.78 1460.26 Q1344.78 1462.39 1343.97 1464.31 Q1343.18 1466.2 1341.07 1468.8 Q1340.5 1469.47 1337.39 1472.69 Q1334.29 1475.88 1328.64 1481.64 Z" fill="#000000" fill-rule="nonzero" fill-opacity="1"></path><path clip-path="url(#clip220)" d="M1364.78 1454.1 Q1361.17 1454.1 1359.34 1457.66 Q1357.53 1461.2 1357.53 1468.33 Q1357.53 1475.44 1359.34 1479.01 Q1361.17 1482.55 1364.78 1482.55 Q1368.41 1482.55 1370.22 1479.01 Q1372.05 1475.44 1372.05 1468.33 Q1372.05 1461.2 1370.22 1457.66 Q1368.41 1454.1 1364.78 1454.1 M1364.78 1450.39 Q1370.59 1450.39 1373.64 1455 Q1376.72 1459.58 1376.72 1468.33 Q1376.72 1477.06 1373.64 1481.67 Q1370.59 1486.25 1364.78 1486.25 Q1358.97 1486.25 1355.89 1481.67 Q1352.83 1477.06 1352.83 1468.33 Q1352.83 1459.58 1355.89 1455 Q1358.97 1450.39 1364.78 1450.39 Z" fill="#000000" fill-rule="nonzero" fill-opacity="1"></path><path clip-path="url(#clip220)" d="M1641.47 1455.09 L1629.67 1473.54 L1641.47 1473.54 L1641.47 1455.09 M1640.25 1451.02 L1646.12 1451.02 L1646.12 1473.54 L1651.06 1473.54 L1651.06 1477.43 L1646.12 1477.43 L1646.12 1485.58 L1641.47 1485.58 L1641.47 1477.43 L1625.87 1477.43 L1625.87 1472.92 L1640.25 1451.02 Z" fill="#000000" fill-rule="nonzero" fill-opacity="1"></path><path clip-path="url(#clip220)" d="M1668.79 1454.1 Q1665.18 1454.1 1663.35 1457.66 Q1661.54 1461.2 1661.54 1468.33 Q1661.54 1475.44 1663.35 1479.01 Q1665.18 1482.55 1668.79 1482.55 Q1672.42 1482.55 1674.23 1479.01 Q1676.06 1475.44 1676.06 1468.33 Q1676.06 1461.2 1674.23 1457.66 Q1672.42 1454.1 1668.79 1454.1 M1668.79 1450.39 Q1674.6 1450.39 1677.65 1455 Q1680.73 1459.58 1680.73 1468.33 Q1680.73 1477.06 1677.65 1481.67 Q1674.6 1486.25 1668.79 1486.25 Q1662.98 1486.25 1659.9 1481.67 Q1656.84 1477.06 1656.84 1468.33 Q1656.84 1459.58 1659.9 1455 Q1662.98 1450.39 1668.79 1450.39 Z" fill="#000000" fill-rule="nonzero" fill-opacity="1"></path><path clip-path="url(#clip220)" d="M1687.77 1451.02 L1709.99 1451.02 L1709.99 1453.01 L1697.44 1485.58 L1692.56 1485.58 L1704.37 1454.96 L1687.77 1454.96 L1687.77 1451.02 Z" fill="#000000" fill-rule="nonzero" fill-opacity="1"></path><path clip-path="url(#clip220)" d="M1717.93 1451.02 L1740.15 1451.02 L1740.15 1453.01 L1727.61 1485.58 L1722.72 1485.58 L1734.53 1454.96 L1717.93 1454.96 L1717.93 1451.02 Z" fill="#000000" fill-rule="nonzero" fill-opacity="1"></path><path clip-path="url(#clip220)" d="M1759.27 1454.1 Q1755.66 1454.1 1753.83 1457.66 Q1752.03 1461.2 1752.03 1468.33 Q1752.03 1475.44 1753.83 1479.01 Q1755.66 1482.55 1759.27 1482.55 Q1762.91 1482.55 1764.71 1479.01 Q1766.54 1475.44 1766.54 1468.33 Q1766.54 1461.2 1764.71 1457.66 Q1762.91 1454.1 1759.27 1454.1 M1759.27 1450.39 Q1765.08 1450.39 1768.14 1455 Q1771.22 1459.58 1771.22 1468.33 Q1771.22 1477.06 1768.14 1481.67 Q1765.08 1486.25 1759.27 1486.25 Q1753.46 1486.25 1750.38 1481.67 Q1747.33 1477.06 1747.33 1468.33 Q1747.33 1459.58 1750.38 1455 Q1753.46 1450.39 1759.27 1450.39 Z" fill="#000000" fill-rule="nonzero" fill-opacity="1"></path><path clip-path="url(#clip220)" d="M1935.69 1469.17 Q1932.35 1469.17 1930.43 1470.95 Q1928.54 1472.73 1928.54 1475.86 Q1928.54 1478.98 1930.43 1480.77 Q1932.35 1482.55 1935.69 1482.55 Q1939.02 1482.55 1940.94 1480.77 Q1942.86 1478.96 1942.86 1475.86 Q1942.86 1472.73 1940.94 1470.95 Q1939.04 1469.17 1935.69 1469.17 M1931.01 1467.18 Q1928 1466.44 1926.31 1464.38 Q1924.65 1462.32 1924.65 1459.35 Q1924.65 1455.21 1927.59 1452.8 Q1930.55 1450.39 1935.69 1450.39 Q1940.85 1450.39 1943.79 1452.8 Q1946.73 1455.21 1946.73 1459.35 Q1946.73 1462.32 1945.04 1464.38 Q1943.37 1466.44 1940.39 1467.18 Q1943.77 1467.96 1945.64 1470.26 Q1947.54 1472.55 1947.54 1475.86 Q1947.54 1480.88 1944.46 1483.57 Q1941.41 1486.25 1935.69 1486.25 Q1929.97 1486.25 1926.89 1483.57 Q1923.84 1480.88 1923.84 1475.86 Q1923.84 1472.55 1925.73 1470.26 Q1927.63 1467.96 1931.01 1467.18 M1929.3 1459.79 Q1929.3 1462.48 1930.97 1463.98 Q1932.66 1465.49 1935.69 1465.49 Q1938.7 1465.49 1940.39 1463.98 Q1942.1 1462.48 1942.1 1459.79 Q1942.1 1457.11 1940.39 1455.6 Q1938.7 1454.1 1935.69 1454.1 Q1932.66 1454.1 1930.97 1455.6 Q1929.3 1457.11 1929.3 1459.79 Z" fill="#000000" fill-rule="nonzero" fill-opacity="1"></path><path clip-path="url(#clip220)" d="M1956.66 1481.64 L1964.3 1481.64 L1964.3 1455.28 L1955.99 1456.95 L1955.99 1452.69 L1964.25 1451.02 L1968.93 1451.02 L1968.93 1481.64 L1976.57 1481.64 L1976.57 1485.58 L1956.66 1485.58 L1956.66 1481.64 Z" fill="#000000" fill-rule="nonzero" fill-opacity="1"></path><path clip-path="url(#clip220)" d="M1986.06 1451.02 L2004.41 1451.02 L2004.41 1454.96 L1990.34 1454.96 L1990.34 1463.43 Q1991.36 1463.08 1992.38 1462.92 Q1993.4 1462.73 1994.41 1462.73 Q2000.2 1462.73 2003.58 1465.9 Q2006.96 1469.08 2006.96 1474.49 Q2006.96 1480.07 2003.49 1483.17 Q2000.02 1486.25 1993.7 1486.25 Q1991.52 1486.25 1989.25 1485.88 Q1987.01 1485.51 1984.6 1484.77 L1984.6 1480.07 Q1986.68 1481.2 1988.91 1481.76 Q1991.13 1482.32 1993.6 1482.32 Q1997.61 1482.32 1999.95 1480.21 Q2002.28 1478.1 2002.28 1474.49 Q2002.28 1470.88 1999.95 1468.77 Q1997.61 1466.67 1993.6 1466.67 Q1991.73 1466.67 1989.85 1467.08 Q1988 1467.5 1986.06 1468.38 L1986.06 1451.02 Z" fill="#000000" fill-rule="nonzero" fill-opacity="1"></path><path clip-path="url(#clip220)" d="M2030.34 1466.95 Q2033.7 1467.66 2035.57 1469.93 Q2037.47 1472.2 2037.47 1475.53 Q2037.47 1480.65 2033.95 1483.45 Q2030.43 1486.25 2023.95 1486.25 Q2021.78 1486.25 2019.46 1485.81 Q2017.17 1485.39 2014.72 1484.54 L2014.72 1480.02 Q2016.66 1481.16 2018.97 1481.74 Q2021.29 1482.32 2023.81 1482.32 Q2028.21 1482.32 2030.5 1480.58 Q2032.82 1478.84 2032.82 1475.53 Q2032.82 1472.48 2030.66 1470.77 Q2028.53 1469.03 2024.72 1469.03 L2020.69 1469.03 L2020.69 1465.19 L2024.9 1465.19 Q2028.35 1465.19 2030.18 1463.82 Q2032.01 1462.43 2032.01 1459.84 Q2032.01 1457.18 2030.11 1455.77 Q2028.23 1454.33 2024.72 1454.33 Q2022.79 1454.33 2020.6 1454.75 Q2018.4 1455.16 2015.76 1456.04 L2015.76 1451.88 Q2018.42 1451.14 2020.73 1450.77 Q2023.07 1450.39 2025.13 1450.39 Q2030.46 1450.39 2033.56 1452.83 Q2036.66 1455.23 2036.66 1459.35 Q2036.66 1462.22 2035.02 1464.21 Q2033.37 1466.18 2030.34 1466.95 Z" fill="#000000" fill-rule="nonzero" fill-opacity="1"></path><path clip-path="url(#clip220)" d="M2056.34 1454.1 Q2052.72 1454.1 2050.9 1457.66 Q2049.09 1461.2 2049.09 1468.33 Q2049.09 1475.44 2050.9 1479.01 Q2052.72 1482.55 2056.34 1482.55 Q2059.97 1482.55 2061.78 1479.01 Q2063.6 1475.44 2063.6 1468.33 Q2063.6 1461.2 2061.78 1457.66 Q2059.97 1454.1 2056.34 1454.1 M2056.34 1450.39 Q2062.15 1450.39 2065.2 1455 Q2068.28 1459.58 2068.28 1468.33 Q2068.28 1477.06 2065.2 1481.67 Q2062.15 1486.25 2056.34 1486.25 Q2050.53 1486.25 2047.45 1481.67 Q2044.39 1477.06 2044.39 1468.33 Q2044.39 1459.58 2047.45 1455 Q2050.53 1450.39 2056.34 1450.39 Z" fill="#000000" fill-rule="nonzero" fill-opacity="1"></path><path clip-path="url(#clip220)" d="M2207.96 1481.64 L2215.6 1481.64 L2215.6 1455.28 L2207.29 1456.95 L2207.29 1452.69 L2215.56 1451.02 L2220.23 1451.02 L2220.23 1481.64 L2227.87 1481.64 L2227.87 1485.58 L2207.96 1485.58 L2207.96 1481.64 Z" fill="#000000" fill-rule="nonzero" fill-opacity="1"></path><path clip-path="url(#clip220)" d="M2247.89 1466.44 Q2244.75 1466.44 2242.89 1468.59 Q2241.06 1470.74 2241.06 1474.49 Q2241.06 1478.22 2242.89 1480.39 Q2244.75 1482.55 2247.89 1482.55 Q2251.04 1482.55 2252.87 1480.39 Q2254.72 1478.22 2254.72 1474.49 Q2254.72 1470.74 2252.87 1468.59 Q2251.04 1466.44 2247.89 1466.44 M2257.18 1451.78 L2257.18 1456.04 Q2255.42 1455.21 2253.61 1454.77 Q2251.83 1454.33 2250.07 1454.33 Q2245.44 1454.33 2242.99 1457.45 Q2240.56 1460.58 2240.21 1466.9 Q2241.57 1464.89 2243.63 1463.82 Q2245.69 1462.73 2248.17 1462.73 Q2253.38 1462.73 2256.39 1465.9 Q2259.42 1469.05 2259.42 1474.49 Q2259.42 1479.82 2256.27 1483.03 Q2253.12 1486.25 2247.89 1486.25 Q2241.9 1486.25 2238.73 1481.67 Q2235.56 1477.06 2235.56 1468.33 Q2235.56 1460.14 2239.44 1455.28 Q2243.33 1450.39 2249.88 1450.39 Q2251.64 1450.39 2253.43 1450.74 Q2255.23 1451.09 2257.18 1451.78 Z" fill="#000000" fill-rule="nonzero" fill-opacity="1"></path><path clip-path="url(#clip220)" d="M2281.64 1466.95 Q2285 1467.66 2286.87 1469.93 Q2288.77 1472.2 2288.77 1475.53 Q2288.77 1480.65 2285.25 1483.45 Q2281.74 1486.25 2275.25 1486.25 Q2273.08 1486.25 2270.76 1485.81 Q2268.47 1485.39 2266.02 1484.54 L2266.02 1480.02 Q2267.96 1481.16 2270.28 1481.74 Q2272.59 1482.32 2275.12 1482.32 Q2279.51 1482.32 2281.81 1480.58 Q2284.12 1478.84 2284.12 1475.53 Q2284.12 1472.48 2281.97 1470.77 Q2279.84 1469.03 2276.02 1469.03 L2271.99 1469.03 L2271.99 1465.19 L2276.2 1465.19 Q2279.65 1465.19 2281.48 1463.82 Q2283.31 1462.43 2283.31 1459.84 Q2283.31 1457.18 2281.41 1455.77 Q2279.54 1454.33 2276.02 1454.33 Q2274.1 1454.33 2271.9 1454.75 Q2269.7 1455.16 2267.06 1456.04 L2267.06 1451.88 Q2269.72 1451.14 2272.04 1450.77 Q2274.37 1450.39 2276.43 1450.39 Q2281.76 1450.39 2284.86 1452.83 Q2287.96 1455.23 2287.96 1459.35 Q2287.96 1462.22 2286.32 1464.21 Q2284.68 1466.18 2281.64 1466.95 Z" fill="#000000" fill-rule="nonzero" fill-opacity="1"></path><path clip-path="url(#clip220)" d="M2307.64 1454.1 Q2304.03 1454.1 2302.2 1457.66 Q2300.39 1461.2 2300.39 1468.33 Q2300.39 1475.44 2302.2 1479.01 Q2304.03 1482.55 2307.64 1482.55 Q2311.27 1482.55 2313.08 1479.01 Q2314.91 1475.44 2314.91 1468.33 Q2314.91 1461.2 2313.08 1457.66 Q2311.27 1454.1 2307.64 1454.1 M2307.64 1450.39 Q2313.45 1450.39 2316.5 1455 Q2319.58 1459.58 2319.58 1468.33 Q2319.58 1477.06 2316.5 1481.67 Q2313.45 1486.25 2307.64 1486.25 Q2301.83 1486.25 2298.75 1481.67 Q2295.69 1477.06 2295.69 1468.33 Q2295.69 1459.58 2298.75 1455 Q2301.83 1450.39 2307.64 1450.39 Z" fill="#000000" fill-rule="nonzero" fill-opacity="1"></path><path clip-path="url(#clip220)" d="M2327.85 1451.02 L2346.2 1451.02 L2346.2 1454.96 L2332.13 1454.96 L2332.13 1463.43 Q2333.15 1463.08 2334.17 1462.92 Q2335.18 1462.73 2336.2 1462.73 Q2341.99 1462.73 2345.37 1465.9 Q2348.75 1469.08 2348.75 1474.49 Q2348.75 1480.07 2345.28 1483.17 Q2341.8 1486.25 2335.49 1486.25 Q2333.31 1486.25 2331.04 1485.88 Q2328.8 1485.51 2326.39 1484.77 L2326.39 1480.07 Q2328.47 1481.2 2330.69 1481.76 Q2332.92 1482.32 2335.39 1482.32 Q2339.4 1482.32 2341.74 1480.21 Q2344.07 1478.1 2344.07 1474.49 Q2344.07 1470.88 2341.74 1468.77 Q2339.4 1466.67 2335.39 1466.67 Q2333.52 1466.67 2331.64 1467.08 Q2329.79 1467.5 2327.85 1468.38 L2327.85 1451.02 Z" fill="#000000" fill-rule="nonzero" fill-opacity="1"></path><path clip-path="url(#clip220)" d="M2367.96 1454.1 Q2364.35 1454.1 2362.52 1457.66 Q2360.72 1461.2 2360.72 1468.33 Q2360.72 1475.44 2362.52 1479.01 Q2364.35 1482.55 2367.96 1482.55 Q2371.6 1482.55 2373.4 1479.01 Q2375.23 1475.44 2375.23 1468.33 Q2375.23 1461.2 2373.4 1457.66 Q2371.6 1454.1 2367.96 1454.1 M2367.96 1450.39 Q2373.77 1450.39 2376.83 1455 Q2379.91 1459.58 2379.91 1468.33 Q2379.91 1477.06 2376.83 1481.67 Q2373.77 1486.25 2367.96 1486.25 Q2362.15 1486.25 2359.07 1481.67 Q2356.02 1477.06 2356.02 1468.33 Q2356.02 1459.58 2359.07 1455 Q2362.15 1450.39 2367.96 1450.39 Z" fill="#000000" fill-rule="nonzero" fill-opacity="1"></path><path clip-path="url(#clip220)" d="M751.8 1524.88 Q744.798 1524.88 740.66 1530.1 Q736.554 1535.32 736.554 1544.33 Q736.554 1553.31 740.66 1558.53 Q744.798 1563.75 751.8 1563.75 Q758.802 1563.75 762.876 1558.53 Q766.982 1553.31 766.982 1544.33 Q766.982 1535.32 762.876 1530.1 Q758.802 1524.88 751.8 1524.88 M751.8 1519.66 Q761.794 1519.66 767.778 1526.38 Q773.762 1533.06 773.762 1544.33 Q773.762 1555.57 767.778 1562.28 Q761.794 1568.97 751.8 1568.97 Q741.774 1568.97 735.758 1562.28 Q729.775 1555.6 729.775 1544.33 Q729.775 1533.06 735.758 1526.38 Q741.774 1519.66 751.8 1519.66 Z" fill="#000000" fill-rule="nonzero" fill-opacity="1"></path><path clip-path="url(#clip220)" d="M779.364 1532.4 L785.57 1532.4 L796.71 1562.31 L807.85 1532.4 L814.057 1532.4 L800.689 1568.04 L792.732 1568.04 L779.364 1532.4 Z" fill="#000000" fill-rule="nonzero" fill-opacity="1"></path><path clip-path="url(#clip220)" d="M852.633 1548.76 L852.633 1551.62 L825.706 1551.62 Q826.088 1557.67 829.334 1560.85 Q832.613 1564 838.437 1564 Q841.811 1564 844.962 1563.17 Q848.145 1562.35 851.264 1560.69 L851.264 1566.23 Q848.113 1567.57 844.803 1568.27 Q841.493 1568.97 838.087 1568.97 Q829.557 1568.97 824.56 1564 Q819.595 1559.04 819.595 1550.57 Q819.595 1541.82 824.305 1536.69 Q829.048 1531.54 837.069 1531.54 Q844.262 1531.54 848.431 1536.18 Q852.633 1540.8 852.633 1548.76 M846.776 1547.04 Q846.713 1542.23 844.071 1539.37 Q841.461 1536.5 837.132 1536.5 Q832.231 1536.5 829.271 1539.27 Q826.342 1542.04 825.897 1547.07 L846.776 1547.04 Z" fill="#000000" fill-rule="nonzero" fill-opacity="1"></path><path clip-path="url(#clip220)" d="M882.902 1537.87 Q881.915 1537.3 880.737 1537.04 Q879.592 1536.76 878.191 1536.76 Q873.226 1536.76 870.552 1540 Q867.911 1543.22 867.911 1549.27 L867.911 1568.04 L862.022 1568.04 L862.022 1532.4 L867.911 1532.4 L867.911 1537.93 Q869.757 1534.69 872.717 1533.13 Q875.677 1531.54 879.91 1531.54 Q880.515 1531.54 881.247 1531.63 Q881.979 1531.7 882.87 1531.85 L882.902 1537.87 Z" fill="#000000" fill-rule="nonzero" fill-opacity="1"></path><path clip-path="url(#clip220)" d="M905.245 1550.12 Q898.148 1550.12 895.41 1551.75 Q892.673 1553.37 892.673 1557.29 Q892.673 1560.4 894.71 1562.25 Q896.779 1564.07 900.312 1564.07 Q905.182 1564.07 908.11 1560.63 Q911.07 1557.16 911.07 1551.43 L911.07 1550.12 L905.245 1550.12 M916.926 1547.71 L916.926 1568.04 L911.07 1568.04 L911.07 1562.63 Q909.065 1565.88 906.073 1567.44 Q903.081 1568.97 898.752 1568.97 Q893.278 1568.97 890.031 1565.91 Q886.817 1562.82 886.817 1557.67 Q886.817 1551.65 890.827 1548.6 Q894.869 1545.54 902.858 1545.54 L911.07 1545.54 L911.07 1544.97 Q911.07 1540.93 908.396 1538.73 Q905.755 1536.5 900.949 1536.5 Q897.893 1536.5 894.997 1537.23 Q892.1 1537.97 889.427 1539.43 L889.427 1534.02 Q892.641 1532.78 895.665 1532.17 Q898.689 1531.54 901.553 1531.54 Q909.288 1531.54 913.107 1535.55 Q916.926 1539.56 916.926 1547.71 Z" fill="#000000" fill-rule="nonzero" fill-opacity="1"></path><path clip-path="url(#clip220)" d="M928.99 1518.52 L934.846 1518.52 L934.846 1568.04 L928.99 1568.04 L928.99 1518.52 Z" fill="#000000" fill-rule="nonzero" fill-opacity="1"></path><path clip-path="url(#clip220)" d="M947.1 1518.52 L952.956 1518.52 L952.956 1568.04 L947.1 1568.04 L947.1 1518.52 Z" fill="#000000" fill-rule="nonzero" fill-opacity="1"></path><path clip-path="url(#clip220)" d="M991.724 1522.27 L991.724 1532.4 L1003.79 1532.4 L1003.79 1536.95 L991.724 1536.95 L991.724 1556.3 Q991.724 1560.66 992.901 1561.9 Q994.111 1563.14 997.771 1563.14 L1003.79 1563.14 L1003.79 1568.04 L997.771 1568.04 Q990.991 1568.04 988.413 1565.53 Q985.835 1562.98 985.835 1556.3 L985.835 1536.95 L981.538 1536.95 L981.538 1532.4 L985.835 1532.4 L985.835 1522.27 L991.724 1522.27 Z" fill="#000000" fill-rule="nonzero" fill-opacity="1"></path><path clip-path="url(#clip220)" d="M1025.3 1536.5 Q1020.59 1536.5 1017.85 1540.19 Q1015.12 1543.85 1015.12 1550.25 Q1015.12 1556.65 1017.82 1560.34 Q1020.56 1564 1025.3 1564 Q1029.98 1564 1032.72 1560.31 Q1035.46 1556.62 1035.46 1550.25 Q1035.46 1543.92 1032.72 1540.23 Q1029.98 1536.5 1025.3 1536.5 M1025.3 1531.54 Q1032.94 1531.54 1037.3 1536.5 Q1041.66 1541.47 1041.66 1550.25 Q1041.66 1559 1037.3 1564 Q1032.94 1568.97 1025.3 1568.97 Q1017.63 1568.97 1013.27 1564 Q1008.94 1559 1008.94 1550.25 Q1008.94 1541.47 1013.27 1536.5 Q1017.63 1531.54 1025.3 1531.54 Z" fill="#000000" fill-rule="nonzero" fill-opacity="1"></path><path clip-path="url(#clip220)" d="M1051.37 1518.52 L1057.23 1518.52 L1057.23 1568.04 L1051.37 1568.04 L1051.37 1518.52 Z" fill="#000000" fill-rule="nonzero" fill-opacity="1"></path><path clip-path="url(#clip220)" d="M1099.97 1548.76 L1099.97 1551.62 L1073.05 1551.62 Q1073.43 1557.67 1076.67 1560.85 Q1079.95 1564 1085.78 1564 Q1089.15 1564 1092.3 1563.17 Q1095.48 1562.35 1098.6 1560.69 L1098.6 1566.23 Q1095.45 1567.57 1092.14 1568.27 Q1088.83 1568.97 1085.43 1568.97 Q1076.9 1568.97 1071.9 1564 Q1066.93 1559.04 1066.93 1550.57 Q1066.93 1541.82 1071.64 1536.69 Q1076.39 1531.54 1084.41 1531.54 Q1091.6 1531.54 1095.77 1536.18 Q1099.97 1540.8 1099.97 1548.76 M1094.12 1547.04 Q1094.05 1542.23 1091.41 1539.37 Q1088.8 1536.5 1084.47 1536.5 Q1079.57 1536.5 1076.61 1539.27 Q1073.68 1542.04 1073.24 1547.07 L1094.12 1547.04 Z" fill="#000000" fill-rule="nonzero" fill-opacity="1"></path><path clip-path="url(#clip220)" d="M1130.24 1537.87 Q1129.25 1537.3 1128.08 1537.04 Q1126.93 1536.76 1125.53 1536.76 Q1120.57 1536.76 1117.89 1540 Q1115.25 1543.22 1115.25 1549.27 L1115.25 1568.04 L1109.36 1568.04 L1109.36 1532.4 L1115.25 1532.4 L1115.25 1537.93 Q1117.1 1534.69 1120.06 1533.13 Q1123.02 1531.54 1127.25 1531.54 Q1127.85 1531.54 1128.59 1531.63 Q1129.32 1531.7 1130.21 1531.85 L1130.24 1537.87 Z" fill="#000000" fill-rule="nonzero" fill-opacity="1"></path><path clip-path="url(#clip220)" d="M1152.58 1550.12 Q1145.49 1550.12 1142.75 1551.75 Q1140.01 1553.37 1140.01 1557.29 Q1140.01 1560.4 1142.05 1562.25 Q1144.12 1564.07 1147.65 1564.07 Q1152.52 1564.07 1155.45 1560.63 Q1158.41 1557.16 1158.41 1551.43 L1158.41 1550.12 L1152.58 1550.12 M1164.27 1547.71 L1164.27 1568.04 L1158.41 1568.04 L1158.41 1562.63 Q1156.4 1565.88 1153.41 1567.44 Q1150.42 1568.97 1146.09 1568.97 Q1140.62 1568.97 1137.37 1565.91 Q1134.16 1562.82 1134.16 1557.67 Q1134.16 1551.65 1138.17 1548.6 Q1142.21 1545.54 1150.2 1545.54 L1158.41 1545.54 L1158.41 1544.97 Q1158.41 1540.93 1155.74 1538.73 Q1153.09 1536.5 1148.29 1536.5 Q1145.23 1536.5 1142.34 1537.23 Q1139.44 1537.97 1136.77 1539.43 L1136.77 1534.02 Q1139.98 1532.78 1143 1532.17 Q1146.03 1531.54 1148.89 1531.54 Q1156.63 1531.54 1160.45 1535.55 Q1164.27 1539.56 1164.27 1547.71 Z" fill="#000000" fill-rule="nonzero" fill-opacity="1"></path><path clip-path="url(#clip220)" d="M1205.96 1546.53 L1205.96 1568.04 L1200.1 1568.04 L1200.1 1546.72 Q1200.1 1541.66 1198.13 1539.14 Q1196.16 1536.63 1192.21 1536.63 Q1187.47 1536.63 1184.73 1539.65 Q1181.99 1542.68 1181.99 1547.9 L1181.99 1568.04 L1176.11 1568.04 L1176.11 1532.4 L1181.99 1532.4 L1181.99 1537.93 Q1184.1 1534.72 1186.93 1533.13 Q1189.79 1531.54 1193.52 1531.54 Q1199.66 1531.54 1202.81 1535.36 Q1205.96 1539.14 1205.96 1546.53 Z" fill="#000000" fill-rule="nonzero" fill-opacity="1"></path><path clip-path="url(#clip220)" d="M1243.3 1533.76 L1243.3 1539.24 Q1240.81 1537.87 1238.3 1537.2 Q1235.82 1536.5 1233.27 1536.5 Q1227.57 1536.5 1224.42 1540.13 Q1221.27 1543.73 1221.27 1550.25 Q1221.27 1556.78 1224.42 1560.4 Q1227.57 1564 1233.27 1564 Q1235.82 1564 1238.3 1563.33 Q1240.81 1562.63 1243.3 1561.26 L1243.3 1566.68 Q1240.85 1567.82 1238.2 1568.39 Q1235.59 1568.97 1232.63 1568.97 Q1224.58 1568.97 1219.84 1563.91 Q1215.1 1558.85 1215.1 1550.25 Q1215.1 1541.53 1219.87 1536.53 Q1224.68 1531.54 1233.02 1531.54 Q1235.72 1531.54 1238.3 1532.11 Q1240.88 1532.65 1243.3 1533.76 Z" fill="#000000" fill-rule="nonzero" fill-opacity="1"></path><path clip-path="url(#clip220)" d="M1283.97 1548.76 L1283.97 1551.62 L1257.05 1551.62 Q1257.43 1557.67 1260.67 1560.85 Q1263.95 1564 1269.78 1564 Q1273.15 1564 1276.3 1563.17 Q1279.49 1562.35 1282.6 1560.69 L1282.6 1566.23 Q1279.45 1567.57 1276.14 1568.27 Q1272.83 1568.97 1269.43 1568.97 Q1260.9 1568.97 1255.9 1564 Q1250.94 1559.04 1250.94 1550.57 Q1250.94 1541.82 1255.65 1536.69 Q1260.39 1531.54 1268.41 1531.54 Q1275.6 1531.54 1279.77 1536.18 Q1283.97 1540.8 1283.97 1548.76 M1278.12 1547.04 Q1278.05 1542.23 1275.41 1539.37 Q1272.8 1536.5 1268.47 1536.5 Q1263.57 1536.5 1260.61 1539.27 Q1257.68 1542.04 1257.24 1547.07 L1278.12 1547.04 Z" fill="#000000" fill-rule="nonzero" fill-opacity="1"></path><path clip-path="url(#clip220)" d="M1328.12 1536.5 Q1323.41 1536.5 1320.67 1540.19 Q1317.93 1543.85 1317.93 1550.25 Q1317.93 1556.65 1320.64 1560.34 Q1323.38 1564 1328.12 1564 Q1332.8 1564 1335.54 1560.31 Q1338.27 1556.62 1338.27 1550.25 Q1338.27 1543.92 1335.54 1540.23 Q1332.8 1536.5 1328.12 1536.5 M1328.12 1531.54 Q1335.76 1531.54 1340.12 1536.5 Q1344.48 1541.47 1344.48 1550.25 Q1344.48 1559 1340.12 1564 Q1335.76 1568.97 1328.12 1568.97 Q1320.45 1568.97 1316.09 1564 Q1311.76 1559 1311.76 1550.25 Q1311.76 1541.47 1316.09 1536.5 Q1320.45 1531.54 1328.12 1531.54 Z" fill="#000000" fill-rule="nonzero" fill-opacity="1"></path><path clip-path="url(#clip220)" d="M1372.23 1518.52 L1372.23 1523.39 L1366.63 1523.39 Q1363.48 1523.39 1362.24 1524.66 Q1361.03 1525.93 1361.03 1529.24 L1361.03 1532.4 L1370.67 1532.4 L1370.67 1536.95 L1361.03 1536.95 L1361.03 1568.04 L1355.14 1568.04 L1355.14 1536.95 L1349.54 1536.95 L1349.54 1532.4 L1355.14 1532.4 L1355.14 1529.91 Q1355.14 1523.96 1357.91 1521.26 Q1360.68 1518.52 1366.7 1518.52 L1372.23 1518.52 Z" fill="#000000" fill-rule="nonzero" fill-opacity="1"></path><path clip-path="url(#clip220)" d="M1403.65 1522.27 L1403.65 1532.4 L1415.71 1532.4 L1415.71 1536.95 L1403.65 1536.95 L1403.65 1556.3 Q1403.65 1560.66 1404.83 1561.9 Q1406.04 1563.14 1409.7 1563.14 L1415.71 1563.14 L1415.71 1568.04 L1409.7 1568.04 Q1402.92 1568.04 1400.34 1565.53 Q1397.76 1562.98 1397.76 1556.3 L1397.76 1536.95 L1393.46 1536.95 L1393.46 1532.4 L1397.76 1532.4 L1397.76 1522.27 L1403.65 1522.27 Z" fill="#000000" fill-rule="nonzero" fill-opacity="1"></path><path clip-path="url(#clip220)" d="M1453.05 1546.53 L1453.05 1568.04 L1447.19 1568.04 L1447.19 1546.72 Q1447.19 1541.66 1445.22 1539.14 Q1443.24 1536.63 1439.3 1536.63 Q1434.55 1536.63 1431.82 1539.65 Q1429.08 1542.68 1429.08 1547.9 L1429.08 1568.04 L1423.19 1568.04 L1423.19 1518.52 L1429.08 1518.52 L1429.08 1537.93 Q1431.18 1534.72 1434.01 1533.13 Q1436.88 1531.54 1440.6 1531.54 Q1446.74 1531.54 1449.9 1535.36 Q1453.05 1539.14 1453.05 1546.53 Z" fill="#000000" fill-rule="nonzero" fill-opacity="1"></path><path clip-path="url(#clip220)" d="M1495.22 1548.76 L1495.22 1551.62 L1468.29 1551.62 Q1468.67 1557.67 1471.92 1560.85 Q1475.2 1564 1481.02 1564 Q1484.4 1564 1487.55 1563.17 Q1490.73 1562.35 1493.85 1560.69 L1493.85 1566.23 Q1490.7 1567.57 1487.39 1568.27 Q1484.08 1568.97 1480.67 1568.97 Q1472.14 1568.97 1467.15 1564 Q1462.18 1559.04 1462.18 1550.57 Q1462.18 1541.82 1466.89 1536.69 Q1471.63 1531.54 1479.65 1531.54 Q1486.85 1531.54 1491.02 1536.18 Q1495.22 1540.8 1495.22 1548.76 M1489.36 1547.04 Q1489.3 1542.23 1486.66 1539.37 Q1484.05 1536.5 1479.72 1536.5 Q1474.82 1536.5 1471.86 1539.27 Q1468.93 1542.04 1468.48 1547.07 L1489.36 1547.04 Z" fill="#000000" fill-rule="nonzero" fill-opacity="1"></path><path clip-path="url(#clip220)" d="M1541.75 1550.12 Q1534.65 1550.12 1531.92 1551.75 Q1529.18 1553.37 1529.18 1557.29 Q1529.18 1560.4 1531.22 1562.25 Q1533.29 1564.07 1536.82 1564.07 Q1541.69 1564.07 1544.62 1560.63 Q1547.58 1557.16 1547.58 1551.43 L1547.58 1550.12 L1541.75 1550.12 M1553.43 1547.71 L1553.43 1568.04 L1547.58 1568.04 L1547.58 1562.63 Q1545.57 1565.88 1542.58 1567.44 Q1539.59 1568.97 1535.26 1568.97 Q1529.78 1568.97 1526.54 1565.91 Q1523.32 1562.82 1523.32 1557.67 Q1523.32 1551.65 1527.33 1548.6 Q1531.38 1545.54 1539.37 1545.54 L1547.58 1545.54 L1547.58 1544.97 Q1547.58 1540.93 1544.9 1538.73 Q1542.26 1536.5 1537.46 1536.5 Q1534.4 1536.5 1531.5 1537.23 Q1528.61 1537.97 1525.93 1539.43 L1525.93 1534.02 Q1529.15 1532.78 1532.17 1532.17 Q1535.2 1531.54 1538.06 1531.54 Q1545.79 1531.54 1549.61 1535.55 Q1553.43 1539.56 1553.43 1547.71 Z" fill="#000000" fill-rule="nonzero" fill-opacity="1"></path><path clip-path="url(#clip220)" d="M1565.5 1518.52 L1571.35 1518.52 L1571.35 1568.04 L1565.5 1568.04 L1565.5 1518.52 Z" fill="#000000" fill-rule="nonzero" fill-opacity="1"></path><path clip-path="url(#clip220)" d="M1607.06 1549.81 Q1607.06 1543.44 1604.42 1539.94 Q1601.81 1536.44 1597.07 1536.44 Q1592.36 1536.44 1589.72 1539.94 Q1587.11 1543.44 1587.11 1549.81 Q1587.11 1556.14 1589.72 1559.64 Q1592.36 1563.14 1597.07 1563.14 Q1601.81 1563.14 1604.42 1559.64 Q1607.06 1556.14 1607.06 1549.81 M1612.92 1563.62 Q1612.92 1572.72 1608.88 1577.15 Q1604.84 1581.6 1596.5 1581.6 Q1593.41 1581.6 1590.67 1581.13 Q1587.94 1580.68 1585.36 1579.72 L1585.36 1574.03 Q1587.94 1575.43 1590.45 1576.1 Q1592.96 1576.76 1595.57 1576.76 Q1601.34 1576.76 1604.2 1573.74 Q1607.06 1570.75 1607.06 1564.67 L1607.06 1561.77 Q1605.25 1564.92 1602.42 1566.48 Q1599.58 1568.04 1595.64 1568.04 Q1589.08 1568.04 1585.07 1563.05 Q1581.06 1558.05 1581.06 1549.81 Q1581.06 1541.53 1585.07 1536.53 Q1589.08 1531.54 1595.64 1531.54 Q1599.58 1531.54 1602.42 1533.1 Q1605.25 1534.66 1607.06 1537.81 L1607.06 1532.4 L1612.92 1532.4 L1612.92 1563.62 Z" fill="#000000" fill-rule="nonzero" fill-opacity="1"></path><path clip-path="url(#clip220)" d="M1638.8 1536.5 Q1634.09 1536.5 1631.35 1540.19 Q1628.61 1543.85 1628.61 1550.25 Q1628.61 1556.65 1631.32 1560.34 Q1634.06 1564 1638.8 1564 Q1643.48 1564 1646.21 1560.31 Q1648.95 1556.62 1648.95 1550.25 Q1648.95 1543.92 1646.21 1540.23 Q1643.48 1536.5 1638.8 1536.5 M1638.8 1531.54 Q1646.44 1531.54 1650.8 1536.5 Q1655.16 1541.47 1655.16 1550.25 Q1655.16 1559 1650.8 1564 Q1646.44 1568.97 1638.8 1568.97 Q1631.13 1568.97 1626.77 1564 Q1622.44 1559 1622.44 1550.25 Q1622.44 1541.47 1626.77 1536.5 Q1631.13 1531.54 1638.8 1531.54 Z" fill="#000000" fill-rule="nonzero" fill-opacity="1"></path><path clip-path="url(#clip220)" d="M1685.52 1537.87 Q1684.54 1537.3 1683.36 1537.04 Q1682.21 1536.76 1680.81 1536.76 Q1675.85 1536.76 1673.17 1540 Q1670.53 1543.22 1670.53 1549.27 L1670.53 1568.04 L1664.64 1568.04 L1664.64 1532.4 L1670.53 1532.4 L1670.53 1537.93 Q1672.38 1534.69 1675.34 1533.13 Q1678.3 1531.54 1682.53 1531.54 Q1683.13 1531.54 1683.87 1531.63 Q1684.6 1531.7 1685.49 1531.85 L1685.52 1537.87 Z" fill="#000000" fill-rule="nonzero" fill-opacity="1"></path><path clip-path="url(#clip220)" d="M1691.66 1532.4 L1697.52 1532.4 L1697.52 1568.04 L1691.66 1568.04 L1691.66 1532.4 M1691.66 1518.52 L1697.52 1518.52 L1697.52 1525.93 L1691.66 1525.93 L1691.66 1518.52 Z" fill="#000000" fill-rule="nonzero" fill-opacity="1"></path><path clip-path="url(#clip220)" d="M1715.57 1522.27 L1715.57 1532.4 L1727.63 1532.4 L1727.63 1536.95 L1715.57 1536.95 L1715.57 1556.3 Q1715.57 1560.66 1716.75 1561.9 Q1717.96 1563.14 1721.62 1563.14 L1727.63 1563.14 L1727.63 1568.04 L1721.62 1568.04 Q1714.84 1568.04 1712.26 1565.53 Q1709.68 1562.98 1709.68 1556.3 L1709.68 1536.95 L1705.38 1536.95 L1705.38 1532.4 L1709.68 1532.4 L1709.68 1522.27 L1715.57 1522.27 Z" fill="#000000" fill-rule="nonzero" fill-opacity="1"></path><path clip-path="url(#clip220)" d="M1764.97 1546.53 L1764.97 1568.04 L1759.11 1568.04 L1759.11 1546.72 Q1759.11 1541.66 1757.14 1539.14 Q1755.16 1536.63 1751.22 1536.63 Q1746.47 1536.63 1743.74 1539.65 Q1741 1542.68 1741 1547.9 L1741 1568.04 L1735.11 1568.04 L1735.11 1518.52 L1741 1518.52 L1741 1537.93 Q1743.1 1534.72 1745.93 1533.13 Q1748.8 1531.54 1752.52 1531.54 Q1758.66 1531.54 1761.81 1535.36 Q1764.97 1539.14 1764.97 1546.53 Z" fill="#000000" fill-rule="nonzero" fill-opacity="1"></path><path clip-path="url(#clip220)" d="M1804.4 1539.24 Q1806.6 1535.29 1809.65 1533.41 Q1812.71 1531.54 1816.85 1531.54 Q1822.42 1531.54 1825.44 1535.45 Q1828.46 1539.33 1828.46 1546.53 L1828.46 1568.04 L1822.58 1568.04 L1822.58 1546.72 Q1822.58 1541.59 1820.76 1539.11 Q1818.95 1536.63 1815.22 1536.63 Q1810.67 1536.63 1808.03 1539.65 Q1805.39 1542.68 1805.39 1547.9 L1805.39 1568.04 L1799.5 1568.04 L1799.5 1546.72 Q1799.5 1541.56 1797.69 1539.11 Q1795.87 1536.63 1792.08 1536.63 Q1787.6 1536.63 1784.95 1539.68 Q1782.31 1542.71 1782.31 1547.9 L1782.31 1568.04 L1776.42 1568.04 L1776.42 1532.4 L1782.31 1532.4 L1782.31 1537.93 Q1784.32 1534.66 1787.12 1533.1 Q1789.92 1531.54 1793.77 1531.54 Q1797.65 1531.54 1800.36 1533.51 Q1803.1 1535.48 1804.4 1539.24 Z" fill="#000000" fill-rule="nonzero" fill-opacity="1"></path><path clip-path="url(#clip220)" d="M1867.29 1548.82 Q1863.73 1548.06 1861.82 1545.99 Q1859.91 1543.95 1859.91 1540.99 Q1859.91 1536.5 1863.54 1533.99 Q1867.14 1531.5 1873.37 1531.5 Q1875.79 1531.5 1878.5 1531.89 Q1881.2 1532.27 1884.32 1533.03 L1884.32 1538.35 Q1881.24 1537.42 1878.69 1537.01 Q1876.11 1536.6 1873.85 1536.6 Q1870.06 1536.6 1867.87 1538.06 Q1865.64 1539.53 1865.64 1541.56 Q1865.64 1543.79 1867.8 1545.22 Q1869.94 1546.62 1873.63 1546.62 L1878.56 1546.62 L1878.56 1551.46 L1873.85 1551.46 Q1869.49 1551.46 1867.2 1553.08 Q1864.72 1554.87 1864.72 1557.67 Q1864.72 1560.53 1867.39 1562.31 Q1870.1 1564.1 1874.9 1564.1 Q1877.86 1564.1 1880.57 1563.52 Q1883.27 1562.92 1885.53 1561.74 L1885.53 1567.18 Q1882.67 1568.08 1879.99 1568.52 Q1877.29 1568.97 1874.74 1568.97 Q1867.17 1568.97 1863.06 1566.07 Q1858.96 1563.17 1858.96 1557.67 Q1858.96 1554.23 1861.15 1551.91 Q1863.35 1549.58 1867.29 1548.82 Z" fill="#000000" fill-rule="nonzero" fill-opacity="1"></path><polyline clip-path="url(#clip222)" style="stroke:#000000; stroke-linecap:round; stroke-linejoin:round; stroke-width:2; stroke-opacity:0.1; fill:none" points="262.551,1168.22 2352.76,1168.22 "></polyline>
<polyline clip-path="url(#clip222)" style="stroke:#000000; stroke-linecap:round; stroke-linejoin:round; stroke-width:2; stroke-opacity:0.1; fill:none" points="262.551,895.504 2352.76,895.504 "></polyline>
<polyline clip-path="url(#clip222)" style="stroke:#000000; stroke-linecap:round; stroke-linejoin:round; stroke-width:2; stroke-opacity:0.1; fill:none" points="262.551,622.786 2352.76,622.786 "></polyline>
<polyline clip-path="url(#clip222)" style="stroke:#000000; stroke-linecap:round; stroke-linejoin:round; stroke-width:2; stroke-opacity:0.1; fill:none" points="262.551,350.068 2352.76,350.068 "></polyline>
<polyline clip-path="url(#clip220)" style="stroke:#000000; stroke-linecap:round; stroke-linejoin:round; stroke-width:4; stroke-opacity:1; fill:none" points="262.551,1423.18 262.551,123.472 "></polyline>
<polyline clip-path="url(#clip220)" style="stroke:#000000; stroke-linecap:round; stroke-linejoin:round; stroke-width:4; stroke-opacity:1; fill:none" points="262.551,1168.22 281.449,1168.22 "></polyline>
<polyline clip-path="url(#clip220)" style="stroke:#000000; stroke-linecap:round; stroke-linejoin:round; stroke-width:4; stroke-opacity:1; fill:none" points="262.551,895.504 281.449,895.504 "></polyline>
<polyline clip-path="url(#clip220)" style="stroke:#000000; stroke-linecap:round; stroke-linejoin:round; stroke-width:4; stroke-opacity:1; fill:none" points="262.551,622.786 281.449,622.786 "></polyline>
<polyline clip-path="url(#clip220)" style="stroke:#000000; stroke-linecap:round; stroke-linejoin:round; stroke-width:4; stroke-opacity:1; fill:none" points="262.551,350.068 281.449,350.068 "></polyline>
<path clip-path="url(#clip220)" d="M148.311 1181.57 L164.63 1181.57 L164.63 1185.5 L142.686 1185.5 L142.686 1181.57 Q145.348 1178.81 149.931 1174.18 Q154.538 1169.53 155.718 1168.19 Q157.964 1165.66 158.843 1163.93 Q159.746 1162.17 159.746 1160.48 Q159.746 1157.72 157.802 1155.99 Q155.88 1154.25 152.778 1154.25 Q150.579 1154.25 148.126 1155.02 Q145.695 1155.78 142.917 1157.33 L142.917 1152.61 Q145.741 1151.47 148.195 1150.9 Q150.649 1150.32 152.686 1150.32 Q158.056 1150.32 161.251 1153 Q164.445 1155.69 164.445 1160.18 Q164.445 1162.31 163.635 1164.23 Q162.848 1166.13 160.741 1168.72 Q160.163 1169.39 157.061 1172.61 Q153.959 1175.8 148.311 1181.57 Z" fill="#000000" fill-rule="nonzero" fill-opacity="1"></path><path clip-path="url(#clip220)" d="M174.491 1150.94 L192.848 1150.94 L192.848 1154.88 L178.774 1154.88 L178.774 1163.35 Q179.792 1163 180.811 1162.84 Q181.829 1162.65 182.848 1162.65 Q188.635 1162.65 192.014 1165.83 Q195.394 1169 195.394 1174.41 Q195.394 1179.99 191.922 1183.09 Q188.45 1186.17 182.13 1186.17 Q179.954 1186.17 177.686 1185.8 Q175.44 1185.43 173.033 1184.69 L173.033 1179.99 Q175.116 1181.13 177.339 1181.68 Q179.561 1182.24 182.038 1182.24 Q186.042 1182.24 188.38 1180.13 Q190.718 1178.02 190.718 1174.41 Q190.718 1170.8 188.38 1168.7 Q186.042 1166.59 182.038 1166.59 Q180.163 1166.59 178.288 1167.01 Q176.436 1167.42 174.491 1168.3 L174.491 1150.94 Z" fill="#000000" fill-rule="nonzero" fill-opacity="1"></path><path clip-path="url(#clip220)" d="M214.607 1154.02 Q210.996 1154.02 209.167 1157.58 Q207.362 1161.13 207.362 1168.26 Q207.362 1175.36 209.167 1178.93 Q210.996 1182.47 214.607 1182.47 Q218.241 1182.47 220.047 1178.93 Q221.875 1175.36 221.875 1168.26 Q221.875 1161.13 220.047 1157.58 Q218.241 1154.02 214.607 1154.02 M214.607 1150.32 Q220.417 1150.32 223.473 1154.92 Q226.551 1159.51 226.551 1168.26 Q226.551 1176.98 223.473 1181.59 Q220.417 1186.17 214.607 1186.17 Q208.797 1186.17 205.718 1181.59 Q202.662 1176.98 202.662 1168.26 Q202.662 1159.51 205.718 1154.92 Q208.797 1150.32 214.607 1150.32 Z" fill="#000000" fill-rule="nonzero" fill-opacity="1"></path><path clip-path="url(#clip220)" d="M144.329 878.224 L162.686 878.224 L162.686 882.159 L148.612 882.159 L148.612 890.631 Q149.63 890.284 150.649 890.122 Q151.667 889.936 152.686 889.936 Q158.473 889.936 161.852 893.108 Q165.232 896.279 165.232 901.696 Q165.232 907.274 161.76 910.376 Q158.288 913.455 151.968 913.455 Q149.792 913.455 147.524 913.084 Q145.279 912.714 142.871 911.973 L142.871 907.274 Q144.954 908.409 147.177 908.964 Q149.399 909.52 151.876 909.52 Q155.88 909.52 158.218 907.413 Q160.556 905.307 160.556 901.696 Q160.556 898.085 158.218 895.978 Q155.88 893.872 151.876 893.872 Q150.001 893.872 148.126 894.288 Q146.274 894.705 144.329 895.585 L144.329 878.224 Z" fill="#000000" fill-rule="nonzero" fill-opacity="1"></path><path clip-path="url(#clip220)" d="M184.445 881.302 Q180.834 881.302 179.005 884.867 Q177.2 888.409 177.2 895.538 Q177.2 902.645 179.005 906.21 Q180.834 909.751 184.445 909.751 Q188.079 909.751 189.885 906.21 Q191.713 902.645 191.713 895.538 Q191.713 888.409 189.885 884.867 Q188.079 881.302 184.445 881.302 M184.445 877.599 Q190.255 877.599 193.311 882.205 Q196.389 886.788 196.389 895.538 Q196.389 904.265 193.311 908.872 Q190.255 913.455 184.445 913.455 Q178.635 913.455 175.556 908.872 Q172.501 904.265 172.501 895.538 Q172.501 886.788 175.556 882.205 Q178.635 877.599 184.445 877.599 Z" fill="#000000" fill-rule="nonzero" fill-opacity="1"></path><path clip-path="url(#clip220)" d="M214.607 881.302 Q210.996 881.302 209.167 884.867 Q207.362 888.409 207.362 895.538 Q207.362 902.645 209.167 906.21 Q210.996 909.751 214.607 909.751 Q218.241 909.751 220.047 906.21 Q221.875 902.645 221.875 895.538 Q221.875 888.409 220.047 884.867 Q218.241 881.302 214.607 881.302 M214.607 877.599 Q220.417 877.599 223.473 882.205 Q226.551 886.788 226.551 895.538 Q226.551 904.265 223.473 908.872 Q220.417 913.455 214.607 913.455 Q208.797 913.455 205.718 908.872 Q202.662 904.265 202.662 895.538 Q202.662 886.788 205.718 882.205 Q208.797 877.599 214.607 877.599 Z" fill="#000000" fill-rule="nonzero" fill-opacity="1"></path><path clip-path="url(#clip220)" d="M143.103 605.506 L165.325 605.506 L165.325 607.496 L152.778 640.066 L147.894 640.066 L159.7 609.441 L143.103 609.441 L143.103 605.506 Z" fill="#000000" fill-rule="nonzero" fill-opacity="1"></path><path clip-path="url(#clip220)" d="M174.491 605.506 L192.848 605.506 L192.848 609.441 L178.774 609.441 L178.774 617.913 Q179.792 617.566 180.811 617.404 Q181.829 617.219 182.848 617.219 Q188.635 617.219 192.014 620.39 Q195.394 623.561 195.394 628.978 Q195.394 634.557 191.922 637.658 Q188.45 640.737 182.13 640.737 Q179.954 640.737 177.686 640.367 Q175.44 639.996 173.033 639.256 L173.033 634.557 Q175.116 635.691 177.339 636.246 Q179.561 636.802 182.038 636.802 Q186.042 636.802 188.38 634.695 Q190.718 632.589 190.718 628.978 Q190.718 625.367 188.38 623.26 Q186.042 621.154 182.038 621.154 Q180.163 621.154 178.288 621.57 Q176.436 621.987 174.491 622.867 L174.491 605.506 Z" fill="#000000" fill-rule="nonzero" fill-opacity="1"></path><path clip-path="url(#clip220)" d="M214.607 608.584 Q210.996 608.584 209.167 612.149 Q207.362 615.691 207.362 622.82 Q207.362 629.927 209.167 633.492 Q210.996 637.033 214.607 637.033 Q218.241 637.033 220.047 633.492 Q221.875 629.927 221.875 622.82 Q221.875 615.691 220.047 612.149 Q218.241 608.584 214.607 608.584 M214.607 604.881 Q220.417 604.881 223.473 609.487 Q226.551 614.071 226.551 622.82 Q226.551 631.547 223.473 636.154 Q220.417 640.737 214.607 640.737 Q208.797 640.737 205.718 636.154 Q202.662 631.547 202.662 622.82 Q202.662 614.071 205.718 609.487 Q208.797 604.881 214.607 604.881 Z" fill="#000000" fill-rule="nonzero" fill-opacity="1"></path><path clip-path="url(#clip220)" d="M114.931 363.413 L122.57 363.413 L122.57 337.047 L114.26 338.714 L114.26 334.455 L122.524 332.788 L127.2 332.788 L127.2 363.413 L134.839 363.413 L134.839 367.348 L114.931 367.348 L114.931 363.413 Z" fill="#000000" fill-rule="nonzero" fill-opacity="1"></path><path clip-path="url(#clip220)" d="M154.283 335.867 Q150.672 335.867 148.843 339.431 Q147.038 342.973 147.038 350.103 Q147.038 357.209 148.843 360.774 Q150.672 364.316 154.283 364.316 Q157.917 364.316 159.723 360.774 Q161.552 357.209 161.552 350.103 Q161.552 342.973 159.723 339.431 Q157.917 335.867 154.283 335.867 M154.283 332.163 Q160.093 332.163 163.149 336.769 Q166.227 341.353 166.227 350.103 Q166.227 358.829 163.149 363.436 Q160.093 368.019 154.283 368.019 Q148.473 368.019 145.394 363.436 Q142.339 358.829 142.339 350.103 Q142.339 341.353 145.394 336.769 Q148.473 332.163 154.283 332.163 Z" fill="#000000" fill-rule="nonzero" fill-opacity="1"></path><path clip-path="url(#clip220)" d="M184.445 335.867 Q180.834 335.867 179.005 339.431 Q177.2 342.973 177.2 350.103 Q177.2 357.209 179.005 360.774 Q180.834 364.316 184.445 364.316 Q188.079 364.316 189.885 360.774 Q191.713 357.209 191.713 350.103 Q191.713 342.973 189.885 339.431 Q188.079 335.867 184.445 335.867 M184.445 332.163 Q190.255 332.163 193.311 336.769 Q196.389 341.353 196.389 350.103 Q196.389 358.829 193.311 363.436 Q190.255 368.019 184.445 368.019 Q178.635 368.019 175.556 363.436 Q172.501 358.829 172.501 350.103 Q172.501 341.353 175.556 336.769 Q178.635 332.163 184.445 332.163 Z" fill="#000000" fill-rule="nonzero" fill-opacity="1"></path><path clip-path="url(#clip220)" d="M214.607 335.867 Q210.996 335.867 209.167 339.431 Q207.362 342.973 207.362 350.103 Q207.362 357.209 209.167 360.774 Q210.996 364.316 214.607 364.316 Q218.241 364.316 220.047 360.774 Q221.875 357.209 221.875 350.103 Q221.875 342.973 220.047 339.431 Q218.241 335.867 214.607 335.867 M214.607 332.163 Q220.417 332.163 223.473 336.769 Q226.551 341.353 226.551 350.103 Q226.551 358.829 223.473 363.436 Q220.417 368.019 214.607 368.019 Q208.797 368.019 205.718 363.436 Q202.662 358.829 202.662 350.103 Q202.662 341.353 205.718 336.769 Q208.797 332.163 214.607 332.163 Z" fill="#000000" fill-rule="nonzero" fill-opacity="1"></path><path clip-path="url(#clip220)" d="M16.4842 1226.6 L16.4842 1220.17 L64.0042 1220.17 L64.0042 1226.6 L16.4842 1226.6 Z" fill="#000000" fill-rule="nonzero" fill-opacity="1"></path><path clip-path="url(#clip220)" d="M18.2347 1201.83 L28.3562 1201.83 L28.3562 1189.77 L32.9077 1189.77 L32.9077 1201.83 L52.2594 1201.83 Q56.6199 1201.83 57.8613 1200.66 Q59.1026 1199.45 59.1026 1195.79 L59.1026 1189.77 L64.0042 1189.77 L64.0042 1195.79 Q64.0042 1202.57 61.4897 1205.14 Q58.9434 1207.72 52.2594 1207.72 L32.9077 1207.72 L32.9077 1212.02 L28.3562 1212.02 L28.3562 1207.72 L18.2347 1207.72 L18.2347 1201.83 Z" fill="#000000" fill-rule="nonzero" fill-opacity="1"></path><path clip-path="url(#clip220)" d="M44.7161 1151.58 L47.5806 1151.58 L47.5806 1178.5 Q53.6281 1178.12 56.8109 1174.87 Q59.9619 1171.6 59.9619 1165.77 Q59.9619 1162.4 59.1344 1159.25 Q58.3069 1156.06 56.6518 1152.94 L62.1899 1152.94 Q63.5267 1156.1 64.227 1159.41 Q64.9272 1162.72 64.9272 1166.12 Q64.9272 1174.65 59.9619 1179.65 Q54.9967 1184.61 46.5303 1184.61 Q37.7774 1184.61 32.6531 1179.9 Q27.4968 1175.16 27.4968 1167.14 Q27.4968 1159.95 32.1438 1155.78 Q36.7589 1151.58 44.7161 1151.58 M42.9973 1157.43 Q38.1912 1157.5 35.3266 1160.14 Q32.4621 1162.75 32.4621 1167.08 Q32.4621 1171.98 35.2312 1174.94 Q38.0002 1177.87 43.0292 1178.31 L42.9973 1157.43 Z" fill="#000000" fill-rule="nonzero" fill-opacity="1"></path><path clip-path="url(#clip220)" d="M33.8307 1121.31 Q33.2578 1122.29 33.0032 1123.47 Q32.7167 1124.62 32.7167 1126.02 Q32.7167 1130.98 35.9632 1133.66 Q39.1779 1136.3 45.2253 1136.3 L64.0042 1136.3 L64.0042 1142.19 L28.3562 1142.19 L28.3562 1136.3 L33.8944 1136.3 Q30.6479 1134.45 29.0883 1131.49 Q27.4968 1128.53 27.4968 1124.3 Q27.4968 1123.69 27.5923 1122.96 Q27.656 1122.23 27.8151 1121.34 L33.8307 1121.31 Z" fill="#000000" fill-rule="nonzero" fill-opacity="1"></path><path clip-path="url(#clip220)" d="M46.0847 1098.96 Q46.0847 1106.06 47.7079 1108.8 Q49.3312 1111.54 53.2461 1111.54 Q56.3653 1111.54 58.2114 1109.5 Q60.0256 1107.43 60.0256 1103.9 Q60.0256 1099.03 56.5881 1096.1 Q53.1188 1093.14 47.3897 1093.14 L46.0847 1093.14 L46.0847 1098.96 M43.6657 1087.28 L64.0042 1087.28 L64.0042 1093.14 L58.5933 1093.14 Q61.8398 1095.14 63.3994 1098.14 Q64.9272 1101.13 64.9272 1105.46 Q64.9272 1110.93 61.8716 1114.18 Q58.7843 1117.39 53.6281 1117.39 Q47.6125 1117.39 44.5569 1113.38 Q41.5014 1109.34 41.5014 1101.35 L41.5014 1093.14 L40.9285 1093.14 Q36.8862 1093.14 34.6901 1095.81 Q32.4621 1098.45 32.4621 1103.26 Q32.4621 1106.32 33.1941 1109.21 Q33.9262 1112.11 35.3903 1114.78 L29.9795 1114.78 Q28.7381 1111.57 28.1334 1108.54 Q27.4968 1105.52 27.4968 1102.66 Q27.4968 1094.92 31.5072 1091.1 Q35.5176 1087.28 43.6657 1087.28 Z" fill="#000000" fill-rule="nonzero" fill-opacity="1"></path><path clip-path="url(#clip220)" d="M18.2347 1069.43 L28.3562 1069.43 L28.3562 1057.36 L32.9077 1057.36 L32.9077 1069.43 L52.2594 1069.43 Q56.6199 1069.43 57.8613 1068.25 Q59.1026 1067.04 59.1026 1063.38 L59.1026 1057.36 L64.0042 1057.36 L64.0042 1063.38 Q64.0042 1070.16 61.4897 1072.74 Q58.9434 1075.32 52.2594 1075.32 L32.9077 1075.32 L32.9077 1079.61 L28.3562 1079.61 L28.3562 1075.32 L18.2347 1075.32 L18.2347 1069.43 Z" fill="#000000" fill-rule="nonzero" fill-opacity="1"></path><path clip-path="url(#clip220)" d="M28.3562 1049.66 L28.3562 1043.8 L64.0042 1043.8 L64.0042 1049.66 L28.3562 1049.66 M14.479 1049.66 L14.479 1043.8 L21.895 1043.8 L21.895 1049.66 L14.479 1049.66 Z" fill="#000000" fill-rule="nonzero" fill-opacity="1"></path><path clip-path="url(#clip220)" d="M32.4621 1017.74 Q32.4621 1022.45 36.1542 1025.19 Q39.8145 1027.92 46.212 1027.92 Q52.6095 1027.92 56.3017 1025.22 Q59.9619 1022.48 59.9619 1017.74 Q59.9619 1013.06 56.2698 1010.32 Q52.5777 1007.58 46.212 1007.58 Q39.8781 1007.58 36.186 1010.32 Q32.4621 1013.06 32.4621 1017.74 M27.4968 1017.74 Q27.4968 1010.1 32.4621 1005.74 Q37.4273 1001.38 46.212 1001.38 Q54.9649 1001.38 59.9619 1005.74 Q64.9272 1010.1 64.9272 1017.74 Q64.9272 1025.41 59.9619 1029.77 Q54.9649 1034.1 46.212 1034.1 Q37.4273 1034.1 32.4621 1029.77 Q27.4968 1025.41 27.4968 1017.74 Z" fill="#000000" fill-rule="nonzero" fill-opacity="1"></path><path clip-path="url(#clip220)" d="M42.4881 962.037 L64.0042 962.037 L64.0042 967.894 L42.679 967.894 Q37.6183 967.894 35.1038 969.867 Q32.5894 971.841 32.5894 975.787 Q32.5894 980.53 35.6131 983.267 Q38.6368 986.004 43.8567 986.004 L64.0042 986.004 L64.0042 991.893 L28.3562 991.893 L28.3562 986.004 L33.8944 986.004 Q30.6797 983.904 29.0883 981.071 Q27.4968 978.206 27.4968 974.482 Q27.4968 968.339 31.3163 965.188 Q35.1038 962.037 42.4881 962.037 Z" fill="#000000" fill-rule="nonzero" fill-opacity="1"></path><path clip-path="url(#clip220)" d="M29.4065 927.631 L34.9447 927.631 Q33.6716 930.113 33.035 932.787 Q32.3984 935.461 32.3984 938.325 Q32.3984 942.686 33.7352 944.882 Q35.072 947.046 37.7456 947.046 Q39.7826 947.046 40.9603 945.487 Q42.1061 943.927 43.1565 939.216 L43.6021 937.211 Q44.9389 930.973 47.3897 928.363 Q49.8086 925.721 54.1691 925.721 Q59.1344 925.721 62.0308 929.668 Q64.9272 933.583 64.9272 940.458 Q64.9272 943.322 64.3543 946.441 Q63.8132 949.529 62.6992 952.966 L56.6518 952.966 Q58.3387 949.72 59.198 946.569 Q60.0256 943.418 60.0256 940.33 Q60.0256 936.193 58.6251 933.965 Q57.1929 931.737 54.6147 931.737 Q52.2276 931.737 50.9545 933.36 Q49.6813 934.951 48.5037 940.394 L48.0262 942.431 Q46.8804 947.874 44.5251 950.293 Q42.138 952.712 38.0002 952.712 Q32.9713 952.712 30.2341 949.147 Q27.4968 945.582 27.4968 939.025 Q27.4968 935.779 27.9743 932.914 Q28.4517 930.05 29.4065 927.631 Z" fill="#000000" fill-rule="nonzero" fill-opacity="1"></path><path clip-path="url(#clip220)" d="M49.9359 896.28 L28.3562 896.28 L28.3562 890.423 L49.7131 890.423 Q54.7739 890.423 57.3202 888.45 Q59.8346 886.476 59.8346 882.53 Q59.8346 877.787 56.8109 875.05 Q53.7872 872.281 48.5673 872.281 L28.3562 872.281 L28.3562 866.424 L64.0042 866.424 L64.0042 872.281 L58.5296 872.281 Q61.7762 874.413 63.3676 877.246 Q64.9272 880.047 64.9272 883.771 Q64.9272 889.914 61.1078 893.097 Q57.2883 896.28 49.9359 896.28 M27.4968 881.543 L27.4968 881.543 Z" fill="#000000" fill-rule="nonzero" fill-opacity="1"></path><path clip-path="url(#clip220)" d="M42.4881 824.729 L64.0042 824.729 L64.0042 830.586 L42.679 830.586 Q37.6183 830.586 35.1038 832.559 Q32.5894 834.532 32.5894 838.479 Q32.5894 843.221 35.6131 845.959 Q38.6368 848.696 43.8567 848.696 L64.0042 848.696 L64.0042 854.584 L28.3562 854.584 L28.3562 848.696 L33.8944 848.696 Q30.6797 846.595 29.0883 843.763 Q27.4968 840.898 27.4968 837.174 Q27.4968 831.031 31.3163 827.88 Q35.1038 824.729 42.4881 824.729 Z" fill="#000000" fill-rule="nonzero" fill-opacity="1"></path><path clip-path="url(#clip220)" d="M18.2347 807.255 L28.3562 807.255 L28.3562 795.192 L32.9077 795.192 L32.9077 807.255 L52.2594 807.255 Q56.6199 807.255 57.8613 806.078 Q59.1026 804.868 59.1026 801.208 L59.1026 795.192 L64.0042 795.192 L64.0042 801.208 Q64.0042 807.987 61.4897 810.565 Q58.9434 813.143 52.2594 813.143 L32.9077 813.143 L32.9077 817.44 L28.3562 817.44 L28.3562 813.143 L18.2347 813.143 L18.2347 807.255 Z" fill="#000000" fill-rule="nonzero" fill-opacity="1"></path><path clip-path="url(#clip220)" d="M28.3562 787.49 L28.3562 781.633 L64.0042 781.633 L64.0042 787.49 L28.3562 787.49 M14.479 787.49 L14.479 781.633 L21.895 781.633 L21.895 787.49 L14.479 787.49 Z" fill="#000000" fill-rule="nonzero" fill-opacity="1"></path><path clip-path="url(#clip220)" d="M14.479 769.379 L14.479 763.523 L64.0042 763.523 L64.0042 769.379 L14.479 769.379 Z" fill="#000000" fill-rule="nonzero" fill-opacity="1"></path><path clip-path="url(#clip220)" d="M29.7248 704.895 L35.1993 704.895 Q33.8307 707.377 33.1623 709.892 Q32.4621 712.374 32.4621 714.921 Q32.4621 720.618 36.0905 723.769 Q39.6872 726.92 46.212 726.92 Q52.7369 726.92 56.3653 723.769 Q59.9619 720.618 59.9619 714.921 Q59.9619 712.374 59.2935 709.892 Q58.5933 707.377 57.2247 704.895 L62.6355 704.895 Q63.7814 707.345 64.3543 709.987 Q64.9272 712.597 64.9272 715.557 Q64.9272 723.61 59.8664 728.352 Q54.8057 733.095 46.212 733.095 Q37.491 733.095 32.4939 728.32 Q27.4968 723.514 27.4968 715.175 Q27.4968 712.47 28.0697 709.892 Q28.6108 707.314 29.7248 704.895 Z" fill="#000000" fill-rule="nonzero" fill-opacity="1"></path><path clip-path="url(#clip220)" d="M32.4621 680.896 Q32.4621 685.607 36.1542 688.344 Q39.8145 691.081 46.212 691.081 Q52.6095 691.081 56.3017 688.376 Q59.9619 685.638 59.9619 680.896 Q59.9619 676.217 56.2698 673.48 Q52.5777 670.743 46.212 670.743 Q39.8781 670.743 36.186 673.48 Q32.4621 676.217 32.4621 680.896 M27.4968 680.896 Q27.4968 673.257 32.4621 668.897 Q37.4273 664.536 46.212 664.536 Q54.9649 664.536 59.9619 668.897 Q64.9272 673.257 64.9272 680.896 Q64.9272 688.567 59.9619 692.927 Q54.9649 697.256 46.212 697.256 Q37.4273 697.256 32.4621 692.927 Q27.4968 688.567 27.4968 680.896 Z" fill="#000000" fill-rule="nonzero" fill-opacity="1"></path><path clip-path="url(#clip220)" d="M42.4881 625.196 L64.0042 625.196 L64.0042 631.052 L42.679 631.052 Q37.6183 631.052 35.1038 633.026 Q32.5894 634.999 32.5894 638.946 Q32.5894 643.688 35.6131 646.426 Q38.6368 649.163 43.8567 649.163 L64.0042 649.163 L64.0042 655.051 L28.3562 655.051 L28.3562 649.163 L33.8944 649.163 Q30.6797 647.062 29.0883 644.229 Q27.4968 641.365 27.4968 637.641 Q27.4968 631.498 31.3163 628.347 Q35.1038 625.196 42.4881 625.196 Z" fill="#000000" fill-rule="nonzero" fill-opacity="1"></path><path clip-path="url(#clip220)" d="M28.3562 617.716 L28.3562 611.51 L58.275 600.37 L28.3562 589.23 L28.3562 583.023 L64.0042 596.391 L64.0042 604.348 L28.3562 617.716 Z" fill="#000000" fill-rule="nonzero" fill-opacity="1"></path><path clip-path="url(#clip220)" d="M44.7161 544.447 L47.5806 544.447 L47.5806 571.374 Q53.6281 570.992 56.8109 567.745 Q59.9619 564.467 59.9619 558.643 Q59.9619 555.269 59.1344 552.118 Q58.3069 548.935 56.6518 545.816 L62.1899 545.816 Q63.5267 548.967 64.227 552.277 Q64.9272 555.587 64.9272 558.993 Q64.9272 567.523 59.9619 572.52 Q54.9967 577.485 46.5303 577.485 Q37.7774 577.485 32.6531 572.774 Q27.4968 568.032 27.4968 560.011 Q27.4968 552.818 32.1438 548.648 Q36.7589 544.447 44.7161 544.447 M42.9973 550.303 Q38.1912 550.367 35.3266 553.009 Q32.4621 555.619 32.4621 559.947 Q32.4621 564.849 35.2312 567.809 Q38.0002 570.737 43.0292 571.183 L42.9973 550.303 Z" fill="#000000" fill-rule="nonzero" fill-opacity="1"></path><path clip-path="url(#clip220)" d="M33.8307 514.178 Q33.2578 515.165 33.0032 516.342 Q32.7167 517.488 32.7167 518.889 Q32.7167 523.854 35.9632 526.528 Q39.1779 529.169 45.2253 529.169 L64.0042 529.169 L64.0042 535.058 L28.3562 535.058 L28.3562 529.169 L33.8944 529.169 Q30.6479 527.323 29.0883 524.363 Q27.4968 521.403 27.4968 517.17 Q27.4968 516.565 27.5923 515.833 Q27.656 515.101 27.8151 514.21 L33.8307 514.178 Z" fill="#000000" fill-rule="nonzero" fill-opacity="1"></path><path clip-path="url(#clip220)" d="M45.7664 485.723 Q39.4007 485.723 35.8996 488.365 Q32.3984 490.975 32.3984 495.718 Q32.3984 500.428 35.8996 503.07 Q39.4007 505.68 45.7664 505.68 Q52.1003 505.68 55.6014 503.07 Q59.1026 500.428 59.1026 495.718 Q59.1026 490.975 55.6014 488.365 Q52.1003 485.723 45.7664 485.723 M59.58 479.867 Q68.683 479.867 73.1071 483.909 Q77.5631 487.951 77.5631 496.29 Q77.5631 499.378 77.0857 502.115 Q76.6401 504.852 75.6852 507.43 L69.9879 507.43 Q71.3884 504.852 72.0568 502.338 Q72.7252 499.823 72.7252 497.213 Q72.7252 491.452 69.7015 488.588 Q66.7096 485.723 60.6303 485.723 L57.7339 485.723 Q60.885 487.538 62.4446 490.37 Q64.0042 493.203 64.0042 497.15 Q64.0042 503.706 59.0071 507.717 Q54.01 511.727 45.7664 511.727 Q37.491 511.727 32.4939 507.717 Q27.4968 503.706 27.4968 497.15 Q27.4968 493.203 29.0564 490.37 Q30.616 487.538 33.7671 485.723 L28.3562 485.723 L28.3562 479.867 L59.58 479.867 Z" fill="#000000" fill-rule="nonzero" fill-opacity="1"></path><path clip-path="url(#clip220)" d="M44.7161 437.312 L47.5806 437.312 L47.5806 464.239 Q53.6281 463.857 56.8109 460.611 Q59.9619 457.332 59.9619 451.508 Q59.9619 448.134 59.1344 444.983 Q58.3069 441.8 56.6518 438.681 L62.1899 438.681 Q63.5267 441.832 64.227 445.142 Q64.9272 448.452 64.9272 451.858 Q64.9272 460.388 59.9619 465.385 Q54.9967 470.35 46.5303 470.35 Q37.7774 470.35 32.6531 465.64 Q27.4968 460.897 27.4968 452.876 Q27.4968 445.683 32.1438 441.514 Q36.7589 437.312 44.7161 437.312 M42.9973 443.169 Q38.1912 443.232 35.3266 445.874 Q32.4621 448.484 32.4621 452.813 Q32.4621 457.714 35.2312 460.674 Q38.0002 463.603 43.0292 464.048 L42.9973 443.169 Z" fill="#000000" fill-rule="nonzero" fill-opacity="1"></path><path clip-path="url(#clip220)" d="M42.4881 398.068 L64.0042 398.068 L64.0042 403.924 L42.679 403.924 Q37.6183 403.924 35.1038 405.897 Q32.5894 407.871 32.5894 411.818 Q32.5894 416.56 35.6131 419.297 Q38.6368 422.034 43.8567 422.034 L64.0042 422.034 L64.0042 427.923 L28.3562 427.923 L28.3562 422.034 L33.8944 422.034 Q30.6797 419.934 29.0883 417.101 Q27.4968 414.236 27.4968 410.513 Q27.4968 404.37 31.3163 401.219 Q35.1038 398.068 42.4881 398.068 Z" fill="#000000" fill-rule="nonzero" fill-opacity="1"></path><path clip-path="url(#clip220)" d="M29.7248 360.733 L35.1993 360.733 Q33.8307 363.215 33.1623 365.73 Q32.4621 368.212 32.4621 370.759 Q32.4621 376.456 36.0905 379.607 Q39.6872 382.758 46.212 382.758 Q52.7369 382.758 56.3653 379.607 Q59.9619 376.456 59.9619 370.759 Q59.9619 368.212 59.2935 365.73 Q58.5933 363.215 57.2247 360.733 L62.6355 360.733 Q63.7814 363.184 64.3543 365.825 Q64.9272 368.435 64.9272 371.395 Q64.9272 379.448 59.8664 384.19 Q54.8057 388.933 46.212 388.933 Q37.491 388.933 32.4939 384.159 Q27.4968 379.352 27.4968 371.013 Q27.4968 368.308 28.0697 365.73 Q28.6108 363.152 29.7248 360.733 Z" fill="#000000" fill-rule="nonzero" fill-opacity="1"></path><path clip-path="url(#clip220)" d="M44.7161 320.056 L47.5806 320.056 L47.5806 346.983 Q53.6281 346.601 56.8109 343.354 Q59.9619 340.076 59.9619 334.251 Q59.9619 330.878 59.1344 327.727 Q58.3069 324.544 56.6518 321.424 L62.1899 321.424 Q63.5267 324.575 64.227 327.886 Q64.9272 331.196 64.9272 334.601 Q64.9272 343.132 59.9619 348.129 Q54.9967 353.094 46.5303 353.094 Q37.7774 353.094 32.6531 348.383 Q27.4968 343.641 27.4968 335.62 Q27.4968 328.427 32.1438 324.257 Q36.7589 320.056 44.7161 320.056 M42.9973 325.912 Q38.1912 325.976 35.3266 328.618 Q32.4621 331.228 32.4621 335.556 Q32.4621 340.458 35.2312 343.418 Q38.0002 346.346 43.0292 346.792 L42.9973 325.912 Z" fill="#000000" fill-rule="nonzero" fill-opacity="1"></path><path clip-path="url(#clip220)" d="M394.823 12.096 L403.006 12.096 L403.006 72.576 L394.823 72.576 L394.823 12.096 Z" fill="#000000" fill-rule="nonzero" fill-opacity="1"></path><path clip-path="url(#clip220)" d="M426.339 14.324 L426.339 27.2059 L441.692 27.2059 L441.692 32.9987 L426.339 32.9987 L426.339 57.6282 Q426.339 63.1779 427.838 64.7578 Q429.377 66.3376 434.036 66.3376 L441.692 66.3376 L441.692 72.576 L434.036 72.576 Q425.407 72.576 422.126 69.3758 Q418.845 66.1351 418.845 57.6282 L418.845 32.9987 L413.376 32.9987 L413.376 27.2059 L418.845 27.2059 L418.845 14.324 L426.339 14.324 Z" fill="#000000" fill-rule="nonzero" fill-opacity="1"></path><path clip-path="url(#clip220)" d="M490.303 48.0275 L490.303 51.6733 L456.032 51.6733 Q456.518 59.3701 460.65 63.421 Q464.822 67.4314 472.236 67.4314 Q476.53 67.4314 480.54 66.3781 Q484.591 65.3249 488.561 63.2184 L488.561 70.267 Q484.55 71.9684 480.337 72.8596 Q476.124 73.7508 471.79 73.7508 Q460.934 73.7508 454.574 67.4314 Q448.254 61.1119 448.254 50.3365 Q448.254 39.1965 454.25 32.6746 Q460.285 26.1121 470.494 26.1121 Q479.649 26.1121 484.955 32.0264 Q490.303 37.9003 490.303 48.0275 M482.849 45.84 Q482.768 39.7232 479.406 36.0774 Q476.084 32.4315 470.575 32.4315 Q464.336 32.4315 460.569 35.9558 Q456.842 39.4801 456.275 45.8805 L482.849 45.84 Z" fill="#000000" fill-rule="nonzero" fill-opacity="1"></path><path clip-path="url(#clip220)" d="M528.827 34.1734 Q527.571 33.4443 526.072 33.1202 Q524.614 32.7556 522.831 32.7556 Q516.512 32.7556 513.109 36.8875 Q509.747 40.9789 509.747 48.6757 L509.747 72.576 L502.253 72.576 L502.253 27.2059 L509.747 27.2059 L509.747 34.2544 Q512.096 30.1225 515.864 28.1376 Q519.631 26.1121 525.019 26.1121 Q525.789 26.1121 526.72 26.2337 Q527.652 26.3147 528.786 26.5172 L528.827 34.1734 Z" fill="#000000" fill-rule="nonzero" fill-opacity="1"></path><path clip-path="url(#clip220)" d="M557.264 49.7694 Q548.231 49.7694 544.747 51.8354 Q541.263 53.9013 541.263 58.8839 Q541.263 62.8538 543.856 65.2034 Q546.489 67.5124 550.985 67.5124 Q557.183 67.5124 560.91 63.1374 Q564.677 58.7219 564.677 51.4303 L564.677 49.7694 L557.264 49.7694 M572.131 46.6907 L572.131 72.576 L564.677 72.576 L564.677 65.6895 Q562.125 69.8214 558.317 71.8063 Q554.509 73.7508 549 73.7508 Q542.033 73.7508 537.901 69.8619 Q533.809 65.9325 533.809 59.3701 Q533.809 51.7138 538.913 47.825 Q544.058 43.9361 554.226 43.9361 L564.677 43.9361 L564.677 43.2069 Q564.677 38.0623 561.274 35.2672 Q557.912 32.4315 551.795 32.4315 Q547.906 32.4315 544.22 33.3632 Q540.534 34.295 537.131 36.1584 L537.131 29.2718 Q541.222 27.692 545.071 26.9223 Q548.919 26.1121 552.565 26.1121 Q562.409 26.1121 567.27 31.2163 Q572.131 36.3204 572.131 46.6907 Z" fill="#000000" fill-rule="nonzero" fill-opacity="1"></path><path clip-path="url(#clip220)" d="M594.856 14.324 L594.856 27.2059 L610.209 27.2059 L610.209 32.9987 L594.856 32.9987 L594.856 57.6282 Q594.856 63.1779 596.355 64.7578 Q597.895 66.3376 602.553 66.3376 L610.209 66.3376 L610.209 72.576 L602.553 72.576 Q593.925 72.576 590.644 69.3758 Q587.362 66.1351 587.362 57.6282 L587.362 32.9987 L581.894 32.9987 L581.894 27.2059 L587.362 27.2059 L587.362 14.324 L594.856 14.324 Z" fill="#000000" fill-rule="nonzero" fill-opacity="1"></path><path clip-path="url(#clip220)" d="M620.013 27.2059 L627.466 27.2059 L627.466 72.576 L620.013 72.576 L620.013 27.2059 M620.013 9.54393 L627.466 9.54393 L627.466 18.9825 L620.013 18.9825 L620.013 9.54393 Z" fill="#000000" fill-rule="nonzero" fill-opacity="1"></path><path clip-path="url(#clip220)" d="M660.643 32.4315 Q654.648 32.4315 651.164 37.1306 Q647.68 41.7891 647.68 49.9314 Q647.68 58.0738 651.124 62.7728 Q654.607 67.4314 660.643 67.4314 Q666.598 67.4314 670.082 62.7323 Q673.566 58.0333 673.566 49.9314 Q673.566 41.8701 670.082 37.1711 Q666.598 32.4315 660.643 32.4315 M660.643 26.1121 Q670.365 26.1121 675.915 32.4315 Q681.465 38.7509 681.465 49.9314 Q681.465 61.0714 675.915 67.4314 Q670.365 73.7508 660.643 73.7508 Q650.88 73.7508 645.331 67.4314 Q639.821 61.0714 639.821 49.9314 Q639.821 38.7509 645.331 32.4315 Q650.88 26.1121 660.643 26.1121 Z" fill="#000000" fill-rule="nonzero" fill-opacity="1"></path><path clip-path="url(#clip220)" d="M731.534 45.1919 L731.534 72.576 L724.08 72.576 L724.08 45.4349 Q724.08 38.994 721.569 35.7938 Q719.057 32.5936 714.034 32.5936 Q707.998 32.5936 704.514 36.4419 Q701.031 40.2903 701.031 46.9338 L701.031 72.576 L693.536 72.576 L693.536 27.2059 L701.031 27.2059 L701.031 34.2544 Q703.704 30.163 707.31 28.1376 Q710.955 26.1121 715.695 26.1121 Q723.513 26.1121 727.524 30.9732 Q731.534 35.7938 731.534 45.1919 Z" fill="#000000" fill-rule="nonzero" fill-opacity="1"></path><path clip-path="url(#clip220)" d="M775.324 28.5427 L775.324 35.5912 Q772.165 33.9709 768.762 33.1607 Q765.359 32.3505 761.713 32.3505 Q756.163 32.3505 753.368 34.0519 Q750.614 35.7533 750.614 39.156 Q750.614 41.7486 752.599 43.2475 Q754.584 44.7058 760.579 46.0426 L763.131 46.6097 Q771.071 48.3111 774.393 51.4303 Q777.755 54.509 777.755 60.0587 Q777.755 66.3781 772.732 70.0644 Q767.749 73.7508 758.999 73.7508 Q755.353 73.7508 751.383 73.0216 Q747.454 72.3329 743.079 70.9151 L743.079 63.2184 Q747.211 65.3654 751.221 66.4591 Q755.232 67.5124 759.161 67.5124 Q764.427 67.5124 767.263 65.73 Q770.099 63.9071 770.099 60.6258 Q770.099 57.5877 768.033 55.9673 Q766.007 54.3469 759.08 52.8481 L756.488 52.2405 Q749.56 50.7821 746.482 47.7845 Q743.403 44.7463 743.403 39.4801 Q743.403 33.0797 747.94 29.5959 Q752.477 26.1121 760.822 26.1121 Q764.954 26.1121 768.6 26.7198 Q772.246 27.3274 775.324 28.5427 Z" fill="#000000" fill-rule="nonzero" fill-opacity="1"></path><path clip-path="url(#clip220)" d="M838.964 9.54393 L838.964 15.7418 L831.834 15.7418 Q827.824 15.7418 826.244 17.3622 Q824.705 18.9825 824.705 23.1955 L824.705 27.2059 L836.979 27.2059 L836.979 32.9987 L824.705 32.9987 L824.705 72.576 L817.211 72.576 L817.211 32.9987 L810.081 32.9987 L810.081 27.2059 L817.211 27.2059 L817.211 24.0462 Q817.211 16.471 820.735 13.0277 Q824.259 9.54393 831.915 9.54393 L838.964 9.54393 Z" fill="#000000" fill-rule="nonzero" fill-opacity="1"></path><path clip-path="url(#clip220)" d="M862.783 32.4315 Q856.788 32.4315 853.304 37.1306 Q849.82 41.7891 849.82 49.9314 Q849.82 58.0738 853.264 62.7728 Q856.747 67.4314 862.783 67.4314 Q868.738 67.4314 872.222 62.7323 Q875.706 58.0333 875.706 49.9314 Q875.706 41.8701 872.222 37.1711 Q868.738 32.4315 862.783 32.4315 M862.783 26.1121 Q872.505 26.1121 878.055 32.4315 Q883.605 38.7509 883.605 49.9314 Q883.605 61.0714 878.055 67.4314 Q872.505 73.7508 862.783 73.7508 Q853.021 73.7508 847.471 67.4314 Q841.962 61.0714 841.962 49.9314 Q841.962 38.7509 847.471 32.4315 Q853.021 26.1121 862.783 26.1121 Z" fill="#000000" fill-rule="nonzero" fill-opacity="1"></path><path clip-path="url(#clip220)" d="M922.251 34.1734 Q920.995 33.4443 919.496 33.1202 Q918.038 32.7556 916.255 32.7556 Q909.936 32.7556 906.533 36.8875 Q903.171 40.9789 903.171 48.6757 L903.171 72.576 L895.677 72.576 L895.677 27.2059 L903.171 27.2059 L903.171 34.2544 Q905.52 30.1225 909.288 28.1376 Q913.055 26.1121 918.443 26.1121 Q919.212 26.1121 920.144 26.2337 Q921.076 26.3147 922.21 26.5172 L922.251 34.1734 Z" fill="#000000" fill-rule="nonzero" fill-opacity="1"></path><path clip-path="url(#clip220)" d="M979.409 9.54393 L979.409 15.7418 L972.279 15.7418 Q968.269 15.7418 966.689 17.3622 Q965.15 18.9825 965.15 23.1955 L965.15 27.2059 L977.424 27.2059 L977.424 32.9987 L965.15 32.9987 L965.15 72.576 L957.655 72.576 L957.655 32.9987 L950.526 32.9987 L950.526 27.2059 L957.655 27.2059 L957.655 24.0462 Q957.655 16.471 961.18 13.0277 Q964.704 9.54393 972.36 9.54393 L979.409 9.54393 Z" fill="#000000" fill-rule="nonzero" fill-opacity="1"></path><path clip-path="url(#clip220)" d="M985.647 27.2059 L993.101 27.2059 L993.101 72.576 L985.647 72.576 L985.647 27.2059 M985.647 9.54393 L993.101 9.54393 L993.101 18.9825 L985.647 18.9825 L985.647 9.54393 Z" fill="#000000" fill-rule="nonzero" fill-opacity="1"></path><path clip-path="url(#clip220)" d="M1046.41 27.2059 L1030 49.2833 L1047.26 72.576 L1038.47 72.576 L1025.27 54.752 L1012.06 72.576 L1003.27 72.576 L1020.89 48.8377 L1004.77 27.2059 L1013.56 27.2059 L1025.59 43.369 L1037.62 27.2059 L1046.41 27.2059 Z" fill="#000000" fill-rule="nonzero" fill-opacity="1"></path><path clip-path="url(#clip220)" d="M1094.05 48.0275 L1094.05 51.6733 L1059.78 51.6733 Q1060.26 59.3701 1064.4 63.421 Q1068.57 67.4314 1075.98 67.4314 Q1080.28 67.4314 1084.29 66.3781 Q1088.34 65.3249 1092.31 63.2184 L1092.31 70.267 Q1088.3 71.9684 1084.08 72.8596 Q1079.87 73.7508 1075.54 73.7508 Q1064.68 73.7508 1058.32 67.4314 Q1052 61.1119 1052 50.3365 Q1052 39.1965 1058 32.6746 Q1064.03 26.1121 1074.24 26.1121 Q1083.4 26.1121 1088.7 32.0264 Q1094.05 37.9003 1094.05 48.0275 M1086.6 45.84 Q1086.51 39.7232 1083.15 36.0774 Q1079.83 32.4315 1074.32 32.4315 Q1068.08 32.4315 1064.32 35.9558 Q1060.59 39.4801 1060.02 45.8805 L1086.6 45.84 Z" fill="#000000" fill-rule="nonzero" fill-opacity="1"></path><path clip-path="url(#clip220)" d="M1136.14 34.0924 L1136.14 9.54393 L1143.59 9.54393 L1143.59 72.576 L1136.14 72.576 L1136.14 65.7705 Q1133.79 69.8214 1130.18 71.8063 Q1126.62 73.7508 1121.6 73.7508 Q1113.37 73.7508 1108.19 67.1883 Q1103.04 60.6258 1103.04 49.9314 Q1103.04 39.2371 1108.19 32.6746 Q1113.37 26.1121 1121.6 26.1121 Q1126.62 26.1121 1130.18 28.0971 Q1133.79 30.0415 1136.14 34.0924 M1110.74 49.9314 Q1110.74 58.1548 1114.1 62.8538 Q1117.5 67.5124 1123.42 67.5124 Q1129.33 67.5124 1132.74 62.8538 Q1136.14 58.1548 1136.14 49.9314 Q1136.14 41.7081 1132.74 37.0496 Q1129.33 32.3505 1123.42 32.3505 Q1117.5 32.3505 1114.1 37.0496 Q1110.74 41.7081 1110.74 49.9314 Z" fill="#000000" fill-rule="nonzero" fill-opacity="1"></path><path clip-path="url(#clip220)" d="M1192.69 14.324 L1192.69 27.2059 L1208.04 27.2059 L1208.04 32.9987 L1192.69 32.9987 L1192.69 57.6282 Q1192.69 63.1779 1194.19 64.7578 Q1195.73 66.3376 1200.39 66.3376 L1208.04 66.3376 L1208.04 72.576 L1200.39 72.576 Q1191.76 72.576 1188.48 69.3758 Q1185.19 66.1351 1185.19 57.6282 L1185.19 32.9987 L1179.73 32.9987 L1179.73 27.2059 L1185.19 27.2059 L1185.19 14.324 L1192.69 14.324 Z" fill="#000000" fill-rule="nonzero" fill-opacity="1"></path><path clip-path="url(#clip220)" d="M1235.43 32.4315 Q1229.43 32.4315 1225.95 37.1306 Q1222.46 41.7891 1222.46 49.9314 Q1222.46 58.0738 1225.91 62.7728 Q1229.39 67.4314 1235.43 67.4314 Q1241.38 67.4314 1244.86 62.7323 Q1248.35 58.0333 1248.35 49.9314 Q1248.35 41.8701 1244.86 37.1711 Q1241.38 32.4315 1235.43 32.4315 M1235.43 26.1121 Q1245.15 26.1121 1250.7 32.4315 Q1256.25 38.7509 1256.25 49.9314 Q1256.25 61.0714 1250.7 67.4314 Q1245.15 73.7508 1235.43 73.7508 Q1225.66 73.7508 1220.11 67.4314 Q1214.6 61.0714 1214.6 49.9314 Q1214.6 38.7509 1220.11 32.4315 Q1225.66 26.1121 1235.43 26.1121 Z" fill="#000000" fill-rule="nonzero" fill-opacity="1"></path><path clip-path="url(#clip220)" d="M1268.6 9.54393 L1276.06 9.54393 L1276.06 72.576 L1268.6 72.576 L1268.6 9.54393 Z" fill="#000000" fill-rule="nonzero" fill-opacity="1"></path><path clip-path="url(#clip220)" d="M1330.46 48.0275 L1330.46 51.6733 L1296.19 51.6733 Q1296.68 59.3701 1300.81 63.421 Q1304.98 67.4314 1312.39 67.4314 Q1316.69 67.4314 1320.7 66.3781 Q1324.75 65.3249 1328.72 63.2184 L1328.72 70.267 Q1324.71 71.9684 1320.49 72.8596 Q1316.28 73.7508 1311.95 73.7508 Q1301.09 73.7508 1294.73 67.4314 Q1288.41 61.1119 1288.41 50.3365 Q1288.41 39.1965 1294.41 32.6746 Q1300.44 26.1121 1310.65 26.1121 Q1319.81 26.1121 1325.11 32.0264 Q1330.46 37.9003 1330.46 48.0275 M1323.01 45.84 Q1322.93 39.7232 1319.56 36.0774 Q1316.24 32.4315 1310.73 32.4315 Q1304.49 32.4315 1300.73 35.9558 Q1297 39.4801 1296.43 45.8805 L1323.01 45.84 Z" fill="#000000" fill-rule="nonzero" fill-opacity="1"></path><path clip-path="url(#clip220)" d="M1368.98 34.1734 Q1367.73 33.4443 1366.23 33.1202 Q1364.77 32.7556 1362.99 32.7556 Q1356.67 32.7556 1353.27 36.8875 Q1349.9 40.9789 1349.9 48.6757 L1349.9 72.576 L1342.41 72.576 L1342.41 27.2059 L1349.9 27.2059 L1349.9 34.2544 Q1352.25 30.1225 1356.02 28.1376 Q1359.79 26.1121 1365.18 26.1121 Q1365.95 26.1121 1366.88 26.2337 Q1367.81 26.3147 1368.94 26.5172 L1368.98 34.1734 Z" fill="#000000" fill-rule="nonzero" fill-opacity="1"></path><path clip-path="url(#clip220)" d="M1397.42 49.7694 Q1388.39 49.7694 1384.9 51.8354 Q1381.42 53.9013 1381.42 58.8839 Q1381.42 62.8538 1384.01 65.2034 Q1386.65 67.5124 1391.14 67.5124 Q1397.34 67.5124 1401.07 63.1374 Q1404.83 58.7219 1404.83 51.4303 L1404.83 49.7694 L1397.42 49.7694 M1412.29 46.6907 L1412.29 72.576 L1404.83 72.576 L1404.83 65.6895 Q1402.28 69.8214 1398.47 71.8063 Q1394.67 73.7508 1389.16 73.7508 Q1382.19 73.7508 1378.06 69.8619 Q1373.97 65.9325 1373.97 59.3701 Q1373.97 51.7138 1379.07 47.825 Q1384.22 43.9361 1394.38 43.9361 L1404.83 43.9361 L1404.83 43.2069 Q1404.83 38.0623 1401.43 35.2672 Q1398.07 32.4315 1391.95 32.4315 Q1388.06 32.4315 1384.38 33.3632 Q1380.69 34.295 1377.29 36.1584 L1377.29 29.2718 Q1381.38 27.692 1385.23 26.9223 Q1389.08 26.1121 1392.72 26.1121 Q1402.57 26.1121 1407.43 31.2163 Q1412.29 36.3204 1412.29 46.6907 Z" fill="#000000" fill-rule="nonzero" fill-opacity="1"></path><path clip-path="url(#clip220)" d="M1465.36 45.1919 L1465.36 72.576 L1457.9 72.576 L1457.9 45.4349 Q1457.9 38.994 1455.39 35.7938 Q1452.88 32.5936 1447.86 32.5936 Q1441.82 32.5936 1438.34 36.4419 Q1434.85 40.2903 1434.85 46.9338 L1434.85 72.576 L1427.36 72.576 L1427.36 27.2059 L1434.85 27.2059 L1434.85 34.2544 Q1437.53 30.163 1441.13 28.1376 Q1444.78 26.1121 1449.52 26.1121 Q1457.33 26.1121 1461.34 30.9732 Q1465.36 35.7938 1465.36 45.1919 Z" fill="#000000" fill-rule="nonzero" fill-opacity="1"></path><path clip-path="url(#clip220)" d="M1512.87 28.9478 L1512.87 35.9153 Q1509.71 34.1734 1506.51 33.3227 Q1503.35 32.4315 1500.11 32.4315 Q1492.86 32.4315 1488.85 37.0496 Q1484.84 41.6271 1484.84 49.9314 Q1484.84 58.2358 1488.85 62.8538 Q1492.86 67.4314 1500.11 67.4314 Q1503.35 67.4314 1506.51 66.5807 Q1509.71 65.6895 1512.87 63.9476 L1512.87 70.8341 Q1509.75 72.2924 1506.39 73.0216 Q1503.07 73.7508 1499.3 73.7508 Q1489.05 73.7508 1483.02 67.3098 Q1476.98 60.8689 1476.98 49.9314 Q1476.98 38.832 1483.06 32.472 Q1489.17 26.1121 1499.79 26.1121 Q1503.23 26.1121 1506.51 26.8413 Q1509.79 27.5299 1512.87 28.9478 Z" fill="#000000" fill-rule="nonzero" fill-opacity="1"></path><path clip-path="url(#clip220)" d="M1564.64 48.0275 L1564.64 51.6733 L1530.37 51.6733 Q1530.86 59.3701 1534.99 63.421 Q1539.16 67.4314 1546.58 67.4314 Q1550.87 67.4314 1554.88 66.3781 Q1558.93 65.3249 1562.9 63.2184 L1562.9 70.267 Q1558.89 71.9684 1554.68 72.8596 Q1550.46 73.7508 1546.13 73.7508 Q1535.27 73.7508 1528.91 67.4314 Q1522.59 61.1119 1522.59 50.3365 Q1522.59 39.1965 1528.59 32.6746 Q1534.63 26.1121 1544.83 26.1121 Q1553.99 26.1121 1559.3 32.0264 Q1564.64 37.9003 1564.64 48.0275 M1557.19 45.84 Q1557.11 39.7232 1553.75 36.0774 Q1550.42 32.4315 1544.92 32.4315 Q1538.68 32.4315 1534.91 35.9558 Q1531.18 39.4801 1530.62 45.8805 L1557.19 45.84 Z" fill="#000000" fill-rule="nonzero" fill-opacity="1"></path><path clip-path="url(#clip220)" d="M1603.57 12.096 L1611.75 12.096 L1611.75 72.576 L1603.57 72.576 L1603.57 12.096 Z" fill="#000000" fill-rule="nonzero" fill-opacity="1"></path><path clip-path="url(#clip220)" d="M1665.43 45.1919 L1665.43 72.576 L1657.98 72.576 L1657.98 45.4349 Q1657.98 38.994 1655.46 35.7938 Q1652.95 32.5936 1647.93 32.5936 Q1641.89 32.5936 1638.41 36.4419 Q1634.93 40.2903 1634.93 46.9338 L1634.93 72.576 L1627.43 72.576 L1627.43 27.2059 L1634.93 27.2059 L1634.93 34.2544 Q1637.6 30.163 1641.21 28.1376 Q1644.85 26.1121 1649.59 26.1121 Q1657.41 26.1121 1661.42 30.9732 Q1665.43 35.7938 1665.43 45.1919 Z" fill="#000000" fill-rule="nonzero" fill-opacity="1"></path><path clip-path="url(#clip220)" d="M1719.1 48.0275 L1719.1 51.6733 L1684.83 51.6733 Q1685.32 59.3701 1689.45 63.421 Q1693.62 67.4314 1701.04 67.4314 Q1705.33 67.4314 1709.34 66.3781 Q1713.39 65.3249 1717.36 63.2184 L1717.36 70.267 Q1713.35 71.9684 1709.14 72.8596 Q1704.93 73.7508 1700.59 73.7508 Q1689.73 73.7508 1683.37 67.4314 Q1677.06 61.1119 1677.06 50.3365 Q1677.06 39.1965 1683.05 32.6746 Q1689.09 26.1121 1699.29 26.1121 Q1708.45 26.1121 1713.76 32.0264 Q1719.1 37.9003 1719.1 48.0275 M1711.65 45.84 Q1711.57 39.7232 1708.21 36.0774 Q1704.89 32.4315 1699.38 32.4315 Q1693.14 32.4315 1689.37 35.9558 Q1685.64 39.4801 1685.08 45.8805 L1711.65 45.84 Z" fill="#000000" fill-rule="nonzero" fill-opacity="1"></path><path clip-path="url(#clip220)" d="M1767.59 27.2059 L1751.19 49.2833 L1768.44 72.576 L1759.65 72.576 L1746.45 54.752 L1733.24 72.576 L1724.45 72.576 L1742.07 48.8377 L1725.95 27.2059 L1734.74 27.2059 L1746.77 43.369 L1758.8 27.2059 L1767.59 27.2059 Z" fill="#000000" fill-rule="nonzero" fill-opacity="1"></path><path clip-path="url(#clip220)" d="M1799.6 49.7694 Q1790.56 49.7694 1787.08 51.8354 Q1783.59 53.9013 1783.59 58.8839 Q1783.59 62.8538 1786.19 65.2034 Q1788.82 67.5124 1793.32 67.5124 Q1799.51 67.5124 1803.24 63.1374 Q1807.01 58.7219 1807.01 51.4303 L1807.01 49.7694 L1799.6 49.7694 M1814.46 46.6907 L1814.46 72.576 L1807.01 72.576 L1807.01 65.6895 Q1804.46 69.8214 1800.65 71.8063 Q1796.84 73.7508 1791.33 73.7508 Q1784.36 73.7508 1780.23 69.8619 Q1776.14 65.9325 1776.14 59.3701 Q1776.14 51.7138 1781.24 47.825 Q1786.39 43.9361 1796.56 43.9361 L1807.01 43.9361 L1807.01 43.2069 Q1807.01 38.0623 1803.61 35.2672 Q1800.24 32.4315 1794.13 32.4315 Q1790.24 32.4315 1786.55 33.3632 Q1782.87 34.295 1779.46 36.1584 L1779.46 29.2718 Q1783.55 27.692 1787.4 26.9223 Q1791.25 26.1121 1794.9 26.1121 Q1804.74 26.1121 1809.6 31.2163 Q1814.46 36.3204 1814.46 46.6907 Z" fill="#000000" fill-rule="nonzero" fill-opacity="1"></path><path clip-path="url(#clip220)" d="M1862.47 28.9478 L1862.47 35.9153 Q1859.31 34.1734 1856.11 33.3227 Q1852.95 32.4315 1849.71 32.4315 Q1842.45 32.4315 1838.44 37.0496 Q1834.43 41.6271 1834.43 49.9314 Q1834.43 58.2358 1838.44 62.8538 Q1842.45 67.4314 1849.71 67.4314 Q1852.95 67.4314 1856.11 66.5807 Q1859.31 65.6895 1862.47 63.9476 L1862.47 70.8341 Q1859.35 72.2924 1855.98 73.0216 Q1852.66 73.7508 1848.89 73.7508 Q1838.65 73.7508 1832.61 67.3098 Q1826.57 60.8689 1826.57 49.9314 Q1826.57 38.832 1832.65 32.472 Q1838.77 26.1121 1849.38 26.1121 Q1852.82 26.1121 1856.11 26.8413 Q1859.39 27.5299 1862.47 28.9478 Z" fill="#000000" fill-rule="nonzero" fill-opacity="1"></path><path clip-path="url(#clip220)" d="M1882.8 14.324 L1882.8 27.2059 L1898.15 27.2059 L1898.15 32.9987 L1882.8 32.9987 L1882.8 57.6282 Q1882.8 63.1779 1884.3 64.7578 Q1885.84 66.3376 1890.5 66.3376 L1898.15 66.3376 L1898.15 72.576 L1890.5 72.576 Q1881.87 72.576 1878.59 69.3758 Q1875.31 66.1351 1875.31 57.6282 L1875.31 32.9987 L1869.84 32.9987 L1869.84 27.2059 L1875.31 27.2059 L1875.31 14.324 L1882.8 14.324 Z" fill="#000000" fill-rule="nonzero" fill-opacity="1"></path><path clip-path="url(#clip220)" d="M1975.89 63.9476 L1975.89 47.7034 L1962.52 47.7034 L1962.52 40.9789 L1983.99 40.9789 L1983.99 66.9452 Q1979.25 70.3075 1973.54 72.0494 Q1967.83 73.7508 1961.35 73.7508 Q1947.17 73.7508 1939.15 65.4869 Q1931.17 57.1826 1931.17 42.3968 Q1931.17 27.5705 1939.15 19.3066 Q1947.17 11.0023 1961.35 11.0023 Q1967.26 11.0023 1972.57 12.4606 Q1977.92 13.9189 1982.41 16.7545 L1982.41 25.464 Q1977.88 21.6156 1972.77 19.6712 Q1967.67 17.7268 1962.04 17.7268 Q1950.94 17.7268 1945.35 23.9246 Q1939.8 30.1225 1939.8 42.3968 Q1939.8 54.6305 1945.35 60.8284 Q1950.94 67.0263 1962.04 67.0263 Q1966.37 67.0263 1969.77 66.2971 Q1973.18 65.5274 1975.89 63.9476 Z" fill="#000000" fill-rule="nonzero" fill-opacity="1"></path><path clip-path="url(#clip220)" d="M1998.94 12.096 L2011.13 12.096 L2026.57 53.2532 L2042.08 12.096 L2054.28 12.096 L2054.28 72.576 L2046.3 72.576 L2046.3 19.4686 L2030.7 60.9499 L2022.48 60.9499 L2006.88 19.4686 L2006.88 72.576 L1998.94 72.576 L1998.94 12.096 Z" fill="#000000" fill-rule="nonzero" fill-opacity="1"></path><path clip-path="url(#clip220)" d="M2099.2 44.2197 Q2101.83 45.1109 2104.3 48.0275 Q2106.82 50.9442 2109.33 56.0483 L2117.63 72.576 L2108.84 72.576 L2101.1 57.061 Q2098.11 50.9847 2095.27 48.9997 Q2092.48 47.0148 2087.61 47.0148 L2078.7 47.0148 L2078.7 72.576 L2070.52 72.576 L2070.52 12.096 L2088.99 12.096 Q2099.36 12.096 2104.47 16.4305 Q2109.57 20.7649 2109.57 29.5149 Q2109.57 35.2267 2106.9 38.994 Q2104.26 42.7613 2099.2 44.2197 M2078.7 18.8205 L2078.7 40.2903 L2088.99 40.2903 Q2094.91 40.2903 2097.9 37.5762 Q2100.94 34.8216 2100.94 29.5149 Q2100.94 24.2082 2097.9 21.5346 Q2094.91 18.8205 2088.99 18.8205 L2078.7 18.8205 Z" fill="#000000" fill-rule="nonzero" fill-opacity="1"></path><path clip-path="url(#clip220)" d="M2128.16 12.096 L2166.4 12.096 L2166.4 18.9825 L2136.35 18.9825 L2136.35 36.8875 L2165.15 36.8875 L2165.15 43.7741 L2136.35 43.7741 L2136.35 65.6895 L2167.13 65.6895 L2167.13 72.576 L2128.16 72.576 L2128.16 12.096 Z" fill="#000000" fill-rule="nonzero" fill-opacity="1"></path><path clip-path="url(#clip220)" d="M2216.84 14.0809 L2216.84 22.0612 Q2212.18 19.8332 2208.05 18.7395 Q2203.92 17.6457 2200.07 17.6457 Q2193.38 17.6457 2189.74 20.2383 Q2186.13 22.8309 2186.13 27.611 Q2186.13 31.6214 2188.52 33.6873 Q2190.95 35.7128 2197.68 36.9686 L2202.62 37.9813 Q2211.77 39.7232 2216.11 44.1387 Q2220.48 48.5136 2220.48 55.8863 Q2220.48 64.6767 2214.57 69.2137 Q2208.7 73.7508 2197.31 73.7508 Q2193.02 73.7508 2188.16 72.7785 Q2183.34 71.8063 2178.15 69.9024 L2178.15 61.4765 Q2183.13 64.2716 2187.92 65.6895 Q2192.7 67.1073 2197.31 67.1073 Q2204.32 67.1073 2208.13 64.3527 Q2211.94 61.598 2211.94 56.4939 Q2211.94 52.0379 2209.18 49.5264 Q2206.47 47.0148 2200.23 45.759 L2195.25 44.7868 Q2186.09 42.9639 2182 39.075 Q2177.91 35.1862 2177.91 28.2591 Q2177.91 20.2383 2183.54 15.6203 Q2189.21 11.0023 2199.14 11.0023 Q2203.39 11.0023 2207.8 11.7719 Q2212.22 12.5416 2216.84 14.0809 Z" fill="#000000" fill-rule="nonzero" fill-opacity="1"></path><circle clip-path="url(#clip222)" cx="321.708" cy="1386.4" r="14.4" fill="#009af9" fill-rule="evenodd" fill-opacity="1" stroke="#000000" stroke-opacity="1" stroke-width="3.2"></circle>
<circle clip-path="url(#clip222)" cx="711.413" cy="1354.76" r="14.4" fill="#009af9" fill-rule="evenodd" fill-opacity="1" stroke="#000000" stroke-opacity="1" stroke-width="3.2"></circle>
<circle clip-path="url(#clip222)" cx="1008.45" cy="1317.67" r="14.4" fill="#009af9" fill-rule="evenodd" fill-opacity="1" stroke="#000000" stroke-opacity="1" stroke-width="3.2"></circle>
<circle clip-path="url(#clip222)" cx="1305.5" cy="1253.31" r="14.4" fill="#009af9" fill-rule="evenodd" fill-opacity="1" stroke="#000000" stroke-opacity="1" stroke-width="3.2"></circle>
<circle clip-path="url(#clip222)" cx="1698.54" cy="1052.59" r="14.4" fill="#009af9" fill-rule="evenodd" fill-opacity="1" stroke="#000000" stroke-opacity="1" stroke-width="3.2"></circle>
<circle clip-path="url(#clip222)" cx="1996.06" cy="782.053" r="14.4" fill="#009af9" fill-rule="evenodd" fill-opacity="1" stroke="#000000" stroke-opacity="1" stroke-width="3.2"></circle>
<circle clip-path="url(#clip222)" cx="2293.6" cy="160.256" r="14.4" fill="#009af9" fill-rule="evenodd" fill-opacity="1" stroke="#000000" stroke-opacity="1" stroke-width="3.2"></circle>
</svg>