<svg xmlns="http://www.w3.org/2000/svg" viewBox="0 0 651.86 213.54"><defs><style>.a{fill:none;stroke:#143355;stroke-miterlimit:10;stroke-width:1.95px}.b{fill:#143355}.c{fill:#fff}.d{fill:#1c8596}</style></defs><path class="a" d="M234.72 213.54V0"></path><path class="b" d="M335.24 107.42c-12.35-8.5-19-13-25.24-17.67a32.89 32.89 0 0 0 9.62 44.16c3.61-7.12 8.46-15 15.62-26.49m32.32 6.58a15.24 15.24 0 0 1-19.05 2.52c-1.13-.71-9.16-6.25-9.16-6.25-8.87 12.53-13.43 18.82-18.32 24.58A32.87 32.87 0 0 0 371 108.33a15.37 15.37 0 0 1-3.4 5.64"></path><path class="b" d="M361.48 95.46l-8.13-5.41c-5.78 8.51-6.68 9.76-11.09 16.08 0 0 7.66 5 8.77 5.64a9.72 9.72 0 0 0 14.68-6.41 9.63 9.63 0 0 0-4.23-9.9"></path><path class="b" d="M337.82 103.27c4.17-6.64 7.94-12.56 13.86-21.5 0 0 12.42 8.19 13.53 9a15.87 15.87 0 0 1 3 2.76 32.88 32.88 0 0 0-56.31-6.57c6.62 3.93 14.52 9 25.91 16.33m-30.75-20.2a4.15 4.15 0 1 0-4.16 4.13 4.14 4.14 0 0 0 4.16-4.13M310 71l1.95-1.39a2 2 0 0 1 3.06.3 2.16 2.16 0 0 1-.78 3.11l-1 .7 1.14 1.59-.87.62zm3.72 1.23a1.14 1.14 0 0 0 .43-1.65c-.42-.58-1.05-.59-1.71-.12l-1 .72 1.24 1.82zm4.34-2.96a3.18 3.18 0 0 1 5.81-2.58 3.12 3.12 0 0 1-1.65 4.17 3.09 3.09 0 0 1-4.17-1.58m4.8-2.12a2.06 2.06 0 1 0-3.78 1.65 2.09 2.09 0 0 0 2.78 1.19 2.06 2.06 0 0 0 1-2.8m3.62-4.41l1.04-.23 1.1 4.99 3.13-.68.2.95-4.17.91-1.3-5.94zm8.6 2.32l-2.63-3.54 1.26-.07 1.86 2.59 1.56-2.79 1.23-.07-2.2 3.79.14 2.43-1.08.06-.14-2.4zm7.64-2.56l-1.92-.22.12-.99 4.9.57-.11.98-1.92-.22-.58 5.07-1.07-.13.58-5.06zm6.73.15l4.32 1.33-.28.91-3.29-1.01-.47 1.51 2.92.9-.28.91-2.92-.89-.48 1.56 3.34 1.02-.28.92-4.36-1.34 1.78-5.82zm6.43 5.48a3.08 3.08 0 0 1 4.26-1.28 3.18 3.18 0 0 1 1.65 2l-1 .37a2.43 2.43 0 0 0-1.14-1.47 2 2 0 0 0-2.79.94 2.06 2.06 0 0 0 .75 2.86 2.36 2.36 0 0 0 1.91.14l.27.93a3.13 3.13 0 0 1-2.68-.22 3.05 3.05 0 0 1-1.24-4.22m9.49 2.06l.82.68-1.62 1.94 2.22 1.87 1.63-1.94.82.69-3.91 4.67-.82-.69 1.65-1.97-2.23-1.87-1.65 1.97-.82-.68 3.91-4.67zm7.11 6.6l.61.78-1.33 5.16 3.33-2.58.64.83-4.81 3.73-.55-.71 1.37-5.31-3.43 2.66-.64-.84 4.81-3.72zm5.35 7.72l.52.94-5.35 2.91-.51-.94 5.34-2.91zm-1.4 10.97a3.12 3.12 0 0 1-1.14-1.58 3.08 3.08 0 0 1 1.93-4 3.13 3.13 0 0 1 4 2 3.09 3.09 0 0 1-1.93 4 3.09 3.09 0 0 1-2 0l-.33.85-1-.41zm.41-1l.5-1.28 1 .4-.57 1.3a2.18 2.18 0 0 0 1.15 0 2.08 2.08 0 0 0 1.37-2.66 2 2 0 0 0-2.69-1.24 2.1 2.1 0 0 0-1.38 2.67 2 2 0 0 0 .62.89m2.67 4.63l3.48-.41.13 1.06-3.44.41c-1.12.13-1.66.78-1.55 1.73a1.46 1.46 0 0 0 1.89 1.32l3.49-.41.12 1.06-3.43.41a2.44 2.44 0 0 1-3-2.28 2.41 2.41 0 0 1 2.36-2.89m4.08 8.88l-.35 4.5-.95-.07.26-3.43-1.58-.13-.23 3.05-.96-.07.24-3.05-1.63-.12-.27 3.47-.96-.07.35-4.55 6.08.47zm-71.38 35.96l-.88-.62 3.53-4.97.87.62-3.52 4.97zm-4.49-3.45l-.7-.7.69-5.28-2.98 2.97-.75-.75 4.32-4.29.63.63-.7 5.44 3.07-3.05.74.74-4.32 4.29zm-1.88-9.68l-1-.11a2.78 2.78 0 0 0-.4-2c-.36-.56-.84-.73-1.23-.48-.36.24-.42.57 0 1.66.45 1.25.54 2.07-.4 2.69a1.86 1.86 0 0 1-2.61-.77 3.37 3.37 0 0 1-.58-2.26h1a2.77 2.77 0 0 0 .39 1.73c.34.52.81.65 1.15.43.39-.26.42-.61 0-1.73s-.42-2.06.42-2.62a1.89 1.89 0 0 1 2.71.82 3.75 3.75 0 0 1 .58 2.65m-8.38-6.16l.76 1.78-.91.39-1.95-4.54.91-.39.76 1.77 4.68-2.01.43.99-4.68 2.01zm-2.157-5.654l5.908-1.584.278 1.038-5.908 1.583zm-1.283-6.426l.24 1.92-.98.12-.61-4.91.98-.12.24 1.92 5.06-.63.13 1.07-5.06.63zm2.03-6.15l-3.5-.22.07-1.07 3.45.23c1.13.07 1.78-.47 1.84-1.43s-.48-1.56-1.59-1.64l-3.51-.22.07-1.07 3.45.22a2.43 2.43 0 0 1 2.56 2.79 2.39 2.39 0 0 1-2.84 2.41m-1.15-10.51l-.48 1.86-.97-.24 1.25-4.79.96.26-.49 1.86 4.94 1.28-.28 1.05-4.93-1.28zm29.61 47.51l2.35.67c2.44.69 3.31 2.24 2.8 4.05-.51 1.82-2.12 2.75-4.61 2l-2.27-.65zm1.16 5c.93.27 1.65 0 1.9-.83.25-.88-.25-1.44-1.18-1.71l-.34-.1-.73 2.56zm7.87-2.86l5.43.27-.08 1.75-3.35-.17-.03.65 3.12.15-.08 1.54-3.11-.16-.03.7 3.38.16-.09 1.75-5.47-.27.31-6.37zm13.49-.76l2.74-.83c1.62-.5 2.95-.11 3.39 1.33.45 1.47-.44 2.6-2.08 3.1l-.67.21.51 1.65-2 .62zm3.5 2.2c.52-.16.8-.5.67-.94-.14-.45-.53-.58-1.07-.41l-.56.17.42 1.36zm6.01-5.87l1.83-1 5.52 4.26-2 1.15-.71-.58-2 1.1.14.91-2 1.13zm3.41 2.73l-1.27-1.06.26 1.64zm2.8-6.66l2.28-2.13a3.09 3.09 0 0 1 2.17-1 2 2 0 0 1 1.46.71 2 2 0 0 1 .41 2.28l2.57.58-1.78 1.65-2.12-.51-.31.3 1.24 1.33-1.56 1.45zm4.3.13c.37-.34.44-.72.18-1-.27-.3-.64-.23-1 .11l-.68.63.85.91zm2.1-6.77l1.262-1.717 5.141 3.777-1.26 1.717zm7.73-1.64l-.73-1.62a3.6 3.6 0 0 0 1.66-1.68c.16-.34.14-.53 0-.61-.16-.08-.34.06-.76.62-.89 1.15-1.81 2.11-3 1.52-1.09-.53-1.52-1.79-.75-3.38a4.43 4.43 0 0 1 2-2.2l.84 1.56a3.3 3.3 0 0 0-1.4 1.45c-.15.28-.11.46 0 .53.15.07.32 0 .74-.58 1-1.34 1.88-2.11 3-1.55 1.2.59 1.45 1.94.71 3.48a4.9 4.9 0 0 1-2.4 2.47m22.9-56.73h2.96v16.87h-2.96zm11.3 0h2.75l9.04 11.66V72.4h2.91v16.87h-2.48l-9.3-12v12h-2.92V72.4zm29.39 7.09c-3.23-.78-4-1.38-4-2.68 0-1.11 1-2 2.74-2a7.64 7.64 0 0 1 4.58 1.73l1.59-2.24a9.29 9.29 0 0 0-6.12-2.12c-3.35 0-5.76 2-5.76 4.92 0 3.11 2 4.19 5.62 5.06 3.13.72 3.81 1.4 3.81 2.6s-1.16 2.15-3 2.15a7.76 7.76 0 0 1-5.33-2.2l-1.78 2.12a10.36 10.36 0 0 0 7 2.7c3.54 0 6-1.9 6-5.06 0-2.79-1.85-4.09-5.42-5m16.15-4.32h-5.35V72.4h13.69v2.75h-5.35v14.12h-2.99V75.15zm14.87-2.75h2.96v16.87h-2.96zm14.84 2.75h-5.35V72.4h13.69v2.75h-5.35v14.12h-2.99V75.15zm14.29 6.96V72.4h3V82c0 3.14 1.62 4.83 4.27 4.83s4.24-1.6 4.24-4.71V72.4h3V82c0 5-2.85 7.57-7.26 7.57s-7.18-2.53-7.18-7.43m25.66-6.99h-5.35V72.4h13.69v2.75h-5.35v14.12h-2.99V75.15zM406.4 98.32h-6.65v16.87h3v-5.42h3.35c3.71 0 6.75-2 6.75-5.79 0-3.39-2.48-5.66-6.41-5.66m-.24 8.77h-3.45V101h3.45c2.22 0 3.64 1.06 3.64 3 0 1.76-1.4 3-3.64 3m20.8-9a8.73 8.73 0 1 0 8.8 8.7A8.66 8.66 0 0 0 427 98m0 14.73a5.8 5.8 0 0 1-5.73-6 5.72 5.72 0 0 1 5.68-6 5.81 5.81 0 0 1 5.74 6 5.72 5.72 0 0 1-5.69 6m15.49-14.41h2.96v14.17h8.87v2.7h-11.83V98.32zm19.83 10.22l-6.7-10.23h3.49l4.73 7.48 4.77-7.48h3.4l-6.7 10.16v6.72h-2.99v-6.65zm19.66-7.48h-5.35v-2.74h13.7v2.74h-5.36v14.13h-2.99v-14.13zm14.86-2.74h12.51v2.65h-9.55v4.38h8.46v2.66h-8.46v4.53h9.67v2.65h-12.63V98.32zm32.6 12.24a6.59 6.59 0 0 1-4.84 2.2 6 6 0 0 1 0-12 6.7 6.7 0 0 1 4.73 2.1l1.9-2.19a8.77 8.77 0 0 0-6.61-2.67 8.73 8.73 0 0 0-.12 17.45 8.72 8.72 0 0 0 6.85-3zm8.4-12.24h2.96v7.01h8.06v-7.01h2.96v16.87h-2.96v-7.11h-8.06v7.11h-2.96V98.32zm22.46 0h2.74l9.04 11.66V98.32H575v16.87h-2.48l-9.31-12v12h-2.91V98.32zm23.2-.01h2.96v16.87h-2.96zm25.57 13.62A8.72 8.72 0 0 0 602 98a8.67 8.67 0 0 0-8.85 8.75 8.58 8.58 0 0 0 8.8 8.7 8.71 8.71 0 0 0 5.13-1.59l2 1.81 1.91-2.12zm-2.26-2l-2.92-2.65-1.9 2.17 2.89 2.45a5.33 5.33 0 0 1-2.89.83 5.81 5.81 0 0 1-5.74-6 5.72 5.72 0 0 1 5.69-6 6.08 6.08 0 0 1 4.87 9.21m10.68-1.94v-9.68h3v9.59c0 3.13 1.61 4.82 4.26 4.82S629 111.14 629 108v-9.68h3v9.57c0 5-2.85 7.57-7.26 7.57s-7.18-2.54-7.18-7.43m21.67-9.71h12.51v2.65h-9.54v4.38h8.46v2.66h-8.46v4.53h9.66v2.65h-12.63V98.32zm-232.97 25.92h-6.51v16.87h6.41c6.07 0 9.62-3.64 9.62-8.51s-3.5-8.36-9.52-8.36m.07 12.72h-1.91v-8.58h1.91c2.79 0 4.65 1.59 4.65 4.29s-1.86 4.29-4.65 4.29m17.17-12.72h13.57v3.97h-8.95v2.56h8.1v3.69h-8.1v2.67h9.07v3.98H423.5v-16.87zm40.9 0h-7.23v16.87h4.67v-4.82h2.32c4.19 0 7.25-2.13 7.25-6.1 0-3.74-2.75-6-7-6m-.34 8.38h-2.22v-4.46H464c1.69 0 2.7.8 2.7 2.25s-1 2.21-2.68 2.21m18.52-8.45h4.51l7.18 17h-5l-1.23-3h-6.5l-1.21 3h-4.92zm4.1 10.34l-1.89-4.8-1.9 4.8zm25.43.76a5.36 5.36 0 0 0 3.47-5.2c0-3.73-2.6-5.78-7-5.78h-8v16.87h4.67V136h2.06l3.39 5.11h5.4zm-3.74-2.89h-3.09v-4.05h3.06c1.57 0 2.54.7 2.54 2s-.92 2-2.51 2m15.58-8.04h4.7v16.87h-4.7zm20.25 6.36c-2.34-.53-2.92-.89-2.92-1.67 0-.6.56-1.1 1.69-1.1a8.44 8.44 0 0 1 4.73 1.66l2.33-3.3a10.61 10.61 0 0 0-6.94-2.24c-4 0-6.53 2.29-6.53 5.42 0 3.47 2.77 4.51 6.37 5.32 2.28.53 2.84.95 2.84 1.65s-.68 1.17-1.93 1.17a8.66 8.66 0 0 1-5.47-2l-2.61 3.11a11.79 11.79 0 0 0 7.91 2.8c4.1 0 6.82-2.07 6.82-5.52 0-3.16-2.41-4.44-6.29-5.28"></path><path class="c" d="M77.13 130.51l16.36-93.24-55.77 4.39L20.3 95.67l18.48 30.27 38.35 4.57zM93.25 41.8c4.52-1.06 9.13-1.92 13.81-2.55"></path><path class="b" d="M24.12 91.46C27.82 71 57.23 50.34 92.73 41.93l3-17.15H28.3L9.58 133.7h67.08l1.62-9.26c-34.39 1.14-57.86-12.4-54.16-33"></path><path class="b" d="M94 34.13c41.63-5.63 73.18 8.41 69 31.61S121.17 112.32 79.54 118z"></path><path class="d" d="M92.39 94.76a20.56 20.56 0 1 0-20.55-20.55 20.55 20.55 0 0 0 20.55 20.55"></path><path class="b" d="M29.82 154.82h-18.3l-1.98 11.32h14.75l-.99 5.63H8.55l-1.93 10.79h18.3l-.99 5.63H0l6.88-39h23.93l-.99 5.63zm32.79 33.42h-4.9l-14.75-28.57-5.06 28.57h-5.63l6.88-39.04h5.21l14.5 28.51 5.05-28.51h5.63l-6.93 39.04zm35.81-26.95c.58-3.39-2.29-6.88-7.66-6.88-5.53 0-9.44 3.91-9.91 6.67-1.4 8 23 1.77 20.59 15.48-1.14 6.58-8.65 12.36-16.57 12.36-7.4 0-13.55-5.11-12.25-12.51h5.63c-.58 3.33 2.24 6.88 7.61 6.88 5.53 0 9.44-4 10-6.73.73-4.06-6.16-4-8.82-4.85-5.47-1.71-13.29-2-11.78-10.63 1.15-6.57 8.66-12.3 16.53-12.3 7.45 0 13.61 5.06 12.3 12.51zm35.61-6.47h-8.81l-5.95 33.42h-5.63l5.94-33.42h-9.12l.99-5.63h23.57l-.99 5.63zm23.28 33.42l-2-9.33h-15.46l-5.16 9.33h-6.1l21.84-39h4.85l7.92 39zm-6.15-29.66l-8.45 15.07h11.53z"></path></svg>