<svg xmlns="http://www.w3.org/2000/svg" xmlns:xlink="http://www.w3.org/1999/xlink" width="600" height="400" viewBox="0 0 2400 1600">
<defs>
  <clipPath id="clip330">
    <rect x="0" y="0" width="2400" height="1600"></rect>
  </clipPath>
</defs>
<path clip-path="url(#clip330)" d="M0 1600 L2400 1600 L2400 0 L0 0  Z" fill="#ffffff" fill-rule="evenodd" fill-opacity="1"></path>
<defs>
  <clipPath id="clip331">
    <rect x="480" y="0" width="1681" height="1600"></rect>
  </clipPath>
</defs>
<path clip-path="url(#clip330)" d="M205.121 1410.9 L2352.76 1410.9 L2352.76 123.472 L205.121 123.472  Z" fill="#ffffff" fill-rule="evenodd" fill-opacity="1"></path>
<defs>
  <clipPath id="clip332">
    <rect x="205" y="123" width="2149" height="1288"></rect>
  </clipPath>
</defs>
<polyline clip-path="url(#clip332)" style="stroke:#000000; stroke-linecap:round; stroke-linejoin:round; stroke-width:2; stroke-opacity:0.1; fill:none" points="2291.97,1410.9 2291.97,123.472 "></polyline>
<polyline clip-path="url(#clip332)" style="stroke:#000000; stroke-linecap:round; stroke-linejoin:round; stroke-width:2; stroke-opacity:0.1; fill:none" points="1954.3,1410.9 1954.3,123.472 "></polyline>
<polyline clip-path="url(#clip332)" style="stroke:#000000; stroke-linecap:round; stroke-linejoin:round; stroke-width:2; stroke-opacity:0.1; fill:none" points="1616.62,1410.9 1616.62,123.472 "></polyline>
<polyline clip-path="url(#clip332)" style="stroke:#000000; stroke-linecap:round; stroke-linejoin:round; stroke-width:2; stroke-opacity:0.1; fill:none" points="1278.94,1410.9 1278.94,123.472 "></polyline>
<polyline clip-path="url(#clip332)" style="stroke:#000000; stroke-linecap:round; stroke-linejoin:round; stroke-width:2; stroke-opacity:0.1; fill:none" points="941.26,1410.9 941.26,123.472 "></polyline>
<polyline clip-path="url(#clip332)" style="stroke:#000000; stroke-linecap:round; stroke-linejoin:round; stroke-width:2; stroke-opacity:0.1; fill:none" points="603.582,1410.9 603.582,123.472 "></polyline>
<polyline clip-path="url(#clip332)" style="stroke:#000000; stroke-linecap:round; stroke-linejoin:round; stroke-width:2; stroke-opacity:0.1; fill:none" points="265.903,1410.9 265.903,123.472 "></polyline>
<polyline clip-path="url(#clip330)" style="stroke:#000000; stroke-linecap:round; stroke-linejoin:round; stroke-width:4; stroke-opacity:1; fill:none" points="205.121,1410.9 2352.76,1410.9 "></polyline>
<polyline clip-path="url(#clip330)" style="stroke:#000000; stroke-linecap:round; stroke-linejoin:round; stroke-width:4; stroke-opacity:1; fill:none" points="2291.97,1410.9 2291.97,1392 "></polyline>
<polyline clip-path="url(#clip330)" style="stroke:#000000; stroke-linecap:round; stroke-linejoin:round; stroke-width:4; stroke-opacity:1; fill:none" points="1954.3,1410.9 1954.3,1392 "></polyline>
<polyline clip-path="url(#clip330)" style="stroke:#000000; stroke-linecap:round; stroke-linejoin:round; stroke-width:4; stroke-opacity:1; fill:none" points="1616.62,1410.9 1616.62,1392 "></polyline>
<polyline clip-path="url(#clip330)" style="stroke:#000000; stroke-linecap:round; stroke-linejoin:round; stroke-width:4; stroke-opacity:1; fill:none" points="1278.94,1410.9 1278.94,1392 "></polyline>
<polyline clip-path="url(#clip330)" style="stroke:#000000; stroke-linecap:round; stroke-linejoin:round; stroke-width:4; stroke-opacity:1; fill:none" points="941.26,1410.9 941.26,1392 "></polyline>
<polyline clip-path="url(#clip330)" style="stroke:#000000; stroke-linecap:round; stroke-linejoin:round; stroke-width:4; stroke-opacity:1; fill:none" points="603.582,1410.9 603.582,1392 "></polyline>
<polyline clip-path="url(#clip330)" style="stroke:#000000; stroke-linecap:round; stroke-linejoin:round; stroke-width:4; stroke-opacity:1; fill:none" points="265.903,1410.9 265.903,1392 "></polyline>
<path clip-path="url(#clip330)" d="M2242.24 1485.02 L2249.88 1485.02 L2249.88 1458.66 L2241.57 1460.32 L2241.57 1456.06 L2249.83 1454.4 L2254.51 1454.4 L2254.51 1485.02 L2262.15 1485.02 L2262.15 1488.96 L2242.24 1488.96 L2242.24 1485.02 Z" fill="#000000" fill-rule="nonzero" fill-opacity="1"></path><path clip-path="url(#clip330)" d="M2281.59 1457.48 Q2277.98 1457.48 2276.15 1461.04 Q2274.35 1464.58 2274.35 1471.71 Q2274.35 1478.82 2276.15 1482.38 Q2277.98 1485.92 2281.59 1485.92 Q2285.23 1485.92 2287.03 1482.38 Q2288.86 1478.82 2288.86 1471.71 Q2288.86 1464.58 2287.03 1461.04 Q2285.23 1457.48 2281.59 1457.48 M2281.59 1453.77 Q2287.4 1453.77 2290.46 1458.38 Q2293.54 1462.96 2293.54 1471.71 Q2293.54 1480.44 2290.46 1485.04 Q2287.4 1489.63 2281.59 1489.63 Q2275.78 1489.63 2272.7 1485.04 Q2269.65 1480.44 2269.65 1471.71 Q2269.65 1462.96 2272.7 1458.38 Q2275.78 1453.77 2281.59 1453.77 Z" fill="#000000" fill-rule="nonzero" fill-opacity="1"></path><path clip-path="url(#clip330)" d="M2293.54 1447.87 L2317.65 1447.87 L2317.65 1451.07 L2293.54 1451.07 L2293.54 1447.87 Z" fill="#000000" fill-rule="nonzero" fill-opacity="1"></path><path clip-path="url(#clip330)" d="M2329.12 1458.35 L2342.38 1458.35 L2342.38 1461.55 L2324.55 1461.55 L2324.55 1458.35 Q2326.71 1456.11 2330.44 1452.35 Q2334.18 1448.57 2335.14 1447.48 Q2336.96 1445.43 2337.68 1444.02 Q2338.41 1442.59 2338.41 1441.22 Q2338.41 1438.98 2336.83 1437.57 Q2335.27 1436.16 2332.75 1436.16 Q2330.96 1436.16 2328.97 1436.78 Q2326.99 1437.4 2324.74 1438.66 L2324.74 1434.82 Q2327.03 1433.9 2329.03 1433.43 Q2331.02 1432.96 2332.67 1432.96 Q2337.04 1432.96 2339.63 1435.14 Q2342.23 1437.32 2342.23 1440.97 Q2342.23 1442.7 2341.57 1444.26 Q2340.93 1445.8 2339.22 1447.91 Q2338.75 1448.46 2336.23 1451.07 Q2333.71 1453.67 2329.12 1458.35 Z" fill="#000000" fill-rule="nonzero" fill-opacity="1"></path><path clip-path="url(#clip330)" d="M1904.18 1485.02 L1911.81 1485.02 L1911.81 1458.66 L1903.5 1460.32 L1903.5 1456.06 L1911.77 1454.4 L1916.44 1454.4 L1916.44 1485.02 L1924.08 1485.02 L1924.08 1488.96 L1904.18 1488.96 L1904.18 1485.02 Z" fill="#000000" fill-rule="nonzero" fill-opacity="1"></path><path clip-path="url(#clip330)" d="M1943.53 1457.48 Q1939.92 1457.48 1938.09 1461.04 Q1936.28 1464.58 1936.28 1471.71 Q1936.28 1478.82 1938.09 1482.38 Q1939.92 1485.92 1943.53 1485.92 Q1947.16 1485.92 1948.97 1482.38 Q1950.8 1478.82 1950.8 1471.71 Q1950.8 1464.58 1948.97 1461.04 Q1947.16 1457.48 1943.53 1457.48 M1943.53 1453.77 Q1949.34 1453.77 1952.39 1458.38 Q1955.47 1462.96 1955.47 1471.71 Q1955.47 1480.44 1952.39 1485.04 Q1949.34 1489.63 1943.53 1489.63 Q1937.72 1489.63 1934.64 1485.04 Q1931.58 1480.44 1931.58 1471.71 Q1931.58 1462.96 1934.64 1458.38 Q1937.72 1453.77 1943.53 1453.77 Z" fill="#000000" fill-rule="nonzero" fill-opacity="1"></path><path clip-path="url(#clip330)" d="M1955.47 1447.87 L1979.58 1447.87 L1979.58 1451.07 L1955.47 1451.07 L1955.47 1447.87 Z" fill="#000000" fill-rule="nonzero" fill-opacity="1"></path><path clip-path="url(#clip330)" d="M1999.29 1446.41 Q2002.02 1446.99 2003.54 1448.83 Q2005.09 1450.68 2005.09 1453.38 Q2005.09 1457.54 2002.23 1459.82 Q1999.37 1462.09 1994.1 1462.09 Q1992.33 1462.09 1990.45 1461.73 Q1988.59 1461.4 1986.6 1460.7 L1986.6 1457.03 Q1988.18 1457.95 1990.06 1458.42 Q1991.94 1458.89 1993.99 1458.89 Q1997.56 1458.89 1999.43 1457.48 Q2001.31 1456.07 2001.31 1453.38 Q2001.31 1450.9 1999.56 1449.51 Q1997.83 1448.1 1994.72 1448.1 L1991.45 1448.1 L1991.45 1444.98 L1994.87 1444.98 Q1997.68 1444.98 1999.16 1443.87 Q2000.65 1442.74 2000.65 1440.63 Q2000.65 1438.47 1999.11 1437.32 Q1997.58 1436.16 1994.72 1436.16 Q1993.16 1436.16 1991.38 1436.49 Q1989.59 1436.83 1987.44 1437.55 L1987.44 1434.16 Q1989.61 1433.56 1991.49 1433.26 Q1993.39 1432.96 1995.06 1432.96 Q1999.39 1432.96 2001.91 1434.93 Q2004.43 1436.89 2004.43 1440.24 Q2004.43 1442.57 2003.09 1444.19 Q2001.76 1445.79 1999.29 1446.41 Z" fill="#000000" fill-rule="nonzero" fill-opacity="1"></path><path clip-path="url(#clip330)" d="M1566.04 1485.02 L1573.68 1485.02 L1573.68 1458.66 L1565.36 1460.32 L1565.36 1456.06 L1573.63 1454.4 L1578.3 1454.4 L1578.3 1485.02 L1585.94 1485.02 L1585.94 1488.96 L1566.04 1488.96 L1566.04 1485.02 Z" fill="#000000" fill-rule="nonzero" fill-opacity="1"></path><path clip-path="url(#clip330)" d="M1605.39 1457.48 Q1601.78 1457.48 1599.95 1461.04 Q1598.14 1464.58 1598.14 1471.71 Q1598.14 1478.82 1599.95 1482.38 Q1601.78 1485.92 1605.39 1485.92 Q1609.02 1485.92 1610.83 1482.38 Q1612.66 1478.82 1612.66 1471.71 Q1612.66 1464.58 1610.83 1461.04 Q1609.02 1457.48 1605.39 1457.48 M1605.39 1453.77 Q1611.2 1453.77 1614.25 1458.38 Q1617.33 1462.96 1617.33 1471.71 Q1617.33 1480.44 1614.25 1485.04 Q1611.2 1489.63 1605.39 1489.63 Q1599.58 1489.63 1596.5 1485.04 Q1593.44 1480.44 1593.44 1471.71 Q1593.44 1462.96 1596.5 1458.38 Q1599.58 1453.77 1605.39 1453.77 Z" fill="#000000" fill-rule="nonzero" fill-opacity="1"></path><path clip-path="url(#clip330)" d="M1617.33 1447.87 L1641.44 1447.87 L1641.44 1451.07 L1617.33 1451.07 L1617.33 1447.87 Z" fill="#000000" fill-rule="nonzero" fill-opacity="1"></path><path clip-path="url(#clip330)" d="M1660.08 1436.78 L1650.49 1451.77 L1660.08 1451.77 L1660.08 1436.78 M1659.09 1433.47 L1663.86 1433.47 L1663.86 1451.77 L1667.87 1451.77 L1667.87 1454.93 L1663.86 1454.93 L1663.86 1461.55 L1660.08 1461.55 L1660.08 1454.93 L1647.41 1454.93 L1647.41 1451.26 L1659.09 1433.47 Z" fill="#000000" fill-rule="nonzero" fill-opacity="1"></path><path clip-path="url(#clip330)" d="M1228.96 1485.02 L1236.6 1485.02 L1236.6 1458.66 L1228.29 1460.32 L1228.29 1456.06 L1236.55 1454.4 L1241.23 1454.4 L1241.23 1485.02 L1248.87 1485.02 L1248.87 1488.96 L1228.96 1488.96 L1228.96 1485.02 Z" fill="#000000" fill-rule="nonzero" fill-opacity="1"></path><path clip-path="url(#clip330)" d="M1268.31 1457.48 Q1264.7 1457.48 1262.87 1461.04 Q1261.07 1464.58 1261.07 1471.71 Q1261.07 1478.82 1262.87 1482.38 Q1264.7 1485.92 1268.31 1485.92 Q1271.95 1485.92 1273.75 1482.38 Q1275.58 1478.82 1275.58 1471.71 Q1275.58 1464.58 1273.75 1461.04 Q1271.95 1457.48 1268.31 1457.48 M1268.31 1453.77 Q1274.12 1453.77 1277.18 1458.38 Q1280.26 1462.96 1280.26 1471.71 Q1280.26 1480.44 1277.18 1485.04 Q1274.12 1489.63 1268.31 1489.63 Q1262.5 1489.63 1259.42 1485.04 Q1256.37 1480.44 1256.37 1471.71 Q1256.37 1462.96 1259.42 1458.38 Q1262.5 1453.77 1268.31 1453.77 Z" fill="#000000" fill-rule="nonzero" fill-opacity="1"></path><path clip-path="url(#clip330)" d="M1280.26 1447.87 L1304.37 1447.87 L1304.37 1451.07 L1280.26 1451.07 L1280.26 1447.87 Z" fill="#000000" fill-rule="nonzero" fill-opacity="1"></path><path clip-path="url(#clip330)" d="M1312.61 1433.47 L1327.52 1433.47 L1327.52 1436.66 L1316.08 1436.66 L1316.08 1443.55 Q1316.91 1443.27 1317.74 1443.13 Q1318.57 1442.98 1319.39 1442.98 Q1324.1 1442.98 1326.84 1445.56 Q1329.59 1448.14 1329.59 1452.54 Q1329.59 1457.07 1326.77 1459.59 Q1323.95 1462.09 1318.81 1462.09 Q1317.04 1462.09 1315.2 1461.79 Q1313.38 1461.49 1311.42 1460.89 L1311.42 1457.07 Q1313.11 1457.99 1314.92 1458.44 Q1316.72 1458.89 1318.74 1458.89 Q1321.99 1458.89 1323.89 1457.18 Q1325.79 1455.47 1325.79 1452.54 Q1325.79 1449.6 1323.89 1447.89 Q1321.99 1446.18 1318.74 1446.18 Q1317.21 1446.18 1315.69 1446.52 Q1314.18 1446.86 1312.61 1447.57 L1312.61 1433.47 Z" fill="#000000" fill-rule="nonzero" fill-opacity="1"></path><path clip-path="url(#clip330)" d="M890.811 1485.02 L898.45 1485.02 L898.45 1458.66 L890.14 1460.32 L890.14 1456.06 L898.404 1454.4 L903.079 1454.4 L903.079 1485.02 L910.718 1485.02 L910.718 1488.96 L890.811 1488.96 L890.811 1485.02 Z" fill="#000000" fill-rule="nonzero" fill-opacity="1"></path><path clip-path="url(#clip330)" d="M930.163 1457.48 Q926.552 1457.48 924.723 1461.04 Q922.917 1464.58 922.917 1471.71 Q922.917 1478.82 924.723 1482.38 Q926.552 1485.92 930.163 1485.92 Q933.797 1485.92 935.602 1482.38 Q937.431 1478.82 937.431 1471.71 Q937.431 1464.58 935.602 1461.04 Q933.797 1457.48 930.163 1457.48 M930.163 1453.77 Q935.973 1453.77 939.028 1458.38 Q942.107 1462.96 942.107 1471.71 Q942.107 1480.44 939.028 1485.04 Q935.973 1489.63 930.163 1489.63 Q924.353 1489.63 921.274 1485.04 Q918.218 1480.44 918.218 1471.71 Q918.218 1462.96 921.274 1458.38 Q924.353 1453.77 930.163 1453.77 Z" fill="#000000" fill-rule="nonzero" fill-opacity="1"></path><path clip-path="url(#clip330)" d="M942.107 1447.87 L966.219 1447.87 L966.219 1451.07 L942.107 1451.07 L942.107 1447.87 Z" fill="#000000" fill-rule="nonzero" fill-opacity="1"></path><path clip-path="url(#clip330)" d="M983.014 1445.99 Q980.456 1445.99 978.951 1447.74 Q977.466 1449.49 977.466 1452.54 Q977.466 1455.57 978.951 1457.33 Q980.456 1459.08 983.014 1459.08 Q985.572 1459.08 987.058 1457.33 Q988.562 1455.57 988.562 1452.54 Q988.562 1449.49 987.058 1447.74 Q985.572 1445.99 983.014 1445.99 M990.556 1434.09 L990.556 1437.55 Q989.126 1436.87 987.659 1436.51 Q986.211 1436.16 984.782 1436.16 Q981.02 1436.16 979.027 1438.69 Q977.052 1441.23 976.77 1446.37 Q977.879 1444.73 979.553 1443.87 Q981.227 1442.98 983.24 1442.98 Q987.471 1442.98 989.916 1445.56 Q992.38 1448.12 992.38 1452.54 Q992.38 1456.86 989.822 1459.48 Q987.265 1462.09 983.014 1462.09 Q978.143 1462.09 975.566 1458.37 Q972.989 1454.62 972.989 1447.53 Q972.989 1440.88 976.149 1436.93 Q979.309 1432.96 984.631 1432.96 Q986.061 1432.96 987.509 1433.24 Q988.976 1433.52 990.556 1434.09 Z" fill="#000000" fill-rule="nonzero" fill-opacity="1"></path><path clip-path="url(#clip330)" d="M553.565 1485.02 L561.204 1485.02 L561.204 1458.66 L552.894 1460.32 L552.894 1456.06 L561.158 1454.4 L565.834 1454.4 L565.834 1485.02 L573.472 1485.02 L573.472 1488.96 L553.565 1488.96 L553.565 1485.02 Z" fill="#000000" fill-rule="nonzero" fill-opacity="1"></path><path clip-path="url(#clip330)" d="M592.917 1457.48 Q589.306 1457.48 587.477 1461.04 Q585.671 1464.58 585.671 1471.71 Q585.671 1478.82 587.477 1482.38 Q589.306 1485.92 592.917 1485.92 Q596.551 1485.92 598.357 1482.38 Q600.185 1478.82 600.185 1471.71 Q600.185 1464.58 598.357 1461.04 Q596.551 1457.48 592.917 1457.48 M592.917 1453.77 Q598.727 1453.77 601.783 1458.38 Q604.861 1462.96 604.861 1471.71 Q604.861 1480.44 601.783 1485.04 Q598.727 1489.63 592.917 1489.63 Q587.107 1489.63 584.028 1485.04 Q580.972 1480.44 580.972 1471.71 Q580.972 1462.96 584.028 1458.38 Q587.107 1453.77 592.917 1453.77 Z" fill="#000000" fill-rule="nonzero" fill-opacity="1"></path><path clip-path="url(#clip330)" d="M604.861 1447.87 L628.973 1447.87 L628.973 1451.07 L604.861 1451.07 L604.861 1447.87 Z" fill="#000000" fill-rule="nonzero" fill-opacity="1"></path><path clip-path="url(#clip330)" d="M636.214 1433.47 L654.269 1433.47 L654.269 1435.08 L644.075 1461.55 L640.107 1461.55 L649.699 1436.66 L636.214 1436.66 L636.214 1433.47 Z" fill="#000000" fill-rule="nonzero" fill-opacity="1"></path><path clip-path="url(#clip330)" d="M215.558 1485.02 L223.196 1485.02 L223.196 1458.66 L214.886 1460.32 L214.886 1456.06 L223.15 1454.4 L227.826 1454.4 L227.826 1485.02 L235.465 1485.02 L235.465 1488.96 L215.558 1488.96 L215.558 1485.02 Z" fill="#000000" fill-rule="nonzero" fill-opacity="1"></path><path clip-path="url(#clip330)" d="M254.909 1457.48 Q251.298 1457.48 249.469 1461.04 Q247.664 1464.58 247.664 1471.71 Q247.664 1478.82 249.469 1482.38 Q251.298 1485.92 254.909 1485.92 Q258.543 1485.92 260.349 1482.38 Q262.178 1478.82 262.178 1471.71 Q262.178 1464.58 260.349 1461.04 Q258.543 1457.48 254.909 1457.48 M254.909 1453.77 Q260.719 1453.77 263.775 1458.38 Q266.854 1462.96 266.854 1471.71 Q266.854 1480.44 263.775 1485.04 Q260.719 1489.63 254.909 1489.63 Q249.099 1489.63 246.02 1485.04 Q242.965 1480.44 242.965 1471.71 Q242.965 1462.96 246.02 1458.38 Q249.099 1453.77 254.909 1453.77 Z" fill="#000000" fill-rule="nonzero" fill-opacity="1"></path><path clip-path="url(#clip330)" d="M266.854 1447.87 L290.965 1447.87 L290.965 1451.07 L266.854 1451.07 L266.854 1447.87 Z" fill="#000000" fill-rule="nonzero" fill-opacity="1"></path><path clip-path="url(#clip330)" d="M307.29 1448.21 Q304.582 1448.21 303.021 1449.66 Q301.479 1451.11 301.479 1453.65 Q301.479 1456.19 303.021 1457.63 Q304.582 1459.08 307.29 1459.08 Q309.999 1459.08 311.56 1457.63 Q313.121 1456.17 313.121 1453.65 Q313.121 1451.11 311.56 1449.66 Q310.017 1448.21 307.29 1448.21 M303.491 1446.59 Q301.046 1445.99 299.673 1444.32 Q298.319 1442.64 298.319 1440.24 Q298.319 1436.87 300.708 1434.91 Q303.115 1432.96 307.29 1432.96 Q311.484 1432.96 313.873 1434.91 Q316.262 1436.87 316.262 1440.24 Q316.262 1442.64 314.889 1444.32 Q313.534 1445.99 311.108 1446.59 Q313.854 1447.23 315.378 1449.1 Q316.92 1450.96 316.92 1453.65 Q316.92 1457.73 314.418 1459.91 Q311.936 1462.09 307.29 1462.09 Q302.645 1462.09 300.143 1459.91 Q297.661 1457.73 297.661 1453.65 Q297.661 1450.96 299.203 1449.1 Q300.745 1447.23 303.491 1446.59 M302.099 1440.59 Q302.099 1442.78 303.454 1444 Q304.826 1445.22 307.29 1445.22 Q309.735 1445.22 311.108 1444 Q312.5 1442.78 312.5 1440.59 Q312.5 1438.41 311.108 1437.19 Q309.735 1435.97 307.29 1435.97 Q304.826 1435.97 303.454 1437.19 Q302.099 1438.41 302.099 1440.59 Z" fill="#000000" fill-rule="nonzero" fill-opacity="1"></path><path clip-path="url(#clip330)" d="M990.476 1531.03 Q983.474 1531.03 979.336 1536.25 Q975.231 1541.47 975.231 1550.47 Q975.231 1559.45 979.336 1564.67 Q983.474 1569.89 990.476 1569.89 Q997.479 1569.89 1001.55 1564.67 Q1005.66 1559.45 1005.66 1550.47 Q1005.66 1541.47 1001.55 1536.25 Q997.479 1531.03 990.476 1531.03 M990.476 1525.81 Q1000.47 1525.81 1006.45 1532.52 Q1012.44 1539.21 1012.44 1550.47 Q1012.44 1561.71 1006.45 1568.42 Q1000.47 1575.11 990.476 1575.11 Q980.45 1575.11 974.435 1568.42 Q968.451 1561.74 968.451 1550.47 Q968.451 1539.21 974.435 1532.52 Q980.45 1525.81 990.476 1525.81 Z" fill="#000000" fill-rule="nonzero" fill-opacity="1"></path><path clip-path="url(#clip330)" d="M1018.04 1538.54 L1024.25 1538.54 L1035.39 1568.46 L1046.53 1538.54 L1052.73 1538.54 L1039.37 1574.19 L1031.41 1574.19 L1018.04 1538.54 Z" fill="#000000" fill-rule="nonzero" fill-opacity="1"></path><path clip-path="url(#clip330)" d="M1091.31 1554.9 L1091.31 1557.76 L1064.38 1557.76 Q1064.76 1563.81 1068.01 1566.99 Q1071.29 1570.14 1077.11 1570.14 Q1080.49 1570.14 1083.64 1569.32 Q1086.82 1568.49 1089.94 1566.83 L1089.94 1572.37 Q1086.79 1573.71 1083.48 1574.41 Q1080.17 1575.11 1076.76 1575.11 Q1068.23 1575.11 1063.24 1570.14 Q1058.27 1565.18 1058.27 1556.71 Q1058.27 1547.96 1062.98 1542.83 Q1067.72 1537.68 1075.75 1537.68 Q1082.94 1537.68 1087.11 1542.33 Q1091.31 1546.94 1091.31 1554.9 M1085.45 1553.18 Q1085.39 1548.37 1082.75 1545.51 Q1080.14 1542.64 1075.81 1542.64 Q1070.91 1542.64 1067.95 1545.41 Q1065.02 1548.18 1064.57 1553.21 L1085.45 1553.18 Z" fill="#000000" fill-rule="nonzero" fill-opacity="1"></path><path clip-path="url(#clip330)" d="M1121.58 1544.01 Q1120.59 1543.44 1119.41 1543.18 Q1118.27 1542.9 1116.87 1542.9 Q1111.9 1542.9 1109.23 1546.14 Q1106.59 1549.36 1106.59 1555.41 L1106.59 1574.19 L1100.7 1574.19 L1100.7 1538.54 L1106.59 1538.54 L1106.59 1544.08 Q1108.43 1540.83 1111.39 1539.27 Q1114.35 1537.68 1118.59 1537.68 Q1119.19 1537.68 1119.92 1537.77 Q1120.66 1537.84 1121.55 1538 L1121.58 1544.01 Z" fill="#000000" fill-rule="nonzero" fill-opacity="1"></path><path clip-path="url(#clip330)" d="M1143.92 1556.27 Q1136.82 1556.27 1134.09 1557.89 Q1131.35 1559.51 1131.35 1563.43 Q1131.35 1566.55 1133.39 1568.39 Q1135.46 1570.21 1138.99 1570.21 Q1143.86 1570.21 1146.79 1566.77 Q1149.75 1563.3 1149.75 1557.57 L1149.75 1556.27 L1143.92 1556.27 M1155.6 1553.85 L1155.6 1574.19 L1149.75 1574.19 L1149.75 1568.77 Q1147.74 1572.02 1144.75 1573.58 Q1141.76 1575.11 1137.43 1575.11 Q1131.95 1575.11 1128.71 1572.05 Q1125.49 1568.97 1125.49 1563.81 Q1125.49 1557.79 1129.5 1554.74 Q1133.55 1551.68 1141.53 1551.68 L1149.75 1551.68 L1149.75 1551.11 Q1149.75 1547.07 1147.07 1544.87 Q1144.43 1542.64 1139.62 1542.64 Q1136.57 1542.64 1133.67 1543.38 Q1130.78 1544.11 1128.1 1545.57 L1128.1 1540.16 Q1131.32 1538.92 1134.34 1538.31 Q1137.37 1537.68 1140.23 1537.68 Q1147.96 1537.68 1151.78 1541.69 Q1155.6 1545.7 1155.6 1553.85 Z" fill="#000000" fill-rule="nonzero" fill-opacity="1"></path><path clip-path="url(#clip330)" d="M1167.67 1524.66 L1173.52 1524.66 L1173.52 1574.19 L1167.67 1574.19 L1167.67 1524.66 Z" fill="#000000" fill-rule="nonzero" fill-opacity="1"></path><path clip-path="url(#clip330)" d="M1185.78 1524.66 L1191.63 1524.66 L1191.63 1574.19 L1185.78 1574.19 L1185.78 1524.66 Z" fill="#000000" fill-rule="nonzero" fill-opacity="1"></path><path clip-path="url(#clip330)" d="M1218.27 1526.67 L1258.47 1526.67 L1258.47 1532.08 L1241.6 1532.08 L1241.6 1574.19 L1235.14 1574.19 L1235.14 1532.08 L1218.27 1532.08 L1218.27 1526.67 Z" fill="#000000" fill-rule="nonzero" fill-opacity="1"></path><path clip-path="url(#clip330)" d="M1267.16 1542.64 Q1262.45 1542.64 1259.71 1546.34 Q1256.98 1550 1256.98 1556.39 Q1256.98 1562.79 1259.68 1566.48 Q1262.42 1570.14 1267.16 1570.14 Q1271.84 1570.14 1274.58 1566.45 Q1277.32 1562.76 1277.32 1556.39 Q1277.32 1550.06 1274.58 1546.37 Q1271.84 1542.64 1267.16 1542.64 M1267.16 1537.68 Q1274.8 1537.68 1279.16 1542.64 Q1283.52 1547.61 1283.52 1556.39 Q1283.52 1565.15 1279.16 1570.14 Q1274.8 1575.11 1267.16 1575.11 Q1259.49 1575.11 1255.13 1570.14 Q1250.8 1565.15 1250.8 1556.39 Q1250.8 1547.61 1255.13 1542.64 Q1259.49 1537.68 1267.16 1537.68 Z" fill="#000000" fill-rule="nonzero" fill-opacity="1"></path><path clip-path="url(#clip330)" d="M1293.23 1524.66 L1299.09 1524.66 L1299.09 1574.19 L1293.23 1574.19 L1293.23 1524.66 Z" fill="#000000" fill-rule="nonzero" fill-opacity="1"></path><path clip-path="url(#clip330)" d="M1341.83 1554.9 L1341.83 1557.76 L1314.9 1557.76 Q1315.29 1563.81 1318.53 1566.99 Q1321.81 1570.14 1327.64 1570.14 Q1331.01 1570.14 1334.16 1569.32 Q1337.34 1568.49 1340.46 1566.83 L1340.46 1572.37 Q1337.31 1573.71 1334 1574.41 Q1330.69 1575.11 1327.29 1575.11 Q1318.76 1575.11 1313.76 1570.14 Q1308.79 1565.18 1308.79 1556.71 Q1308.79 1547.96 1313.5 1542.83 Q1318.25 1537.68 1326.27 1537.68 Q1333.46 1537.68 1337.63 1542.33 Q1341.83 1546.94 1341.83 1554.9 M1335.98 1553.18 Q1335.91 1548.37 1333.27 1545.51 Q1330.66 1542.64 1326.33 1542.64 Q1321.43 1542.64 1318.47 1545.41 Q1315.54 1548.18 1315.1 1553.21 L1335.98 1553.18 Z" fill="#000000" fill-rule="nonzero" fill-opacity="1"></path><path clip-path="url(#clip330)" d="M1372.1 1544.01 Q1371.11 1543.44 1369.94 1543.18 Q1368.79 1542.9 1367.39 1542.9 Q1362.42 1542.9 1359.75 1546.14 Q1357.11 1549.36 1357.11 1555.41 L1357.11 1574.19 L1351.22 1574.19 L1351.22 1538.54 L1357.11 1538.54 L1357.11 1544.08 Q1358.96 1540.83 1361.92 1539.27 Q1364.88 1537.68 1369.11 1537.68 Q1369.71 1537.68 1370.45 1537.77 Q1371.18 1537.84 1372.07 1538 L1372.1 1544.01 Z" fill="#000000" fill-rule="nonzero" fill-opacity="1"></path><path clip-path="url(#clip330)" d="M1394.44 1556.27 Q1387.35 1556.27 1384.61 1557.89 Q1381.87 1559.51 1381.87 1563.43 Q1381.87 1566.55 1383.91 1568.39 Q1385.98 1570.21 1389.51 1570.21 Q1394.38 1570.21 1397.31 1566.77 Q1400.27 1563.3 1400.27 1557.57 L1400.27 1556.27 L1394.44 1556.27 M1406.13 1553.85 L1406.13 1574.19 L1400.27 1574.19 L1400.27 1568.77 Q1398.26 1572.02 1395.27 1573.58 Q1392.28 1575.11 1387.95 1575.11 Q1382.48 1575.11 1379.23 1572.05 Q1376.02 1568.97 1376.02 1563.81 Q1376.02 1557.79 1380.03 1554.74 Q1384.07 1551.68 1392.06 1551.68 L1400.27 1551.68 L1400.27 1551.11 Q1400.27 1547.07 1397.6 1544.87 Q1394.95 1542.64 1390.15 1542.64 Q1387.09 1542.64 1384.2 1543.38 Q1381.3 1544.11 1378.63 1545.57 L1378.63 1540.16 Q1381.84 1538.92 1384.86 1538.31 Q1387.89 1537.68 1390.75 1537.68 Q1398.49 1537.68 1402.31 1541.69 Q1406.13 1545.7 1406.13 1553.85 Z" fill="#000000" fill-rule="nonzero" fill-opacity="1"></path><path clip-path="url(#clip330)" d="M1447.82 1552.67 L1447.82 1574.19 L1441.96 1574.19 L1441.96 1552.86 Q1441.96 1547.8 1439.99 1545.29 Q1438.02 1542.77 1434.07 1542.77 Q1429.33 1542.77 1426.59 1545.79 Q1423.85 1548.82 1423.85 1554.04 L1423.85 1574.19 L1417.97 1574.19 L1417.97 1538.54 L1423.85 1538.54 L1423.85 1544.08 Q1425.95 1540.86 1428.79 1539.27 Q1431.65 1537.68 1435.38 1537.68 Q1441.52 1537.68 1444.67 1541.5 Q1447.82 1545.29 1447.82 1552.67 Z" fill="#000000" fill-rule="nonzero" fill-opacity="1"></path><path clip-path="url(#clip330)" d="M1485.16 1539.91 L1485.16 1545.38 Q1482.67 1544.01 1480.16 1543.34 Q1477.68 1542.64 1475.13 1542.64 Q1469.43 1542.64 1466.28 1546.27 Q1463.13 1549.87 1463.13 1556.39 Q1463.13 1562.92 1466.28 1566.55 Q1469.43 1570.14 1475.13 1570.14 Q1477.68 1570.14 1480.16 1569.47 Q1482.67 1568.77 1485.16 1567.41 L1485.16 1572.82 Q1482.7 1573.96 1480.06 1574.54 Q1477.45 1575.11 1474.49 1575.11 Q1466.44 1575.11 1461.7 1570.05 Q1456.96 1564.99 1456.96 1556.39 Q1456.96 1547.67 1461.73 1542.68 Q1466.54 1537.68 1474.87 1537.68 Q1477.58 1537.68 1480.16 1538.25 Q1482.74 1538.79 1485.16 1539.91 Z" fill="#000000" fill-rule="nonzero" fill-opacity="1"></path><path clip-path="url(#clip330)" d="M1525.83 1554.9 L1525.83 1557.76 L1498.91 1557.76 Q1499.29 1563.81 1502.53 1566.99 Q1505.81 1570.14 1511.64 1570.14 Q1515.01 1570.14 1518.16 1569.32 Q1521.34 1568.49 1524.46 1566.83 L1524.46 1572.37 Q1521.31 1573.71 1518 1574.41 Q1514.69 1575.11 1511.29 1575.11 Q1502.76 1575.11 1497.76 1570.14 Q1492.79 1565.18 1492.79 1556.71 Q1492.79 1547.96 1497.5 1542.83 Q1502.25 1537.68 1510.27 1537.68 Q1517.46 1537.68 1521.63 1542.33 Q1525.83 1546.94 1525.83 1554.9 M1519.98 1553.18 Q1519.91 1548.37 1517.27 1545.51 Q1514.66 1542.64 1510.33 1542.64 Q1505.43 1542.64 1502.47 1545.41 Q1499.54 1548.18 1499.1 1553.21 L1519.98 1553.18 Z" fill="#000000" fill-rule="nonzero" fill-opacity="1"></path><path clip-path="url(#clip330)" d="M1569.98 1543.18 Q1565.14 1543.18 1562.53 1546.69 Q1559.79 1550.35 1559.79 1556.39 Q1559.79 1562.79 1562.5 1566.48 Q1565.24 1570.14 1569.98 1570.14 Q1574.66 1570.14 1577.39 1566.45 Q1580.13 1562.76 1580.13 1556.39 Q1580.13 1550.57 1577.39 1546.69 Q1574.88 1543.18 1569.98 1543.18 M1569.98 1538.54 L1589.43 1538.54 L1589.43 1544.39 L1582.87 1544.39 Q1586.34 1549.36 1586.34 1556.39 Q1586.34 1565.15 1581.98 1570.11 Q1577.62 1575.11 1569.98 1575.11 Q1562.31 1575.11 1557.98 1570.11 Q1553.62 1565.15 1553.62 1556.39 Q1553.62 1547.58 1557.98 1542.64 Q1561.58 1538.54 1569.98 1538.54 Z" fill="#000000" fill-rule="nonzero" fill-opacity="1"></path><polyline clip-path="url(#clip332)" style="stroke:#000000; stroke-linecap:round; stroke-linejoin:round; stroke-width:2; stroke-opacity:0.1; fill:none" points="205.121,1329.48 2352.76,1329.48 "></polyline>
<polyline clip-path="url(#clip332)" style="stroke:#000000; stroke-linecap:round; stroke-linejoin:round; stroke-width:2; stroke-opacity:0.1; fill:none" points="205.121,1104.56 2352.76,1104.56 "></polyline>
<polyline clip-path="url(#clip332)" style="stroke:#000000; stroke-linecap:round; stroke-linejoin:round; stroke-width:2; stroke-opacity:0.1; fill:none" points="205.121,879.643 2352.76,879.643 "></polyline>
<polyline clip-path="url(#clip332)" style="stroke:#000000; stroke-linecap:round; stroke-linejoin:round; stroke-width:2; stroke-opacity:0.1; fill:none" points="205.121,654.726 2352.76,654.726 "></polyline>
<polyline clip-path="url(#clip332)" style="stroke:#000000; stroke-linecap:round; stroke-linejoin:round; stroke-width:2; stroke-opacity:0.1; fill:none" points="205.121,429.809 2352.76,429.809 "></polyline>
<polyline clip-path="url(#clip332)" style="stroke:#000000; stroke-linecap:round; stroke-linejoin:round; stroke-width:2; stroke-opacity:0.1; fill:none" points="205.121,204.892 2352.76,204.892 "></polyline>
<polyline clip-path="url(#clip330)" style="stroke:#000000; stroke-linecap:round; stroke-linejoin:round; stroke-width:4; stroke-opacity:1; fill:none" points="205.121,1410.9 205.121,123.472 "></polyline>
<polyline clip-path="url(#clip330)" style="stroke:#000000; stroke-linecap:round; stroke-linejoin:round; stroke-width:4; stroke-opacity:1; fill:none" points="205.121,1329.48 224.019,1329.48 "></polyline>
<polyline clip-path="url(#clip330)" style="stroke:#000000; stroke-linecap:round; stroke-linejoin:round; stroke-width:4; stroke-opacity:1; fill:none" points="205.121,1104.56 224.019,1104.56 "></polyline>
<polyline clip-path="url(#clip330)" style="stroke:#000000; stroke-linecap:round; stroke-linejoin:round; stroke-width:4; stroke-opacity:1; fill:none" points="205.121,879.643 224.019,879.643 "></polyline>
<polyline clip-path="url(#clip330)" style="stroke:#000000; stroke-linecap:round; stroke-linejoin:round; stroke-width:4; stroke-opacity:1; fill:none" points="205.121,654.726 224.019,654.726 "></polyline>
<polyline clip-path="url(#clip330)" style="stroke:#000000; stroke-linecap:round; stroke-linejoin:round; stroke-width:4; stroke-opacity:1; fill:none" points="205.121,429.809 224.019,429.809 "></polyline>
<polyline clip-path="url(#clip330)" style="stroke:#000000; stroke-linecap:round; stroke-linejoin:round; stroke-width:4; stroke-opacity:1; fill:none" points="205.121,204.892 224.019,204.892 "></polyline>
<path clip-path="url(#clip330)" d="M132.177 1328.12 Q135.533 1328.84 137.408 1331.11 Q139.306 1333.38 139.306 1336.71 Q139.306 1341.83 135.788 1344.63 Q132.269 1347.43 125.788 1347.43 Q123.612 1347.43 121.297 1346.99 Q119.006 1346.57 116.552 1345.72 L116.552 1341.2 Q118.496 1342.34 120.811 1342.91 Q123.126 1343.49 125.649 1343.49 Q130.047 1343.49 132.339 1341.76 Q134.654 1340.02 134.654 1336.71 Q134.654 1333.65 132.501 1331.94 Q130.371 1330.21 126.552 1330.21 L122.524 1330.21 L122.524 1326.36 L126.737 1326.36 Q130.186 1326.36 132.015 1325 Q133.843 1323.61 133.843 1321.02 Q133.843 1318.35 131.945 1316.94 Q130.07 1315.51 126.552 1315.51 Q124.63 1315.51 122.431 1315.92 Q120.232 1316.34 117.593 1317.22 L117.593 1313.05 Q120.255 1312.31 122.57 1311.94 Q124.908 1311.57 126.968 1311.57 Q132.292 1311.57 135.394 1314 Q138.496 1316.41 138.496 1320.53 Q138.496 1323.4 136.853 1325.39 Q135.209 1327.36 132.177 1328.12 Z" fill="#000000" fill-rule="nonzero" fill-opacity="1"></path><path clip-path="url(#clip330)" d="M148.218 1312.2 L166.575 1312.2 L166.575 1316.13 L152.501 1316.13 L152.501 1324.6 Q153.519 1324.26 154.538 1324.09 Q155.556 1323.91 156.575 1323.91 Q162.362 1323.91 165.741 1327.08 Q169.121 1330.25 169.121 1335.67 Q169.121 1341.25 165.649 1344.35 Q162.177 1347.43 155.857 1347.43 Q153.681 1347.43 151.413 1347.06 Q149.167 1346.69 146.76 1345.95 L146.76 1341.25 Q148.843 1342.38 151.066 1342.94 Q153.288 1343.49 155.765 1343.49 Q159.769 1343.49 162.107 1341.39 Q164.445 1339.28 164.445 1335.67 Q164.445 1332.06 162.107 1329.95 Q159.769 1327.84 155.765 1327.84 Q153.89 1327.84 152.015 1328.26 Q150.163 1328.68 148.218 1329.56 L148.218 1312.2 Z" fill="#000000" fill-rule="nonzero" fill-opacity="1"></path><path clip-path="url(#clip330)" d="M129.862 1091.35 L118.056 1109.8 L129.862 1109.8 L129.862 1091.35 M128.635 1087.28 L134.515 1087.28 L134.515 1109.8 L139.445 1109.8 L139.445 1113.69 L134.515 1113.69 L134.515 1121.84 L129.862 1121.84 L129.862 1113.69 L114.26 1113.69 L114.26 1109.18 L128.635 1087.28 Z" fill="#000000" fill-rule="nonzero" fill-opacity="1"></path><path clip-path="url(#clip330)" d="M157.177 1090.36 Q153.566 1090.36 151.737 1093.92 Q149.931 1097.46 149.931 1104.59 Q149.931 1111.7 151.737 1115.27 Q153.566 1118.81 157.177 1118.81 Q160.811 1118.81 162.616 1115.27 Q164.445 1111.7 164.445 1104.59 Q164.445 1097.46 162.616 1093.92 Q160.811 1090.36 157.177 1090.36 M157.177 1086.65 Q162.987 1086.65 166.042 1091.26 Q169.121 1095.84 169.121 1104.59 Q169.121 1113.32 166.042 1117.93 Q162.987 1122.51 157.177 1122.51 Q151.366 1122.51 148.288 1117.93 Q145.232 1113.32 145.232 1104.59 Q145.232 1095.84 148.288 1091.26 Q151.366 1086.65 157.177 1086.65 Z" fill="#000000" fill-rule="nonzero" fill-opacity="1"></path><path clip-path="url(#clip330)" d="M130.857 866.437 L119.052 884.886 L130.857 884.886 L130.857 866.437 M129.63 862.363 L135.51 862.363 L135.51 884.886 L140.441 884.886 L140.441 888.775 L135.51 888.775 L135.51 896.923 L130.857 896.923 L130.857 888.775 L115.256 888.775 L115.256 884.261 L129.63 862.363 Z" fill="#000000" fill-rule="nonzero" fill-opacity="1"></path><path clip-path="url(#clip330)" d="M148.218 862.363 L166.575 862.363 L166.575 866.298 L152.501 866.298 L152.501 874.77 Q153.519 874.423 154.538 874.261 Q155.556 874.076 156.575 874.076 Q162.362 874.076 165.741 877.247 Q169.121 880.418 169.121 885.835 Q169.121 891.414 165.649 894.515 Q162.177 897.594 155.857 897.594 Q153.681 897.594 151.413 897.224 Q149.167 896.853 146.76 896.113 L146.76 891.414 Q148.843 892.548 151.066 893.103 Q153.288 893.659 155.765 893.659 Q159.769 893.659 162.107 891.553 Q164.445 889.446 164.445 885.835 Q164.445 882.224 162.107 880.117 Q159.769 878.011 155.765 878.011 Q153.89 878.011 152.015 878.428 Q150.163 878.844 148.218 879.724 L148.218 862.363 Z" fill="#000000" fill-rule="nonzero" fill-opacity="1"></path><path clip-path="url(#clip330)" d="M117.061 637.446 L135.417 637.446 L135.417 641.381 L121.343 641.381 L121.343 649.853 Q122.362 649.506 123.38 649.344 Q124.399 649.159 125.418 649.159 Q131.205 649.159 134.584 652.33 Q137.964 655.501 137.964 660.918 Q137.964 666.497 134.492 669.599 Q131.019 672.677 124.7 672.677 Q122.524 672.677 120.255 672.307 Q118.01 671.936 115.603 671.196 L115.603 666.497 Q117.686 667.631 119.908 668.186 Q122.13 668.742 124.607 668.742 Q128.612 668.742 130.95 666.636 Q133.288 664.529 133.288 660.918 Q133.288 657.307 130.95 655.2 Q128.612 653.094 124.607 653.094 Q122.732 653.094 120.857 653.511 Q119.006 653.927 117.061 654.807 L117.061 637.446 Z" fill="#000000" fill-rule="nonzero" fill-opacity="1"></path><path clip-path="url(#clip330)" d="M157.177 640.525 Q153.566 640.525 151.737 644.089 Q149.931 647.631 149.931 654.761 Q149.931 661.867 151.737 665.432 Q153.566 668.974 157.177 668.974 Q160.811 668.974 162.616 665.432 Q164.445 661.867 164.445 654.761 Q164.445 647.631 162.616 644.089 Q160.811 640.525 157.177 640.525 M157.177 636.821 Q162.987 636.821 166.042 641.427 Q169.121 646.011 169.121 654.761 Q169.121 663.487 166.042 668.094 Q162.987 672.677 157.177 672.677 Q151.366 672.677 148.288 668.094 Q145.232 663.487 145.232 654.761 Q145.232 646.011 148.288 641.427 Q151.366 636.821 157.177 636.821 Z" fill="#000000" fill-rule="nonzero" fill-opacity="1"></path><path clip-path="url(#clip330)" d="M118.056 412.529 L136.413 412.529 L136.413 416.464 L122.339 416.464 L122.339 424.936 Q123.357 424.589 124.376 424.427 Q125.394 424.242 126.413 424.242 Q132.2 424.242 135.579 427.413 Q138.959 430.584 138.959 436.001 Q138.959 441.58 135.487 444.682 Q132.015 447.76 125.695 447.76 Q123.519 447.76 121.251 447.39 Q119.006 447.02 116.598 446.279 L116.598 441.58 Q118.681 442.714 120.904 443.27 Q123.126 443.825 125.603 443.825 Q129.607 443.825 131.945 441.719 Q134.283 439.612 134.283 436.001 Q134.283 432.39 131.945 430.284 Q129.607 428.177 125.603 428.177 Q123.728 428.177 121.853 428.594 Q120.001 429.01 118.056 429.89 L118.056 412.529 Z" fill="#000000" fill-rule="nonzero" fill-opacity="1"></path><path clip-path="url(#clip330)" d="M148.218 412.529 L166.575 412.529 L166.575 416.464 L152.501 416.464 L152.501 424.936 Q153.519 424.589 154.538 424.427 Q155.556 424.242 156.575 424.242 Q162.362 424.242 165.741 427.413 Q169.121 430.584 169.121 436.001 Q169.121 441.58 165.649 444.682 Q162.177 447.76 155.857 447.76 Q153.681 447.76 151.413 447.39 Q149.167 447.02 146.76 446.279 L146.76 441.58 Q148.843 442.714 151.066 443.27 Q153.288 443.825 155.765 443.825 Q159.769 443.825 162.107 441.719 Q164.445 439.612 164.445 436.001 Q164.445 432.39 162.107 430.284 Q159.769 428.177 155.765 428.177 Q153.89 428.177 152.015 428.594 Q150.163 429.01 148.218 429.89 L148.218 412.529 Z" fill="#000000" fill-rule="nonzero" fill-opacity="1"></path><path clip-path="url(#clip330)" d="M127.593 203.029 Q124.445 203.029 122.593 205.181 Q120.765 207.334 120.765 211.084 Q120.765 214.811 122.593 216.987 Q124.445 219.14 127.593 219.14 Q130.742 219.14 132.57 216.987 Q134.422 214.811 134.422 211.084 Q134.422 207.334 132.57 205.181 Q130.742 203.029 127.593 203.029 M136.876 188.376 L136.876 192.635 Q135.117 191.802 133.311 191.362 Q131.529 190.922 129.769 190.922 Q125.14 190.922 122.686 194.047 Q120.255 197.172 119.908 203.492 Q121.274 201.478 123.334 200.413 Q125.394 199.325 127.871 199.325 Q133.08 199.325 136.089 202.496 Q139.121 205.644 139.121 211.084 Q139.121 216.408 135.973 219.626 Q132.825 222.843 127.593 222.843 Q121.598 222.843 118.427 218.26 Q115.256 213.654 115.256 204.927 Q115.256 196.732 119.144 191.871 Q123.033 186.987 129.584 186.987 Q131.343 186.987 133.126 187.334 Q134.931 187.681 136.876 188.376 Z" fill="#000000" fill-rule="nonzero" fill-opacity="1"></path><path clip-path="url(#clip330)" d="M157.177 190.691 Q153.566 190.691 151.737 194.256 Q149.931 197.797 149.931 204.927 Q149.931 212.033 151.737 215.598 Q153.566 219.14 157.177 219.14 Q160.811 219.14 162.616 215.598 Q164.445 212.033 164.445 204.927 Q164.445 197.797 162.616 194.256 Q160.811 190.691 157.177 190.691 M157.177 186.987 Q162.987 186.987 166.042 191.594 Q169.121 196.177 169.121 204.927 Q169.121 213.654 166.042 218.26 Q162.987 222.843 157.177 222.843 Q151.366 222.843 148.288 218.26 Q145.232 213.654 145.232 204.927 Q145.232 196.177 148.288 191.594 Q151.366 186.987 157.177 186.987 Z" fill="#000000" fill-rule="nonzero" fill-opacity="1"></path><path clip-path="url(#clip330)" d="M16.4842 917.622 L16.4842 911.193 L64.0042 911.193 L64.0042 917.622 L16.4842 917.622 Z" fill="#000000" fill-rule="nonzero" fill-opacity="1"></path><path clip-path="url(#clip330)" d="M18.2347 892.859 L28.3562 892.859 L28.3562 880.796 L32.9077 880.796 L32.9077 892.859 L52.2594 892.859 Q56.6199 892.859 57.8613 891.682 Q59.1026 890.472 59.1026 886.812 L59.1026 880.796 L64.0042 880.796 L64.0042 886.812 Q64.0042 893.591 61.4897 896.17 Q58.9434 898.748 52.2594 898.748 L32.9077 898.748 L32.9077 903.044 L28.3562 903.044 L28.3562 898.748 L18.2347 898.748 L18.2347 892.859 Z" fill="#000000" fill-rule="nonzero" fill-opacity="1"></path><path clip-path="url(#clip330)" d="M44.7161 842.602 L47.5806 842.602 L47.5806 869.529 Q53.6281 869.147 56.8109 865.901 Q59.9619 862.622 59.9619 856.798 Q59.9619 853.424 59.1344 850.273 Q58.3069 847.09 56.6518 843.971 L62.1899 843.971 Q63.5267 847.122 64.227 850.432 Q64.9272 853.742 64.9272 857.148 Q64.9272 865.678 59.9619 870.675 Q54.9967 875.64 46.5303 875.64 Q37.7774 875.64 32.6531 870.929 Q27.4968 866.187 27.4968 858.166 Q27.4968 850.973 32.1438 846.803 Q36.7589 842.602 44.7161 842.602 M42.9973 848.459 Q38.1912 848.522 35.3266 851.164 Q32.4621 853.774 32.4621 858.103 Q32.4621 863.004 35.2312 865.964 Q38.0002 868.892 43.0292 869.338 L42.9973 848.459 Z" fill="#000000" fill-rule="nonzero" fill-opacity="1"></path><path clip-path="url(#clip330)" d="M33.8307 812.333 Q33.2578 813.32 33.0032 814.497 Q32.7167 815.643 32.7167 817.044 Q32.7167 822.009 35.9632 824.683 Q39.1779 827.324 45.2253 827.324 L64.0042 827.324 L64.0042 833.213 L28.3562 833.213 L28.3562 827.324 L33.8944 827.324 Q30.6479 825.478 29.0883 822.518 Q27.4968 819.558 27.4968 815.325 Q27.4968 814.72 27.5923 813.988 Q27.656 813.256 27.8151 812.365 L33.8307 812.333 Z" fill="#000000" fill-rule="nonzero" fill-opacity="1"></path><path clip-path="url(#clip330)" d="M46.0847 789.99 Q46.0847 797.087 47.7079 799.825 Q49.3312 802.562 53.2461 802.562 Q56.3653 802.562 58.2114 800.525 Q60.0256 798.456 60.0256 794.923 Q60.0256 790.053 56.5881 787.125 Q53.1188 784.165 47.3897 784.165 L46.0847 784.165 L46.0847 789.99 M43.6657 778.308 L64.0042 778.308 L64.0042 784.165 L58.5933 784.165 Q61.8398 786.17 63.3994 789.162 Q64.9272 792.154 64.9272 796.483 Q64.9272 801.957 61.8716 805.204 Q58.7843 808.418 53.6281 808.418 Q47.6125 808.418 44.5569 804.408 Q41.5014 800.366 41.5014 792.377 L41.5014 784.165 L40.9285 784.165 Q36.8862 784.165 34.6901 786.839 Q32.4621 789.48 32.4621 794.286 Q32.4621 797.342 33.1941 800.238 Q33.9262 803.135 35.3903 805.808 L29.9795 805.808 Q28.7381 802.594 28.1334 799.57 Q27.4968 796.546 27.4968 793.682 Q27.4968 785.947 31.5072 782.128 Q35.5176 778.308 43.6657 778.308 Z" fill="#000000" fill-rule="nonzero" fill-opacity="1"></path><path clip-path="url(#clip330)" d="M18.2347 760.453 L28.3562 760.453 L28.3562 748.39 L32.9077 748.39 L32.9077 760.453 L52.2594 760.453 Q56.6199 760.453 57.8613 759.275 Q59.1026 758.066 59.1026 754.405 L59.1026 748.39 L64.0042 748.39 L64.0042 754.405 Q64.0042 761.185 61.4897 763.763 Q58.9434 766.341 52.2594 766.341 L32.9077 766.341 L32.9077 770.638 L28.3562 770.638 L28.3562 766.341 L18.2347 766.341 L18.2347 760.453 Z" fill="#000000" fill-rule="nonzero" fill-opacity="1"></path><path clip-path="url(#clip330)" d="M28.3562 740.687 L28.3562 734.831 L64.0042 734.831 L64.0042 740.687 L28.3562 740.687 M14.479 740.687 L14.479 734.831 L21.895 734.831 L21.895 740.687 L14.479 740.687 Z" fill="#000000" fill-rule="nonzero" fill-opacity="1"></path><path clip-path="url(#clip330)" d="M32.4621 708.763 Q32.4621 713.474 36.1542 716.211 Q39.8145 718.948 46.212 718.948 Q52.6095 718.948 56.3017 716.243 Q59.9619 713.506 59.9619 708.763 Q59.9619 704.084 56.2698 701.347 Q52.5777 698.61 46.212 698.61 Q39.8781 698.61 36.186 701.347 Q32.4621 704.084 32.4621 708.763 M27.4968 708.763 Q27.4968 701.124 32.4621 696.764 Q37.4273 692.403 46.212 692.403 Q54.9649 692.403 59.9619 696.764 Q64.9272 701.124 64.9272 708.763 Q64.9272 716.434 59.9619 720.794 Q54.9649 725.123 46.212 725.123 Q37.4273 725.123 32.4621 720.794 Q27.4968 716.434 27.4968 708.763 Z" fill="#000000" fill-rule="nonzero" fill-opacity="1"></path><path clip-path="url(#clip330)" d="M42.4881 653.063 L64.0042 653.063 L64.0042 658.92 L42.679 658.92 Q37.6183 658.92 35.1038 660.893 Q32.5894 662.866 32.5894 666.813 Q32.5894 671.556 35.6131 674.293 Q38.6368 677.03 43.8567 677.03 L64.0042 677.03 L64.0042 682.918 L28.3562 682.918 L28.3562 677.03 L33.8944 677.03 Q30.6797 674.929 29.0883 672.097 Q27.4968 669.232 27.4968 665.508 Q27.4968 659.365 31.3163 656.214 Q35.1038 653.063 42.4881 653.063 Z" fill="#000000" fill-rule="nonzero" fill-opacity="1"></path><path clip-path="url(#clip330)" d="M29.4065 618.657 L34.9447 618.657 Q33.6716 621.139 33.035 623.813 Q32.3984 626.486 32.3984 629.351 Q32.3984 633.711 33.7352 635.908 Q35.072 638.072 37.7456 638.072 Q39.7826 638.072 40.9603 636.512 Q42.1061 634.953 43.1565 630.242 L43.6021 628.237 Q44.9389 621.999 47.3897 619.389 Q49.8086 616.747 54.1691 616.747 Q59.1344 616.747 62.0308 620.694 Q64.9272 624.608 64.9272 631.483 Q64.9272 634.348 64.3543 637.467 Q63.8132 640.555 62.6992 643.992 L56.6518 643.992 Q58.3387 640.746 59.198 637.595 Q60.0256 634.443 60.0256 631.356 Q60.0256 627.218 58.6251 624.99 Q57.1929 622.762 54.6147 622.762 Q52.2276 622.762 50.9545 624.386 Q49.6813 625.977 48.5037 631.42 L48.0262 633.457 Q46.8804 638.899 44.5251 641.318 Q42.138 643.737 38.0002 643.737 Q32.9713 643.737 30.2341 640.173 Q27.4968 636.608 27.4968 630.051 Q27.4968 626.805 27.9743 623.94 Q28.4517 621.076 29.4065 618.657 Z" fill="#000000" fill-rule="nonzero" fill-opacity="1"></path><path clip-path="url(#clip330)" d="M854.485 12.096 L865.503 12.096 L892.32 62.6918 L892.32 12.096 L900.26 12.096 L900.26 72.576 L889.241 72.576 L862.424 21.9802 L862.424 72.576 L854.485 72.576 L854.485 12.096 Z" fill="#000000" fill-rule="nonzero" fill-opacity="1"></path><path clip-path="url(#clip330)" d="M915.451 54.671 L915.451 27.2059 L922.904 27.2059 L922.904 54.3874 Q922.904 60.8284 925.416 64.0691 Q927.928 67.2693 932.951 67.2693 Q938.987 67.2693 942.47 63.421 Q945.995 59.5726 945.995 52.9291 L945.995 27.2059 L953.448 27.2059 L953.448 72.576 L945.995 72.576 L945.995 65.6084 Q943.281 69.7404 939.675 71.7658 Q936.11 73.7508 931.371 73.7508 Q923.553 73.7508 919.502 68.8897 Q915.451 64.0286 915.451 54.671 M934.206 26.1121 L934.206 26.1121 Z" fill="#000000" fill-rule="nonzero" fill-opacity="1"></path><path clip-path="url(#clip330)" d="M1004.13 35.9153 Q1006.92 30.8922 1010.81 28.5022 Q1014.7 26.1121 1019.96 26.1121 Q1027.05 26.1121 1030.9 31.0947 Q1034.75 36.0368 1034.75 45.1919 L1034.75 72.576 L1027.26 72.576 L1027.26 45.4349 Q1027.26 38.913 1024.95 35.7533 Q1022.64 32.5936 1017.9 32.5936 Q1012.11 32.5936 1008.74 36.4419 Q1005.38 40.2903 1005.38 46.9338 L1005.38 72.576 L997.887 72.576 L997.887 45.4349 Q997.887 38.8725 995.578 35.7533 Q993.269 32.5936 988.448 32.5936 Q982.736 32.5936 979.374 36.4824 Q976.012 40.3308 976.012 46.9338 L976.012 72.576 L968.518 72.576 L968.518 27.2059 L976.012 27.2059 L976.012 34.2544 Q978.564 30.082 982.129 28.0971 Q985.693 26.1121 990.595 26.1121 Q995.537 26.1121 998.98 28.6237 Q1002.46 31.1352 1004.13 35.9153 Z" fill="#000000" fill-rule="nonzero" fill-opacity="1"></path><path clip-path="url(#clip330)" d="M1082.19 49.9314 Q1082.19 41.7081 1078.78 37.0496 Q1075.42 32.3505 1069.51 32.3505 Q1063.59 32.3505 1060.19 37.0496 Q1056.83 41.7081 1056.83 49.9314 Q1056.83 58.1548 1060.19 62.8538 Q1063.59 67.5124 1069.51 67.5124 Q1075.42 67.5124 1078.78 62.8538 Q1082.19 58.1548 1082.19 49.9314 M1056.83 34.0924 Q1059.18 30.0415 1062.74 28.0971 Q1066.35 26.1121 1071.33 26.1121 Q1079.59 26.1121 1084.74 32.6746 Q1089.92 39.2371 1089.92 49.9314 Q1089.92 60.6258 1084.74 67.1883 Q1079.59 73.7508 1071.33 73.7508 Q1066.35 73.7508 1062.74 71.8063 Q1059.18 69.8214 1056.83 65.7705 L1056.83 72.576 L1049.33 72.576 L1049.33 9.54393 L1056.83 9.54393 L1056.83 34.0924 Z" fill="#000000" fill-rule="nonzero" fill-opacity="1"></path><path clip-path="url(#clip330)" d="M1141.09 48.0275 L1141.09 51.6733 L1106.82 51.6733 Q1107.3 59.3701 1111.43 63.421 Q1115.61 67.4314 1123.02 67.4314 Q1127.31 67.4314 1131.32 66.3781 Q1135.37 65.3249 1139.34 63.2184 L1139.34 70.267 Q1135.33 71.9684 1131.12 72.8596 Q1126.91 73.7508 1122.57 73.7508 Q1111.72 73.7508 1105.36 67.4314 Q1099.04 61.1119 1099.04 50.3365 Q1099.04 39.1965 1105.03 32.6746 Q1111.07 26.1121 1121.28 26.1121 Q1130.43 26.1121 1135.74 32.0264 Q1141.09 37.9003 1141.09 48.0275 M1133.63 45.84 Q1133.55 39.7232 1130.19 36.0774 Q1126.87 32.4315 1121.36 32.4315 Q1115.12 32.4315 1111.35 35.9558 Q1107.63 39.4801 1107.06 45.8805 L1133.63 45.84 Z" fill="#000000" fill-rule="nonzero" fill-opacity="1"></path><path clip-path="url(#clip330)" d="M1179.61 34.1734 Q1178.35 33.4443 1176.86 33.1202 Q1175.4 32.7556 1173.61 32.7556 Q1167.3 32.7556 1163.89 36.8875 Q1160.53 40.9789 1160.53 48.6757 L1160.53 72.576 L1153.04 72.576 L1153.04 27.2059 L1160.53 27.2059 L1160.53 34.2544 Q1162.88 30.1225 1166.65 28.1376 Q1170.41 26.1121 1175.8 26.1121 Q1176.57 26.1121 1177.5 26.2337 Q1178.44 26.3147 1179.57 26.5172 L1179.61 34.1734 Z" fill="#000000" fill-rule="nonzero" fill-opacity="1"></path><path clip-path="url(#clip330)" d="M1231.38 32.4315 Q1225.39 32.4315 1221.9 37.1306 Q1218.42 41.7891 1218.42 49.9314 Q1218.42 58.0738 1221.86 62.7728 Q1225.34 67.4314 1231.38 67.4314 Q1237.34 67.4314 1240.82 62.7323 Q1244.3 58.0333 1244.3 49.9314 Q1244.3 41.8701 1240.82 37.1711 Q1237.34 32.4315 1231.38 32.4315 M1231.38 26.1121 Q1241.1 26.1121 1246.65 32.4315 Q1252.2 38.7509 1252.2 49.9314 Q1252.2 61.0714 1246.65 67.4314 Q1241.1 73.7508 1231.38 73.7508 Q1221.62 73.7508 1216.07 67.4314 Q1210.56 61.0714 1210.56 49.9314 Q1210.56 38.7509 1216.07 32.4315 Q1221.62 26.1121 1231.38 26.1121 Z" fill="#000000" fill-rule="nonzero" fill-opacity="1"></path><path clip-path="url(#clip330)" d="M1287.53 9.54393 L1287.53 15.7418 L1280.4 15.7418 Q1276.39 15.7418 1274.81 17.3622 Q1273.27 18.9825 1273.27 23.1955 L1273.27 27.2059 L1285.54 27.2059 L1285.54 32.9987 L1273.27 32.9987 L1273.27 72.576 L1265.77 72.576 L1265.77 32.9987 L1258.64 32.9987 L1258.64 27.2059 L1265.77 27.2059 L1265.77 24.0462 Q1265.77 16.471 1269.3 13.0277 Q1272.82 9.54393 1280.48 9.54393 L1287.53 9.54393 Z" fill="#000000" fill-rule="nonzero" fill-opacity="1"></path><path clip-path="url(#clip330)" d="M1320.46 12.096 L1328.64 12.096 L1328.64 72.576 L1320.46 72.576 L1320.46 12.096 Z" fill="#000000" fill-rule="nonzero" fill-opacity="1"></path><path clip-path="url(#clip330)" d="M1351.98 14.324 L1351.98 27.2059 L1367.33 27.2059 L1367.33 32.9987 L1351.98 32.9987 L1351.98 57.6282 Q1351.98 63.1779 1353.48 64.7578 Q1355.01 66.3376 1359.67 66.3376 L1367.33 66.3376 L1367.33 72.576 L1359.67 72.576 Q1351.04 72.576 1347.76 69.3758 Q1344.48 66.1351 1344.48 57.6282 L1344.48 32.9987 L1339.01 32.9987 L1339.01 27.2059 L1344.48 27.2059 L1344.48 14.324 L1351.98 14.324 Z" fill="#000000" fill-rule="nonzero" fill-opacity="1"></path><path clip-path="url(#clip330)" d="M1415.94 48.0275 L1415.94 51.6733 L1381.67 51.6733 Q1382.16 59.3701 1386.29 63.421 Q1390.46 67.4314 1397.87 67.4314 Q1402.17 67.4314 1406.18 66.3781 Q1410.23 65.3249 1414.2 63.2184 L1414.2 70.267 Q1410.19 71.9684 1405.97 72.8596 Q1401.76 73.7508 1397.43 73.7508 Q1386.57 73.7508 1380.21 67.4314 Q1373.89 61.1119 1373.89 50.3365 Q1373.89 39.1965 1379.89 32.6746 Q1385.92 26.1121 1396.13 26.1121 Q1405.29 26.1121 1410.59 32.0264 Q1415.94 37.9003 1415.94 48.0275 M1408.49 45.84 Q1408.41 39.7232 1405.04 36.0774 Q1401.72 32.4315 1396.21 32.4315 Q1389.97 32.4315 1386.21 35.9558 Q1382.48 39.4801 1381.91 45.8805 L1408.49 45.84 Z" fill="#000000" fill-rule="nonzero" fill-opacity="1"></path><path clip-path="url(#clip330)" d="M1454.46 34.1734 Q1453.21 33.4443 1451.71 33.1202 Q1450.25 32.7556 1448.47 32.7556 Q1442.15 32.7556 1438.75 36.8875 Q1435.38 40.9789 1435.38 48.6757 L1435.38 72.576 L1427.89 72.576 L1427.89 27.2059 L1435.38 27.2059 L1435.38 34.2544 Q1437.73 30.1225 1441.5 28.1376 Q1445.27 26.1121 1450.66 26.1121 Q1451.43 26.1121 1452.36 26.2337 Q1453.29 26.3147 1454.42 26.5172 L1454.46 34.1734 Z" fill="#000000" fill-rule="nonzero" fill-opacity="1"></path><path clip-path="url(#clip330)" d="M1482.9 49.7694 Q1473.87 49.7694 1470.38 51.8354 Q1466.9 53.9013 1466.9 58.8839 Q1466.9 62.8538 1469.49 65.2034 Q1472.13 67.5124 1476.62 67.5124 Q1482.82 67.5124 1486.55 63.1374 Q1490.31 58.7219 1490.31 51.4303 L1490.31 49.7694 L1482.9 49.7694 M1497.77 46.6907 L1497.77 72.576 L1490.31 72.576 L1490.31 65.6895 Q1487.76 69.8214 1483.95 71.8063 Q1480.15 73.7508 1474.64 73.7508 Q1467.67 73.7508 1463.54 69.8619 Q1459.45 65.9325 1459.45 59.3701 Q1459.45 51.7138 1464.55 47.825 Q1469.7 43.9361 1479.86 43.9361 L1490.31 43.9361 L1490.31 43.2069 Q1490.31 38.0623 1486.91 35.2672 Q1483.55 32.4315 1477.43 32.4315 Q1473.54 32.4315 1469.86 33.3632 Q1466.17 34.295 1462.77 36.1584 L1462.77 29.2718 Q1466.86 27.692 1470.71 26.9223 Q1474.56 26.1121 1478.2 26.1121 Q1488.05 26.1121 1492.91 31.2163 Q1497.77 36.3204 1497.77 46.6907 Z" fill="#000000" fill-rule="nonzero" fill-opacity="1"></path><path clip-path="url(#clip330)" d="M1520.49 14.324 L1520.49 27.2059 L1535.85 27.2059 L1535.85 32.9987 L1520.49 32.9987 L1520.49 57.6282 Q1520.49 63.1779 1521.99 64.7578 Q1523.53 66.3376 1528.19 66.3376 L1535.85 66.3376 L1535.85 72.576 L1528.19 72.576 Q1519.56 72.576 1516.28 69.3758 Q1513 66.1351 1513 57.6282 L1513 32.9987 L1507.53 32.9987 L1507.53 27.2059 L1513 27.2059 L1513 14.324 L1520.49 14.324 Z" fill="#000000" fill-rule="nonzero" fill-opacity="1"></path><path clip-path="url(#clip330)" d="M1545.65 27.2059 L1553.1 27.2059 L1553.1 72.576 L1545.65 72.576 L1545.65 27.2059 M1545.65 9.54393 L1553.1 9.54393 L1553.1 18.9825 L1545.65 18.9825 L1545.65 9.54393 Z" fill="#000000" fill-rule="nonzero" fill-opacity="1"></path><path clip-path="url(#clip330)" d="M1586.28 32.4315 Q1580.29 32.4315 1576.8 37.1306 Q1573.32 41.7891 1573.32 49.9314 Q1573.32 58.0738 1576.76 62.7728 Q1580.24 67.4314 1586.28 67.4314 Q1592.24 67.4314 1595.72 62.7323 Q1599.2 58.0333 1599.2 49.9314 Q1599.2 41.8701 1595.72 37.1711 Q1592.24 32.4315 1586.28 32.4315 M1586.28 26.1121 Q1596 26.1121 1601.55 32.4315 Q1607.1 38.7509 1607.1 49.9314 Q1607.1 61.0714 1601.55 67.4314 Q1596 73.7508 1586.28 73.7508 Q1576.52 73.7508 1570.97 67.4314 Q1565.46 61.0714 1565.46 49.9314 Q1565.46 38.7509 1570.97 32.4315 Q1576.52 26.1121 1586.28 26.1121 Z" fill="#000000" fill-rule="nonzero" fill-opacity="1"></path><path clip-path="url(#clip330)" d="M1657.17 45.1919 L1657.17 72.576 L1649.72 72.576 L1649.72 45.4349 Q1649.72 38.994 1647.21 35.7938 Q1644.69 32.5936 1639.67 32.5936 Q1633.64 32.5936 1630.15 36.4419 Q1626.67 40.2903 1626.67 46.9338 L1626.67 72.576 L1619.17 72.576 L1619.17 27.2059 L1626.67 27.2059 L1626.67 34.2544 Q1629.34 30.163 1632.95 28.1376 Q1636.59 26.1121 1641.33 26.1121 Q1649.15 26.1121 1653.16 30.9732 Q1657.17 35.7938 1657.17 45.1919 Z" fill="#000000" fill-rule="nonzero" fill-opacity="1"></path><path clip-path="url(#clip330)" d="M1700.96 28.5427 L1700.96 35.5912 Q1697.8 33.9709 1694.4 33.1607 Q1691 32.3505 1687.35 32.3505 Q1681.8 32.3505 1679.01 34.0519 Q1676.25 35.7533 1676.25 39.156 Q1676.25 41.7486 1678.24 43.2475 Q1680.22 44.7058 1686.22 46.0426 L1688.77 46.6097 Q1696.71 48.3111 1700.03 51.4303 Q1703.39 54.509 1703.39 60.0587 Q1703.39 66.3781 1698.37 70.0644 Q1693.39 73.7508 1684.64 73.7508 Q1680.99 73.7508 1677.02 73.0216 Q1673.09 72.3329 1668.72 70.9151 L1668.72 63.2184 Q1672.85 65.3654 1676.86 66.4591 Q1680.87 67.5124 1684.8 67.5124 Q1690.06 67.5124 1692.9 65.73 Q1695.74 63.9071 1695.74 60.6258 Q1695.74 57.5877 1693.67 55.9673 Q1691.64 54.3469 1684.72 52.8481 L1682.12 52.2405 Q1675.2 50.7821 1672.12 47.7845 Q1669.04 44.7463 1669.04 39.4801 Q1669.04 33.0797 1673.58 29.5959 Q1678.11 26.1121 1686.46 26.1121 Q1690.59 26.1121 1694.24 26.7198 Q1697.88 27.3274 1700.96 28.5427 Z" fill="#000000" fill-rule="nonzero" fill-opacity="1"></path><polyline clip-path="url(#clip332)" style="stroke:#009af9; stroke-linecap:round; stroke-linejoin:round; stroke-width:4; stroke-opacity:1; fill:none" points="2291.97,1374.46 1954.3,1194.53 1616.62,969.61 1278.94,654.726 941.26,474.792 603.582,339.842 265.903,159.909 "></polyline>
</svg>