<svg xmlns="http://www.w3.org/2000/svg" xmlns:xlink="http://www.w3.org/1999/xlink" width="600" height="400" viewBox="0 0 2400 1600">
<defs>
  <clipPath id="clip120">
    <rect x="0" y="0" width="2400" height="1600"></rect>
  </clipPath>
</defs>
<path clip-path="url(#clip120)" d="M0 1600 L2400 1600 L2400 0 L0 0  Z" fill="#ffffff" fill-rule="evenodd" fill-opacity="1"></path>
<defs>
  <clipPath id="clip121">
    <rect x="480" y="0" width="1681" height="1600"></rect>
  </clipPath>
</defs>
<path clip-path="url(#clip120)" d="M217.783 1410.9 L2352.76 1410.9 L2352.76 123.472 L217.783 123.472  Z" fill="#ffffff" fill-rule="evenodd" fill-opacity="1"></path>
<defs>
  <clipPath id="clip122">
    <rect x="217" y="123" width="2136" height="1288"></rect>
  </clipPath>
</defs>
<polyline clip-path="url(#clip122)" style="stroke:#000000; stroke-linecap:round; stroke-linejoin:round; stroke-width:2; stroke-opacity:0.1; fill:none" points="949.582,1410.9 949.582,123.472 "></polyline>
<polyline clip-path="url(#clip122)" style="stroke:#000000; stroke-linecap:round; stroke-linejoin:round; stroke-width:2; stroke-opacity:0.1; fill:none" points="1956.64,1410.9 1956.64,123.472 "></polyline>
<polyline clip-path="url(#clip120)" style="stroke:#000000; stroke-linecap:round; stroke-linejoin:round; stroke-width:4; stroke-opacity:1; fill:none" points="217.783,1410.9 2352.76,1410.9 "></polyline>
<polyline clip-path="url(#clip120)" style="stroke:#000000; stroke-linecap:round; stroke-linejoin:round; stroke-width:4; stroke-opacity:1; fill:none" points="949.582,1410.9 949.582,1392 "></polyline>
<polyline clip-path="url(#clip120)" style="stroke:#000000; stroke-linecap:round; stroke-linejoin:round; stroke-width:4; stroke-opacity:1; fill:none" points="1956.64,1410.9 1956.64,1392 "></polyline>
<path clip-path="url(#clip120)" d="M899.133 1485.02 L906.772 1485.02 L906.772 1458.66 L898.462 1460.32 L898.462 1456.06 L906.725 1454.4 L911.401 1454.4 L911.401 1485.02 L919.04 1485.02 L919.04 1488.96 L899.133 1488.96 L899.133 1485.02 Z" fill="#000000" fill-rule="nonzero" fill-opacity="1"></path><path clip-path="url(#clip120)" d="M938.485 1457.48 Q934.873 1457.48 933.045 1461.04 Q931.239 1464.58 931.239 1471.71 Q931.239 1478.82 933.045 1482.38 Q934.873 1485.92 938.485 1485.92 Q942.119 1485.92 943.924 1482.38 Q945.753 1478.82 945.753 1471.71 Q945.753 1464.58 943.924 1461.04 Q942.119 1457.48 938.485 1457.48 M938.485 1453.77 Q944.295 1453.77 947.35 1458.38 Q950.429 1462.96 950.429 1471.71 Q950.429 1480.44 947.35 1485.04 Q944.295 1489.63 938.485 1489.63 Q932.674 1489.63 929.596 1485.04 Q926.54 1480.44 926.54 1471.71 Q926.54 1462.96 929.596 1458.38 Q932.674 1453.77 938.485 1453.77 Z" fill="#000000" fill-rule="nonzero" fill-opacity="1"></path><path clip-path="url(#clip120)" d="M950.429 1447.87 L974.54 1447.87 L974.54 1451.07 L950.429 1451.07 L950.429 1447.87 Z" fill="#000000" fill-rule="nonzero" fill-opacity="1"></path><path clip-path="url(#clip120)" d="M991.336 1445.99 Q988.778 1445.99 987.273 1447.74 Q985.788 1449.49 985.788 1452.54 Q985.788 1455.57 987.273 1457.33 Q988.778 1459.08 991.336 1459.08 Q993.894 1459.08 995.379 1457.33 Q996.884 1455.57 996.884 1452.54 Q996.884 1449.49 995.379 1447.74 Q993.894 1445.99 991.336 1445.99 M998.878 1434.09 L998.878 1437.55 Q997.448 1436.87 995.981 1436.51 Q994.533 1436.16 993.104 1436.16 Q989.342 1436.16 987.349 1438.69 Q985.374 1441.23 985.092 1446.37 Q986.201 1444.73 987.875 1443.87 Q989.549 1442.98 991.562 1442.98 Q995.793 1442.98 998.238 1445.56 Q1000.7 1448.12 1000.7 1452.54 Q1000.7 1456.86 998.144 1459.48 Q995.586 1462.09 991.336 1462.09 Q986.465 1462.09 983.888 1458.37 Q981.311 1454.62 981.311 1447.53 Q981.311 1440.88 984.471 1436.93 Q987.631 1432.96 992.953 1432.96 Q994.383 1432.96 995.831 1433.24 Q997.298 1433.52 998.878 1434.09 Z" fill="#000000" fill-rule="nonzero" fill-opacity="1"></path><path clip-path="url(#clip120)" d="M1906.52 1485.02 L1914.16 1485.02 L1914.16 1458.66 L1905.85 1460.32 L1905.85 1456.06 L1914.12 1454.4 L1918.79 1454.4 L1918.79 1485.02 L1926.43 1485.02 L1926.43 1488.96 L1906.52 1488.96 L1906.52 1485.02 Z" fill="#000000" fill-rule="nonzero" fill-opacity="1"></path><path clip-path="url(#clip120)" d="M1945.88 1457.48 Q1942.27 1457.48 1940.44 1461.04 Q1938.63 1464.58 1938.63 1471.71 Q1938.63 1478.82 1940.44 1482.38 Q1942.27 1485.92 1945.88 1485.92 Q1949.51 1485.92 1951.32 1482.38 Q1953.14 1478.82 1953.14 1471.71 Q1953.14 1464.58 1951.32 1461.04 Q1949.51 1457.48 1945.88 1457.48 M1945.88 1453.77 Q1951.69 1453.77 1954.74 1458.38 Q1957.82 1462.96 1957.82 1471.71 Q1957.82 1480.44 1954.74 1485.04 Q1951.69 1489.63 1945.88 1489.63 Q1940.07 1489.63 1936.99 1485.04 Q1933.93 1480.44 1933.93 1471.71 Q1933.93 1462.96 1936.99 1458.38 Q1940.07 1453.77 1945.88 1453.77 Z" fill="#000000" fill-rule="nonzero" fill-opacity="1"></path><path clip-path="url(#clip120)" d="M1957.82 1447.87 L1981.93 1447.87 L1981.93 1451.07 L1957.82 1451.07 L1957.82 1447.87 Z" fill="#000000" fill-rule="nonzero" fill-opacity="1"></path><path clip-path="url(#clip120)" d="M2001.64 1446.41 Q2004.37 1446.99 2005.89 1448.83 Q2007.44 1450.68 2007.44 1453.38 Q2007.44 1457.54 2004.58 1459.82 Q2001.72 1462.09 1996.45 1462.09 Q1994.68 1462.09 1992.8 1461.73 Q1990.94 1461.4 1988.95 1460.7 L1988.95 1457.03 Q1990.53 1457.95 1992.41 1458.42 Q1994.29 1458.89 1996.34 1458.89 Q1999.91 1458.89 2001.77 1457.48 Q2003.66 1456.07 2003.66 1453.38 Q2003.66 1450.9 2001.91 1449.51 Q2000.18 1448.1 1997.07 1448.1 L1993.8 1448.1 L1993.8 1444.98 L1997.22 1444.98 Q2000.03 1444.98 2001.51 1443.87 Q2003 1442.74 2003 1440.63 Q2003 1438.47 2001.45 1437.32 Q1999.93 1436.16 1997.07 1436.16 Q1995.51 1436.16 1993.72 1436.49 Q1991.94 1436.83 1989.79 1437.55 L1989.79 1434.16 Q1991.96 1433.56 1993.84 1433.26 Q1995.74 1432.96 1997.41 1432.96 Q2001.74 1432.96 2004.26 1434.93 Q2006.78 1436.89 2006.78 1440.24 Q2006.78 1442.57 2005.44 1444.19 Q2004.11 1445.79 2001.64 1446.41 Z" fill="#000000" fill-rule="nonzero" fill-opacity="1"></path><path clip-path="url(#clip120)" d="M1007.1 1531.95 L1007.1 1549.8 L1015.19 1549.8 Q1019.68 1549.8 1022.13 1547.48 Q1024.58 1545.16 1024.58 1540.86 Q1024.58 1536.6 1022.13 1534.27 Q1019.68 1531.95 1015.19 1531.95 L1007.1 1531.95 M1000.67 1526.67 L1015.19 1526.67 Q1023.18 1526.67 1027.25 1530.29 Q1031.36 1533.89 1031.36 1540.86 Q1031.36 1547.9 1027.25 1551.49 Q1023.18 1555.09 1015.19 1555.09 L1007.1 1555.09 L1007.1 1574.19 L1000.67 1574.19 L1000.67 1526.67 Z" fill="#000000" fill-rule="nonzero" fill-opacity="1"></path><path clip-path="url(#clip120)" d="M1059.24 1544.01 Q1058.25 1543.44 1057.07 1543.18 Q1055.93 1542.9 1054.53 1542.9 Q1049.56 1542.9 1046.89 1546.14 Q1044.25 1549.36 1044.25 1555.41 L1044.25 1574.19 L1038.36 1574.19 L1038.36 1538.54 L1044.25 1538.54 L1044.25 1544.08 Q1046.09 1540.83 1049.05 1539.27 Q1052.01 1537.68 1056.25 1537.68 Q1056.85 1537.68 1057.58 1537.77 Q1058.32 1537.84 1059.21 1538 L1059.24 1544.01 Z" fill="#000000" fill-rule="nonzero" fill-opacity="1"></path><path clip-path="url(#clip120)" d="M1077.76 1542.64 Q1073.05 1542.64 1070.32 1546.34 Q1067.58 1550 1067.58 1556.39 Q1067.58 1562.79 1070.28 1566.48 Q1073.02 1570.14 1077.76 1570.14 Q1082.44 1570.14 1085.18 1566.45 Q1087.92 1562.76 1087.92 1556.39 Q1087.92 1550.06 1085.18 1546.37 Q1082.44 1542.64 1077.76 1542.64 M1077.76 1537.68 Q1085.4 1537.68 1089.76 1542.64 Q1094.12 1547.61 1094.12 1556.39 Q1094.12 1565.15 1089.76 1570.14 Q1085.4 1575.11 1077.76 1575.11 Q1070.09 1575.11 1065.73 1570.14 Q1061.4 1565.15 1061.4 1556.39 Q1061.4 1547.61 1065.73 1542.64 Q1070.09 1537.68 1077.76 1537.68 Z" fill="#000000" fill-rule="nonzero" fill-opacity="1"></path><path clip-path="url(#clip120)" d="M1127.29 1543.95 L1127.29 1524.66 L1133.14 1524.66 L1133.14 1574.19 L1127.29 1574.19 L1127.29 1568.84 Q1125.44 1572.02 1122.61 1573.58 Q1119.81 1575.11 1115.86 1575.11 Q1109.4 1575.11 1105.33 1569.95 Q1101.28 1564.8 1101.28 1556.39 Q1101.28 1547.99 1105.33 1542.83 Q1109.4 1537.68 1115.86 1537.68 Q1119.81 1537.68 1122.61 1539.24 Q1125.44 1540.77 1127.29 1543.95 M1107.33 1556.39 Q1107.33 1562.85 1109.97 1566.55 Q1112.65 1570.21 1117.29 1570.21 Q1121.94 1570.21 1124.61 1566.55 Q1127.29 1562.85 1127.29 1556.39 Q1127.29 1549.93 1124.61 1546.27 Q1121.94 1542.58 1117.29 1542.58 Q1112.65 1542.58 1109.97 1546.27 Q1107.33 1549.93 1107.33 1556.39 Z" fill="#000000" fill-rule="nonzero" fill-opacity="1"></path><path clip-path="url(#clip120)" d="M1144.6 1560.12 L1144.6 1538.54 L1150.46 1538.54 L1150.46 1559.89 Q1150.46 1564.96 1152.43 1567.5 Q1154.41 1570.02 1158.35 1570.02 Q1163.1 1570.02 1165.83 1566.99 Q1168.6 1563.97 1168.6 1558.75 L1168.6 1538.54 L1174.46 1538.54 L1174.46 1574.19 L1168.6 1574.19 L1168.6 1568.71 Q1166.47 1571.96 1163.64 1573.55 Q1160.84 1575.11 1157.11 1575.11 Q1150.97 1575.11 1147.79 1571.29 Q1144.6 1567.47 1144.6 1560.12 M1159.34 1537.68 L1159.34 1537.68 Z" fill="#000000" fill-rule="nonzero" fill-opacity="1"></path><path clip-path="url(#clip120)" d="M1212.18 1539.91 L1212.18 1545.38 Q1209.69 1544.01 1207.18 1543.34 Q1204.7 1542.64 1202.15 1542.64 Q1196.45 1542.64 1193.3 1546.27 Q1190.15 1549.87 1190.15 1556.39 Q1190.15 1562.92 1193.3 1566.55 Q1196.45 1570.14 1202.15 1570.14 Q1204.7 1570.14 1207.18 1569.47 Q1209.69 1568.77 1212.18 1567.41 L1212.18 1572.82 Q1209.72 1573.96 1207.08 1574.54 Q1204.47 1575.11 1201.51 1575.11 Q1193.46 1575.11 1188.72 1570.05 Q1183.98 1564.99 1183.98 1556.39 Q1183.98 1547.67 1188.75 1542.68 Q1193.56 1537.68 1201.89 1537.68 Q1204.6 1537.68 1207.18 1538.25 Q1209.76 1538.79 1212.18 1539.91 Z" fill="#000000" fill-rule="nonzero" fill-opacity="1"></path><path clip-path="url(#clip120)" d="M1228.15 1528.42 L1228.15 1538.54 L1240.22 1538.54 L1240.22 1543.09 L1228.15 1543.09 L1228.15 1562.44 Q1228.15 1566.8 1229.33 1568.04 Q1230.54 1569.28 1234.2 1569.28 L1240.22 1569.28 L1240.22 1574.19 L1234.2 1574.19 Q1227.42 1574.19 1224.84 1571.67 Q1222.26 1569.12 1222.26 1562.44 L1222.26 1543.09 L1217.97 1543.09 L1217.97 1538.54 L1222.26 1538.54 L1222.26 1528.42 L1228.15 1528.42 Z" fill="#000000" fill-rule="nonzero" fill-opacity="1"></path><path clip-path="url(#clip120)" d="M1262.31 1526.67 L1302.5 1526.67 L1302.5 1532.08 L1285.64 1532.08 L1285.64 1574.19 L1279.17 1574.19 L1279.17 1532.08 L1262.31 1532.08 L1262.31 1526.67 Z" fill="#000000" fill-rule="nonzero" fill-opacity="1"></path><path clip-path="url(#clip120)" d="M1311.19 1542.64 Q1306.48 1542.64 1303.75 1546.34 Q1301.01 1550 1301.01 1556.39 Q1301.01 1562.79 1303.71 1566.48 Q1306.45 1570.14 1311.19 1570.14 Q1315.87 1570.14 1318.61 1566.45 Q1321.35 1562.76 1321.35 1556.39 Q1321.35 1550.06 1318.61 1546.37 Q1315.87 1542.64 1311.19 1542.64 M1311.19 1537.68 Q1318.83 1537.68 1323.19 1542.64 Q1327.55 1547.61 1327.55 1556.39 Q1327.55 1565.15 1323.19 1570.14 Q1318.83 1575.11 1311.19 1575.11 Q1303.52 1575.11 1299.16 1570.14 Q1294.83 1565.15 1294.83 1556.39 Q1294.83 1547.61 1299.16 1542.64 Q1303.52 1537.68 1311.19 1537.68 Z" fill="#000000" fill-rule="nonzero" fill-opacity="1"></path><path clip-path="url(#clip120)" d="M1337.26 1524.66 L1343.12 1524.66 L1343.12 1574.19 L1337.26 1574.19 L1337.26 1524.66 Z" fill="#000000" fill-rule="nonzero" fill-opacity="1"></path><path clip-path="url(#clip120)" d="M1385.86 1554.9 L1385.86 1557.76 L1358.94 1557.76 Q1359.32 1563.81 1362.57 1566.99 Q1365.84 1570.14 1371.67 1570.14 Q1375.04 1570.14 1378.19 1569.32 Q1381.38 1568.49 1384.49 1566.83 L1384.49 1572.37 Q1381.34 1573.71 1378.03 1574.41 Q1374.72 1575.11 1371.32 1575.11 Q1362.79 1575.11 1357.79 1570.14 Q1352.83 1565.18 1352.83 1556.71 Q1352.83 1547.96 1357.54 1542.83 Q1362.28 1537.68 1370.3 1537.68 Q1377.49 1537.68 1381.66 1542.33 Q1385.86 1546.94 1385.86 1554.9 M1380.01 1553.18 Q1379.94 1548.37 1377.3 1545.51 Q1374.69 1542.64 1370.36 1542.64 Q1365.46 1542.64 1362.5 1545.41 Q1359.57 1548.18 1359.13 1553.21 L1380.01 1553.18 Z" fill="#000000" fill-rule="nonzero" fill-opacity="1"></path><path clip-path="url(#clip120)" d="M1416.13 1544.01 Q1415.15 1543.44 1413.97 1543.18 Q1412.82 1542.9 1411.42 1542.9 Q1406.46 1542.9 1403.78 1546.14 Q1401.14 1549.36 1401.14 1555.41 L1401.14 1574.19 L1395.25 1574.19 L1395.25 1538.54 L1401.14 1538.54 L1401.14 1544.08 Q1402.99 1540.83 1405.95 1539.27 Q1408.91 1537.68 1413.14 1537.68 Q1413.75 1537.68 1414.48 1537.77 Q1415.21 1537.84 1416.1 1538 L1416.13 1544.01 Z" fill="#000000" fill-rule="nonzero" fill-opacity="1"></path><path clip-path="url(#clip120)" d="M1438.48 1556.27 Q1431.38 1556.27 1428.64 1557.89 Q1425.9 1559.51 1425.9 1563.43 Q1425.9 1566.55 1427.94 1568.39 Q1430.01 1570.21 1433.54 1570.21 Q1438.41 1570.21 1441.34 1566.77 Q1444.3 1563.3 1444.3 1557.57 L1444.3 1556.27 L1438.48 1556.27 M1450.16 1553.85 L1450.16 1574.19 L1444.3 1574.19 L1444.3 1568.77 Q1442.3 1572.02 1439.3 1573.58 Q1436.31 1575.11 1431.98 1575.11 Q1426.51 1575.11 1423.26 1572.05 Q1420.05 1568.97 1420.05 1563.81 Q1420.05 1557.79 1424.06 1554.74 Q1428.1 1551.68 1436.09 1551.68 L1444.3 1551.68 L1444.3 1551.11 Q1444.3 1547.07 1441.63 1544.87 Q1438.99 1542.64 1434.18 1542.64 Q1431.12 1542.64 1428.23 1543.38 Q1425.33 1544.11 1422.66 1545.57 L1422.66 1540.16 Q1425.87 1538.92 1428.9 1538.31 Q1431.92 1537.68 1434.78 1537.68 Q1442.52 1537.68 1446.34 1541.69 Q1450.16 1545.7 1450.16 1553.85 Z" fill="#000000" fill-rule="nonzero" fill-opacity="1"></path><path clip-path="url(#clip120)" d="M1491.85 1552.67 L1491.85 1574.19 L1486 1574.19 L1486 1552.86 Q1486 1547.8 1484.02 1545.29 Q1482.05 1542.77 1478.1 1542.77 Q1473.36 1542.77 1470.62 1545.79 Q1467.89 1548.82 1467.89 1554.04 L1467.89 1574.19 L1462 1574.19 L1462 1538.54 L1467.89 1538.54 L1467.89 1544.08 Q1469.99 1540.86 1472.82 1539.27 Q1475.68 1537.68 1479.41 1537.68 Q1485.55 1537.68 1488.7 1541.5 Q1491.85 1545.29 1491.85 1552.67 Z" fill="#000000" fill-rule="nonzero" fill-opacity="1"></path><path clip-path="url(#clip120)" d="M1529.19 1539.91 L1529.19 1545.38 Q1526.7 1544.01 1524.19 1543.34 Q1521.71 1542.64 1519.16 1542.64 Q1513.46 1542.64 1510.31 1546.27 Q1507.16 1549.87 1507.16 1556.39 Q1507.16 1562.92 1510.31 1566.55 Q1513.46 1570.14 1519.16 1570.14 Q1521.71 1570.14 1524.19 1569.47 Q1526.7 1568.77 1529.19 1567.41 L1529.19 1572.82 Q1526.74 1573.96 1524.09 1574.54 Q1521.48 1575.11 1518.52 1575.11 Q1510.47 1575.11 1505.73 1570.05 Q1500.99 1564.99 1500.99 1556.39 Q1500.99 1547.67 1505.76 1542.68 Q1510.57 1537.68 1518.91 1537.68 Q1521.61 1537.68 1524.19 1538.25 Q1526.77 1538.79 1529.19 1539.91 Z" fill="#000000" fill-rule="nonzero" fill-opacity="1"></path><path clip-path="url(#clip120)" d="M1569.86 1554.9 L1569.86 1557.76 L1542.94 1557.76 Q1543.32 1563.81 1546.57 1566.99 Q1549.84 1570.14 1555.67 1570.14 Q1559.04 1570.14 1562.19 1569.32 Q1565.38 1568.49 1568.5 1566.83 L1568.5 1572.37 Q1565.34 1573.71 1562.03 1574.41 Q1558.72 1575.11 1555.32 1575.11 Q1546.79 1575.11 1541.79 1570.14 Q1536.83 1565.18 1536.83 1556.71 Q1536.83 1547.96 1541.54 1542.83 Q1546.28 1537.68 1554.3 1537.68 Q1561.49 1537.68 1565.66 1542.33 Q1569.86 1546.94 1569.86 1554.9 M1564.01 1553.18 Q1563.94 1548.37 1561.3 1545.51 Q1558.69 1542.64 1554.36 1542.64 Q1549.46 1542.64 1546.5 1545.41 Q1543.57 1548.18 1543.13 1553.21 L1564.01 1553.18 Z" fill="#000000" fill-rule="nonzero" fill-opacity="1"></path><polyline clip-path="url(#clip122)" style="stroke:#000000; stroke-linecap:round; stroke-linejoin:round; stroke-width:2; stroke-opacity:0.1; fill:none" points="217.783,1321.53 2352.76,1321.53 "></polyline>
<polyline clip-path="url(#clip122)" style="stroke:#000000; stroke-linecap:round; stroke-linejoin:round; stroke-width:2; stroke-opacity:0.1; fill:none" points="217.783,1033.57 2352.76,1033.57 "></polyline>
<polyline clip-path="url(#clip122)" style="stroke:#000000; stroke-linecap:round; stroke-linejoin:round; stroke-width:2; stroke-opacity:0.1; fill:none" points="217.783,745.6 2352.76,745.6 "></polyline>
<polyline clip-path="url(#clip122)" style="stroke:#000000; stroke-linecap:round; stroke-linejoin:round; stroke-width:2; stroke-opacity:0.1; fill:none" points="217.783,457.634 2352.76,457.634 "></polyline>
<polyline clip-path="url(#clip122)" style="stroke:#000000; stroke-linecap:round; stroke-linejoin:round; stroke-width:2; stroke-opacity:0.1; fill:none" points="217.783,169.669 2352.76,169.669 "></polyline>
<polyline clip-path="url(#clip120)" style="stroke:#000000; stroke-linecap:round; stroke-linejoin:round; stroke-width:4; stroke-opacity:1; fill:none" points="217.783,1410.9 217.783,123.472 "></polyline>
<polyline clip-path="url(#clip120)" style="stroke:#000000; stroke-linecap:round; stroke-linejoin:round; stroke-width:4; stroke-opacity:1; fill:none" points="217.783,1321.53 236.681,1321.53 "></polyline>
<polyline clip-path="url(#clip120)" style="stroke:#000000; stroke-linecap:round; stroke-linejoin:round; stroke-width:4; stroke-opacity:1; fill:none" points="217.783,1033.57 236.681,1033.57 "></polyline>
<polyline clip-path="url(#clip120)" style="stroke:#000000; stroke-linecap:round; stroke-linejoin:round; stroke-width:4; stroke-opacity:1; fill:none" points="217.783,745.6 236.681,745.6 "></polyline>
<polyline clip-path="url(#clip120)" style="stroke:#000000; stroke-linecap:round; stroke-linejoin:round; stroke-width:4; stroke-opacity:1; fill:none" points="217.783,457.634 236.681,457.634 "></polyline>
<polyline clip-path="url(#clip120)" style="stroke:#000000; stroke-linecap:round; stroke-linejoin:round; stroke-width:4; stroke-opacity:1; fill:none" points="217.783,169.669 236.681,169.669 "></polyline>
<path clip-path="url(#clip120)" d="M115.418 1334.88 L123.056 1334.88 L123.056 1308.51 L114.746 1310.18 L114.746 1305.92 L123.01 1304.25 L127.686 1304.25 L127.686 1334.88 L135.325 1334.88 L135.325 1338.81 L115.418 1338.81 L115.418 1334.88 Z" fill="#000000" fill-rule="nonzero" fill-opacity="1"></path><path clip-path="url(#clip120)" d="M144.769 1332.93 L149.653 1332.93 L149.653 1338.81 L144.769 1338.81 L144.769 1332.93 Z" fill="#000000" fill-rule="nonzero" fill-opacity="1"></path><path clip-path="url(#clip120)" d="M169.839 1307.33 Q166.227 1307.33 164.399 1310.89 Q162.593 1314.44 162.593 1321.57 Q162.593 1328.67 164.399 1332.24 Q166.227 1335.78 169.839 1335.78 Q173.473 1335.78 175.278 1332.24 Q177.107 1328.67 177.107 1321.57 Q177.107 1314.44 175.278 1310.89 Q173.473 1307.33 169.839 1307.33 M169.839 1303.63 Q175.649 1303.63 178.704 1308.23 Q181.783 1312.82 181.783 1321.57 Q181.783 1330.29 178.704 1334.9 Q175.649 1339.48 169.839 1339.48 Q164.028 1339.48 160.95 1334.9 Q157.894 1330.29 157.894 1321.57 Q157.894 1312.82 160.95 1308.23 Q164.028 1303.63 169.839 1303.63 Z" fill="#000000" fill-rule="nonzero" fill-opacity="1"></path><path clip-path="url(#clip120)" d="M116.644 1046.91 L124.283 1046.91 L124.283 1020.54 L115.973 1022.21 L115.973 1017.95 L124.237 1016.29 L128.913 1016.29 L128.913 1046.91 L136.552 1046.91 L136.552 1050.85 L116.644 1050.85 L116.644 1046.91 Z" fill="#000000" fill-rule="nonzero" fill-opacity="1"></path><path clip-path="url(#clip120)" d="M145.996 1044.97 L150.88 1044.97 L150.88 1050.85 L145.996 1050.85 L145.996 1044.97 Z" fill="#000000" fill-rule="nonzero" fill-opacity="1"></path><path clip-path="url(#clip120)" d="M161.876 1046.91 L169.514 1046.91 L169.514 1020.54 L161.204 1022.21 L161.204 1017.95 L169.468 1016.29 L174.144 1016.29 L174.144 1046.91 L181.783 1046.91 L181.783 1050.85 L161.876 1050.85 L161.876 1046.91 Z" fill="#000000" fill-rule="nonzero" fill-opacity="1"></path><path clip-path="url(#clip120)" d="M117.015 758.945 L124.654 758.945 L124.654 732.579 L116.343 734.246 L116.343 729.986 L124.607 728.32 L129.283 728.32 L129.283 758.945 L136.922 758.945 L136.922 762.88 L117.015 762.88 L117.015 758.945 Z" fill="#000000" fill-rule="nonzero" fill-opacity="1"></path><path clip-path="url(#clip120)" d="M146.366 757 L151.251 757 L151.251 762.88 L146.366 762.88 L146.366 757 Z" fill="#000000" fill-rule="nonzero" fill-opacity="1"></path><path clip-path="url(#clip120)" d="M165.464 758.945 L181.783 758.945 L181.783 762.88 L159.839 762.88 L159.839 758.945 Q162.501 756.19 167.084 751.56 Q171.69 746.908 172.871 745.565 Q175.116 743.042 175.996 741.306 Q176.899 739.547 176.899 737.857 Q176.899 735.102 174.954 733.366 Q173.033 731.63 169.931 731.63 Q167.732 731.63 165.278 732.394 Q162.848 733.158 160.07 734.709 L160.07 729.986 Q162.894 728.852 165.348 728.273 Q167.802 727.695 169.839 727.695 Q175.209 727.695 178.403 730.38 Q181.598 733.065 181.598 737.556 Q181.598 739.685 180.788 741.607 Q180.001 743.505 177.894 746.097 Q177.315 746.769 174.214 749.986 Q171.112 753.181 165.464 758.945 Z" fill="#000000" fill-rule="nonzero" fill-opacity="1"></path><path clip-path="url(#clip120)" d="M116.066 470.979 L123.705 470.979 L123.705 444.614 L115.394 446.28 L115.394 442.021 L123.658 440.354 L128.334 440.354 L128.334 470.979 L135.973 470.979 L135.973 474.914 L116.066 474.914 L116.066 470.979 Z" fill="#000000" fill-rule="nonzero" fill-opacity="1"></path><path clip-path="url(#clip120)" d="M145.417 469.035 L150.302 469.035 L150.302 474.914 L145.417 474.914 L145.417 469.035 Z" fill="#000000" fill-rule="nonzero" fill-opacity="1"></path><path clip-path="url(#clip120)" d="M174.653 456.28 Q178.01 456.998 179.885 459.266 Q181.783 461.535 181.783 464.868 Q181.783 469.984 178.264 472.785 Q174.746 475.586 168.264 475.586 Q166.089 475.586 163.774 475.146 Q161.482 474.729 159.028 473.873 L159.028 469.359 Q160.973 470.493 163.288 471.072 Q165.602 471.651 168.126 471.651 Q172.524 471.651 174.815 469.914 Q177.13 468.178 177.13 464.868 Q177.13 461.813 174.977 460.1 Q172.848 458.364 169.028 458.364 L165.001 458.364 L165.001 454.521 L169.214 454.521 Q172.663 454.521 174.491 453.155 Q176.32 451.766 176.32 449.174 Q176.32 446.512 174.422 445.1 Q172.547 443.665 169.028 443.665 Q167.107 443.665 164.908 444.081 Q162.709 444.498 160.07 445.378 L160.07 441.211 Q162.732 440.47 165.047 440.1 Q167.385 439.729 169.445 439.729 Q174.769 439.729 177.871 442.16 Q180.973 444.567 180.973 448.688 Q180.973 451.558 179.329 453.549 Q177.686 455.516 174.653 456.28 Z" fill="#000000" fill-rule="nonzero" fill-opacity="1"></path><path clip-path="url(#clip120)" d="M114.931 183.014 L122.57 183.014 L122.57 156.648 L114.26 158.315 L114.26 154.056 L122.524 152.389 L127.2 152.389 L127.2 183.014 L134.839 183.014 L134.839 186.949 L114.931 186.949 L114.931 183.014 Z" fill="#000000" fill-rule="nonzero" fill-opacity="1"></path><path clip-path="url(#clip120)" d="M144.283 181.069 L149.167 181.069 L149.167 186.949 L144.283 186.949 L144.283 181.069 Z" fill="#000000" fill-rule="nonzero" fill-opacity="1"></path><path clip-path="url(#clip120)" d="M172.2 156.463 L160.394 174.912 L172.2 174.912 L172.2 156.463 M170.973 152.389 L176.852 152.389 L176.852 174.912 L181.783 174.912 L181.783 178.801 L176.852 178.801 L176.852 186.949 L172.2 186.949 L172.2 178.801 L156.598 178.801 L156.598 174.287 L170.973 152.389 Z" fill="#000000" fill-rule="nonzero" fill-opacity="1"></path><path clip-path="url(#clip120)" d="M18.0438 886.541 L24.314 886.541 Q22.5634 890.202 21.704 893.448 Q20.8447 896.695 20.8447 899.718 Q20.8447 904.97 22.8817 907.835 Q24.9187 910.667 28.6745 910.667 Q31.8255 910.667 33.4488 908.79 Q35.0402 906.88 36.0269 901.596 L36.8226 897.713 Q38.1912 890.52 41.6605 887.114 Q45.098 883.677 50.8908 883.677 Q57.7976 883.677 61.3624 888.324 Q64.9272 892.939 64.9272 901.883 Q64.9272 905.257 64.1633 909.076 Q63.3994 912.864 61.9035 916.938 L55.2831 916.938 Q57.4793 913.023 58.5933 909.267 Q59.7073 905.511 59.7073 901.883 Q59.7073 896.376 57.543 893.385 Q55.3786 890.393 51.3682 890.393 Q47.8671 890.393 45.8937 892.557 Q43.9204 894.689 42.9337 899.591 L42.1698 903.506 Q40.7375 910.699 37.682 913.914 Q34.6264 917.129 29.1837 917.129 Q22.8817 917.129 19.2532 912.704 Q15.6248 908.248 15.6248 900.45 Q15.6248 897.108 16.2295 893.639 Q16.8343 890.17 18.0438 886.541 Z" fill="#000000" fill-rule="nonzero" fill-opacity="1"></path><path clip-path="url(#clip120)" d="M58.657 868.24 L77.5631 868.24 L77.5631 874.128 L28.3562 874.128 L28.3562 868.24 L33.7671 868.24 Q30.5842 866.394 29.0564 863.593 Q27.4968 860.76 27.4968 856.845 Q27.4968 850.352 32.6531 846.31 Q37.8093 842.236 46.212 842.236 Q54.6147 842.236 59.771 846.31 Q64.9272 850.352 64.9272 856.845 Q64.9272 860.76 63.3994 863.593 Q61.8398 866.394 58.657 868.24 M46.212 848.315 Q39.7508 848.315 36.0905 850.989 Q32.3984 853.631 32.3984 858.278 Q32.3984 862.925 36.0905 865.598 Q39.7508 868.24 46.212 868.24 Q52.6732 868.24 56.3653 865.598 Q60.0256 862.925 60.0256 858.278 Q60.0256 853.631 56.3653 850.989 Q52.6732 848.315 46.212 848.315 Z" fill="#000000" fill-rule="nonzero" fill-opacity="1"></path><path clip-path="url(#clip120)" d="M44.7161 802.037 L47.5806 802.037 L47.5806 828.964 Q53.6281 828.582 56.8109 825.335 Q59.9619 822.057 59.9619 816.232 Q59.9619 812.858 59.1344 809.707 Q58.3069 806.524 56.6518 803.405 L62.1899 803.405 Q63.5267 806.556 64.227 809.866 Q64.9272 813.177 64.9272 816.582 Q64.9272 825.112 59.9619 830.109 Q54.9967 835.075 46.5303 835.075 Q37.7774 835.075 32.6531 830.364 Q27.4968 825.622 27.4968 817.601 Q27.4968 810.408 32.1438 806.238 Q36.7589 802.037 44.7161 802.037 M42.9973 807.893 Q38.1912 807.957 35.3266 810.599 Q32.4621 813.208 32.4621 817.537 Q32.4621 822.439 35.2312 825.399 Q38.0002 828.327 43.0292 828.773 L42.9973 807.893 Z" fill="#000000" fill-rule="nonzero" fill-opacity="1"></path><path clip-path="url(#clip120)" d="M44.7161 761.933 L47.5806 761.933 L47.5806 788.86 Q53.6281 788.478 56.8109 785.231 Q59.9619 781.953 59.9619 776.128 Q59.9619 772.754 59.1344 769.603 Q58.3069 766.42 56.6518 763.301 L62.1899 763.301 Q63.5267 766.452 64.227 769.762 Q64.9272 773.073 64.9272 776.478 Q64.9272 785.008 59.9619 790.005 Q54.9967 794.971 46.5303 794.971 Q37.7774 794.971 32.6531 790.26 Q27.4968 785.518 27.4968 777.497 Q27.4968 770.304 32.1438 766.134 Q36.7589 761.933 44.7161 761.933 M42.9973 767.789 Q38.1912 767.853 35.3266 770.495 Q32.4621 773.104 32.4621 777.433 Q32.4621 782.335 35.2312 785.295 Q38.0002 788.223 43.0292 788.669 L42.9973 767.789 Z" fill="#000000" fill-rule="nonzero" fill-opacity="1"></path><path clip-path="url(#clip120)" d="M33.7671 728.863 L14.479 728.863 L14.479 723.006 L64.0042 723.006 L64.0042 728.863 L58.657 728.863 Q61.8398 730.709 63.3994 733.542 Q64.9272 736.343 64.9272 740.289 Q64.9272 746.75 59.771 750.825 Q54.6147 754.867 46.212 754.867 Q37.8093 754.867 32.6531 750.825 Q27.4968 746.75 27.4968 740.289 Q27.4968 736.343 29.0564 733.542 Q30.5842 730.709 33.7671 728.863 M46.212 748.819 Q52.6732 748.819 56.3653 746.178 Q60.0256 743.504 60.0256 738.857 Q60.0256 734.21 56.3653 731.536 Q52.6732 728.863 46.212 728.863 Q39.7508 728.863 36.0905 731.536 Q32.3984 734.21 32.3984 738.857 Q32.3984 743.504 36.0905 746.178 Q39.7508 748.819 46.212 748.819 Z" fill="#000000" fill-rule="nonzero" fill-opacity="1"></path><path clip-path="url(#clip120)" d="M49.9359 690.828 L28.3562 690.828 L28.3562 684.971 L49.7131 684.971 Q54.7739 684.971 57.3202 682.998 Q59.8346 681.025 59.8346 677.078 Q59.8346 672.335 56.8109 669.598 Q53.7872 666.829 48.5673 666.829 L28.3562 666.829 L28.3562 660.973 L64.0042 660.973 L64.0042 666.829 L58.5296 666.829 Q61.7762 668.962 63.3676 671.794 Q64.9272 674.595 64.9272 678.319 Q64.9272 684.462 61.1078 687.645 Q57.2883 690.828 49.9359 690.828 M27.4968 676.091 L27.4968 676.091 Z" fill="#000000" fill-rule="nonzero" fill-opacity="1"></path><path clip-path="url(#clip120)" d="M58.657 643.244 L77.5631 643.244 L77.5631 649.132 L28.3562 649.132 L28.3562 643.244 L33.7671 643.244 Q30.5842 641.398 29.0564 638.597 Q27.4968 635.764 27.4968 631.849 Q27.4968 625.356 32.6531 621.314 Q37.8093 617.24 46.212 617.24 Q54.6147 617.24 59.771 621.314 Q64.9272 625.356 64.9272 631.849 Q64.9272 635.764 63.3994 638.597 Q61.8398 641.398 58.657 643.244 M46.212 623.319 Q39.7508 623.319 36.0905 625.993 Q32.3984 628.635 32.3984 633.282 Q32.3984 637.929 36.0905 640.602 Q39.7508 643.244 46.212 643.244 Q52.6732 643.244 56.3653 640.602 Q60.0256 637.929 60.0256 633.282 Q60.0256 628.635 56.3653 625.993 Q52.6732 623.319 46.212 623.319 Z" fill="#000000" fill-rule="nonzero" fill-opacity="1"></path><path clip-path="url(#clip120)" d="M1133.36 14.0809 L1133.36 22.0612 Q1128.7 19.8332 1124.57 18.7395 Q1120.44 17.6457 1116.59 17.6457 Q1109.91 17.6457 1106.26 20.2383 Q1102.65 22.8309 1102.65 27.611 Q1102.65 31.6214 1105.04 33.6873 Q1107.48 35.7128 1114.2 36.9686 L1119.14 37.9813 Q1128.3 39.7232 1132.63 44.1387 Q1137.01 48.5136 1137.01 55.8863 Q1137.01 64.6767 1131.09 69.2137 Q1125.22 73.7508 1113.84 73.7508 Q1109.54 73.7508 1104.68 72.7785 Q1099.86 71.8063 1094.67 69.9024 L1094.67 61.4765 Q1099.66 64.2716 1104.44 65.6895 Q1109.22 67.1073 1113.84 67.1073 Q1120.84 67.1073 1124.65 64.3527 Q1128.46 61.598 1128.46 56.4939 Q1128.46 52.0379 1125.7 49.5264 Q1122.99 47.0148 1116.75 45.759 L1111.77 44.7868 Q1102.61 42.9639 1098.52 39.075 Q1094.43 35.1862 1094.43 28.2591 Q1094.43 20.2383 1100.06 15.6203 Q1105.73 11.0023 1115.66 11.0023 Q1119.91 11.0023 1124.33 11.7719 Q1128.74 12.5416 1133.36 14.0809 Z" fill="#000000" fill-rule="nonzero" fill-opacity="1"></path><path clip-path="url(#clip120)" d="M1156.65 65.7705 L1156.65 89.8329 L1149.16 89.8329 L1149.16 27.2059 L1156.65 27.2059 L1156.65 34.0924 Q1159 30.0415 1162.57 28.0971 Q1166.17 26.1121 1171.16 26.1121 Q1179.42 26.1121 1184.56 32.6746 Q1189.75 39.2371 1189.75 49.9314 Q1189.75 60.6258 1184.56 67.1883 Q1179.42 73.7508 1171.16 73.7508 Q1166.17 73.7508 1162.57 71.8063 Q1159 69.8214 1156.65 65.7705 M1182.01 49.9314 Q1182.01 41.7081 1178.61 37.0496 Q1175.25 32.3505 1169.33 32.3505 Q1163.42 32.3505 1160.02 37.0496 Q1156.65 41.7081 1156.65 49.9314 Q1156.65 58.1548 1160.02 62.8538 Q1163.42 67.5124 1169.33 67.5124 Q1175.25 67.5124 1178.61 62.8538 Q1182.01 58.1548 1182.01 49.9314 Z" fill="#000000" fill-rule="nonzero" fill-opacity="1"></path><path clip-path="url(#clip120)" d="M1240.91 48.0275 L1240.91 51.6733 L1206.64 51.6733 Q1207.13 59.3701 1211.26 63.421 Q1215.43 67.4314 1222.84 67.4314 Q1227.14 67.4314 1231.15 66.3781 Q1235.2 65.3249 1239.17 63.2184 L1239.17 70.267 Q1235.16 71.9684 1230.95 72.8596 Q1226.73 73.7508 1222.4 73.7508 Q1211.54 73.7508 1205.18 67.4314 Q1198.86 61.1119 1198.86 50.3365 Q1198.86 39.1965 1204.86 32.6746 Q1210.89 26.1121 1221.1 26.1121 Q1230.26 26.1121 1235.56 32.0264 Q1240.91 37.9003 1240.91 48.0275 M1233.46 45.84 Q1233.38 39.7232 1230.02 36.0774 Q1226.69 32.4315 1221.18 32.4315 Q1214.95 32.4315 1211.18 35.9558 Q1207.45 39.4801 1206.88 45.8805 L1233.46 45.84 Z" fill="#000000" fill-rule="nonzero" fill-opacity="1"></path><path clip-path="url(#clip120)" d="M1291.95 48.0275 L1291.95 51.6733 L1257.68 51.6733 Q1258.17 59.3701 1262.3 63.421 Q1266.47 67.4314 1273.89 67.4314 Q1278.18 67.4314 1282.19 66.3781 Q1286.24 65.3249 1290.21 63.2184 L1290.21 70.267 Q1286.2 71.9684 1281.99 72.8596 Q1277.78 73.7508 1273.44 73.7508 Q1262.58 73.7508 1256.22 67.4314 Q1249.91 61.1119 1249.91 50.3365 Q1249.91 39.1965 1255.9 32.6746 Q1261.94 26.1121 1272.14 26.1121 Q1281.3 26.1121 1286.61 32.0264 Q1291.95 37.9003 1291.95 48.0275 M1284.5 45.84 Q1284.42 39.7232 1281.06 36.0774 Q1277.73 32.4315 1272.23 32.4315 Q1265.99 32.4315 1262.22 35.9558 Q1258.49 39.4801 1257.93 45.8805 L1284.5 45.84 Z" fill="#000000" fill-rule="nonzero" fill-opacity="1"></path><path clip-path="url(#clip120)" d="M1334.04 34.0924 L1334.04 9.54393 L1341.5 9.54393 L1341.5 72.576 L1334.04 72.576 L1334.04 65.7705 Q1331.69 69.8214 1328.09 71.8063 Q1324.52 73.7508 1319.5 73.7508 Q1311.28 73.7508 1306.09 67.1883 Q1300.95 60.6258 1300.95 49.9314 Q1300.95 39.2371 1306.09 32.6746 Q1311.28 26.1121 1319.5 26.1121 Q1324.52 26.1121 1328.09 28.0971 Q1331.69 30.0415 1334.04 34.0924 M1308.64 49.9314 Q1308.64 58.1548 1312.01 62.8538 Q1315.41 67.5124 1321.32 67.5124 Q1327.24 67.5124 1330.64 62.8538 Q1334.04 58.1548 1334.04 49.9314 Q1334.04 41.7081 1330.64 37.0496 Q1327.24 32.3505 1321.32 32.3505 Q1315.41 32.3505 1312.01 37.0496 Q1308.64 41.7081 1308.64 49.9314 Z" fill="#000000" fill-rule="nonzero" fill-opacity="1"></path><path clip-path="url(#clip120)" d="M1382.45 54.671 L1382.45 27.2059 L1389.9 27.2059 L1389.9 54.3874 Q1389.9 60.8284 1392.42 64.0691 Q1394.93 67.2693 1399.95 67.2693 Q1405.99 67.2693 1409.47 63.421 Q1412.99 59.5726 1412.99 52.9291 L1412.99 27.2059 L1420.45 27.2059 L1420.45 72.576 L1412.99 72.576 L1412.99 65.6084 Q1410.28 69.7404 1406.68 71.7658 Q1403.11 73.7508 1398.37 73.7508 Q1390.55 73.7508 1386.5 68.8897 Q1382.45 64.0286 1382.45 54.671 M1401.21 26.1121 L1401.21 26.1121 Z" fill="#000000" fill-rule="nonzero" fill-opacity="1"></path><path clip-path="url(#clip120)" d="M1443.01 65.7705 L1443.01 89.8329 L1435.52 89.8329 L1435.52 27.2059 L1443.01 27.2059 L1443.01 34.0924 Q1445.36 30.0415 1448.93 28.0971 Q1452.53 26.1121 1457.51 26.1121 Q1465.78 26.1121 1470.92 32.6746 Q1476.11 39.2371 1476.11 49.9314 Q1476.11 60.6258 1470.92 67.1883 Q1465.78 73.7508 1457.51 73.7508 Q1452.53 73.7508 1448.93 71.8063 Q1445.36 69.8214 1443.01 65.7705 M1468.37 49.9314 Q1468.37 41.7081 1464.97 37.0496 Q1461.61 32.3505 1455.69 32.3505 Q1449.78 32.3505 1446.37 37.0496 Q1443.01 41.7081 1443.01 49.9314 Q1443.01 58.1548 1446.37 62.8538 Q1449.78 67.5124 1455.69 67.5124 Q1461.61 67.5124 1464.97 62.8538 Q1468.37 58.1548 1468.37 49.9314 Z" fill="#000000" fill-rule="nonzero" fill-opacity="1"></path><polyline clip-path="url(#clip122)" style="stroke:#009af9; stroke-linecap:round; stroke-linejoin:round; stroke-width:4; stroke-opacity:1; fill:none" points="2292.33,159.909 1956.64,641.721 1620.96,902.539 1285.27,1326.89 949.582,1243.72 613.894,1374.46 278.207,562.277 "></polyline>
</svg>