<?xml version="1.0" standalone="no"?>
<!DOCTYPE svg PUBLIC "-//W3C//DTD SVG 20010904//EN"
 "http://www.w3.org/TR/2001/REC-SVG-20010904/DTD/svg10.dtd">
<svg version="1.0" xmlns="http://www.w3.org/2000/svg"
 width="298.000000pt" height="169.000000pt" viewBox="0 0 298.000000 169.000000"
 preserveAspectRatio="xMidYMid meet">

<g transform="translate(0.000000,169.000000) scale(0.100000,-0.100000)"
fill="#000000" stroke="none">
<path d="M800 1679 c-315 -36 -599 -244 -720 -527 -75 -176 -96 -409 -52 -574
41 -154 135 -300 249 -390 275 -216 632 -242 963 -72 144 74 298 213 353 319
14 27 16 28 22 10 20 -59 29 -75 51 -90 42 -27 89 -19 135 22 41 37 125 141
144 177 14 27 35 32 35 8 0 -11 -9 -64 -20 -118 -14 -68 -17 -101 -10 -108 18
-18 40 5 104 105 69 108 123 179 137 179 15 0 10 -66 -12 -183 -21 -110 -18
-136 13 -124 8 2 36 42 63 88 27 45 62 95 79 110 37 33 51 26 99 -47 18 -26
40 -52 49 -58 24 -15 56 6 98 62 87 116 152 192 162 186 11 -7 1 -155 -13
-189 -7 -17 -8 -17 -8 -2 -1 26 -30 20 -43 -9 -9 -19 -9 -45 0 -107 6 -44 16
-85 21 -90 12 -12 40 8 76 54 17 21 47 57 68 80 46 50 113 148 127 184 23 60
-35 14 -124 -98 -44 -55 -58 -60 -45 -14 21 73 40 185 46 267 5 83 4 88 -17
103 -15 11 -29 13 -39 7 -9 -4 -47 -54 -86 -110 -87 -127 -165 -222 -179 -217
-11 3 -27 32 -63 111 -36 79 -73 69 -147 -37 -22 -31 -40 -56 -41 -54 -1 1 4
40 11 87 7 47 13 107 13 133 l1 48 -32 -3 c-29 -3 -40 -14 -88 -83 -30 -45
-68 -96 -83 -115 l-28 -35 8 60 c4 33 8 80 8 105 0 88 -48 55 -156 -105 -75
-109 -95 -134 -136 -163 -39 -28 -48 -28 -78 3 -38 37 -32 69 24 131 96 105
131 224 76 260 -20 13 -31 15 -50 6 -34 -16 -100 -104 -120 -159 -21 -62 -108
-233 -153 -303 -145 -222 -411 -343 -725 -327 -187 9 -301 59 -428 187 -84 85
-144 190 -176 310 -25 90 -25 319 0 410 62 232 236 435 472 551 137 67 233 91
370 92 178 1 296 -45 405 -159 81 -84 113 -155 118 -257 7 -128 -43 -237 -168
-370 l-62 -67 -20 25 c-36 46 -122 28 -172 -38 -31 -40 -76 -136 -76 -161 0
-16 5 -18 44 -13 24 4 70 18 101 32 32 14 59 25 61 25 11 0 2 -84 -13 -131
-20 -62 -83 -134 -127 -145 -68 -17 -120 52 -120 156 1 77 26 141 79 202 37
44 44 68 21 68 -20 0 -93 -86 -122 -142 -28 -55 -54 -148 -54 -193 0 -86 59
-175 117 -175 70 0 173 76 230 170 30 50 63 153 63 198 0 36 5 43 56 83 182
140 283 332 255 487 -44 236 -287 424 -601 462 -94 11 -112 11 -220 -1z m960
-956 c0 -29 -63 -113 -75 -101 -10 9 56 128 71 128 2 0 4 -12 4 -27z m-550 3
c9 -12 2 -21 -44 -52 -31 -20 -59 -34 -62 -31 -7 7 13 63 29 85 13 17 62 15
77 -2z"/>
<path d="M709 1421 c-131 -42 -258 -142 -279 -220 -6 -23 -9 -45 -6 -48 12
-12 66 21 84 51 21 36 124 94 212 120 64 19 183 22 255 6 101 -22 179 -102
173 -176 -2 -31 -11 -44 -45 -70 -41 -31 -178 -86 -246 -99 l-37 -7 15 36 c21
49 45 168 45 220 0 37 -4 45 -22 50 -18 5 -29 -1 -49 -24 -21 -25 -27 -44 -32
-103 -3 -40 -13 -102 -23 -140 l-18 -67 -81 -25 c-68 -22 -85 -32 -112 -66
-18 -23 -33 -45 -33 -50 0 -14 35 -11 106 8 35 9 66 14 69 11 3 -3 -31 -79
-75 -169 -80 -164 -140 -322 -127 -335 19 -19 116 130 142 216 4 14 38 88 74
165 l67 140 164 65 c90 36 180 77 200 91 42 31 120 177 120 226 0 78 -116 176
-238 202 -81 17 -237 13 -303 -8z"/>
</g>
</svg>
