<svg xmlns="http://www.w3.org/2000/svg" xmlns:xlink="http://www.w3.org/1999/xlink" width="600" height="400" viewBox="0 0 2400 1600">
<defs>
  <clipPath id="clip750">
    <rect x="0" y="0" width="2400" height="1600"></rect>
  </clipPath>
</defs>
<path clip-path="url(#clip750)" d="M0 1600 L2400 1600 L2400 0 L0 0  Z" fill="#ffffff" fill-rule="evenodd" fill-opacity="1"></path>
<defs>
  <clipPath id="clip751">
    <rect x="480" y="0" width="1681" height="1600"></rect>
  </clipPath>
</defs>
<path clip-path="url(#clip750)" d="M276.349 1410.9 L2352.76 1410.9 L2352.76 123.472 L276.349 123.472  Z" fill="#ffffff" fill-rule="evenodd" fill-opacity="1"></path>
<defs>
  <clipPath id="clip752">
    <rect x="276" y="123" width="2077" height="1288"></rect>
  </clipPath>
</defs>
<polyline clip-path="url(#clip752)" style="stroke:#000000; stroke-linecap:round; stroke-linejoin:round; stroke-width:2; stroke-opacity:0.1; fill:none" points="304.022,1410.9 304.022,123.472 "></polyline>
<polyline clip-path="url(#clip752)" style="stroke:#000000; stroke-linecap:round; stroke-linejoin:round; stroke-width:2; stroke-opacity:0.1; fill:none" points="607.667,1410.9 607.667,123.472 "></polyline>
<polyline clip-path="url(#clip752)" style="stroke:#000000; stroke-linecap:round; stroke-linejoin:round; stroke-width:2; stroke-opacity:0.1; fill:none" points="911.312,1410.9 911.312,123.472 "></polyline>
<polyline clip-path="url(#clip752)" style="stroke:#000000; stroke-linecap:round; stroke-linejoin:round; stroke-width:2; stroke-opacity:0.1; fill:none" points="1214.96,1410.9 1214.96,123.472 "></polyline>
<polyline clip-path="url(#clip752)" style="stroke:#000000; stroke-linecap:round; stroke-linejoin:round; stroke-width:2; stroke-opacity:0.1; fill:none" points="1518.6,1410.9 1518.6,123.472 "></polyline>
<polyline clip-path="url(#clip752)" style="stroke:#000000; stroke-linecap:round; stroke-linejoin:round; stroke-width:2; stroke-opacity:0.1; fill:none" points="1822.25,1410.9 1822.25,123.472 "></polyline>
<polyline clip-path="url(#clip752)" style="stroke:#000000; stroke-linecap:round; stroke-linejoin:round; stroke-width:2; stroke-opacity:0.1; fill:none" points="2125.89,1410.9 2125.89,123.472 "></polyline>
<polyline clip-path="url(#clip750)" style="stroke:#000000; stroke-linecap:round; stroke-linejoin:round; stroke-width:4; stroke-opacity:1; fill:none" points="276.349,1410.9 2352.76,1410.9 "></polyline>
<polyline clip-path="url(#clip750)" style="stroke:#000000; stroke-linecap:round; stroke-linejoin:round; stroke-width:4; stroke-opacity:1; fill:none" points="304.022,1410.9 304.022,1392 "></polyline>
<polyline clip-path="url(#clip750)" style="stroke:#000000; stroke-linecap:round; stroke-linejoin:round; stroke-width:4; stroke-opacity:1; fill:none" points="607.667,1410.9 607.667,1392 "></polyline>
<polyline clip-path="url(#clip750)" style="stroke:#000000; stroke-linecap:round; stroke-linejoin:round; stroke-width:4; stroke-opacity:1; fill:none" points="911.312,1410.9 911.312,1392 "></polyline>
<polyline clip-path="url(#clip750)" style="stroke:#000000; stroke-linecap:round; stroke-linejoin:round; stroke-width:4; stroke-opacity:1; fill:none" points="1214.96,1410.9 1214.96,1392 "></polyline>
<polyline clip-path="url(#clip750)" style="stroke:#000000; stroke-linecap:round; stroke-linejoin:round; stroke-width:4; stroke-opacity:1; fill:none" points="1518.6,1410.9 1518.6,1392 "></polyline>
<polyline clip-path="url(#clip750)" style="stroke:#000000; stroke-linecap:round; stroke-linejoin:round; stroke-width:4; stroke-opacity:1; fill:none" points="1822.25,1410.9 1822.25,1392 "></polyline>
<polyline clip-path="url(#clip750)" style="stroke:#000000; stroke-linecap:round; stroke-linejoin:round; stroke-width:4; stroke-opacity:1; fill:none" points="2125.89,1410.9 2125.89,1392 "></polyline>
<path clip-path="url(#clip750)" d="M304.022 1441.82 Q300.411 1441.82 298.582 1445.38 Q296.777 1448.92 296.777 1456.05 Q296.777 1463.16 298.582 1466.72 Q300.411 1470.26 304.022 1470.26 Q307.656 1470.26 309.462 1466.72 Q311.29 1463.16 311.29 1456.05 Q311.29 1448.92 309.462 1445.38 Q307.656 1441.82 304.022 1441.82 M304.022 1438.11 Q309.832 1438.11 312.888 1442.72 Q315.966 1447.3 315.966 1456.05 Q315.966 1464.78 312.888 1469.38 Q309.832 1473.97 304.022 1473.97 Q298.212 1473.97 295.133 1469.38 Q292.078 1464.78 292.078 1456.05 Q292.078 1447.3 295.133 1442.72 Q298.212 1438.11 304.022 1438.11 Z" fill="#000000" fill-rule="nonzero" fill-opacity="1"></path><path clip-path="url(#clip750)" d="M514.566 1485.02 L522.204 1485.02 L522.204 1458.66 L513.894 1460.32 L513.894 1456.06 L522.158 1454.4 L526.834 1454.4 L526.834 1485.02 L534.473 1485.02 L534.473 1488.96 L514.566 1488.96 L514.566 1485.02 Z" fill="#000000" fill-rule="nonzero" fill-opacity="1"></path><path clip-path="url(#clip750)" d="M543.917 1483.08 L548.801 1483.08 L548.801 1488.96 L543.917 1488.96 L543.917 1483.08 Z" fill="#000000" fill-rule="nonzero" fill-opacity="1"></path><path clip-path="url(#clip750)" d="M568.987 1457.48 Q565.375 1457.48 563.547 1461.04 Q561.741 1464.58 561.741 1471.71 Q561.741 1478.82 563.547 1482.38 Q565.375 1485.92 568.987 1485.92 Q572.621 1485.92 574.426 1482.38 Q576.255 1478.82 576.255 1471.71 Q576.255 1464.58 574.426 1461.04 Q572.621 1457.48 568.987 1457.48 M568.987 1453.77 Q574.797 1453.77 577.852 1458.38 Q580.931 1462.96 580.931 1471.71 Q580.931 1480.44 577.852 1485.04 Q574.797 1489.63 568.987 1489.63 Q563.176 1489.63 560.098 1485.04 Q557.042 1480.44 557.042 1471.71 Q557.042 1462.96 560.098 1458.38 Q563.176 1453.77 568.987 1453.77 Z" fill="#000000" fill-rule="nonzero" fill-opacity="1"></path><path clip-path="url(#clip750)" d="M617.32 1463.49 L606.741 1474.12 L617.32 1484.7 L614.565 1487.5 L603.94 1476.87 L593.315 1487.5 L590.584 1484.7 L601.139 1474.12 L590.584 1463.49 L593.315 1460.69 L603.94 1471.32 L614.565 1460.69 L617.32 1463.49 Z" fill="#000000" fill-rule="nonzero" fill-opacity="1"></path><path clip-path="url(#clip750)" d="M629.681 1485.02 L637.319 1485.02 L637.319 1458.66 L629.009 1460.32 L629.009 1456.06 L637.273 1454.4 L641.949 1454.4 L641.949 1485.02 L649.588 1485.02 L649.588 1488.96 L629.681 1488.96 L629.681 1485.02 Z" fill="#000000" fill-rule="nonzero" fill-opacity="1"></path><path clip-path="url(#clip750)" d="M669.032 1457.48 Q665.421 1457.48 663.592 1461.04 Q661.787 1464.58 661.787 1471.71 Q661.787 1478.82 663.592 1482.38 Q665.421 1485.92 669.032 1485.92 Q672.667 1485.92 674.472 1482.38 Q676.301 1478.82 676.301 1471.71 Q676.301 1464.58 674.472 1461.04 Q672.667 1457.48 669.032 1457.48 M669.032 1453.77 Q674.842 1453.77 677.898 1458.38 Q680.977 1462.96 680.977 1471.71 Q680.977 1480.44 677.898 1485.04 Q674.842 1489.63 669.032 1489.63 Q663.222 1489.63 660.143 1485.04 Q657.088 1480.44 657.088 1471.71 Q657.088 1462.96 660.143 1458.38 Q663.222 1453.77 669.032 1453.77 Z" fill="#000000" fill-rule="nonzero" fill-opacity="1"></path><path clip-path="url(#clip750)" d="M693.653 1436.78 L684.061 1451.77 L693.653 1451.77 L693.653 1436.78 M692.656 1433.47 L697.433 1433.47 L697.433 1451.77 L701.44 1451.77 L701.44 1454.93 L697.433 1454.93 L697.433 1461.55 L693.653 1461.55 L693.653 1454.93 L680.977 1454.93 L680.977 1451.26 L692.656 1433.47 Z" fill="#000000" fill-rule="nonzero" fill-opacity="1"></path><path clip-path="url(#clip750)" d="M822.296 1485.02 L838.615 1485.02 L838.615 1488.96 L816.671 1488.96 L816.671 1485.02 Q819.333 1482.27 823.916 1477.64 Q828.523 1472.98 829.703 1471.64 Q831.949 1469.12 832.828 1467.38 Q833.731 1465.62 833.731 1463.93 Q833.731 1461.18 831.787 1459.44 Q829.866 1457.71 826.764 1457.71 Q824.565 1457.71 822.111 1458.47 Q819.68 1459.23 816.903 1460.79 L816.903 1456.06 Q819.727 1454.93 822.18 1454.35 Q824.634 1453.77 826.671 1453.77 Q832.041 1453.77 835.236 1456.46 Q838.43 1459.14 838.43 1463.63 Q838.43 1465.76 837.62 1467.68 Q836.833 1469.58 834.727 1472.17 Q834.148 1472.85 831.046 1476.06 Q827.944 1479.26 822.296 1485.02 Z" fill="#000000" fill-rule="nonzero" fill-opacity="1"></path><path clip-path="url(#clip750)" d="M848.43 1483.08 L853.314 1483.08 L853.314 1488.96 L848.43 1488.96 L848.43 1483.08 Z" fill="#000000" fill-rule="nonzero" fill-opacity="1"></path><path clip-path="url(#clip750)" d="M873.5 1457.48 Q869.888 1457.48 868.06 1461.04 Q866.254 1464.58 866.254 1471.71 Q866.254 1478.82 868.06 1482.38 Q869.888 1485.92 873.5 1485.92 Q877.134 1485.92 878.939 1482.38 Q880.768 1478.82 880.768 1471.71 Q880.768 1464.58 878.939 1461.04 Q877.134 1457.48 873.5 1457.48 M873.5 1453.77 Q879.31 1453.77 882.365 1458.38 Q885.444 1462.96 885.444 1471.71 Q885.444 1480.44 882.365 1485.04 Q879.31 1489.63 873.5 1489.63 Q867.689 1489.63 864.611 1485.04 Q861.555 1480.44 861.555 1471.71 Q861.555 1462.96 864.611 1458.38 Q867.689 1453.77 873.5 1453.77 Z" fill="#000000" fill-rule="nonzero" fill-opacity="1"></path><path clip-path="url(#clip750)" d="M921.833 1463.49 L911.254 1474.12 L921.833 1484.7 L919.078 1487.5 L908.453 1476.87 L897.828 1487.5 L895.097 1484.7 L905.652 1474.12 L895.097 1463.49 L897.828 1460.69 L908.453 1471.32 L919.078 1460.69 L921.833 1463.49 Z" fill="#000000" fill-rule="nonzero" fill-opacity="1"></path><path clip-path="url(#clip750)" d="M934.194 1485.02 L941.833 1485.02 L941.833 1458.66 L933.522 1460.32 L933.522 1456.06 L941.786 1454.4 L946.462 1454.4 L946.462 1485.02 L954.101 1485.02 L954.101 1488.96 L934.194 1488.96 L934.194 1485.02 Z" fill="#000000" fill-rule="nonzero" fill-opacity="1"></path><path clip-path="url(#clip750)" d="M973.545 1457.48 Q969.934 1457.48 968.106 1461.04 Q966.3 1464.58 966.3 1471.71 Q966.3 1478.82 968.106 1482.38 Q969.934 1485.92 973.545 1485.92 Q977.18 1485.92 978.985 1482.38 Q980.814 1478.82 980.814 1471.71 Q980.814 1464.58 978.985 1461.04 Q977.18 1457.48 973.545 1457.48 M973.545 1453.77 Q979.355 1453.77 982.411 1458.38 Q985.49 1462.96 985.49 1471.71 Q985.49 1480.44 982.411 1485.04 Q979.355 1489.63 973.545 1489.63 Q967.735 1489.63 964.656 1485.04 Q961.601 1480.44 961.601 1471.71 Q961.601 1462.96 964.656 1458.38 Q967.735 1453.77 973.545 1453.77 Z" fill="#000000" fill-rule="nonzero" fill-opacity="1"></path><path clip-path="url(#clip750)" d="M998.166 1436.78 L988.574 1451.77 L998.166 1451.77 L998.166 1436.78 M997.169 1433.47 L1001.95 1433.47 L1001.95 1451.77 L1005.95 1451.77 L1005.95 1454.93 L1001.95 1454.93 L1001.95 1461.55 L998.166 1461.55 L998.166 1454.93 L985.49 1454.93 L985.49 1451.26 L997.169 1433.47 Z" fill="#000000" fill-rule="nonzero" fill-opacity="1"></path><path clip-path="url(#clip750)" d="M1136.01 1470.32 Q1139.37 1471.04 1141.24 1473.31 Q1143.14 1475.58 1143.14 1478.91 Q1143.14 1484.03 1139.62 1486.83 Q1136.1 1489.63 1129.62 1489.63 Q1127.45 1489.63 1125.13 1489.19 Q1122.84 1488.77 1120.39 1487.91 L1120.39 1483.4 Q1122.33 1484.54 1124.64 1485.11 Q1126.96 1485.69 1129.48 1485.69 Q1133.88 1485.69 1136.17 1483.96 Q1138.49 1482.22 1138.49 1478.91 Q1138.49 1475.85 1136.33 1474.14 Q1134.2 1472.41 1130.39 1472.41 L1126.36 1472.41 L1126.36 1468.56 L1130.57 1468.56 Q1134.02 1468.56 1135.85 1467.2 Q1137.68 1465.81 1137.68 1463.22 Q1137.68 1460.55 1135.78 1459.14 Q1133.9 1457.71 1130.39 1457.71 Q1128.46 1457.71 1126.27 1458.12 Q1124.07 1458.54 1121.43 1459.42 L1121.43 1455.25 Q1124.09 1454.51 1126.4 1454.14 Q1128.74 1453.77 1130.8 1453.77 Q1136.13 1453.77 1139.23 1456.2 Q1142.33 1458.61 1142.33 1462.73 Q1142.33 1465.6 1140.69 1467.59 Q1139.04 1469.56 1136.01 1470.32 Z" fill="#000000" fill-rule="nonzero" fill-opacity="1"></path><path clip-path="url(#clip750)" d="M1152.01 1483.08 L1156.89 1483.08 L1156.89 1488.96 L1152.01 1488.96 L1152.01 1483.08 Z" fill="#000000" fill-rule="nonzero" fill-opacity="1"></path><path clip-path="url(#clip750)" d="M1177.08 1457.48 Q1173.46 1457.48 1171.64 1461.04 Q1169.83 1464.58 1169.83 1471.71 Q1169.83 1478.82 1171.64 1482.38 Q1173.46 1485.92 1177.08 1485.92 Q1180.71 1485.92 1182.51 1482.38 Q1184.34 1478.82 1184.34 1471.71 Q1184.34 1464.58 1182.51 1461.04 Q1180.71 1457.48 1177.08 1457.48 M1177.08 1453.77 Q1182.89 1453.77 1185.94 1458.38 Q1189.02 1462.96 1189.02 1471.71 Q1189.02 1480.44 1185.94 1485.04 Q1182.89 1489.63 1177.08 1489.63 Q1171.26 1489.63 1168.19 1485.04 Q1165.13 1480.44 1165.13 1471.71 Q1165.13 1462.96 1168.19 1458.38 Q1171.26 1453.77 1177.08 1453.77 Z" fill="#000000" fill-rule="nonzero" fill-opacity="1"></path><path clip-path="url(#clip750)" d="M1225.41 1463.49 L1214.83 1474.12 L1225.41 1484.7 L1222.65 1487.5 L1212.03 1476.87 L1201.4 1487.5 L1198.67 1484.7 L1209.23 1474.12 L1198.67 1463.49 L1201.4 1460.69 L1212.03 1471.32 L1222.65 1460.69 L1225.41 1463.49 Z" fill="#000000" fill-rule="nonzero" fill-opacity="1"></path><path clip-path="url(#clip750)" d="M1237.77 1485.02 L1245.41 1485.02 L1245.41 1458.66 L1237.1 1460.32 L1237.1 1456.06 L1245.36 1454.4 L1250.04 1454.4 L1250.04 1485.02 L1257.68 1485.02 L1257.68 1488.96 L1237.77 1488.96 L1237.77 1485.02 Z" fill="#000000" fill-rule="nonzero" fill-opacity="1"></path><path clip-path="url(#clip750)" d="M1277.12 1457.48 Q1273.51 1457.48 1271.68 1461.04 Q1269.88 1464.58 1269.88 1471.71 Q1269.88 1478.82 1271.68 1482.38 Q1273.51 1485.92 1277.12 1485.92 Q1280.76 1485.92 1282.56 1482.38 Q1284.39 1478.82 1284.39 1471.71 Q1284.39 1464.58 1282.56 1461.04 Q1280.76 1457.48 1277.12 1457.48 M1277.12 1453.77 Q1282.93 1453.77 1285.99 1458.38 Q1289.07 1462.96 1289.07 1471.71 Q1289.07 1480.44 1285.99 1485.04 Q1282.93 1489.63 1277.12 1489.63 Q1271.31 1489.63 1268.23 1485.04 Q1265.18 1480.44 1265.18 1471.71 Q1265.18 1462.96 1268.23 1458.38 Q1271.31 1453.77 1277.12 1453.77 Z" fill="#000000" fill-rule="nonzero" fill-opacity="1"></path><path clip-path="url(#clip750)" d="M1301.74 1436.78 L1292.15 1451.77 L1301.74 1451.77 L1301.74 1436.78 M1300.74 1433.47 L1305.52 1433.47 L1305.52 1451.77 L1309.53 1451.77 L1309.53 1454.93 L1305.52 1454.93 L1305.52 1461.55 L1301.74 1461.55 L1301.74 1454.93 L1289.07 1454.93 L1289.07 1451.26 L1300.74 1433.47 Z" fill="#000000" fill-rule="nonzero" fill-opacity="1"></path><path clip-path="url(#clip750)" d="M1438.98 1458.47 L1427.18 1476.92 L1438.98 1476.92 L1438.98 1458.47 M1437.76 1454.4 L1443.64 1454.4 L1443.64 1476.92 L1448.57 1476.92 L1448.57 1480.81 L1443.64 1480.81 L1443.64 1488.96 L1438.98 1488.96 L1438.98 1480.81 L1423.38 1480.81 L1423.38 1476.29 L1437.76 1454.4 Z" fill="#000000" fill-rule="nonzero" fill-opacity="1"></path><path clip-path="url(#clip750)" d="M1456.3 1483.08 L1461.18 1483.08 L1461.18 1488.96 L1456.3 1488.96 L1456.3 1483.08 Z" fill="#000000" fill-rule="nonzero" fill-opacity="1"></path><path clip-path="url(#clip750)" d="M1481.37 1457.48 Q1477.76 1457.48 1475.93 1461.04 Q1474.12 1464.58 1474.12 1471.71 Q1474.12 1478.82 1475.93 1482.38 Q1477.76 1485.92 1481.37 1485.92 Q1485 1485.92 1486.81 1482.38 Q1488.64 1478.82 1488.64 1471.71 Q1488.64 1464.58 1486.81 1461.04 Q1485 1457.48 1481.37 1457.48 M1481.37 1453.77 Q1487.18 1453.77 1490.23 1458.38 Q1493.31 1462.96 1493.31 1471.71 Q1493.31 1480.44 1490.23 1485.04 Q1487.18 1489.63 1481.37 1489.63 Q1475.56 1489.63 1472.48 1485.04 Q1469.42 1480.44 1469.42 1471.71 Q1469.42 1462.96 1472.48 1458.38 Q1475.56 1453.77 1481.37 1453.77 Z" fill="#000000" fill-rule="nonzero" fill-opacity="1"></path><path clip-path="url(#clip750)" d="M1529.7 1463.49 L1519.12 1474.12 L1529.7 1484.7 L1526.95 1487.5 L1516.32 1476.87 L1505.7 1487.5 L1502.97 1484.7 L1513.52 1474.12 L1502.97 1463.49 L1505.7 1460.69 L1516.32 1471.32 L1526.95 1460.69 L1529.7 1463.49 Z" fill="#000000" fill-rule="nonzero" fill-opacity="1"></path><path clip-path="url(#clip750)" d="M1542.06 1485.02 L1549.7 1485.02 L1549.7 1458.66 L1541.39 1460.32 L1541.39 1456.06 L1549.65 1454.4 L1554.33 1454.4 L1554.33 1485.02 L1561.97 1485.02 L1561.97 1488.96 L1542.06 1488.96 L1542.06 1485.02 Z" fill="#000000" fill-rule="nonzero" fill-opacity="1"></path><path clip-path="url(#clip750)" d="M1581.41 1457.48 Q1577.8 1457.48 1575.97 1461.04 Q1574.17 1464.58 1574.17 1471.71 Q1574.17 1478.82 1575.97 1482.38 Q1577.8 1485.92 1581.41 1485.92 Q1585.05 1485.92 1586.85 1482.38 Q1588.68 1478.82 1588.68 1471.71 Q1588.68 1464.58 1586.85 1461.04 Q1585.05 1457.48 1581.41 1457.48 M1581.41 1453.77 Q1587.22 1453.77 1590.28 1458.38 Q1593.36 1462.96 1593.36 1471.71 Q1593.36 1480.44 1590.28 1485.04 Q1587.22 1489.63 1581.41 1489.63 Q1575.6 1489.63 1572.53 1485.04 Q1569.47 1480.44 1569.47 1471.71 Q1569.47 1462.96 1572.53 1458.38 Q1575.6 1453.77 1581.41 1453.77 Z" fill="#000000" fill-rule="nonzero" fill-opacity="1"></path><path clip-path="url(#clip750)" d="M1606.03 1436.78 L1596.44 1451.77 L1606.03 1451.77 L1606.03 1436.78 M1605.04 1433.47 L1609.82 1433.47 L1609.82 1451.77 L1613.82 1451.77 L1613.82 1454.93 L1609.82 1454.93 L1609.82 1461.55 L1606.03 1461.55 L1606.03 1454.93 L1593.36 1454.93 L1593.36 1451.26 L1605.04 1433.47 Z" fill="#000000" fill-rule="nonzero" fill-opacity="1"></path><path clip-path="url(#clip750)" d="M1729.16 1454.4 L1747.51 1454.4 L1747.51 1458.33 L1733.44 1458.33 L1733.44 1466.8 Q1734.46 1466.46 1735.48 1466.29 Q1736.49 1466.11 1737.51 1466.11 Q1743.3 1466.11 1746.68 1469.28 Q1750.06 1472.45 1750.06 1477.87 Q1750.06 1483.45 1746.59 1486.55 Q1743.12 1489.63 1736.8 1489.63 Q1734.62 1489.63 1732.35 1489.26 Q1730.11 1488.89 1727.7 1488.15 L1727.7 1483.45 Q1729.78 1484.58 1732 1485.14 Q1734.23 1485.69 1736.7 1485.69 Q1740.71 1485.69 1743.05 1483.59 Q1745.38 1481.48 1745.38 1477.87 Q1745.38 1474.26 1743.05 1472.15 Q1740.71 1470.04 1736.7 1470.04 Q1734.83 1470.04 1732.95 1470.46 Q1731.1 1470.88 1729.16 1471.76 L1729.16 1454.4 Z" fill="#000000" fill-rule="nonzero" fill-opacity="1"></path><path clip-path="url(#clip750)" d="M1759.27 1483.08 L1764.16 1483.08 L1764.16 1488.96 L1759.27 1488.96 L1759.27 1483.08 Z" fill="#000000" fill-rule="nonzero" fill-opacity="1"></path><path clip-path="url(#clip750)" d="M1784.34 1457.48 Q1780.73 1457.48 1778.9 1461.04 Q1777.1 1464.58 1777.1 1471.71 Q1777.1 1478.82 1778.9 1482.38 Q1780.73 1485.92 1784.34 1485.92 Q1787.98 1485.92 1789.78 1482.38 Q1791.61 1478.82 1791.61 1471.71 Q1791.61 1464.58 1789.78 1461.04 Q1787.98 1457.48 1784.34 1457.48 M1784.34 1453.77 Q1790.15 1453.77 1793.21 1458.38 Q1796.29 1462.96 1796.29 1471.71 Q1796.29 1480.44 1793.21 1485.04 Q1790.15 1489.63 1784.34 1489.63 Q1778.53 1489.63 1775.45 1485.04 Q1772.4 1480.44 1772.4 1471.71 Q1772.4 1462.96 1775.45 1458.38 Q1778.53 1453.77 1784.34 1453.77 Z" fill="#000000" fill-rule="nonzero" fill-opacity="1"></path><path clip-path="url(#clip750)" d="M1832.68 1463.49 L1822.1 1474.12 L1832.68 1484.7 L1829.92 1487.5 L1819.3 1476.87 L1808.67 1487.5 L1805.94 1484.7 L1816.49 1474.12 L1805.94 1463.49 L1808.67 1460.69 L1819.3 1471.32 L1829.92 1460.69 L1832.68 1463.49 Z" fill="#000000" fill-rule="nonzero" fill-opacity="1"></path><path clip-path="url(#clip750)" d="M1845.04 1485.02 L1852.67 1485.02 L1852.67 1458.66 L1844.36 1460.32 L1844.36 1456.06 L1852.63 1454.4 L1857.3 1454.4 L1857.3 1485.02 L1864.94 1485.02 L1864.94 1488.96 L1845.04 1488.96 L1845.04 1485.02 Z" fill="#000000" fill-rule="nonzero" fill-opacity="1"></path><path clip-path="url(#clip750)" d="M1884.39 1457.48 Q1880.78 1457.48 1878.95 1461.04 Q1877.14 1464.58 1877.14 1471.71 Q1877.14 1478.82 1878.95 1482.38 Q1880.78 1485.92 1884.39 1485.92 Q1888.02 1485.92 1889.83 1482.38 Q1891.66 1478.82 1891.66 1471.71 Q1891.66 1464.58 1889.83 1461.04 Q1888.02 1457.48 1884.39 1457.48 M1884.39 1453.77 Q1890.2 1453.77 1893.25 1458.38 Q1896.33 1462.96 1896.33 1471.71 Q1896.33 1480.44 1893.25 1485.04 Q1890.2 1489.63 1884.39 1489.63 Q1878.58 1489.63 1875.5 1485.04 Q1872.44 1480.44 1872.44 1471.71 Q1872.44 1462.96 1875.5 1458.38 Q1878.58 1453.77 1884.39 1453.77 Z" fill="#000000" fill-rule="nonzero" fill-opacity="1"></path><path clip-path="url(#clip750)" d="M1909.01 1436.78 L1899.42 1451.77 L1909.01 1451.77 L1909.01 1436.78 M1908.01 1433.47 L1912.79 1433.47 L1912.79 1451.77 L1916.79 1451.77 L1916.79 1454.93 L1912.79 1454.93 L1912.79 1461.55 L1909.01 1461.55 L1909.01 1454.93 L1896.33 1454.93 L1896.33 1451.26 L1908.01 1433.47 Z" fill="#000000" fill-rule="nonzero" fill-opacity="1"></path><path clip-path="url(#clip750)" d="M2043.51 1469.81 Q2040.36 1469.81 2038.51 1471.97 Q2036.68 1474.12 2036.68 1477.87 Q2036.68 1481.6 2038.51 1483.77 Q2040.36 1485.92 2043.51 1485.92 Q2046.66 1485.92 2048.48 1483.77 Q2050.34 1481.6 2050.34 1477.87 Q2050.34 1474.12 2048.48 1471.97 Q2046.66 1469.81 2043.51 1469.81 M2052.79 1455.16 L2052.79 1459.42 Q2051.03 1458.59 2049.23 1458.15 Q2047.44 1457.71 2045.68 1457.71 Q2041.05 1457.71 2038.6 1460.83 Q2036.17 1463.96 2035.82 1470.28 Q2037.19 1468.26 2039.25 1467.2 Q2041.31 1466.11 2043.79 1466.11 Q2048.99 1466.11 2052 1469.28 Q2055.04 1472.43 2055.04 1477.87 Q2055.04 1483.19 2051.89 1486.41 Q2048.74 1489.63 2043.51 1489.63 Q2037.51 1489.63 2034.34 1485.04 Q2031.17 1480.44 2031.17 1471.71 Q2031.17 1463.52 2035.06 1458.66 Q2038.95 1453.77 2045.5 1453.77 Q2047.26 1453.77 2049.04 1454.12 Q2050.85 1454.47 2052.79 1455.16 Z" fill="#000000" fill-rule="nonzero" fill-opacity="1"></path><path clip-path="url(#clip750)" d="M2063.09 1483.08 L2067.98 1483.08 L2067.98 1488.96 L2063.09 1488.96 L2063.09 1483.08 Z" fill="#000000" fill-rule="nonzero" fill-opacity="1"></path><path clip-path="url(#clip750)" d="M2088.16 1457.48 Q2084.55 1457.48 2082.72 1461.04 Q2080.92 1464.58 2080.92 1471.71 Q2080.92 1478.82 2082.72 1482.38 Q2084.55 1485.92 2088.16 1485.92 Q2091.79 1485.92 2093.6 1482.38 Q2095.43 1478.82 2095.43 1471.71 Q2095.43 1464.58 2093.6 1461.04 Q2091.79 1457.48 2088.16 1457.48 M2088.16 1453.77 Q2093.97 1453.77 2097.03 1458.38 Q2100.1 1462.96 2100.1 1471.71 Q2100.1 1480.44 2097.03 1485.04 Q2093.97 1489.63 2088.16 1489.63 Q2082.35 1489.63 2079.27 1485.04 Q2076.22 1480.44 2076.22 1471.71 Q2076.22 1462.96 2079.27 1458.38 Q2082.35 1453.77 2088.16 1453.77 Z" fill="#000000" fill-rule="nonzero" fill-opacity="1"></path><path clip-path="url(#clip750)" d="M2136.49 1463.49 L2125.91 1474.12 L2136.49 1484.7 L2133.74 1487.5 L2123.11 1476.87 L2112.49 1487.5 L2109.76 1484.7 L2120.31 1474.12 L2109.76 1463.49 L2112.49 1460.69 L2123.11 1471.32 L2133.74 1460.69 L2136.49 1463.49 Z" fill="#000000" fill-rule="nonzero" fill-opacity="1"></path><path clip-path="url(#clip750)" d="M2148.85 1485.02 L2156.49 1485.02 L2156.49 1458.66 L2148.18 1460.32 L2148.18 1456.06 L2156.45 1454.4 L2161.12 1454.4 L2161.12 1485.02 L2168.76 1485.02 L2168.76 1488.96 L2148.85 1488.96 L2148.85 1485.02 Z" fill="#000000" fill-rule="nonzero" fill-opacity="1"></path><path clip-path="url(#clip750)" d="M2188.21 1457.48 Q2184.6 1457.48 2182.77 1461.04 Q2180.96 1464.58 2180.96 1471.71 Q2180.96 1478.82 2182.77 1482.38 Q2184.6 1485.92 2188.21 1485.92 Q2191.84 1485.92 2193.65 1482.38 Q2195.47 1478.82 2195.47 1471.71 Q2195.47 1464.58 2193.65 1461.04 Q2191.84 1457.48 2188.21 1457.48 M2188.21 1453.77 Q2194.02 1453.77 2197.07 1458.38 Q2200.15 1462.96 2200.15 1471.71 Q2200.15 1480.44 2197.07 1485.04 Q2194.02 1489.63 2188.21 1489.63 Q2182.4 1489.63 2179.32 1485.04 Q2176.26 1480.44 2176.26 1471.71 Q2176.26 1462.96 2179.32 1458.38 Q2182.4 1453.77 2188.21 1453.77 Z" fill="#000000" fill-rule="nonzero" fill-opacity="1"></path><path clip-path="url(#clip750)" d="M2212.83 1436.78 L2203.24 1451.77 L2212.83 1451.77 L2212.83 1436.78 M2211.83 1433.47 L2216.61 1433.47 L2216.61 1451.77 L2220.61 1451.77 L2220.61 1454.93 L2216.61 1454.93 L2216.61 1461.55 L2212.83 1461.55 L2212.83 1454.93 L2200.15 1454.93 L2200.15 1451.26 L2211.83 1433.47 Z" fill="#000000" fill-rule="nonzero" fill-opacity="1"></path><path clip-path="url(#clip750)" d="M1139.61 1526.67 L1149.19 1526.67 L1161.31 1559 L1173.5 1526.67 L1183.08 1526.67 L1183.08 1574.19 L1176.81 1574.19 L1176.81 1532.46 L1164.56 1565.05 L1158.1 1565.05 L1145.85 1532.46 L1145.85 1574.19 L1139.61 1574.19 L1139.61 1526.67 Z" fill="#000000" fill-rule="nonzero" fill-opacity="1"></path><path clip-path="url(#clip750)" d="M1211.79 1556.27 Q1204.7 1556.27 1201.96 1557.89 Q1199.22 1559.51 1199.22 1563.43 Q1199.22 1566.55 1201.26 1568.39 Q1203.33 1570.21 1206.86 1570.21 Q1211.73 1570.21 1214.66 1566.77 Q1217.62 1563.3 1217.62 1557.57 L1217.62 1556.27 L1211.79 1556.27 M1223.48 1553.85 L1223.48 1574.19 L1217.62 1574.19 L1217.62 1568.77 Q1215.61 1572.02 1212.62 1573.58 Q1209.63 1575.11 1205.3 1575.11 Q1199.83 1575.11 1196.58 1572.05 Q1193.37 1568.97 1193.37 1563.81 Q1193.37 1557.79 1197.38 1554.74 Q1201.42 1551.68 1209.41 1551.68 L1217.62 1551.68 L1217.62 1551.11 Q1217.62 1547.07 1214.95 1544.87 Q1212.3 1542.64 1207.5 1542.64 Q1204.44 1542.64 1201.55 1543.38 Q1198.65 1544.11 1195.98 1545.57 L1195.98 1540.16 Q1199.19 1538.92 1202.21 1538.31 Q1205.24 1537.68 1208.1 1537.68 Q1215.84 1537.68 1219.66 1541.69 Q1223.48 1545.7 1223.48 1553.85 Z" fill="#000000" fill-rule="nonzero" fill-opacity="1"></path><path clip-path="url(#clip750)" d="M1241.33 1528.42 L1241.33 1538.54 L1253.39 1538.54 L1253.39 1543.09 L1241.33 1543.09 L1241.33 1562.44 Q1241.33 1566.8 1242.51 1568.04 Q1243.72 1569.28 1247.38 1569.28 L1253.39 1569.28 L1253.39 1574.19 L1247.38 1574.19 Q1240.6 1574.19 1238.02 1571.67 Q1235.44 1569.12 1235.44 1562.44 L1235.44 1543.09 L1231.15 1543.09 L1231.15 1538.54 L1235.44 1538.54 L1235.44 1528.42 L1241.33 1528.42 Z" fill="#000000" fill-rule="nonzero" fill-opacity="1"></path><path clip-path="url(#clip750)" d="M1281.75 1544.01 Q1280.77 1543.44 1279.59 1543.18 Q1278.44 1542.9 1277.04 1542.9 Q1272.08 1542.9 1269.4 1546.14 Q1266.76 1549.36 1266.76 1555.41 L1266.76 1574.19 L1260.87 1574.19 L1260.87 1538.54 L1266.76 1538.54 L1266.76 1544.08 Q1268.61 1540.83 1271.57 1539.27 Q1274.53 1537.68 1278.76 1537.68 Q1279.37 1537.68 1280.1 1537.77 Q1280.83 1537.84 1281.72 1538 L1281.75 1544.01 Z" fill="#000000" fill-rule="nonzero" fill-opacity="1"></path><path clip-path="url(#clip750)" d="M1287.9 1538.54 L1293.75 1538.54 L1293.75 1574.19 L1287.9 1574.19 L1287.9 1538.54 M1287.9 1524.66 L1293.75 1524.66 L1293.75 1532.08 L1287.9 1532.08 L1287.9 1524.66 Z" fill="#000000" fill-rule="nonzero" fill-opacity="1"></path><path clip-path="url(#clip750)" d="M1335.64 1538.54 L1322.75 1555.88 L1336.31 1574.19 L1329.4 1574.19 L1319.02 1560.18 L1308.65 1574.19 L1301.74 1574.19 L1315.59 1555.53 L1302.92 1538.54 L1309.83 1538.54 L1319.28 1551.24 L1328.73 1538.54 L1335.64 1538.54 Z" fill="#000000" fill-rule="nonzero" fill-opacity="1"></path><path clip-path="url(#clip750)" d="M1394.04 1528.23 L1394.04 1534.5 Q1390.38 1532.74 1387.14 1531.89 Q1383.89 1531.03 1380.87 1531.03 Q1375.62 1531.03 1372.75 1533.06 Q1369.92 1535.1 1369.92 1538.86 Q1369.92 1542.01 1371.8 1543.63 Q1373.71 1545.22 1378.99 1546.21 L1382.87 1547 Q1390.07 1548.37 1393.47 1551.84 Q1396.91 1555.28 1396.91 1561.07 Q1396.91 1567.98 1392.26 1571.54 Q1387.65 1575.11 1378.7 1575.11 Q1375.33 1575.11 1371.51 1574.34 Q1367.72 1573.58 1363.65 1572.08 L1363.65 1565.46 Q1367.56 1567.66 1371.32 1568.77 Q1375.07 1569.89 1378.7 1569.89 Q1384.21 1569.89 1387.2 1567.72 Q1390.19 1565.56 1390.19 1561.55 Q1390.19 1558.05 1388.03 1556.08 Q1385.9 1554.1 1380.99 1553.11 L1377.08 1552.35 Q1369.89 1550.92 1366.67 1547.86 Q1363.46 1544.81 1363.46 1539.37 Q1363.46 1533.06 1367.88 1529.43 Q1372.34 1525.81 1380.14 1525.81 Q1383.48 1525.81 1386.95 1526.41 Q1390.42 1527.02 1394.04 1528.23 Z" fill="#000000" fill-rule="nonzero" fill-opacity="1"></path><path clip-path="url(#clip750)" d="M1406.68 1538.54 L1412.54 1538.54 L1412.54 1574.19 L1406.68 1574.19 L1406.68 1538.54 M1406.68 1524.66 L1412.54 1524.66 L1412.54 1532.08 L1406.68 1532.08 L1406.68 1524.66 Z" fill="#000000" fill-rule="nonzero" fill-opacity="1"></path><path clip-path="url(#clip750)" d="M1422.24 1538.54 L1450.06 1538.54 L1450.06 1543.88 L1428.04 1569.51 L1450.06 1569.51 L1450.06 1574.19 L1421.45 1574.19 L1421.45 1568.84 L1443.47 1543.22 L1422.24 1543.22 L1422.24 1538.54 Z" fill="#000000" fill-rule="nonzero" fill-opacity="1"></path><path clip-path="url(#clip750)" d="M1489.5 1554.9 L1489.5 1557.76 L1462.57 1557.76 Q1462.95 1563.81 1466.2 1566.99 Q1469.48 1570.14 1475.3 1570.14 Q1478.68 1570.14 1481.83 1569.32 Q1485.01 1568.49 1488.13 1566.83 L1488.13 1572.37 Q1484.98 1573.71 1481.67 1574.41 Q1478.36 1575.11 1474.95 1575.11 Q1466.42 1575.11 1461.43 1570.14 Q1456.46 1565.18 1456.46 1556.71 Q1456.46 1547.96 1461.17 1542.83 Q1465.91 1537.68 1473.93 1537.68 Q1481.13 1537.68 1485.3 1542.33 Q1489.5 1546.94 1489.5 1554.9 M1483.64 1553.18 Q1483.58 1548.37 1480.94 1545.51 Q1478.33 1542.64 1474 1542.64 Q1469.1 1542.64 1466.14 1545.41 Q1463.21 1548.18 1462.76 1553.21 L1483.64 1553.18 Z" fill="#000000" fill-rule="nonzero" fill-opacity="1"></path><polyline clip-path="url(#clip752)" style="stroke:#000000; stroke-linecap:round; stroke-linejoin:round; stroke-width:2; stroke-opacity:0.1; fill:none" points="276.349,1296.07 2352.76,1296.07 "></polyline>
<polyline clip-path="url(#clip752)" style="stroke:#000000; stroke-linecap:round; stroke-linejoin:round; stroke-width:2; stroke-opacity:0.1; fill:none" points="276.349,693.549 2352.76,693.549 "></polyline>
<polyline clip-path="url(#clip750)" style="stroke:#000000; stroke-linecap:round; stroke-linejoin:round; stroke-width:4; stroke-opacity:1; fill:none" points="276.349,1410.9 276.349,123.472 "></polyline>
<polyline clip-path="url(#clip750)" style="stroke:#000000; stroke-linecap:round; stroke-linejoin:round; stroke-width:4; stroke-opacity:1; fill:none" points="276.349,1296.07 295.247,1296.07 "></polyline>
<polyline clip-path="url(#clip750)" style="stroke:#000000; stroke-linecap:round; stroke-linejoin:round; stroke-width:4; stroke-opacity:1; fill:none" points="276.349,693.549 295.247,693.549 "></polyline>
<path clip-path="url(#clip750)" d="M114.931 1315.86 L122.57 1315.86 L122.57 1289.5 L114.26 1291.16 L114.26 1286.9 L122.524 1285.24 L127.2 1285.24 L127.2 1315.86 L134.839 1315.86 L134.839 1319.8 L114.931 1319.8 L114.931 1315.86 Z" fill="#000000" fill-rule="nonzero" fill-opacity="1"></path><path clip-path="url(#clip750)" d="M154.283 1288.31 Q150.672 1288.31 148.843 1291.88 Q147.038 1295.42 147.038 1302.55 Q147.038 1309.66 148.843 1313.22 Q150.672 1316.76 154.283 1316.76 Q157.917 1316.76 159.723 1313.22 Q161.552 1309.66 161.552 1302.55 Q161.552 1295.42 159.723 1291.88 Q157.917 1288.31 154.283 1288.31 M154.283 1284.61 Q160.093 1284.61 163.149 1289.22 Q166.227 1293.8 166.227 1302.55 Q166.227 1311.28 163.149 1315.88 Q160.093 1320.47 154.283 1320.47 Q148.473 1320.47 145.394 1315.88 Q142.339 1311.28 142.339 1302.55 Q142.339 1293.8 145.394 1289.22 Q148.473 1284.61 154.283 1284.61 Z" fill="#000000" fill-rule="nonzero" fill-opacity="1"></path><path clip-path="url(#clip750)" d="M166.227 1278.71 L190.339 1278.71 L190.339 1281.91 L166.227 1281.91 L166.227 1278.71 Z" fill="#000000" fill-rule="nonzero" fill-opacity="1"></path><path clip-path="url(#clip750)" d="M199.197 1289.19 L205.404 1289.19 L205.404 1267.77 L198.652 1269.12 L198.652 1265.66 L205.366 1264.31 L209.166 1264.31 L209.166 1289.19 L215.372 1289.19 L215.372 1292.39 L199.197 1292.39 L199.197 1289.19 Z" fill="#000000" fill-rule="nonzero" fill-opacity="1"></path><path clip-path="url(#clip750)" d="M234.556 1277.25 Q237.283 1277.83 238.807 1279.67 Q240.349 1281.51 240.349 1284.22 Q240.349 1288.38 237.49 1290.66 Q234.631 1292.93 229.365 1292.93 Q227.597 1292.93 225.716 1292.57 Q223.854 1292.23 221.861 1291.54 L221.861 1287.87 Q223.441 1288.79 225.321 1289.26 Q227.202 1289.73 229.252 1289.73 Q232.826 1289.73 234.688 1288.32 Q236.569 1286.91 236.569 1284.22 Q236.569 1281.74 234.819 1280.35 Q233.089 1278.94 229.986 1278.94 L226.713 1278.94 L226.713 1275.82 L230.136 1275.82 Q232.939 1275.82 234.424 1274.71 Q235.91 1273.58 235.91 1271.47 Q235.91 1269.31 234.368 1268.16 Q232.845 1266.99 229.986 1266.99 Q228.425 1266.99 226.638 1267.33 Q224.851 1267.67 222.707 1268.39 L222.707 1265 Q224.87 1264.4 226.751 1264.1 Q228.65 1263.8 230.324 1263.8 Q234.65 1263.8 237.17 1265.77 Q239.691 1267.73 239.691 1271.08 Q239.691 1273.41 238.355 1275.03 Q237.02 1276.62 234.556 1277.25 Z" fill="#000000" fill-rule="nonzero" fill-opacity="1"></path><path clip-path="url(#clip750)" d="M115.703 713.341 L123.341 713.341 L123.341 686.976 L115.031 688.642 L115.031 684.383 L123.295 682.717 L127.971 682.717 L127.971 713.341 L135.61 713.341 L135.61 717.277 L115.703 717.277 L115.703 713.341 Z" fill="#000000" fill-rule="nonzero" fill-opacity="1"></path><path clip-path="url(#clip750)" d="M155.054 685.795 Q151.443 685.795 149.614 689.36 Q147.809 692.902 147.809 700.031 Q147.809 707.138 149.614 710.703 Q151.443 714.244 155.054 714.244 Q158.688 714.244 160.494 710.703 Q162.323 707.138 162.323 700.031 Q162.323 692.902 160.494 689.36 Q158.688 685.795 155.054 685.795 M155.054 682.092 Q160.864 682.092 163.92 686.698 Q166.999 691.281 166.999 700.031 Q166.999 708.758 163.92 713.365 Q160.864 717.948 155.054 717.948 Q149.244 717.948 146.165 713.365 Q143.11 708.758 143.11 700.031 Q143.11 691.281 146.165 686.698 Q149.244 682.092 155.054 682.092 Z" fill="#000000" fill-rule="nonzero" fill-opacity="1"></path><path clip-path="url(#clip750)" d="M166.999 676.193 L191.11 676.193 L191.11 679.39 L166.999 679.39 L166.999 676.193 Z" fill="#000000" fill-rule="nonzero" fill-opacity="1"></path><path clip-path="url(#clip750)" d="M199.969 686.669 L206.175 686.669 L206.175 665.247 L199.423 666.601 L199.423 663.14 L206.138 661.786 L209.937 661.786 L209.937 686.669 L216.143 686.669 L216.143 689.866 L199.969 689.866 L199.969 686.669 Z" fill="#000000" fill-rule="nonzero" fill-opacity="1"></path><path clip-path="url(#clip750)" d="M227.089 686.669 L240.349 686.669 L240.349 689.866 L222.519 689.866 L222.519 686.669 Q224.682 684.431 228.406 680.669 Q232.149 676.889 233.108 675.798 Q234.932 673.748 235.647 672.337 Q236.38 670.908 236.38 669.535 Q236.38 667.297 234.801 665.886 Q233.24 664.476 230.719 664.476 Q228.933 664.476 226.939 665.096 Q224.964 665.717 222.707 666.977 L222.707 663.14 Q225.002 662.219 226.995 661.749 Q228.989 661.278 230.644 661.278 Q235.007 661.278 237.603 663.46 Q240.198 665.642 240.198 669.29 Q240.198 671.021 239.54 672.582 Q238.901 674.124 237.189 676.231 Q236.719 676.776 234.199 679.39 Q231.679 681.986 227.089 686.669 Z" fill="#000000" fill-rule="nonzero" fill-opacity="1"></path><path clip-path="url(#clip750)" d="M41.7242 962.691 Q42.4244 960.622 44.7161 958.681 Q47.0077 956.707 51.0181 954.734 L64.0042 948.209 L64.0042 955.116 L51.8138 961.195 Q47.0395 963.551 45.48 965.779 Q43.9204 967.975 43.9204 971.794 L43.9204 978.796 L64.0042 978.796 L64.0042 985.226 L16.4842 985.226 L16.4842 970.712 Q16.4842 962.564 19.8898 958.553 Q23.2955 954.543 30.1704 954.543 Q34.6582 954.543 37.6183 956.644 Q40.5784 958.713 41.7242 962.691 M21.7677 978.796 L38.6368 978.796 L38.6368 970.712 Q38.6368 966.065 36.5043 963.71 Q34.34 961.323 30.1704 961.323 Q26.0009 961.323 23.9002 963.71 Q21.7677 966.065 21.7677 970.712 L21.7677 978.796 Z" fill="#000000" fill-rule="nonzero" fill-opacity="1"></path><path clip-path="url(#clip750)" d="M44.7161 912.625 L47.5806 912.625 L47.5806 939.552 Q53.6281 939.17 56.8109 935.923 Q59.9619 932.645 59.9619 926.82 Q59.9619 923.447 59.1344 920.296 Q58.3069 917.113 56.6518 913.993 L62.1899 913.993 Q63.5267 917.145 64.227 920.455 Q64.9272 923.765 64.9272 927.171 Q64.9272 935.701 59.9619 940.698 Q54.9967 945.663 46.5303 945.663 Q37.7774 945.663 32.6531 940.952 Q27.4968 936.21 27.4968 928.189 Q27.4968 920.996 32.1438 916.826 Q36.7589 912.625 44.7161 912.625 M42.9973 918.481 Q38.1912 918.545 35.3266 921.187 Q32.4621 923.797 32.4621 928.125 Q32.4621 933.027 35.2312 935.987 Q38.0002 938.915 43.0292 939.361 L42.9973 918.481 Z" fill="#000000" fill-rule="nonzero" fill-opacity="1"></path><path clip-path="url(#clip750)" d="M14.479 903.013 L14.479 897.156 L64.0042 897.156 L64.0042 903.013 L14.479 903.013 Z" fill="#000000" fill-rule="nonzero" fill-opacity="1"></path><path clip-path="url(#clip750)" d="M46.0847 868.701 Q46.0847 875.799 47.7079 878.537 Q49.3312 881.274 53.2461 881.274 Q56.3653 881.274 58.2114 879.237 Q60.0256 877.168 60.0256 873.635 Q60.0256 868.765 56.5881 865.837 Q53.1188 862.877 47.3897 862.877 L46.0847 862.877 L46.0847 868.701 M43.6657 857.02 L64.0042 857.02 L64.0042 862.877 L58.5933 862.877 Q61.8398 864.882 63.3994 867.874 Q64.9272 870.866 64.9272 875.195 Q64.9272 880.669 61.8716 883.916 Q58.7843 887.13 53.6281 887.13 Q47.6125 887.13 44.5569 883.12 Q41.5014 879.078 41.5014 871.089 L41.5014 862.877 L40.9285 862.877 Q36.8862 862.877 34.6901 865.55 Q32.4621 868.192 32.4621 872.998 Q32.4621 876.054 33.1941 878.95 Q33.9262 881.847 35.3903 884.52 L29.9795 884.52 Q28.7381 881.306 28.1334 878.282 Q27.4968 875.258 27.4968 872.394 Q27.4968 864.659 31.5072 860.84 Q35.5176 857.02 43.6657 857.02 Z" fill="#000000" fill-rule="nonzero" fill-opacity="1"></path><path clip-path="url(#clip750)" d="M18.2347 839.165 L28.3562 839.165 L28.3562 827.102 L32.9077 827.102 L32.9077 839.165 L52.2594 839.165 Q56.6199 839.165 57.8613 837.987 Q59.1026 836.777 59.1026 833.117 L59.1026 827.102 L64.0042 827.102 L64.0042 833.117 Q64.0042 839.897 61.4897 842.475 Q58.9434 845.053 52.2594 845.053 L32.9077 845.053 L32.9077 849.35 L28.3562 849.35 L28.3562 845.053 L18.2347 845.053 L18.2347 839.165 Z" fill="#000000" fill-rule="nonzero" fill-opacity="1"></path><path clip-path="url(#clip750)" d="M28.3562 819.399 L28.3562 813.543 L64.0042 813.543 L64.0042 819.399 L28.3562 819.399 M14.479 819.399 L14.479 813.543 L21.895 813.543 L21.895 819.399 L14.479 819.399 Z" fill="#000000" fill-rule="nonzero" fill-opacity="1"></path><path clip-path="url(#clip750)" d="M28.3562 805.49 L28.3562 799.283 L58.275 788.143 L28.3562 777.003 L28.3562 770.797 L64.0042 784.165 L64.0042 792.122 L28.3562 805.49 Z" fill="#000000" fill-rule="nonzero" fill-opacity="1"></path><path clip-path="url(#clip750)" d="M44.7161 732.221 L47.5806 732.221 L47.5806 759.148 Q53.6281 758.766 56.8109 755.519 Q59.9619 752.241 59.9619 746.416 Q59.9619 743.042 59.1344 739.891 Q58.3069 736.709 56.6518 733.589 L62.1899 733.589 Q63.5267 736.74 64.227 740.051 Q64.9272 743.361 64.9272 746.766 Q64.9272 755.296 59.9619 760.294 Q54.9967 765.259 46.5303 765.259 Q37.7774 765.259 32.6531 760.548 Q27.4968 755.806 27.4968 747.785 Q27.4968 740.592 32.1438 736.422 Q36.7589 732.221 44.7161 732.221 M42.9973 738.077 Q38.1912 738.141 35.3266 740.783 Q32.4621 743.393 32.4621 747.721 Q32.4621 752.623 35.2312 755.583 Q38.0002 758.511 43.0292 758.957 L42.9973 738.077 Z" fill="#000000" fill-rule="nonzero" fill-opacity="1"></path><path clip-path="url(#clip750)" d="M16.4842 701.634 L16.4842 671.587 L21.895 671.587 L21.895 695.204 L35.9632 695.204 L35.9632 672.574 L41.3741 672.574 L41.3741 695.204 L58.5933 695.204 L58.5933 671.014 L64.0042 671.014 L64.0042 701.634 L16.4842 701.634 Z" fill="#000000" fill-rule="nonzero" fill-opacity="1"></path><path clip-path="url(#clip750)" d="M33.8307 640.045 Q33.2578 641.032 33.0032 642.21 Q32.7167 643.355 32.7167 644.756 Q32.7167 649.721 35.9632 652.395 Q39.1779 655.037 45.2253 655.037 L64.0042 655.037 L64.0042 660.925 L28.3562 660.925 L28.3562 655.037 L33.8944 655.037 Q30.6479 653.19 29.0883 650.23 Q27.4968 647.27 27.4968 643.037 Q27.4968 642.432 27.5923 641.7 Q27.656 640.968 27.8151 640.077 L33.8307 640.045 Z" fill="#000000" fill-rule="nonzero" fill-opacity="1"></path><path clip-path="url(#clip750)" d="M33.8307 614.392 Q33.2578 615.378 33.0032 616.556 Q32.7167 617.702 32.7167 619.102 Q32.7167 624.067 35.9632 626.741 Q39.1779 629.383 45.2253 629.383 L64.0042 629.383 L64.0042 635.271 L28.3562 635.271 L28.3562 629.383 L33.8944 629.383 Q30.6479 627.537 29.0883 624.577 Q27.4968 621.617 27.4968 617.383 Q27.4968 616.779 27.5923 616.047 Q27.656 615.315 27.8151 614.423 L33.8307 614.392 Z" fill="#000000" fill-rule="nonzero" fill-opacity="1"></path><path clip-path="url(#clip750)" d="M32.4621 595.867 Q32.4621 600.578 36.1542 603.315 Q39.8145 606.052 46.212 606.052 Q52.6095 606.052 56.3017 603.347 Q59.9619 600.61 59.9619 595.867 Q59.9619 591.189 56.2698 588.451 Q52.5777 585.714 46.212 585.714 Q39.8781 585.714 36.186 588.451 Q32.4621 591.189 32.4621 595.867 M27.4968 595.867 Q27.4968 588.228 32.4621 583.868 Q37.4273 579.507 46.212 579.507 Q54.9649 579.507 59.9619 583.868 Q64.9272 588.228 64.9272 595.867 Q64.9272 603.538 59.9619 607.898 Q54.9649 612.227 46.212 612.227 Q37.4273 612.227 32.4621 607.898 Q27.4968 603.538 27.4968 595.867 Z" fill="#000000" fill-rule="nonzero" fill-opacity="1"></path><path clip-path="url(#clip750)" d="M33.8307 549.143 Q33.2578 550.13 33.0032 551.307 Q32.7167 552.453 32.7167 553.854 Q32.7167 558.819 35.9632 561.492 Q39.1779 564.134 45.2253 564.134 L64.0042 564.134 L64.0042 570.023 L28.3562 570.023 L28.3562 564.134 L33.8944 564.134 Q30.6479 562.288 29.0883 559.328 Q27.4968 556.368 27.4968 552.135 Q27.4968 551.53 27.5923 550.798 Q27.656 550.066 27.8151 549.175 L33.8307 549.143 Z" fill="#000000" fill-rule="nonzero" fill-opacity="1"></path><path clip-path="url(#clip750)" d="M316.855 44.2197 Q319.488 45.1109 321.959 48.0275 Q324.471 50.9442 326.982 56.0483 L335.287 72.576 L326.496 72.576 L318.759 57.061 Q315.761 50.9847 312.926 48.9997 Q310.131 47.0148 305.27 47.0148 L296.358 47.0148 L296.358 72.576 L288.175 72.576 L288.175 12.096 L306.647 12.096 Q317.017 12.096 322.121 16.4305 Q327.226 20.7649 327.226 29.5149 Q327.226 35.2267 324.552 38.994 Q321.919 42.7613 316.855 44.2197 M296.358 18.8205 L296.358 40.2903 L306.647 40.2903 Q312.561 40.2903 315.559 37.5762 Q318.597 34.8216 318.597 29.5149 Q318.597 24.2082 315.559 21.5346 Q312.561 18.8205 306.647 18.8205 L296.358 18.8205 Z" fill="#000000" fill-rule="nonzero" fill-opacity="1"></path><path clip-path="url(#clip750)" d="M380.576 48.0275 L380.576 51.6733 L346.305 51.6733 Q346.791 59.3701 350.923 63.421 Q355.096 67.4314 362.509 67.4314 Q366.803 67.4314 370.813 66.3781 Q374.864 65.3249 378.834 63.2184 L378.834 70.267 Q374.824 71.9684 370.611 72.8596 Q366.398 73.7508 362.063 73.7508 Q351.207 73.7508 344.847 67.4314 Q338.528 61.1119 338.528 50.3365 Q338.528 39.1965 344.523 32.6746 Q350.559 26.1121 360.767 26.1121 Q369.922 26.1121 375.229 32.0264 Q380.576 37.9003 380.576 48.0275 M373.122 45.84 Q373.041 39.7232 369.679 36.0774 Q366.357 32.4315 360.848 32.4315 Q354.61 32.4315 350.842 35.9558 Q347.115 39.4801 346.548 45.8805 L373.122 45.84 Z" fill="#000000" fill-rule="nonzero" fill-opacity="1"></path><path clip-path="url(#clip750)" d="M392.81 9.54393 L400.263 9.54393 L400.263 72.576 L392.81 72.576 L392.81 9.54393 Z" fill="#000000" fill-rule="nonzero" fill-opacity="1"></path><path clip-path="url(#clip750)" d="M436.478 49.7694 Q427.445 49.7694 423.961 51.8354 Q420.477 53.9013 420.477 58.8839 Q420.477 62.8538 423.07 65.2034 Q425.703 67.5124 430.199 67.5124 Q436.397 67.5124 440.124 63.1374 Q443.892 58.7219 443.892 51.4303 L443.892 49.7694 L436.478 49.7694 M451.345 46.6907 L451.345 72.576 L443.892 72.576 L443.892 65.6895 Q441.339 69.8214 437.532 71.8063 Q433.724 73.7508 428.215 73.7508 Q421.247 73.7508 417.115 69.8619 Q413.024 65.9325 413.024 59.3701 Q413.024 51.7138 418.128 47.825 Q423.272 43.9361 433.44 43.9361 L443.892 43.9361 L443.892 43.2069 Q443.892 38.0623 440.489 35.2672 Q437.127 32.4315 431.01 32.4315 Q427.121 32.4315 423.434 33.3632 Q419.748 34.295 416.345 36.1584 L416.345 29.2718 Q420.437 27.692 424.285 26.9223 Q428.134 26.1121 431.779 26.1121 Q441.623 26.1121 446.484 31.2163 Q451.345 36.3204 451.345 46.6907 Z" fill="#000000" fill-rule="nonzero" fill-opacity="1"></path><path clip-path="url(#clip750)" d="M474.071 14.324 L474.071 27.2059 L489.424 27.2059 L489.424 32.9987 L474.071 32.9987 L474.071 57.6282 Q474.071 63.1779 475.57 64.7578 Q477.109 66.3376 481.768 66.3376 L489.424 66.3376 L489.424 72.576 L481.768 72.576 Q473.139 72.576 469.858 69.3758 Q466.577 66.1351 466.577 57.6282 L466.577 32.9987 L461.108 32.9987 L461.108 27.2059 L466.577 27.2059 L466.577 14.324 L474.071 14.324 Z" fill="#000000" fill-rule="nonzero" fill-opacity="1"></path><path clip-path="url(#clip750)" d="M499.227 27.2059 L506.681 27.2059 L506.681 72.576 L499.227 72.576 L499.227 27.2059 M499.227 9.54393 L506.681 9.54393 L506.681 18.9825 L499.227 18.9825 L499.227 9.54393 Z" fill="#000000" fill-rule="nonzero" fill-opacity="1"></path><path clip-path="url(#clip750)" d="M516.929 27.2059 L524.829 27.2059 L539.007 65.2844 L553.185 27.2059 L561.084 27.2059 L544.07 72.576 L533.943 72.576 L516.929 27.2059 Z" fill="#000000" fill-rule="nonzero" fill-opacity="1"></path><path clip-path="url(#clip750)" d="M610.181 48.0275 L610.181 51.6733 L575.911 51.6733 Q576.397 59.3701 580.529 63.421 Q584.701 67.4314 592.114 67.4314 Q596.408 67.4314 600.418 66.3781 Q604.469 65.3249 608.439 63.2184 L608.439 70.267 Q604.429 71.9684 600.216 72.8596 Q596.003 73.7508 591.669 73.7508 Q580.812 73.7508 574.452 67.4314 Q568.133 61.1119 568.133 50.3365 Q568.133 39.1965 574.128 32.6746 Q580.164 26.1121 590.372 26.1121 Q599.527 26.1121 604.834 32.0264 Q610.181 37.9003 610.181 48.0275 M602.728 45.84 Q602.646 39.7232 599.284 36.0774 Q595.962 32.4315 590.453 32.4315 Q584.215 32.4315 580.448 35.9558 Q576.721 39.4801 576.154 45.8805 L602.728 45.84 Z" fill="#000000" fill-rule="nonzero" fill-opacity="1"></path><path clip-path="url(#clip750)" d="M687.594 48.0275 L687.594 51.6733 L653.323 51.6733 Q653.809 59.3701 657.941 63.421 Q662.114 67.4314 669.527 67.4314 Q673.821 67.4314 677.831 66.3781 Q681.882 65.3249 685.852 63.2184 L685.852 70.267 Q681.842 71.9684 677.629 72.8596 Q673.416 73.7508 669.081 73.7508 Q658.225 73.7508 651.865 67.4314 Q645.546 61.1119 645.546 50.3365 Q645.546 39.1965 651.541 32.6746 Q657.577 26.1121 667.785 26.1121 Q676.94 26.1121 682.247 32.0264 Q687.594 37.9003 687.594 48.0275 M680.14 45.84 Q680.059 39.7232 676.697 36.0774 Q673.375 32.4315 667.866 32.4315 Q661.628 32.4315 657.86 35.9558 Q654.133 39.4801 653.566 45.8805 L680.14 45.84 Z" fill="#000000" fill-rule="nonzero" fill-opacity="1"></path><path clip-path="url(#clip750)" d="M726.118 34.1734 Q724.862 33.4443 723.363 33.1202 Q721.905 32.7556 720.123 32.7556 Q713.803 32.7556 710.401 36.8875 Q707.038 40.9789 707.038 48.6757 L707.038 72.576 L699.544 72.576 L699.544 27.2059 L707.038 27.2059 L707.038 34.2544 Q709.388 30.1225 713.155 28.1376 Q716.922 26.1121 722.31 26.1121 Q723.08 26.1121 724.012 26.2337 Q724.943 26.3147 726.078 26.5172 L726.118 34.1734 Z" fill="#000000" fill-rule="nonzero" fill-opacity="1"></path><path clip-path="url(#clip750)" d="M758.768 34.1734 Q757.513 33.4443 756.014 33.1202 Q754.555 32.7556 752.773 32.7556 Q746.454 32.7556 743.051 36.8875 Q739.689 40.9789 739.689 48.6757 L739.689 72.576 L732.194 72.576 L732.194 27.2059 L739.689 27.2059 L739.689 34.2544 Q742.038 30.1225 745.805 28.1376 Q749.573 26.1121 754.96 26.1121 Q755.73 26.1121 756.662 26.2337 Q757.594 26.3147 758.728 26.5172 L758.768 34.1734 Z" fill="#000000" fill-rule="nonzero" fill-opacity="1"></path><path clip-path="url(#clip750)" d="M782.345 32.4315 Q776.349 32.4315 772.865 37.1306 Q769.382 41.7891 769.382 49.9314 Q769.382 58.0738 772.825 62.7728 Q776.309 67.4314 782.345 67.4314 Q788.299 67.4314 791.783 62.7323 Q795.267 58.0333 795.267 49.9314 Q795.267 41.8701 791.783 37.1711 Q788.299 32.4315 782.345 32.4315 M782.345 26.1121 Q792.067 26.1121 797.617 32.4315 Q803.166 38.7509 803.166 49.9314 Q803.166 61.0714 797.617 67.4314 Q792.067 73.7508 782.345 73.7508 Q772.582 73.7508 767.032 67.4314 Q761.523 61.0714 761.523 49.9314 Q761.523 38.7509 767.032 32.4315 Q772.582 26.1121 782.345 26.1121 Z" fill="#000000" fill-rule="nonzero" fill-opacity="1"></path><path clip-path="url(#clip750)" d="M841.812 34.1734 Q840.556 33.4443 839.057 33.1202 Q837.599 32.7556 835.817 32.7556 Q829.497 32.7556 826.094 36.8875 Q822.732 40.9789 822.732 48.6757 L822.732 72.576 L815.238 72.576 L815.238 27.2059 L822.732 27.2059 L822.732 34.2544 Q825.082 30.1225 828.849 28.1376 Q832.616 26.1121 838.004 26.1121 Q838.774 26.1121 839.705 26.2337 Q840.637 26.3147 841.771 26.5172 L841.812 34.1734 Z" fill="#000000" fill-rule="nonzero" fill-opacity="1"></path><path clip-path="url(#clip750)" d="M908.571 49.9314 Q908.571 41.7081 905.168 37.0496 Q901.806 32.3505 895.891 32.3505 Q889.977 32.3505 886.574 37.0496 Q883.212 41.7081 883.212 49.9314 Q883.212 58.1548 886.574 62.8538 Q889.977 67.5124 895.891 67.5124 Q901.806 67.5124 905.168 62.8538 Q908.571 58.1548 908.571 49.9314 M883.212 34.0924 Q885.562 30.0415 889.126 28.0971 Q892.732 26.1121 897.714 26.1121 Q905.978 26.1121 911.123 32.6746 Q916.308 39.2371 916.308 49.9314 Q916.308 60.6258 911.123 67.1883 Q905.978 73.7508 897.714 73.7508 Q892.732 73.7508 889.126 71.8063 Q885.562 69.8214 883.212 65.7705 L883.212 72.576 L875.718 72.576 L875.718 9.54393 L883.212 9.54393 L883.212 34.0924 Z" fill="#000000" fill-rule="nonzero" fill-opacity="1"></path><path clip-path="url(#clip750)" d="M967.471 48.0275 L967.471 51.6733 L933.2 51.6733 Q933.686 59.3701 937.818 63.421 Q941.991 67.4314 949.404 67.4314 Q953.698 67.4314 957.708 66.3781 Q961.759 65.3249 965.729 63.2184 L965.729 70.267 Q961.719 71.9684 957.506 72.8596 Q953.293 73.7508 948.958 73.7508 Q938.102 73.7508 931.742 67.4314 Q925.423 61.1119 925.423 50.3365 Q925.423 39.1965 931.418 32.6746 Q937.454 26.1121 947.662 26.1121 Q956.817 26.1121 962.124 32.0264 Q967.471 37.9003 967.471 48.0275 M960.017 45.84 Q959.936 39.7232 956.574 36.0774 Q953.252 32.4315 947.743 32.4315 Q941.505 32.4315 937.737 35.9558 Q934.01 39.4801 933.443 45.8805 L960.017 45.84 Z" fill="#000000" fill-rule="nonzero" fill-opacity="1"></path><path clip-path="url(#clip750)" d="M987.077 14.324 L987.077 27.2059 L1002.43 27.2059 L1002.43 32.9987 L987.077 32.9987 L987.077 57.6282 Q987.077 63.1779 988.576 64.7578 Q990.115 66.3376 994.774 66.3376 L1002.43 66.3376 L1002.43 72.576 L994.774 72.576 Q986.146 72.576 982.864 69.3758 Q979.583 66.1351 979.583 57.6282 L979.583 32.9987 L974.114 32.9987 L974.114 27.2059 L979.583 27.2059 L979.583 14.324 L987.077 14.324 Z" fill="#000000" fill-rule="nonzero" fill-opacity="1"></path><path clip-path="url(#clip750)" d="M1007.9 27.2059 L1015.35 27.2059 L1024.67 62.6108 L1033.95 27.2059 L1042.74 27.2059 L1052.05 62.6108 L1061.33 27.2059 L1068.78 27.2059 L1056.91 72.576 L1048.12 72.576 L1038.36 35.3887 L1028.56 72.576 L1019.77 72.576 L1007.9 27.2059 Z" fill="#000000" fill-rule="nonzero" fill-opacity="1"></path><path clip-path="url(#clip750)" d="M1118.89 48.0275 L1118.89 51.6733 L1084.62 51.6733 Q1085.11 59.3701 1089.24 63.421 Q1093.41 67.4314 1100.83 67.4314 Q1105.12 67.4314 1109.13 66.3781 Q1113.18 65.3249 1117.15 63.2184 L1117.15 70.267 Q1113.14 71.9684 1108.93 72.8596 Q1104.72 73.7508 1100.38 73.7508 Q1089.52 73.7508 1083.16 67.4314 Q1076.85 61.1119 1076.85 50.3365 Q1076.85 39.1965 1082.84 32.6746 Q1088.88 26.1121 1099.08 26.1121 Q1108.24 26.1121 1113.55 32.0264 Q1118.89 37.9003 1118.89 48.0275 M1111.44 45.84 Q1111.36 39.7232 1108 36.0774 Q1104.68 32.4315 1099.17 32.4315 Q1092.93 32.4315 1089.16 35.9558 Q1085.43 39.4801 1084.87 45.8805 L1111.44 45.84 Z" fill="#000000" fill-rule="nonzero" fill-opacity="1"></path><path clip-path="url(#clip750)" d="M1169.94 48.0275 L1169.94 51.6733 L1135.66 51.6733 Q1136.15 59.3701 1140.28 63.421 Q1144.45 67.4314 1151.87 67.4314 Q1156.16 67.4314 1160.17 66.3781 Q1164.22 65.3249 1168.19 63.2184 L1168.19 70.267 Q1164.18 71.9684 1159.97 72.8596 Q1155.76 73.7508 1151.42 73.7508 Q1140.57 73.7508 1134.21 67.4314 Q1127.89 61.1119 1127.89 50.3365 Q1127.89 39.1965 1133.88 32.6746 Q1139.92 26.1121 1150.13 26.1121 Q1159.28 26.1121 1164.59 32.0264 Q1169.94 37.9003 1169.94 48.0275 M1162.48 45.84 Q1162.4 39.7232 1159.04 36.0774 Q1155.72 32.4315 1150.21 32.4315 Q1143.97 32.4315 1140.2 35.9558 Q1136.47 39.4801 1135.91 45.8805 L1162.48 45.84 Z" fill="#000000" fill-rule="nonzero" fill-opacity="1"></path><path clip-path="url(#clip750)" d="M1219.88 45.1919 L1219.88 72.576 L1212.43 72.576 L1212.43 45.4349 Q1212.43 38.994 1209.92 35.7938 Q1207.41 32.5936 1202.38 32.5936 Q1196.35 32.5936 1192.86 36.4419 Q1189.38 40.2903 1189.38 46.9338 L1189.38 72.576 L1181.89 72.576 L1181.89 27.2059 L1189.38 27.2059 L1189.38 34.2544 Q1192.05 30.163 1195.66 28.1376 Q1199.3 26.1121 1204.04 26.1121 Q1211.86 26.1121 1215.87 30.9732 Q1219.88 35.7938 1219.88 45.1919 Z" fill="#000000" fill-rule="nonzero" fill-opacity="1"></path><path clip-path="url(#clip750)" d="M1299.93 48.0275 L1299.93 51.6733 L1265.66 51.6733 Q1266.14 59.3701 1270.28 63.421 Q1274.45 67.4314 1281.86 67.4314 Q1286.16 67.4314 1290.17 66.3781 Q1294.22 65.3249 1298.19 63.2184 L1298.19 70.267 Q1294.18 71.9684 1289.96 72.8596 Q1285.75 73.7508 1281.42 73.7508 Q1270.56 73.7508 1264.2 67.4314 Q1257.88 61.1119 1257.88 50.3365 Q1257.88 39.1965 1263.88 32.6746 Q1269.91 26.1121 1280.12 26.1121 Q1289.27 26.1121 1294.58 32.0264 Q1299.93 37.9003 1299.93 48.0275 M1292.47 45.84 Q1292.39 39.7232 1289.03 36.0774 Q1285.71 32.4315 1280.2 32.4315 Q1273.96 32.4315 1270.19 35.9558 Q1266.47 39.4801 1265.9 45.8805 L1292.47 45.84 Z" fill="#000000" fill-rule="nonzero" fill-opacity="1"></path><path clip-path="url(#clip750)" d="M1348.42 27.2059 L1332.01 49.2833 L1349.27 72.576 L1340.48 72.576 L1327.27 54.752 L1314.07 72.576 L1305.28 72.576 L1322.9 48.8377 L1306.77 27.2059 L1315.57 27.2059 L1327.6 43.369 L1339.63 27.2059 L1348.42 27.2059 Z" fill="#000000" fill-rule="nonzero" fill-opacity="1"></path><path clip-path="url(#clip750)" d="M1380.42 49.7694 Q1371.39 49.7694 1367.9 51.8354 Q1364.42 53.9013 1364.42 58.8839 Q1364.42 62.8538 1367.01 65.2034 Q1369.64 67.5124 1374.14 67.5124 Q1380.34 67.5124 1384.07 63.1374 Q1387.83 58.7219 1387.83 51.4303 L1387.83 49.7694 L1380.42 49.7694 M1395.29 46.6907 L1395.29 72.576 L1387.83 72.576 L1387.83 65.6895 Q1385.28 69.8214 1381.47 71.8063 Q1377.67 73.7508 1372.16 73.7508 Q1365.19 73.7508 1361.06 69.8619 Q1356.97 65.9325 1356.97 59.3701 Q1356.97 51.7138 1362.07 47.825 Q1367.21 43.9361 1377.38 43.9361 L1387.83 43.9361 L1387.83 43.2069 Q1387.83 38.0623 1384.43 35.2672 Q1381.07 32.4315 1374.95 32.4315 Q1371.06 32.4315 1367.38 33.3632 Q1363.69 34.295 1360.29 36.1584 L1360.29 29.2718 Q1364.38 27.692 1368.23 26.9223 Q1372.08 26.1121 1375.72 26.1121 Q1385.56 26.1121 1390.43 31.2163 Q1395.29 36.3204 1395.29 46.6907 Z" fill="#000000" fill-rule="nonzero" fill-opacity="1"></path><path clip-path="url(#clip750)" d="M1443.29 28.9478 L1443.29 35.9153 Q1440.13 34.1734 1436.93 33.3227 Q1433.77 32.4315 1430.53 32.4315 Q1423.28 32.4315 1419.27 37.0496 Q1415.26 41.6271 1415.26 49.9314 Q1415.26 58.2358 1419.27 62.8538 Q1423.28 67.4314 1430.53 67.4314 Q1433.77 67.4314 1436.93 66.5807 Q1440.13 65.6895 1443.29 63.9476 L1443.29 70.8341 Q1440.17 72.2924 1436.81 73.0216 Q1433.49 73.7508 1429.72 73.7508 Q1419.47 73.7508 1413.43 67.3098 Q1407.4 60.8689 1407.4 49.9314 Q1407.4 38.832 1413.48 32.472 Q1419.59 26.1121 1430.21 26.1121 Q1433.65 26.1121 1436.93 26.8413 Q1440.21 27.5299 1443.29 28.9478 Z" fill="#000000" fill-rule="nonzero" fill-opacity="1"></path><path clip-path="url(#clip750)" d="M1463.63 14.324 L1463.63 27.2059 L1478.98 27.2059 L1478.98 32.9987 L1463.63 32.9987 L1463.63 57.6282 Q1463.63 63.1779 1465.12 64.7578 Q1466.66 66.3376 1471.32 66.3376 L1478.98 66.3376 L1478.98 72.576 L1471.32 72.576 Q1462.69 72.576 1459.41 69.3758 Q1456.13 66.1351 1456.13 57.6282 L1456.13 32.9987 L1450.66 32.9987 L1450.66 27.2059 L1456.13 27.2059 L1456.13 14.324 L1463.63 14.324 Z" fill="#000000" fill-rule="nonzero" fill-opacity="1"></path><path clip-path="url(#clip750)" d="M1535.77 49.7694 Q1526.74 49.7694 1523.25 51.8354 Q1519.77 53.9013 1519.77 58.8839 Q1519.77 62.8538 1522.36 65.2034 Q1525 67.5124 1529.49 67.5124 Q1535.69 67.5124 1539.42 63.1374 Q1543.19 58.7219 1543.19 51.4303 L1543.19 49.7694 L1535.77 49.7694 M1550.64 46.6907 L1550.64 72.576 L1543.19 72.576 L1543.19 65.6895 Q1540.63 69.8214 1536.83 71.8063 Q1533.02 73.7508 1527.51 73.7508 Q1520.54 73.7508 1516.41 69.8619 Q1512.32 65.9325 1512.32 59.3701 Q1512.32 51.7138 1517.42 47.825 Q1522.57 43.9361 1532.73 43.9361 L1543.19 43.9361 L1543.19 43.2069 Q1543.19 38.0623 1539.78 35.2672 Q1536.42 32.4315 1530.3 32.4315 Q1526.41 32.4315 1522.73 33.3632 Q1519.04 34.295 1515.64 36.1584 L1515.64 29.2718 Q1519.73 27.692 1523.58 26.9223 Q1527.43 26.1121 1531.07 26.1121 Q1540.92 26.1121 1545.78 31.2163 Q1550.64 36.3204 1550.64 46.6907 Z" fill="#000000" fill-rule="nonzero" fill-opacity="1"></path><path clip-path="url(#clip750)" d="M1603.71 45.1919 L1603.71 72.576 L1596.25 72.576 L1596.25 45.4349 Q1596.25 38.994 1593.74 35.7938 Q1591.23 32.5936 1586.21 32.5936 Q1580.17 32.5936 1576.69 36.4419 Q1573.2 40.2903 1573.2 46.9338 L1573.2 72.576 L1565.71 72.576 L1565.71 27.2059 L1573.2 27.2059 L1573.2 34.2544 Q1575.88 30.163 1579.48 28.1376 Q1583.13 26.1121 1587.87 26.1121 Q1595.69 26.1121 1599.7 30.9732 Q1603.71 35.7938 1603.71 45.1919 Z" fill="#000000" fill-rule="nonzero" fill-opacity="1"></path><path clip-path="url(#clip750)" d="M1648.43 34.0924 L1648.43 9.54393 L1655.88 9.54393 L1655.88 72.576 L1648.43 72.576 L1648.43 65.7705 Q1646.08 69.8214 1642.47 71.8063 Q1638.91 73.7508 1633.89 73.7508 Q1625.66 73.7508 1620.48 67.1883 Q1615.33 60.6258 1615.33 49.9314 Q1615.33 39.2371 1620.48 32.6746 Q1625.66 26.1121 1633.89 26.1121 Q1638.91 26.1121 1642.47 28.0971 Q1646.08 30.0415 1648.43 34.0924 M1623.03 49.9314 Q1623.03 58.1548 1626.39 62.8538 Q1629.79 67.5124 1635.71 67.5124 Q1641.62 67.5124 1645.03 62.8538 Q1648.43 58.1548 1648.43 49.9314 Q1648.43 41.7081 1645.03 37.0496 Q1641.62 32.3505 1635.71 32.3505 Q1629.79 32.3505 1626.39 37.0496 Q1623.03 41.7081 1623.03 49.9314 Z" fill="#000000" fill-rule="nonzero" fill-opacity="1"></path><path clip-path="url(#clip750)" d="M1697.61 27.2059 L1705.06 27.2059 L1705.06 72.576 L1697.61 72.576 L1697.61 27.2059 M1697.61 9.54393 L1705.06 9.54393 L1705.06 18.9825 L1697.61 18.9825 L1697.61 9.54393 Z" fill="#000000" fill-rule="nonzero" fill-opacity="1"></path><path clip-path="url(#clip750)" d="M1758.37 45.1919 L1758.37 72.576 L1750.92 72.576 L1750.92 45.4349 Q1750.92 38.994 1748.4 35.7938 Q1745.89 32.5936 1740.87 32.5936 Q1734.83 32.5936 1731.35 36.4419 Q1727.87 40.2903 1727.87 46.9338 L1727.87 72.576 L1720.37 72.576 L1720.37 27.2059 L1727.87 27.2059 L1727.87 34.2544 Q1730.54 30.163 1734.15 28.1376 Q1737.79 26.1121 1742.53 26.1121 Q1750.35 26.1121 1754.36 30.9732 Q1758.37 35.7938 1758.37 45.1919 Z" fill="#000000" fill-rule="nonzero" fill-opacity="1"></path><path clip-path="url(#clip750)" d="M1812.04 48.0275 L1812.04 51.6733 L1777.77 51.6733 Q1778.26 59.3701 1782.39 63.421 Q1786.56 67.4314 1793.98 67.4314 Q1798.27 67.4314 1802.28 66.3781 Q1806.33 65.3249 1810.3 63.2184 L1810.3 70.267 Q1806.29 71.9684 1802.08 72.8596 Q1797.87 73.7508 1793.53 73.7508 Q1782.67 73.7508 1776.31 67.4314 Q1770 61.1119 1770 50.3365 Q1770 39.1965 1775.99 32.6746 Q1782.03 26.1121 1792.24 26.1121 Q1801.39 26.1121 1806.7 32.0264 Q1812.04 37.9003 1812.04 48.0275 M1804.59 45.84 Q1804.51 39.7232 1801.15 36.0774 Q1797.83 32.4315 1792.32 32.4315 Q1786.08 32.4315 1782.31 35.9558 Q1778.58 39.4801 1778.02 45.8805 L1804.59 45.84 Z" fill="#000000" fill-rule="nonzero" fill-opacity="1"></path><path clip-path="url(#clip750)" d="M1860.53 27.2059 L1844.13 49.2833 L1861.38 72.576 L1852.59 72.576 L1839.39 54.752 L1826.18 72.576 L1817.39 72.576 L1835.01 48.8377 L1818.89 27.2059 L1827.68 27.2059 L1839.71 43.369 L1851.74 27.2059 L1860.53 27.2059 Z" fill="#000000" fill-rule="nonzero" fill-opacity="1"></path><path clip-path="url(#clip750)" d="M1892.54 49.7694 Q1883.5 49.7694 1880.02 51.8354 Q1876.53 53.9013 1876.53 58.8839 Q1876.53 62.8538 1879.13 65.2034 Q1881.76 67.5124 1886.26 67.5124 Q1892.45 67.5124 1896.18 63.1374 Q1899.95 58.7219 1899.95 51.4303 L1899.95 49.7694 L1892.54 49.7694 M1907.4 46.6907 L1907.4 72.576 L1899.95 72.576 L1899.95 65.6895 Q1897.4 69.8214 1893.59 71.8063 Q1889.78 73.7508 1884.27 73.7508 Q1877.3 73.7508 1873.17 69.8619 Q1869.08 65.9325 1869.08 59.3701 Q1869.08 51.7138 1874.18 47.825 Q1879.33 43.9361 1889.5 43.9361 L1899.95 43.9361 L1899.95 43.2069 Q1899.95 38.0623 1896.55 35.2672 Q1893.18 32.4315 1887.07 32.4315 Q1883.18 32.4315 1879.49 33.3632 Q1875.81 34.295 1872.4 36.1584 L1872.4 29.2718 Q1876.49 27.692 1880.34 26.9223 Q1884.19 26.1121 1887.84 26.1121 Q1897.68 26.1121 1902.54 31.2163 Q1907.4 36.3204 1907.4 46.6907 Z" fill="#000000" fill-rule="nonzero" fill-opacity="1"></path><path clip-path="url(#clip750)" d="M1955.41 28.9478 L1955.41 35.9153 Q1952.25 34.1734 1949.05 33.3227 Q1945.89 32.4315 1942.65 32.4315 Q1935.39 32.4315 1931.38 37.0496 Q1927.37 41.6271 1927.37 49.9314 Q1927.37 58.2358 1931.38 62.8538 Q1935.39 67.4314 1942.65 67.4314 Q1945.89 67.4314 1949.05 66.5807 Q1952.25 65.6895 1955.41 63.9476 L1955.41 70.8341 Q1952.29 72.2924 1948.92 73.0216 Q1945.6 73.7508 1941.83 73.7508 Q1931.59 73.7508 1925.55 67.3098 Q1919.51 60.8689 1919.51 49.9314 Q1919.51 38.832 1925.59 32.472 Q1931.71 26.1121 1942.32 26.1121 Q1945.76 26.1121 1949.05 26.8413 Q1952.33 27.5299 1955.41 28.9478 Z" fill="#000000" fill-rule="nonzero" fill-opacity="1"></path><path clip-path="url(#clip750)" d="M1975.74 14.324 L1975.74 27.2059 L1991.09 27.2059 L1991.09 32.9987 L1975.74 32.9987 L1975.74 57.6282 Q1975.74 63.1779 1977.24 64.7578 Q1978.78 66.3376 1983.44 66.3376 L1991.09 66.3376 L1991.09 72.576 L1983.44 72.576 Q1974.81 72.576 1971.53 69.3758 Q1968.25 66.1351 1968.25 57.6282 L1968.25 32.9987 L1962.78 32.9987 L1962.78 27.2059 L1968.25 27.2059 L1968.25 14.324 L1975.74 14.324 Z" fill="#000000" fill-rule="nonzero" fill-opacity="1"></path><path clip-path="url(#clip750)" d="M2056.19 28.5427 L2056.19 35.5912 Q2053.03 33.9709 2049.63 33.1607 Q2046.23 32.3505 2042.58 32.3505 Q2037.03 32.3505 2034.24 34.0519 Q2031.48 35.7533 2031.48 39.156 Q2031.48 41.7486 2033.47 43.2475 Q2035.45 44.7058 2041.45 46.0426 L2044 46.6097 Q2051.94 48.3111 2055.26 51.4303 Q2058.62 54.509 2058.62 60.0587 Q2058.62 66.3781 2053.6 70.0644 Q2048.62 73.7508 2039.87 73.7508 Q2036.22 73.7508 2032.25 73.0216 Q2028.32 72.3329 2023.95 70.9151 L2023.95 63.2184 Q2028.08 65.3654 2032.09 66.4591 Q2036.1 67.5124 2040.03 67.5124 Q2045.3 67.5124 2048.13 65.73 Q2050.97 63.9071 2050.97 60.6258 Q2050.97 57.5877 2048.9 55.9673 Q2046.87 54.3469 2039.95 52.8481 L2037.36 52.2405 Q2030.43 50.7821 2027.35 47.7845 Q2024.27 44.7463 2024.27 39.4801 Q2024.27 33.0797 2028.81 29.5959 Q2033.34 26.1121 2041.69 26.1121 Q2045.82 26.1121 2049.47 26.7198 Q2053.11 27.3274 2056.19 28.5427 Z" fill="#000000" fill-rule="nonzero" fill-opacity="1"></path><path clip-path="url(#clip750)" d="M2088.07 32.4315 Q2082.08 32.4315 2078.59 37.1306 Q2075.11 41.7891 2075.11 49.9314 Q2075.11 58.0738 2078.55 62.7728 Q2082.04 67.4314 2088.07 67.4314 Q2094.03 67.4314 2097.51 62.7323 Q2100.99 58.0333 2100.99 49.9314 Q2100.99 41.8701 2097.51 37.1711 Q2094.03 32.4315 2088.07 32.4315 M2088.07 26.1121 Q2097.79 26.1121 2103.34 32.4315 Q2108.89 38.7509 2108.89 49.9314 Q2108.89 61.0714 2103.34 67.4314 Q2097.79 73.7508 2088.07 73.7508 Q2078.31 73.7508 2072.76 67.4314 Q2067.25 61.0714 2067.25 49.9314 Q2067.25 38.7509 2072.76 32.4315 Q2078.31 26.1121 2088.07 26.1121 Z" fill="#000000" fill-rule="nonzero" fill-opacity="1"></path><path clip-path="url(#clip750)" d="M2121.25 9.54393 L2128.7 9.54393 L2128.7 72.576 L2121.25 72.576 L2121.25 9.54393 Z" fill="#000000" fill-rule="nonzero" fill-opacity="1"></path><path clip-path="url(#clip750)" d="M2143.53 54.671 L2143.53 27.2059 L2150.98 27.2059 L2150.98 54.3874 Q2150.98 60.8284 2153.49 64.0691 Q2156.01 67.2693 2161.03 67.2693 Q2167.07 67.2693 2170.55 63.421 Q2174.07 59.5726 2174.07 52.9291 L2174.07 27.2059 L2181.53 27.2059 L2181.53 72.576 L2174.07 72.576 L2174.07 65.6084 Q2171.36 69.7404 2167.75 71.7658 Q2164.19 73.7508 2159.45 73.7508 Q2151.63 73.7508 2147.58 68.8897 Q2143.53 64.0286 2143.53 54.671 M2162.29 26.1121 L2162.29 26.1121 Z" fill="#000000" fill-rule="nonzero" fill-opacity="1"></path><path clip-path="url(#clip750)" d="M2204.25 14.324 L2204.25 27.2059 L2219.61 27.2059 L2219.61 32.9987 L2204.25 32.9987 L2204.25 57.6282 Q2204.25 63.1779 2205.75 64.7578 Q2207.29 66.3376 2211.95 66.3376 L2219.61 66.3376 L2219.61 72.576 L2211.95 72.576 Q2203.32 72.576 2200.04 69.3758 Q2196.76 66.1351 2196.76 57.6282 L2196.76 32.9987 L2191.29 32.9987 L2191.29 27.2059 L2196.76 27.2059 L2196.76 14.324 L2204.25 14.324 Z" fill="#000000" fill-rule="nonzero" fill-opacity="1"></path><path clip-path="url(#clip750)" d="M2229.41 27.2059 L2236.86 27.2059 L2236.86 72.576 L2229.41 72.576 L2229.41 27.2059 M2229.41 9.54393 L2236.86 9.54393 L2236.86 18.9825 L2229.41 18.9825 L2229.41 9.54393 Z" fill="#000000" fill-rule="nonzero" fill-opacity="1"></path><path clip-path="url(#clip750)" d="M2270.04 32.4315 Q2264.04 32.4315 2260.56 37.1306 Q2257.08 41.7891 2257.08 49.9314 Q2257.08 58.0738 2260.52 62.7728 Q2264 67.4314 2270.04 67.4314 Q2275.99 67.4314 2279.48 62.7323 Q2282.96 58.0333 2282.96 49.9314 Q2282.96 41.8701 2279.48 37.1711 Q2275.99 32.4315 2270.04 32.4315 M2270.04 26.1121 Q2279.76 26.1121 2285.31 32.4315 Q2290.86 38.7509 2290.86 49.9314 Q2290.86 61.0714 2285.31 67.4314 Q2279.76 73.7508 2270.04 73.7508 Q2260.28 73.7508 2254.73 67.4314 Q2249.22 61.0714 2249.22 49.9314 Q2249.22 38.7509 2254.73 32.4315 Q2260.28 26.1121 2270.04 26.1121 Z" fill="#000000" fill-rule="nonzero" fill-opacity="1"></path><path clip-path="url(#clip750)" d="M2340.93 45.1919 L2340.93 72.576 L2333.48 72.576 L2333.48 45.4349 Q2333.48 38.994 2330.96 35.7938 Q2328.45 32.5936 2323.43 32.5936 Q2317.39 32.5936 2313.91 36.4419 Q2310.43 40.2903 2310.43 46.9338 L2310.43 72.576 L2302.93 72.576 L2302.93 27.2059 L2310.43 27.2059 L2310.43 34.2544 Q2313.1 30.163 2316.71 28.1376 Q2320.35 26.1121 2325.09 26.1121 Q2332.91 26.1121 2336.92 30.9732 Q2340.93 35.7938 2340.93 45.1919 Z" fill="#000000" fill-rule="nonzero" fill-opacity="1"></path><circle clip-path="url(#clip752)" cx="335.115" cy="1374.46" r="14.4" fill="#009af9" fill-rule="evenodd" fill-opacity="1" stroke="#000000" stroke-opacity="1" stroke-width="3.2"></circle>
<circle clip-path="url(#clip752)" cx="366.208" cy="1165.11" r="14.4" fill="#009af9" fill-rule="evenodd" fill-opacity="1" stroke="#000000" stroke-opacity="1" stroke-width="3.2"></circle>
<circle clip-path="url(#clip752)" cx="428.395" cy="952.702" r="14.4" fill="#009af9" fill-rule="evenodd" fill-opacity="1" stroke="#000000" stroke-opacity="1" stroke-width="3.2"></circle>
<circle clip-path="url(#clip752)" cx="552.768" cy="759.531" r="14.4" fill="#009af9" fill-rule="evenodd" fill-opacity="1" stroke="#000000" stroke-opacity="1" stroke-width="3.2"></circle>
<circle clip-path="url(#clip752)" cx="801.514" cy="555.944" r="14.4" fill="#009af9" fill-rule="evenodd" fill-opacity="1" stroke="#000000" stroke-opacity="1" stroke-width="3.2"></circle>
<circle clip-path="url(#clip752)" cx="1299.01" cy="358.033" r="14.4" fill="#009af9" fill-rule="evenodd" fill-opacity="1" stroke="#000000" stroke-opacity="1" stroke-width="3.2"></circle>
<circle clip-path="url(#clip752)" cx="2293.99" cy="159.909" r="14.4" fill="#009af9" fill-rule="evenodd" fill-opacity="1" stroke="#000000" stroke-opacity="1" stroke-width="3.2"></circle>
</svg>