<svg xmlns="http://www.w3.org/2000/svg" xmlns:xlink="http://www.w3.org/1999/xlink" width="600" height="400" viewBox="0 0 2400 1600">
<defs>
  <clipPath id="clip380">
    <rect x="0" y="0" width="2400" height="1600"></rect>
  </clipPath>
</defs>
<path clip-path="url(#clip380)" d="M0 1600 L2400 1600 L2400 0 L0 0  Z" fill="#ffffff" fill-rule="evenodd" fill-opacity="1"></path>
<defs>
  <clipPath id="clip381">
    <rect x="480" y="0" width="1681" height="1600"></rect>
  </clipPath>
</defs>
<path clip-path="url(#clip380)" d="M271.11 1410.9 L2352.76 1410.9 L2352.76 123.472 L271.11 123.472  Z" fill="#ffffff" fill-rule="evenodd" fill-opacity="1"></path>
<defs>
  <clipPath id="clip382">
    <rect x="271" y="123" width="2083" height="1288"></rect>
  </clipPath>
</defs>
<polyline clip-path="url(#clip382)" style="stroke:#000000; stroke-linecap:round; stroke-linejoin:round; stroke-width:2; stroke-opacity:0.1; fill:none" points="2293.84,1410.9 2293.84,123.472 "></polyline>
<polyline clip-path="url(#clip382)" style="stroke:#000000; stroke-linecap:round; stroke-linejoin:round; stroke-width:2; stroke-opacity:0.1; fill:none" points="1966.54,1410.9 1966.54,123.472 "></polyline>
<polyline clip-path="url(#clip382)" style="stroke:#000000; stroke-linecap:round; stroke-linejoin:round; stroke-width:2; stroke-opacity:0.1; fill:none" points="1639.24,1410.9 1639.24,123.472 "></polyline>
<polyline clip-path="url(#clip382)" style="stroke:#000000; stroke-linecap:round; stroke-linejoin:round; stroke-width:2; stroke-opacity:0.1; fill:none" points="1311.93,1410.9 1311.93,123.472 "></polyline>
<polyline clip-path="url(#clip382)" style="stroke:#000000; stroke-linecap:round; stroke-linejoin:round; stroke-width:2; stroke-opacity:0.1; fill:none" points="984.63,1410.9 984.63,123.472 "></polyline>
<polyline clip-path="url(#clip382)" style="stroke:#000000; stroke-linecap:round; stroke-linejoin:round; stroke-width:2; stroke-opacity:0.1; fill:none" points="657.328,1410.9 657.328,123.472 "></polyline>
<polyline clip-path="url(#clip382)" style="stroke:#000000; stroke-linecap:round; stroke-linejoin:round; stroke-width:2; stroke-opacity:0.1; fill:none" points="330.025,1410.9 330.025,123.472 "></polyline>
<polyline clip-path="url(#clip380)" style="stroke:#000000; stroke-linecap:round; stroke-linejoin:round; stroke-width:4; stroke-opacity:1; fill:none" points="271.11,1410.9 2352.76,1410.9 "></polyline>
<polyline clip-path="url(#clip380)" style="stroke:#000000; stroke-linecap:round; stroke-linejoin:round; stroke-width:4; stroke-opacity:1; fill:none" points="2293.84,1410.9 2293.84,1392 "></polyline>
<polyline clip-path="url(#clip380)" style="stroke:#000000; stroke-linecap:round; stroke-linejoin:round; stroke-width:4; stroke-opacity:1; fill:none" points="1966.54,1410.9 1966.54,1392 "></polyline>
<polyline clip-path="url(#clip380)" style="stroke:#000000; stroke-linecap:round; stroke-linejoin:round; stroke-width:4; stroke-opacity:1; fill:none" points="1639.24,1410.9 1639.24,1392 "></polyline>
<polyline clip-path="url(#clip380)" style="stroke:#000000; stroke-linecap:round; stroke-linejoin:round; stroke-width:4; stroke-opacity:1; fill:none" points="1311.93,1410.9 1311.93,1392 "></polyline>
<polyline clip-path="url(#clip380)" style="stroke:#000000; stroke-linecap:round; stroke-linejoin:round; stroke-width:4; stroke-opacity:1; fill:none" points="984.63,1410.9 984.63,1392 "></polyline>
<polyline clip-path="url(#clip380)" style="stroke:#000000; stroke-linecap:round; stroke-linejoin:round; stroke-width:4; stroke-opacity:1; fill:none" points="657.328,1410.9 657.328,1392 "></polyline>
<polyline clip-path="url(#clip380)" style="stroke:#000000; stroke-linecap:round; stroke-linejoin:round; stroke-width:4; stroke-opacity:1; fill:none" points="330.025,1410.9 330.025,1392 "></polyline>
<path clip-path="url(#clip380)" d="M2244.11 1485.02 L2251.75 1485.02 L2251.75 1458.66 L2243.44 1460.32 L2243.44 1456.06 L2251.7 1454.4 L2256.38 1454.4 L2256.38 1485.02 L2264.01 1485.02 L2264.01 1488.96 L2244.11 1488.96 L2244.11 1485.02 Z" fill="#000000" fill-rule="nonzero" fill-opacity="1"></path><path clip-path="url(#clip380)" d="M2283.46 1457.48 Q2279.85 1457.48 2278.02 1461.04 Q2276.21 1464.58 2276.21 1471.71 Q2276.21 1478.82 2278.02 1482.38 Q2279.85 1485.92 2283.46 1485.92 Q2287.09 1485.92 2288.9 1482.38 Q2290.73 1478.82 2290.73 1471.71 Q2290.73 1464.58 2288.9 1461.04 Q2287.09 1457.48 2283.46 1457.48 M2283.46 1453.77 Q2289.27 1453.77 2292.32 1458.38 Q2295.4 1462.96 2295.4 1471.71 Q2295.4 1480.44 2292.32 1485.04 Q2289.27 1489.63 2283.46 1489.63 Q2277.65 1489.63 2274.57 1485.04 Q2271.51 1480.44 2271.51 1471.71 Q2271.51 1462.96 2274.57 1458.38 Q2277.65 1453.77 2283.46 1453.77 Z" fill="#000000" fill-rule="nonzero" fill-opacity="1"></path><path clip-path="url(#clip380)" d="M2295.4 1447.87 L2319.51 1447.87 L2319.51 1451.07 L2295.4 1451.07 L2295.4 1447.87 Z" fill="#000000" fill-rule="nonzero" fill-opacity="1"></path><path clip-path="url(#clip380)" d="M2330.99 1458.35 L2344.25 1458.35 L2344.25 1461.55 L2326.42 1461.55 L2326.42 1458.35 Q2328.58 1456.11 2332.3 1452.35 Q2336.05 1448.57 2337.01 1447.48 Q2338.83 1445.43 2339.55 1444.02 Q2340.28 1442.59 2340.28 1441.22 Q2340.28 1438.98 2338.7 1437.57 Q2337.14 1436.16 2334.62 1436.16 Q2332.83 1436.16 2330.84 1436.78 Q2328.86 1437.4 2326.61 1438.66 L2326.61 1434.82 Q2328.9 1433.9 2330.89 1433.43 Q2332.89 1432.96 2334.54 1432.96 Q2338.91 1432.96 2341.5 1435.14 Q2344.1 1437.32 2344.1 1440.97 Q2344.1 1442.7 2343.44 1444.26 Q2342.8 1445.8 2341.09 1447.91 Q2340.62 1448.46 2338.1 1451.07 Q2335.58 1453.67 2330.99 1458.35 Z" fill="#000000" fill-rule="nonzero" fill-opacity="1"></path><path clip-path="url(#clip380)" d="M1916.42 1485.02 L1924.06 1485.02 L1924.06 1458.66 L1915.75 1460.32 L1915.75 1456.06 L1924.01 1454.4 L1928.69 1454.4 L1928.69 1485.02 L1936.33 1485.02 L1936.33 1488.96 L1916.42 1488.96 L1916.42 1485.02 Z" fill="#000000" fill-rule="nonzero" fill-opacity="1"></path><path clip-path="url(#clip380)" d="M1955.77 1457.48 Q1952.16 1457.48 1950.33 1461.04 Q1948.53 1464.58 1948.53 1471.71 Q1948.53 1478.82 1950.33 1482.38 Q1952.16 1485.92 1955.77 1485.92 Q1959.4 1485.92 1961.21 1482.38 Q1963.04 1478.82 1963.04 1471.71 Q1963.04 1464.58 1961.21 1461.04 Q1959.4 1457.48 1955.77 1457.48 M1955.77 1453.77 Q1961.58 1453.77 1964.64 1458.38 Q1967.71 1462.96 1967.71 1471.71 Q1967.71 1480.44 1964.64 1485.04 Q1961.58 1489.63 1955.77 1489.63 Q1949.96 1489.63 1946.88 1485.04 Q1943.83 1480.44 1943.83 1471.71 Q1943.83 1462.96 1946.88 1458.38 Q1949.96 1453.77 1955.77 1453.77 Z" fill="#000000" fill-rule="nonzero" fill-opacity="1"></path><path clip-path="url(#clip380)" d="M1967.71 1447.87 L1991.83 1447.87 L1991.83 1451.07 L1967.71 1451.07 L1967.71 1447.87 Z" fill="#000000" fill-rule="nonzero" fill-opacity="1"></path><path clip-path="url(#clip380)" d="M2011.54 1446.41 Q2014.26 1446.99 2015.79 1448.83 Q2017.33 1450.68 2017.33 1453.38 Q2017.33 1457.54 2014.47 1459.82 Q2011.61 1462.09 2006.35 1462.09 Q2004.58 1462.09 2002.7 1461.73 Q2000.84 1461.4 1998.84 1460.7 L1998.84 1457.03 Q2000.42 1457.95 2002.3 1458.42 Q2004.18 1458.89 2006.23 1458.89 Q2009.81 1458.89 2011.67 1457.48 Q2013.55 1456.07 2013.55 1453.38 Q2013.55 1450.9 2011.8 1449.51 Q2010.07 1448.1 2006.97 1448.1 L2003.69 1448.1 L2003.69 1444.98 L2007.12 1444.98 Q2009.92 1444.98 2011.41 1443.87 Q2012.89 1442.74 2012.89 1440.63 Q2012.89 1438.47 2011.35 1437.32 Q2009.83 1436.16 2006.97 1436.16 Q2005.41 1436.16 2003.62 1436.49 Q2001.83 1436.83 1999.69 1437.55 L1999.69 1434.16 Q2001.85 1433.56 2003.73 1433.26 Q2005.63 1432.96 2007.31 1432.96 Q2011.63 1432.96 2014.15 1434.93 Q2016.67 1436.89 2016.67 1440.24 Q2016.67 1442.57 2015.34 1444.19 Q2014 1445.79 2011.54 1446.41 Z" fill="#000000" fill-rule="nonzero" fill-opacity="1"></path><path clip-path="url(#clip380)" d="M1588.66 1485.02 L1596.29 1485.02 L1596.29 1458.66 L1587.98 1460.32 L1587.98 1456.06 L1596.25 1454.4 L1600.92 1454.4 L1600.92 1485.02 L1608.56 1485.02 L1608.56 1488.96 L1588.66 1488.96 L1588.66 1485.02 Z" fill="#000000" fill-rule="nonzero" fill-opacity="1"></path><path clip-path="url(#clip380)" d="M1628.01 1457.48 Q1624.4 1457.48 1622.57 1461.04 Q1620.76 1464.58 1620.76 1471.71 Q1620.76 1478.82 1622.57 1482.38 Q1624.4 1485.92 1628.01 1485.92 Q1631.64 1485.92 1633.45 1482.38 Q1635.28 1478.82 1635.28 1471.71 Q1635.28 1464.58 1633.45 1461.04 Q1631.64 1457.48 1628.01 1457.48 M1628.01 1453.77 Q1633.82 1453.77 1636.87 1458.38 Q1639.95 1462.96 1639.95 1471.71 Q1639.95 1480.44 1636.87 1485.04 Q1633.82 1489.63 1628.01 1489.63 Q1622.2 1489.63 1619.12 1485.04 Q1616.06 1480.44 1616.06 1471.71 Q1616.06 1462.96 1619.12 1458.38 Q1622.2 1453.77 1628.01 1453.77 Z" fill="#000000" fill-rule="nonzero" fill-opacity="1"></path><path clip-path="url(#clip380)" d="M1639.95 1447.87 L1664.06 1447.87 L1664.06 1451.07 L1639.95 1451.07 L1639.95 1447.87 Z" fill="#000000" fill-rule="nonzero" fill-opacity="1"></path><path clip-path="url(#clip380)" d="M1682.7 1436.78 L1673.11 1451.77 L1682.7 1451.77 L1682.7 1436.78 M1681.7 1433.47 L1686.48 1433.47 L1686.48 1451.77 L1690.49 1451.77 L1690.49 1454.93 L1686.48 1454.93 L1686.48 1461.55 L1682.7 1461.55 L1682.7 1454.93 L1670.02 1454.93 L1670.02 1451.26 L1681.7 1433.47 Z" fill="#000000" fill-rule="nonzero" fill-opacity="1"></path><path clip-path="url(#clip380)" d="M1261.95 1485.02 L1269.59 1485.02 L1269.59 1458.66 L1261.28 1460.32 L1261.28 1456.06 L1269.55 1454.4 L1274.22 1454.4 L1274.22 1485.02 L1281.86 1485.02 L1281.86 1488.96 L1261.95 1488.96 L1261.95 1485.02 Z" fill="#000000" fill-rule="nonzero" fill-opacity="1"></path><path clip-path="url(#clip380)" d="M1301.31 1457.48 Q1297.69 1457.48 1295.87 1461.04 Q1294.06 1464.58 1294.06 1471.71 Q1294.06 1478.82 1295.87 1482.38 Q1297.69 1485.92 1301.31 1485.92 Q1304.94 1485.92 1306.75 1482.38 Q1308.57 1478.82 1308.57 1471.71 Q1308.57 1464.58 1306.75 1461.04 Q1304.94 1457.48 1301.31 1457.48 M1301.31 1453.77 Q1307.12 1453.77 1310.17 1458.38 Q1313.25 1462.96 1313.25 1471.71 Q1313.25 1480.44 1310.17 1485.04 Q1307.12 1489.63 1301.31 1489.63 Q1295.5 1489.63 1292.42 1485.04 Q1289.36 1480.44 1289.36 1471.71 Q1289.36 1462.96 1292.42 1458.38 Q1295.5 1453.77 1301.31 1453.77 Z" fill="#000000" fill-rule="nonzero" fill-opacity="1"></path><path clip-path="url(#clip380)" d="M1313.25 1447.87 L1337.36 1447.87 L1337.36 1451.07 L1313.25 1451.07 L1313.25 1447.87 Z" fill="#000000" fill-rule="nonzero" fill-opacity="1"></path><path clip-path="url(#clip380)" d="M1345.6 1433.47 L1360.51 1433.47 L1360.51 1436.66 L1349.08 1436.66 L1349.08 1443.55 Q1349.91 1443.27 1350.73 1443.13 Q1351.56 1442.98 1352.39 1442.98 Q1357.09 1442.98 1359.84 1445.56 Q1362.58 1448.14 1362.58 1452.54 Q1362.58 1457.07 1359.76 1459.59 Q1356.94 1462.09 1351.81 1462.09 Q1350.04 1462.09 1348.2 1461.79 Q1346.37 1461.49 1344.41 1460.89 L1344.41 1457.07 Q1346.11 1457.99 1347.91 1458.44 Q1349.72 1458.89 1351.73 1458.89 Q1354.98 1458.89 1356.88 1457.18 Q1358.78 1455.47 1358.78 1452.54 Q1358.78 1449.6 1356.88 1447.89 Q1354.98 1446.18 1351.73 1446.18 Q1350.21 1446.18 1348.68 1446.52 Q1347.18 1446.86 1345.6 1447.57 L1345.6 1433.47 Z" fill="#000000" fill-rule="nonzero" fill-opacity="1"></path><path clip-path="url(#clip380)" d="M934.181 1485.02 L941.82 1485.02 L941.82 1458.66 L933.51 1460.32 L933.51 1456.06 L941.774 1454.4 L946.45 1454.4 L946.45 1485.02 L954.089 1485.02 L954.089 1488.96 L934.181 1488.96 L934.181 1485.02 Z" fill="#000000" fill-rule="nonzero" fill-opacity="1"></path><path clip-path="url(#clip380)" d="M973.533 1457.48 Q969.922 1457.48 968.093 1461.04 Q966.288 1464.58 966.288 1471.71 Q966.288 1478.82 968.093 1482.38 Q969.922 1485.92 973.533 1485.92 Q977.167 1485.92 978.973 1482.38 Q980.801 1478.82 980.801 1471.71 Q980.801 1464.58 978.973 1461.04 Q977.167 1457.48 973.533 1457.48 M973.533 1453.77 Q979.343 1453.77 982.399 1458.38 Q985.477 1462.96 985.477 1471.71 Q985.477 1480.44 982.399 1485.04 Q979.343 1489.63 973.533 1489.63 Q967.723 1489.63 964.644 1485.04 Q961.589 1480.44 961.589 1471.71 Q961.589 1462.96 964.644 1458.38 Q967.723 1453.77 973.533 1453.77 Z" fill="#000000" fill-rule="nonzero" fill-opacity="1"></path><path clip-path="url(#clip380)" d="M985.477 1447.87 L1009.59 1447.87 L1009.59 1451.07 L985.477 1451.07 L985.477 1447.87 Z" fill="#000000" fill-rule="nonzero" fill-opacity="1"></path><path clip-path="url(#clip380)" d="M1026.38 1445.99 Q1023.83 1445.99 1022.32 1447.74 Q1020.84 1449.49 1020.84 1452.54 Q1020.84 1455.57 1022.32 1457.33 Q1023.83 1459.08 1026.38 1459.08 Q1028.94 1459.08 1030.43 1457.33 Q1031.93 1455.57 1031.93 1452.54 Q1031.93 1449.49 1030.43 1447.74 Q1028.94 1445.99 1026.38 1445.99 M1033.93 1434.09 L1033.93 1437.55 Q1032.5 1436.87 1031.03 1436.51 Q1029.58 1436.16 1028.15 1436.16 Q1024.39 1436.16 1022.4 1438.69 Q1020.42 1441.23 1020.14 1446.37 Q1021.25 1444.73 1022.92 1443.87 Q1024.6 1442.98 1026.61 1442.98 Q1030.84 1442.98 1033.29 1445.56 Q1035.75 1448.12 1035.75 1452.54 Q1035.75 1456.86 1033.19 1459.48 Q1030.63 1462.09 1026.38 1462.09 Q1021.51 1462.09 1018.94 1458.37 Q1016.36 1454.62 1016.36 1447.53 Q1016.36 1440.88 1019.52 1436.93 Q1022.68 1432.96 1028 1432.96 Q1029.43 1432.96 1030.88 1433.24 Q1032.35 1433.52 1033.93 1434.09 Z" fill="#000000" fill-rule="nonzero" fill-opacity="1"></path><path clip-path="url(#clip380)" d="M607.311 1485.02 L614.95 1485.02 L614.95 1458.66 L606.64 1460.32 L606.64 1456.06 L614.904 1454.4 L619.58 1454.4 L619.58 1485.02 L627.218 1485.02 L627.218 1488.96 L607.311 1488.96 L607.311 1485.02 Z" fill="#000000" fill-rule="nonzero" fill-opacity="1"></path><path clip-path="url(#clip380)" d="M646.663 1457.48 Q643.052 1457.48 641.223 1461.04 Q639.417 1464.58 639.417 1471.71 Q639.417 1478.82 641.223 1482.38 Q643.052 1485.92 646.663 1485.92 Q650.297 1485.92 652.103 1482.38 Q653.931 1478.82 653.931 1471.71 Q653.931 1464.58 652.103 1461.04 Q650.297 1457.48 646.663 1457.48 M646.663 1453.77 Q652.473 1453.77 655.528 1458.38 Q658.607 1462.96 658.607 1471.71 Q658.607 1480.44 655.528 1485.04 Q652.473 1489.63 646.663 1489.63 Q640.853 1489.63 637.774 1485.04 Q634.718 1480.44 634.718 1471.71 Q634.718 1462.96 637.774 1458.38 Q640.853 1453.77 646.663 1453.77 Z" fill="#000000" fill-rule="nonzero" fill-opacity="1"></path><path clip-path="url(#clip380)" d="M658.607 1447.87 L682.719 1447.87 L682.719 1451.07 L658.607 1451.07 L658.607 1447.87 Z" fill="#000000" fill-rule="nonzero" fill-opacity="1"></path><path clip-path="url(#clip380)" d="M689.96 1433.47 L708.015 1433.47 L708.015 1435.08 L697.821 1461.55 L693.853 1461.55 L703.445 1436.66 L689.96 1436.66 L689.96 1433.47 Z" fill="#000000" fill-rule="nonzero" fill-opacity="1"></path><path clip-path="url(#clip380)" d="M279.679 1485.02 L287.318 1485.02 L287.318 1458.66 L279.008 1460.32 L279.008 1456.06 L287.272 1454.4 L291.948 1454.4 L291.948 1485.02 L299.587 1485.02 L299.587 1488.96 L279.679 1488.96 L279.679 1485.02 Z" fill="#000000" fill-rule="nonzero" fill-opacity="1"></path><path clip-path="url(#clip380)" d="M319.031 1457.48 Q315.42 1457.48 313.591 1461.04 Q311.786 1464.58 311.786 1471.71 Q311.786 1478.82 313.591 1482.38 Q315.42 1485.92 319.031 1485.92 Q322.665 1485.92 324.471 1482.38 Q326.299 1478.82 326.299 1471.71 Q326.299 1464.58 324.471 1461.04 Q322.665 1457.48 319.031 1457.48 M319.031 1453.77 Q324.841 1453.77 327.897 1458.38 Q330.975 1462.96 330.975 1471.71 Q330.975 1480.44 327.897 1485.04 Q324.841 1489.63 319.031 1489.63 Q313.221 1489.63 310.142 1485.04 Q307.086 1480.44 307.086 1471.71 Q307.086 1462.96 310.142 1458.38 Q313.221 1453.77 319.031 1453.77 Z" fill="#000000" fill-rule="nonzero" fill-opacity="1"></path><path clip-path="url(#clip380)" d="M330.975 1447.87 L355.087 1447.87 L355.087 1451.07 L330.975 1451.07 L330.975 1447.87 Z" fill="#000000" fill-rule="nonzero" fill-opacity="1"></path><path clip-path="url(#clip380)" d="M371.412 1448.21 Q368.704 1448.21 367.143 1449.66 Q365.6 1451.11 365.6 1453.65 Q365.6 1456.19 367.143 1457.63 Q368.704 1459.08 371.412 1459.08 Q374.12 1459.08 375.681 1457.63 Q377.242 1456.17 377.242 1453.65 Q377.242 1451.11 375.681 1449.66 Q374.139 1448.21 371.412 1448.21 M367.613 1446.59 Q365.168 1445.99 363.795 1444.32 Q362.441 1442.64 362.441 1440.24 Q362.441 1436.87 364.829 1434.91 Q367.237 1432.96 371.412 1432.96 Q375.606 1432.96 377.995 1434.91 Q380.383 1436.87 380.383 1440.24 Q380.383 1442.64 379.01 1444.32 Q377.656 1445.99 375.23 1446.59 Q377.976 1447.23 379.499 1449.1 Q381.042 1450.96 381.042 1453.65 Q381.042 1457.73 378.54 1459.91 Q376.057 1462.09 371.412 1462.09 Q366.766 1462.09 364.265 1459.91 Q361.782 1457.73 361.782 1453.65 Q361.782 1450.96 363.325 1449.1 Q364.867 1447.23 367.613 1446.59 M366.221 1440.59 Q366.221 1442.78 367.575 1444 Q368.948 1445.22 371.412 1445.22 Q373.857 1445.22 375.23 1444 Q376.622 1442.78 376.622 1440.59 Q376.622 1438.41 375.23 1437.19 Q373.857 1435.97 371.412 1435.97 Q368.948 1435.97 367.575 1437.19 Q366.221 1438.41 366.221 1440.59 Z" fill="#000000" fill-rule="nonzero" fill-opacity="1"></path><path clip-path="url(#clip380)" d="M868.498 1526.67 L874.927 1526.67 L874.927 1574.19 L868.498 1574.19 L868.498 1526.67 Z" fill="#000000" fill-rule="nonzero" fill-opacity="1"></path><path clip-path="url(#clip380)" d="M917.1 1552.67 L917.1 1574.19 L911.244 1574.19 L911.244 1552.86 Q911.244 1547.8 909.27 1545.29 Q907.297 1542.77 903.35 1542.77 Q898.608 1542.77 895.87 1545.79 Q893.133 1548.82 893.133 1554.04 L893.133 1574.19 L887.245 1574.19 L887.245 1538.54 L893.133 1538.54 L893.133 1544.08 Q895.234 1540.86 898.067 1539.27 Q900.931 1537.68 904.655 1537.68 Q910.798 1537.68 913.949 1541.5 Q917.1 1545.29 917.1 1552.67 Z" fill="#000000" fill-rule="nonzero" fill-opacity="1"></path><path clip-path="url(#clip380)" d="M959.273 1554.9 L959.273 1557.76 L932.346 1557.76 Q932.728 1563.81 935.974 1566.99 Q939.253 1570.14 945.077 1570.14 Q948.451 1570.14 951.602 1569.32 Q954.785 1568.49 957.904 1566.83 L957.904 1572.37 Q954.753 1573.71 951.443 1574.41 Q948.133 1575.11 944.727 1575.11 Q936.197 1575.11 931.2 1570.14 Q926.235 1565.18 926.235 1556.71 Q926.235 1547.96 930.946 1542.83 Q935.688 1537.68 943.709 1537.68 Q950.902 1537.68 955.072 1542.33 Q959.273 1546.94 959.273 1554.9 M953.416 1553.18 Q953.353 1548.37 950.711 1545.51 Q948.101 1542.64 943.772 1542.64 Q938.871 1542.64 935.911 1545.41 Q932.983 1548.18 932.537 1553.21 L953.416 1553.18 Z" fill="#000000" fill-rule="nonzero" fill-opacity="1"></path><path clip-path="url(#clip380)" d="M997.372 1538.54 L984.481 1555.88 L998.04 1574.19 L991.133 1574.19 L980.757 1560.18 L970.381 1574.19 L963.474 1574.19 L977.32 1555.53 L964.652 1538.54 L971.559 1538.54 L981.012 1551.24 L990.465 1538.54 L997.372 1538.54 Z" fill="#000000" fill-rule="nonzero" fill-opacity="1"></path><path clip-path="url(#clip380)" d="M1022.52 1556.27 Q1015.42 1556.27 1012.68 1557.89 Q1009.94 1559.51 1009.94 1563.43 Q1009.94 1566.55 1011.98 1568.39 Q1014.05 1570.21 1017.58 1570.21 Q1022.45 1570.21 1025.38 1566.77 Q1028.34 1563.3 1028.34 1557.57 L1028.34 1556.27 L1022.52 1556.27 M1034.2 1553.85 L1034.2 1574.19 L1028.34 1574.19 L1028.34 1568.77 Q1026.34 1572.02 1023.34 1573.58 Q1020.35 1575.11 1016.02 1575.11 Q1010.55 1575.11 1007.3 1572.05 Q1004.09 1568.97 1004.09 1563.81 Q1004.09 1557.79 1008.1 1554.74 Q1012.14 1551.68 1020.13 1551.68 L1028.34 1551.68 L1028.34 1551.11 Q1028.34 1547.07 1025.67 1544.87 Q1023.03 1542.64 1018.22 1542.64 Q1015.16 1542.64 1012.27 1543.38 Q1009.37 1544.11 1006.7 1545.57 L1006.7 1540.16 Q1009.91 1538.92 1012.94 1538.31 Q1015.96 1537.68 1018.82 1537.68 Q1026.56 1537.68 1030.38 1541.69 Q1034.2 1545.7 1034.2 1553.85 Z" fill="#000000" fill-rule="nonzero" fill-opacity="1"></path><path clip-path="url(#clip380)" d="M1071.91 1539.91 L1071.91 1545.38 Q1069.43 1544.01 1066.92 1543.34 Q1064.43 1542.64 1061.89 1542.64 Q1056.19 1542.64 1053.04 1546.27 Q1049.89 1549.87 1049.89 1556.39 Q1049.89 1562.92 1053.04 1566.55 Q1056.19 1570.14 1061.89 1570.14 Q1064.43 1570.14 1066.92 1569.47 Q1069.43 1568.77 1071.91 1567.41 L1071.91 1572.82 Q1069.46 1573.96 1066.82 1574.54 Q1064.21 1575.11 1061.25 1575.11 Q1053.2 1575.11 1048.46 1570.05 Q1043.71 1564.99 1043.71 1556.39 Q1043.71 1547.67 1048.49 1542.68 Q1053.29 1537.68 1061.63 1537.68 Q1064.34 1537.68 1066.92 1538.25 Q1069.5 1538.79 1071.91 1539.91 Z" fill="#000000" fill-rule="nonzero" fill-opacity="1"></path><path clip-path="url(#clip380)" d="M1087.89 1528.42 L1087.89 1538.54 L1099.96 1538.54 L1099.96 1543.09 L1087.89 1543.09 L1087.89 1562.44 Q1087.89 1566.8 1089.07 1568.04 Q1090.28 1569.28 1093.94 1569.28 L1099.96 1569.28 L1099.96 1574.19 L1093.94 1574.19 Q1087.16 1574.19 1084.58 1571.67 Q1082 1569.12 1082 1562.44 L1082 1543.09 L1077.71 1543.09 L1077.71 1538.54 L1082 1538.54 L1082 1528.42 L1087.89 1528.42 Z" fill="#000000" fill-rule="nonzero" fill-opacity="1"></path><path clip-path="url(#clip380)" d="M1135.06 1531.95 L1135.06 1549.8 L1143.15 1549.8 Q1147.63 1549.8 1150.08 1547.48 Q1152.54 1545.16 1152.54 1540.86 Q1152.54 1536.6 1150.08 1534.27 Q1147.63 1531.95 1143.15 1531.95 L1135.06 1531.95 M1128.63 1526.67 L1143.15 1526.67 Q1151.14 1526.67 1155.21 1530.29 Q1159.32 1533.89 1159.32 1540.86 Q1159.32 1547.9 1155.21 1551.49 Q1151.14 1555.09 1143.15 1555.09 L1135.06 1555.09 L1135.06 1574.19 L1128.63 1574.19 L1128.63 1526.67 Z" fill="#000000" fill-rule="nonzero" fill-opacity="1"></path><path clip-path="url(#clip380)" d="M1187.2 1544.01 Q1186.21 1543.44 1185.03 1543.18 Q1183.89 1542.9 1182.49 1542.9 Q1177.52 1542.9 1174.85 1546.14 Q1172.21 1549.36 1172.21 1555.41 L1172.21 1574.19 L1166.32 1574.19 L1166.32 1538.54 L1172.21 1538.54 L1172.21 1544.08 Q1174.05 1540.83 1177.01 1539.27 Q1179.97 1537.68 1184.21 1537.68 Q1184.81 1537.68 1185.54 1537.77 Q1186.27 1537.84 1187.17 1538 L1187.2 1544.01 Z" fill="#000000" fill-rule="nonzero" fill-opacity="1"></path><path clip-path="url(#clip380)" d="M1205.72 1542.64 Q1201.01 1542.64 1198.27 1546.34 Q1195.54 1550 1195.54 1556.39 Q1195.54 1562.79 1198.24 1566.48 Q1200.98 1570.14 1205.72 1570.14 Q1210.4 1570.14 1213.14 1566.45 Q1215.87 1562.76 1215.87 1556.39 Q1215.87 1550.06 1213.14 1546.37 Q1210.4 1542.64 1205.72 1542.64 M1205.72 1537.68 Q1213.36 1537.68 1217.72 1542.64 Q1222.08 1547.61 1222.08 1556.39 Q1222.08 1565.15 1217.72 1570.14 Q1213.36 1575.11 1205.72 1575.11 Q1198.05 1575.11 1193.69 1570.14 Q1189.36 1565.15 1189.36 1556.39 Q1189.36 1547.61 1193.69 1542.64 Q1198.05 1537.68 1205.72 1537.68 Z" fill="#000000" fill-rule="nonzero" fill-opacity="1"></path><path clip-path="url(#clip380)" d="M1255.25 1543.95 L1255.25 1524.66 L1261.1 1524.66 L1261.1 1574.19 L1255.25 1574.19 L1255.25 1568.84 Q1253.4 1572.02 1250.57 1573.58 Q1247.77 1575.11 1243.82 1575.11 Q1237.36 1575.11 1233.28 1569.95 Q1229.24 1564.8 1229.24 1556.39 Q1229.24 1547.99 1233.28 1542.83 Q1237.36 1537.68 1243.82 1537.68 Q1247.77 1537.68 1250.57 1539.24 Q1253.4 1540.77 1255.25 1543.95 M1235.29 1556.39 Q1235.29 1562.85 1237.93 1566.55 Q1240.61 1570.21 1245.25 1570.21 Q1249.9 1570.21 1252.57 1566.55 Q1255.25 1562.85 1255.25 1556.39 Q1255.25 1549.93 1252.57 1546.27 Q1249.9 1542.58 1245.25 1542.58 Q1240.61 1542.58 1237.93 1546.27 Q1235.29 1549.93 1235.29 1556.39 Z" fill="#000000" fill-rule="nonzero" fill-opacity="1"></path><path clip-path="url(#clip380)" d="M1272.56 1560.12 L1272.56 1538.54 L1278.42 1538.54 L1278.42 1559.89 Q1278.42 1564.96 1280.39 1567.5 Q1282.36 1570.02 1286.31 1570.02 Q1291.05 1570.02 1293.79 1566.99 Q1296.56 1563.97 1296.56 1558.75 L1296.56 1538.54 L1302.42 1538.54 L1302.42 1574.19 L1296.56 1574.19 L1296.56 1568.71 Q1294.43 1571.96 1291.59 1573.55 Q1288.79 1575.11 1285.07 1575.11 Q1278.93 1575.11 1275.74 1571.29 Q1272.56 1567.47 1272.56 1560.12 M1287.3 1537.68 L1287.3 1537.68 Z" fill="#000000" fill-rule="nonzero" fill-opacity="1"></path><path clip-path="url(#clip380)" d="M1340.13 1539.91 L1340.13 1545.38 Q1337.65 1544.01 1335.14 1543.34 Q1332.65 1542.64 1330.11 1542.64 Q1324.41 1542.64 1321.26 1546.27 Q1318.11 1549.87 1318.11 1556.39 Q1318.11 1562.92 1321.26 1566.55 Q1324.41 1570.14 1330.11 1570.14 Q1332.65 1570.14 1335.14 1569.47 Q1337.65 1568.77 1340.13 1567.41 L1340.13 1572.82 Q1337.68 1573.96 1335.04 1574.54 Q1332.43 1575.11 1329.47 1575.11 Q1321.42 1575.11 1316.68 1570.05 Q1311.93 1564.99 1311.93 1556.39 Q1311.93 1547.67 1316.71 1542.68 Q1321.51 1537.68 1329.85 1537.68 Q1332.56 1537.68 1335.14 1538.25 Q1337.71 1538.79 1340.13 1539.91 Z" fill="#000000" fill-rule="nonzero" fill-opacity="1"></path><path clip-path="url(#clip380)" d="M1356.11 1528.42 L1356.11 1538.54 L1368.17 1538.54 L1368.17 1543.09 L1356.11 1543.09 L1356.11 1562.44 Q1356.11 1566.8 1357.29 1568.04 Q1358.5 1569.28 1362.16 1569.28 L1368.17 1569.28 L1368.17 1574.19 L1362.16 1574.19 Q1355.38 1574.19 1352.8 1571.67 Q1350.22 1569.12 1350.22 1562.44 L1350.22 1543.09 L1345.93 1543.09 L1345.93 1538.54 L1350.22 1538.54 L1350.22 1528.42 L1356.11 1528.42 Z" fill="#000000" fill-rule="nonzero" fill-opacity="1"></path><path clip-path="url(#clip380)" d="M1390.26 1526.67 L1430.46 1526.67 L1430.46 1532.08 L1413.59 1532.08 L1413.59 1574.19 L1407.13 1574.19 L1407.13 1532.08 L1390.26 1532.08 L1390.26 1526.67 Z" fill="#000000" fill-rule="nonzero" fill-opacity="1"></path><path clip-path="url(#clip380)" d="M1439.15 1542.64 Q1434.44 1542.64 1431.7 1546.34 Q1428.97 1550 1428.97 1556.39 Q1428.97 1562.79 1431.67 1566.48 Q1434.41 1570.14 1439.15 1570.14 Q1443.83 1570.14 1446.57 1566.45 Q1449.31 1562.76 1449.31 1556.39 Q1449.31 1550.06 1446.57 1546.37 Q1443.83 1542.64 1439.15 1542.64 M1439.15 1537.68 Q1446.79 1537.68 1451.15 1542.64 Q1455.51 1547.61 1455.51 1556.39 Q1455.51 1565.15 1451.15 1570.14 Q1446.79 1575.11 1439.15 1575.11 Q1431.48 1575.11 1427.12 1570.14 Q1422.79 1565.15 1422.79 1556.39 Q1422.79 1547.61 1427.12 1542.64 Q1431.48 1537.68 1439.15 1537.68 Z" fill="#000000" fill-rule="nonzero" fill-opacity="1"></path><path clip-path="url(#clip380)" d="M1465.22 1524.66 L1471.08 1524.66 L1471.08 1574.19 L1465.22 1574.19 L1465.22 1524.66 Z" fill="#000000" fill-rule="nonzero" fill-opacity="1"></path><path clip-path="url(#clip380)" d="M1513.82 1554.9 L1513.82 1557.76 L1486.89 1557.76 Q1487.28 1563.81 1490.52 1566.99 Q1493.8 1570.14 1499.63 1570.14 Q1503 1570.14 1506.15 1569.32 Q1509.33 1568.49 1512.45 1566.83 L1512.45 1572.37 Q1509.3 1573.71 1505.99 1574.41 Q1502.68 1575.11 1499.28 1575.11 Q1490.75 1575.11 1485.75 1570.14 Q1480.78 1565.18 1480.78 1556.71 Q1480.78 1547.96 1485.49 1542.83 Q1490.24 1537.68 1498.26 1537.68 Q1505.45 1537.68 1509.62 1542.33 Q1513.82 1546.94 1513.82 1554.9 M1507.97 1553.18 Q1507.9 1548.37 1505.26 1545.51 Q1502.65 1542.64 1498.32 1542.64 Q1493.42 1542.64 1490.46 1545.41 Q1487.53 1548.18 1487.09 1553.21 L1507.97 1553.18 Z" fill="#000000" fill-rule="nonzero" fill-opacity="1"></path><path clip-path="url(#clip380)" d="M1544.09 1544.01 Q1543.1 1543.44 1541.93 1543.18 Q1540.78 1542.9 1539.38 1542.9 Q1534.41 1542.9 1531.74 1546.14 Q1529.1 1549.36 1529.1 1555.41 L1529.1 1574.19 L1523.21 1574.19 L1523.21 1538.54 L1529.1 1538.54 L1529.1 1544.08 Q1530.95 1540.83 1533.91 1539.27 Q1536.87 1537.68 1541.1 1537.68 Q1541.7 1537.68 1542.44 1537.77 Q1543.17 1537.84 1544.06 1538 L1544.09 1544.01 Z" fill="#000000" fill-rule="nonzero" fill-opacity="1"></path><path clip-path="url(#clip380)" d="M1566.43 1556.27 Q1559.34 1556.27 1556.6 1557.89 Q1553.86 1559.51 1553.86 1563.43 Q1553.86 1566.55 1555.9 1568.39 Q1557.97 1570.21 1561.5 1570.21 Q1566.37 1570.21 1569.3 1566.77 Q1572.26 1563.3 1572.26 1557.57 L1572.26 1556.27 L1566.43 1556.27 M1578.12 1553.85 L1578.12 1574.19 L1572.26 1574.19 L1572.26 1568.77 Q1570.25 1572.02 1567.26 1573.58 Q1564.27 1575.11 1559.94 1575.11 Q1554.47 1575.11 1551.22 1572.05 Q1548.01 1568.97 1548.01 1563.81 Q1548.01 1557.79 1552.02 1554.74 Q1556.06 1551.68 1564.05 1551.68 L1572.26 1551.68 L1572.26 1551.11 Q1572.26 1547.07 1569.59 1544.87 Q1566.94 1542.64 1562.14 1542.64 Q1559.08 1542.64 1556.19 1543.38 Q1553.29 1544.11 1550.62 1545.57 L1550.62 1540.16 Q1553.83 1538.92 1556.85 1538.31 Q1559.88 1537.68 1562.74 1537.68 Q1570.48 1537.68 1574.3 1541.69 Q1578.12 1545.7 1578.12 1553.85 Z" fill="#000000" fill-rule="nonzero" fill-opacity="1"></path><path clip-path="url(#clip380)" d="M1619.81 1552.67 L1619.81 1574.19 L1613.95 1574.19 L1613.95 1552.86 Q1613.95 1547.8 1611.98 1545.29 Q1610.01 1542.77 1606.06 1542.77 Q1601.32 1542.77 1598.58 1545.79 Q1595.84 1548.82 1595.84 1554.04 L1595.84 1574.19 L1589.96 1574.19 L1589.96 1538.54 L1595.84 1538.54 L1595.84 1544.08 Q1597.94 1540.86 1600.78 1539.27 Q1603.64 1537.68 1607.37 1537.68 Q1613.51 1537.68 1616.66 1541.5 Q1619.81 1545.29 1619.81 1552.67 Z" fill="#000000" fill-rule="nonzero" fill-opacity="1"></path><path clip-path="url(#clip380)" d="M1657.15 1539.91 L1657.15 1545.38 Q1654.66 1544.01 1652.15 1543.34 Q1649.67 1542.64 1647.12 1542.64 Q1641.42 1542.64 1638.27 1546.27 Q1635.12 1549.87 1635.12 1556.39 Q1635.12 1562.92 1638.27 1566.55 Q1641.42 1570.14 1647.12 1570.14 Q1649.67 1570.14 1652.15 1569.47 Q1654.66 1568.77 1657.15 1567.41 L1657.15 1572.82 Q1654.69 1573.96 1652.05 1574.54 Q1649.44 1575.11 1646.48 1575.11 Q1638.43 1575.11 1633.69 1570.05 Q1628.95 1564.99 1628.95 1556.39 Q1628.95 1547.67 1633.72 1542.68 Q1638.53 1537.68 1646.86 1537.68 Q1649.57 1537.68 1652.15 1538.25 Q1654.73 1538.79 1657.15 1539.91 Z" fill="#000000" fill-rule="nonzero" fill-opacity="1"></path><path clip-path="url(#clip380)" d="M1697.82 1554.9 L1697.82 1557.76 L1670.9 1557.76 Q1671.28 1563.81 1674.52 1566.99 Q1677.8 1570.14 1683.63 1570.14 Q1687 1570.14 1690.15 1569.32 Q1693.33 1568.49 1696.45 1566.83 L1696.45 1572.37 Q1693.3 1573.71 1689.99 1574.41 Q1686.68 1575.11 1683.28 1575.11 Q1674.75 1575.11 1669.75 1570.14 Q1664.78 1565.18 1664.78 1556.71 Q1664.78 1547.96 1669.49 1542.83 Q1674.24 1537.68 1682.26 1537.68 Q1689.45 1537.68 1693.62 1542.33 Q1697.82 1546.94 1697.82 1554.9 M1691.97 1553.18 Q1691.9 1548.37 1689.26 1545.51 Q1686.65 1542.64 1682.32 1542.64 Q1677.42 1542.64 1674.46 1545.41 Q1671.53 1548.18 1671.09 1553.21 L1691.97 1553.18 Z" fill="#000000" fill-rule="nonzero" fill-opacity="1"></path><path clip-path="url(#clip380)" d="M1735.25 1574.19 L1724.37 1538.54 L1730.67 1538.54 L1739.87 1568.46 Q1743.69 1564.51 1746.87 1559.04 Q1749.29 1554.93 1749.42 1551.36 Q1749.48 1549.68 1748.72 1546.49 Q1747.82 1542.71 1744.45 1538.54 L1750.37 1538.54 L1750.37 1538.54 Q1752.57 1541.37 1754.03 1545.32 Q1755.37 1548.95 1755.37 1551.43 Q1755.37 1557.67 1751.04 1563.24 Q1745.41 1570.49 1741.49 1574.19 L1735.25 1574.19 Z" fill="#000000" fill-rule="nonzero" fill-opacity="1"></path><polyline clip-path="url(#clip382)" style="stroke:#000000; stroke-linecap:round; stroke-linejoin:round; stroke-width:2; stroke-opacity:0.1; fill:none" points="271.11,1375.99 2352.76,1375.99 "></polyline>
<polyline clip-path="url(#clip382)" style="stroke:#000000; stroke-linecap:round; stroke-linejoin:round; stroke-width:2; stroke-opacity:0.1; fill:none" points="271.11,1088.99 2352.76,1088.99 "></polyline>
<polyline clip-path="url(#clip382)" style="stroke:#000000; stroke-linecap:round; stroke-linejoin:round; stroke-width:2; stroke-opacity:0.1; fill:none" points="271.11,802.004 2352.76,802.004 "></polyline>
<polyline clip-path="url(#clip382)" style="stroke:#000000; stroke-linecap:round; stroke-linejoin:round; stroke-width:2; stroke-opacity:0.1; fill:none" points="271.11,515.013 2352.76,515.013 "></polyline>
<polyline clip-path="url(#clip382)" style="stroke:#000000; stroke-linecap:round; stroke-linejoin:round; stroke-width:2; stroke-opacity:0.1; fill:none" points="271.11,228.022 2352.76,228.022 "></polyline>
<polyline clip-path="url(#clip380)" style="stroke:#000000; stroke-linecap:round; stroke-linejoin:round; stroke-width:4; stroke-opacity:1; fill:none" points="271.11,1410.9 271.11,123.472 "></polyline>
<polyline clip-path="url(#clip380)" style="stroke:#000000; stroke-linecap:round; stroke-linejoin:round; stroke-width:4; stroke-opacity:1; fill:none" points="271.11,1375.99 290.008,1375.99 "></polyline>
<polyline clip-path="url(#clip380)" style="stroke:#000000; stroke-linecap:round; stroke-linejoin:round; stroke-width:4; stroke-opacity:1; fill:none" points="271.11,1088.99 290.008,1088.99 "></polyline>
<polyline clip-path="url(#clip380)" style="stroke:#000000; stroke-linecap:round; stroke-linejoin:round; stroke-width:4; stroke-opacity:1; fill:none" points="271.11,802.004 290.008,802.004 "></polyline>
<polyline clip-path="url(#clip380)" style="stroke:#000000; stroke-linecap:round; stroke-linejoin:round; stroke-width:4; stroke-opacity:1; fill:none" points="271.11,515.013 290.008,515.013 "></polyline>
<polyline clip-path="url(#clip380)" style="stroke:#000000; stroke-linecap:round; stroke-linejoin:round; stroke-width:4; stroke-opacity:1; fill:none" points="271.11,228.022 290.008,228.022 "></polyline>
<path clip-path="url(#clip380)" d="M168.745 1389.33 L176.384 1389.33 L176.384 1362.96 L168.074 1364.63 L168.074 1360.37 L176.337 1358.71 L181.013 1358.71 L181.013 1389.33 L188.652 1389.33 L188.652 1393.27 L168.745 1393.27 L168.745 1389.33 Z" fill="#000000" fill-rule="nonzero" fill-opacity="1"></path><path clip-path="url(#clip380)" d="M198.097 1387.39 L202.981 1387.39 L202.981 1393.27 L198.097 1393.27 L198.097 1387.39 Z" fill="#000000" fill-rule="nonzero" fill-opacity="1"></path><path clip-path="url(#clip380)" d="M223.166 1361.78 Q219.555 1361.78 217.726 1365.35 Q215.921 1368.89 215.921 1376.02 Q215.921 1383.13 217.726 1386.69 Q219.555 1390.23 223.166 1390.23 Q226.8 1390.23 228.606 1386.69 Q230.434 1383.13 230.434 1376.02 Q230.434 1368.89 228.606 1365.35 Q226.8 1361.78 223.166 1361.78 M223.166 1358.08 Q228.976 1358.08 232.032 1362.69 Q235.11 1367.27 235.11 1376.02 Q235.11 1384.75 232.032 1389.35 Q228.976 1393.94 223.166 1393.94 Q217.356 1393.94 214.277 1389.35 Q211.221 1384.75 211.221 1376.02 Q211.221 1367.27 214.277 1362.69 Q217.356 1358.08 223.166 1358.08 Z" fill="#000000" fill-rule="nonzero" fill-opacity="1"></path><path clip-path="url(#clip380)" d="M169.972 1102.34 L177.611 1102.34 L177.611 1075.97 L169.3 1077.64 L169.3 1073.38 L177.564 1071.71 L182.24 1071.71 L182.24 1102.34 L189.879 1102.34 L189.879 1106.27 L169.972 1106.27 L169.972 1102.34 Z" fill="#000000" fill-rule="nonzero" fill-opacity="1"></path><path clip-path="url(#clip380)" d="M199.323 1100.4 L204.208 1100.4 L204.208 1106.27 L199.323 1106.27 L199.323 1100.4 Z" fill="#000000" fill-rule="nonzero" fill-opacity="1"></path><path clip-path="url(#clip380)" d="M215.203 1102.34 L222.842 1102.34 L222.842 1075.97 L214.532 1077.64 L214.532 1073.38 L222.795 1071.71 L227.471 1071.71 L227.471 1102.34 L235.11 1102.34 L235.11 1106.27 L215.203 1106.27 L215.203 1102.34 Z" fill="#000000" fill-rule="nonzero" fill-opacity="1"></path><path clip-path="url(#clip380)" d="M170.342 815.348 L177.981 815.348 L177.981 788.983 L169.671 790.65 L169.671 786.39 L177.935 784.724 L182.611 784.724 L182.611 815.348 L190.249 815.348 L190.249 819.284 L170.342 819.284 L170.342 815.348 Z" fill="#000000" fill-rule="nonzero" fill-opacity="1"></path><path clip-path="url(#clip380)" d="M199.694 813.404 L204.578 813.404 L204.578 819.284 L199.694 819.284 L199.694 813.404 Z" fill="#000000" fill-rule="nonzero" fill-opacity="1"></path><path clip-path="url(#clip380)" d="M218.791 815.348 L235.11 815.348 L235.11 819.284 L213.166 819.284 L213.166 815.348 Q215.828 812.594 220.411 807.964 Q225.018 803.311 226.198 801.969 Q228.444 799.446 229.323 797.71 Q230.226 795.95 230.226 794.261 Q230.226 791.506 228.282 789.77 Q226.36 788.034 223.258 788.034 Q221.059 788.034 218.606 788.798 Q216.175 789.562 213.397 791.112 L213.397 786.39 Q216.221 785.256 218.675 784.677 Q221.129 784.099 223.166 784.099 Q228.536 784.099 231.731 786.784 Q234.925 789.469 234.925 793.96 Q234.925 796.089 234.115 798.011 Q233.328 799.909 231.221 802.501 Q230.643 803.173 227.541 806.39 Q224.439 809.585 218.791 815.348 Z" fill="#000000" fill-rule="nonzero" fill-opacity="1"></path><path clip-path="url(#clip380)" d="M169.393 528.357 L177.032 528.357 L177.032 501.992 L168.722 503.659 L168.722 499.399 L176.986 497.733 L181.661 497.733 L181.661 528.357 L189.3 528.357 L189.3 532.293 L169.393 532.293 L169.393 528.357 Z" fill="#000000" fill-rule="nonzero" fill-opacity="1"></path><path clip-path="url(#clip380)" d="M198.745 526.413 L203.629 526.413 L203.629 532.293 L198.745 532.293 L198.745 526.413 Z" fill="#000000" fill-rule="nonzero" fill-opacity="1"></path><path clip-path="url(#clip380)" d="M227.981 513.658 Q231.337 514.376 233.212 516.645 Q235.11 518.913 235.11 522.246 Q235.11 527.362 231.592 530.163 Q228.073 532.964 221.592 532.964 Q219.416 532.964 217.101 532.524 Q214.809 532.107 212.356 531.251 L212.356 526.737 Q214.3 527.871 216.615 528.45 Q218.93 529.029 221.453 529.029 Q225.851 529.029 228.143 527.293 Q230.457 525.557 230.457 522.246 Q230.457 519.191 228.305 517.478 Q226.175 515.742 222.356 515.742 L218.328 515.742 L218.328 511.899 L222.541 511.899 Q225.99 511.899 227.819 510.533 Q229.647 509.145 229.647 506.552 Q229.647 503.89 227.749 502.478 Q225.874 501.043 222.356 501.043 Q220.434 501.043 218.235 501.459 Q216.036 501.876 213.397 502.756 L213.397 498.589 Q216.059 497.848 218.374 497.478 Q220.712 497.108 222.772 497.108 Q228.096 497.108 231.198 499.538 Q234.3 501.946 234.3 506.066 Q234.3 508.936 232.657 510.927 Q231.013 512.895 227.981 513.658 Z" fill="#000000" fill-rule="nonzero" fill-opacity="1"></path><path clip-path="url(#clip380)" d="M168.259 241.366 L175.898 241.366 L175.898 215.001 L167.587 216.668 L167.587 212.408 L175.851 210.742 L180.527 210.742 L180.527 241.366 L188.166 241.366 L188.166 245.302 L168.259 245.302 L168.259 241.366 Z" fill="#000000" fill-rule="nonzero" fill-opacity="1"></path><path clip-path="url(#clip380)" d="M197.61 239.422 L202.495 239.422 L202.495 245.302 L197.61 245.302 L197.61 239.422 Z" fill="#000000" fill-rule="nonzero" fill-opacity="1"></path><path clip-path="url(#clip380)" d="M225.527 214.816 L213.721 233.265 L225.527 233.265 L225.527 214.816 M224.3 210.742 L230.18 210.742 L230.18 233.265 L235.11 233.265 L235.11 237.154 L230.18 237.154 L230.18 245.302 L225.527 245.302 L225.527 237.154 L209.925 237.154 L209.925 232.64 L224.3 210.742 Z" fill="#000000" fill-rule="nonzero" fill-opacity="1"></path><path clip-path="url(#clip380)" d="M86.8038 1009.93 L73.5994 1009.93 Q72.8587 1009.93 72.6011 1009.9 Q72.3434 1009.87 72.1502 1009.67 Q71.9569 1009.48 71.9569 1009.09 Q71.9569 1008.35 72.6333 1008.29 Q79.1711 1008.1 82.7781 1004.2 Q86.353 1000.37 86.353 993.797 Q86.353 989.836 83.5188 987.388 Q80.6525 984.94 76.9166 984.94 Q73.3418 984.94 70.8297 987.002 Q69.7025 987.871 68.994 988.966 Q68.2533 990.029 68.0278 990.705 Q67.8024 991.349 67.4803 992.605 Q65.5158 1000.79 65.2903 1001.3 Q63.9699 1005.2 60.6527 1007.58 Q57.3033 1009.93 53.2131 1009.93 Q47.9314 1009.93 44.1955 1006.23 Q40.4274 1002.49 40.4274 997.082 Q40.4274 994.377 41.297 992.122 Q42.1343 989.836 42.9073 988.902 Q43.6802 987.968 45.065 986.518 L41.297 984.232 Q40.4274 983.717 40.4274 983.233 Q40.4274 982.718 40.7495 982.622 Q41.0393 982.493 42.0055 982.493 L55.2743 982.493 Q56.015 982.493 56.2727 982.525 Q56.5303 982.557 56.6914 982.783 Q56.8524 982.976 56.8524 983.362 Q56.8524 984.006 56.0795 984.167 Q42.2953 986.003 42.2953 997.018 Q42.2953 1000.79 44.8396 1003.27 Q47.3517 1005.71 50.9265 1005.71 Q53.825 1005.71 56.2083 1003.91 Q58.5593 1002.11 59.3 999.046 L61.329 990.609 Q62.3274 986.39 66.0633 983.555 Q69.7991 980.721 74.6622 980.721 Q80.2661 980.721 84.324 984.393 Q88.3819 988.032 88.3819 993.733 Q88.3819 997.823 87.0293 1000.98 Q85.6766 1004.14 83.7765 1005.84 Q85.9665 1007.16 87.1903 1008.03 L87.5124 1008.23 Q88.3819 1008.74 88.3819 1009.22 Q88.3819 1009.74 88.0599 1009.84 Q87.7378 1009.93 86.8038 1009.93 Z" fill="#000000" fill-rule="nonzero" fill-opacity="1"></path><path clip-path="url(#clip380)" d="M97.6894 976.071 Q97.6894 972.561 97.2385 971.756 Q96.8199 970.918 94.7265 970.918 L63.8411 970.918 Q61.6511 970.918 61.1036 971.756 Q60.5561 972.561 60.5561 976.071 L58.4949 976.071 L57.7864 966.571 L62.1342 966.571 Q57.7864 962.609 57.7864 957.328 Q57.7864 951.724 62.1342 947.634 Q66.4819 943.543 72.6977 943.543 Q78.9778 943.543 83.3256 947.891 Q87.6734 952.239 87.6734 958.262 Q87.6734 961.547 85.9987 963.769 Q84.2918 965.959 83.0358 966.377 L83.6477 966.377 L94.7265 966.377 Q96.8521 966.377 97.2707 965.54 Q97.6894 964.703 97.6894 961.224 L99.7184 961.224 Q99.5252 968.149 99.5252 968.664 Q99.5252 969.308 99.7184 976.071 L97.6894 976.071 M79.4287 966.377 Q80.4271 966.377 80.7813 966.249 Q81.1356 966.088 82.1984 965.443 Q86.1919 962.835 86.1919 958.584 Q86.1919 958.551 86.1919 958.519 Q86.1919 954.751 82.3594 951.885 Q78.4947 949.018 72.6977 949.018 Q67.1583 949.018 63.2936 951.627 Q59.4289 954.236 59.4289 957.843 Q59.4289 960.419 60.8137 962.674 Q62.1986 964.928 64.7106 966.377 L79.4287 966.377 Z" fill="#000000" fill-rule="nonzero" fill-opacity="1"></path><path clip-path="url(#clip380)" d="M72.4078 934.555 Q66.1921 934.555 61.7799 930.561 Q57.3677 926.568 57.3677 920.835 Q57.3677 915.038 61.1358 912.043 Q64.9039 909.015 70.3144 909.015 Q71.3128 909.015 71.5061 909.273 Q71.6993 909.531 71.6993 910.658 L71.6993 929.08 Q78.4303 929.08 81.5865 927.083 Q85.9987 924.313 85.9987 919.643 Q85.9987 918.999 85.8699 918.226 Q85.7411 917.453 85.1936 915.875 Q84.6138 914.297 83.1002 912.912 Q81.5865 911.527 79.2033 910.722 Q78.2693 910.529 78.3015 909.885 Q78.3015 909.015 79.0744 909.015 Q79.6541 909.015 80.9746 909.66 Q82.2628 910.271 83.8087 911.463 Q85.3546 912.655 86.514 914.974 Q87.6734 917.26 87.6734 920.03 Q87.6734 925.827 83.2934 930.207 Q78.8812 934.555 72.4078 934.555 M70.3144 929.015 L70.3144 913.363 Q68.9296 913.363 67.3837 913.621 Q65.8378 913.846 63.7122 914.555 Q61.5544 915.231 60.2018 916.841 Q58.8492 918.452 58.8492 920.835 Q58.8492 921.898 59.3 923.057 Q59.7509 924.184 60.8459 925.569 Q61.9409 926.954 64.4208 927.92 Q66.9006 928.886 70.3144 929.015 Z" fill="#000000" fill-rule="nonzero" fill-opacity="1"></path><path clip-path="url(#clip380)" d="M72.4078 905.559 Q66.1921 905.559 61.7799 901.565 Q57.3677 897.572 57.3677 891.839 Q57.3677 886.042 61.1358 883.047 Q64.9039 880.02 70.3144 880.02 Q71.3128 880.02 71.5061 880.277 Q71.6993 880.535 71.6993 881.662 L71.6993 900.084 Q78.4303 900.084 81.5865 898.087 Q85.9987 895.317 85.9987 890.648 Q85.9987 890.004 85.8699 889.231 Q85.7411 888.458 85.1936 886.88 Q84.6138 885.301 83.1002 883.917 Q81.5865 882.532 79.2033 881.727 Q78.2693 881.533 78.3015 880.889 Q78.3015 880.02 79.0744 880.02 Q79.6541 880.02 80.9746 880.664 Q82.2628 881.276 83.8087 882.467 Q85.3546 883.659 86.514 885.978 Q87.6734 888.264 87.6734 891.034 Q87.6734 896.831 83.2934 901.211 Q78.8812 905.559 72.4078 905.559 M70.3144 900.02 L70.3144 884.368 Q68.9296 884.368 67.3837 884.625 Q65.8378 884.851 63.7122 885.559 Q61.5544 886.235 60.2018 887.846 Q58.8492 889.456 58.8492 891.839 Q58.8492 892.902 59.3 894.061 Q59.7509 895.189 60.8459 896.574 Q61.9409 897.958 64.4208 898.925 Q66.9006 899.891 70.3144 900.02 Z" fill="#000000" fill-rule="nonzero" fill-opacity="1"></path><path clip-path="url(#clip380)" d="M72.7621 876.563 Q66.4819 876.563 62.1342 872.183 Q57.7864 867.803 57.7864 861.877 Q57.7864 856.853 61.8765 853.568 L47.6093 853.568 Q45.1617 853.568 44.5498 854.438 Q43.9378 855.275 43.9378 858.689 L41.8767 858.689 L41.1681 849.188 L81.2 849.188 Q83.6477 849.188 84.2918 848.351 Q84.9037 847.481 84.9037 844.068 L86.9327 844.068 L87.6734 853.761 L83.2934 853.761 Q87.6412 857.175 87.6734 862.586 Q87.6734 868.254 83.3256 872.409 Q78.9778 876.563 72.7621 876.563 M72.8265 871.088 Q78.9456 871.088 81.973 869.188 Q86.1919 866.547 86.1919 862.264 Q86.1919 857.369 81.5865 854.47 Q80.4593 853.729 79.1388 853.761 L65.6124 853.761 Q64.2919 853.761 63.1969 854.47 Q59.2356 857.175 59.2356 861.588 Q59.2356 866.193 63.4546 869.059 Q66.6108 871.088 72.8265 871.088 Z" fill="#000000" fill-rule="nonzero" fill-opacity="1"></path><path clip-path="url(#clip380)" d="M60.5561 822.896 L58.4949 822.896 L57.7864 813.202 L79.6863 813.202 Q81.2644 813.202 82.1984 813.073 Q83.1002 812.944 84.163 812.429 Q85.2258 811.881 85.7088 810.657 Q86.1919 809.401 86.1919 807.405 Q86.1919 803.83 83.2612 801.64 Q80.3305 799.418 75.9827 799.418 L64.2275 799.418 Q61.7799 799.418 61.168 800.287 Q60.5561 801.157 60.5561 804.571 L58.4949 804.571 L57.7864 794.877 L81.2 794.877 Q83.6477 794.877 84.2918 794.039 Q84.9037 793.17 84.9037 789.724 L86.9327 789.724 L87.6734 799.224 L81.7153 799.224 Q87.6412 801.994 87.6734 807.727 Q87.6734 810.625 86.9327 812.622 Q86.1919 814.587 85.2902 815.585 Q84.3562 816.583 82.5849 817.131 Q80.8136 817.646 79.7186 817.711 Q78.6236 817.775 76.498 817.775 L66.6108 817.775 Q62.1342 817.775 61.3612 818.419 Q60.5561 819.063 60.5561 822.896 Z" fill="#000000" fill-rule="nonzero" fill-opacity="1"></path><path clip-path="url(#clip380)" d="M97.6894 791.147 Q97.6894 787.637 97.2385 786.831 Q96.8199 785.994 94.7265 785.994 L63.8411 785.994 Q61.6511 785.994 61.1036 786.831 Q60.5561 787.637 60.5561 791.147 L58.4949 791.147 L57.7864 781.646 L62.1342 781.646 Q57.7864 777.685 57.7864 772.403 Q57.7864 766.799 62.1342 762.709 Q66.4819 758.619 72.6977 758.619 Q78.9778 758.619 83.3256 762.967 Q87.6734 767.315 87.6734 773.337 Q87.6734 776.622 85.9987 778.844 Q84.2918 781.034 83.0358 781.453 L83.6477 781.453 L94.7265 781.453 Q96.8521 781.453 97.2707 780.616 Q97.6894 779.778 97.6894 776.3 L99.7184 776.3 Q99.5252 783.224 99.5252 783.74 Q99.5252 784.384 99.7184 791.147 L97.6894 791.147 M79.4287 781.453 Q80.4271 781.453 80.7813 781.324 Q81.1356 781.163 82.1984 780.519 Q86.1919 777.91 86.1919 773.659 Q86.1919 773.627 86.1919 773.595 Q86.1919 769.827 82.3594 766.96 Q78.4947 764.094 72.6977 764.094 Q67.1583 764.094 63.2936 766.703 Q59.4289 769.311 59.4289 772.918 Q59.4289 775.495 60.8137 777.749 Q62.1986 780.004 64.7106 781.453 L79.4287 781.453 Z" fill="#000000" fill-rule="nonzero" fill-opacity="1"></path><path clip-path="url(#clip380)" d="M8.63719 681.142 Q9.53895 681.142 9.76439 681.561 Q9.95763 681.979 9.95763 683.139 L9.95763 689.322 L29.41 694.217 Q31.1169 694.604 32.5661 694.604 Q34.1764 694.604 34.885 694.121 Q35.5935 693.606 35.5935 692.543 Q35.5935 690.449 33.6933 688.195 Q31.7932 685.908 27.1556 683.976 Q26.5436 683.718 26.4148 683.59 Q26.2538 683.429 26.2538 683.01 Q26.2538 682.205 26.8979 682.205 Q27.1234 682.205 28.1539 682.656 Q29.1845 683.074 30.6982 684.008 Q32.2119 684.91 33.6289 686.102 Q35.046 687.261 36.0766 689.032 Q37.075 690.804 37.075 692.704 Q37.075 695.377 35.3681 697.084 Q33.6611 698.758 30.9881 698.758 Q30.1185 698.758 27.3488 698.082 Q24.5469 697.406 9.95763 693.734 L9.95763 699.564 Q9.95763 700.369 9.92542 700.691 Q9.89322 700.981 9.73219 701.206 Q9.53895 701.399 9.15248 701.399 Q8.54057 701.399 8.28293 701.142 Q7.99307 700.884 7.96087 700.562 Q7.89645 700.208 7.89645 699.403 L7.89645 693.219 L-2.57045 690.643 Q-3.60104 690.385 -4.18074 689.741 Q-4.79265 689.065 -4.85707 688.678 Q-4.95368 688.292 -4.95368 688.002 Q-4.95368 687.132 -4.4706 686.617 Q-4.01971 686.102 -3.18236 686.102 Q-2.73148 686.102 7.89645 688.807 L7.89645 683.01 Q7.89645 682.269 7.92866 681.979 Q7.96087 681.657 8.1219 681.4 Q8.28293 681.142 8.63719 681.142 Z" fill="#000000" fill-rule="nonzero" fill-opacity="1"></path><path clip-path="url(#clip380)" d="M48.8997 656.735 Q49.1026 656.555 49.3055 656.555 Q49.5084 656.555 50.0946 657.006 Q50.6807 657.434 51.4697 658.358 Q52.2588 659.283 53.0027 660.477 Q53.7467 661.672 54.2427 663.431 Q54.7612 665.189 54.7612 667.038 Q54.7612 670.352 52.3941 672.336 Q50.0269 674.297 46.3973 674.297 Q44.0753 674.297 42.0238 673.53 Q39.9497 672.764 38.4843 671.524 Q37.019 670.261 35.9594 668.683 Q34.8773 667.083 34.3588 665.414 Q33.8403 663.746 33.8403 662.191 Q33.8403 659.914 34.99 658.584 Q36.1398 657.254 37.7629 657.254 Q38.1462 657.254 38.6196 657.366 Q39.093 657.456 39.837 657.772 Q40.5809 658.065 41.3249 658.832 Q42.0463 659.598 42.5197 660.725 Q43.5793 663.228 43.5793 667.782 L43.5793 670.239 Q46.4875 670.96 48.3812 670.96 Q49.1252 670.96 49.8917 670.825 Q50.6356 670.69 51.5825 670.329 Q52.5293 669.946 53.138 669.089 Q53.7242 668.21 53.7242 666.947 Q53.7242 666.542 53.7016 666.113 Q53.6791 665.662 53.4311 664.535 Q53.1831 663.386 52.7548 662.371 Q52.3264 661.357 51.4021 660.072 Q50.4553 658.764 49.1702 657.727 Q48.6968 657.366 48.6968 657.118 Q48.6968 656.915 48.8997 656.735 M37.7629 658.787 Q36.523 658.787 35.6889 659.711 Q34.8547 660.613 34.8547 662.191 Q34.8547 662.687 34.9675 663.295 Q35.0802 663.904 35.5536 664.919 Q36.027 665.91 36.8161 666.79 Q37.5826 667.669 39.093 668.548 Q40.5809 669.427 42.5648 669.946 L42.5648 668.052 Q42.5648 667.398 42.5648 666.925 Q42.5423 666.452 42.4521 665.414 Q42.3619 664.355 42.2041 663.588 Q42.0238 662.822 41.6631 661.853 Q41.3024 660.883 40.8289 660.274 Q40.333 659.643 39.5439 659.215 Q38.7549 658.787 37.7629 658.787 Z" fill="#000000" fill-rule="nonzero" fill-opacity="1"></path><path clip-path="url(#clip380)" d="M36.8837 631.012 Q38.1462 631.012 38.8676 631.801 Q39.5665 632.59 39.5665 633.491 Q39.5665 634.348 39.0705 634.799 Q38.5745 635.25 37.9433 635.25 Q37.0866 635.25 36.3427 634.619 Q35.5987 633.987 35.4409 633.041 Q34.8547 633.965 34.8547 635.34 Q34.8547 636.242 35.3282 637.031 Q35.8016 637.797 36.4103 638.271 Q37.019 638.722 37.8982 639.127 Q38.7549 639.511 39.2734 639.669 Q39.7694 639.804 40.3104 639.916 L46.6228 641.495 Q49.6211 642.261 50.6807 642.261 Q51.9883 642.261 52.8675 641.63 Q53.7242 640.999 53.7242 639.736 Q53.7242 639.24 53.5889 638.677 Q53.4311 638.113 53.0253 637.392 Q52.5969 636.648 51.9657 635.994 Q51.3119 635.317 50.2073 634.664 Q49.1026 634.01 47.6823 633.582 Q47.1864 633.446 47.1864 632.995 Q47.1864 632.432 47.6372 632.432 Q48.0205 632.432 48.8321 632.747 Q49.6211 633.041 50.6582 633.694 Q51.6726 634.326 52.5969 635.16 Q53.4987 635.994 54.1299 637.234 Q54.7612 638.474 54.7612 639.826 Q54.7612 641.765 53.7242 643.05 Q52.6871 644.335 51.2443 644.809 Q51.4472 644.921 51.7177 645.079 Q51.9883 645.237 52.5969 645.71 Q53.1831 646.161 53.634 646.68 Q54.0623 647.198 54.4005 648.01 Q54.7612 648.799 54.7612 649.656 Q54.7612 650.738 54.4456 651.707 Q54.1299 652.654 53.4085 653.33 Q52.6871 654.007 51.6952 654.007 Q50.5905 654.007 49.824 653.263 Q49.035 652.496 49.035 651.459 Q49.035 650.805 49.4182 650.287 Q49.8015 649.746 50.6356 649.746 Q51.5599 649.746 52.2588 650.377 Q52.9577 651.008 53.138 651.91 Q53.7242 650.986 53.7242 649.61 Q53.7242 648.123 52.4166 646.95 Q51.109 645.778 48.9223 645.214 Q43.6695 643.817 41.3249 643.276 Q38.9578 642.735 37.9433 642.735 Q36.9964 642.735 36.3427 642.982 Q35.6889 643.23 35.3958 643.659 Q35.0802 644.065 34.9675 644.448 Q34.8547 644.809 34.8547 645.214 Q34.8547 645.891 35.1253 646.657 Q35.3958 647.401 36.027 648.303 Q36.6357 649.182 37.8982 650.016 Q39.1607 650.85 40.8966 651.414 Q41.4151 651.527 41.4151 652.023 Q41.3925 652.564 40.9416 652.564 Q40.5584 652.564 39.7694 652.271 Q38.9578 651.955 37.9433 651.324 Q36.9288 650.67 36.027 649.836 Q35.1027 648.979 34.4715 647.739 Q33.8403 646.477 33.8403 645.124 Q33.8403 644.515 33.9755 643.929 Q34.0882 643.321 34.4264 642.599 Q34.7646 641.855 35.5085 641.202 Q36.2525 640.548 37.3346 640.142 Q36.8161 639.871 36.3201 639.511 Q35.8241 639.127 35.2154 638.541 Q34.5842 637.933 34.2235 637.098 Q33.8403 636.242 33.8403 635.295 Q33.8403 634.371 34.0882 633.469 Q34.3137 632.567 35.0576 631.801 Q35.779 631.012 36.8837 631.012 Z" fill="#000000" fill-rule="nonzero" fill-opacity="1"></path><path clip-path="url(#clip380)" d="M47.6372 606.616 Q50.5454 607.224 52.2137 608.013 Q54.7612 609.276 54.7612 611.418 Q54.7612 613.041 53.7692 614.191 Q52.7773 615.34 51.2894 615.611 Q54.7612 618.564 54.7612 621.63 Q54.7612 624.335 52.7097 626.049 Q50.6356 627.762 47.3667 627.762 Q44.0753 627.762 40.9191 626.139 Q37.7629 624.493 35.8016 621.901 Q33.8403 619.308 33.8403 616.648 Q33.8403 613.83 36.7935 612.387 Q35.9819 612.274 35.3733 611.756 Q34.7646 611.237 34.7646 610.448 Q34.7646 609.84 35.1027 609.479 Q35.4183 609.118 36.0045 609.118 Q36.2976 609.118 37.5826 609.434 L44.0302 611.102 L48.2008 612.116 Q49.7338 612.5 50.2974 612.612 Q50.8611 612.703 51.605 612.703 Q53.7242 612.703 53.7242 611.327 Q53.7242 610.651 53.2958 610.11 Q52.8675 609.569 51.9657 609.141 Q51.0639 608.712 50.2298 608.442 Q49.3731 608.171 48.0205 607.811 Q47.4794 607.698 47.3442 607.608 Q47.1864 607.495 47.1864 607.179 Q47.1864 606.616 47.6372 606.616 M38.9127 612.951 Q38.7098 612.951 38.1462 613.108 Q37.5826 613.266 36.7935 613.627 Q36.0045 613.988 35.4409 614.777 Q34.8547 615.543 34.8547 616.58 Q34.8547 617.978 36.0496 619.443 Q37.2444 620.886 39.2734 621.946 Q40.8966 622.757 44.3007 623.636 Q47.7049 624.493 49.3957 624.493 Q50.4327 624.493 51.357 624.268 Q52.2588 624.02 53.0027 623.321 Q53.7242 622.622 53.7242 621.54 Q53.7242 618.902 50.4553 616.31 Q49.8917 615.814 49.6662 615.701 Q49.4182 615.566 48.7419 615.385 L39.7017 613.086 Q39.0254 612.951 38.9127 612.951 Z" fill="#000000" fill-rule="nonzero" fill-opacity="1"></path><path clip-path="url(#clip380)" d="M48.8997 585.793 Q49.1026 585.612 49.3055 585.612 Q49.5084 585.612 50.0946 586.063 Q50.6807 586.491 51.4697 587.416 Q52.2588 588.34 53.0027 589.535 Q53.7467 590.73 54.2427 592.488 Q54.7612 594.247 54.7612 596.095 Q54.7612 599.544 52.4842 601.573 Q50.2073 603.58 46.9384 603.58 Q43.7597 603.58 40.7162 601.799 Q37.6502 600.018 35.7565 597.132 Q33.8403 594.247 33.8403 591.203 Q33.8403 588.791 34.9675 587.28 Q36.0947 585.77 37.808 585.77 Q39.1381 585.77 39.9497 586.536 Q40.7613 587.303 40.7613 588.34 Q40.7613 589.061 40.3555 589.557 Q39.9272 590.053 39.1381 590.053 Q38.1236 590.053 37.3346 589.219 Q37.019 588.904 36.8837 588.543 Q36.7259 588.16 36.7259 587.934 Q36.7034 587.709 36.7034 587.19 Q35.8241 587.664 35.3507 588.791 Q34.8547 589.896 34.8547 591.158 Q34.8547 593.029 36.1623 594.81 Q37.4473 596.591 39.4763 597.673 Q41.4602 598.755 44.2782 599.454 Q47.0736 600.153 48.6968 600.153 Q50.9287 600.153 52.3264 599.116 Q53.7242 598.079 53.7242 596.005 Q53.7242 595.599 53.7016 595.171 Q53.6791 594.72 53.4311 593.593 Q53.1831 592.443 52.7548 591.429 Q52.3264 590.414 51.4021 589.129 Q50.4553 587.821 49.1702 586.784 Q48.6968 586.424 48.6968 586.176 Q48.6968 585.973 48.8997 585.793 Z" fill="#000000" fill-rule="nonzero" fill-opacity="1"></path><path clip-path="url(#clip380)" d="M34.8547 570.725 Q35.486 570.725 35.6438 571.018 Q35.779 571.311 35.779 572.123 L35.779 576.451 L49.3957 579.878 Q50.5905 580.148 51.605 580.148 Q52.7322 580.148 53.2282 579.81 Q53.7242 579.449 53.7242 578.706 Q53.7242 577.24 52.3941 575.662 Q51.0639 574.061 47.8176 572.709 Q47.3893 572.528 47.2991 572.438 Q47.1864 572.326 47.1864 572.032 Q47.1864 571.469 47.6372 571.469 Q47.7951 571.469 48.5165 571.785 Q49.2379 572.078 50.2974 572.731 Q51.357 573.363 52.349 574.197 Q53.3409 575.008 54.0623 576.248 Q54.7612 577.488 54.7612 578.818 Q54.7612 580.689 53.5663 581.884 Q52.3715 583.057 50.5003 583.057 Q49.8917 583.057 47.9529 582.583 Q45.9915 582.11 35.779 579.54 L35.779 583.62 Q35.779 584.184 35.7565 584.409 Q35.734 584.612 35.6212 584.77 Q35.486 584.905 35.2154 584.905 Q34.7871 584.905 34.6068 584.725 Q34.4039 584.544 34.3813 584.319 Q34.3362 584.071 34.3362 583.507 L34.3362 579.179 L27.0094 577.375 Q26.288 577.195 25.8822 576.744 Q25.4538 576.271 25.4088 576 Q25.3411 575.73 25.3411 575.527 Q25.3411 574.918 25.6793 574.557 Q25.9949 574.197 26.5811 574.197 Q26.8967 574.197 34.3362 576.09 L34.3362 572.032 Q34.3362 571.514 34.3588 571.311 Q34.3813 571.086 34.494 570.905 Q34.6068 570.725 34.8547 570.725 Z" fill="#000000" fill-rule="nonzero" fill-opacity="1"></path><path clip-path="url(#clip380)" d="M72.3567 723.399 L72.3567 531.477 L68.8367 531.477 L68.8367 723.399  Z" fill="#000000" fill-rule="evenodd" fill-opacity="1"></path>
<path clip-path="url(#clip380)" d="M99.6303 703.142 Q100.532 703.142 100.758 703.561 Q100.951 703.979 100.951 705.139 L100.951 711.322 L120.403 716.217 Q122.11 716.604 123.559 716.604 Q125.17 716.604 125.878 716.121 Q126.587 715.606 126.587 714.543 Q126.587 712.449 124.686 710.195 Q122.786 707.908 118.149 705.976 Q117.537 705.718 117.408 705.59 Q117.247 705.429 117.247 705.01 Q117.247 704.205 117.891 704.205 Q118.116 704.205 119.147 704.656 Q120.178 705.074 121.691 706.008 Q123.205 706.91 124.622 708.102 Q126.039 709.261 127.07 711.032 Q128.068 712.804 128.068 714.704 Q128.068 717.377 126.361 719.084 Q124.654 720.758 121.981 720.758 Q121.112 720.758 118.342 720.082 Q115.54 719.406 100.951 715.734 L100.951 721.564 Q100.951 722.369 100.919 722.691 Q100.886 722.981 100.725 723.206 Q100.532 723.399 100.146 723.399 Q99.5337 723.399 99.2761 723.142 Q98.9862 722.884 98.954 722.562 Q98.8896 722.208 98.8896 721.403 L98.8896 715.219 L88.4227 712.643 Q87.3921 712.385 86.8124 711.741 Q86.2005 711.065 86.1361 710.678 Q86.0394 710.292 86.0394 710.002 Q86.0394 709.132 86.5225 708.617 Q86.9734 708.102 87.8108 708.102 Q88.2616 708.102 98.8896 710.807 L98.8896 705.01 Q98.8896 704.269 98.9218 703.979 Q98.954 703.657 99.115 703.4 Q99.2761 703.142 99.6303 703.142 Z" fill="#000000" fill-rule="nonzero" fill-opacity="1"></path><path clip-path="url(#clip380)" d="M117.344 684.506 Q118.336 684.506 119.08 685.318 Q119.801 686.107 119.801 686.964 Q119.801 687.753 119.328 688.249 Q118.832 688.722 118.133 688.722 Q117.209 688.722 116.442 687.933 Q115.676 687.144 115.676 686.22 Q115.676 685.453 116.149 684.98 Q116.623 684.506 117.344 684.506 M139.595 684.101 Q139.775 684.101 140.497 684.303 Q141.196 684.506 142.278 685.002 Q143.337 685.476 144.329 686.129 Q145.321 686.783 146.02 687.865 Q146.719 688.925 146.719 690.142 Q146.719 691.788 145.637 692.87 Q144.555 693.93 142.932 693.93 Q142.052 693.93 139.234 692.87 Q131.028 689.804 130.69 689.691 Q129.405 689.173 128.278 689.173 Q127.759 689.173 127.444 689.286 Q127.106 689.398 126.993 689.624 Q126.858 689.849 126.835 689.985 Q126.813 690.097 126.813 690.323 Q126.813 691.653 128.165 692.893 Q129.518 694.133 132.539 694.989 Q133.102 695.17 133.238 695.282 Q133.373 695.395 133.373 695.733 Q133.35 696.297 132.899 696.297 Q132.764 696.297 132.246 696.139 Q131.705 695.981 130.893 695.688 Q130.059 695.395 129.202 694.877 Q128.323 694.358 127.557 693.727 Q126.79 693.073 126.294 692.149 Q125.798 691.224 125.798 690.187 Q125.798 688.497 126.903 687.46 Q127.985 686.4 129.585 686.4 Q130.465 686.4 132.02 687.009 Q134.049 687.753 134.703 688.023 L139.55 689.827 Q141.308 690.48 141.849 690.683 Q142.368 690.864 142.999 691.022 Q143.608 691.157 144.172 691.157 Q144.961 691.157 145.321 690.909 Q145.682 690.638 145.682 690.052 Q145.682 688.429 144.081 687.234 Q142.458 686.039 139.978 685.34 Q139.911 685.318 139.798 685.295 Q139.234 685.115 139.167 684.935 Q139.144 684.844 139.144 684.664 Q139.144 684.101 139.595 684.101 Z" fill="#000000" fill-rule="nonzero" fill-opacity="1"></path><path clip-path="url(#clip380)" d="M139.595 655.139 Q139.775 655.139 140.474 655.342 Q141.173 655.545 142.255 656.041 Q143.337 656.514 144.329 657.168 Q145.299 657.822 146.02 658.904 Q146.719 659.964 146.719 661.181 Q146.719 662.804 145.637 663.886 Q144.555 664.968 142.932 664.968 Q142.03 664.968 140.79 664.495 Q132.787 661.497 130.036 661.497 Q126.813 661.497 126.813 663.999 Q126.813 665.239 127.286 666.411 Q127.737 667.561 128.368 668.35 Q128.999 669.139 129.879 669.86 Q130.735 670.559 131.321 670.92 Q131.885 671.258 132.449 671.529 L134.748 672.115 Q135.379 672.25 137.837 672.904 L142.007 673.918 Q145.118 674.64 145.411 674.798 Q146.043 675.023 146.381 675.519 Q146.719 676.015 146.719 676.511 Q146.719 677.074 146.381 677.458 Q146.043 677.841 145.457 677.841 Q145.366 677.841 145.028 677.773 Q144.69 677.706 144.217 677.593 Q143.743 677.48 143.473 677.435 L132.809 674.752 Q130.87 674.256 130.262 674.144 Q129.631 674.008 128.932 674.008 Q126.813 674.008 126.813 675.451 Q126.813 676.624 128.21 677.39 Q129.608 678.157 132.313 678.81 Q133.057 679.013 133.215 679.149 Q133.373 679.261 133.373 679.599 Q133.35 680.163 132.899 680.163 Q132.787 680.163 132.043 679.983 Q131.299 679.802 130.239 679.464 Q129.157 679.103 128.436 678.765 Q127.895 678.472 127.647 678.314 Q127.376 678.134 126.858 677.706 Q126.317 677.255 126.069 676.669 Q125.798 676.06 125.798 675.316 Q125.798 673.648 126.88 672.43 Q127.94 671.213 129.811 671.055 Q125.798 668.057 125.798 663.864 Q125.798 661.384 127.106 659.964 Q128.413 658.543 130.735 658.543 Q131.276 658.543 131.975 658.656 Q132.651 658.746 133.508 658.972 Q134.365 659.174 135.019 659.355 Q135.672 659.535 136.732 659.896 Q137.769 660.257 138.22 660.414 Q138.671 660.572 139.73 660.955 Q140.767 661.316 140.88 661.361 Q142.977 662.195 144.172 662.195 Q144.961 662.195 145.321 661.947 Q145.682 661.677 145.682 661.091 Q145.682 659.513 144.126 658.34 Q142.548 657.146 139.978 656.379 Q139.415 656.199 139.279 656.108 Q139.144 655.996 139.144 655.68 Q139.144 655.139 139.595 655.139 Z" fill="#000000" fill-rule="nonzero" fill-opacity="1"></path><path clip-path="url(#clip380)" d="M140.858 633.888 Q141.06 633.707 141.263 633.707 Q141.466 633.707 142.052 634.158 Q142.639 634.586 143.428 635.511 Q144.217 636.435 144.961 637.63 Q145.705 638.825 146.2 640.583 Q146.719 642.342 146.719 644.19 Q146.719 647.504 144.352 649.488 Q141.985 651.449 138.355 651.449 Q136.033 651.449 133.982 650.683 Q131.908 649.916 130.442 648.677 Q128.977 647.414 127.917 645.836 Q126.835 644.235 126.317 642.567 Q125.798 640.899 125.798 639.343 Q125.798 637.066 126.948 635.736 Q128.098 634.406 129.721 634.406 Q130.104 634.406 130.577 634.519 Q131.051 634.609 131.795 634.925 Q132.539 635.218 133.283 635.984 Q134.004 636.751 134.478 637.878 Q135.537 640.38 135.537 644.934 L135.537 647.392 Q138.445 648.113 140.339 648.113 Q141.083 648.113 141.849 647.978 Q142.593 647.842 143.54 647.482 Q144.487 647.098 145.096 646.242 Q145.682 645.363 145.682 644.1 Q145.682 643.694 145.659 643.266 Q145.637 642.815 145.389 641.688 Q145.141 640.538 144.713 639.524 Q144.284 638.509 143.36 637.224 Q142.413 635.917 141.128 634.88 Q140.655 634.519 140.655 634.271 Q140.655 634.068 140.858 633.888 M129.721 635.939 Q128.481 635.939 127.647 636.863 Q126.813 637.765 126.813 639.343 Q126.813 639.839 126.925 640.448 Q127.038 641.057 127.511 642.071 Q127.985 643.063 128.774 643.942 Q129.54 644.822 131.051 645.701 Q132.539 646.58 134.523 647.098 L134.523 645.205 Q134.523 644.551 134.523 644.078 Q134.5 643.604 134.41 642.567 Q134.32 641.508 134.162 640.741 Q133.982 639.975 133.621 639.005 Q133.26 638.036 132.787 637.427 Q132.291 636.796 131.502 636.367 Q130.713 635.939 129.721 635.939 Z" fill="#000000" fill-rule="nonzero" fill-opacity="1"></path><path clip-path="url(#clip380)" d="M128.842 608.164 Q130.104 608.164 130.825 608.953 Q131.524 609.742 131.524 610.644 Q131.524 611.501 131.028 611.952 Q130.532 612.402 129.901 612.402 Q129.044 612.402 128.3 611.771 Q127.557 611.14 127.399 610.193 Q126.813 611.117 126.813 612.493 Q126.813 613.394 127.286 614.183 Q127.759 614.95 128.368 615.423 Q128.977 615.874 129.856 616.28 Q130.713 616.663 131.231 616.821 Q131.727 616.956 132.268 617.069 L138.581 618.647 Q141.579 619.414 142.639 619.414 Q143.946 619.414 144.825 618.782 Q145.682 618.151 145.682 616.889 Q145.682 616.393 145.547 615.829 Q145.389 615.266 144.983 614.544 Q144.555 613.8 143.924 613.146 Q143.27 612.47 142.165 611.816 Q141.06 611.163 139.64 610.734 Q139.144 610.599 139.144 610.148 Q139.144 609.584 139.595 609.584 Q139.978 609.584 140.79 609.9 Q141.579 610.193 142.616 610.847 Q143.63 611.478 144.555 612.312 Q145.457 613.146 146.088 614.386 Q146.719 615.626 146.719 616.979 Q146.719 618.918 145.682 620.203 Q144.645 621.488 143.202 621.961 Q143.405 622.074 143.676 622.232 Q143.946 622.39 144.555 622.863 Q145.141 623.314 145.592 623.832 Q146.02 624.351 146.358 625.162 Q146.719 625.951 146.719 626.808 Q146.719 627.89 146.403 628.86 Q146.088 629.807 145.366 630.483 Q144.645 631.159 143.653 631.159 Q142.548 631.159 141.782 630.415 Q140.993 629.649 140.993 628.612 Q140.993 627.958 141.376 627.439 Q141.759 626.898 142.593 626.898 Q143.518 626.898 144.217 627.53 Q144.915 628.161 145.096 629.063 Q145.682 628.138 145.682 626.763 Q145.682 625.275 144.374 624.103 Q143.067 622.931 140.88 622.367 Q135.627 620.969 133.283 620.428 Q130.916 619.887 129.901 619.887 Q128.954 619.887 128.3 620.135 Q127.647 620.383 127.354 620.811 Q127.038 621.217 126.925 621.6 Q126.813 621.961 126.813 622.367 Q126.813 623.043 127.083 623.81 Q127.354 624.554 127.985 625.456 Q128.594 626.335 129.856 627.169 Q131.118 628.003 132.854 628.567 Q133.373 628.679 133.373 629.175 Q133.35 629.716 132.899 629.716 Q132.516 629.716 131.727 629.423 Q130.916 629.108 129.901 628.476 Q128.887 627.823 127.985 626.989 Q127.061 626.132 126.429 624.892 Q125.798 623.629 125.798 622.277 Q125.798 621.668 125.933 621.082 Q126.046 620.473 126.384 619.752 Q126.722 619.008 127.466 618.354 Q128.21 617.7 129.292 617.295 Q128.774 617.024 128.278 616.663 Q127.782 616.28 127.173 615.694 Q126.542 615.085 126.181 614.251 Q125.798 613.394 125.798 612.448 Q125.798 611.523 126.046 610.621 Q126.271 609.72 127.015 608.953 Q127.737 608.164 128.842 608.164 Z" fill="#000000" fill-rule="nonzero" fill-opacity="1"></path><path clip-path="url(#clip380)" d="M139.595 583.768 Q142.503 584.377 144.172 585.166 Q146.719 586.429 146.719 588.57 Q146.719 590.193 145.727 591.343 Q144.735 592.493 143.247 592.763 Q146.719 595.717 146.719 598.783 Q146.719 601.488 144.667 603.201 Q142.593 604.915 139.325 604.915 Q136.033 604.915 132.877 603.292 Q129.721 601.646 127.759 599.053 Q125.798 596.461 125.798 593.8 Q125.798 590.982 128.751 589.54 Q127.94 589.427 127.331 588.908 Q126.722 588.39 126.722 587.601 Q126.722 586.992 127.061 586.631 Q127.376 586.271 127.962 586.271 Q128.255 586.271 129.54 586.586 L135.988 588.255 L140.159 589.269 Q141.692 589.652 142.255 589.765 Q142.819 589.855 143.563 589.855 Q145.682 589.855 145.682 588.48 Q145.682 587.804 145.254 587.263 Q144.825 586.722 143.924 586.293 Q143.022 585.865 142.188 585.594 Q141.331 585.324 139.978 584.963 Q139.437 584.85 139.302 584.76 Q139.144 584.648 139.144 584.332 Q139.144 583.768 139.595 583.768 M130.87 590.103 Q130.668 590.103 130.104 590.261 Q129.54 590.419 128.751 590.78 Q127.962 591.14 127.399 591.929 Q126.813 592.696 126.813 593.733 Q126.813 595.131 128.007 596.596 Q129.202 598.039 131.231 599.098 Q132.854 599.91 136.259 600.789 Q139.663 601.646 141.353 601.646 Q142.391 601.646 143.315 601.42 Q144.217 601.172 144.961 600.473 Q145.682 599.775 145.682 598.693 Q145.682 596.055 142.413 593.462 Q141.849 592.966 141.624 592.854 Q141.376 592.718 140.7 592.538 L131.66 590.238 Q130.983 590.103 130.87 590.103 Z" fill="#000000" fill-rule="nonzero" fill-opacity="1"></path><path clip-path="url(#clip380)" d="M140.858 562.945 Q141.06 562.765 141.263 562.765 Q141.466 562.765 142.052 563.216 Q142.639 563.644 143.428 564.568 Q144.217 565.493 144.961 566.687 Q145.705 567.882 146.2 569.641 Q146.719 571.399 146.719 573.248 Q146.719 576.697 144.442 578.726 Q142.165 580.732 138.896 580.732 Q135.717 580.732 132.674 578.951 Q129.608 577.17 127.714 574.285 Q125.798 571.399 125.798 568.356 Q125.798 565.943 126.925 564.433 Q128.052 562.923 129.766 562.923 Q131.096 562.923 131.908 563.689 Q132.719 564.456 132.719 565.493 Q132.719 566.214 132.313 566.71 Q131.885 567.206 131.096 567.206 Q130.081 567.206 129.292 566.372 Q128.977 566.056 128.842 565.696 Q128.684 565.312 128.684 565.087 Q128.661 564.861 128.661 564.343 Q127.782 564.816 127.309 565.943 Q126.813 567.048 126.813 568.311 Q126.813 570.182 128.12 571.963 Q129.405 573.744 131.434 574.826 Q133.418 575.908 136.236 576.607 Q139.031 577.306 140.655 577.306 Q142.886 577.306 144.284 576.269 Q145.682 575.232 145.682 573.158 Q145.682 572.752 145.659 572.323 Q145.637 571.873 145.389 570.745 Q145.141 569.596 144.713 568.581 Q144.284 567.567 143.36 566.282 Q142.413 564.974 141.128 563.937 Q140.655 563.576 140.655 563.328 Q140.655 563.125 140.858 562.945 Z" fill="#000000" fill-rule="nonzero" fill-opacity="1"></path><path clip-path="url(#clip380)" d="M126.813 547.878 Q127.444 547.878 127.602 548.171 Q127.737 548.464 127.737 549.275 L127.737 553.604 L141.353 557.03 Q142.548 557.301 143.563 557.301 Q144.69 557.301 145.186 556.963 Q145.682 556.602 145.682 555.858 Q145.682 554.393 144.352 552.815 Q143.022 551.214 139.775 549.861 Q139.347 549.681 139.257 549.591 Q139.144 549.478 139.144 549.185 Q139.144 548.621 139.595 548.621 Q139.753 548.621 140.474 548.937 Q141.196 549.23 142.255 549.884 Q143.315 550.515 144.307 551.349 Q145.299 552.161 146.02 553.401 Q146.719 554.641 146.719 555.971 Q146.719 557.842 145.524 559.037 Q144.329 560.209 142.458 560.209 Q141.849 560.209 139.911 559.736 Q137.949 559.262 127.737 556.692 L127.737 560.773 Q127.737 561.336 127.714 561.562 Q127.692 561.765 127.579 561.923 Q127.444 562.058 127.173 562.058 Q126.745 562.058 126.565 561.877 Q126.362 561.697 126.339 561.472 Q126.294 561.224 126.294 560.66 L126.294 556.332 L118.967 554.528 Q118.246 554.348 117.84 553.897 Q117.412 553.423 117.367 553.153 Q117.299 552.882 117.299 552.679 Q117.299 552.071 117.637 551.71 Q117.953 551.349 118.539 551.349 Q118.854 551.349 126.294 553.243 L126.294 549.185 Q126.294 548.667 126.317 548.464 Q126.339 548.238 126.452 548.058 Q126.565 547.878 126.813 547.878 Z" fill="#000000" fill-rule="nonzero" fill-opacity="1"></path><path clip-path="url(#clip380)" d="M686.818 12.096 L699.011 12.096 L714.445 53.2532 L729.96 12.096 L742.153 12.096 L742.153 72.576 L734.173 72.576 L734.173 19.4686 L718.577 60.9499 L710.354 60.9499 L694.758 19.4686 L694.758 72.576 L686.818 72.576 L686.818 12.096 Z" fill="#000000" fill-rule="nonzero" fill-opacity="1"></path><path clip-path="url(#clip380)" d="M778.692 49.7694 Q769.659 49.7694 766.175 51.8354 Q762.691 53.9013 762.691 58.8839 Q762.691 62.8538 765.284 65.2034 Q767.917 67.5124 772.413 67.5124 Q778.611 67.5124 782.338 63.1374 Q786.105 58.7219 786.105 51.4303 L786.105 49.7694 L778.692 49.7694 M793.559 46.6907 L793.559 72.576 L786.105 72.576 L786.105 65.6895 Q783.553 69.8214 779.746 71.8063 Q775.938 73.7508 770.428 73.7508 Q763.461 73.7508 759.329 69.8619 Q755.238 65.9325 755.238 59.3701 Q755.238 51.7138 760.342 47.825 Q765.486 43.9361 775.654 43.9361 L786.105 43.9361 L786.105 43.2069 Q786.105 38.0623 782.703 35.2672 Q779.34 32.4315 773.224 32.4315 Q769.335 32.4315 765.648 33.3632 Q761.962 34.295 758.559 36.1584 L758.559 29.2718 Q762.651 27.692 766.499 26.9223 Q770.347 26.1121 773.993 26.1121 Q783.837 26.1121 788.698 31.2163 Q793.559 36.3204 793.559 46.6907 Z" fill="#000000" fill-rule="nonzero" fill-opacity="1"></path><path clip-path="url(#clip380)" d="M816.285 14.324 L816.285 27.2059 L831.638 27.2059 L831.638 32.9987 L816.285 32.9987 L816.285 57.6282 Q816.285 63.1779 817.784 64.7578 Q819.323 66.3376 823.981 66.3376 L831.638 66.3376 L831.638 72.576 L823.981 72.576 Q815.353 72.576 812.072 69.3758 Q808.791 66.1351 808.791 57.6282 L808.791 32.9987 L803.322 32.9987 L803.322 27.2059 L808.791 27.2059 L808.791 14.324 L816.285 14.324 Z" fill="#000000" fill-rule="nonzero" fill-opacity="1"></path><path clip-path="url(#clip380)" d="M867.731 34.1734 Q866.475 33.4443 864.977 33.1202 Q863.518 32.7556 861.736 32.7556 Q855.416 32.7556 852.014 36.8875 Q848.651 40.9789 848.651 48.6757 L848.651 72.576 L841.157 72.576 L841.157 27.2059 L848.651 27.2059 L848.651 34.2544 Q851.001 30.1225 854.768 28.1376 Q858.536 26.1121 863.923 26.1121 Q864.693 26.1121 865.625 26.2337 Q866.556 26.3147 867.691 26.5172 L867.731 34.1734 Z" fill="#000000" fill-rule="nonzero" fill-opacity="1"></path><path clip-path="url(#clip380)" d="M875.549 27.2059 L883.003 27.2059 L883.003 72.576 L875.549 72.576 L875.549 27.2059 M875.549 9.54393 L883.003 9.54393 L883.003 18.9825 L875.549 18.9825 L875.549 9.54393 Z" fill="#000000" fill-rule="nonzero" fill-opacity="1"></path><path clip-path="url(#clip380)" d="M936.313 27.2059 L919.907 49.2833 L937.164 72.576 L928.373 72.576 L915.167 54.752 L901.961 72.576 L893.171 72.576 L910.792 48.8377 L894.67 27.2059 L903.46 27.2059 L915.491 43.369 L927.523 27.2059 L936.313 27.2059 Z" fill="#000000" fill-rule="nonzero" fill-opacity="1"></path><path clip-path="url(#clip380)" d="M943.929 46.5287 L965.763 46.5287 L965.763 53.1722 L943.929 53.1722 L943.929 46.5287 Z" fill="#000000" fill-rule="nonzero" fill-opacity="1"></path><path clip-path="url(#clip380)" d="M970.057 27.2059 L977.956 27.2059 L992.134 65.2844 L1006.31 27.2059 L1014.21 27.2059 L997.198 72.576 L987.071 72.576 L970.057 27.2059 Z" fill="#000000" fill-rule="nonzero" fill-opacity="1"></path><path clip-path="url(#clip380)" d="M1063.31 48.0275 L1063.31 51.6733 L1029.04 51.6733 Q1029.52 59.3701 1033.66 63.421 Q1037.83 67.4314 1045.24 67.4314 Q1049.54 67.4314 1053.55 66.3781 Q1057.6 65.3249 1061.57 63.2184 L1061.57 70.267 Q1057.56 71.9684 1053.34 72.8596 Q1049.13 73.7508 1044.8 73.7508 Q1033.94 73.7508 1027.58 67.4314 Q1021.26 61.1119 1021.26 50.3365 Q1021.26 39.1965 1027.26 32.6746 Q1033.29 26.1121 1043.5 26.1121 Q1052.65 26.1121 1057.96 32.0264 Q1063.31 37.9003 1063.31 48.0275 M1055.86 45.84 Q1055.77 39.7232 1052.41 36.0774 Q1049.09 32.4315 1043.58 32.4315 Q1037.34 32.4315 1033.58 35.9558 Q1029.85 39.4801 1029.28 45.8805 L1055.86 45.84 Z" fill="#000000" fill-rule="nonzero" fill-opacity="1"></path><path clip-path="url(#clip380)" d="M1108.19 28.9478 L1108.19 35.9153 Q1105.03 34.1734 1101.83 33.3227 Q1098.67 32.4315 1095.43 32.4315 Q1088.18 32.4315 1084.17 37.0496 Q1080.16 41.6271 1080.16 49.9314 Q1080.16 58.2358 1084.17 62.8538 Q1088.18 67.4314 1095.43 67.4314 Q1098.67 67.4314 1101.83 66.5807 Q1105.03 65.6895 1108.19 63.9476 L1108.19 70.8341 Q1105.07 72.2924 1101.71 73.0216 Q1098.39 73.7508 1094.62 73.7508 Q1084.37 73.7508 1078.34 67.3098 Q1072.3 60.8689 1072.3 49.9314 Q1072.3 38.832 1078.38 32.472 Q1084.5 26.1121 1095.11 26.1121 Q1098.55 26.1121 1101.83 26.8413 Q1105.11 27.5299 1108.19 28.9478 Z" fill="#000000" fill-rule="nonzero" fill-opacity="1"></path><path clip-path="url(#clip380)" d="M1128.53 14.324 L1128.53 27.2059 L1143.88 27.2059 L1143.88 32.9987 L1128.53 32.9987 L1128.53 57.6282 Q1128.53 63.1779 1130.03 64.7578 Q1131.57 66.3376 1136.23 66.3376 L1143.88 66.3376 L1143.88 72.576 L1136.23 72.576 Q1127.6 72.576 1124.32 69.3758 Q1121.03 66.1351 1121.03 57.6282 L1121.03 32.9987 L1115.57 32.9987 L1115.57 27.2059 L1121.03 27.2059 L1121.03 14.324 L1128.53 14.324 Z" fill="#000000" fill-rule="nonzero" fill-opacity="1"></path><path clip-path="url(#clip380)" d="M1171.27 32.4315 Q1165.27 32.4315 1161.79 37.1306 Q1158.3 41.7891 1158.3 49.9314 Q1158.3 58.0738 1161.75 62.7728 Q1165.23 67.4314 1171.27 67.4314 Q1177.22 67.4314 1180.7 62.7323 Q1184.19 58.0333 1184.19 49.9314 Q1184.19 41.8701 1180.7 37.1711 Q1177.22 32.4315 1171.27 32.4315 M1171.27 26.1121 Q1180.99 26.1121 1186.54 32.4315 Q1192.09 38.7509 1192.09 49.9314 Q1192.09 61.0714 1186.54 67.4314 Q1180.99 73.7508 1171.27 73.7508 Q1161.5 73.7508 1155.95 67.4314 Q1150.44 61.0714 1150.44 49.9314 Q1150.44 38.7509 1155.95 32.4315 Q1161.5 26.1121 1171.27 26.1121 Z" fill="#000000" fill-rule="nonzero" fill-opacity="1"></path><path clip-path="url(#clip380)" d="M1230.73 34.1734 Q1229.48 33.4443 1227.98 33.1202 Q1226.52 32.7556 1224.74 32.7556 Q1218.42 32.7556 1215.02 36.8875 Q1211.65 40.9789 1211.65 48.6757 L1211.65 72.576 L1204.16 72.576 L1204.16 27.2059 L1211.65 27.2059 L1211.65 34.2544 Q1214 30.1225 1217.77 28.1376 Q1221.54 26.1121 1226.92 26.1121 Q1227.69 26.1121 1228.63 26.2337 Q1229.56 26.3147 1230.69 26.5172 L1230.73 34.1734 Z" fill="#000000" fill-rule="nonzero" fill-opacity="1"></path><path clip-path="url(#clip380)" d="M1272.13 65.7705 L1272.13 89.8329 L1264.64 89.8329 L1264.64 27.2059 L1272.13 27.2059 L1272.13 34.0924 Q1274.48 30.0415 1278.05 28.0971 Q1281.65 26.1121 1286.64 26.1121 Q1294.9 26.1121 1300.04 32.6746 Q1305.23 39.2371 1305.23 49.9314 Q1305.23 60.6258 1300.04 67.1883 Q1294.9 73.7508 1286.64 73.7508 Q1281.65 73.7508 1278.05 71.8063 Q1274.48 69.8214 1272.13 65.7705 M1297.49 49.9314 Q1297.49 41.7081 1294.09 37.0496 Q1290.73 32.3505 1284.81 32.3505 Q1278.9 32.3505 1275.5 37.0496 Q1272.13 41.7081 1272.13 49.9314 Q1272.13 58.1548 1275.5 62.8538 Q1278.9 67.5124 1284.81 67.5124 Q1290.73 67.5124 1294.09 62.8538 Q1297.49 58.1548 1297.49 49.9314 Z" fill="#000000" fill-rule="nonzero" fill-opacity="1"></path><path clip-path="url(#clip380)" d="M1343.87 34.1734 Q1342.62 33.4443 1341.12 33.1202 Q1339.66 32.7556 1337.88 32.7556 Q1331.56 32.7556 1328.16 36.8875 Q1324.79 40.9789 1324.79 48.6757 L1324.79 72.576 L1317.3 72.576 L1317.3 27.2059 L1324.79 27.2059 L1324.79 34.2544 Q1327.14 30.1225 1330.91 28.1376 Q1334.68 26.1121 1340.07 26.1121 Q1340.84 26.1121 1341.77 26.2337 Q1342.7 26.3147 1343.83 26.5172 L1343.87 34.1734 Z" fill="#000000" fill-rule="nonzero" fill-opacity="1"></path><path clip-path="url(#clip380)" d="M1367.45 32.4315 Q1361.46 32.4315 1357.97 37.1306 Q1354.49 41.7891 1354.49 49.9314 Q1354.49 58.0738 1357.93 62.7728 Q1361.41 67.4314 1367.45 67.4314 Q1373.41 67.4314 1376.89 62.7323 Q1380.37 58.0333 1380.37 49.9314 Q1380.37 41.8701 1376.89 37.1711 Q1373.41 32.4315 1367.45 32.4315 M1367.45 26.1121 Q1377.17 26.1121 1382.72 32.4315 Q1388.27 38.7509 1388.27 49.9314 Q1388.27 61.0714 1382.72 67.4314 Q1377.17 73.7508 1367.45 73.7508 Q1357.69 73.7508 1352.14 67.4314 Q1346.63 61.0714 1346.63 49.9314 Q1346.63 38.7509 1352.14 32.4315 Q1357.69 26.1121 1367.45 26.1121 Z" fill="#000000" fill-rule="nonzero" fill-opacity="1"></path><path clip-path="url(#clip380)" d="M1430.48 34.0924 L1430.48 9.54393 L1437.94 9.54393 L1437.94 72.576 L1430.48 72.576 L1430.48 65.7705 Q1428.13 69.8214 1424.53 71.8063 Q1420.96 73.7508 1415.94 73.7508 Q1407.72 73.7508 1402.53 67.1883 Q1397.39 60.6258 1397.39 49.9314 Q1397.39 39.2371 1402.53 32.6746 Q1407.72 26.1121 1415.94 26.1121 Q1420.96 26.1121 1424.53 28.0971 Q1428.13 30.0415 1430.48 34.0924 M1405.08 49.9314 Q1405.08 58.1548 1408.45 62.8538 Q1411.85 67.5124 1417.76 67.5124 Q1423.68 67.5124 1427.08 62.8538 Q1430.48 58.1548 1430.48 49.9314 Q1430.48 41.7081 1427.08 37.0496 Q1423.68 32.3505 1417.76 32.3505 Q1411.85 32.3505 1408.45 37.0496 Q1405.08 41.7081 1405.08 49.9314 Z" fill="#000000" fill-rule="nonzero" fill-opacity="1"></path><path clip-path="url(#clip380)" d="M1452.52 54.671 L1452.52 27.2059 L1459.97 27.2059 L1459.97 54.3874 Q1459.97 60.8284 1462.48 64.0691 Q1465 67.2693 1470.02 67.2693 Q1476.06 67.2693 1479.54 63.421 Q1483.06 59.5726 1483.06 52.9291 L1483.06 27.2059 L1490.52 27.2059 L1490.52 72.576 L1483.06 72.576 L1483.06 65.6084 Q1480.35 69.7404 1476.74 71.7658 Q1473.18 73.7508 1468.44 73.7508 Q1460.62 73.7508 1456.57 68.8897 Q1452.52 64.0286 1452.52 54.671 M1471.28 26.1121 L1471.28 26.1121 Z" fill="#000000" fill-rule="nonzero" fill-opacity="1"></path><path clip-path="url(#clip380)" d="M1538.52 28.9478 L1538.52 35.9153 Q1535.36 34.1734 1532.16 33.3227 Q1529 32.4315 1525.76 32.4315 Q1518.51 32.4315 1514.5 37.0496 Q1510.49 41.6271 1510.49 49.9314 Q1510.49 58.2358 1514.5 62.8538 Q1518.51 67.4314 1525.76 67.4314 Q1529 67.4314 1532.16 66.5807 Q1535.36 65.6895 1538.52 63.9476 L1538.52 70.8341 Q1535.4 72.2924 1532.04 73.0216 Q1528.72 73.7508 1524.95 73.7508 Q1514.7 73.7508 1508.67 67.3098 Q1502.63 60.8689 1502.63 49.9314 Q1502.63 38.832 1508.71 32.472 Q1514.82 26.1121 1525.44 26.1121 Q1528.88 26.1121 1532.16 26.8413 Q1535.44 27.5299 1538.52 28.9478 Z" fill="#000000" fill-rule="nonzero" fill-opacity="1"></path><path clip-path="url(#clip380)" d="M1558.86 14.324 L1558.86 27.2059 L1574.21 27.2059 L1574.21 32.9987 L1558.86 32.9987 L1558.86 57.6282 Q1558.86 63.1779 1560.35 64.7578 Q1561.89 66.3376 1566.55 66.3376 L1574.21 66.3376 L1574.21 72.576 L1566.55 72.576 Q1557.92 72.576 1554.64 69.3758 Q1551.36 66.1351 1551.36 57.6282 L1551.36 32.9987 L1545.89 32.9987 L1545.89 27.2059 L1551.36 27.2059 L1551.36 14.324 L1558.86 14.324 Z" fill="#000000" fill-rule="nonzero" fill-opacity="1"></path><path clip-path="url(#clip380)" d="M1617.59 65.7705 L1617.59 89.8329 L1610.1 89.8329 L1610.1 27.2059 L1617.59 27.2059 L1617.59 34.0924 Q1619.94 30.0415 1623.51 28.0971 Q1627.11 26.1121 1632.1 26.1121 Q1640.36 26.1121 1645.5 32.6746 Q1650.69 39.2371 1650.69 49.9314 Q1650.69 60.6258 1645.5 67.1883 Q1640.36 73.7508 1632.1 73.7508 Q1627.11 73.7508 1623.51 71.8063 Q1619.94 69.8214 1617.59 65.7705 M1642.95 49.9314 Q1642.95 41.7081 1639.55 37.0496 Q1636.19 32.3505 1630.27 32.3505 Q1624.36 32.3505 1620.96 37.0496 Q1617.59 41.7081 1617.59 49.9314 Q1617.59 58.1548 1620.96 62.8538 Q1624.36 67.5124 1630.27 67.5124 Q1636.19 67.5124 1639.55 62.8538 Q1642.95 58.1548 1642.95 49.9314 Z" fill="#000000" fill-rule="nonzero" fill-opacity="1"></path><path clip-path="url(#clip380)" d="M1701.85 48.0275 L1701.85 51.6733 L1667.58 51.6733 Q1668.07 59.3701 1672.2 63.421 Q1676.37 67.4314 1683.79 67.4314 Q1688.08 67.4314 1692.09 66.3781 Q1696.14 65.3249 1700.11 63.2184 L1700.11 70.267 Q1696.1 71.9684 1691.89 72.8596 Q1687.67 73.7508 1683.34 73.7508 Q1672.48 73.7508 1666.12 67.4314 Q1659.8 61.1119 1659.8 50.3365 Q1659.8 39.1965 1665.8 32.6746 Q1671.84 26.1121 1682.04 26.1121 Q1691.2 26.1121 1696.51 32.0264 Q1701.85 37.9003 1701.85 48.0275 M1694.4 45.84 Q1694.32 39.7232 1690.96 36.0774 Q1687.63 32.4315 1682.12 32.4315 Q1675.89 32.4315 1672.12 35.9558 Q1668.39 39.4801 1667.83 45.8805 L1694.4 45.84 Z" fill="#000000" fill-rule="nonzero" fill-opacity="1"></path><path clip-path="url(#clip380)" d="M1752.89 48.0275 L1752.89 51.6733 L1718.62 51.6733 Q1719.11 59.3701 1723.24 63.421 Q1727.41 67.4314 1734.83 67.4314 Q1739.12 67.4314 1743.13 66.3781 Q1747.18 65.3249 1751.15 63.2184 L1751.15 70.267 Q1747.14 71.9684 1742.93 72.8596 Q1738.72 73.7508 1734.38 73.7508 Q1723.53 73.7508 1717.17 67.4314 Q1710.85 61.1119 1710.85 50.3365 Q1710.85 39.1965 1716.84 32.6746 Q1722.88 26.1121 1733.09 26.1121 Q1742.24 26.1121 1747.55 32.0264 Q1752.89 37.9003 1752.89 48.0275 M1745.44 45.84 Q1745.36 39.7232 1742 36.0774 Q1738.68 32.4315 1733.17 32.4315 Q1726.93 32.4315 1723.16 35.9558 Q1719.43 39.4801 1718.87 45.8805 L1745.44 45.84 Z" fill="#000000" fill-rule="nonzero" fill-opacity="1"></path><path clip-path="url(#clip380)" d="M1794.98 34.0924 L1794.98 9.54393 L1802.44 9.54393 L1802.44 72.576 L1794.98 72.576 L1794.98 65.7705 Q1792.63 69.8214 1789.03 71.8063 Q1785.46 73.7508 1780.44 73.7508 Q1772.22 73.7508 1767.03 67.1883 Q1761.89 60.6258 1761.89 49.9314 Q1761.89 39.2371 1767.03 32.6746 Q1772.22 26.1121 1780.44 26.1121 Q1785.46 26.1121 1789.03 28.0971 Q1792.63 30.0415 1794.98 34.0924 M1769.58 49.9314 Q1769.58 58.1548 1772.95 62.8538 Q1776.35 67.5124 1782.26 67.5124 Q1788.18 67.5124 1791.58 62.8538 Q1794.98 58.1548 1794.98 49.9314 Q1794.98 41.7081 1791.58 37.0496 Q1788.18 32.3505 1782.26 32.3505 Q1776.35 32.3505 1772.95 37.0496 Q1769.58 41.7081 1769.58 49.9314 Z" fill="#000000" fill-rule="nonzero" fill-opacity="1"></path><path clip-path="url(#clip380)" d="M1843.39 54.671 L1843.39 27.2059 L1850.85 27.2059 L1850.85 54.3874 Q1850.85 60.8284 1853.36 64.0691 Q1855.87 67.2693 1860.89 67.2693 Q1866.93 67.2693 1870.41 63.421 Q1873.94 59.5726 1873.94 52.9291 L1873.94 27.2059 L1881.39 27.2059 L1881.39 72.576 L1873.94 72.576 L1873.94 65.6084 Q1871.22 69.7404 1867.62 71.7658 Q1864.05 73.7508 1859.31 73.7508 Q1851.49 73.7508 1847.44 68.8897 Q1843.39 64.0286 1843.39 54.671 M1862.15 26.1121 L1862.15 26.1121 Z" fill="#000000" fill-rule="nonzero" fill-opacity="1"></path><path clip-path="url(#clip380)" d="M1903.95 65.7705 L1903.95 89.8329 L1896.46 89.8329 L1896.46 27.2059 L1903.95 27.2059 L1903.95 34.0924 Q1906.3 30.0415 1909.87 28.0971 Q1913.47 26.1121 1918.45 26.1121 Q1926.72 26.1121 1931.86 32.6746 Q1937.05 39.2371 1937.05 49.9314 Q1937.05 60.6258 1931.86 67.1883 Q1926.72 73.7508 1918.45 73.7508 Q1913.47 73.7508 1909.87 71.8063 Q1906.3 69.8214 1903.95 65.7705 M1929.31 49.9314 Q1929.31 41.7081 1925.91 37.0496 Q1922.55 32.3505 1916.63 32.3505 Q1910.72 32.3505 1907.31 37.0496 Q1903.95 41.7081 1903.95 49.9314 Q1903.95 58.1548 1907.31 62.8538 Q1910.72 67.5124 1916.63 67.5124 Q1922.55 67.5124 1925.91 62.8538 Q1929.31 58.1548 1929.31 49.9314 Z" fill="#000000" fill-rule="nonzero" fill-opacity="1"></path><circle clip-path="url(#clip382)" cx="2293.84" cy="159.909" r="14.4" fill="#009af9" fill-rule="evenodd" fill-opacity="1" stroke="#000000" stroke-opacity="1" stroke-width="3.2"></circle>
<circle clip-path="url(#clip382)" cx="1966.54" cy="368.13" r="14.4" fill="#009af9" fill-rule="evenodd" fill-opacity="1" stroke="#000000" stroke-opacity="1" stroke-width="3.2"></circle>
<circle clip-path="url(#clip382)" cx="1639.24" cy="481.376" r="14.4" fill="#009af9" fill-rule="evenodd" fill-opacity="1" stroke="#000000" stroke-opacity="1" stroke-width="3.2"></circle>
<circle clip-path="url(#clip382)" cx="1311.93" cy="603.443" r="14.4" fill="#009af9" fill-rule="evenodd" fill-opacity="1" stroke="#000000" stroke-opacity="1" stroke-width="3.2"></circle>
<circle clip-path="url(#clip382)" cx="984.63" cy="804.689" r="14.4" fill="#009af9" fill-rule="evenodd" fill-opacity="1" stroke="#000000" stroke-opacity="1" stroke-width="3.2"></circle>
<circle clip-path="url(#clip382)" cx="657.328" cy="903.129" r="14.4" fill="#009af9" fill-rule="evenodd" fill-opacity="1" stroke="#000000" stroke-opacity="1" stroke-width="3.2"></circle>
<circle clip-path="url(#clip382)" cx="330.025" cy="1035.43" r="14.4" fill="#009af9" fill-rule="evenodd" fill-opacity="1" stroke="#000000" stroke-opacity="1" stroke-width="3.2"></circle>
<path clip-path="url(#clip382)" d="M2277.84 598.534 L2277.84 630.534 L2309.84 630.534 L2309.84 598.534 L2277.84 598.534 Z" fill="#e26f46" fill-rule="evenodd" fill-opacity="1" stroke="#000000" stroke-opacity="1" stroke-width="3.2"></path>
<path clip-path="url(#clip382)" d="M1950.54 755.36 L1950.54 787.36 L1982.54 787.36 L1982.54 755.36 L1950.54 755.36 Z" fill="#e26f46" fill-rule="evenodd" fill-opacity="1" stroke="#000000" stroke-opacity="1" stroke-width="3.2"></path>
<path clip-path="url(#clip382)" d="M1623.24 903.878 L1623.24 935.878 L1655.24 935.878 L1655.24 903.878 L1623.24 903.878 Z" fill="#e26f46" fill-rule="evenodd" fill-opacity="1" stroke="#000000" stroke-opacity="1" stroke-width="3.2"></path>
<path clip-path="url(#clip382)" d="M1295.93 1051.69 L1295.93 1083.69 L1327.93 1083.69 L1327.93 1051.69 L1295.93 1051.69 Z" fill="#e26f46" fill-rule="evenodd" fill-opacity="1" stroke="#000000" stroke-opacity="1" stroke-width="3.2"></path>
<path clip-path="url(#clip382)" d="M968.63 1149.77 L968.63 1181.77 L1000.63 1181.77 L1000.63 1149.77 L968.63 1149.77 Z" fill="#e26f46" fill-rule="evenodd" fill-opacity="1" stroke="#000000" stroke-opacity="1" stroke-width="3.2"></path>
<path clip-path="url(#clip382)" d="M641.328 1260.24 L641.328 1292.24 L673.328 1292.24 L673.328 1260.24 L641.328 1260.24 Z" fill="#e26f46" fill-rule="evenodd" fill-opacity="1" stroke="#000000" stroke-opacity="1" stroke-width="3.2"></path>
<path clip-path="url(#clip382)" d="M314.025 1358.46 L314.025 1390.46 L346.025 1390.46 L346.025 1358.46 L314.025 1358.46 Z" fill="#e26f46" fill-rule="evenodd" fill-opacity="1" stroke="#000000" stroke-opacity="1" stroke-width="3.2"></path>
<path clip-path="url(#clip380)" d="M1694.33 1367.98 L2283.37 1367.98 L2283.37 1212.46 L1694.33 1212.46  Z" fill="#ffffff" fill-rule="evenodd" fill-opacity="1"></path>
<polyline clip-path="url(#clip380)" style="stroke:#000000; stroke-linecap:round; stroke-linejoin:round; stroke-width:4; stroke-opacity:1; fill:none" points="1694.33,1367.98 2283.37,1367.98 2283.37,1212.46 1694.33,1212.46 1694.33,1367.98 "></polyline>
<circle clip-path="url(#clip380)" cx="1786.84" cy="1264.3" r="20.48" fill="#009af9" fill-rule="evenodd" fill-opacity="1" stroke="#000000" stroke-opacity="1" stroke-width="4.55111"></circle>
<path clip-path="url(#clip380)" d="M1879.36 1247.02 L1884.04 1247.02 L1884.04 1277.65 L1900.87 1277.65 L1900.87 1281.58 L1879.36 1281.58 L1879.36 1247.02 Z" fill="#000000" fill-rule="nonzero" fill-opacity="1"></path><path clip-path="url(#clip380)" d="M1917.37 1268.55 Q1912.21 1268.55 1910.22 1269.73 Q1908.23 1270.91 1908.23 1273.76 Q1908.23 1276.03 1909.71 1277.37 Q1911.21 1278.69 1913.78 1278.69 Q1917.32 1278.69 1919.45 1276.19 Q1921.61 1273.67 1921.61 1269.5 L1921.61 1268.55 L1917.37 1268.55 M1925.87 1266.79 L1925.87 1281.58 L1921.61 1281.58 L1921.61 1277.65 Q1920.15 1280.01 1917.97 1281.14 Q1915.8 1282.25 1912.65 1282.25 Q1908.67 1282.25 1906.31 1280.03 Q1903.97 1277.79 1903.97 1274.04 Q1903.97 1269.66 1906.88 1267.44 Q1909.82 1265.22 1915.63 1265.22 L1921.61 1265.22 L1921.61 1264.8 Q1921.61 1261.86 1919.66 1260.26 Q1917.74 1258.64 1914.24 1258.64 Q1912.02 1258.64 1909.92 1259.18 Q1907.81 1259.71 1905.87 1260.77 L1905.87 1256.84 Q1908.2 1255.93 1910.4 1255.49 Q1912.6 1255.03 1914.68 1255.03 Q1920.31 1255.03 1923.09 1257.95 Q1925.87 1260.87 1925.87 1266.79 Z" fill="#000000" fill-rule="nonzero" fill-opacity="1"></path><path clip-path="url(#clip380)" d="M1938.76 1277.69 L1938.76 1291.44 L1934.48 1291.44 L1934.48 1255.66 L1938.76 1255.66 L1938.76 1259.59 Q1940.1 1257.28 1942.14 1256.17 Q1944.2 1255.03 1947.05 1255.03 Q1951.77 1255.03 1954.71 1258.78 Q1957.67 1262.53 1957.67 1268.64 Q1957.67 1274.75 1954.71 1278.5 Q1951.77 1282.25 1947.05 1282.25 Q1944.2 1282.25 1942.14 1281.14 Q1940.1 1280.01 1938.76 1277.69 M1953.25 1268.64 Q1953.25 1263.94 1951.3 1261.28 Q1949.38 1258.6 1946 1258.6 Q1942.62 1258.6 1940.68 1261.28 Q1938.76 1263.94 1938.76 1268.64 Q1938.76 1273.34 1940.68 1276.03 Q1942.62 1278.69 1946 1278.69 Q1949.38 1278.69 1951.3 1276.03 Q1953.25 1273.34 1953.25 1268.64 Z" fill="#000000" fill-rule="nonzero" fill-opacity="1"></path><path clip-path="url(#clip380)" d="M1964.73 1245.56 L1968.99 1245.56 L1968.99 1281.58 L1964.73 1281.58 L1964.73 1245.56 Z" fill="#000000" fill-rule="nonzero" fill-opacity="1"></path><path clip-path="url(#clip380)" d="M1989.68 1268.55 Q1984.52 1268.55 1982.53 1269.73 Q1980.54 1270.91 1980.54 1273.76 Q1980.54 1276.03 1982.02 1277.37 Q1983.53 1278.69 1986.1 1278.69 Q1989.64 1278.69 1991.77 1276.19 Q1993.92 1273.67 1993.92 1269.5 L1993.92 1268.55 L1989.68 1268.55 M1998.18 1266.79 L1998.18 1281.58 L1993.92 1281.58 L1993.92 1277.65 Q1992.46 1280.01 1990.29 1281.14 Q1988.11 1282.25 1984.96 1282.25 Q1980.98 1282.25 1978.62 1280.03 Q1976.28 1277.79 1976.28 1274.04 Q1976.28 1269.66 1979.2 1267.44 Q1982.14 1265.22 1987.95 1265.22 L1993.92 1265.22 L1993.92 1264.8 Q1993.92 1261.86 1991.98 1260.26 Q1990.05 1258.64 1986.56 1258.64 Q1984.34 1258.64 1982.23 1259.18 Q1980.12 1259.71 1978.18 1260.77 L1978.18 1256.84 Q1980.52 1255.93 1982.72 1255.49 Q1984.92 1255.03 1987 1255.03 Q1992.62 1255.03 1995.4 1257.95 Q1998.18 1260.87 1998.18 1266.79 Z" fill="#000000" fill-rule="nonzero" fill-opacity="1"></path><path clip-path="url(#clip380)" d="M2025.61 1256.65 L2025.61 1260.63 Q2023.8 1259.64 2021.98 1259.15 Q2020.17 1258.64 2018.32 1258.64 Q2014.17 1258.64 2011.88 1261.28 Q2009.59 1263.9 2009.59 1268.64 Q2009.59 1273.39 2011.88 1276.03 Q2014.17 1278.64 2018.32 1278.64 Q2020.17 1278.64 2021.98 1278.16 Q2023.8 1277.65 2025.61 1276.65 L2025.61 1280.59 Q2023.83 1281.42 2021.91 1281.84 Q2020.01 1282.25 2017.86 1282.25 Q2012 1282.25 2008.55 1278.57 Q2005.1 1274.89 2005.1 1268.64 Q2005.1 1262.3 2008.57 1258.67 Q2012.07 1255.03 2018.13 1255.03 Q2020.1 1255.03 2021.98 1255.45 Q2023.85 1255.84 2025.61 1256.65 Z" fill="#000000" fill-rule="nonzero" fill-opacity="1"></path><path clip-path="url(#clip380)" d="M2055.19 1267.55 L2055.19 1269.64 L2035.61 1269.64 Q2035.89 1274.04 2038.25 1276.35 Q2040.63 1278.64 2044.87 1278.64 Q2047.32 1278.64 2049.61 1278.04 Q2051.93 1277.44 2054.2 1276.24 L2054.2 1280.26 Q2051.91 1281.24 2049.5 1281.74 Q2047.09 1282.25 2044.61 1282.25 Q2038.41 1282.25 2034.78 1278.64 Q2031.17 1275.03 2031.17 1268.87 Q2031.17 1262.51 2034.59 1258.78 Q2038.04 1255.03 2043.87 1255.03 Q2049.11 1255.03 2052.14 1258.41 Q2055.19 1261.77 2055.19 1267.55 M2050.93 1266.3 Q2050.89 1262.81 2048.97 1260.73 Q2047.07 1258.64 2043.92 1258.64 Q2040.36 1258.64 2038.2 1260.66 Q2036.07 1262.67 2035.75 1266.33 L2050.93 1266.3 Z" fill="#000000" fill-rule="nonzero" fill-opacity="1"></path><path clip-path="url(#clip380)" d="M1764.09 1293.39 L1764.09 1338.9 L1809.6 1338.9 L1809.6 1293.39 L1764.09 1293.39 Z" fill="#e26f46" fill-rule="evenodd" fill-opacity="1" stroke="#000000" stroke-opacity="1" stroke-width="4.55111"></path>
<path clip-path="url(#clip380)" d="M1879.36 1298.86 L1884.04 1298.86 L1884.04 1313.03 L1901.03 1313.03 L1901.03 1298.86 L1905.7 1298.86 L1905.7 1333.42 L1901.03 1333.42 L1901.03 1316.96 L1884.04 1316.96 L1884.04 1333.42 L1879.36 1333.42 L1879.36 1298.86 Z" fill="#000000" fill-rule="nonzero" fill-opacity="1"></path><path clip-path="url(#clip380)" d="M1937 1319.39 L1937 1321.48 L1917.42 1321.48 Q1917.69 1325.88 1920.05 1328.19 Q1922.44 1330.48 1926.68 1330.48 Q1929.13 1330.48 1931.42 1329.88 Q1933.74 1329.28 1936 1328.08 L1936 1332.1 Q1933.71 1333.08 1931.3 1333.58 Q1928.9 1334.09 1926.42 1334.09 Q1920.22 1334.09 1916.58 1330.48 Q1912.97 1326.87 1912.97 1320.71 Q1912.97 1314.35 1916.4 1310.62 Q1919.85 1306.87 1925.68 1306.87 Q1930.91 1306.87 1933.94 1310.25 Q1937 1313.61 1937 1319.39 M1932.74 1318.14 Q1932.69 1314.65 1930.77 1312.57 Q1928.87 1310.48 1925.73 1310.48 Q1922.16 1310.48 1920.01 1312.5 Q1917.88 1314.51 1917.55 1318.17 L1932.74 1318.14 Z" fill="#000000" fill-rule="nonzero" fill-opacity="1"></path><path clip-path="url(#clip380)" d="M1943.99 1297.4 L1948.25 1297.4 L1948.25 1333.42 L1943.99 1333.42 L1943.99 1297.4 Z" fill="#000000" fill-rule="nonzero" fill-opacity="1"></path><path clip-path="url(#clip380)" d="M1977.35 1312.47 Q1978.94 1309.6 1981.17 1308.24 Q1983.39 1306.87 1986.4 1306.87 Q1990.45 1306.87 1992.65 1309.72 Q1994.85 1312.54 1994.85 1317.77 L1994.85 1333.42 L1990.56 1333.42 L1990.56 1317.91 Q1990.56 1314.19 1989.24 1312.38 Q1987.92 1310.58 1985.22 1310.58 Q1981.91 1310.58 1979.99 1312.77 Q1978.06 1314.97 1978.06 1318.77 L1978.06 1333.42 L1973.78 1333.42 L1973.78 1317.91 Q1973.78 1314.16 1972.46 1312.38 Q1971.14 1310.58 1968.39 1310.58 Q1965.12 1310.58 1963.2 1312.8 Q1961.28 1315 1961.28 1318.77 L1961.28 1333.42 L1957 1333.42 L1957 1307.5 L1961.28 1307.5 L1961.28 1311.52 Q1962.74 1309.14 1964.78 1308.01 Q1966.81 1306.87 1969.61 1306.87 Q1972.44 1306.87 1974.41 1308.31 Q1976.4 1309.74 1977.35 1312.47 Z" fill="#000000" fill-rule="nonzero" fill-opacity="1"></path><path clip-path="url(#clip380)" d="M2024.89 1317.77 L2024.89 1333.42 L2020.63 1333.42 L2020.63 1317.91 Q2020.63 1314.23 2019.2 1312.4 Q2017.76 1310.58 2014.89 1310.58 Q2011.44 1310.58 2009.45 1312.77 Q2007.46 1314.97 2007.46 1318.77 L2007.46 1333.42 L2003.18 1333.42 L2003.18 1297.4 L2007.46 1297.4 L2007.46 1311.52 Q2008.99 1309.19 2011.05 1308.03 Q2013.13 1306.87 2015.84 1306.87 Q2020.31 1306.87 2022.6 1309.65 Q2024.89 1312.4 2024.89 1317.77 Z" fill="#000000" fill-rule="nonzero" fill-opacity="1"></path><path clip-path="url(#clip380)" d="M2043.43 1310.48 Q2040.01 1310.48 2038.02 1313.17 Q2036.03 1315.83 2036.03 1320.48 Q2036.03 1325.14 2037.99 1327.82 Q2039.98 1330.48 2043.43 1330.48 Q2046.84 1330.48 2048.83 1327.8 Q2050.82 1325.11 2050.82 1320.48 Q2050.82 1315.88 2048.83 1313.19 Q2046.84 1310.48 2043.43 1310.48 M2043.43 1306.87 Q2048.99 1306.87 2052.16 1310.48 Q2055.33 1314.09 2055.33 1320.48 Q2055.33 1326.85 2052.16 1330.48 Q2048.99 1334.09 2043.43 1334.09 Q2037.86 1334.09 2034.68 1330.48 Q2031.54 1326.85 2031.54 1320.48 Q2031.54 1314.09 2034.68 1310.48 Q2037.86 1306.87 2043.43 1306.87 Z" fill="#000000" fill-rule="nonzero" fill-opacity="1"></path><path clip-path="url(#clip380)" d="M2062.39 1297.4 L2066.65 1297.4 L2066.65 1333.42 L2062.39 1333.42 L2062.39 1297.4 Z" fill="#000000" fill-rule="nonzero" fill-opacity="1"></path><path clip-path="url(#clip380)" d="M2079.78 1300.14 L2079.78 1307.5 L2088.55 1307.5 L2088.55 1310.81 L2079.78 1310.81 L2079.78 1324.88 Q2079.78 1328.05 2080.63 1328.95 Q2081.51 1329.86 2084.17 1329.86 L2088.55 1329.86 L2088.55 1333.42 L2084.17 1333.42 Q2079.24 1333.42 2077.37 1331.59 Q2075.49 1329.74 2075.49 1324.88 L2075.49 1310.81 L2072.37 1310.81 L2072.37 1307.5 L2075.49 1307.5 L2075.49 1300.14 L2079.78 1300.14 Z" fill="#000000" fill-rule="nonzero" fill-opacity="1"></path><path clip-path="url(#clip380)" d="M2092.3 1307.5 L2112.53 1307.5 L2112.53 1311.39 L2096.51 1330.02 L2112.53 1330.02 L2112.53 1333.42 L2091.72 1333.42 L2091.72 1329.53 L2107.74 1310.9 L2092.3 1310.9 L2092.3 1307.5 Z" fill="#000000" fill-rule="nonzero" fill-opacity="1"></path><path clip-path="url(#clip380)" d="M2160.17 1301.52 L2160.17 1306.46 Q2157.81 1304.26 2155.12 1303.17 Q2152.46 1302.08 2149.45 1302.08 Q2143.53 1302.08 2140.38 1305.71 Q2137.23 1309.33 2137.23 1316.18 Q2137.23 1323.01 2140.38 1326.64 Q2143.53 1330.25 2149.45 1330.25 Q2152.46 1330.25 2155.12 1329.16 Q2157.81 1328.08 2160.17 1325.88 L2160.17 1330.76 Q2157.72 1332.43 2154.96 1333.26 Q2152.23 1334.09 2149.17 1334.09 Q2141.33 1334.09 2136.81 1329.3 Q2132.3 1324.49 2132.3 1316.18 Q2132.3 1307.84 2136.81 1303.05 Q2141.33 1298.24 2149.17 1298.24 Q2152.28 1298.24 2155.01 1299.07 Q2157.76 1299.88 2160.17 1301.52 Z" fill="#000000" fill-rule="nonzero" fill-opacity="1"></path><path clip-path="url(#clip380)" d="M2167.21 1307.5 L2171.47 1307.5 L2171.47 1333.42 L2167.21 1333.42 L2167.21 1307.5 M2167.21 1297.4 L2171.47 1297.4 L2171.47 1302.8 L2167.21 1302.8 L2167.21 1297.4 Z" fill="#000000" fill-rule="nonzero" fill-opacity="1"></path><path clip-path="url(#clip380)" d="M2195.4 1311.48 Q2194.68 1311.06 2193.83 1310.88 Q2192.99 1310.67 2191.97 1310.67 Q2188.36 1310.67 2186.42 1313.03 Q2184.5 1315.37 2184.5 1319.77 L2184.5 1333.42 L2180.22 1333.42 L2180.22 1307.5 L2184.5 1307.5 L2184.5 1311.52 Q2185.84 1309.16 2187.99 1308.03 Q2190.15 1306.87 2193.22 1306.87 Q2193.66 1306.87 2194.2 1306.94 Q2194.73 1306.99 2195.38 1307.1 L2195.4 1311.48 Z" fill="#000000" fill-rule="nonzero" fill-opacity="1"></path><path clip-path="url(#clip380)" d="M2217.48 1308.49 L2217.48 1312.47 Q2215.68 1311.48 2213.85 1310.99 Q2212.04 1310.48 2210.19 1310.48 Q2206.05 1310.48 2203.76 1313.12 Q2201.47 1315.74 2201.47 1320.48 Q2201.47 1325.23 2203.76 1327.87 Q2206.05 1330.48 2210.19 1330.48 Q2212.04 1330.48 2213.85 1330 Q2215.68 1329.49 2217.48 1328.49 L2217.48 1332.43 Q2215.7 1333.26 2213.78 1333.68 Q2211.88 1334.09 2209.73 1334.09 Q2203.87 1334.09 2200.42 1330.41 Q2196.97 1326.73 2196.97 1320.48 Q2196.97 1314.14 2200.45 1310.51 Q2203.94 1306.87 2210.01 1306.87 Q2211.97 1306.87 2213.85 1307.29 Q2215.72 1307.68 2217.48 1308.49 Z" fill="#000000" fill-rule="nonzero" fill-opacity="1"></path><path clip-path="url(#clip380)" d="M2224.89 1297.4 L2229.15 1297.4 L2229.15 1333.42 L2224.89 1333.42 L2224.89 1297.4 Z" fill="#000000" fill-rule="nonzero" fill-opacity="1"></path><path clip-path="url(#clip380)" d="M2260.24 1319.39 L2260.24 1321.48 L2240.66 1321.48 Q2240.93 1325.88 2243.29 1328.19 Q2245.68 1330.48 2249.91 1330.48 Q2252.37 1330.48 2254.66 1329.88 Q2256.97 1329.28 2259.24 1328.08 L2259.24 1332.1 Q2256.95 1333.08 2254.54 1333.58 Q2252.14 1334.09 2249.66 1334.09 Q2243.46 1334.09 2239.82 1330.48 Q2236.21 1326.87 2236.21 1320.71 Q2236.21 1314.35 2239.64 1310.62 Q2243.09 1306.87 2248.92 1306.87 Q2254.15 1306.87 2257.18 1310.25 Q2260.24 1313.61 2260.24 1319.39 M2255.98 1318.14 Q2255.93 1314.65 2254.01 1312.57 Q2252.11 1310.48 2248.97 1310.48 Q2245.4 1310.48 2243.25 1312.5 Q2241.12 1314.51 2240.79 1318.17 L2255.98 1318.14 Z" fill="#000000" fill-rule="nonzero" fill-opacity="1"></path></svg>