<svg xmlns="http://www.w3.org/2000/svg" xmlns:xlink="http://www.w3.org/1999/xlink" width="600" height="400" viewBox="0 0 2400 1600">
<defs>
  <clipPath id="clip810">
    <rect x="0" y="0" width="2400" height="1600"></rect>
  </clipPath>
</defs>
<path clip-path="url(#clip810)" d="M0 1600 L2400 1600 L2400 0 L0 0  Z" fill="#ffffff" fill-rule="evenodd" fill-opacity="1"></path>
<defs>
  <clipPath id="clip811">
    <rect x="480" y="0" width="1681" height="1600"></rect>
  </clipPath>
</defs>
<path clip-path="url(#clip810)" d="M269.976 1423.18 L2352.76 1423.18 L2352.76 123.472 L269.976 123.472  Z" fill="#ffffff" fill-rule="evenodd" fill-opacity="1"></path>
<defs>
  <clipPath id="clip812">
    <rect x="269" y="123" width="2084" height="1301"></rect>
  </clipPath>
</defs>
<polyline clip-path="url(#clip812)" style="stroke:#000000; stroke-linecap:round; stroke-linejoin:round; stroke-width:2; stroke-opacity:0.1; fill:none" points="328.923,1423.18 328.923,123.472 "></polyline>
<polyline clip-path="url(#clip812)" style="stroke:#000000; stroke-linecap:round; stroke-linejoin:round; stroke-width:2; stroke-opacity:0.1; fill:none" points="887.722,1423.18 887.722,123.472 "></polyline>
<polyline clip-path="url(#clip812)" style="stroke:#000000; stroke-linecap:round; stroke-linejoin:round; stroke-width:2; stroke-opacity:0.1; fill:none" points="1310.69,1423.18 1310.69,123.472 "></polyline>
<polyline clip-path="url(#clip812)" style="stroke:#000000; stroke-linecap:round; stroke-linejoin:round; stroke-width:2; stroke-opacity:0.1; fill:none" points="1734.14,1423.18 1734.14,123.472 "></polyline>
<polyline clip-path="url(#clip812)" style="stroke:#000000; stroke-linecap:round; stroke-linejoin:round; stroke-width:2; stroke-opacity:0.1; fill:none" points="2293.81,1423.18 2293.81,123.472 "></polyline>
<polyline clip-path="url(#clip810)" style="stroke:#000000; stroke-linecap:round; stroke-linejoin:round; stroke-width:4; stroke-opacity:1; fill:none" points="269.976,1423.18 2352.76,1423.18 "></polyline>
<polyline clip-path="url(#clip810)" style="stroke:#000000; stroke-linecap:round; stroke-linejoin:round; stroke-width:4; stroke-opacity:1; fill:none" points="328.923,1423.18 328.923,1404.28 "></polyline>
<polyline clip-path="url(#clip810)" style="stroke:#000000; stroke-linecap:round; stroke-linejoin:round; stroke-width:4; stroke-opacity:1; fill:none" points="887.722,1423.18 887.722,1404.28 "></polyline>
<polyline clip-path="url(#clip810)" style="stroke:#000000; stroke-linecap:round; stroke-linejoin:round; stroke-width:4; stroke-opacity:1; fill:none" points="1310.69,1423.18 1310.69,1404.28 "></polyline>
<polyline clip-path="url(#clip810)" style="stroke:#000000; stroke-linecap:round; stroke-linejoin:round; stroke-width:4; stroke-opacity:1; fill:none" points="1734.14,1423.18 1734.14,1404.28 "></polyline>
<polyline clip-path="url(#clip810)" style="stroke:#000000; stroke-linecap:round; stroke-linejoin:round; stroke-width:4; stroke-opacity:1; fill:none" points="2293.81,1423.18 2293.81,1404.28 "></polyline>
<path clip-path="url(#clip810)" d="M273.448 1481.64 L281.087 1481.64 L281.087 1455.28 L272.777 1456.95 L272.777 1452.69 L281.041 1451.02 L285.717 1451.02 L285.717 1481.64 L293.356 1481.64 L293.356 1485.58 L273.448 1485.58 L273.448 1481.64 Z" fill="#000000" fill-rule="nonzero" fill-opacity="1"></path><path clip-path="url(#clip810)" d="M306.828 1481.64 L323.147 1481.64 L323.147 1485.58 L301.203 1485.58 L301.203 1481.64 Q303.865 1478.89 308.448 1474.26 Q313.055 1469.61 314.235 1468.27 Q316.481 1465.74 317.36 1464.01 Q318.263 1462.25 318.263 1460.56 Q318.263 1457.8 316.318 1456.07 Q314.397 1454.33 311.295 1454.33 Q309.096 1454.33 306.643 1455.09 Q304.212 1455.86 301.434 1457.41 L301.434 1452.69 Q304.258 1451.55 306.712 1450.97 Q309.166 1450.39 311.203 1450.39 Q316.573 1450.39 319.768 1453.08 Q322.962 1455.77 322.962 1460.26 Q322.962 1462.39 322.152 1464.31 Q321.365 1466.2 319.258 1468.8 Q318.68 1469.47 315.578 1472.69 Q312.476 1475.88 306.828 1481.64 Z" fill="#000000" fill-rule="nonzero" fill-opacity="1"></path><path clip-path="url(#clip810)" d="M343.541 1466.44 Q340.392 1466.44 338.541 1468.59 Q336.712 1470.74 336.712 1474.49 Q336.712 1478.22 338.541 1480.39 Q340.392 1482.55 343.541 1482.55 Q346.689 1482.55 348.517 1480.39 Q350.369 1478.22 350.369 1474.49 Q350.369 1470.74 348.517 1468.59 Q346.689 1466.44 343.541 1466.44 M352.823 1451.78 L352.823 1456.04 Q351.064 1455.21 349.258 1454.77 Q347.476 1454.33 345.716 1454.33 Q341.087 1454.33 338.633 1457.45 Q336.203 1460.58 335.855 1466.9 Q337.221 1464.89 339.281 1463.82 Q341.341 1462.73 343.818 1462.73 Q349.027 1462.73 352.036 1465.9 Q355.068 1469.05 355.068 1474.49 Q355.068 1479.82 351.92 1483.03 Q348.772 1486.25 343.541 1486.25 Q337.545 1486.25 334.374 1481.67 Q331.203 1477.06 331.203 1468.33 Q331.203 1460.14 335.092 1455.28 Q338.98 1450.39 345.531 1450.39 Q347.291 1450.39 349.073 1450.74 Q350.878 1451.09 352.823 1451.78 Z" fill="#000000" fill-rule="nonzero" fill-opacity="1"></path><path clip-path="url(#clip810)" d="M373.124 1454.1 Q369.513 1454.1 367.684 1457.66 Q365.878 1461.2 365.878 1468.33 Q365.878 1475.44 367.684 1479.01 Q369.513 1482.55 373.124 1482.55 Q376.758 1482.55 378.564 1479.01 Q380.392 1475.44 380.392 1468.33 Q380.392 1461.2 378.564 1457.66 Q376.758 1454.1 373.124 1454.1 M373.124 1450.39 Q378.934 1450.39 381.989 1455 Q385.068 1459.58 385.068 1468.33 Q385.068 1477.06 381.989 1481.67 Q378.934 1486.25 373.124 1486.25 Q367.314 1486.25 364.235 1481.67 Q361.179 1477.06 361.179 1468.33 Q361.179 1459.58 364.235 1455 Q367.314 1450.39 373.124 1450.39 Z" fill="#000000" fill-rule="nonzero" fill-opacity="1"></path><path clip-path="url(#clip810)" d="M846.901 1466.95 Q850.257 1467.66 852.132 1469.93 Q854.03 1472.2 854.03 1475.53 Q854.03 1480.65 850.512 1483.45 Q846.993 1486.25 840.512 1486.25 Q838.336 1486.25 836.021 1485.81 Q833.73 1485.39 831.276 1484.54 L831.276 1480.02 Q833.22 1481.16 835.535 1481.74 Q837.85 1482.32 840.373 1482.32 Q844.771 1482.32 847.063 1480.58 Q849.378 1478.84 849.378 1475.53 Q849.378 1472.48 847.225 1470.77 Q845.095 1469.03 841.276 1469.03 L837.248 1469.03 L837.248 1465.19 L841.461 1465.19 Q844.91 1465.19 846.739 1463.82 Q848.567 1462.43 848.567 1459.84 Q848.567 1457.18 846.669 1455.77 Q844.794 1454.33 841.276 1454.33 Q839.355 1454.33 837.156 1454.75 Q834.956 1455.16 832.318 1456.04 L832.318 1451.88 Q834.98 1451.14 837.294 1450.77 Q839.632 1450.39 841.693 1450.39 Q847.017 1450.39 850.118 1452.83 Q853.22 1455.23 853.22 1459.35 Q853.22 1462.22 851.577 1464.21 Q849.933 1466.18 846.901 1466.95 Z" fill="#000000" fill-rule="nonzero" fill-opacity="1"></path><path clip-path="url(#clip810)" d="M863.706 1481.64 L871.345 1481.64 L871.345 1455.28 L863.035 1456.95 L863.035 1452.69 L871.299 1451.02 L875.975 1451.02 L875.975 1481.64 L883.614 1481.64 L883.614 1485.58 L863.706 1485.58 L863.706 1481.64 Z" fill="#000000" fill-rule="nonzero" fill-opacity="1"></path><path clip-path="url(#clip810)" d="M905.905 1455.09 L894.1 1473.54 L905.905 1473.54 L905.905 1455.09 M904.678 1451.02 L910.558 1451.02 L910.558 1473.54 L915.488 1473.54 L915.488 1477.43 L910.558 1477.43 L910.558 1485.58 L905.905 1485.58 L905.905 1477.43 L890.303 1477.43 L890.303 1472.92 L904.678 1451.02 Z" fill="#000000" fill-rule="nonzero" fill-opacity="1"></path><path clip-path="url(#clip810)" d="M923.266 1451.02 L941.623 1451.02 L941.623 1454.96 L927.549 1454.96 L927.549 1463.43 Q928.567 1463.08 929.586 1462.92 Q930.604 1462.73 931.623 1462.73 Q937.41 1462.73 940.789 1465.9 Q944.169 1469.08 944.169 1474.49 Q944.169 1480.07 940.697 1483.17 Q937.224 1486.25 930.905 1486.25 Q928.729 1486.25 926.461 1485.88 Q924.215 1485.51 921.808 1484.77 L921.808 1480.07 Q923.891 1481.2 926.113 1481.76 Q928.336 1482.32 930.812 1482.32 Q934.817 1482.32 937.155 1480.21 Q939.493 1478.1 939.493 1474.49 Q939.493 1470.88 937.155 1468.77 Q934.817 1466.67 930.812 1466.67 Q928.937 1466.67 927.062 1467.08 Q925.211 1467.5 923.266 1468.38 L923.266 1451.02 Z" fill="#000000" fill-rule="nonzero" fill-opacity="1"></path><path clip-path="url(#clip810)" d="M1266.43 1466.44 Q1263.28 1466.44 1261.43 1468.59 Q1259.6 1470.74 1259.6 1474.49 Q1259.6 1478.22 1261.43 1480.39 Q1263.28 1482.55 1266.43 1482.55 Q1269.58 1482.55 1271.4 1480.39 Q1273.26 1478.22 1273.26 1474.49 Q1273.26 1470.74 1271.4 1468.59 Q1269.58 1466.44 1266.43 1466.44 M1275.71 1451.78 L1275.71 1456.04 Q1273.95 1455.21 1272.14 1454.77 Q1270.36 1454.33 1268.6 1454.33 Q1263.97 1454.33 1261.52 1457.45 Q1259.09 1460.58 1258.74 1466.9 Q1260.11 1464.89 1262.17 1463.82 Q1264.23 1462.73 1266.71 1462.73 Q1271.91 1462.73 1274.92 1465.9 Q1277.96 1469.05 1277.96 1474.49 Q1277.96 1479.82 1274.81 1483.03 Q1271.66 1486.25 1266.43 1486.25 Q1260.43 1486.25 1257.26 1481.67 Q1254.09 1477.06 1254.09 1468.33 Q1254.09 1460.14 1257.98 1455.28 Q1261.87 1450.39 1268.42 1450.39 Q1270.18 1450.39 1271.96 1450.74 Q1273.77 1451.09 1275.71 1451.78 Z" fill="#000000" fill-rule="nonzero" fill-opacity="1"></path><path clip-path="url(#clip810)" d="M1290.04 1481.64 L1306.36 1481.64 L1306.36 1485.58 L1284.41 1485.58 L1284.41 1481.64 Q1287.08 1478.89 1291.66 1474.26 Q1296.27 1469.61 1297.45 1468.27 Q1299.69 1465.74 1300.57 1464.01 Q1301.47 1462.25 1301.47 1460.56 Q1301.47 1457.8 1299.53 1456.07 Q1297.61 1454.33 1294.51 1454.33 Q1292.31 1454.33 1289.85 1455.09 Q1287.42 1455.86 1284.64 1457.41 L1284.64 1452.69 Q1287.47 1451.55 1289.92 1450.97 Q1292.38 1450.39 1294.41 1450.39 Q1299.78 1450.39 1302.98 1453.08 Q1306.17 1455.77 1306.17 1460.26 Q1306.17 1462.39 1305.36 1464.31 Q1304.58 1466.2 1302.47 1468.8 Q1301.89 1469.47 1298.79 1472.69 Q1295.69 1475.88 1290.04 1481.64 Z" fill="#000000" fill-rule="nonzero" fill-opacity="1"></path><path clip-path="url(#clip810)" d="M1326.17 1469.17 Q1322.84 1469.17 1320.92 1470.95 Q1319.02 1472.73 1319.02 1475.86 Q1319.02 1478.98 1320.92 1480.77 Q1322.84 1482.55 1326.17 1482.55 Q1329.51 1482.55 1331.43 1480.77 Q1333.35 1478.96 1333.35 1475.86 Q1333.35 1472.73 1331.43 1470.95 Q1329.53 1469.17 1326.17 1469.17 M1321.5 1467.18 Q1318.49 1466.44 1316.8 1464.38 Q1315.13 1462.32 1315.13 1459.35 Q1315.13 1455.21 1318.07 1452.8 Q1321.03 1450.39 1326.17 1450.39 Q1331.33 1450.39 1334.27 1452.8 Q1337.21 1455.21 1337.21 1459.35 Q1337.21 1462.32 1335.52 1464.38 Q1333.86 1466.44 1330.87 1467.18 Q1334.25 1467.96 1336.13 1470.26 Q1338.02 1472.55 1338.02 1475.86 Q1338.02 1480.88 1334.95 1483.57 Q1331.89 1486.25 1326.17 1486.25 Q1320.45 1486.25 1317.38 1483.57 Q1314.32 1480.88 1314.32 1475.86 Q1314.32 1472.55 1316.22 1470.26 Q1318.12 1467.96 1321.5 1467.18 M1319.78 1459.79 Q1319.78 1462.48 1321.45 1463.98 Q1323.14 1465.49 1326.17 1465.49 Q1329.18 1465.49 1330.87 1463.98 Q1332.58 1462.48 1332.58 1459.79 Q1332.58 1457.11 1330.87 1455.6 Q1329.18 1454.1 1326.17 1454.1 Q1323.14 1454.1 1321.45 1455.6 Q1319.78 1457.11 1319.78 1459.79 Z" fill="#000000" fill-rule="nonzero" fill-opacity="1"></path><path clip-path="url(#clip810)" d="M1346.38 1451.02 L1364.74 1451.02 L1364.74 1454.96 L1350.66 1454.96 L1350.66 1463.43 Q1351.68 1463.08 1352.7 1462.92 Q1353.72 1462.73 1354.74 1462.73 Q1360.52 1462.73 1363.9 1465.9 Q1367.28 1469.08 1367.28 1474.49 Q1367.28 1480.07 1363.81 1483.17 Q1360.34 1486.25 1354.02 1486.25 Q1351.84 1486.25 1349.58 1485.88 Q1347.33 1485.51 1344.92 1484.77 L1344.92 1480.07 Q1347.01 1481.2 1349.23 1481.76 Q1351.45 1482.32 1353.93 1482.32 Q1357.93 1482.32 1360.27 1480.21 Q1362.61 1478.1 1362.61 1474.49 Q1362.61 1470.88 1360.27 1468.77 Q1357.93 1466.67 1353.93 1466.67 Q1352.05 1466.67 1350.18 1467.08 Q1348.33 1467.5 1346.38 1468.38 L1346.38 1451.02 Z" fill="#000000" fill-rule="nonzero" fill-opacity="1"></path><path clip-path="url(#clip810)" d="M1663.58 1481.64 L1671.22 1481.64 L1671.22 1455.28 L1662.91 1456.95 L1662.91 1452.69 L1671.17 1451.02 L1675.85 1451.02 L1675.85 1481.64 L1683.49 1481.64 L1683.49 1485.58 L1663.58 1485.58 L1663.58 1481.64 Z" fill="#000000" fill-rule="nonzero" fill-opacity="1"></path><path clip-path="url(#clip810)" d="M1696.96 1481.64 L1713.28 1481.64 L1713.28 1485.58 L1691.34 1485.58 L1691.34 1481.64 Q1694 1478.89 1698.58 1474.26 Q1703.19 1469.61 1704.37 1468.27 Q1706.61 1465.74 1707.49 1464.01 Q1708.4 1462.25 1708.4 1460.56 Q1708.4 1457.8 1706.45 1456.07 Q1704.53 1454.33 1701.43 1454.33 Q1699.23 1454.33 1696.78 1455.09 Q1694.34 1455.86 1691.57 1457.41 L1691.57 1452.69 Q1694.39 1451.55 1696.84 1450.97 Q1699.3 1450.39 1701.34 1450.39 Q1706.71 1450.39 1709.9 1453.08 Q1713.09 1455.77 1713.09 1460.26 Q1713.09 1462.39 1712.28 1464.31 Q1711.5 1466.2 1709.39 1468.8 Q1708.81 1469.47 1705.71 1472.69 Q1702.61 1475.88 1696.96 1481.64 Z" fill="#000000" fill-rule="nonzero" fill-opacity="1"></path><path clip-path="url(#clip810)" d="M1723.14 1451.02 L1741.5 1451.02 L1741.5 1454.96 L1727.42 1454.96 L1727.42 1463.43 Q1728.44 1463.08 1729.46 1462.92 Q1730.48 1462.73 1731.5 1462.73 Q1737.28 1462.73 1740.66 1465.9 Q1744.04 1469.08 1744.04 1474.49 Q1744.04 1480.07 1740.57 1483.17 Q1737.1 1486.25 1730.78 1486.25 Q1728.6 1486.25 1726.34 1485.88 Q1724.09 1485.51 1721.68 1484.77 L1721.68 1480.07 Q1723.77 1481.2 1725.99 1481.76 Q1728.21 1482.32 1730.69 1482.32 Q1734.69 1482.32 1737.03 1480.21 Q1739.37 1478.1 1739.37 1474.49 Q1739.37 1470.88 1737.03 1468.77 Q1734.69 1466.67 1730.69 1466.67 Q1728.81 1466.67 1726.94 1467.08 Q1725.09 1467.5 1723.14 1468.38 L1723.14 1451.02 Z" fill="#000000" fill-rule="nonzero" fill-opacity="1"></path><path clip-path="url(#clip810)" d="M1752.08 1451.02 L1774.3 1451.02 L1774.3 1453.01 L1761.75 1485.58 L1756.87 1485.58 L1768.67 1454.96 L1752.08 1454.96 L1752.08 1451.02 Z" fill="#000000" fill-rule="nonzero" fill-opacity="1"></path><path clip-path="url(#clip810)" d="M1793.42 1454.1 Q1789.81 1454.1 1787.98 1457.66 Q1786.17 1461.2 1786.17 1468.33 Q1786.17 1475.44 1787.98 1479.01 Q1789.81 1482.55 1793.42 1482.55 Q1797.05 1482.55 1798.86 1479.01 Q1800.69 1475.44 1800.69 1468.33 Q1800.69 1461.2 1798.86 1457.66 Q1797.05 1454.1 1793.42 1454.1 M1793.42 1450.39 Q1799.23 1450.39 1802.28 1455 Q1805.36 1459.58 1805.36 1468.33 Q1805.36 1477.06 1802.28 1481.67 Q1799.23 1486.25 1793.42 1486.25 Q1787.61 1486.25 1784.53 1481.67 Q1781.47 1477.06 1781.47 1468.33 Q1781.47 1459.58 1784.53 1455 Q1787.61 1450.39 1793.42 1450.39 Z" fill="#000000" fill-rule="nonzero" fill-opacity="1"></path><path clip-path="url(#clip810)" d="M2237.41 1466.95 Q2240.77 1467.66 2242.64 1469.93 Q2244.54 1472.2 2244.54 1475.53 Q2244.54 1480.65 2241.02 1483.45 Q2237.5 1486.25 2231.02 1486.25 Q2228.84 1486.25 2226.53 1485.81 Q2224.24 1485.39 2221.78 1484.54 L2221.78 1480.02 Q2223.73 1481.16 2226.04 1481.74 Q2228.36 1482.32 2230.88 1482.32 Q2235.28 1482.32 2237.57 1480.58 Q2239.89 1478.84 2239.89 1475.53 Q2239.89 1472.48 2237.73 1470.77 Q2235.6 1469.03 2231.78 1469.03 L2227.76 1469.03 L2227.76 1465.19 L2231.97 1465.19 Q2235.42 1465.19 2237.25 1463.82 Q2239.08 1462.43 2239.08 1459.84 Q2239.08 1457.18 2237.18 1455.77 Q2235.3 1454.33 2231.78 1454.33 Q2229.86 1454.33 2227.66 1454.75 Q2225.46 1455.16 2222.83 1456.04 L2222.83 1451.88 Q2225.49 1451.14 2227.8 1450.77 Q2230.14 1450.39 2232.2 1450.39 Q2237.52 1450.39 2240.63 1452.83 Q2243.73 1455.23 2243.73 1459.35 Q2243.73 1462.22 2242.09 1464.21 Q2240.44 1466.18 2237.41 1466.95 Z" fill="#000000" fill-rule="nonzero" fill-opacity="1"></path><path clip-path="url(#clip810)" d="M2254.21 1481.64 L2261.85 1481.64 L2261.85 1455.28 L2253.54 1456.95 L2253.54 1452.69 L2261.81 1451.02 L2266.48 1451.02 L2266.48 1481.64 L2274.12 1481.64 L2274.12 1485.58 L2254.21 1485.58 L2254.21 1481.64 Z" fill="#000000" fill-rule="nonzero" fill-opacity="1"></path><path clip-path="url(#clip810)" d="M2296.41 1455.09 L2284.61 1473.54 L2296.41 1473.54 L2296.41 1455.09 M2295.19 1451.02 L2301.07 1451.02 L2301.07 1473.54 L2306 1473.54 L2306 1477.43 L2301.07 1477.43 L2301.07 1485.58 L2296.41 1485.58 L2296.41 1477.43 L2280.81 1477.43 L2280.81 1472.92 L2295.19 1451.02 Z" fill="#000000" fill-rule="nonzero" fill-opacity="1"></path><path clip-path="url(#clip810)" d="M2317.76 1481.64 L2334.08 1481.64 L2334.08 1485.58 L2312.13 1485.58 L2312.13 1481.64 Q2314.79 1478.89 2319.38 1474.26 Q2323.98 1469.61 2325.16 1468.27 Q2327.41 1465.74 2328.29 1464.01 Q2329.19 1462.25 2329.19 1460.56 Q2329.19 1457.8 2327.25 1456.07 Q2325.33 1454.33 2322.22 1454.33 Q2320.02 1454.33 2317.57 1455.09 Q2315.14 1455.86 2312.36 1457.41 L2312.36 1452.69 Q2315.19 1451.55 2317.64 1450.97 Q2320.09 1450.39 2322.13 1450.39 Q2327.5 1450.39 2330.7 1453.08 Q2333.89 1455.77 2333.89 1460.26 Q2333.89 1462.39 2333.08 1464.31 Q2332.29 1466.2 2330.19 1468.8 Q2329.61 1469.47 2326.51 1472.69 Q2323.4 1475.88 2317.76 1481.64 Z" fill="#000000" fill-rule="nonzero" fill-opacity="1"></path><path clip-path="url(#clip810)" d="M2353.89 1454.1 Q2350.28 1454.1 2348.45 1457.66 Q2346.64 1461.2 2346.64 1468.33 Q2346.64 1475.44 2348.45 1479.01 Q2350.28 1482.55 2353.89 1482.55 Q2357.52 1482.55 2359.33 1479.01 Q2361.16 1475.44 2361.16 1468.33 Q2361.16 1461.2 2359.33 1457.66 Q2357.52 1454.1 2353.89 1454.1 M2353.89 1450.39 Q2359.7 1450.39 2362.76 1455 Q2365.83 1459.58 2365.83 1468.33 Q2365.83 1477.06 2362.76 1481.67 Q2359.7 1486.25 2353.89 1486.25 Q2348.08 1486.25 2345 1481.67 Q2341.95 1477.06 2341.95 1468.33 Q2341.95 1459.58 2345 1455 Q2348.08 1450.39 2353.89 1450.39 Z" fill="#000000" fill-rule="nonzero" fill-opacity="1"></path><path clip-path="url(#clip810)" d="M991.505 1524.18 L991.505 1530.96 Q988.259 1527.94 984.566 1526.44 Q980.906 1524.95 976.768 1524.95 Q968.62 1524.95 964.292 1529.95 Q959.963 1534.91 959.963 1544.33 Q959.963 1553.72 964.292 1558.72 Q968.62 1563.68 976.768 1563.68 Q980.906 1563.68 984.566 1562.19 Q988.259 1560.69 991.505 1557.67 L991.505 1564.38 Q988.131 1566.68 984.344 1567.82 Q980.588 1568.97 976.387 1568.97 Q965.597 1568.97 959.39 1562.38 Q953.184 1555.76 953.184 1544.33 Q953.184 1532.87 959.39 1526.28 Q965.597 1519.66 976.387 1519.66 Q980.652 1519.66 984.407 1520.81 Q988.195 1521.92 991.505 1524.18 Z" fill="#000000" fill-rule="nonzero" fill-opacity="1"></path><path clip-path="url(#clip810)" d="M1014.99 1536.5 Q1010.28 1536.5 1007.55 1540.19 Q1004.81 1543.85 1004.81 1550.25 Q1004.81 1556.65 1007.51 1560.34 Q1010.25 1564 1014.99 1564 Q1019.67 1564 1022.41 1560.31 Q1025.15 1556.62 1025.15 1550.25 Q1025.15 1543.92 1022.41 1540.23 Q1019.67 1536.5 1014.99 1536.5 M1014.99 1531.54 Q1022.63 1531.54 1026.99 1536.5 Q1031.35 1541.47 1031.35 1550.25 Q1031.35 1559 1026.99 1564 Q1022.63 1568.97 1014.99 1568.97 Q1007.32 1568.97 1002.96 1564 Q998.635 1559 998.635 1550.25 Q998.635 1541.47 1002.96 1536.5 Q1007.32 1531.54 1014.99 1531.54 Z" fill="#000000" fill-rule="nonzero" fill-opacity="1"></path><path clip-path="url(#clip810)" d="M1071.55 1548.76 L1071.55 1551.62 L1044.63 1551.62 Q1045.01 1557.67 1048.26 1560.85 Q1051.53 1564 1057.36 1564 Q1060.73 1564 1063.88 1563.17 Q1067.07 1562.35 1070.19 1560.69 L1070.19 1566.23 Q1067.03 1567.57 1063.72 1568.27 Q1060.41 1568.97 1057.01 1568.97 Q1048.48 1568.97 1043.48 1564 Q1038.52 1559.04 1038.52 1550.57 Q1038.52 1541.82 1043.23 1536.69 Q1047.97 1531.54 1055.99 1531.54 Q1063.18 1531.54 1067.35 1536.18 Q1071.55 1540.8 1071.55 1548.76 M1065.7 1547.04 Q1065.63 1542.23 1062.99 1539.37 Q1060.38 1536.5 1056.05 1536.5 Q1051.15 1536.5 1048.19 1539.27 Q1045.26 1542.04 1044.82 1547.07 L1065.7 1547.04 Z" fill="#000000" fill-rule="nonzero" fill-opacity="1"></path><path clip-path="url(#clip810)" d="M1099.21 1518.52 L1099.21 1523.39 L1093.61 1523.39 Q1090.46 1523.39 1089.22 1524.66 Q1088.01 1525.93 1088.01 1529.24 L1088.01 1532.4 L1097.65 1532.4 L1097.65 1536.95 L1088.01 1536.95 L1088.01 1568.04 L1082.12 1568.04 L1082.12 1536.95 L1076.52 1536.95 L1076.52 1532.4 L1082.12 1532.4 L1082.12 1529.91 Q1082.12 1523.96 1084.89 1521.26 Q1087.66 1518.52 1093.67 1518.52 L1099.21 1518.52 Z" fill="#000000" fill-rule="nonzero" fill-opacity="1"></path><path clip-path="url(#clip810)" d="M1122.16 1518.52 L1122.16 1523.39 L1116.56 1523.39 Q1113.41 1523.39 1112.17 1524.66 Q1110.96 1525.93 1110.96 1529.24 L1110.96 1532.4 L1120.6 1532.4 L1120.6 1536.95 L1110.96 1536.95 L1110.96 1568.04 L1105.07 1568.04 L1105.07 1536.95 L1099.47 1536.95 L1099.47 1532.4 L1105.07 1532.4 L1105.07 1529.91 Q1105.07 1523.96 1107.84 1521.26 Q1110.61 1518.52 1116.62 1518.52 L1122.16 1518.52 Z" fill="#000000" fill-rule="nonzero" fill-opacity="1"></path><path clip-path="url(#clip810)" d="M1127.06 1532.4 L1132.92 1532.4 L1132.92 1568.04 L1127.06 1568.04 L1127.06 1532.4 M1127.06 1518.52 L1132.92 1518.52 L1132.92 1525.93 L1127.06 1525.93 L1127.06 1518.52 Z" fill="#000000" fill-rule="nonzero" fill-opacity="1"></path><path clip-path="url(#clip810)" d="M1170.83 1533.76 L1170.83 1539.24 Q1168.34 1537.87 1165.83 1537.2 Q1163.35 1536.5 1160.8 1536.5 Q1155.1 1536.5 1151.95 1540.13 Q1148.8 1543.73 1148.8 1550.25 Q1148.8 1556.78 1151.95 1560.4 Q1155.1 1564 1160.8 1564 Q1163.35 1564 1165.83 1563.33 Q1168.34 1562.63 1170.83 1561.26 L1170.83 1566.68 Q1168.38 1567.82 1165.73 1568.39 Q1163.12 1568.97 1160.16 1568.97 Q1152.11 1568.97 1147.37 1563.91 Q1142.63 1558.85 1142.63 1550.25 Q1142.63 1541.53 1147.4 1536.53 Q1152.21 1531.54 1160.55 1531.54 Q1163.25 1531.54 1165.83 1532.11 Q1168.41 1532.65 1170.83 1533.76 Z" fill="#000000" fill-rule="nonzero" fill-opacity="1"></path><path clip-path="url(#clip810)" d="M1181.01 1532.4 L1186.87 1532.4 L1186.87 1568.04 L1181.01 1568.04 L1181.01 1532.4 M1181.01 1518.52 L1186.87 1518.52 L1186.87 1525.93 L1181.01 1525.93 L1181.01 1518.52 Z" fill="#000000" fill-rule="nonzero" fill-opacity="1"></path><path clip-path="url(#clip810)" d="M1229.61 1548.76 L1229.61 1551.62 L1202.69 1551.62 Q1203.07 1557.67 1206.32 1560.85 Q1209.59 1564 1215.42 1564 Q1218.79 1564 1221.94 1563.17 Q1225.13 1562.35 1228.25 1560.69 L1228.25 1566.23 Q1225.09 1567.57 1221.78 1568.27 Q1218.47 1568.97 1215.07 1568.97 Q1206.54 1568.97 1201.54 1564 Q1196.58 1559.04 1196.58 1550.57 Q1196.58 1541.82 1201.29 1536.69 Q1206.03 1531.54 1214.05 1531.54 Q1221.24 1531.54 1225.41 1536.18 Q1229.61 1540.8 1229.61 1548.76 M1223.76 1547.04 Q1223.69 1542.23 1221.05 1539.37 Q1218.44 1536.5 1214.11 1536.5 Q1209.21 1536.5 1206.25 1539.27 Q1203.32 1542.04 1202.88 1547.07 L1223.76 1547.04 Z" fill="#000000" fill-rule="nonzero" fill-opacity="1"></path><path clip-path="url(#clip810)" d="M1268.86 1546.53 L1268.86 1568.04 L1263 1568.04 L1263 1546.72 Q1263 1541.66 1261.03 1539.14 Q1259.06 1536.63 1255.11 1536.63 Q1250.37 1536.63 1247.63 1539.65 Q1244.89 1542.68 1244.89 1547.9 L1244.89 1568.04 L1239 1568.04 L1239 1532.4 L1244.89 1532.4 L1244.89 1537.93 Q1246.99 1534.72 1249.83 1533.13 Q1252.69 1531.54 1256.41 1531.54 Q1262.56 1531.54 1265.71 1535.36 Q1268.86 1539.14 1268.86 1546.53 Z" fill="#000000" fill-rule="nonzero" fill-opacity="1"></path><path clip-path="url(#clip810)" d="M1286.33 1522.27 L1286.33 1532.4 L1298.4 1532.4 L1298.4 1536.95 L1286.33 1536.95 L1286.33 1556.3 Q1286.33 1560.66 1287.51 1561.9 Q1288.72 1563.14 1292.38 1563.14 L1298.4 1563.14 L1298.4 1568.04 L1292.38 1568.04 Q1285.6 1568.04 1283.02 1565.53 Q1280.44 1562.98 1280.44 1556.3 L1280.44 1536.95 L1276.15 1536.95 L1276.15 1532.4 L1280.44 1532.4 L1280.44 1522.27 L1286.33 1522.27 Z" fill="#000000" fill-rule="nonzero" fill-opacity="1"></path><path clip-path="url(#clip810)" d="M1327.07 1520.52 L1336.65 1520.52 L1348.78 1552.86 L1360.97 1520.52 L1370.55 1520.52 L1370.55 1568.04 L1364.28 1568.04 L1364.28 1526.32 L1352.03 1558.91 L1345.57 1558.91 L1333.31 1526.32 L1333.31 1568.04 L1327.07 1568.04 L1327.07 1520.52 Z" fill="#000000" fill-rule="nonzero" fill-opacity="1"></path><path clip-path="url(#clip810)" d="M1399.26 1550.12 Q1392.16 1550.12 1389.43 1551.75 Q1386.69 1553.37 1386.69 1557.29 Q1386.69 1560.4 1388.73 1562.25 Q1390.79 1564.07 1394.33 1564.07 Q1399.2 1564.07 1402.13 1560.63 Q1405.09 1557.16 1405.09 1551.43 L1405.09 1550.12 L1399.26 1550.12 M1410.94 1547.71 L1410.94 1568.04 L1405.09 1568.04 L1405.09 1562.63 Q1403.08 1565.88 1400.09 1567.44 Q1397.1 1568.97 1392.77 1568.97 Q1387.29 1568.97 1384.05 1565.91 Q1380.83 1562.82 1380.83 1557.67 Q1380.83 1551.65 1384.84 1548.6 Q1388.88 1545.54 1396.87 1545.54 L1405.09 1545.54 L1405.09 1544.97 Q1405.09 1540.93 1402.41 1538.73 Q1399.77 1536.5 1394.96 1536.5 Q1391.91 1536.5 1389.01 1537.23 Q1386.12 1537.97 1383.44 1539.43 L1383.44 1534.02 Q1386.66 1532.78 1389.68 1532.17 Q1392.7 1531.54 1395.57 1531.54 Q1403.3 1531.54 1407.12 1535.55 Q1410.94 1539.56 1410.94 1547.71 Z" fill="#000000" fill-rule="nonzero" fill-opacity="1"></path><path clip-path="url(#clip810)" d="M1428.8 1522.27 L1428.8 1532.4 L1440.86 1532.4 L1440.86 1536.95 L1428.8 1536.95 L1428.8 1556.3 Q1428.8 1560.66 1429.97 1561.9 Q1431.18 1563.14 1434.84 1563.14 L1440.86 1563.14 L1440.86 1568.04 L1434.84 1568.04 Q1428.07 1568.04 1425.49 1565.53 Q1422.91 1562.98 1422.91 1556.3 L1422.91 1536.95 L1418.61 1536.95 L1418.61 1532.4 L1422.91 1532.4 L1422.91 1522.27 L1428.8 1522.27 Z" fill="#000000" fill-rule="nonzero" fill-opacity="1"></path><path clip-path="url(#clip810)" d="M1469.22 1537.87 Q1468.23 1537.3 1467.06 1537.04 Q1465.91 1536.76 1464.51 1536.76 Q1459.54 1536.76 1456.87 1540 Q1454.23 1543.22 1454.23 1549.27 L1454.23 1568.04 L1448.34 1568.04 L1448.34 1532.4 L1454.23 1532.4 L1454.23 1537.93 Q1456.07 1534.69 1459.03 1533.13 Q1461.99 1531.54 1466.23 1531.54 Q1466.83 1531.54 1467.56 1531.63 Q1468.3 1531.7 1469.19 1531.85 L1469.22 1537.87 Z" fill="#000000" fill-rule="nonzero" fill-opacity="1"></path><path clip-path="url(#clip810)" d="M1475.36 1532.4 L1481.22 1532.4 L1481.22 1568.04 L1475.36 1568.04 L1475.36 1532.4 M1475.36 1518.52 L1481.22 1518.52 L1481.22 1525.93 L1475.36 1525.93 L1475.36 1518.52 Z" fill="#000000" fill-rule="nonzero" fill-opacity="1"></path><path clip-path="url(#clip810)" d="M1523.11 1532.4 L1510.21 1549.74 L1523.77 1568.04 L1516.87 1568.04 L1506.49 1554.04 L1496.11 1568.04 L1489.21 1568.04 L1503.05 1549.39 L1490.39 1532.4 L1497.29 1532.4 L1506.75 1545.1 L1516.2 1532.4 L1523.11 1532.4 Z" fill="#000000" fill-rule="nonzero" fill-opacity="1"></path><path clip-path="url(#clip810)" d="M1575.5 1533.45 L1575.5 1538.98 Q1573.01 1537.71 1570.34 1537.07 Q1567.67 1536.44 1564.8 1536.44 Q1560.44 1536.44 1558.24 1537.77 Q1556.08 1539.11 1556.08 1541.79 Q1556.08 1543.82 1557.64 1545 Q1559.2 1546.15 1563.91 1547.2 L1565.91 1547.64 Q1572.15 1548.98 1574.76 1551.43 Q1577.4 1553.85 1577.4 1558.21 Q1577.4 1563.17 1573.46 1566.07 Q1569.54 1568.97 1562.67 1568.97 Q1559.8 1568.97 1556.68 1568.39 Q1553.6 1567.85 1550.16 1566.74 L1550.16 1560.69 Q1553.41 1562.38 1556.56 1563.24 Q1559.71 1564.07 1562.8 1564.07 Q1566.93 1564.07 1569.16 1562.66 Q1571.39 1561.23 1571.39 1558.65 Q1571.39 1556.27 1569.77 1554.99 Q1568.17 1553.72 1562.73 1552.54 L1560.69 1552.07 Q1555.25 1550.92 1552.83 1548.56 Q1550.41 1546.18 1550.41 1542.04 Q1550.41 1537.01 1553.98 1534.27 Q1557.54 1531.54 1564.1 1531.54 Q1567.35 1531.54 1570.21 1532.01 Q1573.08 1532.49 1575.5 1533.45 Z" fill="#000000" fill-rule="nonzero" fill-opacity="1"></path><path clip-path="url(#clip810)" d="M1586.73 1532.4 L1592.59 1532.4 L1592.59 1568.04 L1586.73 1568.04 L1586.73 1532.4 M1586.73 1518.52 L1592.59 1518.52 L1592.59 1525.93 L1586.73 1525.93 L1586.73 1518.52 Z" fill="#000000" fill-rule="nonzero" fill-opacity="1"></path><path clip-path="url(#clip810)" d="M1602.29 1532.4 L1630.11 1532.4 L1630.11 1537.74 L1608.09 1563.37 L1630.11 1563.37 L1630.11 1568.04 L1601.5 1568.04 L1601.5 1562.7 L1623.52 1537.07 L1602.29 1537.07 L1602.29 1532.4 Z" fill="#000000" fill-rule="nonzero" fill-opacity="1"></path><path clip-path="url(#clip810)" d="M1669.55 1548.76 L1669.55 1551.62 L1642.62 1551.62 Q1643 1557.67 1646.25 1560.85 Q1649.53 1564 1655.35 1564 Q1658.73 1564 1661.88 1563.17 Q1665.06 1562.35 1668.18 1560.69 L1668.18 1566.23 Q1665.03 1567.57 1661.72 1568.27 Q1658.41 1568.97 1655 1568.97 Q1646.47 1568.97 1641.48 1564 Q1636.51 1559.04 1636.51 1550.57 Q1636.51 1541.82 1641.22 1536.69 Q1645.96 1531.54 1653.98 1531.54 Q1661.18 1531.54 1665.35 1536.18 Q1669.55 1540.8 1669.55 1548.76 M1663.69 1547.04 Q1663.63 1542.23 1660.99 1539.37 Q1658.38 1536.5 1654.05 1536.5 Q1649.15 1536.5 1646.19 1539.27 Q1643.26 1542.04 1642.81 1547.07 L1663.69 1547.04 Z" fill="#000000" fill-rule="nonzero" fill-opacity="1"></path><polyline clip-path="url(#clip812)" style="stroke:#000000; stroke-linecap:round; stroke-linejoin:round; stroke-width:2; stroke-opacity:0.1; fill:none" points="269.976,1204.26 2352.76,1204.26 "></polyline>
<polyline clip-path="url(#clip812)" style="stroke:#000000; stroke-linecap:round; stroke-linejoin:round; stroke-width:2; stroke-opacity:0.1; fill:none" points="269.976,739.997 2352.76,739.997 "></polyline>
<polyline clip-path="url(#clip812)" style="stroke:#000000; stroke-linecap:round; stroke-linejoin:round; stroke-width:2; stroke-opacity:0.1; fill:none" points="269.976,275.732 2352.76,275.732 "></polyline>
<polyline clip-path="url(#clip810)" style="stroke:#000000; stroke-linecap:round; stroke-linejoin:round; stroke-width:4; stroke-opacity:1; fill:none" points="269.976,1423.18 269.976,123.472 "></polyline>
<polyline clip-path="url(#clip810)" style="stroke:#000000; stroke-linecap:round; stroke-linejoin:round; stroke-width:4; stroke-opacity:1; fill:none" points="269.976,1204.26 288.874,1204.26 "></polyline>
<polyline clip-path="url(#clip810)" style="stroke:#000000; stroke-linecap:round; stroke-linejoin:round; stroke-width:4; stroke-opacity:1; fill:none" points="269.976,739.997 288.874,739.997 "></polyline>
<polyline clip-path="url(#clip810)" style="stroke:#000000; stroke-linecap:round; stroke-linejoin:round; stroke-width:4; stroke-opacity:1; fill:none" points="269.976,275.732 288.874,275.732 "></polyline>
<path clip-path="url(#clip810)" d="M168.837 1217.61 L176.476 1217.61 L176.476 1191.24 L168.166 1192.91 L168.166 1188.65 L176.43 1186.98 L181.106 1186.98 L181.106 1217.61 L188.745 1217.61 L188.745 1221.54 L168.837 1221.54 L168.837 1217.61 Z" fill="#000000" fill-rule="nonzero" fill-opacity="1"></path><path clip-path="url(#clip810)" d="M198.189 1215.66 L203.073 1215.66 L203.073 1221.54 L198.189 1221.54 L198.189 1215.66 Z" fill="#000000" fill-rule="nonzero" fill-opacity="1"></path><path clip-path="url(#clip810)" d="M214.069 1217.61 L221.708 1217.61 L221.708 1191.24 L213.397 1192.91 L213.397 1188.65 L221.661 1186.98 L226.337 1186.98 L226.337 1217.61 L233.976 1217.61 L233.976 1221.54 L214.069 1221.54 L214.069 1217.61 Z" fill="#000000" fill-rule="nonzero" fill-opacity="1"></path><path clip-path="url(#clip810)" d="M169.208 753.342 L176.847 753.342 L176.847 726.976 L168.537 728.643 L168.537 724.384 L176.8 722.717 L181.476 722.717 L181.476 753.342 L189.115 753.342 L189.115 757.277 L169.208 757.277 L169.208 753.342 Z" fill="#000000" fill-rule="nonzero" fill-opacity="1"></path><path clip-path="url(#clip810)" d="M198.56 751.397 L203.444 751.397 L203.444 757.277 L198.56 757.277 L198.56 751.397 Z" fill="#000000" fill-rule="nonzero" fill-opacity="1"></path><path clip-path="url(#clip810)" d="M217.657 753.342 L233.976 753.342 L233.976 757.277 L212.032 757.277 L212.032 753.342 Q214.694 750.587 219.277 745.958 Q223.883 741.305 225.064 739.962 Q227.309 737.439 228.189 735.703 Q229.092 733.944 229.092 732.254 Q229.092 729.499 227.147 727.763 Q225.226 726.027 222.124 726.027 Q219.925 726.027 217.471 726.791 Q215.041 727.555 212.263 729.106 L212.263 724.384 Q215.087 723.249 217.541 722.671 Q219.995 722.092 222.032 722.092 Q227.402 722.092 230.596 724.777 Q233.791 727.462 233.791 731.953 Q233.791 734.083 232.981 736.004 Q232.194 737.902 230.087 740.495 Q229.508 741.166 226.407 744.383 Q223.305 747.578 217.657 753.342 Z" fill="#000000" fill-rule="nonzero" fill-opacity="1"></path><path clip-path="url(#clip810)" d="M168.259 289.076 L175.898 289.076 L175.898 262.711 L167.587 264.377 L167.587 260.118 L175.851 258.452 L180.527 258.452 L180.527 289.076 L188.166 289.076 L188.166 293.012 L168.259 293.012 L168.259 289.076 Z" fill="#000000" fill-rule="nonzero" fill-opacity="1"></path><path clip-path="url(#clip810)" d="M197.61 287.132 L202.495 287.132 L202.495 293.012 L197.61 293.012 L197.61 287.132 Z" fill="#000000" fill-rule="nonzero" fill-opacity="1"></path><path clip-path="url(#clip810)" d="M226.846 274.377 Q230.203 275.095 232.078 277.364 Q233.976 279.632 233.976 282.965 Q233.976 288.081 230.457 290.882 Q226.939 293.683 220.458 293.683 Q218.282 293.683 215.967 293.243 Q213.675 292.826 211.221 291.97 L211.221 287.456 Q213.166 288.59 215.481 289.169 Q217.796 289.748 220.319 289.748 Q224.717 289.748 227.008 288.012 Q229.323 286.276 229.323 282.965 Q229.323 279.91 227.17 278.197 Q225.041 276.461 221.221 276.461 L217.194 276.461 L217.194 272.618 L221.407 272.618 Q224.856 272.618 226.684 271.252 Q228.513 269.864 228.513 267.271 Q228.513 264.609 226.615 263.197 Q224.74 261.762 221.221 261.762 Q219.3 261.762 217.101 262.178 Q214.902 262.595 212.263 263.475 L212.263 259.308 Q214.925 258.567 217.24 258.197 Q219.578 257.827 221.638 257.827 Q226.962 257.827 230.064 260.257 Q233.166 262.665 233.166 266.785 Q233.166 269.655 231.522 271.646 Q229.879 273.614 226.846 274.377 Z" fill="#000000" fill-rule="nonzero" fill-opacity="1"></path><path clip-path="url(#clip810)" d="M86.8038 1016.07 L73.5994 1016.07 Q72.8587 1016.07 72.6011 1016.04 Q72.3434 1016.01 72.1502 1015.82 Q71.9569 1015.62 71.9569 1015.24 Q71.9569 1014.5 72.6333 1014.43 Q79.1711 1014.24 82.7781 1010.34 Q86.353 1006.51 86.353 999.939 Q86.353 995.977 83.5188 993.53 Q80.6525 991.082 76.9166 991.082 Q73.3418 991.082 70.8297 993.143 Q69.7025 994.013 68.994 995.108 Q68.2533 996.17 68.0278 996.847 Q67.8024 997.491 67.4803 998.747 Q65.5158 1006.93 65.2903 1007.44 Q63.9699 1011.34 60.6527 1013.72 Q57.3033 1016.07 53.2131 1016.07 Q47.9314 1016.07 44.1955 1012.37 Q40.4274 1008.63 40.4274 1003.22 Q40.4274 1000.52 41.297 998.264 Q42.1343 995.977 42.9073 995.043 Q43.6802 994.109 45.065 992.66 L41.297 990.373 Q40.4274 989.858 40.4274 989.375 Q40.4274 988.86 40.7495 988.763 Q41.0393 988.634 42.0055 988.634 L55.2743 988.634 Q56.015 988.634 56.2727 988.666 Q56.5303 988.699 56.6914 988.924 Q56.8524 989.117 56.8524 989.504 Q56.8524 990.148 56.0795 990.309 Q42.2953 992.145 42.2953 1003.16 Q42.2953 1006.93 44.8396 1009.41 Q47.3517 1011.85 50.9265 1011.85 Q53.825 1011.85 56.2083 1010.05 Q58.5593 1008.25 59.3 1005.19 L61.329 996.75 Q62.3274 992.531 66.0633 989.697 Q69.7991 986.863 74.6622 986.863 Q80.2661 986.863 84.324 990.534 Q88.3819 994.174 88.3819 999.874 Q88.3819 1003.96 87.0293 1007.12 Q85.6766 1010.28 83.7765 1011.98 Q85.9665 1013.3 87.1903 1014.17 L87.5124 1014.37 Q88.3819 1014.88 88.3819 1015.37 Q88.3819 1015.88 88.0599 1015.98 Q87.7378 1016.07 86.8038 1016.07 Z" fill="#000000" fill-rule="nonzero" fill-opacity="1"></path><path clip-path="url(#clip810)" d="M97.6894 982.213 Q97.6894 978.703 97.2385 977.897 Q96.8199 977.06 94.7265 977.06 L63.8411 977.06 Q61.6511 977.06 61.1036 977.897 Q60.5561 978.703 60.5561 982.213 L58.4949 982.213 L57.7864 972.712 L62.1342 972.712 Q57.7864 968.751 57.7864 963.469 Q57.7864 957.865 62.1342 953.775 Q66.4819 949.685 72.6977 949.685 Q78.9778 949.685 83.3256 954.033 Q87.6734 958.381 87.6734 964.403 Q87.6734 967.688 85.9987 969.91 Q84.2918 972.1 83.0358 972.519 L83.6477 972.519 L94.7265 972.519 Q96.8521 972.519 97.2707 971.682 Q97.6894 970.844 97.6894 967.366 L99.7184 967.366 Q99.5252 974.29 99.5252 974.806 Q99.5252 975.45 99.7184 982.213 L97.6894 982.213 M79.4287 972.519 Q80.4271 972.519 80.7813 972.39 Q81.1356 972.229 82.1984 971.585 Q86.1919 968.976 86.1919 964.725 Q86.1919 964.693 86.1919 964.661 Q86.1919 960.893 82.3594 958.026 Q78.4947 955.16 72.6977 955.16 Q67.1583 955.16 63.2936 957.769 Q59.4289 960.377 59.4289 963.984 Q59.4289 966.561 60.8137 968.815 Q62.1986 971.07 64.7106 972.519 L79.4287 972.519 Z" fill="#000000" fill-rule="nonzero" fill-opacity="1"></path><path clip-path="url(#clip810)" d="M72.4078 940.696 Q66.1921 940.696 61.7799 936.703 Q57.3677 932.709 57.3677 926.977 Q57.3677 921.18 61.1358 918.184 Q64.9039 915.157 70.3144 915.157 Q71.3128 915.157 71.5061 915.415 Q71.6993 915.672 71.6993 916.8 L71.6993 935.221 Q78.4303 935.221 81.5865 933.225 Q85.9987 930.455 85.9987 925.785 Q85.9987 925.141 85.8699 924.368 Q85.7411 923.595 85.1936 922.017 Q84.6138 920.439 83.1002 919.054 Q81.5865 917.669 79.2033 916.864 Q78.2693 916.671 78.3015 916.027 Q78.3015 915.157 79.0744 915.157 Q79.6541 915.157 80.9746 915.801 Q82.2628 916.413 83.8087 917.605 Q85.3546 918.796 86.514 921.115 Q87.6734 923.402 87.6734 926.171 Q87.6734 931.968 83.2934 936.348 Q78.8812 940.696 72.4078 940.696 M70.3144 935.157 L70.3144 919.505 Q68.9296 919.505 67.3837 919.762 Q65.8378 919.988 63.7122 920.696 Q61.5544 921.373 60.2018 922.983 Q58.8492 924.593 58.8492 926.977 Q58.8492 928.039 59.3 929.199 Q59.7509 930.326 60.8459 931.711 Q61.9409 933.096 64.4208 934.062 Q66.9006 935.028 70.3144 935.157 Z" fill="#000000" fill-rule="nonzero" fill-opacity="1"></path><path clip-path="url(#clip810)" d="M72.4078 911.701 Q66.1921 911.701 61.7799 907.707 Q57.3677 903.714 57.3677 897.981 Q57.3677 892.184 61.1358 889.189 Q64.9039 886.161 70.3144 886.161 Q71.3128 886.161 71.5061 886.419 Q71.6993 886.677 71.6993 887.804 L71.6993 906.226 Q78.4303 906.226 81.5865 904.229 Q85.9987 901.459 85.9987 896.789 Q85.9987 896.145 85.8699 895.372 Q85.7411 894.599 85.1936 893.021 Q84.6138 891.443 83.1002 890.058 Q81.5865 888.673 79.2033 887.868 Q78.2693 887.675 78.3015 887.031 Q78.3015 886.161 79.0744 886.161 Q79.6541 886.161 80.9746 886.805 Q82.2628 887.417 83.8087 888.609 Q85.3546 889.801 86.514 892.119 Q87.6734 894.406 87.6734 897.176 Q87.6734 902.973 83.2934 907.353 Q78.8812 911.701 72.4078 911.701 M70.3144 906.161 L70.3144 890.509 Q68.9296 890.509 67.3837 890.767 Q65.8378 890.992 63.7122 891.701 Q61.5544 892.377 60.2018 893.987 Q58.8492 895.598 58.8492 897.981 Q58.8492 899.044 59.3 900.203 Q59.7509 901.33 60.8459 902.715 Q61.9409 904.1 64.4208 905.066 Q66.9006 906.032 70.3144 906.161 Z" fill="#000000" fill-rule="nonzero" fill-opacity="1"></path><path clip-path="url(#clip810)" d="M72.7621 882.705 Q66.4819 882.705 62.1342 878.325 Q57.7864 873.945 57.7864 868.019 Q57.7864 862.995 61.8765 859.71 L47.6093 859.71 Q45.1617 859.71 44.5498 860.579 Q43.9378 861.417 43.9378 864.831 L41.8767 864.831 L41.1681 855.33 L81.2 855.33 Q83.6477 855.33 84.2918 854.492 Q84.9037 853.623 84.9037 850.209 L86.9327 850.209 L87.6734 859.903 L83.2934 859.903 Q87.6412 863.317 87.6734 868.727 Q87.6734 874.396 83.3256 878.55 Q78.9778 882.705 72.7621 882.705 M72.8265 877.23 Q78.9456 877.23 81.973 875.33 Q86.1919 872.689 86.1919 868.405 Q86.1919 863.51 81.5865 860.612 Q80.4593 859.871 79.1388 859.903 L65.6124 859.903 Q64.2919 859.903 63.1969 860.612 Q59.2356 863.317 59.2356 867.729 Q59.2356 872.335 63.4546 875.201 Q66.6108 877.23 72.8265 877.23 Z" fill="#000000" fill-rule="nonzero" fill-opacity="1"></path><path clip-path="url(#clip810)" d="M60.5561 829.037 L58.4949 829.037 L57.7864 819.343 L79.6863 819.343 Q81.2644 819.343 82.1984 819.214 Q83.1002 819.086 84.163 818.57 Q85.2258 818.023 85.7088 816.799 Q86.1919 815.543 86.1919 813.546 Q86.1919 809.971 83.2612 807.781 Q80.3305 805.559 75.9827 805.559 L64.2275 805.559 Q61.7799 805.559 61.168 806.429 Q60.5561 807.298 60.5561 810.712 L58.4949 810.712 L57.7864 801.018 L81.2 801.018 Q83.6477 801.018 84.2918 800.181 Q84.9037 799.311 84.9037 795.865 L86.9327 795.865 L87.6734 805.366 L81.7153 805.366 Q87.6412 808.136 87.6734 813.868 Q87.6734 816.767 86.9327 818.764 Q86.1919 820.728 85.2902 821.727 Q84.3562 822.725 82.5849 823.272 Q80.8136 823.788 79.7186 823.852 Q78.6236 823.917 76.498 823.917 L66.6108 823.917 Q62.1342 823.917 61.3612 824.561 Q60.5561 825.205 60.5561 829.037 Z" fill="#000000" fill-rule="nonzero" fill-opacity="1"></path><path clip-path="url(#clip810)" d="M97.6894 797.289 Q97.6894 793.778 97.2385 792.973 Q96.8199 792.136 94.7265 792.136 L63.8411 792.136 Q61.6511 792.136 61.1036 792.973 Q60.5561 793.778 60.5561 797.289 L58.4949 797.289 L57.7864 787.788 L62.1342 787.788 Q57.7864 783.827 57.7864 778.545 Q57.7864 772.941 62.1342 768.851 Q66.4819 764.761 72.6977 764.761 Q78.9778 764.761 83.3256 769.108 Q87.6734 773.456 87.6734 779.479 Q87.6734 782.764 85.9987 784.986 Q84.2918 787.176 83.0358 787.595 L83.6477 787.595 L94.7265 787.595 Q96.8521 787.595 97.2707 786.757 Q97.6894 785.92 97.6894 782.442 L99.7184 782.442 Q99.5252 789.366 99.5252 789.881 Q99.5252 790.525 99.7184 797.289 L97.6894 797.289 M79.4287 787.595 Q80.4271 787.595 80.7813 787.466 Q81.1356 787.305 82.1984 786.661 Q86.1919 784.052 86.1919 779.801 Q86.1919 779.769 86.1919 779.736 Q86.1919 775.968 82.3594 773.102 Q78.4947 770.236 72.6977 770.236 Q67.1583 770.236 63.2936 772.844 Q59.4289 775.453 59.4289 779.06 Q59.4289 781.637 60.8137 783.891 Q62.1986 786.145 64.7106 787.595 L79.4287 787.595 Z" fill="#000000" fill-rule="nonzero" fill-opacity="1"></path><path clip-path="url(#clip810)" d="M8.63719 687.283 Q9.53895 687.283 9.76439 687.702 Q9.95763 688.121 9.95763 689.28 L9.95763 695.464 L29.41 700.359 Q31.1169 700.746 32.5661 700.746 Q34.1764 700.746 34.885 700.262 Q35.5935 699.747 35.5935 698.684 Q35.5935 696.591 33.6933 694.337 Q31.7932 692.05 27.1556 690.118 Q26.5436 689.86 26.4148 689.731 Q26.2538 689.57 26.2538 689.151 Q26.2538 688.346 26.8979 688.346 Q27.1234 688.346 28.1539 688.797 Q29.1845 689.216 30.6982 690.15 Q32.2119 691.052 33.6289 692.243 Q35.046 693.403 36.0766 695.174 Q37.075 696.945 37.075 698.845 Q37.075 701.518 35.3681 703.225 Q33.6611 704.9 30.9881 704.9 Q30.1185 704.9 27.3488 704.224 Q24.5469 703.547 9.95763 699.876 L9.95763 705.705 Q9.95763 706.51 9.92542 706.832 Q9.89322 707.122 9.73219 707.348 Q9.53895 707.541 9.15248 707.541 Q8.54057 707.541 8.28293 707.283 Q7.99307 707.026 7.96087 706.704 Q7.89645 706.349 7.89645 705.544 L7.89645 699.361 L-2.57045 696.784 Q-3.60104 696.527 -4.18074 695.882 Q-4.79265 695.206 -4.85707 694.82 Q-4.95368 694.433 -4.95368 694.143 Q-4.95368 693.274 -4.4706 692.758 Q-4.01971 692.243 -3.18236 692.243 Q-2.73148 692.243 7.89645 694.948 L7.89645 689.151 Q7.89645 688.411 7.92866 688.121 Q7.96087 687.799 8.1219 687.541 Q8.28293 687.283 8.63719 687.283 Z" fill="#000000" fill-rule="nonzero" fill-opacity="1"></path><path clip-path="url(#clip810)" d="M48.8997 662.877 Q49.1026 662.696 49.3055 662.696 Q49.5084 662.696 50.0946 663.147 Q50.6807 663.575 51.4697 664.5 Q52.2588 665.424 53.0027 666.619 Q53.7467 667.814 54.2427 669.572 Q54.7612 671.331 54.7612 673.179 Q54.7612 676.493 52.3941 678.477 Q50.0269 680.438 46.3973 680.438 Q44.0753 680.438 42.0238 679.672 Q39.9497 678.905 38.4843 677.666 Q37.019 676.403 35.9594 674.825 Q34.8773 673.224 34.3588 671.556 Q33.8403 669.888 33.8403 668.332 Q33.8403 666.055 34.99 664.725 Q36.1398 663.395 37.7629 663.395 Q38.1462 663.395 38.6196 663.508 Q39.093 663.598 39.837 663.914 Q40.5809 664.207 41.3249 664.973 Q42.0463 665.74 42.5197 666.867 Q43.5793 669.369 43.5793 673.923 L43.5793 676.381 Q46.4875 677.102 48.3812 677.102 Q49.1252 677.102 49.8917 676.967 Q50.6356 676.831 51.5825 676.471 Q52.5293 676.087 53.138 675.231 Q53.7242 674.352 53.7242 673.089 Q53.7242 672.683 53.7016 672.255 Q53.6791 671.804 53.4311 670.677 Q53.1831 669.527 52.7548 668.513 Q52.3264 667.498 51.4021 666.213 Q50.4553 664.906 49.1702 663.869 Q48.6968 663.508 48.6968 663.26 Q48.6968 663.057 48.8997 662.877 M37.7629 664.928 Q36.523 664.928 35.6889 665.852 Q34.8547 666.754 34.8547 668.332 Q34.8547 668.828 34.9675 669.437 Q35.0802 670.046 35.5536 671.06 Q36.027 672.052 36.8161 672.931 Q37.5826 673.811 39.093 674.69 Q40.5809 675.569 42.5648 676.087 L42.5648 674.194 Q42.5648 673.54 42.5648 673.067 Q42.5423 672.593 42.4521 671.556 Q42.3619 670.497 42.2041 669.73 Q42.0238 668.964 41.6631 667.994 Q41.3024 667.025 40.8289 666.416 Q40.333 665.785 39.5439 665.356 Q38.7549 664.928 37.7629 664.928 Z" fill="#000000" fill-rule="nonzero" fill-opacity="1"></path><path clip-path="url(#clip810)" d="M36.8837 637.153 Q38.1462 637.153 38.8676 637.942 Q39.5665 638.731 39.5665 639.633 Q39.5665 640.49 39.0705 640.941 Q38.5745 641.391 37.9433 641.391 Q37.0866 641.391 36.3427 640.76 Q35.5987 640.129 35.4409 639.182 Q34.8547 640.106 34.8547 641.482 Q34.8547 642.383 35.3282 643.172 Q35.8016 643.939 36.4103 644.412 Q37.019 644.863 37.8982 645.269 Q38.7549 645.652 39.2734 645.81 Q39.7694 645.945 40.3104 646.058 L46.6228 647.636 Q49.6211 648.403 50.6807 648.403 Q51.9883 648.403 52.8675 647.771 Q53.7242 647.14 53.7242 645.878 Q53.7242 645.382 53.5889 644.818 Q53.4311 644.255 53.0253 643.533 Q52.5969 642.789 51.9657 642.135 Q51.3119 641.459 50.2073 640.805 Q49.1026 640.152 47.6823 639.723 Q47.1864 639.588 47.1864 639.137 Q47.1864 638.573 47.6372 638.573 Q48.0205 638.573 48.8321 638.889 Q49.6211 639.182 50.6582 639.836 Q51.6726 640.467 52.5969 641.301 Q53.4987 642.135 54.1299 643.375 Q54.7612 644.615 54.7612 645.968 Q54.7612 647.907 53.7242 649.192 Q52.6871 650.477 51.2443 650.95 Q51.4472 651.063 51.7177 651.221 Q51.9883 651.379 52.5969 651.852 Q53.1831 652.303 53.634 652.821 Q54.0623 653.34 54.4005 654.151 Q54.7612 654.94 54.7612 655.797 Q54.7612 656.879 54.4456 657.849 Q54.1299 658.796 53.4085 659.472 Q52.6871 660.148 51.6952 660.148 Q50.5905 660.148 49.824 659.404 Q49.035 658.638 49.035 657.601 Q49.035 656.947 49.4182 656.428 Q49.8015 655.887 50.6356 655.887 Q51.5599 655.887 52.2588 656.519 Q52.9577 657.15 53.138 658.052 Q53.7242 657.127 53.7242 655.752 Q53.7242 654.264 52.4166 653.092 Q51.109 651.92 48.9223 651.356 Q43.6695 649.958 41.3249 649.417 Q38.9578 648.876 37.9433 648.876 Q36.9964 648.876 36.3427 649.124 Q35.6889 649.372 35.3958 649.8 Q35.0802 650.206 34.9675 650.589 Q34.8547 650.95 34.8547 651.356 Q34.8547 652.032 35.1253 652.799 Q35.3958 653.543 36.027 654.445 Q36.6357 655.324 37.8982 656.158 Q39.1607 656.992 40.8966 657.556 Q41.4151 657.668 41.4151 658.164 Q41.3925 658.705 40.9416 658.705 Q40.5584 658.705 39.7694 658.412 Q38.9578 658.097 37.9433 657.465 Q36.9288 656.812 36.027 655.977 Q35.1027 655.121 34.4715 653.881 Q33.8403 652.618 33.8403 651.266 Q33.8403 650.657 33.9755 650.071 Q34.0882 649.462 34.4264 648.741 Q34.7646 647.997 35.5085 647.343 Q36.2525 646.689 37.3346 646.284 Q36.8161 646.013 36.3201 645.652 Q35.8241 645.269 35.2154 644.683 Q34.5842 644.074 34.2235 643.24 Q33.8403 642.383 33.8403 641.437 Q33.8403 640.512 34.0882 639.61 Q34.3137 638.709 35.0576 637.942 Q35.779 637.153 36.8837 637.153 Z" fill="#000000" fill-rule="nonzero" fill-opacity="1"></path><path clip-path="url(#clip810)" d="M47.6372 612.757 Q50.5454 613.366 52.2137 614.155 Q54.7612 615.417 54.7612 617.559 Q54.7612 619.182 53.7692 620.332 Q52.7773 621.482 51.2894 621.752 Q54.7612 624.706 54.7612 627.772 Q54.7612 630.477 52.7097 632.19 Q50.6356 633.904 47.3667 633.904 Q44.0753 633.904 40.9191 632.28 Q37.7629 630.635 35.8016 628.042 Q33.8403 625.45 33.8403 622.789 Q33.8403 619.971 36.7935 618.529 Q35.9819 618.416 35.3733 617.897 Q34.7646 617.379 34.7646 616.59 Q34.7646 615.981 35.1027 615.62 Q35.4183 615.26 36.0045 615.26 Q36.2976 615.26 37.5826 615.575 L44.0302 617.244 L48.2008 618.258 Q49.7338 618.641 50.2974 618.754 Q50.8611 618.844 51.605 618.844 Q53.7242 618.844 53.7242 617.469 Q53.7242 616.793 53.2958 616.252 Q52.8675 615.711 51.9657 615.282 Q51.0639 614.854 50.2298 614.583 Q49.3731 614.313 48.0205 613.952 Q47.4794 613.839 47.3442 613.749 Q47.1864 613.637 47.1864 613.321 Q47.1864 612.757 47.6372 612.757 M38.9127 619.092 Q38.7098 619.092 38.1462 619.25 Q37.5826 619.408 36.7935 619.769 Q36.0045 620.129 35.4409 620.918 Q34.8547 621.685 34.8547 622.722 Q34.8547 624.12 36.0496 625.585 Q37.2444 627.028 39.2734 628.087 Q40.8966 628.899 44.3007 629.778 Q47.7049 630.635 49.3957 630.635 Q50.4327 630.635 51.357 630.409 Q52.2588 630.161 53.0027 629.462 Q53.7242 628.764 53.7242 627.681 Q53.7242 625.044 50.4553 622.451 Q49.8917 621.955 49.6662 621.843 Q49.4182 621.707 48.7419 621.527 L39.7017 619.227 Q39.0254 619.092 38.9127 619.092 Z" fill="#000000" fill-rule="nonzero" fill-opacity="1"></path><path clip-path="url(#clip810)" d="M48.8997 591.934 Q49.1026 591.754 49.3055 591.754 Q49.5084 591.754 50.0946 592.205 Q50.6807 592.633 51.4697 593.557 Q52.2588 594.482 53.0027 595.676 Q53.7467 596.871 54.2427 598.63 Q54.7612 600.388 54.7612 602.237 Q54.7612 605.686 52.4842 607.715 Q50.2073 609.721 46.9384 609.721 Q43.7597 609.721 40.7162 607.94 Q37.6502 606.159 35.7565 603.274 Q33.8403 600.388 33.8403 597.345 Q33.8403 594.932 34.9675 593.422 Q36.0947 591.912 37.808 591.912 Q39.1381 591.912 39.9497 592.678 Q40.7613 593.445 40.7613 594.482 Q40.7613 595.203 40.3555 595.699 Q39.9272 596.195 39.1381 596.195 Q38.1236 596.195 37.3346 595.361 Q37.019 595.045 36.8837 594.685 Q36.7259 594.301 36.7259 594.076 Q36.7034 593.85 36.7034 593.332 Q35.8241 593.805 35.3507 594.932 Q34.8547 596.037 34.8547 597.3 Q34.8547 599.171 36.1623 600.952 Q37.4473 602.733 39.4763 603.815 Q41.4602 604.897 44.2782 605.596 Q47.0736 606.295 48.6968 606.295 Q50.9287 606.295 52.3264 605.258 Q53.7242 604.221 53.7242 602.147 Q53.7242 601.741 53.7016 601.312 Q53.6791 600.862 53.4311 599.734 Q53.1831 598.585 52.7548 597.57 Q52.3264 596.556 51.4021 595.271 Q50.4553 593.963 49.1702 592.926 Q48.6968 592.565 48.6968 592.317 Q48.6968 592.114 48.8997 591.934 Z" fill="#000000" fill-rule="nonzero" fill-opacity="1"></path><path clip-path="url(#clip810)" d="M34.8547 576.867 Q35.486 576.867 35.6438 577.16 Q35.779 577.453 35.779 578.264 L35.779 582.593 L49.3957 586.019 Q50.5905 586.29 51.605 586.29 Q52.7322 586.29 53.2282 585.952 Q53.7242 585.591 53.7242 584.847 Q53.7242 583.382 52.3941 581.804 Q51.0639 580.203 47.8176 578.85 Q47.3893 578.67 47.2991 578.58 Q47.1864 578.467 47.1864 578.174 Q47.1864 577.61 47.6372 577.61 Q47.7951 577.61 48.5165 577.926 Q49.2379 578.219 50.2974 578.873 Q51.357 579.504 52.349 580.338 Q53.3409 581.15 54.0623 582.39 Q54.7612 583.63 54.7612 584.96 Q54.7612 586.831 53.5663 588.026 Q52.3715 589.198 50.5003 589.198 Q49.8917 589.198 47.9529 588.725 Q45.9915 588.251 35.779 585.681 L35.779 589.762 Q35.779 590.325 35.7565 590.551 Q35.734 590.754 35.6212 590.912 Q35.486 591.047 35.2154 591.047 Q34.7871 591.047 34.6068 590.866 Q34.4039 590.686 34.3813 590.461 Q34.3362 590.213 34.3362 589.649 L34.3362 585.321 L27.0094 583.517 Q26.288 583.337 25.8822 582.886 Q25.4538 582.412 25.4088 582.142 Q25.3411 581.871 25.3411 581.668 Q25.3411 581.06 25.6793 580.699 Q25.9949 580.338 26.5811 580.338 Q26.8967 580.338 34.3362 582.232 L34.3362 578.174 Q34.3362 577.656 34.3588 577.453 Q34.3813 577.227 34.494 577.047 Q34.6068 576.867 34.8547 576.867 Z" fill="#000000" fill-rule="nonzero" fill-opacity="1"></path><path clip-path="url(#clip810)" d="M72.3567 729.541 L72.3567 537.618 L68.8367 537.618 L68.8367 729.541  Z" fill="#000000" fill-rule="evenodd" fill-opacity="1"></path>
<path clip-path="url(#clip810)" d="M99.6303 709.283 Q100.532 709.283 100.758 709.702 Q100.951 710.121 100.951 711.28 L100.951 717.464 L120.403 722.359 Q122.11 722.746 123.559 722.746 Q125.17 722.746 125.878 722.262 Q126.587 721.747 126.587 720.684 Q126.587 718.591 124.686 716.337 Q122.786 714.05 118.149 712.118 Q117.537 711.86 117.408 711.731 Q117.247 711.57 117.247 711.151 Q117.247 710.346 117.891 710.346 Q118.116 710.346 119.147 710.797 Q120.178 711.216 121.691 712.15 Q123.205 713.052 124.622 714.243 Q126.039 715.403 127.07 717.174 Q128.068 718.945 128.068 720.845 Q128.068 723.518 126.361 725.225 Q124.654 726.9 121.981 726.9 Q121.112 726.9 118.342 726.224 Q115.54 725.547 100.951 721.876 L100.951 727.705 Q100.951 728.51 100.919 728.832 Q100.886 729.122 100.725 729.348 Q100.532 729.541 100.146 729.541 Q99.5337 729.541 99.2761 729.283 Q98.9862 729.026 98.954 728.704 Q98.8896 728.349 98.8896 727.544 L98.8896 721.361 L88.4227 718.784 Q87.3921 718.527 86.8124 717.882 Q86.2005 717.206 86.1361 716.82 Q86.0394 716.433 86.0394 716.143 Q86.0394 715.274 86.5225 714.758 Q86.9734 714.243 87.8108 714.243 Q88.2616 714.243 98.8896 716.948 L98.8896 711.151 Q98.8896 710.411 98.9218 710.121 Q98.954 709.799 99.115 709.541 Q99.2761 709.283 99.6303 709.283 Z" fill="#000000" fill-rule="nonzero" fill-opacity="1"></path><path clip-path="url(#clip810)" d="M117.344 690.648 Q118.336 690.648 119.08 691.459 Q119.801 692.249 119.801 693.105 Q119.801 693.894 119.328 694.39 Q118.832 694.864 118.133 694.864 Q117.209 694.864 116.442 694.075 Q115.676 693.286 115.676 692.361 Q115.676 691.595 116.149 691.121 Q116.623 690.648 117.344 690.648 M139.595 690.242 Q139.775 690.242 140.497 690.445 Q141.196 690.648 142.278 691.144 Q143.337 691.617 144.329 692.271 Q145.321 692.925 146.02 694.007 Q146.719 695.067 146.719 696.284 Q146.719 697.93 145.637 699.012 Q144.555 700.071 142.932 700.071 Q142.052 700.071 139.234 699.012 Q131.028 695.946 130.69 695.833 Q129.405 695.315 128.278 695.315 Q127.759 695.315 127.444 695.427 Q127.106 695.54 126.993 695.765 Q126.858 695.991 126.835 696.126 Q126.813 696.239 126.813 696.464 Q126.813 697.794 128.165 699.034 Q129.518 700.274 132.539 701.131 Q133.102 701.311 133.238 701.424 Q133.373 701.537 133.373 701.875 Q133.35 702.438 132.899 702.438 Q132.764 702.438 132.246 702.281 Q131.705 702.123 130.893 701.83 Q130.059 701.537 129.202 701.018 Q128.323 700.5 127.557 699.868 Q126.79 699.215 126.294 698.29 Q125.798 697.366 125.798 696.329 Q125.798 694.638 126.903 693.601 Q127.985 692.542 129.585 692.542 Q130.465 692.542 132.02 693.15 Q134.049 693.894 134.703 694.165 L139.55 695.968 Q141.308 696.622 141.849 696.825 Q142.368 697.005 142.999 697.163 Q143.608 697.298 144.172 697.298 Q144.961 697.298 145.321 697.05 Q145.682 696.78 145.682 696.194 Q145.682 694.571 144.081 693.376 Q142.458 692.181 139.978 691.482 Q139.911 691.459 139.798 691.437 Q139.234 691.257 139.167 691.076 Q139.144 690.986 139.144 690.806 Q139.144 690.242 139.595 690.242 Z" fill="#000000" fill-rule="nonzero" fill-opacity="1"></path><path clip-path="url(#clip810)" d="M139.595 661.281 Q139.775 661.281 140.474 661.484 Q141.173 661.686 142.255 662.182 Q143.337 662.656 144.329 663.31 Q145.299 663.963 146.02 665.046 Q146.719 666.105 146.719 667.323 Q146.719 668.946 145.637 670.028 Q144.555 671.11 142.932 671.11 Q142.03 671.11 140.79 670.636 Q132.787 667.638 130.036 667.638 Q126.813 667.638 126.813 670.141 Q126.813 671.38 127.286 672.553 Q127.737 673.702 128.368 674.492 Q128.999 675.281 129.879 676.002 Q130.735 676.701 131.321 677.062 Q131.885 677.4 132.449 677.67 L134.748 678.256 Q135.379 678.392 137.837 679.045 L142.007 680.06 Q145.118 680.781 145.411 680.939 Q146.043 681.165 146.381 681.661 Q146.719 682.157 146.719 682.652 Q146.719 683.216 146.381 683.599 Q146.043 683.983 145.457 683.983 Q145.366 683.983 145.028 683.915 Q144.69 683.847 144.217 683.735 Q143.743 683.622 143.473 683.577 L132.809 680.894 Q130.87 680.398 130.262 680.285 Q129.631 680.15 128.932 680.15 Q126.813 680.15 126.813 681.593 Q126.813 682.765 128.21 683.532 Q129.608 684.298 132.313 684.952 Q133.057 685.155 133.215 685.29 Q133.373 685.403 133.373 685.741 Q133.35 686.305 132.899 686.305 Q132.787 686.305 132.043 686.124 Q131.299 685.944 130.239 685.606 Q129.157 685.245 128.436 684.907 Q127.895 684.614 127.647 684.456 Q127.376 684.276 126.858 683.847 Q126.317 683.396 126.069 682.81 Q125.798 682.202 125.798 681.458 Q125.798 679.789 126.88 678.572 Q127.94 677.355 129.811 677.197 Q125.798 674.198 125.798 670.005 Q125.798 667.525 127.106 666.105 Q128.413 664.685 130.735 664.685 Q131.276 664.685 131.975 664.798 Q132.651 664.888 133.508 665.113 Q134.365 665.316 135.019 665.496 Q135.672 665.677 136.732 666.037 Q137.769 666.398 138.22 666.556 Q138.671 666.714 139.73 667.097 Q140.767 667.458 140.88 667.503 Q142.977 668.337 144.172 668.337 Q144.961 668.337 145.321 668.089 Q145.682 667.818 145.682 667.232 Q145.682 665.654 144.126 664.482 Q142.548 663.287 139.978 662.521 Q139.415 662.34 139.279 662.25 Q139.144 662.137 139.144 661.822 Q139.144 661.281 139.595 661.281 Z" fill="#000000" fill-rule="nonzero" fill-opacity="1"></path><path clip-path="url(#clip810)" d="M140.858 640.029 Q141.06 639.849 141.263 639.849 Q141.466 639.849 142.052 640.3 Q142.639 640.728 143.428 641.652 Q144.217 642.577 144.961 643.772 Q145.705 644.966 146.2 646.725 Q146.719 648.483 146.719 650.332 Q146.719 653.646 144.352 655.63 Q141.985 657.591 138.355 657.591 Q136.033 657.591 133.982 656.825 Q131.908 656.058 130.442 654.818 Q128.977 653.556 127.917 651.978 Q126.835 650.377 126.317 648.709 Q125.798 647.04 125.798 645.485 Q125.798 643.208 126.948 641.878 Q128.098 640.548 129.721 640.548 Q130.104 640.548 130.577 640.66 Q131.051 640.751 131.795 641.066 Q132.539 641.359 133.283 642.126 Q134.004 642.892 134.478 644.02 Q135.537 646.522 135.537 651.076 L135.537 653.533 Q138.445 654.255 140.339 654.255 Q141.083 654.255 141.849 654.119 Q142.593 653.984 143.54 653.623 Q144.487 653.24 145.096 652.383 Q145.682 651.504 145.682 650.242 Q145.682 649.836 145.659 649.408 Q145.637 648.957 145.389 647.829 Q145.141 646.68 144.713 645.665 Q144.284 644.651 143.36 643.366 Q142.413 642.058 141.128 641.021 Q140.655 640.66 140.655 640.412 Q140.655 640.21 140.858 640.029 M129.721 642.081 Q128.481 642.081 127.647 643.005 Q126.813 643.907 126.813 645.485 Q126.813 645.981 126.925 646.59 Q127.038 647.198 127.511 648.213 Q127.985 649.205 128.774 650.084 Q129.54 650.963 131.051 651.842 Q132.539 652.722 134.523 653.24 L134.523 651.346 Q134.523 650.693 134.523 650.219 Q134.5 649.746 134.41 648.709 Q134.32 647.649 134.162 646.883 Q133.982 646.116 133.621 645.147 Q133.26 644.177 132.787 643.569 Q132.291 642.937 131.502 642.509 Q130.713 642.081 129.721 642.081 Z" fill="#000000" fill-rule="nonzero" fill-opacity="1"></path><path clip-path="url(#clip810)" d="M128.842 614.306 Q130.104 614.306 130.825 615.095 Q131.524 615.884 131.524 616.786 Q131.524 617.642 131.028 618.093 Q130.532 618.544 129.901 618.544 Q129.044 618.544 128.3 617.913 Q127.557 617.282 127.399 616.335 Q126.813 617.259 126.813 618.634 Q126.813 619.536 127.286 620.325 Q127.759 621.092 128.368 621.565 Q128.977 622.016 129.856 622.422 Q130.713 622.805 131.231 622.963 Q131.727 623.098 132.268 623.211 L138.581 624.789 Q141.579 625.555 142.639 625.555 Q143.946 625.555 144.825 624.924 Q145.682 624.293 145.682 623.03 Q145.682 622.534 145.547 621.971 Q145.389 621.407 144.983 620.686 Q144.555 619.942 143.924 619.288 Q143.27 618.612 142.165 617.958 Q141.06 617.304 139.64 616.876 Q139.144 616.741 139.144 616.29 Q139.144 615.726 139.595 615.726 Q139.978 615.726 140.79 616.042 Q141.579 616.335 142.616 616.989 Q143.63 617.62 144.555 618.454 Q145.457 619.288 146.088 620.528 Q146.719 621.768 146.719 623.121 Q146.719 625.059 145.682 626.344 Q144.645 627.629 143.202 628.103 Q143.405 628.215 143.676 628.373 Q143.946 628.531 144.555 629.005 Q145.141 629.455 145.592 629.974 Q146.02 630.492 146.358 631.304 Q146.719 632.093 146.719 632.95 Q146.719 634.032 146.403 635.001 Q146.088 635.948 145.366 636.624 Q144.645 637.301 143.653 637.301 Q142.548 637.301 141.782 636.557 Q140.993 635.79 140.993 634.753 Q140.993 634.1 141.376 633.581 Q141.759 633.04 142.593 633.04 Q143.518 633.04 144.217 633.671 Q144.915 634.302 145.096 635.204 Q145.682 634.28 145.682 632.905 Q145.682 631.417 144.374 630.244 Q143.067 629.072 140.88 628.509 Q135.627 627.111 133.283 626.57 Q130.916 626.029 129.901 626.029 Q128.954 626.029 128.3 626.277 Q127.647 626.525 127.354 626.953 Q127.038 627.359 126.925 627.742 Q126.813 628.103 126.813 628.509 Q126.813 629.185 127.083 629.951 Q127.354 630.695 127.985 631.597 Q128.594 632.476 129.856 633.31 Q131.118 634.145 132.854 634.708 Q133.373 634.821 133.373 635.317 Q133.35 635.858 132.899 635.858 Q132.516 635.858 131.727 635.565 Q130.916 635.249 129.901 634.618 Q128.887 633.964 127.985 633.13 Q127.061 632.273 126.429 631.034 Q125.798 629.771 125.798 628.418 Q125.798 627.81 125.933 627.224 Q126.046 626.615 126.384 625.893 Q126.722 625.149 127.466 624.496 Q128.21 623.842 129.292 623.436 Q128.774 623.166 128.278 622.805 Q127.782 622.422 127.173 621.836 Q126.542 621.227 126.181 620.393 Q125.798 619.536 125.798 618.589 Q125.798 617.665 126.046 616.763 Q126.271 615.861 127.015 615.095 Q127.737 614.306 128.842 614.306 Z" fill="#000000" fill-rule="nonzero" fill-opacity="1"></path><path clip-path="url(#clip810)" d="M139.595 589.91 Q142.503 590.519 144.172 591.308 Q146.719 592.57 146.719 594.712 Q146.719 596.335 145.727 597.485 Q144.735 598.634 143.247 598.905 Q146.719 601.858 146.719 604.924 Q146.719 607.63 144.667 609.343 Q142.593 611.056 139.325 611.056 Q136.033 611.056 132.877 609.433 Q129.721 607.787 127.759 605.195 Q125.798 602.602 125.798 599.942 Q125.798 597.124 128.751 595.681 Q127.94 595.568 127.331 595.05 Q126.722 594.531 126.722 593.742 Q126.722 593.134 127.061 592.773 Q127.376 592.412 127.962 592.412 Q128.255 592.412 129.54 592.728 L135.988 594.396 L140.159 595.411 Q141.692 595.794 142.255 595.907 Q142.819 595.997 143.563 595.997 Q145.682 595.997 145.682 594.622 Q145.682 593.945 145.254 593.404 Q144.825 592.863 143.924 592.435 Q143.022 592.007 142.188 591.736 Q141.331 591.465 139.978 591.105 Q139.437 590.992 139.302 590.902 Q139.144 590.789 139.144 590.474 Q139.144 589.91 139.595 589.91 M130.87 596.245 Q130.668 596.245 130.104 596.403 Q129.54 596.56 128.751 596.921 Q127.962 597.282 127.399 598.071 Q126.813 598.837 126.813 599.874 Q126.813 601.272 128.007 602.738 Q129.202 604.18 131.231 605.24 Q132.854 606.051 136.259 606.931 Q139.663 607.787 141.353 607.787 Q142.391 607.787 143.315 607.562 Q144.217 607.314 144.961 606.615 Q145.682 605.916 145.682 604.834 Q145.682 602.196 142.413 599.604 Q141.849 599.108 141.624 598.995 Q141.376 598.86 140.7 598.68 L131.66 596.38 Q130.983 596.245 130.87 596.245 Z" fill="#000000" fill-rule="nonzero" fill-opacity="1"></path><path clip-path="url(#clip810)" d="M140.858 569.087 Q141.06 568.906 141.263 568.906 Q141.466 568.906 142.052 569.357 Q142.639 569.786 143.428 570.71 Q144.217 571.634 144.961 572.829 Q145.705 574.024 146.2 575.782 Q146.719 577.541 146.719 579.389 Q146.719 582.839 144.442 584.868 Q142.165 586.874 138.896 586.874 Q135.717 586.874 132.674 585.093 Q129.608 583.312 127.714 580.426 Q125.798 577.541 125.798 574.497 Q125.798 572.085 126.925 570.575 Q128.052 569.064 129.766 569.064 Q131.096 569.064 131.908 569.831 Q132.719 570.597 132.719 571.634 Q132.719 572.356 132.313 572.852 Q131.885 573.348 131.096 573.348 Q130.081 573.348 129.292 572.513 Q128.977 572.198 128.842 571.837 Q128.684 571.454 128.684 571.228 Q128.661 571.003 128.661 570.484 Q127.782 570.958 127.309 572.085 Q126.813 573.19 126.813 574.452 Q126.813 576.323 128.12 578.104 Q129.405 579.885 131.434 580.967 Q133.418 582.05 136.236 582.748 Q139.031 583.447 140.655 583.447 Q142.886 583.447 144.284 582.41 Q145.682 581.373 145.682 579.299 Q145.682 578.893 145.659 578.465 Q145.637 578.014 145.389 576.887 Q145.141 575.737 144.713 574.723 Q144.284 573.708 143.36 572.423 Q142.413 571.116 141.128 570.079 Q140.655 569.718 140.655 569.47 Q140.655 569.267 140.858 569.087 Z" fill="#000000" fill-rule="nonzero" fill-opacity="1"></path><path clip-path="url(#clip810)" d="M126.813 554.019 Q127.444 554.019 127.602 554.312 Q127.737 554.605 127.737 555.417 L127.737 559.745 L141.353 563.172 Q142.548 563.443 143.563 563.443 Q144.69 563.443 145.186 563.104 Q145.682 562.744 145.682 562 Q145.682 560.534 144.352 558.956 Q143.022 557.356 139.775 556.003 Q139.347 555.823 139.257 555.732 Q139.144 555.62 139.144 555.327 Q139.144 554.763 139.595 554.763 Q139.753 554.763 140.474 555.079 Q141.196 555.372 142.255 556.026 Q143.315 556.657 144.307 557.491 Q145.299 558.303 146.02 559.542 Q146.719 560.782 146.719 562.112 Q146.719 563.984 145.524 565.178 Q144.329 566.351 142.458 566.351 Q141.849 566.351 139.911 565.877 Q137.949 565.404 127.737 562.834 L127.737 566.914 Q127.737 567.478 127.714 567.703 Q127.692 567.906 127.579 568.064 Q127.444 568.199 127.173 568.199 Q126.745 568.199 126.565 568.019 Q126.362 567.839 126.339 567.613 Q126.294 567.365 126.294 566.802 L126.294 562.473 L118.967 560.67 Q118.246 560.489 117.84 560.038 Q117.412 559.565 117.367 559.294 Q117.299 559.024 117.299 558.821 Q117.299 558.212 117.637 557.852 Q117.953 557.491 118.539 557.491 Q118.854 557.491 126.294 559.385 L126.294 555.327 Q126.294 554.808 126.317 554.605 Q126.339 554.38 126.452 554.199 Q126.565 554.019 126.813 554.019 Z" fill="#000000" fill-rule="nonzero" fill-opacity="1"></path><path clip-path="url(#clip810)" d="M658.137 12.096 L670.331 12.096 L685.765 53.2532 L701.28 12.096 L713.473 12.096 L713.473 72.576 L705.492 72.576 L705.492 19.4686 L689.896 60.9499 L681.673 60.9499 L666.077 19.4686 L666.077 72.576 L658.137 72.576 L658.137 12.096 Z" fill="#000000" fill-rule="nonzero" fill-opacity="1"></path><path clip-path="url(#clip810)" d="M750.012 49.7694 Q740.978 49.7694 737.495 51.8354 Q734.011 53.9013 734.011 58.8839 Q734.011 62.8538 736.603 65.2034 Q739.236 67.5124 743.733 67.5124 Q749.931 67.5124 753.658 63.1374 Q757.425 58.7219 757.425 51.4303 L757.425 49.7694 L750.012 49.7694 M764.879 46.6907 L764.879 72.576 L757.425 72.576 L757.425 65.6895 Q754.873 69.8214 751.065 71.8063 Q747.257 73.7508 741.748 73.7508 Q734.78 73.7508 730.649 69.8619 Q726.557 65.9325 726.557 59.3701 Q726.557 51.7138 731.661 47.825 Q736.806 43.9361 746.974 43.9361 L757.425 43.9361 L757.425 43.2069 Q757.425 38.0623 754.022 35.2672 Q750.66 32.4315 744.543 32.4315 Q740.654 32.4315 736.968 33.3632 Q733.282 34.295 729.879 36.1584 L729.879 29.2718 Q733.97 27.692 737.819 26.9223 Q741.667 26.1121 745.313 26.1121 Q755.157 26.1121 760.018 31.2163 Q764.879 36.3204 764.879 46.6907 Z" fill="#000000" fill-rule="nonzero" fill-opacity="1"></path><path clip-path="url(#clip810)" d="M787.604 14.324 L787.604 27.2059 L802.957 27.2059 L802.957 32.9987 L787.604 32.9987 L787.604 57.6282 Q787.604 63.1779 789.103 64.7578 Q790.642 66.3376 795.301 66.3376 L802.957 66.3376 L802.957 72.576 L795.301 72.576 Q786.673 72.576 783.391 69.3758 Q780.11 66.1351 780.11 57.6282 L780.11 32.9987 L774.641 32.9987 L774.641 27.2059 L780.11 27.2059 L780.11 14.324 L787.604 14.324 Z" fill="#000000" fill-rule="nonzero" fill-opacity="1"></path><path clip-path="url(#clip810)" d="M839.051 34.1734 Q837.795 33.4443 836.296 33.1202 Q834.838 32.7556 833.055 32.7556 Q826.736 32.7556 823.333 36.8875 Q819.971 40.9789 819.971 48.6757 L819.971 72.576 L812.477 72.576 L812.477 27.2059 L819.971 27.2059 L819.971 34.2544 Q822.321 30.1225 826.088 28.1376 Q829.855 26.1121 835.243 26.1121 Q836.013 26.1121 836.944 26.2337 Q837.876 26.3147 839.01 26.5172 L839.051 34.1734 Z" fill="#000000" fill-rule="nonzero" fill-opacity="1"></path><path clip-path="url(#clip810)" d="M846.869 27.2059 L854.323 27.2059 L854.323 72.576 L846.869 72.576 L846.869 27.2059 M846.869 9.54393 L854.323 9.54393 L854.323 18.9825 L846.869 18.9825 L846.869 9.54393 Z" fill="#000000" fill-rule="nonzero" fill-opacity="1"></path><path clip-path="url(#clip810)" d="M907.633 27.2059 L891.226 49.2833 L908.483 72.576 L899.693 72.576 L886.487 54.752 L873.281 72.576 L864.49 72.576 L882.112 48.8377 L865.989 27.2059 L874.78 27.2059 L886.811 43.369 L898.842 27.2059 L907.633 27.2059 Z" fill="#000000" fill-rule="nonzero" fill-opacity="1"></path><path clip-path="url(#clip810)" d="M915.248 46.5287 L937.083 46.5287 L937.083 53.1722 L915.248 53.1722 L915.248 46.5287 Z" fill="#000000" fill-rule="nonzero" fill-opacity="1"></path><path clip-path="url(#clip810)" d="M941.377 27.2059 L949.276 27.2059 L963.454 65.2844 L977.632 27.2059 L985.531 27.2059 L968.518 72.576 L958.39 72.576 L941.377 27.2059 Z" fill="#000000" fill-rule="nonzero" fill-opacity="1"></path><path clip-path="url(#clip810)" d="M1034.63 48.0275 L1034.63 51.6733 L1000.36 51.6733 Q1000.84 59.3701 1004.98 63.421 Q1009.15 67.4314 1016.56 67.4314 Q1020.86 67.4314 1024.87 66.3781 Q1028.92 65.3249 1032.89 63.2184 L1032.89 70.267 Q1028.88 71.9684 1024.66 72.8596 Q1020.45 73.7508 1016.12 73.7508 Q1005.26 73.7508 998.899 67.4314 Q992.58 61.1119 992.58 50.3365 Q992.58 39.1965 998.575 32.6746 Q1004.61 26.1121 1014.82 26.1121 Q1023.97 26.1121 1029.28 32.0264 Q1034.63 37.9003 1034.63 48.0275 M1027.17 45.84 Q1027.09 39.7232 1023.73 36.0774 Q1020.41 32.4315 1014.9 32.4315 Q1008.66 32.4315 1004.89 35.9558 Q1001.17 39.4801 1000.6 45.8805 L1027.17 45.84 Z" fill="#000000" fill-rule="nonzero" fill-opacity="1"></path><path clip-path="url(#clip810)" d="M1079.51 28.9478 L1079.51 35.9153 Q1076.35 34.1734 1073.15 33.3227 Q1069.99 32.4315 1066.75 32.4315 Q1059.5 32.4315 1055.49 37.0496 Q1051.48 41.6271 1051.48 49.9314 Q1051.48 58.2358 1055.49 62.8538 Q1059.5 67.4314 1066.75 67.4314 Q1069.99 67.4314 1073.15 66.5807 Q1076.35 65.6895 1079.51 63.9476 L1079.51 70.8341 Q1076.39 72.2924 1073.03 73.0216 Q1069.71 73.7508 1065.94 73.7508 Q1055.69 73.7508 1049.66 67.3098 Q1043.62 60.8689 1043.62 49.9314 Q1043.62 38.832 1049.7 32.472 Q1055.81 26.1121 1066.43 26.1121 Q1069.87 26.1121 1073.15 26.8413 Q1076.43 27.5299 1079.51 28.9478 Z" fill="#000000" fill-rule="nonzero" fill-opacity="1"></path><path clip-path="url(#clip810)" d="M1099.85 14.324 L1099.85 27.2059 L1115.2 27.2059 L1115.2 32.9987 L1099.85 32.9987 L1099.85 57.6282 Q1099.85 63.1779 1101.35 64.7578 Q1102.89 66.3376 1107.54 66.3376 L1115.2 66.3376 L1115.2 72.576 L1107.54 72.576 Q1098.92 72.576 1095.64 69.3758 Q1092.35 66.1351 1092.35 57.6282 L1092.35 32.9987 L1086.89 32.9987 L1086.89 27.2059 L1092.35 27.2059 L1092.35 14.324 L1099.85 14.324 Z" fill="#000000" fill-rule="nonzero" fill-opacity="1"></path><path clip-path="url(#clip810)" d="M1142.59 32.4315 Q1136.59 32.4315 1133.11 37.1306 Q1129.62 41.7891 1129.62 49.9314 Q1129.62 58.0738 1133.07 62.7728 Q1136.55 67.4314 1142.59 67.4314 Q1148.54 67.4314 1152.02 62.7323 Q1155.51 58.0333 1155.51 49.9314 Q1155.51 41.8701 1152.02 37.1711 Q1148.54 32.4315 1142.59 32.4315 M1142.59 26.1121 Q1152.31 26.1121 1157.86 32.4315 Q1163.41 38.7509 1163.41 49.9314 Q1163.41 61.0714 1157.86 67.4314 Q1152.31 73.7508 1142.59 73.7508 Q1132.82 73.7508 1127.27 67.4314 Q1121.76 61.0714 1121.76 49.9314 Q1121.76 38.7509 1127.27 32.4315 Q1132.82 26.1121 1142.59 26.1121 Z" fill="#000000" fill-rule="nonzero" fill-opacity="1"></path><path clip-path="url(#clip810)" d="M1202.05 34.1734 Q1200.8 33.4443 1199.3 33.1202 Q1197.84 32.7556 1196.06 32.7556 Q1189.74 32.7556 1186.33 36.8875 Q1182.97 40.9789 1182.97 48.6757 L1182.97 72.576 L1175.48 72.576 L1175.48 27.2059 L1182.97 27.2059 L1182.97 34.2544 Q1185.32 30.1225 1189.09 28.1376 Q1192.86 26.1121 1198.24 26.1121 Q1199.01 26.1121 1199.95 26.2337 Q1200.88 26.3147 1202.01 26.5172 L1202.05 34.1734 Z" fill="#000000" fill-rule="nonzero" fill-opacity="1"></path><path clip-path="url(#clip810)" d="M1243.45 65.7705 L1243.45 89.8329 L1235.96 89.8329 L1235.96 27.2059 L1243.45 27.2059 L1243.45 34.0924 Q1245.8 30.0415 1249.37 28.0971 Q1252.97 26.1121 1257.95 26.1121 Q1266.22 26.1121 1271.36 32.6746 Q1276.55 39.2371 1276.55 49.9314 Q1276.55 60.6258 1271.36 67.1883 Q1266.22 73.7508 1257.95 73.7508 Q1252.97 73.7508 1249.37 71.8063 Q1245.8 69.8214 1243.45 65.7705 M1268.81 49.9314 Q1268.81 41.7081 1265.41 37.0496 Q1262.05 32.3505 1256.13 32.3505 Q1250.22 32.3505 1246.81 37.0496 Q1243.45 41.7081 1243.45 49.9314 Q1243.45 58.1548 1246.81 62.8538 Q1250.22 67.5124 1256.13 67.5124 Q1262.05 67.5124 1265.41 62.8538 Q1268.81 58.1548 1268.81 49.9314 Z" fill="#000000" fill-rule="nonzero" fill-opacity="1"></path><path clip-path="url(#clip810)" d="M1315.19 34.1734 Q1313.94 33.4443 1312.44 33.1202 Q1310.98 32.7556 1309.2 32.7556 Q1302.88 32.7556 1299.48 36.8875 Q1296.11 40.9789 1296.11 48.6757 L1296.11 72.576 L1288.62 72.576 L1288.62 27.2059 L1296.11 27.2059 L1296.11 34.2544 Q1298.46 30.1225 1302.23 28.1376 Q1306 26.1121 1311.39 26.1121 Q1312.16 26.1121 1313.09 26.2337 Q1314.02 26.3147 1315.15 26.5172 L1315.19 34.1734 Z" fill="#000000" fill-rule="nonzero" fill-opacity="1"></path><path clip-path="url(#clip810)" d="M1338.77 32.4315 Q1332.77 32.4315 1329.29 37.1306 Q1325.81 41.7891 1325.81 49.9314 Q1325.81 58.0738 1329.25 62.7728 Q1332.73 67.4314 1338.77 67.4314 Q1344.73 67.4314 1348.21 62.7323 Q1351.69 58.0333 1351.69 49.9314 Q1351.69 41.8701 1348.21 37.1711 Q1344.73 32.4315 1338.77 32.4315 M1338.77 26.1121 Q1348.49 26.1121 1354.04 32.4315 Q1359.59 38.7509 1359.59 49.9314 Q1359.59 61.0714 1354.04 67.4314 Q1348.49 73.7508 1338.77 73.7508 Q1329.01 73.7508 1323.46 67.4314 Q1317.95 61.0714 1317.95 49.9314 Q1317.95 38.7509 1323.46 32.4315 Q1329.01 26.1121 1338.77 26.1121 Z" fill="#000000" fill-rule="nonzero" fill-opacity="1"></path><path clip-path="url(#clip810)" d="M1401.8 34.0924 L1401.8 9.54393 L1409.26 9.54393 L1409.26 72.576 L1401.8 72.576 L1401.8 65.7705 Q1399.45 69.8214 1395.85 71.8063 Q1392.28 73.7508 1387.26 73.7508 Q1379.04 73.7508 1373.85 67.1883 Q1368.71 60.6258 1368.71 49.9314 Q1368.71 39.2371 1373.85 32.6746 Q1379.04 26.1121 1387.26 26.1121 Q1392.28 26.1121 1395.85 28.0971 Q1399.45 30.0415 1401.8 34.0924 M1376.4 49.9314 Q1376.4 58.1548 1379.77 62.8538 Q1383.17 67.5124 1389.08 67.5124 Q1395 67.5124 1398.4 62.8538 Q1401.8 58.1548 1401.8 49.9314 Q1401.8 41.7081 1398.4 37.0496 Q1395 32.3505 1389.08 32.3505 Q1383.17 32.3505 1379.77 37.0496 Q1376.4 41.7081 1376.4 49.9314 Z" fill="#000000" fill-rule="nonzero" fill-opacity="1"></path><path clip-path="url(#clip810)" d="M1423.84 54.671 L1423.84 27.2059 L1431.29 27.2059 L1431.29 54.3874 Q1431.29 60.8284 1433.8 64.0691 Q1436.32 67.2693 1441.34 67.2693 Q1447.38 67.2693 1450.86 63.421 Q1454.38 59.5726 1454.38 52.9291 L1454.38 27.2059 L1461.84 27.2059 L1461.84 72.576 L1454.38 72.576 L1454.38 65.6084 Q1451.67 69.7404 1448.06 71.7658 Q1444.5 73.7508 1439.76 73.7508 Q1431.94 73.7508 1427.89 68.8897 Q1423.84 64.0286 1423.84 54.671 M1442.59 26.1121 L1442.59 26.1121 Z" fill="#000000" fill-rule="nonzero" fill-opacity="1"></path><path clip-path="url(#clip810)" d="M1509.84 28.9478 L1509.84 35.9153 Q1506.68 34.1734 1503.48 33.3227 Q1500.32 32.4315 1497.08 32.4315 Q1489.83 32.4315 1485.82 37.0496 Q1481.81 41.6271 1481.81 49.9314 Q1481.81 58.2358 1485.82 62.8538 Q1489.83 67.4314 1497.08 67.4314 Q1500.32 67.4314 1503.48 66.5807 Q1506.68 65.6895 1509.84 63.9476 L1509.84 70.8341 Q1506.72 72.2924 1503.36 73.0216 Q1500.04 73.7508 1496.27 73.7508 Q1486.02 73.7508 1479.98 67.3098 Q1473.95 60.8689 1473.95 49.9314 Q1473.95 38.832 1480.03 32.472 Q1486.14 26.1121 1496.76 26.1121 Q1500.2 26.1121 1503.48 26.8413 Q1506.76 27.5299 1509.84 28.9478 Z" fill="#000000" fill-rule="nonzero" fill-opacity="1"></path><path clip-path="url(#clip810)" d="M1530.18 14.324 L1530.18 27.2059 L1545.53 27.2059 L1545.53 32.9987 L1530.18 32.9987 L1530.18 57.6282 Q1530.18 63.1779 1531.67 64.7578 Q1533.21 66.3376 1537.87 66.3376 L1545.53 66.3376 L1545.53 72.576 L1537.87 72.576 Q1529.24 72.576 1525.96 69.3758 Q1522.68 66.1351 1522.68 57.6282 L1522.68 32.9987 L1517.21 32.9987 L1517.21 27.2059 L1522.68 27.2059 L1522.68 14.324 L1530.18 14.324 Z" fill="#000000" fill-rule="nonzero" fill-opacity="1"></path><path clip-path="url(#clip810)" d="M1618.28 14.0809 L1618.28 22.0612 Q1613.62 19.8332 1609.49 18.7395 Q1605.36 17.6457 1601.51 17.6457 Q1594.83 17.6457 1591.18 20.2383 Q1587.58 22.8309 1587.58 27.611 Q1587.58 31.6214 1589.97 33.6873 Q1592.4 35.7128 1599.12 36.9686 L1604.06 37.9813 Q1613.22 39.7232 1617.55 44.1387 Q1621.93 48.5136 1621.93 55.8863 Q1621.93 64.6767 1616.01 69.2137 Q1610.14 73.7508 1598.76 73.7508 Q1594.46 73.7508 1589.6 72.7785 Q1584.78 71.8063 1579.6 69.9024 L1579.6 61.4765 Q1584.58 64.2716 1589.36 65.6895 Q1594.14 67.1073 1598.76 67.1073 Q1605.77 67.1073 1609.57 64.3527 Q1613.38 61.598 1613.38 56.4939 Q1613.38 52.0379 1610.63 49.5264 Q1607.91 47.0148 1601.67 45.759 L1596.69 44.7868 Q1587.54 42.9639 1583.44 39.075 Q1579.35 35.1862 1579.35 28.2591 Q1579.35 20.2383 1584.98 15.6203 Q1590.66 11.0023 1600.58 11.0023 Q1604.83 11.0023 1609.25 11.7719 Q1613.66 12.5416 1618.28 14.0809 Z" fill="#000000" fill-rule="nonzero" fill-opacity="1"></path><path clip-path="url(#clip810)" d="M1641.58 65.7705 L1641.58 89.8329 L1634.08 89.8329 L1634.08 27.2059 L1641.58 27.2059 L1641.58 34.0924 Q1643.92 30.0415 1647.49 28.0971 Q1651.1 26.1121 1656.08 26.1121 Q1664.34 26.1121 1669.49 32.6746 Q1674.67 39.2371 1674.67 49.9314 Q1674.67 60.6258 1669.49 67.1883 Q1664.34 73.7508 1656.08 73.7508 Q1651.1 73.7508 1647.49 71.8063 Q1643.92 69.8214 1641.58 65.7705 M1666.93 49.9314 Q1666.93 41.7081 1663.53 37.0496 Q1660.17 32.3505 1654.25 32.3505 Q1648.34 32.3505 1644.94 37.0496 Q1641.58 41.7081 1641.58 49.9314 Q1641.58 58.1548 1644.94 62.8538 Q1648.34 67.5124 1654.25 67.5124 Q1660.17 67.5124 1663.53 62.8538 Q1666.93 58.1548 1666.93 49.9314 Z" fill="#000000" fill-rule="nonzero" fill-opacity="1"></path><path clip-path="url(#clip810)" d="M1725.83 48.0275 L1725.83 51.6733 L1691.56 51.6733 Q1692.05 59.3701 1696.18 63.421 Q1700.35 67.4314 1707.77 67.4314 Q1712.06 67.4314 1716.07 66.3781 Q1720.12 65.3249 1724.09 63.2184 L1724.09 70.267 Q1720.08 71.9684 1715.87 72.8596 Q1711.66 73.7508 1707.32 73.7508 Q1696.47 73.7508 1690.11 67.4314 Q1683.79 61.1119 1683.79 50.3365 Q1683.79 39.1965 1689.78 32.6746 Q1695.82 26.1121 1706.03 26.1121 Q1715.18 26.1121 1720.49 32.0264 Q1725.83 37.9003 1725.83 48.0275 M1718.38 45.84 Q1718.3 39.7232 1714.94 36.0774 Q1711.62 32.4315 1706.11 32.4315 Q1699.87 32.4315 1696.1 35.9558 Q1692.37 39.4801 1691.81 45.8805 L1718.38 45.84 Z" fill="#000000" fill-rule="nonzero" fill-opacity="1"></path><path clip-path="url(#clip810)" d="M1776.88 48.0275 L1776.88 51.6733 L1742.6 51.6733 Q1743.09 59.3701 1747.22 63.421 Q1751.4 67.4314 1758.81 67.4314 Q1763.1 67.4314 1767.11 66.3781 Q1771.16 65.3249 1775.13 63.2184 L1775.13 70.267 Q1771.12 71.9684 1766.91 72.8596 Q1762.7 73.7508 1758.36 73.7508 Q1747.51 73.7508 1741.15 67.4314 Q1734.83 61.1119 1734.83 50.3365 Q1734.83 39.1965 1740.82 32.6746 Q1746.86 26.1121 1757.07 26.1121 Q1766.22 26.1121 1771.53 32.0264 Q1776.88 37.9003 1776.88 48.0275 M1769.42 45.84 Q1769.34 39.7232 1765.98 36.0774 Q1762.66 32.4315 1757.15 32.4315 Q1750.91 32.4315 1747.14 35.9558 Q1743.42 39.4801 1742.85 45.8805 L1769.42 45.84 Z" fill="#000000" fill-rule="nonzero" fill-opacity="1"></path><path clip-path="url(#clip810)" d="M1818.96 34.0924 L1818.96 9.54393 L1826.42 9.54393 L1826.42 72.576 L1818.96 72.576 L1818.96 65.7705 Q1816.61 69.8214 1813.01 71.8063 Q1809.44 73.7508 1804.42 73.7508 Q1796.2 73.7508 1791.01 67.1883 Q1785.87 60.6258 1785.87 49.9314 Q1785.87 39.2371 1791.01 32.6746 Q1796.2 26.1121 1804.42 26.1121 Q1809.44 26.1121 1813.01 28.0971 Q1816.61 30.0415 1818.96 34.0924 M1793.57 49.9314 Q1793.57 58.1548 1796.93 62.8538 Q1800.33 67.5124 1806.24 67.5124 Q1812.16 67.5124 1815.56 62.8538 Q1818.96 58.1548 1818.96 49.9314 Q1818.96 41.7081 1815.56 37.0496 Q1812.16 32.3505 1806.24 32.3505 Q1800.33 32.3505 1796.93 37.0496 Q1793.57 41.7081 1793.57 49.9314 Z" fill="#000000" fill-rule="nonzero" fill-opacity="1"></path><path clip-path="url(#clip810)" d="M1838 46.5287 L1859.84 46.5287 L1859.84 53.1722 L1838 53.1722 L1838 46.5287 Z" fill="#000000" fill-rule="nonzero" fill-opacity="1"></path><path clip-path="url(#clip810)" d="M1870.94 54.671 L1870.94 27.2059 L1878.39 27.2059 L1878.39 54.3874 Q1878.39 60.8284 1880.9 64.0691 Q1883.41 67.2693 1888.44 67.2693 Q1894.47 67.2693 1897.96 63.421 Q1901.48 59.5726 1901.48 52.9291 L1901.48 27.2059 L1908.94 27.2059 L1908.94 72.576 L1901.48 72.576 L1901.48 65.6084 Q1898.77 69.7404 1895.16 71.7658 Q1891.6 73.7508 1886.86 73.7508 Q1879.04 73.7508 1874.99 68.8897 Q1870.94 64.0286 1870.94 54.671 M1889.69 26.1121 L1889.69 26.1121 Z" fill="#000000" fill-rule="nonzero" fill-opacity="1"></path><path clip-path="url(#clip810)" d="M1931.5 65.7705 L1931.5 89.8329 L1924 89.8329 L1924 27.2059 L1931.5 27.2059 L1931.5 34.0924 Q1933.85 30.0415 1937.41 28.0971 Q1941.02 26.1121 1946 26.1121 Q1954.26 26.1121 1959.41 32.6746 Q1964.59 39.2371 1964.59 49.9314 Q1964.59 60.6258 1959.41 67.1883 Q1954.26 73.7508 1946 73.7508 Q1941.02 73.7508 1937.41 71.8063 Q1933.85 69.8214 1931.5 65.7705 M1956.86 49.9314 Q1956.86 41.7081 1953.45 37.0496 Q1950.09 32.3505 1944.18 32.3505 Q1938.26 32.3505 1934.86 37.0496 Q1931.5 41.7081 1931.5 49.9314 Q1931.5 58.1548 1934.86 62.8538 Q1938.26 67.5124 1944.18 67.5124 Q1950.09 67.5124 1953.45 62.8538 Q1956.86 58.1548 1956.86 49.9314 Z" fill="#000000" fill-rule="nonzero" fill-opacity="1"></path><circle clip-path="url(#clip812)" cx="328.923" cy="1386.4" r="14.4" fill="#009af9" fill-rule="evenodd" fill-opacity="1" stroke="#000000" stroke-opacity="1" stroke-width="3.2"></circle>
<circle clip-path="url(#clip812)" cx="887.722" cy="1025.97" r="14.4" fill="#009af9" fill-rule="evenodd" fill-opacity="1" stroke="#000000" stroke-opacity="1" stroke-width="3.2"></circle>
<circle clip-path="url(#clip812)" cx="1310.69" cy="781.33" r="14.4" fill="#009af9" fill-rule="evenodd" fill-opacity="1" stroke="#000000" stroke-opacity="1" stroke-width="3.2"></circle>
<circle clip-path="url(#clip812)" cx="1734.14" cy="704.6" r="14.4" fill="#009af9" fill-rule="evenodd" fill-opacity="1" stroke="#000000" stroke-opacity="1" stroke-width="3.2"></circle>
<circle clip-path="url(#clip812)" cx="2293.81" cy="424.119" r="14.4" fill="#009af9" fill-rule="evenodd" fill-opacity="1" stroke="#000000" stroke-opacity="1" stroke-width="3.2"></circle>
<path clip-path="url(#clip812)" d="M312.923 868.512 L312.923 900.512 L344.923 900.512 L344.923 868.512 L312.923 868.512 Z" fill="#e26f46" fill-rule="evenodd" fill-opacity="1" stroke="#000000" stroke-opacity="1" stroke-width="3.2"></path>
<path clip-path="url(#clip812)" d="M871.722 470.752 L871.722 502.752 L903.722 502.752 L903.722 470.752 L871.722 470.752 Z" fill="#e26f46" fill-rule="evenodd" fill-opacity="1" stroke="#000000" stroke-opacity="1" stroke-width="3.2"></path>
<path clip-path="url(#clip812)" d="M1294.69 320.829 L1294.69 352.829 L1326.69 352.829 L1326.69 320.829 L1294.69 320.829 Z" fill="#e26f46" fill-rule="evenodd" fill-opacity="1" stroke="#000000" stroke-opacity="1" stroke-width="3.2"></path>
<path clip-path="url(#clip812)" d="M1718.14 278.601 L1718.14 310.601 L1750.14 310.601 L1750.14 278.601 L1718.14 278.601 Z" fill="#e26f46" fill-rule="evenodd" fill-opacity="1" stroke="#000000" stroke-opacity="1" stroke-width="3.2"></path>
<path clip-path="url(#clip812)" d="M2277.81 144.256 L2277.81 176.256 L2309.81 176.256 L2309.81 144.256 L2277.81 144.256 Z" fill="#e26f46" fill-rule="evenodd" fill-opacity="1" stroke="#000000" stroke-opacity="1" stroke-width="3.2"></path>
<path clip-path="url(#clip810)" d="M1694.17 1379.86 L2283.33 1379.86 L2283.33 1224.34 L1694.17 1224.34  Z" fill="#ffffff" fill-rule="evenodd" fill-opacity="1"></path>
<polyline clip-path="url(#clip810)" style="stroke:#000000; stroke-linecap:round; stroke-linejoin:round; stroke-width:4; stroke-opacity:1; fill:none" points="1694.17,1379.86 2283.33,1379.86 2283.33,1224.34 1694.17,1224.34 1694.17,1379.86 "></polyline>
<circle clip-path="url(#clip810)" cx="1786.74" cy="1276.18" r="20.48" fill="#009af9" fill-rule="evenodd" fill-opacity="1" stroke="#000000" stroke-opacity="1" stroke-width="4.55111"></circle>
<path clip-path="url(#clip810)" d="M1879.31 1258.9 L1883.99 1258.9 L1883.99 1289.52 L1900.81 1289.52 L1900.81 1293.46 L1879.31 1293.46 L1879.31 1258.9 Z" fill="#000000" fill-rule="nonzero" fill-opacity="1"></path><path clip-path="url(#clip810)" d="M1917.32 1280.42 Q1912.16 1280.42 1910.17 1281.6 Q1908.18 1282.79 1908.18 1285.63 Q1908.18 1287.9 1909.66 1289.24 Q1911.16 1290.56 1913.73 1290.56 Q1917.27 1290.56 1919.4 1288.06 Q1921.56 1285.54 1921.56 1281.37 L1921.56 1280.42 L1917.32 1280.42 M1925.81 1278.66 L1925.81 1293.46 L1921.56 1293.46 L1921.56 1289.52 Q1920.1 1291.88 1917.92 1293.02 Q1915.75 1294.13 1912.6 1294.13 Q1908.62 1294.13 1906.25 1291.91 Q1903.92 1289.66 1903.92 1285.91 Q1903.92 1281.54 1906.83 1279.31 Q1909.77 1277.09 1915.58 1277.09 L1921.56 1277.09 L1921.56 1276.67 Q1921.56 1273.73 1919.61 1272.14 Q1917.69 1270.52 1914.19 1270.52 Q1911.97 1270.52 1909.87 1271.05 Q1907.76 1271.58 1905.81 1272.65 L1905.81 1268.71 Q1908.15 1267.81 1910.35 1267.37 Q1912.55 1266.91 1914.63 1266.91 Q1920.26 1266.91 1923.04 1269.82 Q1925.81 1272.74 1925.81 1278.66 Z" fill="#000000" fill-rule="nonzero" fill-opacity="1"></path><path clip-path="url(#clip810)" d="M1938.71 1289.57 L1938.71 1303.32 L1934.43 1303.32 L1934.43 1267.53 L1938.71 1267.53 L1938.71 1271.47 Q1940.05 1269.15 1942.09 1268.04 Q1944.15 1266.91 1947 1266.91 Q1951.72 1266.91 1954.66 1270.66 Q1957.62 1274.41 1957.62 1280.52 Q1957.62 1286.63 1954.66 1290.38 Q1951.72 1294.13 1947 1294.13 Q1944.15 1294.13 1942.09 1293.02 Q1940.05 1291.88 1938.71 1289.57 M1953.2 1280.52 Q1953.2 1275.82 1951.25 1273.16 Q1949.33 1270.47 1945.95 1270.47 Q1942.57 1270.47 1940.63 1273.16 Q1938.71 1275.82 1938.71 1280.52 Q1938.71 1285.22 1940.63 1287.9 Q1942.57 1290.56 1945.95 1290.56 Q1949.33 1290.56 1951.25 1287.9 Q1953.2 1285.22 1953.2 1280.52 Z" fill="#000000" fill-rule="nonzero" fill-opacity="1"></path><path clip-path="url(#clip810)" d="M1964.68 1257.44 L1968.94 1257.44 L1968.94 1293.46 L1964.68 1293.46 L1964.68 1257.44 Z" fill="#000000" fill-rule="nonzero" fill-opacity="1"></path><path clip-path="url(#clip810)" d="M1989.63 1280.42 Q1984.47 1280.42 1982.48 1281.6 Q1980.49 1282.79 1980.49 1285.63 Q1980.49 1287.9 1981.97 1289.24 Q1983.48 1290.56 1986.05 1290.56 Q1989.59 1290.56 1991.72 1288.06 Q1993.87 1285.54 1993.87 1281.37 L1993.87 1280.42 L1989.63 1280.42 M1998.13 1278.66 L1998.13 1293.46 L1993.87 1293.46 L1993.87 1289.52 Q1992.41 1291.88 1990.24 1293.02 Q1988.06 1294.13 1984.91 1294.13 Q1980.93 1294.13 1978.57 1291.91 Q1976.23 1289.66 1976.23 1285.91 Q1976.23 1281.54 1979.15 1279.31 Q1982.09 1277.09 1987.9 1277.09 L1993.87 1277.09 L1993.87 1276.67 Q1993.87 1273.73 1991.93 1272.14 Q1990 1270.52 1986.51 1270.52 Q1984.29 1270.52 1982.18 1271.05 Q1980.07 1271.58 1978.13 1272.65 L1978.13 1268.71 Q1980.47 1267.81 1982.67 1267.37 Q1984.87 1266.91 1986.95 1266.91 Q1992.57 1266.91 1995.35 1269.82 Q1998.13 1272.74 1998.13 1278.66 Z" fill="#000000" fill-rule="nonzero" fill-opacity="1"></path><path clip-path="url(#clip810)" d="M2025.56 1268.53 L2025.56 1272.51 Q2023.75 1271.51 2021.93 1271.03 Q2020.12 1270.52 2018.27 1270.52 Q2014.12 1270.52 2011.83 1273.16 Q2009.54 1275.77 2009.54 1280.52 Q2009.54 1285.26 2011.83 1287.9 Q2014.12 1290.52 2018.27 1290.52 Q2020.12 1290.52 2021.93 1290.03 Q2023.75 1289.52 2025.56 1288.53 L2025.56 1292.46 Q2023.78 1293.29 2021.86 1293.71 Q2019.96 1294.13 2017.8 1294.13 Q2011.95 1294.13 2008.5 1290.45 Q2005.05 1286.77 2005.05 1280.52 Q2005.05 1274.17 2008.52 1270.54 Q2012.02 1266.91 2018.08 1266.91 Q2020.05 1266.91 2021.93 1267.32 Q2023.8 1267.72 2025.56 1268.53 Z" fill="#000000" fill-rule="nonzero" fill-opacity="1"></path><path clip-path="url(#clip810)" d="M2055.14 1279.43 L2055.14 1281.51 L2035.56 1281.51 Q2035.84 1285.91 2038.2 1288.22 Q2040.58 1290.52 2044.82 1290.52 Q2047.27 1290.52 2049.56 1289.91 Q2051.88 1289.31 2054.15 1288.11 L2054.15 1292.14 Q2051.86 1293.11 2049.45 1293.62 Q2047.04 1294.13 2044.56 1294.13 Q2038.36 1294.13 2034.73 1290.52 Q2031.12 1286.91 2031.12 1280.75 Q2031.12 1274.38 2034.54 1270.66 Q2037.99 1266.91 2043.82 1266.91 Q2049.05 1266.91 2052.09 1270.29 Q2055.14 1273.64 2055.14 1279.43 M2050.88 1278.18 Q2050.84 1274.68 2048.92 1272.6 Q2047.02 1270.52 2043.87 1270.52 Q2040.3 1270.52 2038.15 1272.53 Q2036.02 1274.54 2035.7 1278.2 L2050.88 1278.18 Z" fill="#000000" fill-rule="nonzero" fill-opacity="1"></path><path clip-path="url(#clip810)" d="M1763.99 1305.26 L1763.99 1350.77 L1809.5 1350.77 L1809.5 1305.26 L1763.99 1305.26 Z" fill="#e26f46" fill-rule="evenodd" fill-opacity="1" stroke="#000000" stroke-opacity="1" stroke-width="4.55111"></path>
<path clip-path="url(#clip810)" d="M1879.31 1310.74 L1883.99 1310.74 L1883.99 1324.9 L1900.98 1324.9 L1900.98 1310.74 L1905.65 1310.74 L1905.65 1345.3 L1900.98 1345.3 L1900.98 1328.84 L1883.99 1328.84 L1883.99 1345.3 L1879.31 1345.3 L1879.31 1310.74 Z" fill="#000000" fill-rule="nonzero" fill-opacity="1"></path><path clip-path="url(#clip810)" d="M1936.95 1331.27 L1936.95 1333.35 L1917.37 1333.35 Q1917.64 1337.75 1920 1340.06 Q1922.39 1342.36 1926.62 1342.36 Q1929.08 1342.36 1931.37 1341.75 Q1933.69 1341.15 1935.95 1339.95 L1935.95 1343.98 Q1933.66 1344.95 1931.25 1345.46 Q1928.85 1345.97 1926.37 1345.97 Q1920.17 1345.97 1916.53 1342.36 Q1912.92 1338.75 1912.92 1332.59 Q1912.92 1326.22 1916.35 1322.5 Q1919.8 1318.75 1925.63 1318.75 Q1930.86 1318.75 1933.89 1322.13 Q1936.95 1325.48 1936.95 1331.27 M1932.69 1330.02 Q1932.64 1326.52 1930.72 1324.44 Q1928.82 1322.36 1925.68 1322.36 Q1922.11 1322.36 1919.96 1324.37 Q1917.83 1326.38 1917.5 1330.04 L1932.69 1330.02 Z" fill="#000000" fill-rule="nonzero" fill-opacity="1"></path><path clip-path="url(#clip810)" d="M1943.94 1309.28 L1948.2 1309.28 L1948.2 1345.3 L1943.94 1345.3 L1943.94 1309.28 Z" fill="#000000" fill-rule="nonzero" fill-opacity="1"></path><path clip-path="url(#clip810)" d="M1977.3 1324.35 Q1978.89 1321.48 1981.12 1320.11 Q1983.34 1318.75 1986.35 1318.75 Q1990.4 1318.75 1992.6 1321.59 Q1994.8 1324.42 1994.8 1329.65 L1994.8 1345.3 L1990.51 1345.3 L1990.51 1329.79 Q1990.51 1326.06 1989.19 1324.25 Q1987.87 1322.45 1985.17 1322.45 Q1981.86 1322.45 1979.93 1324.65 Q1978.01 1326.85 1978.01 1330.64 L1978.01 1345.3 L1973.73 1345.3 L1973.73 1329.79 Q1973.73 1326.04 1972.41 1324.25 Q1971.09 1322.45 1968.34 1322.45 Q1965.07 1322.45 1963.15 1324.67 Q1961.23 1326.87 1961.23 1330.64 L1961.23 1345.3 L1956.95 1345.3 L1956.95 1319.37 L1961.23 1319.37 L1961.23 1323.4 Q1962.69 1321.01 1964.73 1319.88 Q1966.76 1318.75 1969.56 1318.75 Q1972.39 1318.75 1974.36 1320.18 Q1976.35 1321.62 1977.3 1324.35 Z" fill="#000000" fill-rule="nonzero" fill-opacity="1"></path><path clip-path="url(#clip810)" d="M2024.84 1329.65 L2024.84 1345.3 L2020.58 1345.3 L2020.58 1329.79 Q2020.58 1326.11 2019.15 1324.28 Q2017.71 1322.45 2014.84 1322.45 Q2011.39 1322.45 2009.4 1324.65 Q2007.41 1326.85 2007.41 1330.64 L2007.41 1345.3 L2003.13 1345.3 L2003.13 1309.28 L2007.41 1309.28 L2007.41 1323.4 Q2008.94 1321.06 2011 1319.9 Q2013.08 1318.75 2015.79 1318.75 Q2020.26 1318.75 2022.55 1321.52 Q2024.84 1324.28 2024.84 1329.65 Z" fill="#000000" fill-rule="nonzero" fill-opacity="1"></path><path clip-path="url(#clip810)" d="M2043.38 1322.36 Q2039.96 1322.36 2037.97 1325.04 Q2035.98 1327.7 2035.98 1332.36 Q2035.98 1337.01 2037.94 1339.69 Q2039.93 1342.36 2043.38 1342.36 Q2046.79 1342.36 2048.78 1339.67 Q2050.77 1336.99 2050.77 1332.36 Q2050.77 1327.75 2048.78 1325.06 Q2046.79 1322.36 2043.38 1322.36 M2043.38 1318.75 Q2048.94 1318.75 2052.11 1322.36 Q2055.28 1325.97 2055.28 1332.36 Q2055.28 1338.72 2052.11 1342.36 Q2048.94 1345.97 2043.38 1345.97 Q2037.8 1345.97 2034.63 1342.36 Q2031.49 1338.72 2031.49 1332.36 Q2031.49 1325.97 2034.63 1322.36 Q2037.8 1318.75 2043.38 1318.75 Z" fill="#000000" fill-rule="nonzero" fill-opacity="1"></path><path clip-path="url(#clip810)" d="M2062.34 1309.28 L2066.6 1309.28 L2066.6 1345.3 L2062.34 1345.3 L2062.34 1309.28 Z" fill="#000000" fill-rule="nonzero" fill-opacity="1"></path><path clip-path="url(#clip810)" d="M2079.73 1312.01 L2079.73 1319.37 L2088.5 1319.37 L2088.5 1322.68 L2079.73 1322.68 L2079.73 1336.75 Q2079.73 1339.93 2080.58 1340.83 Q2081.46 1341.73 2084.12 1341.73 L2088.5 1341.73 L2088.5 1345.3 L2084.12 1345.3 Q2079.19 1345.3 2077.32 1343.47 Q2075.44 1341.62 2075.44 1336.75 L2075.44 1322.68 L2072.32 1322.68 L2072.32 1319.37 L2075.44 1319.37 L2075.44 1312.01 L2079.73 1312.01 Z" fill="#000000" fill-rule="nonzero" fill-opacity="1"></path><path clip-path="url(#clip810)" d="M2092.25 1319.37 L2112.48 1319.37 L2112.48 1323.26 L2096.46 1341.89 L2112.48 1341.89 L2112.48 1345.3 L2091.67 1345.3 L2091.67 1341.41 L2107.69 1322.77 L2092.25 1322.77 L2092.25 1319.37 Z" fill="#000000" fill-rule="nonzero" fill-opacity="1"></path><path clip-path="url(#clip810)" d="M2160.12 1313.4 L2160.12 1318.33 Q2157.76 1316.13 2155.07 1315.04 Q2152.41 1313.95 2149.4 1313.95 Q2143.48 1313.95 2140.33 1317.59 Q2137.18 1321.2 2137.18 1328.05 Q2137.18 1334.88 2140.33 1338.51 Q2143.48 1342.12 2149.4 1342.12 Q2152.41 1342.12 2155.07 1341.04 Q2157.76 1339.95 2160.12 1337.75 L2160.12 1342.63 Q2157.67 1344.3 2154.91 1345.13 Q2152.18 1345.97 2149.12 1345.97 Q2141.28 1345.97 2136.76 1341.18 Q2132.25 1336.36 2132.25 1328.05 Q2132.25 1319.72 2136.76 1314.93 Q2141.28 1310.11 2149.12 1310.11 Q2152.23 1310.11 2154.96 1310.94 Q2157.71 1311.75 2160.12 1313.4 Z" fill="#000000" fill-rule="nonzero" fill-opacity="1"></path><path clip-path="url(#clip810)" d="M2167.16 1319.37 L2171.42 1319.37 L2171.42 1345.3 L2167.16 1345.3 L2167.16 1319.37 M2167.16 1309.28 L2171.42 1309.28 L2171.42 1314.67 L2167.16 1314.67 L2167.16 1309.28 Z" fill="#000000" fill-rule="nonzero" fill-opacity="1"></path><path clip-path="url(#clip810)" d="M2195.35 1323.35 Q2194.63 1322.94 2193.78 1322.75 Q2192.94 1322.54 2191.92 1322.54 Q2188.31 1322.54 2186.37 1324.9 Q2184.45 1327.24 2184.45 1331.64 L2184.45 1345.3 L2180.17 1345.3 L2180.17 1319.37 L2184.45 1319.37 L2184.45 1323.4 Q2185.79 1321.04 2187.94 1319.9 Q2190.1 1318.75 2193.17 1318.75 Q2193.61 1318.75 2194.15 1318.81 Q2194.68 1318.86 2195.33 1318.98 L2195.35 1323.35 Z" fill="#000000" fill-rule="nonzero" fill-opacity="1"></path><path clip-path="url(#clip810)" d="M2217.43 1320.37 L2217.43 1324.35 Q2215.63 1323.35 2213.8 1322.87 Q2211.99 1322.36 2210.14 1322.36 Q2206 1322.36 2203.71 1325 Q2201.42 1327.61 2201.42 1332.36 Q2201.42 1337.1 2203.71 1339.74 Q2206 1342.36 2210.14 1342.36 Q2211.99 1342.36 2213.8 1341.87 Q2215.63 1341.36 2217.43 1340.37 L2217.43 1344.3 Q2215.65 1345.13 2213.73 1345.55 Q2211.83 1345.97 2209.68 1345.97 Q2203.82 1345.97 2200.37 1342.29 Q2196.92 1338.61 2196.92 1332.36 Q2196.92 1326.01 2200.4 1322.38 Q2203.89 1318.75 2209.96 1318.75 Q2211.92 1318.75 2213.8 1319.16 Q2215.67 1319.56 2217.43 1320.37 Z" fill="#000000" fill-rule="nonzero" fill-opacity="1"></path><path clip-path="url(#clip810)" d="M2224.84 1309.28 L2229.1 1309.28 L2229.1 1345.3 L2224.84 1345.3 L2224.84 1309.28 Z" fill="#000000" fill-rule="nonzero" fill-opacity="1"></path><path clip-path="url(#clip810)" d="M2260.19 1331.27 L2260.19 1333.35 L2240.6 1333.35 Q2240.88 1337.75 2243.24 1340.06 Q2245.63 1342.36 2249.86 1342.36 Q2252.32 1342.36 2254.61 1341.75 Q2256.92 1341.15 2259.19 1339.95 L2259.19 1343.98 Q2256.9 1344.95 2254.49 1345.46 Q2252.09 1345.97 2249.61 1345.97 Q2243.41 1345.97 2239.77 1342.36 Q2236.16 1338.75 2236.16 1332.59 Q2236.16 1326.22 2239.59 1322.5 Q2243.04 1318.75 2248.87 1318.75 Q2254.1 1318.75 2257.13 1322.13 Q2260.19 1325.48 2260.19 1331.27 M2255.93 1330.02 Q2255.88 1326.52 2253.96 1324.44 Q2252.06 1322.36 2248.91 1322.36 Q2245.35 1322.36 2243.2 1324.37 Q2241.07 1326.38 2240.74 1330.04 L2255.93 1330.02 Z" fill="#000000" fill-rule="nonzero" fill-opacity="1"></path></svg>